  0
SECTION
  2
HEADER
  9
$ACADVER
  1
AC1024
  9
$ACADMAINTVER
 70
6
  9
$DWGCODEPAGE
  3
ANSI_1252
  9
$LASTSAVEDBY
  1
ezdxf
  9
$INSBASE
 10
0.0
 20
0.0
 30
0.0
  9
$EXTMIN
 10
1e+20
 20
1e+20
 30
1e+20
  9
$EXTMAX
 10
-1e+20
 20
-1e+20
 30
-1e+20
  9
$LIMMIN
 10
0.0
 20
0.0
  9
$LIMMAX
 10
420.0
 20
297.0
  9
$ORTHOMODE
 70
0
  9
$REGENMODE
 70
1
  9
$FILLMODE
 70
1
  9
$QTEXTMODE
 70
0
  9
$MIRRTEXT
 70
1
  9
$LTSCALE
 40
1.0
  9
$ATTMODE
 70
1
  9
$TEXTSIZE
 40
2.5
  9
$TRACEWID
 40
1.0
  9
$TEXTSTYLE
  7
OpenSans
  9
$CLAYER
  8
0
  9
$CELTYPE
  6
ByLayer
  9
$CECOLOR
 62
256
  9
$CELTSCALE
 40
1.0
  9
$DISPSILH
 70
0
  9
$DIMSCALE
 40
1.0
  9
$DIMASZ
 40
0.175
  9
$DIMEXO
 40
0.125
  9
$DIMDLI
 40
3.75
  9
$DIMRND
 40
0.0
  9
$DIMDLE
 40
0.0
  9
$DIMEXE
 40
0.375
  9
$DIMTP
 40
0.0
  9
$DIMTM
 40
0.0
  9
$DIMTXT
 40
0.25
  9
$DIMCEN
 40
2.5
  9
$DIMTSZ
 40
0.0
  9
$DIMTOL
 70
0
  9
$DIMLIM
 70
0
  9
$DIMTIH
 70
0
  9
$DIMTOH
 70
0
  9
$DIMSE1
 70
0
  9
$DIMSE2
 70
0
  9
$DIMTAD
 70
1
  9
$DIMZIN
 70
12
  9
$DIMBLK
  1
ARCHTICK
  9
$DIMASO
 70
1
  9
$DIMSHO
 70
1
  9
$DIMPOST
  1

  9
$DIMAPOST
  1

  9
$DIMALT
 70
0
  9
$DIMALTD
 70
3
  9
$DIMALTF
 40
0.03937007874
  9
$DIMLFAC
 40
100.0
  9
$DIMTOFL
 70
1
  9
$DIMTVP
 40
0.0
  9
$DIMTIX
 70
0
  9
$DIMSOXD
 70
0
  9
$DIMSAH
 70
0
  9
$DIMBLK1
  1

  9
$DIMBLK2
  1

  9
$DIMSTYLE
  2
EZDXF
  9
$DIMCLRD
 70
0
  9
$DIMCLRE
 70
0
  9
$DIMCLRT
 70
0
  9
$DIMTFAC
 40
0.5
  9
$DIMGAP
 40
0.1
  9
$DIMJUST
 70
0
  9
$DIMSD1
 70
0
  9
$DIMSD2
 70
0
  9
$DIMTOLJ
 70
0
  9
$DIMTZIN
 70
8
  9
$DIMALTZ
 70
0
  9
$DIMALTTZ
 70
0
  9
$DIMUPT
 70
1
  9
$DIMDEC
 70
2
  9
$DIMTDEC
 70
2
  9
$DIMALTU
 70
2
  9
$DIMALTTD
 70
3
  9
$DIMTXSTY
  7
OpenSansCondensed-Light
  9
$DIMAUNIT
 70
0
  9
$DIMADEC
 70
2
  9
$DIMALTRND
 40
0.0
  9
$DIMAZIN
 70
3
  9
$DIMDSEP
 70
46
  9
$DIMATFIT
 70
3
  9
$DIMFRAC
 70
0
  9
$DIMLDRBLK
  1

  9
$DIMLUNIT
 70
2
  9
$DIMLWD
 70
-2
  9
$DIMLWE
 70
-2
  9
$DIMTMOVE
 70
2
  9
$DIMFXL
 40
1.0
  9
$DIMFXLON
 70
0
  9
$DIMJOGANG
 40
0.785398163397
  9
$DIMTFILL
 70
0
  9
$DIMTFILLCLR
 70
0
  9
$DIMARCSYM
 70
0
  9
$DIMLTYPE
  6

  9
$DIMLTEX1
  6

  9
$DIMLTEX2
  6

  9
$DIMTXTDIRECTION
 70
0
  9
$LUNITS
 70
2
  9
$LUPREC
 70
4
  9
$SKETCHINC
 40
1.0
  9
$FILLETRAD
 40
10.0
  9
$AUNITS
 70
0
  9
$AUPREC
 70
2
  9
$MENU
  1
.
  9
$ELEVATION
 40
0.0
  9
$PELEVATION
 40
0.0
  9
$THICKNESS
 40
0.0
  9
$LIMCHECK
 70
0
  9
$CHAMFERA
 40
0.0
  9
$CHAMFERB
 40
0.0
  9
$CHAMFERC
 40
0.0
  9
$CHAMFERD
 40
0.0
  9
$SKPOLY
 70
0
  9
$TDCREATE
 40
2461286.875983796
  9
$TDUCREATE
 40
2458532.153996898
  9
$TDUPDATE
 40
2461286.875983796
  9
$TDUUPDATE
 40
2458532.1544311
  9
$TDINDWG
 40
0.0
  9
$TDUSRTIMER
 40
0.0
  9
$USRTIMER
 70
1
  9
$ANGBASE
 50
0.0
  9
$ANGDIR
 70
0
  9
$PDMODE
 70
0
  9
$PDSIZE
 40
0.0
  9
$PLINEWID
 40
0.0
  9
$SPLFRAME
 70
0
  9
$SPLINETYPE
 70
6
  9
$SPLINESEGS
 70
8
  9
$HANDSEED
  5
185
  9
$SURFTAB1
 70
6
  9
$SURFTAB2
 70
6
  9
$SURFTYPE
 70
6
  9
$SURFU
 70
6
  9
$SURFV
 70
6
  9
$UCSBASE
  2

  9
$UCSNAME
  2

  9
$UCSORG
 10
0.0
 20
0.0
 30
0.0
  9
$UCSXDIR
 10
1.0
 20
0.0
 30
0.0
  9
$UCSYDIR
 10
0.0
 20
1.0
 30
0.0
  9
$UCSORTHOREF
  2

  9
$UCSORTHOVIEW
 70
0
  9
$UCSORGTOP
 10
0.0
 20
0.0
 30
0.0
  9
$UCSORGBOTTOM
 10
0.0
 20
0.0
 30
0.0
  9
$UCSORGLEFT
 10
0.0
 20
0.0
 30
0.0
  9
$UCSORGRIGHT
 10
0.0
 20
0.0
 30
0.0
  9
$UCSORGFRONT
 10
0.0
 20
0.0
 30
0.0
  9
$UCSORGBACK
 10
0.0
 20
0.0
 30
0.0
  9
$PUCSBASE
  2

  9
$PUCSNAME
  2

  9
$PUCSORG
 10
0.0
 20
0.0
 30
0.0
  9
$PUCSXDIR
 10
1.0
 20
0.0
 30
0.0
  9
$PUCSYDIR
 10
0.0
 20
1.0
 30
0.0
  9
$PUCSORTHOREF
  2

  9
$PUCSORTHOVIEW
 70
0
  9
$PUCSORGTOP
 10
0.0
 20
0.0
 30
0.0
  9
$PUCSORGBOTTOM
 10
0.0
 20
0.0
 30
0.0
  9
$PUCSORGLEFT
 10
0.0
 20
0.0
 30
0.0
  9
$PUCSORGRIGHT
 10
0.0
 20
0.0
 30
0.0
  9
$PUCSORGFRONT
 10
0.0
 20
0.0
 30
0.0
  9
$PUCSORGBACK
 10
0.0
 20
0.0
 30
0.0
  9
$USERI1
 70
0
  9
$USERI2
 70
0
  9
$USERI3
 70
0
  9
$USERI4
 70
0
  9
$USERI5
 70
0
  9
$USERR1
 40
0.0
  9
$USERR2
 40
0.0
  9
$USERR3
 40
0.0
  9
$USERR4
 40
0.0
  9
$USERR5
 40
0.0
  9
$WORLDVIEW
 70
1
  9
$SHADEDGE
 70
3
  9
$SHADEDIF
 70
70
  9
$TILEMODE
 70
1
  9
$MAXACTVP
 70
64
  9
$PINSBASE
 10
0.0
 20
0.0
 30
0.0
  9
$PLIMCHECK
 70
0
  9
$PEXTMIN
 10
1e+20
 20
1e+20
 30
1e+20
  9
$PEXTMAX
 10
-1e+20
 20
-1e+20
 30
-1e+20
  9
$PLIMMIN
 10
0.0
 20
0.0
  9
$PLIMMAX
 10
420.0
 20
297.0
  9
$UNITMODE
 70
0
  9
$VISRETAIN
 70
1
  9
$PLINEGEN
 70
0
  9
$PSLTSCALE
 70
1
  9
$TREEDEPTH
 70
3020
  9
$CMLSTYLE
  2
Standard
  9
$CMLJUST
 70
0
  9
$CMLSCALE
 40
20.0
  9
$PROXYGRAPHICS
 70
1
  9
$MEASUREMENT
 70
1
  9
$CELWEIGHT
370
-1
  9
$ENDCAPS
280
0
  9
$JOINSTYLE
280
0
  9
$LWDISPLAY
290
0
  9
$INSUNITS
 70
6
  9
$HYPERLINKBASE
  1

  9
$STYLESHEET
  1

  9
$XEDIT
290
1
  9
$CEPSNTYPE
380
0
  9
$PSTYLEMODE
290
1
  9
$FINGERPRINTGUID
  2
{3D5A4116-5E36-4B9A-9C0F-B10D56F7F76B}
  9
$VERSIONGUID
  2
{3997B3E4-514A-49A2-AC9C-BCB85A3286F8}
  9
$EXTNAMES
290
1
  9
$PSVPSCALE
 40
0.0
  9
$OLESTARTUP
290
0
  9
$SORTENTS
280
127
  9
$INDEXCTL
280
0
  9
$HIDETEXT
280
1
  9
$XCLIPFRAME
280
1
  9
$HALOGAP
280
0
  9
$OBSCOLOR
 70
257
  9
$OBSLTYPE
280
0
  9
$INTERSECTIONDISPLAY
280
0
  9
$INTERSECTIONCOLOR
 70
257
  9
$DIMASSOC
280
2
  9
$PROJECTNAME
  1

  9
$CAMERADISPLAY
290
0
  9
$LENSLENGTH
 40
50.0
  9
$CAMERAHEIGHT
 40
0.0
  9
$STEPSPERSEC
 40
24.0
  9
$STEPSIZE
 40
100.0
  9
$3DDWFPREC
 40
2.0
  9
$PSOLWIDTH
 40
0.005
  9
$PSOLHEIGHT
 40
0.08
  9
$LOFTANG1
 40
1.570796326795
  9
$LOFTANG2
 40
1.570796326795
  9
$LOFTMAG1
 40
0.0
  9
$LOFTMAG2
 40
0.0
  9
$LOFTPARAM
 70
7
  9
$LOFTNORMALS
280
1
  9
$LATITUDE
 40
37.795
  9
$LONGITUDE
 40
-122.394
  9
$NORTHDIRECTION
 40
0.0
  9
$TIMEZONE
 70
-8000
  9
$LIGHTGLYPHDISPLAY
280
1
  9
$TILEMODELIGHTSYNCH
280
1
  9
$CMATERIAL
347
20
  9
$SOLIDHIST
280
0
  9
$SHOWHIST
280
1
  9
$DWFFRAME
280
2
  9
$DGNFRAME
280
2
  9
$REALWORLDSCALE
290
1
  9
$INTERFERECOLOR
 62
256
  9
$CSHADOW
280
0
  9
$SHADOWPLANELOCATION
 40
0.0
  0
ENDSEC
  0
SECTION
  2
CLASSES
  0
CLASS
  1
ACDBDICTIONARYWDFLT
  2
AcDbDictionaryWithDefault
  3
ObjectDBX Classes
 90
0
 91
0
280
0
281
0
  0
CLASS
  1
SUN
  2
AcDbSun
  3
SCENEOE
 90
1153
 91
0
280
0
281
0
  0
CLASS
  1
VISUALSTYLE
  2
AcDbVisualStyle
  3
ObjectDBX Classes
 90
4095
 91
0
280
0
281
0
  0
CLASS
  1
MATERIAL
  2
AcDbMaterial
  3
ObjectDBX Classes
 90
1153
 91
0
280
0
281
0
  0
CLASS
  1
SCALE
  2
AcDbScale
  3
ObjectDBX Classes
 90
1153
 91
0
280
0
281
0
  0
CLASS
  1
TABLESTYLE
  2
AcDbTableStyle
  3
ObjectDBX Classes
 90
4095
 91
0
280
0
281
0
  0
CLASS
  1
MLEADERSTYLE
  2
AcDbMLeaderStyle
  3
ACDB_MLEADERSTYLE_CLASS
 90
4095
 91
0
280
0
281
0
  0
CLASS
  1
DICTIONARYVAR
  2
AcDbDictionaryVar
  3
ObjectDBX Classes
 90
0
 91
0
280
0
281
0
  0
CLASS
  1
CELLSTYLEMAP
  2
AcDbCellStyleMap
  3
ObjectDBX Classes
 90
1152
 91
0
280
0
281
0
  0
CLASS
  1
MENTALRAYRENDERSETTINGS
  2
AcDbMentalRayRenderSettings
  3
SCENEOE
 90
1024
 91
0
280
0
281
0
  0
CLASS
  1
ACDBDETAILVIEWSTYLE
  2
AcDbDetailViewStyle
  3
ObjectDBX Classes
 90
1025
 91
0
280
0
281
0
  0
CLASS
  1
ACDBSECTIONVIEWSTYLE
  2
AcDbSectionViewStyle
  3
ObjectDBX Classes
 90
1025
 91
0
280
0
281
0
  0
CLASS
  1
RASTERVARIABLES
  2
AcDbRasterVariables
  3
ISM
 90
0
 91
0
280
0
281
0
  0
CLASS
  1
LAYOUT
  2
AcDbLayout
  3
ObjectDBX Classes
 90
0
 91
0
280
0
281
0
  0
CLASS
  1
ACDBPLACEHOLDER
  2
AcDbPlaceHolder
  3
ObjectDBX Classes
 90
0
 91
0
280
0
281
0
  0
ENDSEC
  0
SECTION
  2
TABLES
  0
TABLE
  2
VPORT
  5
8
330
0
100
AcDbSymbolTable
 70
1
  0
VPORT
  5
23
330
8
100
AcDbSymbolTableRecord
100
AcDbViewportTableRecord
  2
*Active
 70
0
 10
0.0
 20
0.0
 11
1.0
 21
1.0
 12
0.0
 22
0.0
 13
0.0
 23
0.0
 14
0.5
 24
0.5
 15
0.5
 25
0.5
 16
0.0
 26
0.0
 36
1.0
 17
0.0
 27
0.0
 37
0.0
 40
1000.0
 41
1.34
 42
50.0
 43
0.0
 44
0.0
 50
0.0
 51
0.0
 71
0
 72
1000
 73
1
 74
3
 75
0
 76
0
 77
0
 78
0
281
0
 65
0
146
0.0
  0
ENDTAB
  0
TABLE
  2
LTYPE
  5
2
330
0
100
AcDbSymbolTable
 70
21
  0
LTYPE
  5
24
330
2
100
AcDbSymbolTableRecord
100
AcDbLinetypeTableRecord
  2
ByBlock
 70
0
  3

 72
65
 73
0
 40
0.0
  0
LTYPE
  5
25
330
2
100
AcDbSymbolTableRecord
100
AcDbLinetypeTableRecord
  2
ByLayer
 70
0
  3

 72
65
 73
0
 40
0.0
  0
LTYPE
  5
26
330
2
100
AcDbSymbolTableRecord
100
AcDbLinetypeTableRecord
  2
Continuous
 70
0
  3

 72
65
 73
0
 40
0.0
  0
LTYPE
  5
2F
330
2
100
AcDbSymbolTableRecord
100
AcDbLinetypeTableRecord
  2
CENTER
 70
0
  3
Center ____ _ ____ _ ____ _ ____ _ ____ _ ____
 72
65
 73
4
 40
5.08
 49
3.175
 74
0
 49
-0.635
 74
0
 49
0.635
 74
0
 49
-0.635
 74
0
  0
LTYPE
  5
30
330
2
100
AcDbSymbolTableRecord
100
AcDbLinetypeTableRecord
  2
CENTERX2
 70
0
  3
Center (2x) ________  __  ________  __  ________
 72
65
 73
4
 40
8.89
 49
6.35
 74
0
 49
-0.635
 74
0
 49
1.27
 74
0
 49
-0.635
 74
0
  0
LTYPE
  5
31
330
2
100
AcDbSymbolTableRecord
100
AcDbLinetypeTableRecord
  2
CENTER2
 70
0
  3
Center (.5x) ____ _ ____ _ ____ _ ____ _ ____
 72
65
 73
4
 40
2.54
 49
1.587
 74
0
 49
-0.318
 74
0
 49
0.318
 74
0
 49
-0.318
 74
0
  0
LTYPE
  5
32
330
2
100
AcDbSymbolTableRecord
100
AcDbLinetypeTableRecord
  2
DASHED
 70
0
  3
Dashed __ __ __ __ __ __ __ __ __ __ __ __ __ _
 72
65
 73
2
 40
1.524
 49
1.27
 74
0
 49
-0.254
 74
0
  0
LTYPE
  5
33
330
2
100
AcDbSymbolTableRecord
100
AcDbLinetypeTableRecord
  2
DASHEDX2
 70
0
  3
Dashed (2x) ____  ____  ____  ____  ____  ____
 72
65
 73
2
 40
3.048
 49
2.54
 74
0
 49
-0.508
 74
0
  0
LTYPE
  5
34
330
2
100
AcDbSymbolTableRecord
100
AcDbLinetypeTableRecord
  2
DASHED2
 70
0
  3
Dashed (.5x) _ _ _ _ _ _ _ _ _ _ _ _ _ _
 72
65
 73
2
 40
0.762
 49
0.635
 74
0
 49
-0.127
 74
0
  0
LTYPE
  5
35
330
2
100
AcDbSymbolTableRecord
100
AcDbLinetypeTableRecord
  2
PHANTOM
 70
0
  3
Phantom ______  __  __  ______  __  __  ______
 72
65
 73
6
 40
6.35
 49
3.175
 74
0
 49
-0.635
 74
0
 49
0.635
 74
0
 49
-0.635
 74
0
 49
0.635
 74
0
 49
-0.635
 74
0
  0
LTYPE
  5
36
330
2
100
AcDbSymbolTableRecord
100
AcDbLinetypeTableRecord
  2
PHANTOMX2
 70
0
  3
Phantom (2x)____________    ____    ____    ____________
 72
65
 73
6
 40
10.795
 49
6.35
 74
0
 49
-0.635
 74
0
 49
1.27
 74
0
 49
-0.635
 74
0
 49
1.27
 74
0
 49
-0.635
 74
0
  0
LTYPE
  5
37
330
2
100
AcDbSymbolTableRecord
100
AcDbLinetypeTableRecord
  2
PHANTOM2
 70
0
  3
Phantom (.5x) ___ _ _ ___ _ _ ___ _ _ ___ _ _ ___
 72
65
 73
6
 40
3.175
 49
1.587
 74
0
 49
-0.318
 74
0
 49
0.318
 74
0
 49
-0.318
 74
0
 49
0.318
 74
0
 49
-0.318
 74
0
  0
LTYPE
  5
38
330
2
100
AcDbSymbolTableRecord
100
AcDbLinetypeTableRecord
  2
DASHDOT
 70
0
  3
Dash dot __ . __ . __ . __ . __ . __ . __ . __
 72
65
 73
4
 40
3.556
 49
2.54
 74
0
 49
-0.508
 74
0
 49
0.0
 74
0
 49
-0.508
 74
0
  0
LTYPE
  5
39
330
2
100
AcDbSymbolTableRecord
100
AcDbLinetypeTableRecord
  2
DASHDOTX2
 70
0
  3
Dash dot (2x) ____  .  ____  .  ____  .  ____
 72
65
 73
4
 40
6.096
 49
5.08
 74
0
 49
-0.508
 74
0
 49
0.0
 74
0
 49
-0.508
 74
0
  0
LTYPE
  5
3A
330
2
100
AcDbSymbolTableRecord
100
AcDbLinetypeTableRecord
  2
DASHDOT2
 70
0
  3
Dash dot (.5x) _ . _ . _ . _ . _ . _ . _ . _
 72
65
 73
4
 40
1.778
 49
1.27
 74
0
 49
-0.254
 74
0
 49
0.0
 74
0
 49
-0.254
 74
0
  0
LTYPE
  5
3B
330
2
100
AcDbSymbolTableRecord
100
AcDbLinetypeTableRecord
  2
DOT
 70
0
  3
Dot .  .  .  .  .  .  .  .  .  .  .  .  .  .  .  .
 72
65
 73
2
 40
0.508
 49
0.0
 74
0
 49
-0.508
 74
0
  0
LTYPE
  5
3C
330
2
100
AcDbSymbolTableRecord
100
AcDbLinetypeTableRecord
  2
DOTX2
 70
0
  3
Dot (2x) .    .    .    .    .    .    .    . 
 72
65
 73
2
 40
1.016
 49
0.0
 74
0
 49
-1.016
 74
0
  0
LTYPE
  5
3D
330
2
100
AcDbSymbolTableRecord
100
AcDbLinetypeTableRecord
  2
DOT2
 70
0
  3
Dot (.5) . . . . . . . . . . . . . . . . . . . 
 72
65
 73
2
 40
0.254
 49
0.0
 74
0
 49
-0.254
 74
0
  0
LTYPE
  5
3E
330
2
100
AcDbSymbolTableRecord
100
AcDbLinetypeTableRecord
  2
DIVIDE
 70
0
  3
Divide __ . . __ . . __ . . __ . . __ . . __
 72
65
 73
6
 40
4.064
 49
2.54
 74
0
 49
-0.508
 74
0
 49
0.0
 74
0
 49
-0.508
 74
0
 49
0.0
 74
0
 49
-0.508
 74
0
  0
LTYPE
  5
3F
330
2
100
AcDbSymbolTableRecord
100
AcDbLinetypeTableRecord
  2
DIVIDEX2
 70
0
  3
Divide (2x) ____  . .  ____  . .  ____  . .  ____
 72
65
 73
6
 40
6.604
 49
5.08
 74
0
 49
-0.508
 74
0
 49
0.0
 74
0
 49
-0.508
 74
0
 49
0.0
 74
0
 49
-0.508
 74
0
  0
LTYPE
  5
40
330
2
100
AcDbSymbolTableRecord
100
AcDbLinetypeTableRecord
  2
DIVIDE2
 70
0
  3
Divide(.5x) _ . _ . _ . _ . _ . _ . _ . _
 72
65
 73
6
 40
2.032
 49
1.27
 74
0
 49
-0.254
 74
0
 49
0.0
 74
0
 49
-0.254
 74
0
 49
0.0
 74
0
 49
-0.254
 74
0
  0
ENDTAB
  0
TABLE
  2
LAYER
  5
1
330
0
100
AcDbSymbolTable
 70
7
  0
LAYER
  5
27
330
1
100
AcDbSymbolTableRecord
100
AcDbLayerTableRecord
  2
0
 70
0
 62
7
  6
Continuous
370
-3
390
13
347
21
  0
LAYER
  5
28
330
1
100
AcDbSymbolTableRecord
100
AcDbLayerTableRecord
  2
Defpoints
 70
0
 62
7
  6
Continuous
290
0
370
-3
390
13
347
21
  0
LAYER
  5
8A
330
1
100
AcDbSymbolTableRecord
100
AcDbLayerTableRecord
  2
OUTLINE
 70
0
 62
7
  6
Continuous
370
-3
390
13
347
21
  0
LAYER
  5
8B
330
1
100
AcDbSymbolTableRecord
100
AcDbLayerTableRecord
  2
REF
 70
0
 62
8
  6
Continuous
370
-3
390
13
347
21
  0
LAYER
  5
8C
330
1
100
AcDbSymbolTableRecord
100
AcDbLayerTableRecord
  2
DIMS
 70
0
 62
1
  6
Continuous
370
-3
390
13
347
21
  0
LAYER
  5
8D
330
1
100
AcDbSymbolTableRecord
100
AcDbLayerTableRecord
  2
TEXT
 70
0
 62
3
  6
Continuous
370
-3
390
13
347
21
  0
LAYER
  5
8E
330
1
100
AcDbSymbolTableRecord
100
AcDbLayerTableRecord
  2
NOTES
 70
0
 62
4
  6
Continuous
370
-3
390
13
347
21
  0
ENDTAB
  0
TABLE
  2
STYLE
  5
5
330
0
100
AcDbSymbolTable
 70
26
  0
STYLE
  5
29
330
5
100
AcDbSymbolTableRecord
100
AcDbTextStyleTableRecord
  2
Standard
 70
0
 40
0.0
 41
1.0
 50
0.0
 71
0
 42
2.5
  3
txt
  4

  0
STYLE
  5
41
330
5
100
AcDbSymbolTableRecord
100
AcDbTextStyleTableRecord
  2
OpenSans-Light
 70
0
 40
0.0
 41
1.0
 50
0.0
 71
0
 42
2.5
  3
OpenSans-Light.ttf
  4

  0
STYLE
  5
42
330
5
100
AcDbSymbolTableRecord
100
AcDbTextStyleTableRecord
  2
OpenSans-Light-Italic
 70
0
 40
0.0
 41
1.0
 50
0.0
 71
0
 42
2.5
  3
OpenSans-LightItalic.ttf
  4

  0
STYLE
  5
43
330
5
100
AcDbSymbolTableRecord
100
AcDbTextStyleTableRecord
  2
OpenSans
 70
0
 40
0.0
 41
1.0
 50
0.0
 71
0
 42
2.5
  3
OpenSans-Regular.ttf
  4

  0
STYLE
  5
44
330
5
100
AcDbSymbolTableRecord
100
AcDbTextStyleTableRecord
  2
OpenSans-Italic
 70
0
 40
0.0
 41
1.0
 50
0.0
 71
0
 42
2.5
  3
OpenSans-Italic.ttf
  4

  0
STYLE
  5
45
330
5
100
AcDbSymbolTableRecord
100
AcDbTextStyleTableRecord
  2
OpenSans-SemiBold
 70
0
 40
0.0
 41
1.0
 50
0.0
 71
0
 42
2.5
  3
OpenSans-SemiBold.ttf
  4

  0
STYLE
  5
46
330
5
100
AcDbSymbolTableRecord
100
AcDbTextStyleTableRecord
  2
OpenSans-SemiBoldItalic
 70
0
 40
0.0
 41
1.0
 50
0.0
 71
0
 42
2.5
  3
OpenSans-SemiBoldItalic.ttf
  4

  0
STYLE
  5
47
330
5
100
AcDbSymbolTableRecord
100
AcDbTextStyleTableRecord
  2
OpenSans-Bold
 70
0
 40
0.0
 41
1.0
 50
0.0
 71
0
 42
2.5
  3
OpenSans-Bold.ttf
  4

  0
STYLE
  5
48
330
5
100
AcDbSymbolTableRecord
100
AcDbTextStyleTableRecord
  2
OpenSans-BoldItalic
 70
0
 40
0.0
 41
1.0
 50
0.0
 71
0
 42
2.5
  3
OpenSans-BoldItalic.ttf
  4

  0
STYLE
  5
49
330
5
100
AcDbSymbolTableRecord
100
AcDbTextStyleTableRecord
  2
OpenSans-ExtraBold
 70
0
 40
0.0
 41
1.0
 50
0.0
 71
0
 42
2.5
  3
OpenSans-ExtraBold.ttf
  4

  0
STYLE
  5
4A
330
5
100
AcDbSymbolTableRecord
100
AcDbTextStyleTableRecord
  2
OpenSans-ExtraBoldItalic
 70
0
 40
0.0
 41
1.0
 50
0.0
 71
0
 42
2.5
  3
OpenSans-ExtraBoldItalic.ttf
  4

  0
STYLE
  5
4B
330
5
100
AcDbSymbolTableRecord
100
AcDbTextStyleTableRecord
  2
OpenSansCondensed-Bold
 70
0
 40
0.0
 41
1.0
 50
0.0
 71
0
 42
2.5
  3
OpenSansCondensed-Bold.ttf
  4

  0
STYLE
  5
4C
330
5
100
AcDbSymbolTableRecord
100
AcDbTextStyleTableRecord
  2
OpenSansCondensed-Light
 70
0
 40
0.0
 41
1.0
 50
0.0
 71
0
 42
2.5
  3
OpenSansCondensed-Light.ttf
  4

  0
STYLE
  5
4D
330
5
100
AcDbSymbolTableRecord
100
AcDbTextStyleTableRecord
  2
OpenSansCondensed-Italic
 70
0
 40
0.0
 41
1.0
 50
0.0
 71
0
 42
2.5
  3
OpenSansCondensed-LightItalic.ttf
  4

  0
STYLE
  5
4E
330
5
100
AcDbSymbolTableRecord
100
AcDbTextStyleTableRecord
  2
LiberationSans
 70
0
 40
0.0
 41
1.0
 50
0.0
 71
0
 42
2.5
  3
LiberationSans-Regular.ttf
  4

  0
STYLE
  5
4F
330
5
100
AcDbSymbolTableRecord
100
AcDbTextStyleTableRecord
  2
LiberationSans-Bold
 70
0
 40
0.0
 41
1.0
 50
0.0
 71
0
 42
2.5
  3
LiberationSans-Bold.ttf
  4

  0
STYLE
  5
50
330
5
100
AcDbSymbolTableRecord
100
AcDbTextStyleTableRecord
  2
LiberationSans-BoldItalic
 70
0
 40
0.0
 41
1.0
 50
0.0
 71
0
 42
2.5
  3
LiberationSans-BoldItalic.ttf
  4

  0
STYLE
  5
51
330
5
100
AcDbSymbolTableRecord
100
AcDbTextStyleTableRecord
  2
LiberationSans-Italic
 70
0
 40
0.0
 41
1.0
 50
0.0
 71
0
 42
2.5
  3
LiberationSans-Italic.ttf
  4

  0
STYLE
  5
52
330
5
100
AcDbSymbolTableRecord
100
AcDbTextStyleTableRecord
  2
LiberationSerif
 70
0
 40
0.0
 41
1.0
 50
0.0
 71
0
 42
2.5
  3
LiberationSerif-Regular.ttf
  4

  0
STYLE
  5
53
330
5
100
AcDbSymbolTableRecord
100
AcDbTextStyleTableRecord
  2
LiberationSerif-Bold
 70
0
 40
0.0
 41
1.0
 50
0.0
 71
0
 42
2.5
  3
LiberationSerif-Bold.ttf
  4

  0
STYLE
  5
54
330
5
100
AcDbSymbolTableRecord
100
AcDbTextStyleTableRecord
  2
LiberationSerif-BoldItalic
 70
0
 40
0.0
 41
1.0
 50
0.0
 71
0
 42
2.5
  3
LiberationSerif-BoldItalic.ttf
  4

  0
STYLE
  5
55
330
5
100
AcDbSymbolTableRecord
100
AcDbTextStyleTableRecord
  2
LiberationSerif-Italic
 70
0
 40
0.0
 41
1.0
 50
0.0
 71
0
 42
2.5
  3
LiberationSerif-Italic.ttf
  4

  0
STYLE
  5
56
330
5
100
AcDbSymbolTableRecord
100
AcDbTextStyleTableRecord
  2
LiberationMono
 70
0
 40
0.0
 41
1.0
 50
0.0
 71
0
 42
2.5
  3
LiberationMono-Regular.ttf
  4

  0
STYLE
  5
57
330
5
100
AcDbSymbolTableRecord
100
AcDbTextStyleTableRecord
  2
LiberationMono-Bold
 70
0
 40
0.0
 41
1.0
 50
0.0
 71
0
 42
2.5
  3
LiberationMono-Bold.ttf
  4

  0
STYLE
  5
58
330
5
100
AcDbSymbolTableRecord
100
AcDbTextStyleTableRecord
  2
LiberationMono-BoldItalic
 70
0
 40
0.0
 41
1.0
 50
0.0
 71
0
 42
2.5
  3
LiberationMono-BoldItalic.ttf
  4

  0
STYLE
  5
59
330
5
100
AcDbSymbolTableRecord
100
AcDbTextStyleTableRecord
  2
LiberationMono-Italic
 70
0
 40
0.0
 41
1.0
 50
0.0
 71
0
 42
2.5
  3
LiberationMono-Italic.ttf
  4

  0
ENDTAB
  0
TABLE
  2
VIEW
  5
7
330
0
100
AcDbSymbolTable
 70
0
  0
ENDTAB
  0
TABLE
  2
UCS
  5
6
330
0
100
AcDbSymbolTable
 70
0
  0
ENDTAB
  0
TABLE
  2
APPID
  5
3
330
0
100
AcDbSymbolTable
 70
3
  0
APPID
  5
2A
330
3
100
AcDbSymbolTableRecord
100
AcDbRegAppTableRecord
  2
ACAD
 70
0
  0
APPID
  5
182
330
3
100
AcDbSymbolTableRecord
100
AcDbRegAppTableRecord
  2
HATCHBACKGROUNDCOLOR
 70
0
  0
APPID
  5
183
330
3
100
AcDbSymbolTableRecord
100
AcDbRegAppTableRecord
  2
EZDXF
 70
0
  0
ENDTAB
  0
TABLE
  2
DIMSTYLE
  5
4
330
0
100
AcDbSymbolTable
 70
12
100
AcDbDimStyleTable
  0
DIMSTYLE
105
2B
330
4
100
AcDbSymbolTableRecord
100
AcDbDimStyleTableRecord
  2
Standard
 70
0
 40
1.0
 41
2.5
 42
0.625
 43
3.75
 44
1.25
 45
0.0
 46
0.0
 47
0.0
 48
0.0
 49
2.5
140
2.5
141
2.5
142
0.0
143
0.03937007874
144
1.0
145
0.0
146
1.0
147
0.625
148
0.0
 69
0
 70
0
 71
0
 72
0
 73
0
 74
0
 75
0
 76
0
 77
1
 78
8
 79
3
170
0
171
3
172
1
173
0
174
0
175
0
176
0
177
0
178
0
179
2
271
2
272
2
273
2
274
3
275
0
276
0
277
2
278
44
279
0
280
0
281
0
282
0
283
0
284
8
285
0
286
0
288
0
289
3
290
0
371
-2
372
-2
  0
DIMSTYLE
105
73
330
4
100
AcDbSymbolTableRecord
100
AcDbDimStyleTableRecord
  2
EZDXF
 70
0
 40
1.0
 41
0.175
 42
0.125
 43
3.75
 44
0.375
 45
0.0
 46
0.0
 47
0.0
 48
0.0
 49
2.5
140
0.25
141
2.5
142
0.0
143
0.03937007874
144
100.0
145
0.0
146
0.5
147
0.1
148
0.0
 69
0
 70
0
 71
0
 72
0
 73
0
 74
0
 75
0
 76
0
 77
1
 78
12
 79
3
170
0
171
3
172
1
173
0
174
0
175
0
176
0
177
0
178
0
179
2
271
2
272
2
273
2
274
3
275
0
276
0
277
2
278
46
279
2
280
0
281
0
282
0
283
0
284
8
285
0
286
0
288
1
289
3
290
0
340
4C
342
74
371
-2
372
-2
  0
DIMSTYLE
105
7C
330
4
100
AcDbSymbolTableRecord
100
AcDbDimStyleTableRecord
  2
EZ_M_100_H25_CM
 70
0
 40
1.0
 41
0.25
 42
0.125
 43
3.75
 44
0.375
 45
0.0
 46
0.0
 47
0.0
 48
0.0
 49
2.5
140
0.25
141
2.5
142
0.125
143
0.03937007874
144
100.0
145
0.0
146
0.5
147
0.1
148
0.0
 69
0
 70
0
 71
0
 72
0
 73
0
 74
0
 75
0
 76
0
 77
1
 78
12
 79
3
170
0
171
3
172
1
173
0
174
0
175
0
176
0
177
0
178
0
179
2
271
2
272
2
273
2
274
3
275
0
276
0
277
2
278
46
279
2
280
0
281
0
282
0
283
0
284
8
285
0
286
0
288
1
289
3
290
0
340
4C
371
-2
372
-2
  0
DIMSTYLE
105
7D
330
4
100
AcDbSymbolTableRecord
100
AcDbDimStyleTableRecord
  2
EZ_M_50_H25_CM
 70
0
 40
1.0
 41
0.125
 42
0.0625
 43
3.75
 44
0.1875
 45
0.0
 46
0.0
 47
0.0
 48
0.0
 49
2.5
140
0.125
141
2.5
142
0.0625
143
0.03937007874
144
100.0
145
0.0
146
0.5
147
0.05
148
0.0
 69
0
 70
0
 71
0
 72
0
 73
0
 74
0
 75
0
 76
0
 77
1
 78
12
 79
3
170
0
171
3
172
1
173
0
174
0
175
0
176
0
177
0
178
0
179
2
271
2
272
2
273
2
274
3
275
0
276
0
277
2
278
46
279
2
280
0
281
0
282
0
283
0
284
8
285
0
286
0
288
1
289
3
290
0
340
4C
371
-2
372
-2
  0
DIMSTYLE
105
7E
330
4
100
AcDbSymbolTableRecord
100
AcDbDimStyleTableRecord
  2
EZ_M_25_H25_CM
 70
0
 40
1.0
 41
0.0625
 42
0.03125
 43
3.75
 44
0.09375
 45
0.0
 46
0.0
 47
0.0
 48
0.0
 49
2.5
140
0.0625
141
2.5
142
0.03125
143
0.03937007874
144
100.0
145
0.0
146
0.5
147
0.025
148
0.0
 69
0
 70
0
 71
0
 72
0
 73
0
 74
0
 75
0
 76
0
 77
1
 78
12
 79
3
170
0
171
3
172
1
173
0
174
0
175
0
176
0
177
0
178
0
179
2
271
2
272
2
273
2
274
3
275
0
276
0
277
2
278
46
279
2
280
0
281
0
282
0
283
0
284
8
285
0
286
0
288
1
289
3
290
0
340
4C
371
-2
372
-2
  0
DIMSTYLE
105
7F
330
4
100
AcDbSymbolTableRecord
100
AcDbDimStyleTableRecord
  2
EZ_M_20_H25_CM
 70
0
 40
1.0
 41
0.05
 42
0.025
 43
3.75
 44
0.07500000000000001
 45
0.0
 46
0.0
 47
0.0
 48
0.0
 49
2.5
140
0.05
141
2.5
142
0.025
143
0.03937007874
144
100.0
145
0.0
146
0.5
147
0.020000000000000004
148
0.0
 69
0
 70
0
 71
0
 72
0
 73
0
 74
0
 75
0
 76
0
 77
1
 78
12
 79
3
170
0
171
3
172
1
173
0
174
0
175
0
176
0
177
0
178
0
179
2
271
2
272
2
273
2
274
3
275
0
276
0
277
2
278
46
279
2
280
0
281
0
282
0
283
0
284
8
285
0
286
0
288
1
289
3
290
0
340
4C
371
-2
372
-2
  0
DIMSTYLE
105
80
330
4
100
AcDbSymbolTableRecord
100
AcDbDimStyleTableRecord
  2
EZ_M_10_H25_CM
 70
0
 40
1.0
 41
0.025
 42
0.0125
 43
3.75
 44
0.037500000000000006
 45
0.0
 46
0.0
 47
0.0
 48
0.0
 49
2.5
140
0.025
141
2.5
142
0.0125
143
0.03937007874
144
100.0
145
0.0
146
0.5
147
0.010000000000000002
148
0.0
 69
0
 70
0
 71
0
 72
0
 73
0
 74
0
 75
0
 76
0
 77
1
 78
12
 79
3
170
0
171
3
172
1
173
0
174
0
175
0
176
0
177
0
178
0
179
2
271
2
272
2
273
2
274
3
275
0
276
0
277
2
278
46
279
2
280
0
281
0
282
0
283
0
284
8
285
0
286
0
288
1
289
3
290
0
340
4C
371
-2
372
-2
  0
DIMSTYLE
105
81
330
4
100
AcDbSymbolTableRecord
100
AcDbDimStyleTableRecord
  2
EZ_M_5_H25_CM
 70
0
 40
1.0
 41
0.0125
 42
0.00625
 43
3.75
 44
0.018750000000000003
 45
0.0
 46
0.0
 47
0.0
 48
0.0
 49
2.5
140
0.0125
141
2.5
142
0.00625
143
0.03937007874
144
100.0
145
0.0
146
0.5
147
0.005000000000000001
148
0.0
 69
0
 70
0
 71
0
 72
0
 73
0
 74
0
 75
0
 76
0
 77
1
 78
12
 79
3
170
0
171
3
172
1
173
0
174
0
175
0
176
0
177
0
178
0
179
2
271
2
272
2
273
2
274
3
275
0
276
0
277
2
278
46
279
2
280
0
281
0
282
0
283
0
284
8
285
0
286
0
288
1
289
3
290
0
340
4C
371
-2
372
-2
  0
DIMSTYLE
105
82
330
4
100
AcDbSymbolTableRecord
100
AcDbDimStyleTableRecord
  2
EZ_M_1_H25_CM
 70
0
 40
1.0
 41
0.0025
 42
0.00125
 43
3.75
 44
0.00375
 45
0.0
 46
0.0
 47
0.0
 48
0.0
 49
2.5
140
0.0025
141
2.5
142
0.00125
143
0.03937007874
144
100.0
145
0.0
146
0.5
147
0.001
148
0.0
 69
0
 70
0
 71
0
 72
0
 73
0
 74
0
 75
0
 76
0
 77
1
 78
12
 79
3
170
0
171
3
172
1
173
0
174
0
175
0
176
0
177
0
178
0
179
2
271
2
272
2
273
2
274
3
275
0
276
0
277
2
278
46
279
2
280
0
281
0
282
0
283
0
284
8
285
0
286
0
288
1
289
3
290
0
340
4C
371
-2
372
-2
  0
DIMSTYLE
105
83
330
4
100
AcDbSymbolTableRecord
100
AcDbDimStyleTableRecord
  2
EZ_RADIUS
 70
0
 40
1.0
 41
0.25
 42
0.125
 43
3.75
 44
0.375
 45
0.0
 46
0.0
 47
0.0
 48
0.0
 49
2.5
140
0.25
141
0.0
142
0.0
143
0.03937007874
144
100.0
145
0.0
146
0.5
147
0.1
148
0.0
 69
0
 70
0
 71
0
 72
0
 73
0
 74
0
 75
0
 76
0
 77
1
 78
12
 79
3
170
0
171
3
172
0
173
0
174
0
175
0
176
0
177
0
178
0
179
2
271
2
272
2
273
2
274
3
275
0
276
0
277
2
278
46
279
1
280
0
281
0
282
0
283
0
284
8
285
0
286
0
288
1
289
3
290
0
340
4C
342
84
371
-2
372
-2
  0
DIMSTYLE
105
88
330
4
100
AcDbSymbolTableRecord
100
AcDbDimStyleTableRecord
  2
EZ_RADIUS_INSIDE
 70
0
 40
1.0
 41
0.25
 42
0.125
 43
3.75
 44
0.375
 45
0.0
 46
0.0
 47
0.0
 48
0.0
 49
2.5
140
0.25
141
0.0
142
0.0
143
0.03937007874
144
100.0
145
0.0
146
0.5
147
0.1
148
0.0
 69
0
 70
0
 71
0
 72
0
 73
0
 74
0
 75
0
 76
0
 77
0
 78
12
 79
3
170
0
171
3
172
0
173
0
174
1
175
0
176
0
177
0
178
0
179
2
271
2
272
2
273
2
274
3
275
0
276
0
277
2
278
46
279
0
280
0
281
0
282
0
283
0
284
8
285
0
286
0
288
1
289
0
290
0
340
4C
342
84
371
-2
372
-2
  0
DIMSTYLE
105
89
330
4
100
AcDbSymbolTableRecord
100
AcDbDimStyleTableRecord
  2
EZ_CURVED
 70
0
 40
1.0
 41
0.25
 42
0.125
 43
3.75
 44
0.375
 45
0.0
 46
0.0
 47
0.0
 48
0.0
 49
2.5
140
0.25
141
2.5
142
0.0
143
0.03937007874
144
100.0
145
0.0
146
0.5
147
0.1
148
0.0
 69
0
 70
0
 71
0
 72
0
 73
0
 74
0
 75
0
 76
0
 77
1
 78
12
 79
2
 90
2
170
0
171
3
172
1
173
0
174
0
175
0
176
0
177
0
178
0
179
2
271
2
272
2
273
2
274
3
275
0
276
0
277
2
278
46
279
2
280
0
281
0
282
0
283
0
284
8
285
0
286
0
288
1
289
3
290
0
340
4C
371
-2
372
-2
  0
ENDTAB
  0
TABLE
  2
BLOCK_RECORD
  5
9
330
0
100
AcDbSymbolTable
 70
5
  0
BLOCK_RECORD
  5
17
330
9
100
AcDbSymbolTableRecord
100
AcDbBlockTableRecord
  2
*Model_Space
340
1A
 70
0
280
1
281
0
  0
BLOCK_RECORD
  5
1B
330
9
100
AcDbSymbolTableRecord
100
AcDbBlockTableRecord
  2
*Paper_Space
340
1E
 70
0
280
1
281
0
  0
BLOCK_RECORD
  5
74
330
9
100
AcDbSymbolTableRecord
100
AcDbBlockTableRecord
  2
_ARCHTICK
340
0
 70
0
280
1
281
0
  0
BLOCK_RECORD
  5
78
330
9
100
AcDbSymbolTableRecord
100
AcDbBlockTableRecord
  2
_CLOSEDFILLED
340
0
 70
0
280
1
281
0
  0
BLOCK_RECORD
  5
84
330
9
100
AcDbSymbolTableRecord
100
AcDbBlockTableRecord
  2
_CLOSEDBLANK
340
0
 70
0
280
1
281
0
  0
ENDTAB
  0
ENDSEC
  0
SECTION
  2
BLOCKS
  0
BLOCK
  5
18
330
17
100
AcDbEntity
  8
0
100
AcDbBlockBegin
  2
*Model_Space
 70
0
 10
0.0
 20
0.0
 30
0.0
  3
*Model_Space
  1

  0
ENDBLK
  5
19
330
17
100
AcDbEntity
  8
0
100
AcDbBlockEnd
  0
BLOCK
  5
1C
330
1B
100
AcDbEntity
  8
0
100
AcDbBlockBegin
  2
*Paper_Space
 70
0
 10
0.0
 20
0.0
 30
0.0
  3
*Paper_Space
  1

  0
ENDBLK
  5
1D
330
1B
100
AcDbEntity
  8
0
100
AcDbBlockEnd
  0
BLOCK
  5
75
330
74
100
AcDbEntity
  8
0
100
AcDbBlockBegin
  2
_ARCHTICK
 70
0
 10
0.0
 20
0.0
 30
0.0
  3
_ARCHTICK
  1

  0
LWPOLYLINE
  5
77
330
74
100
AcDbEntity
  8
0
  6
BYBLOCK
 62
0
100
AcDbPolyline
 90
2
 70
0
 43
0.15
 10
-0.5
 20
-0.5
 10
0.5
 20
0.5
  0
ENDBLK
  5
76
330
74
100
AcDbEntity
  8
0
100
AcDbBlockEnd
  0
BLOCK
  5
79
330
78
100
AcDbEntity
  8
0
100
AcDbBlockBegin
  2
_CLOSEDFILLED
 70
0
 10
0.0
 20
0.0
 30
0.0
  3
_CLOSEDFILLED
  1

  0
SOLID
  5
7B
330
78
100
AcDbEntity
  8
0
  6
BYBLOCK
 62
0
100
AcDbTrace
 10
-1.0
 20
0.16439898372402537
 30
0.0
 11
0.0
 21
0.0
 31
0.0
 12
-1.0
 22
-0.16439898372402537
 32
0.0
 13
-1.0
 23
-0.16439898372402537
 33
0.0
  0
ENDBLK
  5
7A
330
78
100
AcDbEntity
  8
0
100
AcDbBlockEnd
  0
BLOCK
  5
85
330
84
100
AcDbEntity
  8
0
100
AcDbBlockBegin
  2
_CLOSEDBLANK
 70
0
 10
0.0
 20
0.0
 30
0.0
  3
_CLOSEDBLANK
  1

  0
LWPOLYLINE
  5
87
330
84
100
AcDbEntity
  8
0
  6
BYBLOCK
 62
0
100
AcDbPolyline
 90
3
 70
1
 10
-1.0
 20
0.16439898372402537
 10
0.0
 20
0.0
 10
-1.0
 20
-0.16439898372402537
  0
ENDBLK
  5
86
330
84
100
AcDbEntity
  8
0
100
AcDbBlockEnd
  0
ENDSEC
  0
SECTION
  2
ENTITIES
  0
TEXT
  5
8F
330
17
100
AcDbEntity
  8
TEXT
100
AcDbText
 10
0.0
 20
0.0
 30
0.0
 40
5.0
  1
HazardLink gateway v8A assembly sections (mm)
 11
0.0
 21
0.0
 31
0.0
100
AcDbText
  0
LINE
  5
90
330
17
100
AcDbEntity
  8
OUTLINE
100
AcDbLine
 10
10.0
 20
-30.0
 30
0.0
 11
40.0
 21
-30.0
 31
0.0
  0
LINE
  5
91
330
17
100
AcDbEntity
  8
OUTLINE
100
AcDbLine
 10
10.0
 20
-110.0
 30
0.0
 11
10.0
 21
-30.0
 31
0.0
  0
LINE
  5
92
330
17
100
AcDbEntity
  8
OUTLINE
100
AcDbLine
 10
16.0
 20
-110.0
 30
0.0
 11
10.0
 21
-110.0
 31
0.0
  0
LINE
  5
93
330
17
100
AcDbEntity
  8
OUTLINE
100
AcDbLine
 10
16.0
 20
-107.5
 30
0.0
 11
16.0
 21
-110.0
 31
0.0
  0
LINE
  5
94
330
17
100
AcDbEntity
  8
OUTLINE
100
AcDbLine
 10
12.5
 20
-107.5
 30
0.0
 11
16.0
 21
-107.5
 31
0.0
  0
LINE
  5
95
330
17
100
AcDbEntity
  8
OUTLINE
100
AcDbLine
 10
12.5
 20
-83.0
 30
0.0
 11
12.5
 21
-107.5
 31
0.0
  0
LINE
  5
96
330
17
100
AcDbEntity
  8
OUTLINE
100
AcDbLine
 10
37.0
 20
-83.0
 30
0.0
 11
12.5
 21
-83.0
 31
0.0
  0
LINE
  5
97
330
17
100
AcDbEntity
  8
OUTLINE
100
AcDbLine
 10
37.0
 20
-81.0
 30
0.0
 11
37.0
 21
-83.0
 31
0.0
  0
LINE
  5
98
330
17
100
AcDbEntity
  8
OUTLINE
100
AcDbLine
 10
30.7
 20
-81.0
 30
0.0
 11
37.0
 21
-81.0
 31
0.0
  0
LINE
  5
99
330
17
100
AcDbEntity
  8
OUTLINE
100
AcDbLine
 10
30.7
 20
-79.9
 30
0.0
 11
30.7
 21
-81.0
 31
0.0
  0
LINE
  5
9A
330
17
100
AcDbEntity
  8
OUTLINE
100
AcDbLine
 10
12.5
 20
-79.9
 30
0.0
 11
30.7
 21
-79.9
 31
0.0
  0
LINE
  5
9B
330
17
100
AcDbEntity
  8
OUTLINE
100
AcDbLine
 10
12.5
 20
-56.1
 30
0.0
 11
12.5
 21
-79.9
 31
0.0
  0
LINE
  5
9C
330
17
100
AcDbEntity
  8
OUTLINE
100
AcDbLine
 10
30.7
 20
-56.1
 30
0.0
 11
12.5
 21
-56.1
 31
0.0
  0
LINE
  5
9D
330
17
100
AcDbEntity
  8
OUTLINE
100
AcDbLine
 10
30.7
 20
-55.0
 30
0.0
 11
30.7
 21
-56.1
 31
0.0
  0
LINE
  5
9E
330
17
100
AcDbEntity
  8
OUTLINE
100
AcDbLine
 10
37.0
 20
-55.0
 30
0.0
 11
30.7
 21
-55.0
 31
0.0
  0
LINE
  5
9F
330
17
100
AcDbEntity
  8
OUTLINE
100
AcDbLine
 10
37.0
 20
-53.0
 30
0.0
 11
37.0
 21
-55.0
 31
0.0
  0
LINE
  5
A0
330
17
100
AcDbEntity
  8
OUTLINE
100
AcDbLine
 10
12.5
 20
-53.0
 30
0.0
 11
37.0
 21
-53.0
 31
0.0
  0
LINE
  5
A1
330
17
100
AcDbEntity
  8
OUTLINE
100
AcDbLine
 10
12.5
 20
-32.5
 30
0.0
 11
12.5
 21
-53.0
 31
0.0
  0
LINE
  5
A2
330
17
100
AcDbEntity
  8
OUTLINE
100
AcDbLine
 10
40.0
 20
-32.5
 30
0.0
 11
12.5
 21
-32.5
 31
0.0
  0
LINE
  5
A3
330
17
100
AcDbEntity
  8
OUTLINE
100
AcDbLine
 10
40.0
 20
-30.0
 30
0.0
 11
40.0
 21
-32.5
 31
0.0
  0
LINE
  5
A4
330
17
100
AcDbEntity
  8
OUTLINE
100
AcDbLine
 10
28.0
 20
-107.5
 30
0.0
 11
40.0
 21
-107.5
 31
0.0
  0
LINE
  5
A5
330
17
100
AcDbEntity
  8
OUTLINE
100
AcDbLine
 10
28.0
 20
-110.0
 30
0.0
 11
28.0
 21
-107.5
 31
0.0
  0
LINE
  5
A6
330
17
100
AcDbEntity
  8
OUTLINE
100
AcDbLine
 10
40.0
 20
-110.0
 30
0.0
 11
28.0
 21
-110.0
 31
0.0
  0
LINE
  5
A7
330
17
100
AcDbEntity
  8
OUTLINE
100
AcDbLine
 10
40.0
 20
-107.5
 30
0.0
 11
40.0
 21
-110.0
 31
0.0
  0
LINE
  5
A8
330
17
100
AcDbEntity
  8
OUTLINE
100
AcDbLine
 10
26.0
 20
-107.5
 30
0.0
 11
26.0
 21
-110.0
 31
0.0
  0
LINE
  5
A9
330
17
100
AcDbEntity
  8
OUTLINE
100
AcDbLine
 10
23.0
 20
-107.5
 30
0.0
 11
26.0
 21
-107.5
 31
0.0
  0
LINE
  5
AA
330
17
100
AcDbEntity
  8
OUTLINE
100
AcDbLine
 10
23.0
 20
-110.0
 30
0.0
 11
23.0
 21
-107.5
 31
0.0
  0
LINE
  5
AB
330
17
100
AcDbEntity
  8
OUTLINE
100
AcDbLine
 10
26.0
 20
-110.0
 30
0.0
 11
23.0
 21
-110.0
 31
0.0
  0
LINE
  5
AC
330
17
100
AcDbEntity
  8
OUTLINE
100
AcDbLine
 10
21.0
 20
-107.5
 30
0.0
 11
21.0
 21
-110.0
 31
0.0
  0
LINE
  5
AD
330
17
100
AcDbEntity
  8
OUTLINE
100
AcDbLine
 10
18.0
 20
-107.5
 30
0.0
 11
21.0
 21
-107.5
 31
0.0
  0
LINE
  5
AE
330
17
100
AcDbEntity
  8
OUTLINE
100
AcDbLine
 10
18.0
 20
-110.0
 30
0.0
 11
18.0
 21
-107.5
 31
0.0
  0
LINE
  5
AF
330
17
100
AcDbEntity
  8
OUTLINE
100
AcDbLine
 10
21.0
 20
-110.0
 30
0.0
 11
18.0
 21
-110.0
 31
0.0
  0
LINE
  5
B0
330
17
100
AcDbEntity
  8
OUTLINE
100
AcDbLine
 10
40.0
 20
-30.0
 30
0.0
 11
43.0
 21
-30.0
 31
0.0
  0
LINE
  5
B1
330
17
100
AcDbEntity
  8
OUTLINE
100
AcDbLine
 10
40.0
 20
-32.75
 30
0.0
 11
40.0
 21
-30.0
 31
0.0
  0
LINE
  5
B2
330
17
100
AcDbEntity
  8
OUTLINE
100
AcDbLine
 10
36.0
 20
-32.75
 30
0.0
 11
40.0
 21
-32.75
 31
0.0
  0
LINE
  5
B3
330
17
100
AcDbEntity
  8
OUTLINE
100
AcDbLine
 10
36.0
 20
-34.75
 30
0.0
 11
36.0
 21
-32.75
 31
0.0
  0
LINE
  5
B4
330
17
100
AcDbEntity
  8
OUTLINE
100
AcDbLine
 10
40.0
 20
-34.75
 30
0.0
 11
36.0
 21
-34.75
 31
0.0
  0
LINE
  5
B5
330
17
100
AcDbEntity
  8
OUTLINE
100
AcDbLine
 10
40.0
 20
-55.3
 30
0.0
 11
40.0
 21
-34.75
 31
0.0
  0
LINE
  5
B6
330
17
100
AcDbEntity
  8
OUTLINE
100
AcDbLine
 10
32.8
 20
-55.3
 30
0.0
 11
40.0
 21
-55.3
 31
0.0
  0
LINE
  5
B7
330
17
100
AcDbEntity
  8
OUTLINE
100
AcDbLine
 10
32.8
 20
-57.199999999999996
 30
0.0
 11
32.8
 21
-55.3
 31
0.0
  0
LINE
  5
B8
330
17
100
AcDbEntity
  8
OUTLINE
100
AcDbLine
 10
40.0
 20
-57.199999999999996
 30
0.0
 11
32.8
 21
-57.199999999999996
 31
0.0
  0
LINE
  5
B9
330
17
100
AcDbEntity
  8
OUTLINE
100
AcDbLine
 10
40.0
 20
-57.75
 30
0.0
 11
40.0
 21
-57.199999999999996
 31
0.0
  0
LINE
  5
BA
330
17
100
AcDbEntity
  8
OUTLINE
100
AcDbLine
 10
41.3
 20
-57.75
 30
0.0
 11
40.0
 21
-57.75
 31
0.0
  0
LINE
  5
BB
330
17
100
AcDbEntity
  8
OUTLINE
100
AcDbLine
 10
41.3
 20
-59.5
 30
0.0
 11
41.3
 21
-57.75
 31
0.0
  0
LINE
  5
BC
330
17
100
AcDbEntity
  8
OUTLINE
100
AcDbLine
 10
42.2
 20
-59.5
 30
0.0
 11
41.3
 21
-59.5
 31
0.0
  0
LINE
  5
BD
330
17
100
AcDbEntity
  8
OUTLINE
100
AcDbLine
 10
42.2
 20
-58.7
 30
0.0
 11
42.2
 21
-59.5
 31
0.0
  0
LINE
  5
BE
330
17
100
AcDbEntity
  8
OUTLINE
100
AcDbLine
 10
43.0
 20
-58.7
 30
0.0
 11
42.2
 21
-58.7
 31
0.0
  0
LINE
  5
BF
330
17
100
AcDbEntity
  8
OUTLINE
100
AcDbLine
 10
43.0
 20
-30.0
 30
0.0
 11
43.0
 21
-58.7
 31
0.0
  0
LINE
  5
C0
330
17
100
AcDbEntity
  8
OUTLINE
100
AcDbLine
 10
42.2
 20
-76.3
 30
0.0
 11
43.0
 21
-76.3
 31
0.0
  0
LINE
  5
C1
330
17
100
AcDbEntity
  8
OUTLINE
100
AcDbLine
 10
42.2
 20
-75.5
 30
0.0
 11
42.2
 21
-76.3
 31
0.0
  0
LINE
  5
C2
330
17
100
AcDbEntity
  8
OUTLINE
100
AcDbLine
 10
41.3
 20
-75.5
 30
0.0
 11
42.2
 21
-75.5
 31
0.0
  0
LINE
  5
C3
330
17
100
AcDbEntity
  8
OUTLINE
100
AcDbLine
 10
41.3
 20
-77.25
 30
0.0
 11
41.3
 21
-75.5
 31
0.0
  0
LINE
  5
C4
330
17
100
AcDbEntity
  8
OUTLINE
100
AcDbLine
 10
40.0
 20
-77.25
 30
0.0
 11
41.3
 21
-77.25
 31
0.0
  0
LINE
  5
C5
330
17
100
AcDbEntity
  8
OUTLINE
100
AcDbLine
 10
40.0
 20
-78.8
 30
0.0
 11
40.0
 21
-77.25
 31
0.0
  0
LINE
  5
C6
330
17
100
AcDbEntity
  8
OUTLINE
100
AcDbLine
 10
32.8
 20
-78.8
 30
0.0
 11
40.0
 21
-78.8
 31
0.0
  0
LINE
  5
C7
330
17
100
AcDbEntity
  8
OUTLINE
100
AcDbLine
 10
32.8
 20
-80.7
 30
0.0
 11
32.8
 21
-78.8
 31
0.0
  0
LINE
  5
C8
330
17
100
AcDbEntity
  8
OUTLINE
100
AcDbLine
 10
40.0
 20
-80.7
 30
0.0
 11
32.8
 21
-80.7
 31
0.0
  0
LINE
  5
C9
330
17
100
AcDbEntity
  8
OUTLINE
100
AcDbLine
 10
40.0
 20
-105.25
 30
0.0
 11
40.0
 21
-80.7
 31
0.0
  0
LINE
  5
CA
330
17
100
AcDbEntity
  8
OUTLINE
100
AcDbLine
 10
36.0
 20
-105.25
 30
0.0
 11
40.0
 21
-105.25
 31
0.0
  0
LINE
  5
CB
330
17
100
AcDbEntity
  8
OUTLINE
100
AcDbLine
 10
36.0
 20
-107.25
 30
0.0
 11
36.0
 21
-105.25
 31
0.0
  0
LINE
  5
CC
330
17
100
AcDbEntity
  8
OUTLINE
100
AcDbLine
 10
40.0
 20
-107.25
 30
0.0
 11
36.0
 21
-107.25
 31
0.0
  0
LINE
  5
CD
330
17
100
AcDbEntity
  8
OUTLINE
100
AcDbLine
 10
40.0
 20
-110.0
 30
0.0
 11
40.0
 21
-107.25
 31
0.0
  0
LINE
  5
CE
330
17
100
AcDbEntity
  8
OUTLINE
100
AcDbLine
 10
43.0
 20
-110.0
 30
0.0
 11
40.0
 21
-110.0
 31
0.0
  0
LINE
  5
CF
330
17
100
AcDbEntity
  8
OUTLINE
100
AcDbLine
 10
43.0
 20
-104.0
 30
0.0
 11
43.0
 21
-110.0
 31
0.0
  0
LINE
  5
D0
330
17
100
AcDbEntity
  8
OUTLINE
100
AcDbLine
 10
42.5
 20
-104.0
 30
0.0
 11
43.0
 21
-104.0
 31
0.0
  0
LINE
  5
D1
330
17
100
AcDbEntity
  8
OUTLINE
100
AcDbLine
 10
42.5
 20
-84.0
 30
0.0
 11
42.5
 21
-104.0
 31
0.0
  0
LINE
  5
D2
330
17
100
AcDbEntity
  8
OUTLINE
100
AcDbLine
 10
43.0
 20
-84.0
 30
0.0
 11
42.5
 21
-84.0
 31
0.0
  0
LINE
  5
D3
330
17
100
AcDbEntity
  8
OUTLINE
100
AcDbLine
 10
43.0
 20
-76.3
 30
0.0
 11
43.0
 21
-84.0
 31
0.0
  0
LINE
  5
D4
330
17
100
AcDbEntity
  8
REF
100
AcDbLine
 10
32.5
 20
-77.28
 30
0.0
 11
32.5
 21
-80.7
 31
0.0
  0
LINE
  5
D5
330
17
100
AcDbEntity
  8
REF
100
AcDbLine
 10
37.5
 20
-77.28
 30
0.0
 11
32.5
 21
-77.28
 31
0.0
  0
LINE
  5
D6
330
17
100
AcDbEntity
  8
REF
100
AcDbLine
 10
37.5
 20
-58.72
 30
0.0
 11
37.5
 21
-77.28
 31
0.0
  0
LINE
  5
D7
330
17
100
AcDbEntity
  8
REF
100
AcDbLine
 10
32.5
 20
-58.72
 30
0.0
 11
37.5
 21
-58.72
 31
0.0
  0
LINE
  5
D8
330
17
100
AcDbEntity
  8
REF
100
AcDbLine
 10
32.5
 20
-55.3
 30
0.0
 11
32.5
 21
-58.72
 31
0.0
  0
LINE
  5
D9
330
17
100
AcDbEntity
  8
REF
100
AcDbLine
 10
30.7
 20
-55.3
 30
0.0
 11
32.5
 21
-55.3
 31
0.0
  0
LINE
  5
DA
330
17
100
AcDbEntity
  8
REF
100
AcDbLine
 10
30.700000000000003
 20
-80.7
 30
0.0
 11
30.7
 21
-55.3
 31
0.0
  0
LINE
  5
DB
330
17
100
AcDbEntity
  8
REF
100
AcDbLine
 10
32.5
 20
-80.7
 30
0.0
 11
30.700000000000003
 21
-80.7
 31
0.0
  0
LINE
  5
DC
330
17
100
AcDbEntity
  8
REF
100
AcDbLine
 10
40.3
 20
-57.85
 30
0.0
 11
41.3
 21
-57.85
 31
0.0
  0
LINE
  5
DD
330
17
100
AcDbEntity
  8
REF
100
AcDbLine
 10
40.3
 20
-77.15
 30
0.0
 11
40.3
 21
-57.85
 31
0.0
  0
LINE
  5
DE
330
17
100
AcDbEntity
  8
REF
100
AcDbLine
 10
41.3
 20
-77.15
 30
0.0
 11
40.3
 21
-77.15
 31
0.0
  0
LINE
  5
DF
330
17
100
AcDbEntity
  8
REF
100
AcDbLine
 10
41.3
 20
-57.85
 30
0.0
 11
41.3
 21
-77.15
 31
0.0
  0
TEXT
  5
E0
330
17
100
AcDbEntity
  8
TEXT
100
AcDbText
 10
10.0
 20
-120.0
 30
0.0
 40
2.8
  1
SIDE SECTION at X=77.3: window, insert, board on rails
 11
10.0
 21
-120.0
 31
0.0
100
AcDbText
  0
LINE
  5
E1
330
17
100
AcDbEntity
  8
OUTLINE
100
AcDbLine
 10
320.0
 20
-100.0
 30
0.0
 11
200.0
 21
-100.0
 31
0.0
  0
LINE
  5
E2
330
17
100
AcDbEntity
  8
OUTLINE
100
AcDbLine
 10
320.0
 20
-70.0
 30
0.0
 11
320.0
 21
-100.0
 31
0.0
  0
LINE
  5
E3
330
17
100
AcDbEntity
  8
OUTLINE
100
AcDbLine
 10
317.5
 20
-70.0
 30
0.0
 11
320.0
 21
-70.0
 31
0.0
  0
LINE
  5
E4
330
17
100
AcDbEntity
  8
OUTLINE
100
AcDbLine
 10
317.5
 20
-97.5
 30
0.0
 11
317.5
 21
-70.0
 31
0.0
  0
LINE
  5
E5
330
17
100
AcDbEntity
  8
OUTLINE
100
AcDbLine
 10
300.0
 20
-97.5
 30
0.0
 11
317.5
 21
-97.5
 31
0.0
  0
LINE
  5
E6
330
17
100
AcDbEntity
  8
OUTLINE
100
AcDbLine
 10
300.0
 20
-77.5
 30
0.0
 11
300.0
 21
-97.5
 31
0.0
  0
LINE
  5
E7
330
17
100
AcDbEntity
  8
OUTLINE
100
AcDbLine
 10
298.0
 20
-77.5
 30
0.0
 11
300.0
 21
-77.5
 31
0.0
  0
LINE
  5
E8
330
17
100
AcDbEntity
  8
OUTLINE
100
AcDbLine
 10
298.0
 20
-97.5
 30
0.0
 11
298.0
 21
-77.5
 31
0.0
  0
LINE
  5
E9
330
17
100
AcDbEntity
  8
OUTLINE
100
AcDbLine
 10
214.0
 20
-97.5
 30
0.0
 11
298.0
 21
-97.5
 31
0.0
  0
LINE
  5
EA
330
17
100
AcDbEntity
  8
OUTLINE
100
AcDbLine
 10
214.0
 20
-79.5
 30
0.0
 11
214.0
 21
-97.5
 31
0.0
  0
LINE
  5
EB
330
17
100
AcDbEntity
  8
OUTLINE
100
AcDbLine
 10
204.5
 20
-79.5
 30
0.0
 11
214.0
 21
-79.5
 31
0.0
  0
LINE
  5
EC
330
17
100
AcDbEntity
  8
OUTLINE
100
AcDbLine
 10
204.5
 20
-97.5
 30
0.0
 11
204.5
 21
-79.5
 31
0.0
  0
LINE
  5
ED
330
17
100
AcDbEntity
  8
OUTLINE
100
AcDbLine
 10
202.5
 20
-97.5
 30
0.0
 11
204.5
 21
-97.5
 31
0.0
  0
LINE
  5
EE
330
17
100
AcDbEntity
  8
OUTLINE
100
AcDbLine
 10
202.5
 20
-80.3
 30
0.0
 11
202.5
 21
-97.5
 31
0.0
  0
LINE
  5
EF
330
17
100
AcDbEntity
  8
OUTLINE
100
AcDbLine
 10
200.0
 20
-80.3
 30
0.0
 11
202.5
 21
-80.3
 31
0.0
  0
LINE
  5
F0
330
17
100
AcDbEntity
  8
OUTLINE
100
AcDbLine
 10
200.0
 20
-100.0
 30
0.0
 11
200.0
 21
-80.3
 31
0.0
  0
LINE
  5
F1
330
17
100
AcDbEntity
  8
OUTLINE
100
AcDbLine
 10
212.0
 20
-80.5
 30
0.0
 11
206.5
 21
-80.5
 31
0.0
  0
LINE
  5
F2
330
17
100
AcDbEntity
  8
OUTLINE
100
AcDbLine
 10
212.0
 20
-82.5
 30
0.0
 11
212.0
 21
-80.5
 31
0.0
  0
LINE
  5
F3
330
17
100
AcDbEntity
  8
OUTLINE
100
AcDbLine
 10
206.5
 20
-82.5
 30
0.0
 11
212.0
 21
-82.5
 31
0.0
  0
LINE
  5
F4
330
17
100
AcDbEntity
  8
OUTLINE
100
AcDbLine
 10
206.5
 20
-80.5
 30
0.0
 11
206.5
 21
-82.5
 31
0.0
  0
LINE
  5
F5
330
17
100
AcDbEntity
  8
OUTLINE
100
AcDbLine
 10
259.3
 20
-70.0
 30
0.0
 11
200.0
 21
-70.0
 31
0.0
  0
LINE
  5
F6
330
17
100
AcDbEntity
  8
OUTLINE
100
AcDbLine
 10
259.3
 20
-70.6
 30
0.0
 11
259.3
 21
-70.0
 31
0.0
  0
LINE
  5
F7
330
17
100
AcDbEntity
  8
OUTLINE
100
AcDbLine
 10
259.9
 20
-70.6
 30
0.0
 11
259.3
 21
-70.6
 31
0.0
  0
LINE
  5
F8
330
17
100
AcDbEntity
  8
OUTLINE
100
AcDbLine
 10
259.9
 20
-69.9
 30
0.0
 11
259.9
 21
-70.6
 31
0.0
  0
LINE
  5
F9
330
17
100
AcDbEntity
  8
OUTLINE
100
AcDbLine
 10
259.3
 20
-69.9
 30
0.0
 11
259.9
 21
-69.9
 31
0.0
  0
LINE
  5
FA
330
17
100
AcDbEntity
  8
OUTLINE
100
AcDbLine
 10
259.3
 20
-68.7
 30
0.0
 11
259.3
 21
-69.9
 31
0.0
  0
LINE
  5
FB
330
17
100
AcDbEntity
  8
OUTLINE
100
AcDbLine
 10
262.3
 20
-68.7
 30
0.0
 11
259.3
 21
-68.7
 31
0.0
  0
LINE
  5
FC
330
17
100
AcDbEntity
  8
OUTLINE
100
AcDbLine
 10
262.3
 20
-67.8
 30
0.0
 11
262.3
 21
-68.7
 31
0.0
  0
LINE
  5
FD
330
17
100
AcDbEntity
  8
OUTLINE
100
AcDbLine
 10
261.5
 20
-67.8
 30
0.0
 11
262.3
 21
-67.8
 31
0.0
  0
LINE
  5
FE
330
17
100
AcDbEntity
  8
OUTLINE
100
AcDbLine
 10
261.5
 20
-67.0
 30
0.0
 11
261.5
 21
-67.8
 31
0.0
  0
LINE
  5
FF
330
17
100
AcDbEntity
  8
OUTLINE
100
AcDbLine
 10
200.0
 20
-67.0
 30
0.0
 11
261.5
 21
-67.0
 31
0.0
  0
LINE
  5
100
330
17
100
AcDbEntity
  8
OUTLINE
100
AcDbLine
 10
200.0
 20
-70.0
 30
0.0
 11
200.0
 21
-67.0
 31
0.0
  0
LINE
  5
101
330
17
100
AcDbEntity
  8
OUTLINE
100
AcDbLine
 10
293.1
 20
-67.8
 30
0.0
 11
293.1
 21
-67.0
 31
0.0
  0
LINE
  5
102
330
17
100
AcDbEntity
  8
OUTLINE
100
AcDbLine
 10
292.3
 20
-67.8
 30
0.0
 11
293.1
 21
-67.8
 31
0.0
  0
LINE
  5
103
330
17
100
AcDbEntity
  8
OUTLINE
100
AcDbLine
 10
292.3
 20
-68.7
 30
0.0
 11
292.3
 21
-67.8
 31
0.0
  0
LINE
  5
104
330
17
100
AcDbEntity
  8
OUTLINE
100
AcDbLine
 10
295.3
 20
-68.7
 30
0.0
 11
292.3
 21
-68.7
 31
0.0
  0
LINE
  5
105
330
17
100
AcDbEntity
  8
OUTLINE
100
AcDbLine
 10
295.3
 20
-69.9
 30
0.0
 11
295.3
 21
-68.7
 31
0.0
  0
LINE
  5
106
330
17
100
AcDbEntity
  8
OUTLINE
100
AcDbLine
 10
294.7
 20
-69.9
 30
0.0
 11
295.3
 21
-69.9
 31
0.0
  0
LINE
  5
107
330
17
100
AcDbEntity
  8
OUTLINE
100
AcDbLine
 10
294.7
 20
-70.6
 30
0.0
 11
294.7
 21
-69.9
 31
0.0
  0
LINE
  5
108
330
17
100
AcDbEntity
  8
OUTLINE
100
AcDbLine
 10
295.3
 20
-70.6
 30
0.0
 11
294.7
 21
-70.6
 31
0.0
  0
LINE
  5
109
330
17
100
AcDbEntity
  8
OUTLINE
100
AcDbLine
 10
295.3
 20
-70.0
 30
0.0
 11
295.3
 21
-70.6
 31
0.0
  0
LINE
  5
10A
330
17
100
AcDbEntity
  8
OUTLINE
100
AcDbLine
 10
315.25
 20
-70.0
 30
0.0
 11
295.3
 21
-70.0
 31
0.0
  0
LINE
  5
10B
330
17
100
AcDbEntity
  8
OUTLINE
100
AcDbLine
 10
315.25
 20
-74.0
 30
0.0
 11
315.25
 21
-70.0
 31
0.0
  0
LINE
  5
10C
330
17
100
AcDbEntity
  8
OUTLINE
100
AcDbLine
 10
317.25
 20
-74.0
 30
0.0
 11
315.25
 21
-74.0
 31
0.0
  0
LINE
  5
10D
330
17
100
AcDbEntity
  8
OUTLINE
100
AcDbLine
 10
317.25
 20
-70.0
 30
0.0
 11
317.25
 21
-74.0
 31
0.0
  0
LINE
  5
10E
330
17
100
AcDbEntity
  8
OUTLINE
100
AcDbLine
 10
320.0
 20
-70.0
 30
0.0
 11
317.25
 21
-70.0
 31
0.0
  0
LINE
  5
10F
330
17
100
AcDbEntity
  8
OUTLINE
100
AcDbLine
 10
320.0
 20
-67.0
 30
0.0
 11
320.0
 21
-70.0
 31
0.0
  0
LINE
  5
110
330
17
100
AcDbEntity
  8
OUTLINE
100
AcDbLine
 10
293.1
 20
-67.0
 30
0.0
 11
320.0
 21
-67.0
 31
0.0
  0
LINE
  5
111
330
17
100
AcDbEntity
  8
REF
100
AcDbLine
 10
293.9
 20
-77.5
 30
0.0
 11
294.85
 21
-77.5
 31
0.0
  0
LINE
  5
112
330
17
100
AcDbEntity
  8
REF
100
AcDbLine
 10
293.9
 20
-72.5
 30
0.0
 11
293.9
 21
-77.5
 31
0.0
  0
LINE
  5
113
330
17
100
AcDbEntity
  8
REF
100
AcDbLine
 10
260.9
 20
-72.5
 30
0.0
 11
293.9
 21
-72.5
 31
0.0
  0
LINE
  5
114
330
17
100
AcDbEntity
  8
REF
100
AcDbLine
 10
260.9
 20
-77.5
 30
0.0
 11
260.9
 21
-72.5
 31
0.0
  0
LINE
  5
115
330
17
100
AcDbEntity
  8
REF
100
AcDbLine
 10
253.7
 20
-77.5
 30
0.0
 11
260.9
 21
-77.5
 31
0.0
  0
LINE
  5
116
330
17
100
AcDbEntity
  8
REF
100
AcDbLine
 10
253.7
 20
-74.0
 30
0.0
 11
253.7
 21
-77.5
 31
0.0
  0
LINE
  5
117
330
17
100
AcDbEntity
  8
REF
100
AcDbLine
 10
245.35
 20
-74.0
 30
0.0
 11
253.7
 21
-74.0
 31
0.0
  0
LINE
  5
118
330
17
100
AcDbEntity
  8
REF
100
AcDbLine
 10
245.35
 20
-78.58
 30
0.0
 11
245.35
 21
-74.0
 31
0.0
  0
LINE
  5
119
330
17
100
AcDbEntity
  8
REF
100
AcDbLine
 10
247.27
 20
-78.58
 30
0.0
 11
245.35
 21
-78.58
 31
0.0
  0
LINE
  5
11A
330
17
100
AcDbEntity
  8
REF
100
AcDbLine
 10
247.27
 20
-79.3
 30
0.0
 11
247.27
 21
-78.58
 31
0.0
  0
LINE
  5
11B
330
17
100
AcDbEntity
  8
REF
100
AcDbLine
 10
248.8
 20
-79.3
 30
0.0
 11
247.27
 21
-79.3
 31
0.0
  0
LINE
  5
11C
330
17
100
AcDbEntity
  8
REF
100
AcDbLine
 10
248.8
 20
-82.9
 30
0.0
 11
248.8
 21
-79.3
 31
0.0
  0
LINE
  5
11D
330
17
100
AcDbEntity
  8
REF
100
AcDbLine
 10
252.9
 20
-82.9
 30
0.0
 11
248.8
 21
-82.9
 31
0.0
  0
LINE
  5
11E
330
17
100
AcDbEntity
  8
REF
100
AcDbLine
 10
252.9
 20
-79.3
 30
0.0
 11
252.9
 21
-82.9
 31
0.0
  0
LINE
  5
11F
330
17
100
AcDbEntity
  8
REF
100
AcDbLine
 10
266.4
 20
-79.3
 30
0.0
 11
252.9
 21
-79.3
 31
0.0
  0
LINE
  5
120
330
17
100
AcDbEntity
  8
REF
100
AcDbLine
 10
266.4
 20
-80.1
 30
0.0
 11
266.4
 21
-79.3
 31
0.0
  0
LINE
  5
121
330
17
100
AcDbEntity
  8
REF
100
AcDbLine
 10
273.4
 20
-80.1
 30
0.0
 11
266.4
 21
-80.1
 31
0.0
  0
LINE
  5
122
330
17
100
AcDbEntity
  8
REF
100
AcDbLine
 10
273.4
 20
-79.3
 30
0.0
 11
273.4
 21
-80.1
 31
0.0
  0
LINE
  5
123
330
17
100
AcDbEntity
  8
REF
100
AcDbLine
 10
297.69
 20
-79.3
 30
0.0
 11
273.4
 21
-79.3
 31
0.0
  0
LINE
  5
124
330
17
100
AcDbEntity
  8
REF
100
AcDbLine
 10
297.69
 20
-77.5
 30
0.0
 11
297.69
 21
-79.3
 31
0.0
  0
LINE
  5
125
330
17
100
AcDbEntity
  8
REF
100
AcDbLine
 10
297.95
 20
-77.5
 30
0.0
 11
297.69
 21
-77.5
 31
0.0
  0
LINE
  5
126
330
17
100
AcDbEntity
  8
REF
100
AcDbLine
 10
297.95
 20
-73.74
 30
0.0
 11
297.95
 21
-77.5
 31
0.0
  0
LINE
  5
127
330
17
100
AcDbEntity
  8
REF
100
AcDbLine
 10
294.85
 20
-73.74
 30
0.0
 11
297.95
 21
-73.74
 31
0.0
  0
LINE
  5
128
330
17
100
AcDbEntity
  8
REF
100
AcDbLine
 10
294.85
 20
-77.5
 30
0.0
 11
294.85
 21
-73.74
 31
0.0
  0
LINE
  5
129
330
17
100
AcDbEntity
  8
REF
100
AcDbLine
 10
238.85
 20
-79.05
 30
0.0
 11
214.85
 21
-79.05
 31
0.0
  0
LINE
  5
12A
330
17
100
AcDbEntity
  8
REF
100
AcDbLine
 10
238.85
 20
-77.0
 30
0.0
 11
238.85
 21
-79.05
 31
0.0
  0
LINE
  5
12B
330
17
100
AcDbEntity
  8
REF
100
AcDbLine
 10
251.35
 20
-77.0
 30
0.0
 11
238.85
 21
-77.0
 31
0.0
  0
LINE
  5
12C
330
17
100
AcDbEntity
  8
REF
100
AcDbLine
 10
251.35
 20
-74.6
 30
0.0
 11
251.35
 21
-77.0
 31
0.0
  0
LINE
  5
12D
330
17
100
AcDbEntity
  8
REF
100
AcDbLine
 10
238.85
 20
-74.6
 30
0.0
 11
251.35
 21
-74.6
 31
0.0
  0
LINE
  5
12E
330
17
100
AcDbEntity
  8
REF
100
AcDbLine
 10
238.85
 20
-72.55
 30
0.0
 11
238.85
 21
-74.6
 31
0.0
  0
LINE
  5
12F
330
17
100
AcDbEntity
  8
REF
100
AcDbLine
 10
214.85
 20
-72.55
 30
0.0
 11
238.85
 21
-72.55
 31
0.0
  0
LINE
  5
130
330
17
100
AcDbEntity
  8
REF
100
AcDbLine
 10
214.85
 20
-79.05
 30
0.0
 11
214.85
 21
-72.55
 31
0.0
  0
LINE
  5
131
330
17
100
AcDbEntity
  8
REF
100
AcDbLine
 10
215.85
 20
-78.05
 30
0.0
 11
160.0
 21
-78.05
 31
0.0
  0
LINE
  5
132
330
17
100
AcDbEntity
  8
REF
100
AcDbLine
 10
215.85
 20
-73.55
 30
0.0
 11
215.85
 21
-78.05
 31
0.0
  0
LINE
  5
133
330
17
100
AcDbEntity
  8
REF
100
AcDbLine
 10
160.0
 20
-73.55
 30
0.0
 11
215.85
 21
-73.55
 31
0.0
  0
LINE
  5
134
330
17
100
AcDbEntity
  8
REF
100
AcDbLine
 10
160.0
 20
-78.05
 30
0.0
 11
160.0
 21
-73.55
 31
0.0
  0
LINE
  5
135
330
17
100
AcDbEntity
  8
REF
100
AcDbLine
 10
295.2
 20
-69.7
 30
0.0
 11
259.4
 21
-69.7
 31
0.0
  0
LINE
  5
136
330
17
100
AcDbEntity
  8
REF
100
AcDbLine
 10
295.2
 20
-68.7
 30
0.0
 11
295.2
 21
-69.7
 31
0.0
  0
LINE
  5
137
330
17
100
AcDbEntity
  8
REF
100
AcDbLine
 10
259.4
 20
-68.7
 30
0.0
 11
295.2
 21
-68.7
 31
0.0
  0
LINE
  5
138
330
17
100
AcDbEntity
  8
REF
100
AcDbLine
 10
259.4
 20
-69.7
 30
0.0
 11
259.4
 21
-68.7
 31
0.0
  0
TEXT
  5
139
330
17
100
AcDbEntity
  8
TEXT
100
AcDbText
 10
200.0
 20
-110.0
 30
0.0
 40
2.8
  1
TOP SECTION at Z=42: plug, cable, saddle, board, pocket
 11
200.0
 21
-110.0
 31
0.0
100
AcDbText
  0
LWPOLYLINE
  5
13A
330
17
100
AcDbEntity
  8
OUTLINE
100
AcDbPolyline
 90
37
 70
0
 10
200.0
 20
-145.0
 10
200.0047588920907
 20
-144.78190306317333
 10
200.01902650954128
 20
-144.56422128626173
 10
200.04277569313095
 20
-144.34736903889973
 10
200.07596123493897
 20
-144.13175911166536
 10
200.11851996440032
 20
-143.91780193030948
 10
200.17037086855467
 20
-143.7059047744874
 10
200.23141524625888
 20
-143.49647100247864
 10
200.30153689607044
 20
-143.28989928337165
 10
200.38060233744358
 20
-143.08658283817454
 10
200.46846106481675
 20
-142.8869086912965
 10
200.5649458341089
 20
-142.69125693382483
 10
200.66987298107782
 20
-142.5
 10
200.78304277093557
 20
-142.31350195826587
 10
200.90423977855505
 20
-142.13211781824475
 10
201.03323329854382
 20
-141.95619285495638
 10
201.1697777844051
 20
-141.78606195156732
 10
201.31361331594937
 20
-141.6220489619217
 10
201.46446609406726
 20
-141.46446609406726
 10
201.6220489619217
 20
-141.3136133159494
 10
201.7860619515673
 20
-141.1697777844051
 10
201.95619285495638
 20
-141.03323329854382
 10
202.13211781824478
 20
-140.90423977855505
 10
202.31350195826587
 20
-140.78304277093557
 10
202.5
 20
-140.6698729810778
 10
202.69125693382483
 20
-140.5649458341089
 10
202.8869086912965
 20
-140.46846106481675
 10
203.08658283817454
 20
-140.38060233744358
 10
203.28989928337165
 20
-140.30153689607044
 10
203.49647100247864
 20
-140.23141524625885
 10
203.7059047744874
 20
-140.17037086855464
 10
203.91780193030948
 20
-140.11851996440032
 10
204.13175911166536
 20
-140.07596123493897
 10
204.34736903889973
 20
-140.04277569313095
 10
204.5642212862617
 20
-140.01902650954128
 10
204.78190306317333
 20
-140.0047588920907
 10
205.0
 20
-140.0
  0
LINE
  5
13B
330
17
100
AcDbEntity
  8
OUTLINE
100
AcDbLine
 10
315.0
 20
-140.0
 30
0.0
 11
205.0
 21
-140.0
 31
0.0
  0
LWPOLYLINE
  5
13C
330
17
100
AcDbEntity
  8
OUTLINE
100
AcDbPolyline
 90
37
 70
0
 10
315.0
 20
-140.0
 10
315.21809693682667
 20
-140.0047588920907
 10
315.4357787137383
 20
-140.01902650954128
 10
315.6526309611003
 20
-140.04277569313095
 10
315.86824088833464
 20
-140.07596123493897
 10
316.0821980696905
 20
-140.11851996440032
 10
316.2940952255126
 20
-140.17037086855464
 10
316.50352899752136
 20
-140.23141524625885
 10
316.71010071662835
 20
-140.30153689607044
 10
316.91341716182546
 20
-140.38060233744358
 10
317.1130913087035
 20
-140.46846106481675
 10
317.30874306617517
 20
-140.5649458341089
 10
317.5
 20
-140.6698729810778
 10
317.6864980417341
 20
-140.78304277093557
 10
317.86788218175525
 20
-140.90423977855505
 10
318.0438071450436
 20
-141.03323329854382
 10
318.2139380484327
 20
-141.1697777844051
 10
318.3779510380783
 20
-141.3136133159494
 10
318.53553390593277
 20
-141.46446609406726
 10
318.6863866840506
 20
-141.62204896192168
 10
318.83022221559486
 20
-141.78606195156732
 10
318.9667667014562
 20
-141.95619285495638
 10
319.09576022144495
 20
-142.13211781824475
 10
319.2169572290644
 20
-142.31350195826587
 10
319.3301270189222
 20
-142.5
 10
319.4350541658911
 20
-142.69125693382483
 10
319.5315389351832
 20
-142.8869086912965
 10
319.6193976625564
 20
-143.08658283817454
 10
319.69846310392956
 20
-143.28989928337165
 10
319.76858475374115
 20
-143.49647100247864
 10
319.82962913144536
 20
-143.7059047744874
 10
319.8814800355997
 20
-143.91780193030948
 10
319.924038765061
 20
-144.13175911166536
 10
319.9572243068691
 20
-144.34736903889973
 10
319.9809734904587
 20
-144.56422128626173
 10
319.9952411079093
 20
-144.78190306317333
 10
320.0
 20
-145.0
  0
LINE
  5
13D
330
17
100
AcDbEntity
  8
OUTLINE
100
AcDbLine
 10
320.0
 20
-215.0
 30
0.0
 11
320.0
 21
-145.0
 31
0.0
  0
LWPOLYLINE
  5
13E
330
17
100
AcDbEntity
  8
OUTLINE
100
AcDbPolyline
 90
37
 70
0
 10
320.0
 20
-215.0
 10
319.9952411079093
 20
-215.21809693682667
 10
319.9809734904587
 20
-215.4357787137383
 10
319.9572243068691
 20
-215.65263096110027
 10
319.924038765061
 20
-215.86824088833464
 10
319.8814800355997
 20
-216.08219806969052
 10
319.82962913144536
 20
-216.2940952255126
 10
319.76858475374115
 20
-216.50352899752136
 10
319.69846310392956
 20
-216.71010071662835
 10
319.6193976625564
 20
-216.91341716182546
 10
319.5315389351832
 20
-217.1130913087035
 10
319.4350541658911
 20
-217.30874306617517
 10
319.3301270189222
 20
-217.5
 10
319.2169572290644
 20
-217.68649804173413
 10
319.09576022144495
 20
-217.86788218175522
 10
318.9667667014562
 20
-218.04380714504362
 10
318.83022221559486
 20
-218.2139380484327
 10
318.6863866840506
 20
-218.3779510380783
 10
318.53553390593277
 20
-218.53553390593274
 10
318.3779510380783
 20
-218.68638668405063
 10
318.2139380484327
 20
-218.8302222155949
 10
318.0438071450436
 20
-218.96676670145618
 10
317.86788218175525
 20
-219.09576022144495
 10
317.6864980417341
 20
-219.21695722906443
 10
317.5
 20
-219.33012701892218
 10
317.30874306617517
 20
-219.4350541658911
 10
317.1130913087035
 20
-219.53153893518325
 10
316.91341716182546
 20
-219.61939766255642
 10
316.71010071662835
 20
-219.69846310392956
 10
316.50352899752136
 20
-219.76858475374112
 10
316.2940952255126
 20
-219.82962913144533
 10
316.08219806969055
 20
-219.88148003559968
 10
315.86824088833464
 20
-219.92403876506103
 10
315.6526309611003
 20
-219.95722430686905
 10
315.4357787137383
 20
-219.98097349045872
 10
315.21809693682667
 20
-219.9952411079093
 10
315.0
 20
-220.0
  0
LINE
  5
13F
330
17
100
AcDbEntity
  8
OUTLINE
100
AcDbLine
 10
205.0
 20
-220.0
 30
0.0
 11
315.0
 21
-220.0
 31
0.0
  0
LWPOLYLINE
  5
140
330
17
100
AcDbEntity
  8
OUTLINE
100
AcDbPolyline
 90
37
 70
0
 10
205.0
 20
-220.0
 10
204.78190306317333
 20
-219.9952411079093
 10
204.5642212862617
 20
-219.98097349045872
 10
204.34736903889973
 20
-219.95722430686905
 10
204.13175911166536
 20
-219.92403876506103
 10
203.91780193030948
 20
-219.88148003559968
 10
203.7059047744874
 20
-219.82962913144533
 10
203.49647100247864
 20
-219.76858475374112
 10
203.28989928337165
 20
-219.69846310392956
 10
203.08658283817454
 20
-219.61939766255642
 10
202.8869086912965
 20
-219.53153893518325
 10
202.69125693382483
 20
-219.4350541658911
 10
202.5
 20
-219.33012701892218
 10
202.31350195826587
 20
-219.21695722906443
 10
202.13211781824478
 20
-219.09576022144495
 10
201.95619285495638
 20
-218.96676670145618
 10
201.7860619515673
 20
-218.8302222155949
 10
201.6220489619217
 20
-218.68638668405063
 10
201.46446609406726
 20
-218.53553390593274
 10
201.31361331594937
 20
-218.3779510380783
 10
201.1697777844051
 20
-218.2139380484327
 10
201.03323329854382
 20
-218.04380714504362
 10
200.90423977855505
 20
-217.86788218175522
 10
200.78304277093557
 20
-217.68649804173413
 10
200.66987298107782
 20
-217.5
 10
200.5649458341089
 20
-217.30874306617517
 10
200.46846106481675
 20
-217.1130913087035
 10
200.38060233744358
 20
-216.91341716182546
 10
200.30153689607044
 20
-216.71010071662835
 10
200.23141524625888
 20
-216.50352899752136
 10
200.17037086855467
 20
-216.2940952255126
 10
200.11851996440032
 20
-216.08219806969052
 10
200.07596123493897
 20
-215.86824088833464
 10
200.04277569313095
 20
-215.65263096110027
 10
200.01902650954128
 20
-215.4357787137383
 10
200.0047588920907
 20
-215.21809693682667
 10
200.0
 20
-215.0
  0
LINE
  5
141
330
17
100
AcDbEntity
  8
OUTLINE
100
AcDbLine
 10
200.0
 20
-181.5
 30
0.0
 11
200.0
 21
-215.0
 31
0.0
  0
LINE
  5
142
330
17
100
AcDbEntity
  8
OUTLINE
100
AcDbLine
 10
202.5
 20
-181.5
 30
0.0
 11
200.0
 21
-181.5
 31
0.0
  0
LINE
  5
143
330
17
100
AcDbEntity
  8
OUTLINE
100
AcDbLine
 10
202.5
 20
-211.8542486889354
 30
0.0
 11
202.5
 21
-181.5
 31
0.0
  0
LWPOLYLINE
  5
144
330
17
100
AcDbEntity
  8
OUTLINE
100
AcDbPolyline
 90
37
 70
0
 10
202.49999999999983
 20
-211.8542486889356
 10
202.752110952488
 20
-211.59326544339464
 10
203.02683568997736
 20
-211.3562032038266
 10
203.32191336203292
 20
-211.14501287669992
 10
203.6349156235072
 20
-210.96143245527765
 10
203.96326661863475
 20
-210.8069727167813
 10
204.30426417906727
 20
-210.68290478943237
 10
204.65510206139973
 20
-210.59024969168757
 10
205.012893041183
 20
-210.5297699297557
 10
205.37469267337133
 20
-210.5019632225437
 10
205.73752352366728
 20
-210.50705840567323
 10
206.09839967135184
 20
-210.54501354827528
 10
206.45435128195408
 20
-210.61551629806064
 10
206.80244904753835
 20
-210.71798645182668
 10
207.13982829347836
 20
-210.8515807302466
 10
207.46371255333042
 20
-211.01519971764628
 10
207.77143641779634
 20
-211.20749690965846
 10
208.06046746974047
 20
-211.4268897942962
 10
208.3284271247461
 20
-211.67157287525373
 10
208.57311020570364
 20
-211.93953253025933
 10
208.7925030903414
 20
-212.22856358220346
 10
208.98480028235358
 20
-212.53628744666935
 10
209.14841926975328
 20
-212.86017170652138
 10
209.2820135481732
 20
-213.1975509524614
 10
209.3844837019393
 20
-213.54564871804567
 10
209.45498645172466
 20
-213.90160032864787
 10
209.49294159432674
 20
-214.26247647633247
 10
209.49803677745632
 20
-214.6253073266284
 10
209.47023007024433
 20
-214.98710695881675
 10
209.40975030831248
 20
-215.3448979386
 10
209.31709521056771
 20
-215.69573582093247
 10
209.1930272832188
 20
-216.036733381365
 10
209.0385675447225
 20
-216.36508437649255
 10
208.85498712330022
 20
-216.67808663796686
 10
208.64379679617358
 20
-216.97316431002244
 10
208.40673455660553
 20
-217.2478890475118
 10
208.1457513110646
 20
-217.5
  0
LINE
  5
145
330
17
100
AcDbEntity
  8
OUTLINE
100
AcDbLine
 10
257.3542486889354
 20
-217.5
 30
0.0
 11
208.1457513110646
 21
-217.5
 31
0.0
  0
LWPOLYLINE
  5
146
330
17
100
AcDbEntity
  8
OUTLINE
100
AcDbPolyline
 90
37
 70
0
 10
257.3542486889355
 20
-217.50000000000009
 10
256.97617077381244
 20
-217.11848368542823
 10
256.65261582739714
 20
-216.68975322833597
 10
256.3894179014496
 20
-216.22153911068764
 10
256.19132274422697
 20
-215.72228374829953
 10
256.06190222942007
 20
-215.20098926479193
 10
256.0034899513397
 20
-214.6670551733932
 10
256.01713914764304
 20
-214.13010889337204
 10
256.1026037082996
 20
-213.59983215707285
 10
256.25834261322603
 20
-213.08578643762698
 10
256.481547718574
 20
-212.59724054506933
 10
256.7681943906542
 20
-212.1430034994933
 10
257.11311407451103
 20
-211.73126569472376
 10
257.5100874886563
 20
-211.36945121650305
 10
257.9519567655592
 20
-211.06408397805455
 10
258.43075451587475
 20
-210.82067008674778
 10
258.9378474892422
 20
-210.64359856292282
 10
259.4640922412899
 20
-210.53606220102353
 10
260.0
 20
-210.5
 10
260.5359077587101
 20
-210.53606220102353
 10
261.0621525107578
 20
-210.64359856292282
 10
261.56924548412525
 20
-210.82067008674778
 10
262.0480432344408
 20
-211.06408397805455
 10
262.4899125113437
 20
-211.36945121650302
 10
262.88688592548897
 20
-211.73126569472376
 10
263.2318056093458
 20
-212.1430034994933
 10
263.518452281426
 20
-212.59724054506933
 10
263.74165738677397
 20
-213.08578643762695
 10
263.8973962917004
 20
-213.59983215707285
 10
263.98286085235696
 20
-214.130108893372
 10
263.9965100486603
 20
-214.6670551733932
 10
263.93809777057993
 20
-215.20098926479193
 10
263.80867725577303
 20
-215.72228374829953
 10
263.6105820985504
 20
-216.22153911068762
 10
263.34738417260286
 20
-216.68975322833597
 10
263.02382922618756
 20
-217.11848368542823
 10
262.6457513110645
 20
-217.50000000000009
  0
LINE
  5
147
330
17
100
AcDbEntity
  8
OUTLINE
100
AcDbLine
 10
311.8542486889354
 20
-217.5
 30
0.0
 11
262.6457513110646
 21
-217.5
 31
0.0
  0
LWPOLYLINE
  5
148
330
17
100
AcDbEntity
  8
OUTLINE
100
AcDbPolyline
 90
37
 70
0
 10
311.8542486889354
 20
-217.5
 10
311.59326544339444
 20
-217.2478890475118
 10
311.35620320382645
 20
-216.97316431002244
 10
311.1450128766998
 20
-216.67808663796686
 10
310.96143245527753
 20
-216.36508437649258
 10
310.8069727167812
 20
-216.03673338136502
 10
310.6829047894323
 20
-215.69573582093247
 10
310.5902496916875
 20
-215.3448979386
 10
310.5297699297557
 20
-214.98710695881675
 10
310.5019632225437
 20
-214.62530732662842
 10
310.50705840567326
 20
-214.26247647633247
 10
310.54501354827534
 20
-213.90160032864787
 10
310.6155162980607
 20
-213.5456487180457
 10
310.7179864518268
 20
-213.19755095246143
 10
310.8515807302467
 20
-212.86017170652138
 10
311.0151997176464
 20
-212.53628744666935
 10
311.20749690965863
 20
-212.22856358220346
 10
311.42688979429636
 20
-211.93953253025933
 10
311.6715728752539
 20
-211.67157287525373
 10
311.9395325302595
 20
-211.4268897942962
 10
312.22856358220366
 20
-211.20749690965846
 10
312.5362874466696
 20
-211.01519971764628
 10
312.8601717065216
 20
-210.8515807302466
 10
313.19755095246165
 20
-210.7179864518267
 10
313.5456487180459
 20
-210.61551629806064
 10
313.90160032864816
 20
-210.54501354827528
 10
314.2624764763327
 20
-210.50705840567323
 10
314.6253073266287
 20
-210.5019632225437
 10
314.987106958817
 20
-210.5297699297557
 10
315.3448979386003
 20
-210.59024969168757
 10
315.6957358209327
 20
-210.68290478943237
 10
316.03673338136525
 20
-210.8069727167813
 10
316.3650843764928
 20
-210.96143245527762
 10
316.67808663796706
 20
-211.14501287669992
 10
316.97316431002264
 20
-211.3562032038266
 10
317.247889047512
 20
-211.59326544339464
 10
317.50000000000017
 20
-211.8542486889356
  0
LINE
  5
149
330
17
100
AcDbEntity
  8
OUTLINE
100
AcDbLine
 10
317.5
 20
-148.1457513110646
 30
0.0
 11
317.5
 21
-211.8542486889354
 31
0.0
  0
LWPOLYLINE
  5
14A
330
17
100
AcDbEntity
  8
OUTLINE
100
AcDbPolyline
 90
37
 70
0
 10
317.5
 20
-148.14575131106457
 10
317.2478890475118
 20
-148.4067345566055
 10
316.97316431002247
 20
-148.64379679617355
 10
316.6780866379669
 20
-148.8549871233002
 10
316.36508437649263
 20
-149.03856754472247
 10
316.0367333813651
 20
-149.19302728321878
 10
315.69573582093255
 20
-149.3170952105677
 10
315.34489793860007
 20
-149.40975030831245
 10
314.98710695881687
 20
-149.47023007024433
 10
314.6253073266285
 20
-149.49803677745632
 10
314.26247647633255
 20
-149.49294159432674
 10
313.901600328648
 20
-149.45498645172466
 10
313.54564871804575
 20
-149.38448370193933
 10
313.1975509524615
 20
-149.28201354817327
 10
312.8601717065215
 20
-149.14841926975333
 10
312.53628744666946
 20
-148.98480028235366
 10
312.22856358220355
 20
-148.79250309034148
 10
311.93953253025944
 20
-148.57311020570373
 10
311.6715728752538
 20
-148.3284271247462
 10
311.4268897942963
 20
-148.06046746974056
 10
311.2074969096585
 20
-147.77143641779645
 10
311.0151997176464
 20
-147.46371255333054
 10
310.85158073024667
 20
-147.1398282934785
 10
310.71798645182673
 20
-146.80244904753852
 10
310.6155162980607
 20
-146.45435128195425
 10
310.54501354827534
 20
-146.09839967135204
 10
310.50705840567326
 20
-145.73752352366748
 10
310.5019632225437
 20
-145.37469267337156
 10
310.5297699297557
 20
-145.0128930411832
 10
310.5902496916875
 20
-144.65510206139993
 10
310.6829047894323
 20
-144.3042641790675
 10
310.8069727167812
 20
-143.96326661863498
 10
310.96143245527753
 20
-143.63491562350742
 10
311.1450128766998
 20
-143.32191336203311
 10
311.35620320382645
 20
-143.02683568997753
 10
311.59326544339444
 20
-142.7521109524882
 10
311.8542486889354
 20
-142.5
  0
LINE
  5
14B
330
17
100
AcDbEntity
  8
OUTLINE
100
AcDbLine
 10
262.6457513110646
 20
-142.5
 30
0.0
 11
311.8542486889354
 21
-142.5
 31
0.0
  0
LWPOLYLINE
  5
14C
330
17
100
AcDbEntity
  8
OUTLINE
100
AcDbPolyline
 90
37
 70
0
 10
262.6457513110645
 20
-142.4999999999999
 10
263.02382922618756
 20
-142.88151631457174
 10
263.34738417260286
 20
-143.310246771664
 10
263.6105820985504
 20
-143.77846088931233
 10
263.80867725577303
 20
-144.27771625170044
 10
263.93809777057993
 20
-144.79901073520801
 10
263.9965100486603
 20
-145.33294482660676
 10
263.98286085235696
 20
-145.86989110662796
 10
263.8973962917004
 20
-146.40016784292712
 10
263.74165738677397
 20
-146.91421356237302
 10
263.51845228142605
 20
-147.40275945493065
 10
263.2318056093458
 20
-147.8569965005067
 10
262.886885925489
 20
-148.26873430527624
 10
262.4899125113437
 20
-148.63054878349695
 10
262.0480432344408
 20
-148.93591602194545
 10
261.56924548412525
 20
-149.17932991325222
 10
261.0621525107578
 20
-149.35640143707718
 10
260.5359077587101
 20
-149.46393779897647
 10
260.0
 20
-149.5
 10
259.4640922412899
 20
-149.46393779897647
 10
258.9378474892422
 20
-149.35640143707718
 10
258.43075451587475
 20
-149.17932991325222
 10
257.9519567655592
 20
-148.93591602194545
 10
257.5100874886563
 20
-148.63054878349695
 10
257.11311407451103
 20
-148.26873430527624
 10
256.7681943906542
 20
-147.8569965005067
 10
256.48154771857395
 20
-147.40275945493065
 10
256.25834261322603
 20
-146.91421356237302
 10
256.1026037082996
 20
-146.40016784292715
 10
256.01713914764304
 20
-145.86989110662796
 10
256.0034899513397
 20
-145.33294482660676
 10
256.06190222942007
 20
-144.79901073520801
 10
256.19132274422697
 20
-144.27771625170044
 10
256.3894179014496
 20
-143.77846088931233
 10
256.65261582739714
 20
-143.310246771664
 10
256.97617077381244
 20
-142.88151631457174
 10
257.3542486889355
 20
-142.4999999999999
  0
LINE
  5
14D
330
17
100
AcDbEntity
  8
OUTLINE
100
AcDbLine
 10
208.1457513110646
 20
-142.5
 30
0.0
 11
257.3542486889354
 21
-142.5
 31
0.0
  0
LWPOLYLINE
  5
14E
330
17
100
AcDbEntity
  8
OUTLINE
100
AcDbPolyline
 90
37
 70
0
 10
208.1457513110646
 20
-142.5
 10
208.40673455660553
 20
-142.7521109524882
 10
208.64379679617358
 20
-143.02683568997753
 10
208.8549871233002
 20
-143.32191336203311
 10
209.03856754472247
 20
-143.63491562350742
 10
209.19302728321878
 20
-143.96326661863498
 10
209.3170952105677
 20
-144.3042641790675
 10
209.40975030831245
 20
-144.65510206139993
 10
209.47023007024433
 20
-145.0128930411832
 10
209.49803677745632
 20
-145.37469267337156
 10
209.49294159432674
 20
-145.73752352366748
 10
209.45498645172466
 20
-146.09839967135204
 10
209.38448370193933
 20
-146.45435128195425
 10
209.28201354817327
 20
-146.80244904753852
 10
209.1484192697533
 20
-147.1398282934785
 10
208.98480028235363
 20
-147.46371255333054
 10
208.79250309034146
 20
-147.77143641779645
 10
208.5731102057037
 20
-148.06046746974056
 10
208.32842712474618
 20
-148.3284271247462
 10
208.06046746974056
 20
-148.57311020570373
 10
207.77143641779642
 20
-148.79250309034148
 10
207.46371255333054
 20
-148.98480028235366
 10
207.1398282934785
 20
-149.14841926975333
 10
206.8024490475385
 20
-149.28201354817327
 10
206.45435128195422
 20
-149.38448370193933
 10
206.098399671352
 20
-149.45498645172466
 10
205.73752352366745
 20
-149.49294159432674
 10
205.3746926733715
 20
-149.49803677745632
 10
205.01289304118316
 20
-149.47023007024433
 10
204.6551020613999
 20
-149.40975030831245
 10
204.30426417906747
 20
-149.3170952105677
 10
203.96326661863495
 20
-149.19302728321878
 10
203.6349156235074
 20
-149.03856754472247
 10
203.32191336203311
 20
-148.8549871233002
 10
203.02683568997753
 20
-148.64379679617355
 10
202.75211095248818
 20
-148.4067345566055
 10
202.49999999999997
 20
-148.14575131106457
  0
LINE
  5
14F
330
17
100
AcDbEntity
  8
OUTLINE
100
AcDbLine
 10
202.5
 20
-174.5
 30
0.0
 11
202.5
 21
-148.1457513110646
 31
0.0
  0
LINE
  5
150
330
17
100
AcDbEntity
  8
OUTLINE
100
AcDbLine
 10
200.0
 20
-174.5
 30
0.0
 11
202.5
 21
-174.5
 31
0.0
  0
LINE
  5
151
330
17
100
AcDbEntity
  8
OUTLINE
100
AcDbLine
 10
200.0
 20
-145.0
 30
0.0
 11
200.0
 21
-174.5
 31
0.0
  0
LWPOLYLINE
  5
152
330
17
100
AcDbEntity
  8
OUTLINE
100
AcDbPolyline
 90
37
 70
0
 10
205.5
 20
-143.5
 10
205.84729635533387
 20
-143.5303844939756
 10
206.18404028665134
 20
-143.6206147584282
 10
206.5
 20
-143.7679491924311
 10
206.78557521937307
 20
-143.96791111376206
 10
207.03208888623794
 20
-144.21442478062693
 10
207.23205080756887
 20
-144.5
 10
207.3793852415718
 20
-144.81595971334866
 10
207.4696155060244
 20
-145.15270364466613
 10
207.5
 20
-145.5
 10
207.4696155060244
 20
-145.84729635533387
 10
207.3793852415718
 20
-146.18404028665134
 10
207.23205080756887
 20
-146.5
 10
207.03208888623794
 20
-146.78557521937307
 10
206.78557521937307
 20
-147.03208888623794
 10
206.5
 20
-147.2320508075689
 10
206.18404028665134
 20
-147.3793852415718
 10
205.84729635533387
 20
-147.4696155060244
 10
205.5
 20
-147.5
 10
205.15270364466613
 20
-147.4696155060244
 10
204.81595971334866
 20
-147.3793852415718
 10
204.5
 20
-147.2320508075689
 10
204.21442478062693
 20
-147.03208888623794
 10
203.96791111376206
 20
-146.78557521937307
 10
203.76794919243113
 20
-146.5
 10
203.6206147584282
 20
-146.18404028665134
 10
203.5303844939756
 20
-145.84729635533387
 10
203.5
 20
-145.5
 10
203.5303844939756
 20
-145.15270364466613
 10
203.6206147584282
 20
-144.81595971334866
 10
203.76794919243113
 20
-144.5
 10
203.96791111376206
 20
-144.21442478062693
 10
204.21442478062693
 20
-143.96791111376206
 10
204.5
 20
-143.7679491924311
 10
204.81595971334866
 20
-143.6206147584282
 10
205.15270364466613
 20
-143.5303844939756
 10
205.5
 20
-143.5
  0
LWPOLYLINE
  5
153
330
17
100
AcDbEntity
  8
OUTLINE
100
AcDbPolyline
 90
37
 70
0
 10
205.5
 20
-212.5
 10
205.84729635533387
 20
-212.5303844939756
 10
206.18404028665134
 20
-212.6206147584282
 10
206.5
 20
-212.76794919243113
 10
206.78557521937307
 20
-212.96791111376206
 10
207.03208888623794
 20
-213.21442478062693
 10
207.23205080756887
 20
-213.5
 10
207.3793852415718
 20
-213.81595971334866
 10
207.4696155060244
 20
-214.15270364466613
 10
207.5
 20
-214.5
 10
207.4696155060244
 20
-214.84729635533387
 10
207.3793852415718
 20
-215.18404028665134
 10
207.23205080756887
 20
-215.5
 10
207.03208888623794
 20
-215.78557521937307
 10
206.78557521937307
 20
-216.03208888623794
 10
206.5
 20
-216.23205080756887
 10
206.18404028665134
 20
-216.3793852415718
 10
205.84729635533387
 20
-216.4696155060244
 10
205.5
 20
-216.5
 10
205.15270364466613
 20
-216.4696155060244
 10
204.81595971334866
 20
-216.3793852415718
 10
204.5
 20
-216.23205080756887
 10
204.21442478062693
 20
-216.03208888623794
 10
203.96791111376206
 20
-215.78557521937307
 10
203.76794919243113
 20
-215.5
 10
203.6206147584282
 20
-215.18404028665134
 10
203.5303844939756
 20
-214.84729635533387
 10
203.5
 20
-214.5
 10
203.5303844939756
 20
-214.15270364466613
 10
203.6206147584282
 20
-213.81595971334866
 10
203.76794919243113
 20
-213.5
 10
203.96791111376206
 20
-213.21442478062693
 10
204.21442478062693
 20
-212.96791111376206
 10
204.5
 20
-212.76794919243113
 10
204.81595971334866
 20
-212.6206147584282
 10
205.15270364466613
 20
-212.5303844939756
 10
205.5
 20
-212.5
  0
LWPOLYLINE
  5
154
330
17
100
AcDbEntity
  8
OUTLINE
100
AcDbPolyline
 90
37
 70
0
 10
260.0
 20
-143.5
 10
260.34729635533387
 20
-143.5303844939756
 10
260.68404028665134
 20
-143.6206147584282
 10
261.0
 20
-143.7679491924311
 10
261.2855752193731
 20
-143.96791111376206
 10
261.53208888623794
 20
-144.21442478062693
 10
261.7320508075689
 20
-144.5
 10
261.8793852415718
 20
-144.81595971334866
 10
261.9696155060244
 20
-145.15270364466613
 10
262.0
 20
-145.5
 10
261.9696155060244
 20
-145.84729635533387
 10
261.8793852415718
 20
-146.18404028665134
 10
261.7320508075689
 20
-146.5
 10
261.53208888623794
 20
-146.78557521937307
 10
261.2855752193731
 20
-147.03208888623794
 10
261.0
 20
-147.2320508075689
 10
260.68404028665134
 20
-147.3793852415718
 10
260.34729635533387
 20
-147.4696155060244
 10
260.0
 20
-147.5
 10
259.65270364466613
 20
-147.4696155060244
 10
259.31595971334866
 20
-147.3793852415718
 10
259.0
 20
-147.2320508075689
 10
258.7144247806269
 20
-147.03208888623794
 10
258.46791111376206
 20
-146.78557521937307
 10
258.2679491924311
 20
-146.5
 10
258.1206147584282
 20
-146.18404028665134
 10
258.0303844939756
 20
-145.84729635533387
 10
258.0
 20
-145.5
 10
258.0303844939756
 20
-145.15270364466613
 10
258.1206147584282
 20
-144.81595971334866
 10
258.2679491924311
 20
-144.5
 10
258.46791111376206
 20
-144.21442478062693
 10
258.7144247806269
 20
-143.96791111376206
 10
259.0
 20
-143.7679491924311
 10
259.31595971334866
 20
-143.6206147584282
 10
259.65270364466613
 20
-143.5303844939756
 10
260.0
 20
-143.5
  0
LWPOLYLINE
  5
155
330
17
100
AcDbEntity
  8
OUTLINE
100
AcDbPolyline
 90
37
 70
0
 10
314.5
 20
-143.5
 10
314.84729635533387
 20
-143.5303844939756
 10
315.18404028665134
 20
-143.6206147584282
 10
315.5
 20
-143.7679491924311
 10
315.7855752193731
 20
-143.96791111376206
 10
316.03208888623794
 20
-144.21442478062693
 10
316.2320508075689
 20
-144.5
 10
316.3793852415718
 20
-144.81595971334866
 10
316.4696155060244
 20
-145.15270364466613
 10
316.5
 20
-145.5
 10
316.4696155060244
 20
-145.84729635533387
 10
316.3793852415718
 20
-146.18404028665134
 10
316.2320508075689
 20
-146.5
 10
316.03208888623794
 20
-146.78557521937307
 10
315.7855752193731
 20
-147.03208888623794
 10
315.5
 20
-147.2320508075689
 10
315.18404028665134
 20
-147.3793852415718
 10
314.84729635533387
 20
-147.4696155060244
 10
314.5
 20
-147.5
 10
314.15270364466613
 20
-147.4696155060244
 10
313.81595971334866
 20
-147.3793852415718
 10
313.5
 20
-147.2320508075689
 10
313.2144247806269
 20
-147.03208888623794
 10
312.96791111376206
 20
-146.78557521937307
 10
312.7679491924311
 20
-146.5
 10
312.6206147584282
 20
-146.18404028665134
 10
312.5303844939756
 20
-145.84729635533387
 10
312.5
 20
-145.5
 10
312.5303844939756
 20
-145.15270364466613
 10
312.6206147584282
 20
-144.81595971334866
 10
312.7679491924311
 20
-144.5
 10
312.96791111376206
 20
-144.21442478062693
 10
313.2144247806269
 20
-143.96791111376206
 10
313.5
 20
-143.7679491924311
 10
313.81595971334866
 20
-143.6206147584282
 10
314.15270364466613
 20
-143.5303844939756
 10
314.5
 20
-143.5
  0
LWPOLYLINE
  5
156
330
17
100
AcDbEntity
  8
OUTLINE
100
AcDbPolyline
 90
37
 70
0
 10
260.0
 20
-212.5
 10
260.34729635533387
 20
-212.5303844939756
 10
260.68404028665134
 20
-212.6206147584282
 10
261.0
 20
-212.76794919243113
 10
261.2855752193731
 20
-212.96791111376206
 10
261.53208888623794
 20
-213.21442478062693
 10
261.7320508075689
 20
-213.5
 10
261.8793852415718
 20
-213.81595971334866
 10
261.9696155060244
 20
-214.15270364466613
 10
262.0
 20
-214.5
 10
261.9696155060244
 20
-214.84729635533387
 10
261.8793852415718
 20
-215.18404028665134
 10
261.7320508075689
 20
-215.5
 10
261.53208888623794
 20
-215.78557521937307
 10
261.2855752193731
 20
-216.03208888623794
 10
261.0
 20
-216.23205080756887
 10
260.68404028665134
 20
-216.3793852415718
 10
260.34729635533387
 20
-216.4696155060244
 10
260.0
 20
-216.5
 10
259.65270364466613
 20
-216.4696155060244
 10
259.31595971334866
 20
-216.3793852415718
 10
259.0
 20
-216.23205080756887
 10
258.7144247806269
 20
-216.03208888623794
 10
258.46791111376206
 20
-215.78557521937307
 10
258.2679491924311
 20
-215.5
 10
258.1206147584282
 20
-215.18404028665134
 10
258.0303844939756
 20
-214.84729635533387
 10
258.0
 20
-214.5
 10
258.0303844939756
 20
-214.15270364466613
 10
258.1206147584282
 20
-213.81595971334866
 10
258.2679491924311
 20
-213.5
 10
258.46791111376206
 20
-213.21442478062693
 10
258.7144247806269
 20
-212.96791111376206
 10
259.0
 20
-212.76794919243113
 10
259.31595971334866
 20
-212.6206147584282
 10
259.65270364466613
 20
-212.5303844939756
 10
260.0
 20
-212.5
  0
LWPOLYLINE
  5
157
330
17
100
AcDbEntity
  8
OUTLINE
100
AcDbPolyline
 90
37
 70
0
 10
314.5
 20
-212.5
 10
314.84729635533387
 20
-212.5303844939756
 10
315.18404028665134
 20
-212.6206147584282
 10
315.5
 20
-212.76794919243113
 10
315.7855752193731
 20
-212.96791111376206
 10
316.03208888623794
 20
-213.21442478062693
 10
316.2320508075689
 20
-213.5
 10
316.3793852415718
 20
-213.81595971334866
 10
316.4696155060244
 20
-214.15270364466613
 10
316.5
 20
-214.5
 10
316.4696155060244
 20
-214.84729635533387
 10
316.3793852415718
 20
-215.18404028665134
 10
316.2320508075689
 20
-215.5
 10
316.03208888623794
 20
-215.78557521937307
 10
315.7855752193731
 20
-216.03208888623794
 10
315.5
 20
-216.23205080756887
 10
315.18404028665134
 20
-216.3793852415718
 10
314.84729635533387
 20
-216.4696155060244
 10
314.5
 20
-216.5
 10
314.15270364466613
 20
-216.4696155060244
 10
313.81595971334866
 20
-216.3793852415718
 10
313.5
 20
-216.23205080756887
 10
313.2144247806269
 20
-216.03208888623794
 10
312.96791111376206
 20
-215.78557521937307
 10
312.7679491924311
 20
-215.5
 10
312.6206147584282
 20
-215.18404028665134
 10
312.5303844939756
 20
-214.84729635533387
 10
312.5
 20
-214.5
 10
312.5303844939756
 20
-214.15270364466613
 10
312.6206147584282
 20
-213.81595971334866
 10
312.7679491924311
 20
-213.5
 10
312.96791111376206
 20
-213.21442478062693
 10
313.2144247806269
 20
-212.96791111376206
 10
313.5
 20
-212.76794919243113
 10
313.81595971334866
 20
-212.6206147584282
 10
314.15270364466613
 20
-212.5303844939756
 10
314.5
 20
-212.5
  0
LINE
  5
158
330
17
100
AcDbEntity
  8
OUTLINE
100
AcDbLine
 10
300.0
 20
-191.0
 30
0.0
 11
245.0
 21
-191.0
 31
0.0
  0
LINE
  5
159
330
17
100
AcDbEntity
  8
OUTLINE
100
AcDbLine
 10
300.0
 20
-193.0
 30
0.0
 11
300.0
 21
-191.0
 31
0.0
  0
LINE
  5
15A
330
17
100
AcDbEntity
  8
OUTLINE
100
AcDbLine
 10
245.0
 20
-193.0
 30
0.0
 11
300.0
 21
-193.0
 31
0.0
  0
LINE
  5
15B
330
17
100
AcDbEntity
  8
OUTLINE
100
AcDbLine
 10
245.0
 20
-191.0
 30
0.0
 11
245.0
 21
-193.0
 31
0.0
  0
LINE
  5
15C
330
17
100
AcDbEntity
  8
OUTLINE
100
AcDbLine
 10
300.0
 20
-163.0
 30
0.0
 11
245.0
 21
-163.0
 31
0.0
  0
LINE
  5
15D
330
17
100
AcDbEntity
  8
OUTLINE
100
AcDbLine
 10
300.0
 20
-165.0
 30
0.0
 11
300.0
 21
-163.0
 31
0.0
  0
LINE
  5
15E
330
17
100
AcDbEntity
  8
OUTLINE
100
AcDbLine
 10
245.0
 20
-165.0
 30
0.0
 11
300.0
 21
-165.0
 31
0.0
  0
LINE
  5
15F
330
17
100
AcDbEntity
  8
OUTLINE
100
AcDbLine
 10
245.0
 20
-163.0
 30
0.0
 11
245.0
 21
-165.0
 31
0.0
  0
LINE
  5
160
330
17
100
AcDbEntity
  8
OUTLINE
100
AcDbLine
 10
290.0
 20
-188.8
 30
0.0
 11
251.0
 21
-188.8
 31
0.0
  0
LINE
  5
161
330
17
100
AcDbEntity
  8
OUTLINE
100
AcDbLine
 10
290.0
 20
-190.7
 30
0.0
 11
290.0
 21
-188.8
 31
0.0
  0
LINE
  5
162
330
17
100
AcDbEntity
  8
OUTLINE
100
AcDbLine
 10
251.0
 20
-190.7
 30
0.0
 11
290.0
 21
-190.7
 31
0.0
  0
LINE
  5
163
330
17
100
AcDbEntity
  8
OUTLINE
100
AcDbLine
 10
251.0
 20
-188.8
 30
0.0
 11
251.0
 21
-190.7
 31
0.0
  0
LINE
  5
164
330
17
100
AcDbEntity
  8
OUTLINE
100
AcDbLine
 10
280.0
 20
-165.3
 30
0.0
 11
259.0
 21
-165.3
 31
0.0
  0
LINE
  5
165
330
17
100
AcDbEntity
  8
OUTLINE
100
AcDbLine
 10
280.0
 20
-167.2
 30
0.0
 11
280.0
 21
-165.3
 31
0.0
  0
LINE
  5
166
330
17
100
AcDbEntity
  8
OUTLINE
100
AcDbLine
 10
259.0
 20
-167.2
 30
0.0
 11
280.0
 21
-167.2
 31
0.0
  0
LINE
  5
167
330
17
100
AcDbEntity
  8
OUTLINE
100
AcDbLine
 10
259.0
 20
-165.3
 30
0.0
 11
259.0
 21
-167.2
 31
0.0
  0
LWPOLYLINE
  5
168
330
17
100
AcDbEntity
  8
OUTLINE
100
AcDbPolyline
 90
37
 70
0
 10
249.4
 20
-168.85
 10
249.61706022208367
 20
-168.86899030873474
 10
249.82752517915708
 20
-168.92538422401762
 10
250.025
 20
-169.01746824526947
 10
250.20348451210816
 20
-169.14244444610128
 10
250.35755555389872
 20
-169.29651548789184
 10
250.48253175473053
 20
-169.475
 10
250.57461577598238
 20
-169.67247482084292
 10
250.63100969126526
 20
-169.88293977791633
 10
250.65
 20
-170.1
 10
250.63100969126526
 20
-170.31706022208365
 10
250.57461577598238
 20
-170.5275251791571
 10
250.48253175473053
 20
-170.725
 10
250.35755555389872
 20
-170.90348451210818
 10
250.20348451210816
 20
-171.05755555389874
 10
250.025
 20
-171.18253175473055
 10
249.82752517915708
 20
-171.2746157759824
 10
249.61706022208367
 20
-171.33100969126525
 10
249.4
 20
-171.35
 10
249.18293977791635
 20
-171.33100969126525
 10
248.9724748208429
 20
-171.2746157759824
 10
248.775
 20
-171.18253175473055
 10
248.59651548789182
 20
-171.05755555389874
 10
248.44244444610126
 20
-170.90348451210818
 10
248.31746824526945
 20
-170.725
 10
248.2253842240176
 20
-170.5275251791571
 10
248.16899030873475
 20
-170.31706022208365
 10
248.15
 20
-170.1
 10
248.16899030873475
 20
-169.88293977791633
 10
248.2253842240176
 20
-169.67247482084292
 10
248.31746824526945
 20
-169.475
 10
248.44244444610126
 20
-169.29651548789184
 10
248.59651548789182
 20
-169.14244444610128
 10
248.775
 20
-169.01746824526947
 10
248.9724748208429
 20
-168.92538422401762
 10
249.18293977791635
 20
-168.86899030873474
 10
249.4
 20
-168.85
  0
LINE
  5
169
330
17
100
AcDbEntity
  8
REF
100
AcDbLine
 10
253.7
 20
-173.53
 30
0.0
 11
245.35
 21
-173.53
 31
0.0
  0
LINE
  5
16A
330
17
100
AcDbEntity
  8
REF
100
AcDbLine
 10
253.7
 20
-182.47
 30
0.0
 11
253.7
 21
-173.53
 31
0.0
  0
LINE
  5
16B
330
17
100
AcDbEntity
  8
REF
100
AcDbLine
 10
245.35
 20
-182.47
 30
0.0
 11
253.7
 21
-182.47
 31
0.0
  0
LINE
  5
16C
330
17
100
AcDbEntity
  8
REF
100
AcDbLine
 10
245.35
 20
-173.53
 30
0.0
 11
245.35
 21
-182.47
 31
0.0
  0
LINE
  5
16D
330
17
100
AcDbEntity
  8
REF
100
AcDbLine
 10
293.9
 20
-168.72
 30
0.0
 11
260.9
 21
-168.72
 31
0.0
  0
LINE
  5
16E
330
17
100
AcDbEntity
  8
REF
100
AcDbLine
 10
293.9
 20
-187.28
 30
0.0
 11
293.9
 21
-168.72
 31
0.0
  0
LINE
  5
16F
330
17
100
AcDbEntity
  8
REF
100
AcDbLine
 10
260.9
 20
-187.28
 30
0.0
 11
293.9
 21
-187.28
 31
0.0
  0
LINE
  5
170
330
17
100
AcDbEntity
  8
REF
100
AcDbLine
 10
260.9
 20
-168.72
 30
0.0
 11
260.9
 21
-187.28
 31
0.0
  0
LINE
  5
171
330
17
100
AcDbEntity
  8
REF
100
AcDbLine
 10
297.95
 20
-176.5
 30
0.0
 11
294.85
 21
-176.5
 31
0.0
  0
LINE
  5
172
330
17
100
AcDbEntity
  8
REF
100
AcDbLine
 10
297.95
 20
-179.5
 30
0.0
 11
297.95
 21
-176.5
 31
0.0
  0
LINE
  5
173
330
17
100
AcDbEntity
  8
REF
100
AcDbLine
 10
294.85
 20
-179.5
 30
0.0
 11
297.95
 21
-179.5
 31
0.0
  0
LINE
  5
174
330
17
100
AcDbEntity
  8
REF
100
AcDbLine
 10
294.85
 20
-176.5
 30
0.0
 11
294.85
 21
-179.5
 31
0.0
  0
LINE
  5
175
330
17
100
AcDbEntity
  8
REF
100
AcDbLine
 10
238.85
 20
-171.8
 30
0.0
 11
214.85
 21
-171.8
 31
0.0
  0
LINE
  5
176
330
17
100
AcDbEntity
  8
REF
100
AcDbLine
 10
238.85
 20
-173.9
 30
0.0
 11
238.85
 21
-171.8
 31
0.0
  0
LINE
  5
177
330
17
100
AcDbEntity
  8
REF
100
AcDbLine
 10
251.35
 20
-173.9
 30
0.0
 11
238.85
 21
-173.9
 31
0.0
  0
LINE
  5
178
330
17
100
AcDbEntity
  8
REF
100
AcDbLine
 10
251.35
 20
-182.1
 30
0.0
 11
251.35
 21
-173.9
 31
0.0
  0
LINE
  5
179
330
17
100
AcDbEntity
  8
REF
100
AcDbLine
 10
238.85
 20
-182.1
 30
0.0
 11
251.35
 21
-182.1
 31
0.0
  0
LINE
  5
17A
330
17
100
AcDbEntity
  8
REF
100
AcDbLine
 10
238.85
 20
-184.2
 30
0.0
 11
238.85
 21
-182.1
 31
0.0
  0
LINE
  5
17B
330
17
100
AcDbEntity
  8
REF
100
AcDbLine
 10
214.85
 20
-184.2
 30
0.0
 11
238.85
 21
-184.2
 31
0.0
  0
LINE
  5
17C
330
17
100
AcDbEntity
  8
REF
100
AcDbLine
 10
214.85
 20
-171.8
 30
0.0
 11
214.85
 21
-184.2
 31
0.0
  0
LINE
  5
17D
330
17
100
AcDbEntity
  8
REF
100
AcDbLine
 10
215.85
 20
-175.8970259155187
 30
0.0
 11
160.0
 21
-175.8970259155187
 31
0.0
  0
LINE
  5
17E
330
17
100
AcDbEntity
  8
REF
100
AcDbLine
 10
215.85
 20
-180.1029740844813
 30
0.0
 11
215.85
 21
-175.8970259155187
 31
0.0
  0
LINE
  5
17F
330
17
100
AcDbEntity
  8
REF
100
AcDbLine
 10
160.0
 20
-180.1029740844813
 30
0.0
 11
215.85
 21
-180.1029740844813
 31
0.0
  0
LINE
  5
180
330
17
100
AcDbEntity
  8
REF
100
AcDbLine
 10
160.0
 20
-175.8970259155187
 30
0.0
 11
160.0
 21
-180.1029740844813
 31
0.0
  0
TEXT
  5
181
330
17
100
AcDbEntity
  8
TEXT
100
AcDbText
 10
200.0
 20
-230.0
 30
0.0
 40
2.8
  1
FRONT SECTION at Y=5: board, plug overmold, cable notch, SMA pad
 11
200.0
 21
-230.0
 31
0.0
100
AcDbText
  0
ENDSEC
  0
SECTION
  2
OBJECTS
  0
DICTIONARY
  5
A
330
0
100
AcDbDictionary
281
1
  3
ACAD_COLOR
350
B
  3
ACAD_GROUP
350
C
  3
ACAD_LAYOUT
350
D
  3
ACAD_MATERIAL
350
E
  3
ACAD_MLEADERSTYLE
350
F
  3
ACAD_MLINESTYLE
350
10
  3
ACAD_PLOTSETTINGS
350
11
  3
ACAD_PLOTSTYLENAME
350
12
  3
ACAD_SCALELIST
350
14
  3
ACAD_TABLESTYLE
350
15
  3
ACAD_VISUALSTYLE
350
16
  3
EZDXF_META
350
2D
  0
DICTIONARY
  5
B
330
A
100
AcDbDictionary
281
1
  0
DICTIONARY
  5
C
330
A
100
AcDbDictionary
281
1
  0
DICTIONARY
  5
D
330
A
100
AcDbDictionary
281
1
  3
Model
350
1A
  3
Layout1
350
1E
  0
DICTIONARY
  5
E
330
A
100
AcDbDictionary
281
1
  3
ByBlock
350
1F
  3
ByLayer
350
20
  3
Global
350
21
  0
DICTIONARY
  5
F
330
A
100
AcDbDictionary
281
1
  3
Standard
350
2C
  0
DICTIONARY
  5
10
330
A
100
AcDbDictionary
281
1
  3
Standard
350
22
  0
DICTIONARY
  5
11
330
A
100
AcDbDictionary
281
1
  0
ACDBDICTIONARYWDFLT
  5
12
330
A
100
AcDbDictionary
281
1
  3
Normal
350
13
100
AcDbDictionaryWithDefault
340
13
  0
ACDBPLACEHOLDER
  5
13
330
12
  0
DICTIONARY
  5
14
330
A
100
AcDbDictionary
281
1
  0
DICTIONARY
  5
15
330
A
100
AcDbDictionary
281
1
  0
DICTIONARY
  5
16
330
A
100
AcDbDictionary
281
1
  3
2dWireframe
350
5A
  3
Basic
350
5B
  3
Brighten
350
5C
  3
ColorChange
350
5D
  3
Conceptual
350
5E
  3
Dim
350
5F
  3
EdgeColorOff
350
60
  3
Facepattern
350
61
  3
Flat
350
62
  3
FlatWithEdges
350
63
  3
Gouraud
350
64
  3
GouraudWithEdges
350
65
  3
Hidden
350
66
  3
JitterOff
350
67
  3
Linepattern
350
68
  3
Modeling
350
69
  3
OverhangOff
350
6A
  3
Realistic
350
6B
  3
Shaded
350
6C
  3
Shaded with edges
350
6D
  3
Shades of Gray
350
6E
  3
Sketchy
350
6F
  3
Thicken
350
70
  3
Wireframe
350
71
  3
X-Ray
350
72
  0
LAYOUT
  5
1A
330
D
100
AcDbPlotSettings
  1

  4
A3
  6

 40
7.5
 41
20.0
 42
7.5
 43
20.0
 44
420.0
 45
297.0
 46
0.0
 47
0.0
 48
0.0
 49
0.0
140
0.0
141
0.0
142
1.0
143
1.0
 70
1024
 72
1
 73
0
 74
5
  7

 75
16
 76
0
 77
2
 78
300
147
1.0
148
0.0
149
0.0
100
AcDbLayout
  1
Model
 70
1
 71
0
 10
0.0
 20
0.0
 11
420.0
 21
297.0
 12
0.0
 22
0.0
 32
0.0
 14
1e+20
 24
1e+20
 34
1e+20
 15
-1e+20
 25
-1e+20
 35
-1e+20
146
0.0
 13
0.0
 23
0.0
 33
0.0
 16
1.0
 26
0.0
 36
0.0
 17
0.0
 27
1.0
 37
0.0
 76
1
330
17
  0
LAYOUT
  5
1E
330
D
100
AcDbPlotSettings
  1

  4
A3
  6

 40
7.5
 41
20.0
 42
7.5
 43
20.0
 44
420.0
 45
297.0
 46
0.0
 47
0.0
 48
0.0
 49
0.0
140
0.0
141
0.0
142
1.0
143
1.0
 70
0
 72
1
 73
0
 74
5
  7

 75
16
 76
0
 77
2
 78
300
147
1.0
148
0.0
149
0.0
100
AcDbLayout
  1
Layout1
 70
1
 71
1
 10
0.0
 20
0.0
 11
420.0
 21
297.0
 12
0.0
 22
0.0
 32
0.0
 14
1e+20
 24
1e+20
 34
1e+20
 15
-1e+20
 25
-1e+20
 35
-1e+20
146
0.0
 13
0.0
 23
0.0
 33
0.0
 16
1.0
 26
0.0
 36
0.0
 17
0.0
 27
1.0
 37
0.0
 76
1
330
1B
  0
MATERIAL
  5
1F
102
{ACAD_REACTORS
330
E
102
}
330
E
100
AcDbMaterial
  1
ByBlock
  2

 70
0
 40
1.0
 71
1
 41
1.0
 91
-1023410177
 42
1.0
 72
1
  3

 73
1
 74
1
 75
1
 44
0.5
 73
0
 45
1.0
 46
1.0
 77
1
  4

 78
1
 79
1
170
1
 48
1.0
171
1
  6

172
1
173
1
174
1
140
1.0
141
1.0
175
1
  7

176
1
177
1
178
1
143
1.0
179
1
  8

270
1
271
1
272
1
145
1.0
146
1.0
273
1
  9

274
1
275
1
276
1
 42
1.0
 72
1
  3

 73
1
 74
1
 75
1
 94
63
  0
MATERIAL
  5
20
102
{ACAD_REACTORS
330
E
102
}
330
E
100
AcDbMaterial
  1
ByLayer
  2

 70
0
 40
1.0
 71
1
 41
1.0
 91
-1023410177
 42
1.0
 72
1
  3

 73
1
 74
1
 75
1
 44
0.5
 73
0
 45
1.0
 46
1.0
 77
1
  4

 78
1
 79
1
170
1
 48
1.0
171
1
  6

172
1
173
1
174
1
140
1.0
141
1.0
175
1
  7

176
1
177
1
178
1
143
1.0
179
1
  8

270
1
271
1
272
1
145
1.0
146
1.0
273
1
  9

274
1
275
1
276
1
 42
1.0
 72
1
  3

 73
1
 74
1
 75
1
 94
63
  0
MATERIAL
  5
21
102
{ACAD_REACTORS
330
E
102
}
330
E
100
AcDbMaterial
  1
Global
  2

 70
0
 40
1.0
 71
1
 41
1.0
 91
-1023410177
 42
1.0
 72
1
  3

 73
1
 74
1
 75
1
 44
0.5
 73
0
 45
1.0
 46
1.0
 77
1
  4

 78
1
 79
1
170
1
 48
1.0
171
1
  6

172
1
173
1
174
1
140
1.0
141
1.0
175
1
  7

176
1
177
1
178
1
143
1.0
179
1
  8

270
1
271
1
272
1
145
1.0
146
1.0
273
1
  9

274
1
275
1
276
1
 42
1.0
 72
1
  3

 73
1
 74
1
 75
1
 94
63
  0
MLINESTYLE
  5
22
102
{ACAD_REACTORS
330
10
102
}
330
10
100
AcDbMlineStyle
  2
Standard
 70
0
  3

 62
256
 51
90.0
 52
90.0
 71
2
 49
0.5
 62
256
  6
BYLAYER
 49
-0.5
 62
256
  6
BYLAYER
  0
MLEADERSTYLE
  5
2C
102
{ACAD_REACTORS
330
F
102
}
330
F
100
AcDbMLeaderStyle
179
2
170
2
171
1
172
0
 90
2
 40
0.0
 41
0.0
173
1
 91
-1056964608
 92
-2
290
1
 42
2.0
291
1
 43
8.0
  3
Standard
 44
4.0
300

342
29
174
1
175
1
176
0
178
1
 93
-1056964608
 45
4.0
292
0
297
0
 46
4.0
 94
-1056964608
 47
1.0
 49
1.0
140
1.0
294
1
141
0.0
177
0
142
1.0
295
0
296
0
143
3.75
271
0
272
9
273
9
  0
DICTIONARY
  5
2D
330
A
100
AcDbDictionary
280
1
281
1
  3
CREATED_BY_EZDXF
350
2E
  3
WRITTEN_BY_EZDXF
350
184
  0
DICTIONARYVAR
  5
2E
330
2D
100
DictionaryVariables
280
0
  1
1.4.4 @ 2026-09-02T20:01:25.703406+00:00
  0
VISUALSTYLE
  5
5A
102
{ACAD_REACTORS
330
16
102
}
330
16
100
AcDbVisualStyle
  2
2dWireframe
 70
4
 90
0
 40
0.6
 62
7
290
0
291
0
  0
VISUALSTYLE
  5
5B
102
{ACAD_REACTORS
330
16
102
}
330
16
100
AcDbVisualStyle
  2
Basic
 70
7
 90
1
 40
0.6
 62
7
290
0
291
1
  0
VISUALSTYLE
  5
5C
102
{ACAD_REACTORS
330
16
102
}
330
16
100
AcDbVisualStyle
  2
Brighten
 70
12
 90
2
 40
0.6
 62
7
290
0
291
1
  0
VISUALSTYLE
  5
5D
102
{ACAD_REACTORS
330
16
102
}
330
16
100
AcDbVisualStyle
  2
ColorChange
 70
16
 90
2
 40
0.6
 62
8
290
0
291
1
  0
VISUALSTYLE
  5
5E
102
{ACAD_REACTORS
330
16
102
}
330
16
100
AcDbVisualStyle
  2
Conceptual
 70
9
 90
3
 40
0.6
 62
7
290
0
291
0
  0
VISUALSTYLE
  5
5F
102
{ACAD_REACTORS
330
16
102
}
330
16
100
AcDbVisualStyle
  2
Dim
 70
11
 90
2
 40
0.6
 62
7
290
0
291
1
  0
VISUALSTYLE
  5
60
102
{ACAD_REACTORS
330
16
102
}
330
16
100
AcDbVisualStyle
  2
EdgeColorOff
 70
22
 90
2
 40
0.6
 62
7
290
0
291
1
  0
VISUALSTYLE
  5
61
102
{ACAD_REACTORS
330
16
102
}
330
16
100
AcDbVisualStyle
  2
Facepattern
 70
15
 90
2
 40
0.6
 62
7
290
0
291
1
  0
VISUALSTYLE
  5
62
102
{ACAD_REACTORS
330
16
102
}
330
16
100
AcDbVisualStyle
  2
Flat
 70
0
 90
2
 40
0.6
 62
7
290
0
291
1
  0
VISUALSTYLE
  5
63
102
{ACAD_REACTORS
330
16
102
}
330
16
100
AcDbVisualStyle
  2
FlatWithEdges
 70
1
 90
2
 40
0.6
 62
7
290
0
291
1
  0
VISUALSTYLE
  5
64
102
{ACAD_REACTORS
330
16
102
}
330
16
100
AcDbVisualStyle
  2
Gouraud
 70
2
 90
2
 40
0.6
 62
7
290
0
291
1
  0
VISUALSTYLE
  5
65
102
{ACAD_REACTORS
330
16
102
}
330
16
100
AcDbVisualStyle
  2
GouraudWithEdges
 70
3
 90
2
 40
0.6
 62
7
290
0
291
1
  0
VISUALSTYLE
  5
66
102
{ACAD_REACTORS
330
16
102
}
330
16
100
AcDbVisualStyle
  2
Hidden
 70
6
 90
1
 40
0.6
 62
7
290
0
291
0
  0
VISUALSTYLE
  5
67
102
{ACAD_REACTORS
330
16
102
}
330
16
100
AcDbVisualStyle
  2
JitterOff
 70
20
 90
2
 40
0.6
 62
7
290
0
291
1
  0
VISUALSTYLE
  5
68
102
{ACAD_REACTORS
330
16
102
}
330
16
100
AcDbVisualStyle
  2
Linepattern
 70
14
 90
2
 40
0.6
 62
7
290
0
291
1
  0
VISUALSTYLE
  5
69
102
{ACAD_REACTORS
330
16
102
}
330
16
100
AcDbVisualStyle
  2
Modeling
 70
10
 90
2
 40
0.6
 62
7
290
0
291
0
  0
VISUALSTYLE
  5
6A
102
{ACAD_REACTORS
330
16
102
}
330
16
100
AcDbVisualStyle
  2
OverhangOff
 70
21
 90
2
 40
0.6
 62
7
290
0
291
1
  0
VISUALSTYLE
  5
6B
102
{ACAD_REACTORS
330
16
102
}
330
16
100
AcDbVisualStyle
  2
Realistic
 70
8
 90
2
 40
0.6
 62
7
290
0
291
0
  0
VISUALSTYLE
  5
6C
102
{ACAD_REACTORS
330
16
102
}
330
16
100
AcDbVisualStyle
  2
Shaded
 70
27
 90
2
 40
0.6
 62
7
290
0
291
0
  0
VISUALSTYLE
  5
6D
102
{ACAD_REACTORS
330
16
102
}
330
16
100
AcDbVisualStyle
  2
Shaded with edges
 70
26
 90
2
 40
0.6
 62
7
290
0
291
0
  0
VISUALSTYLE
  5
6E
102
{ACAD_REACTORS
330
16
102
}
330
16
100
AcDbVisualStyle
  2
Shades of Gray
 70
23
 90
2
 40
0.6
 62
7
290
0
291
0
  0
VISUALSTYLE
  5
6F
102
{ACAD_REACTORS
330
16
102
}
330
16
100
AcDbVisualStyle
  2
Sketchy
 70
24
 90
1
 40
0.6
 62
7
290
0
291
0
  0
VISUALSTYLE
  5
70
102
{ACAD_REACTORS
330
16
102
}
330
16
100
AcDbVisualStyle
  2
Thicken
 70
13
 90
2
 40
0.6
 62
7
290
0
291
1
  0
VISUALSTYLE
  5
71
102
{ACAD_REACTORS
330
16
102
}
330
16
100
AcDbVisualStyle
  2
Wireframe
 70
5
 90
0
 40
0.6
 62
7
290
0
291
0
  0
VISUALSTYLE
  5
72
102
{ACAD_REACTORS
330
16
102
}
330
16
100
AcDbVisualStyle
  2
X-Ray
 70
25
 90
2
 40
0.5
 62
7
290
0
291
0
  0
DICTIONARYVAR
  5
184
330
2D
100
DictionaryVariables
280
0
  1
1.4.4 @ 2026-09-02T20:01:25.902979+00:00
  0
ENDSEC
  0
EOF
