  0
SECTION
  2
HEADER
  9
$ACADVER
  1
AC1024
  9
$ACADMAINTVER
 70
6
  9
$DWGCODEPAGE
  3
ANSI_1252
  9
$LASTSAVEDBY
  1
ezdxf
  9
$INSBASE
 10
0.0
 20
0.0
 30
0.0
  9
$EXTMIN
 10
1e+20
 20
1e+20
 30
1e+20
  9
$EXTMAX
 10
-1e+20
 20
-1e+20
 30
-1e+20
  9
$LIMMIN
 10
0.0
 20
0.0
  9
$LIMMAX
 10
420.0
 20
297.0
  9
$ORTHOMODE
 70
0
  9
$REGENMODE
 70
1
  9
$FILLMODE
 70
1
  9
$QTEXTMODE
 70
0
  9
$MIRRTEXT
 70
1
  9
$LTSCALE
 40
1.0
  9
$ATTMODE
 70
1
  9
$TEXTSIZE
 40
2.5
  9
$TRACEWID
 40
1.0
  9
$TEXTSTYLE
  7
OpenSans
  9
$CLAYER
  8
0
  9
$CELTYPE
  6
ByLayer
  9
$CECOLOR
 62
256
  9
$CELTSCALE
 40
1.0
  9
$DISPSILH
 70
0
  9
$DIMSCALE
 40
1.0
  9
$DIMASZ
 40
0.175
  9
$DIMEXO
 40
0.125
  9
$DIMDLI
 40
3.75
  9
$DIMRND
 40
0.0
  9
$DIMDLE
 40
0.0
  9
$DIMEXE
 40
0.375
  9
$DIMTP
 40
0.0
  9
$DIMTM
 40
0.0
  9
$DIMTXT
 40
0.25
  9
$DIMCEN
 40
2.5
  9
$DIMTSZ
 40
0.0
  9
$DIMTOL
 70
0
  9
$DIMLIM
 70
0
  9
$DIMTIH
 70
0
  9
$DIMTOH
 70
0
  9
$DIMSE1
 70
0
  9
$DIMSE2
 70
0
  9
$DIMTAD
 70
1
  9
$DIMZIN
 70
12
  9
$DIMBLK
  1
ARCHTICK
  9
$DIMASO
 70
1
  9
$DIMSHO
 70
1
  9
$DIMPOST
  1

  9
$DIMAPOST
  1

  9
$DIMALT
 70
0
  9
$DIMALTD
 70
3
  9
$DIMALTF
 40
0.03937007874
  9
$DIMLFAC
 40
100.0
  9
$DIMTOFL
 70
1
  9
$DIMTVP
 40
0.0
  9
$DIMTIX
 70
0
  9
$DIMSOXD
 70
0
  9
$DIMSAH
 70
0
  9
$DIMBLK1
  1

  9
$DIMBLK2
  1

  9
$DIMSTYLE
  2
EZDXF
  9
$DIMCLRD
 70
0
  9
$DIMCLRE
 70
0
  9
$DIMCLRT
 70
0
  9
$DIMTFAC
 40
0.5
  9
$DIMGAP
 40
0.1
  9
$DIMJUST
 70
0
  9
$DIMSD1
 70
0
  9
$DIMSD2
 70
0
  9
$DIMTOLJ
 70
0
  9
$DIMTZIN
 70
8
  9
$DIMALTZ
 70
0
  9
$DIMALTTZ
 70
0
  9
$DIMUPT
 70
1
  9
$DIMDEC
 70
2
  9
$DIMTDEC
 70
2
  9
$DIMALTU
 70
2
  9
$DIMALTTD
 70
3
  9
$DIMTXSTY
  7
OpenSansCondensed-Light
  9
$DIMAUNIT
 70
0
  9
$DIMADEC
 70
2
  9
$DIMALTRND
 40
0.0
  9
$DIMAZIN
 70
3
  9
$DIMDSEP
 70
46
  9
$DIMATFIT
 70
3
  9
$DIMFRAC
 70
0
  9
$DIMLDRBLK
  1

  9
$DIMLUNIT
 70
2
  9
$DIMLWD
 70
-2
  9
$DIMLWE
 70
-2
  9
$DIMTMOVE
 70
2
  9
$DIMFXL
 40
1.0
  9
$DIMFXLON
 70
0
  9
$DIMJOGANG
 40
0.785398163397
  9
$DIMTFILL
 70
0
  9
$DIMTFILLCLR
 70
0
  9
$DIMARCSYM
 70
0
  9
$DIMLTYPE
  6

  9
$DIMLTEX1
  6

  9
$DIMLTEX2
  6

  9
$DIMTXTDIRECTION
 70
0
  9
$LUNITS
 70
2
  9
$LUPREC
 70
4
  9
$SKETCHINC
 40
1.0
  9
$FILLETRAD
 40
10.0
  9
$AUNITS
 70
0
  9
$AUPREC
 70
2
  9
$MENU
  1
.
  9
$ELEVATION
 40
0.0
  9
$PELEVATION
 40
0.0
  9
$THICKNESS
 40
0.0
  9
$LIMCHECK
 70
0
  9
$CHAMFERA
 40
0.0
  9
$CHAMFERB
 40
0.0
  9
$CHAMFERC
 40
0.0
  9
$CHAMFERD
 40
0.0
  9
$SKPOLY
 70
0
  9
$TDCREATE
 40
2461286.875983796
  9
$TDUCREATE
 40
2458532.153996898
  9
$TDUPDATE
 40
2461286.875983796
  9
$TDUUPDATE
 40
2458532.1544311
  9
$TDINDWG
 40
0.0
  9
$TDUSRTIMER
 40
0.0
  9
$USRTIMER
 70
1
  9
$ANGBASE
 50
0.0
  9
$ANGDIR
 70
0
  9
$PDMODE
 70
0
  9
$PDSIZE
 40
0.0
  9
$PLINEWID
 40
0.0
  9
$SPLFRAME
 70
0
  9
$SPLINETYPE
 70
6
  9
$SPLINESEGS
 70
8
  9
$HANDSEED
  5
135
  9
$SURFTAB1
 70
6
  9
$SURFTAB2
 70
6
  9
$SURFTYPE
 70
6
  9
$SURFU
 70
6
  9
$SURFV
 70
6
  9
$UCSBASE
  2

  9
$UCSNAME
  2

  9
$UCSORG
 10
0.0
 20
0.0
 30
0.0
  9
$UCSXDIR
 10
1.0
 20
0.0
 30
0.0
  9
$UCSYDIR
 10
0.0
 20
1.0
 30
0.0
  9
$UCSORTHOREF
  2

  9
$UCSORTHOVIEW
 70
0
  9
$UCSORGTOP
 10
0.0
 20
0.0
 30
0.0
  9
$UCSORGBOTTOM
 10
0.0
 20
0.0
 30
0.0
  9
$UCSORGLEFT
 10
0.0
 20
0.0
 30
0.0
  9
$UCSORGRIGHT
 10
0.0
 20
0.0
 30
0.0
  9
$UCSORGFRONT
 10
0.0
 20
0.0
 30
0.0
  9
$UCSORGBACK
 10
0.0
 20
0.0
 30
0.0
  9
$PUCSBASE
  2

  9
$PUCSNAME
  2

  9
$PUCSORG
 10
0.0
 20
0.0
 30
0.0
  9
$PUCSXDIR
 10
1.0
 20
0.0
 30
0.0
  9
$PUCSYDIR
 10
0.0
 20
1.0
 30
0.0
  9
$PUCSORTHOREF
  2

  9
$PUCSORTHOVIEW
 70
0
  9
$PUCSORGTOP
 10
0.0
 20
0.0
 30
0.0
  9
$PUCSORGBOTTOM
 10
0.0
 20
0.0
 30
0.0
  9
$PUCSORGLEFT
 10
0.0
 20
0.0
 30
0.0
  9
$PUCSORGRIGHT
 10
0.0
 20
0.0
 30
0.0
  9
$PUCSORGFRONT
 10
0.0
 20
0.0
 30
0.0
  9
$PUCSORGBACK
 10
0.0
 20
0.0
 30
0.0
  9
$USERI1
 70
0
  9
$USERI2
 70
0
  9
$USERI3
 70
0
  9
$USERI4
 70
0
  9
$USERI5
 70
0
  9
$USERR1
 40
0.0
  9
$USERR2
 40
0.0
  9
$USERR3
 40
0.0
  9
$USERR4
 40
0.0
  9
$USERR5
 40
0.0
  9
$WORLDVIEW
 70
1
  9
$SHADEDGE
 70
3
  9
$SHADEDIF
 70
70
  9
$TILEMODE
 70
1
  9
$MAXACTVP
 70
64
  9
$PINSBASE
 10
0.0
 20
0.0
 30
0.0
  9
$PLIMCHECK
 70
0
  9
$PEXTMIN
 10
1e+20
 20
1e+20
 30
1e+20
  9
$PEXTMAX
 10
-1e+20
 20
-1e+20
 30
-1e+20
  9
$PLIMMIN
 10
0.0
 20
0.0
  9
$PLIMMAX
 10
420.0
 20
297.0
  9
$UNITMODE
 70
0
  9
$VISRETAIN
 70
1
  9
$PLINEGEN
 70
0
  9
$PSLTSCALE
 70
1
  9
$TREEDEPTH
 70
3020
  9
$CMLSTYLE
  2
Standard
  9
$CMLJUST
 70
0
  9
$CMLSCALE
 40
20.0
  9
$PROXYGRAPHICS
 70
1
  9
$MEASUREMENT
 70
1
  9
$CELWEIGHT
370
-1
  9
$ENDCAPS
280
0
  9
$JOINSTYLE
280
0
  9
$LWDISPLAY
290
0
  9
$INSUNITS
 70
6
  9
$HYPERLINKBASE
  1

  9
$STYLESHEET
  1

  9
$XEDIT
290
1
  9
$CEPSNTYPE
380
0
  9
$PSTYLEMODE
290
1
  9
$FINGERPRINTGUID
  2
{960CC7FD-E696-4399-A2DD-6C7BD607F8E7}
  9
$VERSIONGUID
  2
{BE279414-4E76-4F62-B62B-08669983C088}
  9
$EXTNAMES
290
1
  9
$PSVPSCALE
 40
0.0
  9
$OLESTARTUP
290
0
  9
$SORTENTS
280
127
  9
$INDEXCTL
280
0
  9
$HIDETEXT
280
1
  9
$XCLIPFRAME
280
1
  9
$HALOGAP
280
0
  9
$OBSCOLOR
 70
257
  9
$OBSLTYPE
280
0
  9
$INTERSECTIONDISPLAY
280
0
  9
$INTERSECTIONCOLOR
 70
257
  9
$DIMASSOC
280
2
  9
$PROJECTNAME
  1

  9
$CAMERADISPLAY
290
0
  9
$LENSLENGTH
 40
50.0
  9
$CAMERAHEIGHT
 40
0.0
  9
$STEPSPERSEC
 40
24.0
  9
$STEPSIZE
 40
100.0
  9
$3DDWFPREC
 40
2.0
  9
$PSOLWIDTH
 40
0.005
  9
$PSOLHEIGHT
 40
0.08
  9
$LOFTANG1
 40
1.570796326795
  9
$LOFTANG2
 40
1.570796326795
  9
$LOFTMAG1
 40
0.0
  9
$LOFTMAG2
 40
0.0
  9
$LOFTPARAM
 70
7
  9
$LOFTNORMALS
280
1
  9
$LATITUDE
 40
37.795
  9
$LONGITUDE
 40
-122.394
  9
$NORTHDIRECTION
 40
0.0
  9
$TIMEZONE
 70
-8000
  9
$LIGHTGLYPHDISPLAY
280
1
  9
$TILEMODELIGHTSYNCH
280
1
  9
$CMATERIAL
347
20
  9
$SOLIDHIST
280
0
  9
$SHOWHIST
280
1
  9
$DWFFRAME
280
2
  9
$DGNFRAME
280
2
  9
$REALWORLDSCALE
290
1
  9
$INTERFERECOLOR
 62
256
  9
$CSHADOW
280
0
  9
$SHADOWPLANELOCATION
 40
0.0
  0
ENDSEC
  0
SECTION
  2
CLASSES
  0
CLASS
  1
ACDBDICTIONARYWDFLT
  2
AcDbDictionaryWithDefault
  3
ObjectDBX Classes
 90
0
 91
0
280
0
281
0
  0
CLASS
  1
SUN
  2
AcDbSun
  3
SCENEOE
 90
1153
 91
0
280
0
281
0
  0
CLASS
  1
VISUALSTYLE
  2
AcDbVisualStyle
  3
ObjectDBX Classes
 90
4095
 91
0
280
0
281
0
  0
CLASS
  1
MATERIAL
  2
AcDbMaterial
  3
ObjectDBX Classes
 90
1153
 91
0
280
0
281
0
  0
CLASS
  1
SCALE
  2
AcDbScale
  3
ObjectDBX Classes
 90
1153
 91
0
280
0
281
0
  0
CLASS
  1
TABLESTYLE
  2
AcDbTableStyle
  3
ObjectDBX Classes
 90
4095
 91
0
280
0
281
0
  0
CLASS
  1
MLEADERSTYLE
  2
AcDbMLeaderStyle
  3
ACDB_MLEADERSTYLE_CLASS
 90
4095
 91
0
280
0
281
0
  0
CLASS
  1
DICTIONARYVAR
  2
AcDbDictionaryVar
  3
ObjectDBX Classes
 90
0
 91
0
280
0
281
0
  0
CLASS
  1
CELLSTYLEMAP
  2
AcDbCellStyleMap
  3
ObjectDBX Classes
 90
1152
 91
0
280
0
281
0
  0
CLASS
  1
MENTALRAYRENDERSETTINGS
  2
AcDbMentalRayRenderSettings
  3
SCENEOE
 90
1024
 91
0
280
0
281
0
  0
CLASS
  1
ACDBDETAILVIEWSTYLE
  2
AcDbDetailViewStyle
  3
ObjectDBX Classes
 90
1025
 91
0
280
0
281
0
  0
CLASS
  1
ACDBSECTIONVIEWSTYLE
  2
AcDbSectionViewStyle
  3
ObjectDBX Classes
 90
1025
 91
0
280
0
281
0
  0
CLASS
  1
RASTERVARIABLES
  2
AcDbRasterVariables
  3
ISM
 90
0
 91
0
280
0
281
0
  0
CLASS
  1
LAYOUT
  2
AcDbLayout
  3
ObjectDBX Classes
 90
0
 91
0
280
0
281
0
  0
CLASS
  1
ACDBPLACEHOLDER
  2
AcDbPlaceHolder
  3
ObjectDBX Classes
 90
0
 91
0
280
0
281
0
  0
ENDSEC
  0
SECTION
  2
TABLES
  0
TABLE
  2
VPORT
  5
8
330
0
100
AcDbSymbolTable
 70
1
  0
VPORT
  5
23
330
8
100
AcDbSymbolTableRecord
100
AcDbViewportTableRecord
  2
*Active
 70
0
 10
0.0
 20
0.0
 11
1.0
 21
1.0
 12
0.0
 22
0.0
 13
0.0
 23
0.0
 14
0.5
 24
0.5
 15
0.5
 25
0.5
 16
0.0
 26
0.0
 36
1.0
 17
0.0
 27
0.0
 37
0.0
 40
1000.0
 41
1.34
 42
50.0
 43
0.0
 44
0.0
 50
0.0
 51
0.0
 71
0
 72
1000
 73
1
 74
3
 75
0
 76
0
 77
0
 78
0
281
0
 65
0
146
0.0
  0
ENDTAB
  0
TABLE
  2
LTYPE
  5
2
330
0
100
AcDbSymbolTable
 70
21
  0
LTYPE
  5
24
330
2
100
AcDbSymbolTableRecord
100
AcDbLinetypeTableRecord
  2
ByBlock
 70
0
  3

 72
65
 73
0
 40
0.0
  0
LTYPE
  5
25
330
2
100
AcDbSymbolTableRecord
100
AcDbLinetypeTableRecord
  2
ByLayer
 70
0
  3

 72
65
 73
0
 40
0.0
  0
LTYPE
  5
26
330
2
100
AcDbSymbolTableRecord
100
AcDbLinetypeTableRecord
  2
Continuous
 70
0
  3

 72
65
 73
0
 40
0.0
  0
LTYPE
  5
2F
330
2
100
AcDbSymbolTableRecord
100
AcDbLinetypeTableRecord
  2
CENTER
 70
0
  3
Center ____ _ ____ _ ____ _ ____ _ ____ _ ____
 72
65
 73
4
 40
5.08
 49
3.175
 74
0
 49
-0.635
 74
0
 49
0.635
 74
0
 49
-0.635
 74
0
  0
LTYPE
  5
30
330
2
100
AcDbSymbolTableRecord
100
AcDbLinetypeTableRecord
  2
CENTERX2
 70
0
  3
Center (2x) ________  __  ________  __  ________
 72
65
 73
4
 40
8.89
 49
6.35
 74
0
 49
-0.635
 74
0
 49
1.27
 74
0
 49
-0.635
 74
0
  0
LTYPE
  5
31
330
2
100
AcDbSymbolTableRecord
100
AcDbLinetypeTableRecord
  2
CENTER2
 70
0
  3
Center (.5x) ____ _ ____ _ ____ _ ____ _ ____
 72
65
 73
4
 40
2.54
 49
1.587
 74
0
 49
-0.318
 74
0
 49
0.318
 74
0
 49
-0.318
 74
0
  0
LTYPE
  5
32
330
2
100
AcDbSymbolTableRecord
100
AcDbLinetypeTableRecord
  2
DASHED
 70
0
  3
Dashed __ __ __ __ __ __ __ __ __ __ __ __ __ _
 72
65
 73
2
 40
1.524
 49
1.27
 74
0
 49
-0.254
 74
0
  0
LTYPE
  5
33
330
2
100
AcDbSymbolTableRecord
100
AcDbLinetypeTableRecord
  2
DASHEDX2
 70
0
  3
Dashed (2x) ____  ____  ____  ____  ____  ____
 72
65
 73
2
 40
3.048
 49
2.54
 74
0
 49
-0.508
 74
0
  0
LTYPE
  5
34
330
2
100
AcDbSymbolTableRecord
100
AcDbLinetypeTableRecord
  2
DASHED2
 70
0
  3
Dashed (.5x) _ _ _ _ _ _ _ _ _ _ _ _ _ _
 72
65
 73
2
 40
0.762
 49
0.635
 74
0
 49
-0.127
 74
0
  0
LTYPE
  5
35
330
2
100
AcDbSymbolTableRecord
100
AcDbLinetypeTableRecord
  2
PHANTOM
 70
0
  3
Phantom ______  __  __  ______  __  __  ______
 72
65
 73
6
 40
6.35
 49
3.175
 74
0
 49
-0.635
 74
0
 49
0.635
 74
0
 49
-0.635
 74
0
 49
0.635
 74
0
 49
-0.635
 74
0
  0
LTYPE
  5
36
330
2
100
AcDbSymbolTableRecord
100
AcDbLinetypeTableRecord
  2
PHANTOMX2
 70
0
  3
Phantom (2x)____________    ____    ____    ____________
 72
65
 73
6
 40
10.795
 49
6.35
 74
0
 49
-0.635
 74
0
 49
1.27
 74
0
 49
-0.635
 74
0
 49
1.27
 74
0
 49
-0.635
 74
0
  0
LTYPE
  5
37
330
2
100
AcDbSymbolTableRecord
100
AcDbLinetypeTableRecord
  2
PHANTOM2
 70
0
  3
Phantom (.5x) ___ _ _ ___ _ _ ___ _ _ ___ _ _ ___
 72
65
 73
6
 40
3.175
 49
1.587
 74
0
 49
-0.318
 74
0
 49
0.318
 74
0
 49
-0.318
 74
0
 49
0.318
 74
0
 49
-0.318
 74
0
  0
LTYPE
  5
38
330
2
100
AcDbSymbolTableRecord
100
AcDbLinetypeTableRecord
  2
DASHDOT
 70
0
  3
Dash dot __ . __ . __ . __ . __ . __ . __ . __
 72
65
 73
4
 40
3.556
 49
2.54
 74
0
 49
-0.508
 74
0
 49
0.0
 74
0
 49
-0.508
 74
0
  0
LTYPE
  5
39
330
2
100
AcDbSymbolTableRecord
100
AcDbLinetypeTableRecord
  2
DASHDOTX2
 70
0
  3
Dash dot (2x) ____  .  ____  .  ____  .  ____
 72
65
 73
4
 40
6.096
 49
5.08
 74
0
 49
-0.508
 74
0
 49
0.0
 74
0
 49
-0.508
 74
0
  0
LTYPE
  5
3A
330
2
100
AcDbSymbolTableRecord
100
AcDbLinetypeTableRecord
  2
DASHDOT2
 70
0
  3
Dash dot (.5x) _ . _ . _ . _ . _ . _ . _ . _
 72
65
 73
4
 40
1.778
 49
1.27
 74
0
 49
-0.254
 74
0
 49
0.0
 74
0
 49
-0.254
 74
0
  0
LTYPE
  5
3B
330
2
100
AcDbSymbolTableRecord
100
AcDbLinetypeTableRecord
  2
DOT
 70
0
  3
Dot .  .  .  .  .  .  .  .  .  .  .  .  .  .  .  .
 72
65
 73
2
 40
0.508
 49
0.0
 74
0
 49
-0.508
 74
0
  0
LTYPE
  5
3C
330
2
100
AcDbSymbolTableRecord
100
AcDbLinetypeTableRecord
  2
DOTX2
 70
0
  3
Dot (2x) .    .    .    .    .    .    .    . 
 72
65
 73
2
 40
1.016
 49
0.0
 74
0
 49
-1.016
 74
0
  0
LTYPE
  5
3D
330
2
100
AcDbSymbolTableRecord
100
AcDbLinetypeTableRecord
  2
DOT2
 70
0
  3
Dot (.5) . . . . . . . . . . . . . . . . . . . 
 72
65
 73
2
 40
0.254
 49
0.0
 74
0
 49
-0.254
 74
0
  0
LTYPE
  5
3E
330
2
100
AcDbSymbolTableRecord
100
AcDbLinetypeTableRecord
  2
DIVIDE
 70
0
  3
Divide __ . . __ . . __ . . __ . . __ . . __
 72
65
 73
6
 40
4.064
 49
2.54
 74
0
 49
-0.508
 74
0
 49
0.0
 74
0
 49
-0.508
 74
0
 49
0.0
 74
0
 49
-0.508
 74
0
  0
LTYPE
  5
3F
330
2
100
AcDbSymbolTableRecord
100
AcDbLinetypeTableRecord
  2
DIVIDEX2
 70
0
  3
Divide (2x) ____  . .  ____  . .  ____  . .  ____
 72
65
 73
6
 40
6.604
 49
5.08
 74
0
 49
-0.508
 74
0
 49
0.0
 74
0
 49
-0.508
 74
0
 49
0.0
 74
0
 49
-0.508
 74
0
  0
LTYPE
  5
40
330
2
100
AcDbSymbolTableRecord
100
AcDbLinetypeTableRecord
  2
DIVIDE2
 70
0
  3
Divide(.5x) _ . _ . _ . _ . _ . _ . _ . _
 72
65
 73
6
 40
2.032
 49
1.27
 74
0
 49
-0.254
 74
0
 49
0.0
 74
0
 49
-0.254
 74
0
 49
0.0
 74
0
 49
-0.254
 74
0
  0
ENDTAB
  0
TABLE
  2
LAYER
  5
1
330
0
100
AcDbSymbolTable
 70
7
  0
LAYER
  5
27
330
1
100
AcDbSymbolTableRecord
100
AcDbLayerTableRecord
  2
0
 70
0
 62
7
  6
Continuous
370
-3
390
13
347
21
  0
LAYER
  5
28
330
1
100
AcDbSymbolTableRecord
100
AcDbLayerTableRecord
  2
Defpoints
 70
0
 62
7
  6
Continuous
290
0
370
-3
390
13
347
21
  0
LAYER
  5
8A
330
1
100
AcDbSymbolTableRecord
100
AcDbLayerTableRecord
  2
OUTLINE
 70
0
 62
7
  6
Continuous
370
-3
390
13
347
21
  0
LAYER
  5
8B
330
1
100
AcDbSymbolTableRecord
100
AcDbLayerTableRecord
  2
REF
 70
0
 62
8
  6
Continuous
370
-3
390
13
347
21
  0
LAYER
  5
8C
330
1
100
AcDbSymbolTableRecord
100
AcDbLayerTableRecord
  2
DIMS
 70
0
 62
1
  6
Continuous
370
-3
390
13
347
21
  0
LAYER
  5
8D
330
1
100
AcDbSymbolTableRecord
100
AcDbLayerTableRecord
  2
TEXT
 70
0
 62
3
  6
Continuous
370
-3
390
13
347
21
  0
LAYER
  5
8E
330
1
100
AcDbSymbolTableRecord
100
AcDbLayerTableRecord
  2
NOTES
 70
0
 62
4
  6
Continuous
370
-3
390
13
347
21
  0
ENDTAB
  0
TABLE
  2
STYLE
  5
5
330
0
100
AcDbSymbolTable
 70
26
  0
STYLE
  5
29
330
5
100
AcDbSymbolTableRecord
100
AcDbTextStyleTableRecord
  2
Standard
 70
0
 40
0.0
 41
1.0
 50
0.0
 71
0
 42
2.5
  3
txt
  4

  0
STYLE
  5
41
330
5
100
AcDbSymbolTableRecord
100
AcDbTextStyleTableRecord
  2
OpenSans-Light
 70
0
 40
0.0
 41
1.0
 50
0.0
 71
0
 42
2.5
  3
OpenSans-Light.ttf
  4

  0
STYLE
  5
42
330
5
100
AcDbSymbolTableRecord
100
AcDbTextStyleTableRecord
  2
OpenSans-Light-Italic
 70
0
 40
0.0
 41
1.0
 50
0.0
 71
0
 42
2.5
  3
OpenSans-LightItalic.ttf
  4

  0
STYLE
  5
43
330
5
100
AcDbSymbolTableRecord
100
AcDbTextStyleTableRecord
  2
OpenSans
 70
0
 40
0.0
 41
1.0
 50
0.0
 71
0
 42
2.5
  3
OpenSans-Regular.ttf
  4

  0
STYLE
  5
44
330
5
100
AcDbSymbolTableRecord
100
AcDbTextStyleTableRecord
  2
OpenSans-Italic
 70
0
 40
0.0
 41
1.0
 50
0.0
 71
0
 42
2.5
  3
OpenSans-Italic.ttf
  4

  0
STYLE
  5
45
330
5
100
AcDbSymbolTableRecord
100
AcDbTextStyleTableRecord
  2
OpenSans-SemiBold
 70
0
 40
0.0
 41
1.0
 50
0.0
 71
0
 42
2.5
  3
OpenSans-SemiBold.ttf
  4

  0
STYLE
  5
46
330
5
100
AcDbSymbolTableRecord
100
AcDbTextStyleTableRecord
  2
OpenSans-SemiBoldItalic
 70
0
 40
0.0
 41
1.0
 50
0.0
 71
0
 42
2.5
  3
OpenSans-SemiBoldItalic.ttf
  4

  0
STYLE
  5
47
330
5
100
AcDbSymbolTableRecord
100
AcDbTextStyleTableRecord
  2
OpenSans-Bold
 70
0
 40
0.0
 41
1.0
 50
0.0
 71
0
 42
2.5
  3
OpenSans-Bold.ttf
  4

  0
STYLE
  5
48
330
5
100
AcDbSymbolTableRecord
100
AcDbTextStyleTableRecord
  2
OpenSans-BoldItalic
 70
0
 40
0.0
 41
1.0
 50
0.0
 71
0
 42
2.5
  3
OpenSans-BoldItalic.ttf
  4

  0
STYLE
  5
49
330
5
100
AcDbSymbolTableRecord
100
AcDbTextStyleTableRecord
  2
OpenSans-ExtraBold
 70
0
 40
0.0
 41
1.0
 50
0.0
 71
0
 42
2.5
  3
OpenSans-ExtraBold.ttf
  4

  0
STYLE
  5
4A
330
5
100
AcDbSymbolTableRecord
100
AcDbTextStyleTableRecord
  2
OpenSans-ExtraBoldItalic
 70
0
 40
0.0
 41
1.0
 50
0.0
 71
0
 42
2.5
  3
OpenSans-ExtraBoldItalic.ttf
  4

  0
STYLE
  5
4B
330
5
100
AcDbSymbolTableRecord
100
AcDbTextStyleTableRecord
  2
OpenSansCondensed-Bold
 70
0
 40
0.0
 41
1.0
 50
0.0
 71
0
 42
2.5
  3
OpenSansCondensed-Bold.ttf
  4

  0
STYLE
  5
4C
330
5
100
AcDbSymbolTableRecord
100
AcDbTextStyleTableRecord
  2
OpenSansCondensed-Light
 70
0
 40
0.0
 41
1.0
 50
0.0
 71
0
 42
2.5
  3
OpenSansCondensed-Light.ttf
  4

  0
STYLE
  5
4D
330
5
100
AcDbSymbolTableRecord
100
AcDbTextStyleTableRecord
  2
OpenSansCondensed-Italic
 70
0
 40
0.0
 41
1.0
 50
0.0
 71
0
 42
2.5
  3
OpenSansCondensed-LightItalic.ttf
  4

  0
STYLE
  5
4E
330
5
100
AcDbSymbolTableRecord
100
AcDbTextStyleTableRecord
  2
LiberationSans
 70
0
 40
0.0
 41
1.0
 50
0.0
 71
0
 42
2.5
  3
LiberationSans-Regular.ttf
  4

  0
STYLE
  5
4F
330
5
100
AcDbSymbolTableRecord
100
AcDbTextStyleTableRecord
  2
LiberationSans-Bold
 70
0
 40
0.0
 41
1.0
 50
0.0
 71
0
 42
2.5
  3
LiberationSans-Bold.ttf
  4

  0
STYLE
  5
50
330
5
100
AcDbSymbolTableRecord
100
AcDbTextStyleTableRecord
  2
LiberationSans-BoldItalic
 70
0
 40
0.0
 41
1.0
 50
0.0
 71
0
 42
2.5
  3
LiberationSans-BoldItalic.ttf
  4

  0
STYLE
  5
51
330
5
100
AcDbSymbolTableRecord
100
AcDbTextStyleTableRecord
  2
LiberationSans-Italic
 70
0
 40
0.0
 41
1.0
 50
0.0
 71
0
 42
2.5
  3
LiberationSans-Italic.ttf
  4

  0
STYLE
  5
52
330
5
100
AcDbSymbolTableRecord
100
AcDbTextStyleTableRecord
  2
LiberationSerif
 70
0
 40
0.0
 41
1.0
 50
0.0
 71
0
 42
2.5
  3
LiberationSerif-Regular.ttf
  4

  0
STYLE
  5
53
330
5
100
AcDbSymbolTableRecord
100
AcDbTextStyleTableRecord
  2
LiberationSerif-Bold
 70
0
 40
0.0
 41
1.0
 50
0.0
 71
0
 42
2.5
  3
LiberationSerif-Bold.ttf
  4

  0
STYLE
  5
54
330
5
100
AcDbSymbolTableRecord
100
AcDbTextStyleTableRecord
  2
LiberationSerif-BoldItalic
 70
0
 40
0.0
 41
1.0
 50
0.0
 71
0
 42
2.5
  3
LiberationSerif-BoldItalic.ttf
  4

  0
STYLE
  5
55
330
5
100
AcDbSymbolTableRecord
100
AcDbTextStyleTableRecord
  2
LiberationSerif-Italic
 70
0
 40
0.0
 41
1.0
 50
0.0
 71
0
 42
2.5
  3
LiberationSerif-Italic.ttf
  4

  0
STYLE
  5
56
330
5
100
AcDbSymbolTableRecord
100
AcDbTextStyleTableRecord
  2
LiberationMono
 70
0
 40
0.0
 41
1.0
 50
0.0
 71
0
 42
2.5
  3
LiberationMono-Regular.ttf
  4

  0
STYLE
  5
57
330
5
100
AcDbSymbolTableRecord
100
AcDbTextStyleTableRecord
  2
LiberationMono-Bold
 70
0
 40
0.0
 41
1.0
 50
0.0
 71
0
 42
2.5
  3
LiberationMono-Bold.ttf
  4

  0
STYLE
  5
58
330
5
100
AcDbSymbolTableRecord
100
AcDbTextStyleTableRecord
  2
LiberationMono-BoldItalic
 70
0
 40
0.0
 41
1.0
 50
0.0
 71
0
 42
2.5
  3
LiberationMono-BoldItalic.ttf
  4

  0
STYLE
  5
59
330
5
100
AcDbSymbolTableRecord
100
AcDbTextStyleTableRecord
  2
LiberationMono-Italic
 70
0
 40
0.0
 41
1.0
 50
0.0
 71
0
 42
2.5
  3
LiberationMono-Italic.ttf
  4

  0
ENDTAB
  0
TABLE
  2
VIEW
  5
7
330
0
100
AcDbSymbolTable
 70
0
  0
ENDTAB
  0
TABLE
  2
UCS
  5
6
330
0
100
AcDbSymbolTable
 70
0
  0
ENDTAB
  0
TABLE
  2
APPID
  5
3
330
0
100
AcDbSymbolTable
 70
3
  0
APPID
  5
2A
330
3
100
AcDbSymbolTableRecord
100
AcDbRegAppTableRecord
  2
ACAD
 70
0
  0
APPID
  5
132
330
3
100
AcDbSymbolTableRecord
100
AcDbRegAppTableRecord
  2
HATCHBACKGROUNDCOLOR
 70
0
  0
APPID
  5
133
330
3
100
AcDbSymbolTableRecord
100
AcDbRegAppTableRecord
  2
EZDXF
 70
0
  0
ENDTAB
  0
TABLE
  2
DIMSTYLE
  5
4
330
0
100
AcDbSymbolTable
 70
12
100
AcDbDimStyleTable
  0
DIMSTYLE
105
2B
330
4
100
AcDbSymbolTableRecord
100
AcDbDimStyleTableRecord
  2
Standard
 70
0
 40
1.0
 41
2.5
 42
0.625
 43
3.75
 44
1.25
 45
0.0
 46
0.0
 47
0.0
 48
0.0
 49
2.5
140
2.5
141
2.5
142
0.0
143
0.03937007874
144
1.0
145
0.0
146
1.0
147
0.625
148
0.0
 69
0
 70
0
 71
0
 72
0
 73
0
 74
0
 75
0
 76
0
 77
1
 78
8
 79
3
170
0
171
3
172
1
173
0
174
0
175
0
176
0
177
0
178
0
179
2
271
2
272
2
273
2
274
3
275
0
276
0
277
2
278
44
279
0
280
0
281
0
282
0
283
0
284
8
285
0
286
0
288
0
289
3
290
0
371
-2
372
-2
  0
DIMSTYLE
105
73
330
4
100
AcDbSymbolTableRecord
100
AcDbDimStyleTableRecord
  2
EZDXF
 70
0
 40
1.0
 41
0.175
 42
0.125
 43
3.75
 44
0.375
 45
0.0
 46
0.0
 47
0.0
 48
0.0
 49
2.5
140
0.25
141
2.5
142
0.0
143
0.03937007874
144
100.0
145
0.0
146
0.5
147
0.1
148
0.0
 69
0
 70
0
 71
0
 72
0
 73
0
 74
0
 75
0
 76
0
 77
1
 78
12
 79
3
170
0
171
3
172
1
173
0
174
0
175
0
176
0
177
0
178
0
179
2
271
2
272
2
273
2
274
3
275
0
276
0
277
2
278
46
279
2
280
0
281
0
282
0
283
0
284
8
285
0
286
0
288
1
289
3
290
0
340
4C
342
74
371
-2
372
-2
  0
DIMSTYLE
105
7C
330
4
100
AcDbSymbolTableRecord
100
AcDbDimStyleTableRecord
  2
EZ_M_100_H25_CM
 70
0
 40
1.0
 41
0.25
 42
0.125
 43
3.75
 44
0.375
 45
0.0
 46
0.0
 47
0.0
 48
0.0
 49
2.5
140
0.25
141
2.5
142
0.125
143
0.03937007874
144
100.0
145
0.0
146
0.5
147
0.1
148
0.0
 69
0
 70
0
 71
0
 72
0
 73
0
 74
0
 75
0
 76
0
 77
1
 78
12
 79
3
170
0
171
3
172
1
173
0
174
0
175
0
176
0
177
0
178
0
179
2
271
2
272
2
273
2
274
3
275
0
276
0
277
2
278
46
279
2
280
0
281
0
282
0
283
0
284
8
285
0
286
0
288
1
289
3
290
0
340
4C
371
-2
372
-2
  0
DIMSTYLE
105
7D
330
4
100
AcDbSymbolTableRecord
100
AcDbDimStyleTableRecord
  2
EZ_M_50_H25_CM
 70
0
 40
1.0
 41
0.125
 42
0.0625
 43
3.75
 44
0.1875
 45
0.0
 46
0.0
 47
0.0
 48
0.0
 49
2.5
140
0.125
141
2.5
142
0.0625
143
0.03937007874
144
100.0
145
0.0
146
0.5
147
0.05
148
0.0
 69
0
 70
0
 71
0
 72
0
 73
0
 74
0
 75
0
 76
0
 77
1
 78
12
 79
3
170
0
171
3
172
1
173
0
174
0
175
0
176
0
177
0
178
0
179
2
271
2
272
2
273
2
274
3
275
0
276
0
277
2
278
46
279
2
280
0
281
0
282
0
283
0
284
8
285
0
286
0
288
1
289
3
290
0
340
4C
371
-2
372
-2
  0
DIMSTYLE
105
7E
330
4
100
AcDbSymbolTableRecord
100
AcDbDimStyleTableRecord
  2
EZ_M_25_H25_CM
 70
0
 40
1.0
 41
0.0625
 42
0.03125
 43
3.75
 44
0.09375
 45
0.0
 46
0.0
 47
0.0
 48
0.0
 49
2.5
140
0.0625
141
2.5
142
0.03125
143
0.03937007874
144
100.0
145
0.0
146
0.5
147
0.025
148
0.0
 69
0
 70
0
 71
0
 72
0
 73
0
 74
0
 75
0
 76
0
 77
1
 78
12
 79
3
170
0
171
3
172
1
173
0
174
0
175
0
176
0
177
0
178
0
179
2
271
2
272
2
273
2
274
3
275
0
276
0
277
2
278
46
279
2
280
0
281
0
282
0
283
0
284
8
285
0
286
0
288
1
289
3
290
0
340
4C
371
-2
372
-2
  0
DIMSTYLE
105
7F
330
4
100
AcDbSymbolTableRecord
100
AcDbDimStyleTableRecord
  2
EZ_M_20_H25_CM
 70
0
 40
1.0
 41
0.05
 42
0.025
 43
3.75
 44
0.07500000000000001
 45
0.0
 46
0.0
 47
0.0
 48
0.0
 49
2.5
140
0.05
141
2.5
142
0.025
143
0.03937007874
144
100.0
145
0.0
146
0.5
147
0.020000000000000004
148
0.0
 69
0
 70
0
 71
0
 72
0
 73
0
 74
0
 75
0
 76
0
 77
1
 78
12
 79
3
170
0
171
3
172
1
173
0
174
0
175
0
176
0
177
0
178
0
179
2
271
2
272
2
273
2
274
3
275
0
276
0
277
2
278
46
279
2
280
0
281
0
282
0
283
0
284
8
285
0
286
0
288
1
289
3
290
0
340
4C
371
-2
372
-2
  0
DIMSTYLE
105
80
330
4
100
AcDbSymbolTableRecord
100
AcDbDimStyleTableRecord
  2
EZ_M_10_H25_CM
 70
0
 40
1.0
 41
0.025
 42
0.0125
 43
3.75
 44
0.037500000000000006
 45
0.0
 46
0.0
 47
0.0
 48
0.0
 49
2.5
140
0.025
141
2.5
142
0.0125
143
0.03937007874
144
100.0
145
0.0
146
0.5
147
0.010000000000000002
148
0.0
 69
0
 70
0
 71
0
 72
0
 73
0
 74
0
 75
0
 76
0
 77
1
 78
12
 79
3
170
0
171
3
172
1
173
0
174
0
175
0
176
0
177
0
178
0
179
2
271
2
272
2
273
2
274
3
275
0
276
0
277
2
278
46
279
2
280
0
281
0
282
0
283
0
284
8
285
0
286
0
288
1
289
3
290
0
340
4C
371
-2
372
-2
  0
DIMSTYLE
105
81
330
4
100
AcDbSymbolTableRecord
100
AcDbDimStyleTableRecord
  2
EZ_M_5_H25_CM
 70
0
 40
1.0
 41
0.0125
 42
0.00625
 43
3.75
 44
0.018750000000000003
 45
0.0
 46
0.0
 47
0.0
 48
0.0
 49
2.5
140
0.0125
141
2.5
142
0.00625
143
0.03937007874
144
100.0
145
0.0
146
0.5
147
0.005000000000000001
148
0.0
 69
0
 70
0
 71
0
 72
0
 73
0
 74
0
 75
0
 76
0
 77
1
 78
12
 79
3
170
0
171
3
172
1
173
0
174
0
175
0
176
0
177
0
178
0
179
2
271
2
272
2
273
2
274
3
275
0
276
0
277
2
278
46
279
2
280
0
281
0
282
0
283
0
284
8
285
0
286
0
288
1
289
3
290
0
340
4C
371
-2
372
-2
  0
DIMSTYLE
105
82
330
4
100
AcDbSymbolTableRecord
100
AcDbDimStyleTableRecord
  2
EZ_M_1_H25_CM
 70
0
 40
1.0
 41
0.0025
 42
0.00125
 43
3.75
 44
0.00375
 45
0.0
 46
0.0
 47
0.0
 48
0.0
 49
2.5
140
0.0025
141
2.5
142
0.00125
143
0.03937007874
144
100.0
145
0.0
146
0.5
147
0.001
148
0.0
 69
0
 70
0
 71
0
 72
0
 73
0
 74
0
 75
0
 76
0
 77
1
 78
12
 79
3
170
0
171
3
172
1
173
0
174
0
175
0
176
0
177
0
178
0
179
2
271
2
272
2
273
2
274
3
275
0
276
0
277
2
278
46
279
2
280
0
281
0
282
0
283
0
284
8
285
0
286
0
288
1
289
3
290
0
340
4C
371
-2
372
-2
  0
DIMSTYLE
105
83
330
4
100
AcDbSymbolTableRecord
100
AcDbDimStyleTableRecord
  2
EZ_RADIUS
 70
0
 40
1.0
 41
0.25
 42
0.125
 43
3.75
 44
0.375
 45
0.0
 46
0.0
 47
0.0
 48
0.0
 49
2.5
140
0.25
141
0.0
142
0.0
143
0.03937007874
144
100.0
145
0.0
146
0.5
147
0.1
148
0.0
 69
0
 70
0
 71
0
 72
0
 73
0
 74
0
 75
0
 76
0
 77
1
 78
12
 79
3
170
0
171
3
172
0
173
0
174
0
175
0
176
0
177
0
178
0
179
2
271
2
272
2
273
2
274
3
275
0
276
0
277
2
278
46
279
1
280
0
281
0
282
0
283
0
284
8
285
0
286
0
288
1
289
3
290
0
340
4C
342
84
371
-2
372
-2
  0
DIMSTYLE
105
88
330
4
100
AcDbSymbolTableRecord
100
AcDbDimStyleTableRecord
  2
EZ_RADIUS_INSIDE
 70
0
 40
1.0
 41
0.25
 42
0.125
 43
3.75
 44
0.375
 45
0.0
 46
0.0
 47
0.0
 48
0.0
 49
2.5
140
0.25
141
0.0
142
0.0
143
0.03937007874
144
100.0
145
0.0
146
0.5
147
0.1
148
0.0
 69
0
 70
0
 71
0
 72
0
 73
0
 74
0
 75
0
 76
0
 77
0
 78
12
 79
3
170
0
171
3
172
0
173
0
174
1
175
0
176
0
177
0
178
0
179
2
271
2
272
2
273
2
274
3
275
0
276
0
277
2
278
46
279
0
280
0
281
0
282
0
283
0
284
8
285
0
286
0
288
1
289
0
290
0
340
4C
342
84
371
-2
372
-2
  0
DIMSTYLE
105
89
330
4
100
AcDbSymbolTableRecord
100
AcDbDimStyleTableRecord
  2
EZ_CURVED
 70
0
 40
1.0
 41
0.25
 42
0.125
 43
3.75
 44
0.375
 45
0.0
 46
0.0
 47
0.0
 48
0.0
 49
2.5
140
0.25
141
2.5
142
0.0
143
0.03937007874
144
100.0
145
0.0
146
0.5
147
0.1
148
0.0
 69
0
 70
0
 71
0
 72
0
 73
0
 74
0
 75
0
 76
0
 77
1
 78
12
 79
2
 90
2
170
0
171
3
172
1
173
0
174
0
175
0
176
0
177
0
178
0
179
2
271
2
272
2
273
2
274
3
275
0
276
0
277
2
278
46
279
2
280
0
281
0
282
0
283
0
284
8
285
0
286
0
288
1
289
3
290
0
340
4C
371
-2
372
-2
  0
ENDTAB
  0
TABLE
  2
BLOCK_RECORD
  5
9
330
0
100
AcDbSymbolTable
 70
12
  0
BLOCK_RECORD
  5
17
330
9
100
AcDbSymbolTableRecord
100
AcDbBlockTableRecord
  2
*Model_Space
340
1A
 70
0
280
1
281
0
  0
BLOCK_RECORD
  5
1B
330
9
100
AcDbSymbolTableRecord
100
AcDbBlockTableRecord
  2
*Paper_Space
340
1E
 70
0
280
1
281
0
  0
BLOCK_RECORD
  5
74
330
9
100
AcDbSymbolTableRecord
100
AcDbBlockTableRecord
  2
_ARCHTICK
340
0
 70
0
280
1
281
0
  0
BLOCK_RECORD
  5
78
330
9
100
AcDbSymbolTableRecord
100
AcDbBlockTableRecord
  2
_CLOSEDFILLED
340
0
 70
0
280
1
281
0
  0
BLOCK_RECORD
  5
84
330
9
100
AcDbSymbolTableRecord
100
AcDbBlockTableRecord
  2
_CLOSEDBLANK
340
0
 70
0
280
1
281
0
  0
BLOCK_RECORD
  5
AC
330
9
100
AcDbSymbolTableRecord
100
AcDbBlockTableRecord
  2
*D1
340
0
 70
0
280
1
281
0
  0
BLOCK_RECORD
  5
BB
330
9
100
AcDbSymbolTableRecord
100
AcDbBlockTableRecord
  2
*D2
340
0
 70
0
280
1
281
0
  0
BLOCK_RECORD
  5
CA
330
9
100
AcDbSymbolTableRecord
100
AcDbBlockTableRecord
  2
*D3
340
0
 70
0
280
1
281
0
  0
BLOCK_RECORD
  5
D9
330
9
100
AcDbSymbolTableRecord
100
AcDbBlockTableRecord
  2
*D4
340
0
 70
0
280
1
281
0
  0
BLOCK_RECORD
  5
E8
330
9
100
AcDbSymbolTableRecord
100
AcDbBlockTableRecord
  2
*D5
340
0
 70
0
280
1
281
0
  0
BLOCK_RECORD
  5
F7
330
9
100
AcDbSymbolTableRecord
100
AcDbBlockTableRecord
  2
*D6
340
0
 70
0
280
1
281
0
  0
BLOCK_RECORD
  5
123
330
9
100
AcDbSymbolTableRecord
100
AcDbBlockTableRecord
  2
*D7
340
0
 70
0
280
1
281
0
  0
ENDTAB
  0
ENDSEC
  0
SECTION
  2
BLOCKS
  0
BLOCK
  5
18
330
17
100
AcDbEntity
  8
0
100
AcDbBlockBegin
  2
*Model_Space
 70
0
 10
0.0
 20
0.0
 30
0.0
  3
*Model_Space
  1

  0
ENDBLK
  5
19
330
17
100
AcDbEntity
  8
0
100
AcDbBlockEnd
  0
BLOCK
  5
1C
330
1B
100
AcDbEntity
  8
0
100
AcDbBlockBegin
  2
*Paper_Space
 70
0
 10
0.0
 20
0.0
 30
0.0
  3
*Paper_Space
  1

  0
ENDBLK
  5
1D
330
1B
100
AcDbEntity
  8
0
100
AcDbBlockEnd
  0
BLOCK
  5
75
330
74
100
AcDbEntity
  8
0
100
AcDbBlockBegin
  2
_ARCHTICK
 70
0
 10
0.0
 20
0.0
 30
0.0
  3
_ARCHTICK
  1

  0
LWPOLYLINE
  5
77
330
74
100
AcDbEntity
  8
0
  6
BYBLOCK
 62
0
100
AcDbPolyline
 90
2
 70
0
 43
0.15
 10
-0.5
 20
-0.5
 10
0.5
 20
0.5
  0
ENDBLK
  5
76
330
74
100
AcDbEntity
  8
0
100
AcDbBlockEnd
  0
BLOCK
  5
79
330
78
100
AcDbEntity
  8
0
100
AcDbBlockBegin
  2
_CLOSEDFILLED
 70
0
 10
0.0
 20
0.0
 30
0.0
  3
_CLOSEDFILLED
  1

  0
SOLID
  5
7B
330
78
100
AcDbEntity
  8
0
  6
BYBLOCK
 62
0
100
AcDbTrace
 10
-1.0
 20
0.16439898372402537
 30
0.0
 11
0.0
 21
0.0
 31
0.0
 12
-1.0
 22
-0.16439898372402537
 32
0.0
 13
-1.0
 23
-0.16439898372402537
 33
0.0
  0
ENDBLK
  5
7A
330
78
100
AcDbEntity
  8
0
100
AcDbBlockEnd
  0
BLOCK
  5
85
330
84
100
AcDbEntity
  8
0
100
AcDbBlockBegin
  2
_CLOSEDBLANK
 70
0
 10
0.0
 20
0.0
 30
0.0
  3
_CLOSEDBLANK
  1

  0
LWPOLYLINE
  5
87
330
84
100
AcDbEntity
  8
0
  6
BYBLOCK
 62
0
100
AcDbPolyline
 90
3
 70
1
 10
-1.0
 20
0.16439898372402537
 10
0.0
 20
0.0
 10
-1.0
 20
-0.16439898372402537
  0
ENDBLK
  5
86
330
84
100
AcDbEntity
  8
0
100
AcDbBlockEnd
  0
BLOCK
  5
AD
330
AC
100
AcDbEntity
  8
0
100
AcDbBlockBegin
  2
*D1
 70
1
 10
0.0
 20
0.0
 30
0.0
  3
*D1
  1

  0
LINE
  5
AF
330
AC
100
AcDbEntity
  8
0
100
AcDbLine
 10
0.0
 20
-100.8
 30
0.0
 11
0.0
 21
-111.0
 31
0.0
  0
LINE
  5
B0
330
AC
100
AcDbEntity
  8
0
100
AcDbLine
 10
120.0
 20
-100.8
 30
0.0
 11
120.0
 21
-111.0
 31
0.0
  0
INSERT
  5
B1
330
AC
100
AcDbEntity
  8
DIMS
100
AcDbBlockReference
  2
_ARCHTICK
 10
0.0
 20
-110.0
 30
0.0
 41
1.5
 42
1.5
 50
180.0
  0
INSERT
  5
B3
330
AC
100
AcDbEntity
  8
DIMS
100
AcDbBlockReference
  2
_ARCHTICK
 10
120.0
 20
-110.0
 30
0.0
 41
1.5
 42
1.5
  0
LINE
  5
B5
330
AC
100
AcDbEntity
  8
0
100
AcDbLine
 10
0.0
 20
-110.0
 30
0.0
 11
120.0
 21
-110.0
 31
0.0
  0
MTEXT
  5
B6
330
AC
100
AcDbEntity
  8
DIMS
100
AcDbMText
 10
60.0
 20
-108.15
 30
0.0
 40
2.5
 71
5
  1
12000
  7
OpenSansCondensed-Light
  0
POINT
  5
B7
330
AC
100
AcDbEntity
  8
Defpoints
100
AcDbPoint
 10
0.0
 20
-110.0
 30
0.0
  0
POINT
  5
B8
330
AC
100
AcDbEntity
  8
Defpoints
100
AcDbPoint
 10
0.0
 20
-100.0
 30
0.0
  0
POINT
  5
B9
330
AC
100
AcDbEntity
  8
Defpoints
100
AcDbPoint
 10
120.0
 20
-100.0
 30
0.0
  0
ENDBLK
  5
AE
330
AC
100
AcDbEntity
  8
0
100
AcDbBlockEnd
  0
BLOCK
  5
BC
330
BB
100
AcDbEntity
  8
0
100
AcDbBlockBegin
  2
*D2
 70
1
 10
0.0
 20
0.0
 30
0.0
  3
*D2
  1

  0
LINE
  5
BE
330
BB
100
AcDbEntity
  8
0
100
AcDbLine
 10
-0.8
 20
-100.0
 30
0.0
 11
-13.0
 21
-100.0
 31
0.0
  0
LINE
  5
BF
330
BB
100
AcDbEntity
  8
0
100
AcDbLine
 10
-0.8
 20
-20.0
 30
0.0
 11
-13.0
 21
-20.0
 31
0.0
  0
INSERT
  5
C0
330
BB
100
AcDbEntity
  8
DIMS
100
AcDbBlockReference
  2
_ARCHTICK
 10
-12.0
 20
-100.0
 30
0.0
 41
1.5
 42
1.5
 50
270.0
  0
INSERT
  5
C2
330
BB
100
AcDbEntity
  8
DIMS
100
AcDbBlockReference
  2
_ARCHTICK
 10
-12.0
 20
-20.0
 30
0.0
 41
1.5
 42
1.5
 50
90.0
  0
LINE
  5
C4
330
BB
100
AcDbEntity
  8
0
100
AcDbLine
 10
-12.0
 20
-100.0
 30
0.0
 11
-12.0
 21
-20.0
 31
0.0
  0
MTEXT
  5
C5
330
BB
100
AcDbEntity
  8
DIMS
100
AcDbMText
 10
-13.85
 20
-60.0
 30
0.0
 40
2.5
 71
5
  1
8000
  7
OpenSansCondensed-Light
 50
90.0
  0
POINT
  5
C6
330
BB
100
AcDbEntity
  8
Defpoints
100
AcDbPoint
 10
-12.0
 20
-100.0
 30
0.0
  0
POINT
  5
C7
330
BB
100
AcDbEntity
  8
Defpoints
100
AcDbPoint
 10
0.0
 20
-100.0
 30
0.0
  0
POINT
  5
C8
330
BB
100
AcDbEntity
  8
Defpoints
100
AcDbPoint
 10
0.0
 20
-20.0
 30
0.0
  0
ENDBLK
  5
BD
330
BB
100
AcDbEntity
  8
0
100
AcDbBlockEnd
  0
BLOCK
  5
CB
330
CA
100
AcDbEntity
  8
0
100
AcDbBlockBegin
  2
*D3
 70
1
 10
0.0
 20
0.0
 30
0.0
  3
*D3
  1

  0
LINE
  5
CD
330
CA
100
AcDbEntity
  8
0
100
AcDbLine
 10
62.3
 20
-56.7
 30
0.0
 11
62.3
 21
-42.5
 31
0.0
  0
LINE
  5
CE
330
CA
100
AcDbEntity
  8
0
100
AcDbLine
 10
92.3
 20
-56.7
 30
0.0
 11
92.3
 21
-42.5
 31
0.0
  0
INSERT
  5
CF
330
CA
100
AcDbEntity
  8
DIMS
100
AcDbBlockReference
  2
_ARCHTICK
 10
62.3
 20
-43.5
 30
0.0
 41
1.5
 42
1.5
 50
180.0
  0
INSERT
  5
D1
330
CA
100
AcDbEntity
  8
DIMS
100
AcDbBlockReference
  2
_ARCHTICK
 10
92.3
 20
-43.5
 30
0.0
 41
1.5
 42
1.5
  0
LINE
  5
D3
330
CA
100
AcDbEntity
  8
0
100
AcDbLine
 10
62.3
 20
-43.5
 30
0.0
 11
92.3
 21
-43.5
 31
0.0
  0
MTEXT
  5
D4
330
CA
100
AcDbEntity
  8
DIMS
100
AcDbMText
 10
77.3
 20
-41.65
 30
0.0
 40
2.5
 71
5
  1
window 3000
  7
OpenSansCondensed-Light
  0
POINT
  5
D5
330
CA
100
AcDbEntity
  8
Defpoints
100
AcDbPoint
 10
62.3
 20
-43.5
 30
0.0
  0
POINT
  5
D6
330
CA
100
AcDbEntity
  8
Defpoints
100
AcDbPoint
 10
62.3
 20
-57.5
 30
0.0
  0
POINT
  5
D7
330
CA
100
AcDbEntity
  8
Defpoints
100
AcDbPoint
 10
92.3
 20
-57.5
 30
0.0
  0
ENDBLK
  5
CC
330
CA
100
AcDbEntity
  8
0
100
AcDbBlockEnd
  0
BLOCK
  5
DA
330
D9
100
AcDbEntity
  8
0
100
AcDbBlockBegin
  2
*D4
 70
1
 10
0.0
 20
0.0
 30
0.0
  3
*D4
  1

  0
LINE
  5
DC
330
D9
100
AcDbEntity
  8
0
100
AcDbLine
 10
0.0
 20
-58.3
 30
0.0
 11
0.0
 21
-72.5
 31
0.0
  0
LINE
  5
DD
330
D9
100
AcDbEntity
  8
0
100
AcDbLine
 10
77.3
 20
-58.3
 30
0.0
 11
77.3
 21
-72.5
 31
0.0
  0
INSERT
  5
DE
330
D9
100
AcDbEntity
  8
DIMS
100
AcDbBlockReference
  2
_ARCHTICK
 10
0.0
 20
-71.5
 30
0.0
 41
1.5
 42
1.5
 50
180.0
  0
INSERT
  5
E0
330
D9
100
AcDbEntity
  8
DIMS
100
AcDbBlockReference
  2
_ARCHTICK
 10
77.3
 20
-71.5
 30
0.0
 41
1.5
 42
1.5
  0
LINE
  5
E2
330
D9
100
AcDbEntity
  8
0
100
AcDbLine
 10
0.0
 20
-71.5
 30
0.0
 11
77.3
 21
-71.5
 31
0.0
  0
MTEXT
  5
E3
330
D9
100
AcDbEntity
  8
DIMS
100
AcDbMText
 10
38.65
 20
-69.65
 30
0.0
 40
2.5
 71
5
  1
window centre 7730
  7
OpenSansCondensed-Light
  0
POINT
  5
E4
330
D9
100
AcDbEntity
  8
Defpoints
100
AcDbPoint
 10
0.0
 20
-71.5
 30
0.0
  0
POINT
  5
E5
330
D9
100
AcDbEntity
  8
Defpoints
100
AcDbPoint
 10
0.0
 20
-57.5
 30
0.0
  0
POINT
  5
E6
330
D9
100
AcDbEntity
  8
Defpoints
100
AcDbPoint
 10
77.3
 20
-57.5
 30
0.0
  0
ENDBLK
  5
DB
330
D9
100
AcDbEntity
  8
0
100
AcDbBlockEnd
  0
BLOCK
  5
E9
330
E8
100
AcDbEntity
  8
0
100
AcDbBlockBegin
  2
*D5
 70
1
 10
0.0
 20
0.0
 30
0.0
  3
*D5
  1

  0
LINE
  5
EB
330
E8
100
AcDbEntity
  8
0
100
AcDbLine
 10
120.8
 20
-100.0
 30
0.0
 11
131.0
 21
-100.0
 31
0.0
  0
LINE
  5
EC
330
E8
100
AcDbEntity
  8
0
100
AcDbLine
 10
120.8
 20
-57.5
 30
0.0
 11
131.0
 21
-57.5
 31
0.0
  0
INSERT
  5
ED
330
E8
100
AcDbEntity
  8
DIMS
100
AcDbBlockReference
  2
_ARCHTICK
 10
130.0
 20
-100.0
 30
0.0
 41
1.5
 42
1.5
 50
270.0
  0
INSERT
  5
EF
330
E8
100
AcDbEntity
  8
DIMS
100
AcDbBlockReference
  2
_ARCHTICK
 10
130.0
 20
-57.5
 30
0.0
 41
1.5
 42
1.5
 50
90.0
  0
LINE
  5
F1
330
E8
100
AcDbEntity
  8
0
100
AcDbLine
 10
130.0
 20
-100.0
 30
0.0
 11
130.0
 21
-57.5
 31
0.0
  0
MTEXT
  5
F2
330
E8
100
AcDbEntity
  8
DIMS
100
AcDbMText
 10
127.15
 20
-78.75
 30
0.0
 40
2.5
 71
5
  1
window centre 4250
  7
OpenSansCondensed-Light
 50
90.0
  0
POINT
  5
F3
330
E8
100
AcDbEntity
  8
Defpoints
100
AcDbPoint
 10
130.0
 20
-100.0
 30
0.0
  0
POINT
  5
F4
330
E8
100
AcDbEntity
  8
Defpoints
100
AcDbPoint
 10
120.0
 20
-100.0
 30
0.0
  0
POINT
  5
F5
330
E8
100
AcDbEntity
  8
Defpoints
100
AcDbPoint
 10
120.0
 20
-57.5
 30
0.0
  0
ENDBLK
  5
EA
330
E8
100
AcDbEntity
  8
0
100
AcDbBlockEnd
  0
BLOCK
  5
F8
330
F7
100
AcDbEntity
  8
0
100
AcDbBlockBegin
  2
*D6
 70
1
 10
0.0
 20
0.0
 30
0.0
  3
*D6
  1

  0
LINE
  5
FA
330
F7
100
AcDbEntity
  8
0
100
AcDbLine
 10
0.0
 20
-85.8
 30
0.0
 11
0.0
 21
-107.0
 31
0.0
  0
LINE
  5
FB
330
F7
100
AcDbEntity
  8
0
100
AcDbLine
 10
25.0
 20
-85.8
 30
0.0
 11
25.0
 21
-107.0
 31
0.0
  0
INSERT
  5
FC
330
F7
100
AcDbEntity
  8
DIMS
100
AcDbBlockReference
  2
_ARCHTICK
 10
0.0
 20
-106.0
 30
0.0
 41
1.5
 42
1.5
 50
180.0
  0
INSERT
  5
FE
330
F7
100
AcDbEntity
  8
DIMS
100
AcDbBlockReference
  2
_ARCHTICK
 10
25.0
 20
-106.0
 30
0.0
 41
1.5
 42
1.5
  0
LINE
  5
100
330
F7
100
AcDbEntity
  8
0
100
AcDbLine
 10
0.0
 20
-106.0
 30
0.0
 11
25.0
 21
-106.0
 31
0.0
  0
MTEXT
  5
101
330
F7
100
AcDbEntity
  8
DIMS
100
AcDbMText
 10
12.5
 20
-103.15
 30
0.0
 40
2.5
 71
5
  1
button KO 2500
  7
OpenSansCondensed-Light
  0
POINT
  5
102
330
F7
100
AcDbEntity
  8
Defpoints
100
AcDbPoint
 10
0.0
 20
-106.0
 30
0.0
  0
POINT
  5
103
330
F7
100
AcDbEntity
  8
Defpoints
100
AcDbPoint
 10
0.0
 20
-85.0
 30
0.0
  0
POINT
  5
104
330
F7
100
AcDbEntity
  8
Defpoints
100
AcDbPoint
 10
25.0
 20
-85.0
 30
0.0
  0
ENDBLK
  5
F9
330
F7
100
AcDbEntity
  8
0
100
AcDbBlockEnd
  0
BLOCK
  5
124
330
123
100
AcDbEntity
  8
0
100
AcDbBlockBegin
  2
*D7
 70
1
 10
0.0
 20
0.0
 30
0.0
  3
*D7
  1

  0
LINE
  5
126
330
123
100
AcDbEntity
  8
0
100
AcDbLine
 10
120.8
 20
-223.0
 30
0.0
 11
131.0
 21
-223.0
 31
0.0
  0
LINE
  5
127
330
123
100
AcDbEntity
  8
0
100
AcDbLine
 10
120.8
 20
-220.0
 30
0.0
 11
131.0
 21
-220.0
 31
0.0
  0
INSERT
  5
128
330
123
100
AcDbEntity
  8
DIMS
100
AcDbBlockReference
  2
_ARCHTICK
 10
130.0
 20
-223.0
 30
0.0
 41
1.5
 42
1.5
 50
90.0
  0
INSERT
  5
12A
330
123
100
AcDbEntity
  8
DIMS
100
AcDbBlockReference
  2
_ARCHTICK
 10
130.0
 20
-220.0
 30
0.0
 41
1.5
 42
1.5
 50
270.0
  0
LINE
  5
12C
330
123
100
AcDbEntity
  8
0
100
AcDbLine
 10
130.0
 20
-223.0
 30
0.0
 11
130.0
 21
-220.0
 31
0.0
  0
MTEXT
  5
12D
330
123
100
AcDbEntity
  8
DIMS
100
AcDbMText
 10
127.15
 20
-221.5
 30
0.0
 40
2.5
 71
5
  1
lid 300
  7
OpenSansCondensed-Light
 50
90.0
  0
POINT
  5
12E
330
123
100
AcDbEntity
  8
Defpoints
100
AcDbPoint
 10
130.0
 20
-223.0
 30
0.0
  0
POINT
  5
12F
330
123
100
AcDbEntity
  8
Defpoints
100
AcDbPoint
 10
120.0
 20
-223.0
 30
0.0
  0
POINT
  5
130
330
123
100
AcDbEntity
  8
Defpoints
100
AcDbPoint
 10
120.0
 20
-220.0
 30
0.0
  0
ENDBLK
  5
125
330
123
100
AcDbEntity
  8
0
100
AcDbBlockEnd
  0
ENDSEC
  0
SECTION
  2
ENTITIES
  0
TEXT
  5
8F
330
17
100
AcDbEntity
  8
TEXT
100
AcDbText
 10
0.0
 20
0.0
 30
0.0
 40
5.0
  1
HazardLink gateway lid v8A (mm)
 11
0.0
 21
0.0
 31
0.0
100
AcDbText
  0
LWPOLYLINE
  5
90
330
17
100
AcDbEntity
  8
OUTLINE
100
AcDbPolyline
 90
37
 70
0
 10
-8.881784197001252e-16
 20
-25.0
 10
0.004758892090710454
 20
-24.781903063173317
 10
0.019026509541271608
 20
-24.564221286261713
 10
0.04277569313094709
 20
-24.347369038899743
 10
0.07596123493895934
 20
-24.131759111665346
 10
0.11851996440033208
 20
-23.91780193030948
 10
0.17037086855465766
 20
-23.705904774487394
 10
0.23141524625886412
 20
-23.49647100247863
 10
0.30153689607045653
 20
-23.289899283371653
 10
0.3806023374435652
 20
-23.08658283817455
 10
0.46846106481674976
 20
-22.886908691296497
 10
0.5649458341088902
 20
-22.69125693382483
 10
0.6698729810778055
 20
-22.5
 10
0.7830427709355705
 20
-22.313501958265874
 10
0.9042397785550405
 20
-22.132117818244765
 10
1.0332332985438235
 20
-21.9561928549564
 10
1.1697777844051087
 20
-21.786061951567305
 10
1.3136133159493788
 20
-21.622048961921706
 10
1.4644660940672614
 20
-21.464466094067262
 10
1.6220489619216978
 20
-21.313613315949382
 10
1.7860619515673029
 20
-21.169777784405113
 10
1.956192854956396
 20
-21.03323329854382
 10
2.132117818244769
 20
-20.904239778555038
 10
2.3135019582658796
 20
-20.783042770935566
 10
2.4999999999999987
 20
-20.669872981077802
 10
2.6912569338248296
 20
-20.564945834108897
 10
2.886908691296502
 20
-20.46846106481675
 10
3.08658283817455
 20
-20.380602337443563
 10
3.289899283371655
 20
-20.30153689607046
 10
3.496471002478633
 20
-20.231415246258862
 10
3.7059047744873954
 20
-20.170370868554656
 10
3.9178019303094844
 20
-20.118519964400335
 10
4.131759111665346
 20
-20.07596123493896
 10
4.347369038899741
 20
-20.04277569313095
 10
4.5642212862617075
 20
-20.019026509541277
 10
4.781903063173319
 20
-20.004758892090706
 10
4.999999999999999
 20
-20.0
  0
LINE
  5
91
330
17
100
AcDbEntity
  8
OUTLINE
100
AcDbLine
 10
115.0
 20
-20.0
 30
0.0
 11
4.999999999999999
 21
-20.0
 31
0.0
  0
LWPOLYLINE
  5
92
330
17
100
AcDbEntity
  8
OUTLINE
100
AcDbPolyline
 90
37
 70
0
 10
115.0
 20
-20.0
 10
115.21809693682668
 20
-20.004758892090706
 10
115.43577871373829
 20
-20.019026509541277
 10
115.65263096110026
 20
-20.04277569313095
 10
115.86824088833465
 20
-20.07596123493896
 10
116.0821980696905
 20
-20.118519964400335
 10
116.2940952255126
 20
-20.170370868554656
 10
116.50352899752136
 20
-20.231415246258862
 10
116.71010071662835
 20
-20.30153689607046
 10
116.91341716182545
 20
-20.380602337443563
 10
117.1130913087035
 20
-20.46846106481675
 10
117.30874306617517
 20
-20.564945834108897
 10
117.5
 20
-20.669872981077802
 10
117.68649804173413
 20
-20.783042770935566
 10
117.86788218175523
 20
-20.904239778555038
 10
118.0438071450436
 20
-21.03323329854382
 10
118.2139380484327
 20
-21.169777784405113
 10
118.3779510380783
 20
-21.313613315949382
 10
118.53553390593274
 20
-21.464466094067262
 10
118.68638668405062
 20
-21.622048961921692
 10
118.83022221559489
 20
-21.786061951567305
 10
118.96676670145618
 20
-21.9561928549564
 10
119.09576022144496
 20
-22.132117818244765
 10
119.21695722906443
 20
-22.313501958265874
 10
119.3301270189222
 20
-22.5
 10
119.4350541658911
 20
-22.69125693382483
 10
119.53153893518325
 20
-22.886908691296497
 10
119.61939766255644
 20
-23.08658283817455
 10
119.69846310392954
 20
-23.289899283371653
 10
119.76858475374114
 20
-23.49647100247863
 10
119.82962913144534
 20
-23.705904774487394
 10
119.88148003559967
 20
-23.91780193030948
 10
119.92403876506104
 20
-24.131759111665346
 10
119.95722430686905
 20
-24.347369038899743
 10
119.98097349045872
 20
-24.564221286261713
 10
119.9952411079093
 20
-24.781903063173317
 10
120.0
 20
-25.0
  0
LINE
  5
93
330
17
100
AcDbEntity
  8
OUTLINE
100
AcDbLine
 10
120.0
 20
-95.0
 30
0.0
 11
120.0
 21
-25.0
 31
0.0
  0
LWPOLYLINE
  5
94
330
17
100
AcDbEntity
  8
OUTLINE
100
AcDbPolyline
 90
37
 70
0
 10
120.0
 20
-95.0
 10
119.9952411079093
 20
-95.21809693682668
 10
119.98097349045872
 20
-95.43577871373829
 10
119.95722430686905
 20
-95.65263096110026
 10
119.92403876506104
 20
-95.86824088833465
 10
119.88148003559967
 20
-96.08219806969052
 10
119.82962913144534
 20
-96.2940952255126
 10
119.76858475374114
 20
-96.50352899752137
 10
119.69846310392954
 20
-96.71010071662835
 10
119.61939766255644
 20
-96.91341716182545
 10
119.53153893518325
 20
-97.1130913087035
 10
119.4350541658911
 20
-97.30874306617517
 10
119.3301270189222
 20
-97.5
 10
119.21695722906443
 20
-97.68649804173413
 10
119.09576022144496
 20
-97.86788218175523
 10
118.96676670145618
 20
-98.0438071450436
 10
118.83022221559489
 20
-98.2139380484327
 10
118.68638668405062
 20
-98.37795103807831
 10
118.53553390593274
 20
-98.53553390593274
 10
118.37795103807831
 20
-98.68638668405062
 10
118.2139380484327
 20
-98.83022221559489
 10
118.0438071450436
 20
-98.96676670145618
 10
117.86788218175523
 20
-99.09576022144496
 10
117.68649804173413
 20
-99.21695722906443
 10
117.5
 20
-99.3301270189222
 10
117.30874306617517
 20
-99.4350541658911
 10
117.1130913087035
 20
-99.53153893518325
 10
116.91341716182545
 20
-99.61939766255644
 10
116.71010071662835
 20
-99.69846310392954
 10
116.50352899752137
 20
-99.76858475374114
 10
116.2940952255126
 20
-99.82962913144534
 10
116.08219806969052
 20
-99.88148003559967
 10
115.86824088833465
 20
-99.92403876506104
 10
115.65263096110026
 20
-99.95722430686905
 10
115.43577871373829
 20
-99.98097349045872
 10
115.21809693682668
 20
-99.9952411079093
 10
115.0
 20
-100.0
  0
LINE
  5
95
330
17
100
AcDbEntity
  8
OUTLINE
100
AcDbLine
 10
4.999999999999999
 20
-100.0
 30
0.0
 11
115.0
 21
-100.0
 31
0.0
  0
LWPOLYLINE
  5
96
330
17
100
AcDbEntity
  8
OUTLINE
100
AcDbPolyline
 90
37
 70
0
 10
5.0
 20
-100.0
 10
4.781903063173321
 20
-99.9952411079093
 10
4.564221286261709
 20
-99.98097349045872
 10
4.347369038899743
 20
-99.95722430686905
 10
4.13175911166535
 20
-99.92403876506104
 10
3.917801930309487
 20
-99.88148003559967
 10
3.7059047744873976
 20
-99.82962913144534
 10
3.496471002478636
 20
-99.76858475374114
 10
3.2898992833716583
 20
-99.69846310392954
 10
3.0865828381745493
 20
-99.61939766255644
 10
2.886908691296501
 20
-99.53153893518325
 10
2.6912569338248287
 20
-99.4350541658911
 10
2.4999999999999987
 20
-99.3301270189222
 10
2.3135019582658796
 20
-99.21695722906443
 10
2.132117818244769
 20
-99.09576022144496
 10
1.956192854956396
 20
-98.96676670145618
 10
1.7860619515673029
 20
-98.83022221559489
 10
1.6220489619216982
 20
-98.68638668405062
 10
1.4644660940672622
 20
-98.53553390593274
 10
1.3136133159493797
 20
-98.37795103807831
 10
1.16977778440511
 20
-98.2139380484327
 10
1.0332332985438244
 20
-98.0438071450436
 10
0.9042397785550413
 20
-97.86788218175523
 10
0.7830427709355714
 20
-97.68649804173413
 10
0.6698729810778072
 20
-97.5
 10
0.564945834108892
 20
-97.30874306617517
 10
0.4684610648167489
 20
-97.1130913087035
 10
0.380602337443567
 20
-96.91341716182545
 10
0.30153689607045653
 20
-96.71010071662835
 10
0.2314152462588659
 20
-96.50352899752137
 10
0.17037086855465766
 20
-96.2940952255126
 10
0.11851996440033208
 20
-96.08219806969052
 10
0.07596123493895934
 20
-95.86824088833465
 10
0.04277569313094709
 20
-95.65263096110026
 10
0.019026509541271608
 20
-95.43577871373829
 10
0.004758892090710454
 20
-95.21809693682668
 10
-8.881784197001252e-16
 20
-95.0
  0
LINE
  5
97
330
17
100
AcDbEntity
  8
OUTLINE
100
AcDbLine
 10
-8.881784197001252e-16
 20
-25.0
 30
0.0
 11
-8.881784197001252e-16
 21
-95.0
 31
0.0
  0
LWPOLYLINE
  5
98
330
17
100
AcDbEntity
  8
OUTLINE
100
AcDbPolyline
 90
37
 70
0
 10
5.5
 20
-23.57941176470588
 10
5.833506647107369
 20
-23.608589815538323
 10
6.156879863504887
 20
-23.695237407725884
 10
6.4602941176470585
 20
-23.836721798025764
 10
6.734530320956795
 20
-24.028744054833254
 10
6.971255945166743
 20
-24.265469679043207
 10
7.163278201974231
 20
-24.539705882352948
 10
7.304762592274113
 20
-24.843120136495116
 10
7.391410184461682
 20
-25.16649335289263
 10
7.420588235294118
 20
-25.5
 10
7.391410184461682
 20
-25.83350664710737
 10
7.304762592274113
 20
-26.156879863504884
 10
7.163278201974231
 20
-26.460294117647052
 10
6.971255945166743
 20
-26.734530320956793
 10
6.734530320956795
 20
-26.971255945166746
 10
6.4602941176470585
 20
-27.163278201974236
 10
6.156879863504889
 20
-27.304762592274116
 10
5.83350664710737
 20
-27.391410184461677
 10
5.5
 20
-27.42058823529412
 10
5.166493352892631
 20
-27.391410184461677
 10
4.843120136495112
 20
-27.304762592274116
 10
4.539705882352941
 20
-27.163278201974236
 10
4.265469679043205
 20
-26.971255945166746
 10
4.028744054833258
 20
-26.734530320956793
 10
3.8367217980257697
 20
-26.460294117647067
 10
3.6952374077258883
 20
-26.156879863504884
 10
3.608589815538318
 20
-25.83350664710737
 10
3.579411764705882
 20
-25.5
 10
3.608589815538318
 20
-25.16649335289263
 10
3.695237407725888
 20
-24.843120136495116
 10
3.8367217980257693
 20
-24.539705882352948
 10
4.028744054833258
 20
-24.265469679043207
 10
4.265469679043203
 20
-24.028744054833254
 10
4.539705882352941
 20
-23.836721798025764
 10
4.843120136495111
 20
-23.695237407725884
 10
5.166493352892631
 20
-23.608589815538323
 10
5.499999999999999
 20
-23.57941176470588
  0
LINE
  5
99
330
17
100
AcDbEntity
  8
OUTLINE
100
AcDbLine
 10
46.7
 20
-46.300000000000004
 30
0.0
 11
57.5
 21
-46.300000000000004
 31
0.0
  0
LINE
  5
9A
330
17
100
AcDbEntity
  8
OUTLINE
100
AcDbLine
 10
46.7
 20
-53.9
 30
0.0
 11
46.7
 21
-46.300000000000004
 31
0.0
  0
LINE
  5
9B
330
17
100
AcDbEntity
  8
OUTLINE
100
AcDbLine
 10
57.5
 20
-53.9
 30
0.0
 11
46.7
 21
-53.9
 31
0.0
  0
LINE
  5
9C
330
17
100
AcDbEntity
  8
OUTLINE
100
AcDbLine
 10
57.5
 20
-46.300000000000004
 30
0.0
 11
57.5
 21
-53.9
 31
0.0
  0
LWPOLYLINE
  5
9D
330
17
100
AcDbEntity
  8
OUTLINE
100
AcDbPolyline
 90
37
 70
0
 10
5.5
 20
-92.57941176470588
 10
5.833506647107369
 20
-92.60858981553832
 10
6.156879863504887
 20
-92.69523740772588
 10
6.4602941176470585
 20
-92.83672179802576
 10
6.734530320956795
 20
-93.02874405483325
 10
6.971255945166743
 20
-93.2654696790432
 10
7.163278201974231
 20
-93.53970588235293
 10
7.304762592274113
 20
-93.84312013649512
 10
7.391410184461682
 20
-94.16649335289263
 10
7.420588235294118
 20
-94.5
 10
7.391410184461682
 20
-94.83350664710737
 10
7.304762592274113
 20
-95.15687986350488
 10
7.163278201974231
 20
-95.46029411764705
 10
6.971255945166743
 20
-95.7345303209568
 10
6.734530320956795
 20
-95.97125594516675
 10
6.4602941176470585
 20
-96.16327820197424
 10
6.156879863504889
 20
-96.30476259227412
 10
5.83350664710737
 20
-96.39141018446168
 10
5.5
 20
-96.42058823529412
 10
5.166493352892631
 20
-96.39141018446168
 10
4.843120136495112
 20
-96.30476259227412
 10
4.539705882352941
 20
-96.16327820197424
 10
4.265469679043205
 20
-95.97125594516675
 10
4.028744054833258
 20
-95.7345303209568
 10
3.8367217980257697
 20
-95.46029411764707
 10
3.6952374077258883
 20
-95.15687986350488
 10
3.608589815538318
 20
-94.83350664710737
 10
3.579411764705882
 20
-94.5
 10
3.608589815538318
 20
-94.16649335289263
 10
3.695237407725888
 20
-93.84312013649512
 10
3.8367217980257693
 20
-93.53970588235293
 10
4.028744054833258
 20
-93.2654696790432
 10
4.265469679043203
 20
-93.02874405483325
 10
4.539705882352941
 20
-92.83672179802576
 10
4.843120136495111
 20
-92.69523740772588
 10
5.166493352892631
 20
-92.60858981553832
 10
5.499999999999999
 20
-92.57941176470588
  0
LWPOLYLINE
  5
9E
330
17
100
AcDbEntity
  8
OUTLINE
100
AcDbPolyline
 90
37
 70
0
 10
25.0
 20
-78.75
 10
26.085301110418314
 20
-78.8449515436737
 10
27.13762589578543
 20
-79.12692112008807
 10
28.125
 20
-79.58734122634726
 10
29.017422560540872
 20
-80.21222223050638
 10
29.787777769493612
 20
-80.98257743945913
 10
30.41265877365274
 20
-81.875
 10
30.873078879911926
 20
-82.86237410421457
 10
31.155048456326302
 20
-83.91469888958169
 10
31.25
 20
-85.0
 10
31.1550484563263
 20
-86.08530111041831
 10
30.873078879911926
 20
-87.13762589578543
 10
30.412658773652744
 20
-88.125
 10
29.787777769493612
 20
-89.01742256054087
 10
29.017422560540872
 20
-89.78777776949362
 10
28.125
 20
-90.41265877365274
 10
27.137625895785426
 20
-90.87307887991193
 10
26.085301110418317
 20
-91.1550484563263
 10
25.0
 20
-91.25
 10
23.914698889581686
 20
-91.1550484563263
 10
22.86237410421457
 20
-90.87307887991193
 10
21.875
 20
-90.41265877365274
 10
20.982577439459128
 20
-89.78777776949362
 10
20.212222230506388
 20
-89.01742256054087
 10
19.58734122634726
 20
-88.125
 10
19.12692112008807
 20
-87.13762589578543
 10
18.8449515436737
 20
-86.08530111041831
 10
18.75
 20
-85.0
 10
18.844951543673698
 20
-83.91469888958169
 10
19.126921120088074
 20
-82.86237410421457
 10
19.58734122634726
 20
-81.875
 10
20.21222223050639
 20
-80.98257743945912
 10
20.98257743945913
 20
-80.21222223050638
 10
21.875000000000004
 20
-79.58734122634726
 10
22.862374104214567
 20
-79.12692112008807
 10
23.914698889581686
 20
-78.8449515436737
 10
25.0
 20
-78.75
  0
LWPOLYLINE
  5
9F
330
17
100
AcDbEntity
  8
OUTLINE
100
AcDbPolyline
 90
37
 70
0
 10
49.4
 20
-64.9
 10
49.57364817766693
 20
-64.9151922469878
 10
49.74202014332567
 20
-64.9603073792141
 10
49.9
 20
-65.03397459621556
 10
50.042787609686535
 20
-65.13395555688102
 10
50.16604444311898
 20
-65.25721239031347
 10
50.26602540378444
 20
-65.4
 10
50.339692620785904
 20
-65.55797985667434
 10
50.384807753012204
 20
-65.72635182233307
 10
50.4
 20
-65.9
 10
50.384807753012204
 20
-66.07364817766694
 10
50.339692620785904
 20
-66.24202014332568
 10
50.26602540378444
 20
-66.4
 10
50.16604444311898
 20
-66.54278760968654
 10
50.042787609686535
 20
-66.66604444311898
 10
49.9
 20
-66.76602540378444
 10
49.74202014332567
 20
-66.83969262078591
 10
49.57364817766693
 20
-66.88480775301221
 10
49.4
 20
-66.9
 10
49.226351822333065
 20
-66.88480775301221
 10
49.05797985667433
 20
-66.83969262078591
 10
48.9
 20
-66.76602540378444
 10
48.75721239031346
 20
-66.66604444311898
 10
48.63395555688102
 20
-66.54278760968654
 10
48.53397459621556
 20
-66.4
 10
48.46030737921409
 20
-66.24202014332568
 10
48.41519224698779
 20
-66.07364817766694
 10
48.4
 20
-65.9
 10
48.41519224698779
 20
-65.72635182233307
 10
48.46030737921409
 20
-65.55797985667434
 10
48.53397459621556
 20
-65.4
 10
48.63395555688102
 20
-65.25721239031347
 10
48.75721239031346
 20
-65.13395555688102
 10
48.9
 20
-65.03397459621556
 10
49.05797985667433
 20
-64.9603073792141
 10
49.226351822333065
 20
-64.9151922469878
 10
49.4
 20
-64.9
  0
LWPOLYLINE
  5
A0
330
17
100
AcDbEntity
  8
OUTLINE
100
AcDbPolyline
 90
37
 70
0
 10
54.1
 20
-64.5
 10
54.360472266500395
 20
-64.52278837048169
 10
54.613030214988505
 20
-64.59046106882113
 10
54.85
 20
-64.70096189432334
 10
55.06418141452981
 20
-64.85093333532154
 10
55.249066664678466
 20
-65.0358185854702
 10
55.39903810567666
 20
-65.25
 10
55.50953893117887
 20
-65.4869697850115
 10
55.57721162951832
 20
-65.73952773349961
 10
55.6
 20
-66.0
 10
55.57721162951832
 20
-66.26047226650039
 10
55.50953893117887
 20
-66.5130302149885
 10
55.39903810567666
 20
-66.75
 10
55.249066664678466
 20
-66.9641814145298
 10
55.06418141452981
 20
-67.14906666467846
 10
54.85
 20
-67.29903810567666
 10
54.613030214988505
 20
-67.40953893117887
 10
54.360472266500395
 20
-67.47721162951831
 10
54.1
 20
-67.5
 10
53.83952773349961
 20
-67.47721162951831
 10
53.5869697850115
 20
-67.40953893117887
 10
53.35
 20
-67.29903810567666
 10
53.13581858547019
 20
-67.14906666467846
 10
52.95093333532154
 20
-66.9641814145298
 10
52.80096189432334
 20
-66.75
 10
52.690461068821136
 20
-66.5130302149885
 10
52.622788370481686
 20
-66.26047226650039
 10
52.6
 20
-66.0
 10
52.622788370481686
 20
-65.73952773349961
 10
52.690461068821136
 20
-65.4869697850115
 10
52.80096189432334
 20
-65.25
 10
52.95093333532154
 20
-65.0358185854702
 10
53.13581858547019
 20
-64.85093333532154
 10
53.35
 20
-64.70096189432334
 10
53.5869697850115
 20
-64.59046106882113
 10
53.83952773349961
 20
-64.52278837048169
 10
54.1
 20
-64.5
  0
LWPOLYLINE
  5
A1
330
17
100
AcDbEntity
  8
OUTLINE
100
AcDbPolyline
 90
37
 70
0
 10
60.0
 20
-23.57941176470588
 10
60.33350664710737
 20
-23.608589815538323
 10
60.656879863504884
 20
-23.695237407725884
 10
60.96029411764706
 20
-23.836721798025764
 10
61.23453032095679
 20
-24.028744054833254
 10
61.471255945166746
 20
-24.265469679043207
 10
61.66327820197423
 20
-24.539705882352948
 10
61.80476259227411
 20
-24.843120136495116
 10
61.891410184461684
 20
-25.16649335289263
 10
61.92058823529412
 20
-25.5
 10
61.891410184461684
 20
-25.83350664710737
 10
61.80476259227411
 20
-26.156879863504884
 10
61.66327820197423
 20
-26.460294117647052
 10
61.471255945166746
 20
-26.734530320956793
 10
61.23453032095679
 20
-26.971255945166746
 10
60.96029411764706
 20
-27.163278201974236
 10
60.65687986350489
 20
-27.304762592274116
 10
60.33350664710737
 20
-27.391410184461677
 10
60.0
 20
-27.42058823529412
 10
59.66649335289263
 20
-27.391410184461677
 10
59.34312013649511
 20
-27.304762592274116
 10
59.03970588235294
 20
-27.163278201974236
 10
58.76546967904321
 20
-26.971255945166746
 10
58.528744054833254
 20
-26.734530320956793
 10
58.33672179802577
 20
-26.460294117647067
 10
58.19523740772589
 20
-26.156879863504884
 10
58.108589815538316
 20
-25.83350664710737
 10
58.07941176470588
 20
-25.5
 10
58.108589815538316
 20
-25.16649335289263
 10
58.19523740772589
 20
-24.843120136495116
 10
58.33672179802577
 20
-24.539705882352948
 10
58.52874405483326
 20
-24.265469679043207
 10
58.76546967904321
 20
-24.028744054833254
 10
59.03970588235294
 20
-23.836721798025764
 10
59.34312013649511
 20
-23.695237407725884
 10
59.66649335289263
 20
-23.608589815538323
 10
60.0
 20
-23.57941176470588
  0
LINE
  5
A2
330
17
100
AcDbEntity
  8
OUTLINE
100
AcDbLine
 10
62.3
 20
-49.5
 30
0.0
 11
92.3
 21
-49.5
 31
0.0
  0
LINE
  5
A3
330
17
100
AcDbEntity
  8
OUTLINE
100
AcDbLine
 10
62.3
 20
-65.5
 30
0.0
 11
62.3
 21
-49.5
 31
0.0
  0
LINE
  5
A4
330
17
100
AcDbEntity
  8
OUTLINE
100
AcDbLine
 10
92.3
 20
-65.5
 30
0.0
 11
62.3
 21
-65.5
 31
0.0
  0
LINE
  5
A5
330
17
100
AcDbEntity
  8
OUTLINE
100
AcDbLine
 10
92.3
 20
-49.5
 30
0.0
 11
92.3
 21
-65.5
 31
0.0
  0
LWPOLYLINE
  5
A6
330
17
100
AcDbEntity
  8
OUTLINE
100
AcDbPolyline
 90
37
 70
0
 10
114.5
 20
-23.57941176470588
 10
114.83350664710737
 20
-23.608589815538323
 10
115.15687986350488
 20
-23.695237407725884
 10
115.46029411764705
 20
-23.836721798025764
 10
115.7345303209568
 20
-24.028744054833254
 10
115.97125594516675
 20
-24.265469679043207
 10
116.16327820197424
 20
-24.539705882352948
 10
116.30476259227412
 20
-24.843120136495116
 10
116.39141018446168
 20
-25.16649335289263
 10
116.42058823529412
 20
-25.5
 10
116.39141018446168
 20
-25.83350664710737
 10
116.30476259227412
 20
-26.156879863504884
 10
116.16327820197424
 20
-26.460294117647052
 10
115.97125594516675
 20
-26.734530320956793
 10
115.7345303209568
 20
-26.971255945166746
 10
115.46029411764705
 20
-27.163278201974236
 10
115.15687986350488
 20
-27.304762592274116
 10
114.83350664710737
 20
-27.391410184461677
 10
114.5
 20
-27.42058823529412
 10
114.16649335289263
 20
-27.391410184461677
 10
113.84312013649512
 20
-27.304762592274116
 10
113.53970588235295
 20
-27.163278201974236
 10
113.2654696790432
 20
-26.971255945166746
 10
113.02874405483325
 20
-26.734530320956793
 10
112.83672179802576
 20
-26.460294117647067
 10
112.69523740772588
 20
-26.156879863504884
 10
112.60858981553832
 20
-25.83350664710737
 10
112.57941176470588
 20
-25.5
 10
112.60858981553832
 20
-25.16649335289263
 10
112.69523740772588
 20
-24.843120136495116
 10
112.83672179802576
 20
-24.539705882352948
 10
113.02874405483325
 20
-24.265469679043207
 10
113.2654696790432
 20
-24.028744054833254
 10
113.53970588235293
 20
-23.836721798025764
 10
113.84312013649512
 20
-23.695237407725884
 10
114.16649335289263
 20
-23.608589815538323
 10
114.5
 20
-23.57941176470588
  0
LWPOLYLINE
  5
A7
330
17
100
AcDbEntity
  8
OUTLINE
100
AcDbPolyline
 90
37
 70
0
 10
60.0
 20
-92.57941176470588
 10
60.33350664710737
 20
-92.60858981553832
 10
60.656879863504884
 20
-92.69523740772588
 10
60.96029411764706
 20
-92.83672179802576
 10
61.23453032095679
 20
-93.02874405483325
 10
61.471255945166746
 20
-93.2654696790432
 10
61.66327820197423
 20
-93.53970588235293
 10
61.80476259227411
 20
-93.84312013649512
 10
61.891410184461684
 20
-94.16649335289263
 10
61.92058823529412
 20
-94.5
 10
61.891410184461684
 20
-94.83350664710737
 10
61.80476259227411
 20
-95.15687986350488
 10
61.66327820197423
 20
-95.46029411764705
 10
61.471255945166746
 20
-95.7345303209568
 10
61.23453032095679
 20
-95.97125594516675
 10
60.96029411764706
 20
-96.16327820197424
 10
60.65687986350489
 20
-96.30476259227412
 10
60.33350664710737
 20
-96.39141018446168
 10
60.0
 20
-96.42058823529412
 10
59.66649335289263
 20
-96.39141018446168
 10
59.34312013649511
 20
-96.30476259227412
 10
59.03970588235294
 20
-96.16327820197424
 10
58.76546967904321
 20
-95.97125594516675
 10
58.528744054833254
 20
-95.7345303209568
 10
58.33672179802577
 20
-95.46029411764707
 10
58.19523740772589
 20
-95.15687986350488
 10
58.108589815538316
 20
-94.83350664710737
 10
58.07941176470588
 20
-94.5
 10
58.108589815538316
 20
-94.16649335289263
 10
58.19523740772589
 20
-93.84312013649512
 10
58.33672179802577
 20
-93.53970588235293
 10
58.52874405483326
 20
-93.2654696790432
 10
58.76546967904321
 20
-93.02874405483325
 10
59.03970588235294
 20
-92.83672179802576
 10
59.34312013649511
 20
-92.69523740772588
 10
59.66649335289263
 20
-92.60858981553832
 10
60.0
 20
-92.57941176470588
  0
LWPOLYLINE
  5
A8
330
17
100
AcDbEntity
  8
OUTLINE
100
AcDbPolyline
 90
37
 70
0
 10
114.5
 20
-92.57941176470588
 10
114.83350664710737
 20
-92.60858981553832
 10
115.15687986350488
 20
-92.69523740772588
 10
115.46029411764705
 20
-92.83672179802576
 10
115.7345303209568
 20
-93.02874405483325
 10
115.97125594516675
 20
-93.2654696790432
 10
116.16327820197424
 20
-93.53970588235293
 10
116.30476259227412
 20
-93.84312013649512
 10
116.39141018446168
 20
-94.16649335289263
 10
116.42058823529412
 20
-94.5
 10
116.39141018446168
 20
-94.83350664710737
 10
116.30476259227412
 20
-95.15687986350488
 10
116.16327820197424
 20
-95.46029411764705
 10
115.97125594516675
 20
-95.7345303209568
 10
115.7345303209568
 20
-95.97125594516675
 10
115.46029411764705
 20
-96.16327820197424
 10
115.15687986350488
 20
-96.30476259227412
 10
114.83350664710737
 20
-96.39141018446168
 10
114.5
 20
-96.42058823529412
 10
114.16649335289263
 20
-96.39141018446168
 10
113.84312013649512
 20
-96.30476259227412
 10
113.53970588235295
 20
-96.16327820197424
 10
113.2654696790432
 20
-95.97125594516675
 10
113.02874405483325
 20
-95.7345303209568
 10
112.83672179802576
 20
-95.46029411764707
 10
112.69523740772588
 20
-95.15687986350488
 10
112.60858981553832
 20
-94.83350664710737
 10
112.57941176470588
 20
-94.5
 10
112.60858981553832
 20
-94.16649335289263
 10
112.69523740772588
 20
-93.84312013649512
 10
112.83672179802576
 20
-93.53970588235293
 10
113.02874405483325
 20
-93.2654696790432
 10
113.2654696790432
 20
-93.02874405483325
 10
113.53970588235293
 20
-92.83672179802576
 10
113.84312013649512
 20
-92.69523740772588
 10
114.16649335289263
 20
-92.60858981553832
 10
114.5
 20
-92.57941176470588
  0
LWPOLYLINE
  5
A9
330
17
100
AcDbEntity
  8
OUTLINE
100
AcDbPolyline
 90
37
 70
0
 10
49.4
 20
-48.85
 10
49.61706022208366
 20
-48.868990308734745
 10
49.827525179157085
 20
-48.92538422401761
 10
50.025
 20
-49.017468245269455
 10
50.203484512108176
 20
-49.14244444610128
 10
50.35755555389872
 20
-49.296515487891824
 10
50.482531754730545
 20
-49.475
 10
50.57461577598239
 20
-49.672474820842915
 10
50.631009691265255
 20
-49.88293977791634
 10
50.65
 20
-50.1
 10
50.631009691265255
 20
-50.31706022208366
 10
50.57461577598239
 20
-50.52752517915709
 10
50.482531754730545
 20
-50.725
 10
50.35755555389872
 20
-50.90348451210818
 10
50.203484512108176
 20
-51.05755555389872
 10
50.025
 20
-51.18253175473055
 10
49.827525179157085
 20
-51.27461577598238
 10
49.61706022208366
 20
-51.33100969126526
 10
49.4
 20
-51.35
 10
49.18293977791634
 20
-51.33100969126526
 10
48.97247482084291
 20
-51.27461577598238
 10
48.775
 20
-51.18253175473055
 10
48.59651548789182
 20
-51.05755555389872
 10
48.44244444610128
 20
-50.90348451210818
 10
48.31746824526945
 20
-50.725
 10
48.22538422401761
 20
-50.52752517915709
 10
48.16899030873474
 20
-50.31706022208366
 10
48.15
 20
-50.1
 10
48.16899030873474
 20
-49.88293977791634
 10
48.22538422401761
 20
-49.672474820842915
 10
48.31746824526945
 20
-49.475
 10
48.44244444610128
 20
-49.296515487891824
 10
48.59651548789182
 20
-49.14244444610128
 10
48.775
 20
-49.017468245269455
 10
48.97247482084291
 20
-48.92538422401762
 10
49.18293977791634
 20
-48.868990308734745
 10
49.4
 20
-48.85
  0
TEXT
  5
AA
330
17
100
AcDbEntity
  8
TEXT
100
AcDbText
 10
0.0
 20
-108.0
 30
0.0
 40
2.8
  1
FRONT SECTION at Y=-1.5: window, screw holes, PRG tab groove, button knock-out
 11
0.0
 21
-108.0
 31
0.0
100
AcDbText
  0
DIMENSION
  5
AB
330
17
100
AcDbEntity
  8
DIMS
100
AcDbDimension
280
0
  2
*D1
  3
EZDXF
 10
0.0
 20
-110.0
 30
0.0
 11
60.0
 21
-108.15
 31
0.0
 70
32
 71
5
  1
<>
100
AcDbAlignedDimension
 13
0.0
 23
-100.0
 33
0.0
 14
120.0
 24
-100.0
 34
0.0
 50
0.0
100
AcDbRotatedDimension
1001
ACAD
1000
DSTYLE
1002
{
1070
140
1040
2.5
1070
41
1040
1.5
1070
42
1040
0.8
1070
44
1040
1.0
1070
147
1040
0.6
1070
271
1070
1
1002
}
  0
DIMENSION
  5
BA
330
17
100
AcDbEntity
  8
DIMS
100
AcDbDimension
280
0
  2
*D2
  3
EZDXF
 10
-12.0
 20
-100.0
 30
0.0
 11
-13.85
 21
-60.0
 31
0.0
 70
32
 71
5
  1
<>
100
AcDbAlignedDimension
 13
0.0
 23
-100.0
 33
0.0
 14
0.0
 24
-20.0
 34
0.0
 50
90.0
100
AcDbRotatedDimension
1001
ACAD
1000
DSTYLE
1002
{
1070
140
1040
2.5
1070
41
1040
1.5
1070
42
1040
0.8
1070
44
1040
1.0
1070
147
1040
0.6
1070
271
1070
1
1002
}
  0
DIMENSION
  5
C9
330
17
100
AcDbEntity
  8
DIMS
100
AcDbDimension
280
0
  2
*D3
  3
EZDXF
 10
62.3
 20
-43.5
 30
0.0
 11
77.3
 21
-41.65
 31
0.0
 70
32
 71
5
  1
window <>
100
AcDbAlignedDimension
 13
62.3
 23
-57.5
 33
0.0
 14
92.3
 24
-57.5
 34
0.0
 50
0.0
100
AcDbRotatedDimension
1001
ACAD
1000
DSTYLE
1002
{
1070
140
1040
2.5
1070
41
1040
1.5
1070
42
1040
0.8
1070
44
1040
1.0
1070
147
1040
0.6
1070
271
1070
1
1002
}
  0
DIMENSION
  5
D8
330
17
100
AcDbEntity
  8
DIMS
100
AcDbDimension
280
0
  2
*D4
  3
EZDXF
 10
0.0
 20
-71.5
 30
0.0
 11
38.65
 21
-69.65
 31
0.0
 70
32
 71
5
  1
window centre <>
100
AcDbAlignedDimension
 13
0.0
 23
-57.5
 33
0.0
 14
77.3
 24
-57.5
 34
0.0
 50
0.0
100
AcDbRotatedDimension
1001
ACAD
1000
DSTYLE
1002
{
1070
140
1040
2.5
1070
41
1040
1.5
1070
42
1040
0.8
1070
44
1040
1.0
1070
147
1040
0.6
1070
271
1070
1
1002
}
  0
DIMENSION
  5
E7
330
17
100
AcDbEntity
  8
DIMS
100
AcDbDimension
280
0
  2
*D5
  3
EZDXF
 10
130.0
 20
-100.0
 30
0.0
 11
127.15
 21
-78.75
 31
0.0
 70
32
 71
5
  1
window centre <>
100
AcDbAlignedDimension
 13
120.0
 23
-100.0
 33
0.0
 14
120.0
 24
-57.5
 34
0.0
 50
90.0
100
AcDbRotatedDimension
1001
ACAD
1000
DSTYLE
1002
{
1070
140
1040
2.5
1070
41
1040
1.5
1070
42
1040
0.8
1070
44
1040
1.0
1070
147
1040
0.6
1070
271
1070
1
1002
}
  0
DIMENSION
  5
F6
330
17
100
AcDbEntity
  8
DIMS
100
AcDbDimension
280
0
  2
*D6
  3
EZDXF
 10
0.0
 20
-106.0
 30
0.0
 11
12.5
 21
-103.15
 31
0.0
 70
32
 71
5
  1
button KO <>
100
AcDbAlignedDimension
 13
0.0
 23
-85.0
 33
0.0
 14
25.0
 24
-85.0
 34
0.0
 50
0.0
100
AcDbRotatedDimension
1001
ACAD
1000
DSTYLE
1002
{
1070
140
1040
2.5
1070
41
1040
1.5
1070
42
1040
0.8
1070
44
1040
1.0
1070
147
1040
0.6
1070
271
1070
1
1002
}
  0
LINE
  5
105
330
17
100
AcDbEntity
  8
OUTLINE
100
AcDbLine
 10
59.3
 20
-220.0
 30
0.0
 11
0.0
 21
-220.0
 31
0.0
  0
LINE
  5
106
330
17
100
AcDbEntity
  8
OUTLINE
100
AcDbLine
 10
59.3
 20
-220.6
 30
0.0
 11
59.3
 21
-220.0
 31
0.0
  0
LINE
  5
107
330
17
100
AcDbEntity
  8
OUTLINE
100
AcDbLine
 10
59.9
 20
-220.6
 30
0.0
 11
59.3
 21
-220.6
 31
0.0
  0
LINE
  5
108
330
17
100
AcDbEntity
  8
OUTLINE
100
AcDbLine
 10
59.9
 20
-219.9
 30
0.0
 11
59.9
 21
-220.6
 31
0.0
  0
LINE
  5
109
330
17
100
AcDbEntity
  8
OUTLINE
100
AcDbLine
 10
59.3
 20
-219.9
 30
0.0
 11
59.9
 21
-219.9
 31
0.0
  0
LINE
  5
10A
330
17
100
AcDbEntity
  8
OUTLINE
100
AcDbLine
 10
59.3
 20
-218.7
 30
0.0
 11
59.3
 21
-219.9
 31
0.0
  0
LINE
  5
10B
330
17
100
AcDbEntity
  8
OUTLINE
100
AcDbLine
 10
62.3
 20
-218.7
 30
0.0
 11
59.3
 21
-218.7
 31
0.0
  0
LINE
  5
10C
330
17
100
AcDbEntity
  8
OUTLINE
100
AcDbLine
 10
62.3
 20
-217.8
 30
0.0
 11
62.3
 21
-218.7
 31
0.0
  0
LINE
  5
10D
330
17
100
AcDbEntity
  8
OUTLINE
100
AcDbLine
 10
61.5
 20
-217.8
 30
0.0
 11
62.3
 21
-217.8
 31
0.0
  0
LINE
  5
10E
330
17
100
AcDbEntity
  8
OUTLINE
100
AcDbLine
 10
61.5
 20
-217.0
 30
0.0
 11
61.5
 21
-217.8
 31
0.0
  0
LINE
  5
10F
330
17
100
AcDbEntity
  8
OUTLINE
100
AcDbLine
 10
0.0
 20
-217.0
 30
0.0
 11
61.5
 21
-217.0
 31
0.0
  0
LINE
  5
110
330
17
100
AcDbEntity
  8
OUTLINE
100
AcDbLine
 10
0.0
 20
-220.0
 30
0.0
 11
0.0
 21
-217.0
 31
0.0
  0
LINE
  5
111
330
17
100
AcDbEntity
  8
OUTLINE
100
AcDbLine
 10
93.1
 20
-217.8
 30
0.0
 11
93.1
 21
-217.0
 31
0.0
  0
LINE
  5
112
330
17
100
AcDbEntity
  8
OUTLINE
100
AcDbLine
 10
92.3
 20
-217.8
 30
0.0
 11
93.1
 21
-217.8
 31
0.0
  0
LINE
  5
113
330
17
100
AcDbEntity
  8
OUTLINE
100
AcDbLine
 10
92.3
 20
-218.7
 30
0.0
 11
92.3
 21
-217.8
 31
0.0
  0
LINE
  5
114
330
17
100
AcDbEntity
  8
OUTLINE
100
AcDbLine
 10
95.3
 20
-218.7
 30
0.0
 11
92.3
 21
-218.7
 31
0.0
  0
LINE
  5
115
330
17
100
AcDbEntity
  8
OUTLINE
100
AcDbLine
 10
95.3
 20
-219.9
 30
0.0
 11
95.3
 21
-218.7
 31
0.0
  0
LINE
  5
116
330
17
100
AcDbEntity
  8
OUTLINE
100
AcDbLine
 10
94.69999999999999
 20
-219.9
 30
0.0
 11
95.3
 21
-219.9
 31
0.0
  0
LINE
  5
117
330
17
100
AcDbEntity
  8
OUTLINE
100
AcDbLine
 10
94.69999999999999
 20
-220.6
 30
0.0
 11
94.69999999999999
 21
-219.9
 31
0.0
  0
LINE
  5
118
330
17
100
AcDbEntity
  8
OUTLINE
100
AcDbLine
 10
95.3
 20
-220.6
 30
0.0
 11
94.69999999999999
 21
-220.6
 31
0.0
  0
LINE
  5
119
330
17
100
AcDbEntity
  8
OUTLINE
100
AcDbLine
 10
95.3
 20
-220.0
 30
0.0
 11
95.3
 21
-220.6
 31
0.0
  0
LINE
  5
11A
330
17
100
AcDbEntity
  8
OUTLINE
100
AcDbLine
 10
115.25
 20
-220.0
 30
0.0
 11
95.3
 21
-220.0
 31
0.0
  0
LINE
  5
11B
330
17
100
AcDbEntity
  8
OUTLINE
100
AcDbLine
 10
115.25
 20
-224.0
 30
0.0
 11
115.25
 21
-220.0
 31
0.0
  0
LINE
  5
11C
330
17
100
AcDbEntity
  8
OUTLINE
100
AcDbLine
 10
117.25
 20
-224.0
 30
0.0
 11
115.25
 21
-224.0
 31
0.0
  0
LINE
  5
11D
330
17
100
AcDbEntity
  8
OUTLINE
100
AcDbLine
 10
117.25
 20
-220.0
 30
0.0
 11
117.25
 21
-224.0
 31
0.0
  0
LINE
  5
11E
330
17
100
AcDbEntity
  8
OUTLINE
100
AcDbLine
 10
120.0
 20
-220.0
 30
0.0
 11
117.25
 21
-220.0
 31
0.0
  0
LINE
  5
11F
330
17
100
AcDbEntity
  8
OUTLINE
100
AcDbLine
 10
120.0
 20
-217.0
 30
0.0
 11
120.0
 21
-220.0
 31
0.0
  0
LINE
  5
120
330
17
100
AcDbEntity
  8
OUTLINE
100
AcDbLine
 10
93.1
 20
-217.0
 30
0.0
 11
120.0
 21
-217.0
 31
0.0
  0
TEXT
  5
121
330
17
100
AcDbEntity
  8
TEXT
100
AcDbText
 10
0.0
 20
-228.0
 30
0.0
 40
2.8
  1
TOP SECTION at Z=42: lip, header ribs, insert pocket
 11
0.0
 21
-228.0
 31
0.0
100
AcDbText
  0
DIMENSION
  5
122
330
17
100
AcDbEntity
  8
DIMS
100
AcDbDimension
280
0
  2
*D7
  3
EZDXF
 10
130.0
 20
-223.0
 30
0.0
 11
127.15
 21
-221.5
 31
0.0
 70
32
 71
5
  1
lid <>
100
AcDbAlignedDimension
 13
120.0
 23
-223.0
 33
0.0
 14
120.0
 24
-220.0
 34
0.0
 50
90.0
100
AcDbRotatedDimension
1001
ACAD
1000
DSTYLE
1002
{
1070
140
1040
2.5
1070
41
1040
1.5
1070
42
1040
0.8
1070
44
1040
1.0
1070
147
1040
0.6
1070
271
1070
1
1002
}
  0
TEXT
  5
131
330
17
100
AcDbEntity
  8
NOTES
100
AcDbText
 10
0.0
 20
-10.0
 30
0.0
 40
2.5
  1
Print outer face down. Six M3 countersunk screws into heat-set inserts. Same window, PRG tab, RST pinhole and LED window as the hanger.
 11
0.0
 21
-10.0
 31
0.0
100
AcDbText
  0
ENDSEC
  0
SECTION
  2
OBJECTS
  0
DICTIONARY
  5
A
330
0
100
AcDbDictionary
281
1
  3
ACAD_COLOR
350
B
  3
ACAD_GROUP
350
C
  3
ACAD_LAYOUT
350
D
  3
ACAD_MATERIAL
350
E
  3
ACAD_MLEADERSTYLE
350
F
  3
ACAD_MLINESTYLE
350
10
  3
ACAD_PLOTSETTINGS
350
11
  3
ACAD_PLOTSTYLENAME
350
12
  3
ACAD_SCALELIST
350
14
  3
ACAD_TABLESTYLE
350
15
  3
ACAD_VISUALSTYLE
350
16
  3
EZDXF_META
350
2D
  0
DICTIONARY
  5
B
330
A
100
AcDbDictionary
281
1
  0
DICTIONARY
  5
C
330
A
100
AcDbDictionary
281
1
  0
DICTIONARY
  5
D
330
A
100
AcDbDictionary
281
1
  3
Model
350
1A
  3
Layout1
350
1E
  0
DICTIONARY
  5
E
330
A
100
AcDbDictionary
281
1
  3
ByBlock
350
1F
  3
ByLayer
350
20
  3
Global
350
21
  0
DICTIONARY
  5
F
330
A
100
AcDbDictionary
281
1
  3
Standard
350
2C
  0
DICTIONARY
  5
10
330
A
100
AcDbDictionary
281
1
  3
Standard
350
22
  0
DICTIONARY
  5
11
330
A
100
AcDbDictionary
281
1
  0
ACDBDICTIONARYWDFLT
  5
12
330
A
100
AcDbDictionary
281
1
  3
Normal
350
13
100
AcDbDictionaryWithDefault
340
13
  0
ACDBPLACEHOLDER
  5
13
330
12
  0
DICTIONARY
  5
14
330
A
100
AcDbDictionary
281
1
  0
DICTIONARY
  5
15
330
A
100
AcDbDictionary
281
1
  0
DICTIONARY
  5
16
330
A
100
AcDbDictionary
281
1
  3
2dWireframe
350
5A
  3
Basic
350
5B
  3
Brighten
350
5C
  3
ColorChange
350
5D
  3
Conceptual
350
5E
  3
Dim
350
5F
  3
EdgeColorOff
350
60
  3
Facepattern
350
61
  3
Flat
350
62
  3
FlatWithEdges
350
63
  3
Gouraud
350
64
  3
GouraudWithEdges
350
65
  3
Hidden
350
66
  3
JitterOff
350
67
  3
Linepattern
350
68
  3
Modeling
350
69
  3
OverhangOff
350
6A
  3
Realistic
350
6B
  3
Shaded
350
6C
  3
Shaded with edges
350
6D
  3
Shades of Gray
350
6E
  3
Sketchy
350
6F
  3
Thicken
350
70
  3
Wireframe
350
71
  3
X-Ray
350
72
  0
LAYOUT
  5
1A
330
D
100
AcDbPlotSettings
  1

  4
A3
  6

 40
7.5
 41
20.0
 42
7.5
 43
20.0
 44
420.0
 45
297.0
 46
0.0
 47
0.0
 48
0.0
 49
0.0
140
0.0
141
0.0
142
1.0
143
1.0
 70
1024
 72
1
 73
0
 74
5
  7

 75
16
 76
0
 77
2
 78
300
147
1.0
148
0.0
149
0.0
100
AcDbLayout
  1
Model
 70
1
 71
0
 10
0.0
 20
0.0
 11
420.0
 21
297.0
 12
0.0
 22
0.0
 32
0.0
 14
1e+20
 24
1e+20
 34
1e+20
 15
-1e+20
 25
-1e+20
 35
-1e+20
146
0.0
 13
0.0
 23
0.0
 33
0.0
 16
1.0
 26
0.0
 36
0.0
 17
0.0
 27
1.0
 37
0.0
 76
1
330
17
  0
LAYOUT
  5
1E
330
D
100
AcDbPlotSettings
  1

  4
A3
  6

 40
7.5
 41
20.0
 42
7.5
 43
20.0
 44
420.0
 45
297.0
 46
0.0
 47
0.0
 48
0.0
 49
0.0
140
0.0
141
0.0
142
1.0
143
1.0
 70
0
 72
1
 73
0
 74
5
  7

 75
16
 76
0
 77
2
 78
300
147
1.0
148
0.0
149
0.0
100
AcDbLayout
  1
Layout1
 70
1
 71
1
 10
0.0
 20
0.0
 11
420.0
 21
297.0
 12
0.0
 22
0.0
 32
0.0
 14
1e+20
 24
1e+20
 34
1e+20
 15
-1e+20
 25
-1e+20
 35
-1e+20
146
0.0
 13
0.0
 23
0.0
 33
0.0
 16
1.0
 26
0.0
 36
0.0
 17
0.0
 27
1.0
 37
0.0
 76
1
330
1B
  0
MATERIAL
  5
1F
102
{ACAD_REACTORS
330
E
102
}
330
E
100
AcDbMaterial
  1
ByBlock
  2

 70
0
 40
1.0
 71
1
 41
1.0
 91
-1023410177
 42
1.0
 72
1
  3

 73
1
 74
1
 75
1
 44
0.5
 73
0
 45
1.0
 46
1.0
 77
1
  4

 78
1
 79
1
170
1
 48
1.0
171
1
  6

172
1
173
1
174
1
140
1.0
141
1.0
175
1
  7

176
1
177
1
178
1
143
1.0
179
1
  8

270
1
271
1
272
1
145
1.0
146
1.0
273
1
  9

274
1
275
1
276
1
 42
1.0
 72
1
  3

 73
1
 74
1
 75
1
 94
63
  0
MATERIAL
  5
20
102
{ACAD_REACTORS
330
E
102
}
330
E
100
AcDbMaterial
  1
ByLayer
  2

 70
0
 40
1.0
 71
1
 41
1.0
 91
-1023410177
 42
1.0
 72
1
  3

 73
1
 74
1
 75
1
 44
0.5
 73
0
 45
1.0
 46
1.0
 77
1
  4

 78
1
 79
1
170
1
 48
1.0
171
1
  6

172
1
173
1
174
1
140
1.0
141
1.0
175
1
  7

176
1
177
1
178
1
143
1.0
179
1
  8

270
1
271
1
272
1
145
1.0
146
1.0
273
1
  9

274
1
275
1
276
1
 42
1.0
 72
1
  3

 73
1
 74
1
 75
1
 94
63
  0
MATERIAL
  5
21
102
{ACAD_REACTORS
330
E
102
}
330
E
100
AcDbMaterial
  1
Global
  2

 70
0
 40
1.0
 71
1
 41
1.0
 91
-1023410177
 42
1.0
 72
1
  3

 73
1
 74
1
 75
1
 44
0.5
 73
0
 45
1.0
 46
1.0
 77
1
  4

 78
1
 79
1
170
1
 48
1.0
171
1
  6

172
1
173
1
174
1
140
1.0
141
1.0
175
1
  7

176
1
177
1
178
1
143
1.0
179
1
  8

270
1
271
1
272
1
145
1.0
146
1.0
273
1
  9

274
1
275
1
276
1
 42
1.0
 72
1
  3

 73
1
 74
1
 75
1
 94
63
  0
MLINESTYLE
  5
22
102
{ACAD_REACTORS
330
10
102
}
330
10
100
AcDbMlineStyle
  2
Standard
 70
0
  3

 62
256
 51
90.0
 52
90.0
 71
2
 49
0.5
 62
256
  6
BYLAYER
 49
-0.5
 62
256
  6
BYLAYER
  0
MLEADERSTYLE
  5
2C
102
{ACAD_REACTORS
330
F
102
}
330
F
100
AcDbMLeaderStyle
179
2
170
2
171
1
172
0
 90
2
 40
0.0
 41
0.0
173
1
 91
-1056964608
 92
-2
290
1
 42
2.0
291
1
 43
8.0
  3
Standard
 44
4.0
300

342
29
174
1
175
1
176
0
178
1
 93
-1056964608
 45
4.0
292
0
297
0
 46
4.0
 94
-1056964608
 47
1.0
 49
1.0
140
1.0
294
1
141
0.0
177
0
142
1.0
295
0
296
0
143
3.75
271
0
272
9
273
9
  0
DICTIONARY
  5
2D
330
A
100
AcDbDictionary
280
1
281
1
  3
CREATED_BY_EZDXF
350
2E
  3
WRITTEN_BY_EZDXF
350
134
  0
DICTIONARYVAR
  5
2E
330
2D
100
DictionaryVariables
280
0
  1
1.4.4 @ 2026-09-02T20:01:25.443699+00:00
  0
VISUALSTYLE
  5
5A
102
{ACAD_REACTORS
330
16
102
}
330
16
100
AcDbVisualStyle
  2
2dWireframe
 70
4
 90
0
 40
0.6
 62
7
290
0
291
0
  0
VISUALSTYLE
  5
5B
102
{ACAD_REACTORS
330
16
102
}
330
16
100
AcDbVisualStyle
  2
Basic
 70
7
 90
1
 40
0.6
 62
7
290
0
291
1
  0
VISUALSTYLE
  5
5C
102
{ACAD_REACTORS
330
16
102
}
330
16
100
AcDbVisualStyle
  2
Brighten
 70
12
 90
2
 40
0.6
 62
7
290
0
291
1
  0
VISUALSTYLE
  5
5D
102
{ACAD_REACTORS
330
16
102
}
330
16
100
AcDbVisualStyle
  2
ColorChange
 70
16
 90
2
 40
0.6
 62
8
290
0
291
1
  0
VISUALSTYLE
  5
5E
102
{ACAD_REACTORS
330
16
102
}
330
16
100
AcDbVisualStyle
  2
Conceptual
 70
9
 90
3
 40
0.6
 62
7
290
0
291
0
  0
VISUALSTYLE
  5
5F
102
{ACAD_REACTORS
330
16
102
}
330
16
100
AcDbVisualStyle
  2
Dim
 70
11
 90
2
 40
0.6
 62
7
290
0
291
1
  0
VISUALSTYLE
  5
60
102
{ACAD_REACTORS
330
16
102
}
330
16
100
AcDbVisualStyle
  2
EdgeColorOff
 70
22
 90
2
 40
0.6
 62
7
290
0
291
1
  0
VISUALSTYLE
  5
61
102
{ACAD_REACTORS
330
16
102
}
330
16
100
AcDbVisualStyle
  2
Facepattern
 70
15
 90
2
 40
0.6
 62
7
290
0
291
1
  0
VISUALSTYLE
  5
62
102
{ACAD_REACTORS
330
16
102
}
330
16
100
AcDbVisualStyle
  2
Flat
 70
0
 90
2
 40
0.6
 62
7
290
0
291
1
  0
VISUALSTYLE
  5
63
102
{ACAD_REACTORS
330
16
102
}
330
16
100
AcDbVisualStyle
  2
FlatWithEdges
 70
1
 90
2
 40
0.6
 62
7
290
0
291
1
  0
VISUALSTYLE
  5
64
102
{ACAD_REACTORS
330
16
102
}
330
16
100
AcDbVisualStyle
  2
Gouraud
 70
2
 90
2
 40
0.6
 62
7
290
0
291
1
  0
VISUALSTYLE
  5
65
102
{ACAD_REACTORS
330
16
102
}
330
16
100
AcDbVisualStyle
  2
GouraudWithEdges
 70
3
 90
2
 40
0.6
 62
7
290
0
291
1
  0
VISUALSTYLE
  5
66
102
{ACAD_REACTORS
330
16
102
}
330
16
100
AcDbVisualStyle
  2
Hidden
 70
6
 90
1
 40
0.6
 62
7
290
0
291
0
  0
VISUALSTYLE
  5
67
102
{ACAD_REACTORS
330
16
102
}
330
16
100
AcDbVisualStyle
  2
JitterOff
 70
20
 90
2
 40
0.6
 62
7
290
0
291
1
  0
VISUALSTYLE
  5
68
102
{ACAD_REACTORS
330
16
102
}
330
16
100
AcDbVisualStyle
  2
Linepattern
 70
14
 90
2
 40
0.6
 62
7
290
0
291
1
  0
VISUALSTYLE
  5
69
102
{ACAD_REACTORS
330
16
102
}
330
16
100
AcDbVisualStyle
  2
Modeling
 70
10
 90
2
 40
0.6
 62
7
290
0
291
0
  0
VISUALSTYLE
  5
6A
102
{ACAD_REACTORS
330
16
102
}
330
16
100
AcDbVisualStyle
  2
OverhangOff
 70
21
 90
2
 40
0.6
 62
7
290
0
291
1
  0
VISUALSTYLE
  5
6B
102
{ACAD_REACTORS
330
16
102
}
330
16
100
AcDbVisualStyle
  2
Realistic
 70
8
 90
2
 40
0.6
 62
7
290
0
291
0
  0
VISUALSTYLE
  5
6C
102
{ACAD_REACTORS
330
16
102
}
330
16
100
AcDbVisualStyle
  2
Shaded
 70
27
 90
2
 40
0.6
 62
7
290
0
291
0
  0
VISUALSTYLE
  5
6D
102
{ACAD_REACTORS
330
16
102
}
330
16
100
AcDbVisualStyle
  2
Shaded with edges
 70
26
 90
2
 40
0.6
 62
7
290
0
291
0
  0
VISUALSTYLE
  5
6E
102
{ACAD_REACTORS
330
16
102
}
330
16
100
AcDbVisualStyle
  2
Shades of Gray
 70
23
 90
2
 40
0.6
 62
7
290
0
291
0
  0
VISUALSTYLE
  5
6F
102
{ACAD_REACTORS
330
16
102
}
330
16
100
AcDbVisualStyle
  2
Sketchy
 70
24
 90
1
 40
0.6
 62
7
290
0
291
0
  0
VISUALSTYLE
  5
70
102
{ACAD_REACTORS
330
16
102
}
330
16
100
AcDbVisualStyle
  2
Thicken
 70
13
 90
2
 40
0.6
 62
7
290
0
291
1
  0
VISUALSTYLE
  5
71
102
{ACAD_REACTORS
330
16
102
}
330
16
100
AcDbVisualStyle
  2
Wireframe
 70
5
 90
0
 40
0.6
 62
7
290
0
291
0
  0
VISUALSTYLE
  5
72
102
{ACAD_REACTORS
330
16
102
}
330
16
100
AcDbVisualStyle
  2
X-Ray
 70
25
 90
2
 40
0.5
 62
7
290
0
291
0
  0
DICTIONARYVAR
  5
134
330
2D
100
DictionaryVariables
280
0
  1
1.4.4 @ 2026-09-02T20:01:25.480634+00:00
  0
ENDSEC
  0
EOF
