700 0 2 0           
30 Autodesk Translation Framework 21 ASM 232.4.0.65535 OSX 24 Fri Sep 18 16:40:59 2026 
1 9.999999999999999547e-07 1.000000000000000036e-10 
body $2 -1 $-1 $3 $-1 $-1 #
body $4 -1 $-1 $5 $-1 $-1 #
rgb_color-st-attrib $-1 -1 $6 $-1 $0 0.627450980392156854 0.627450980392156854 0.627450980392156854 #
lump $-1 -1 $-1 $-1 $7 $0 #
rgb_color-st-attrib $-1 -1 $8 $-1 $1 0.627450980392156854 0.627450980392156854 0.627450980392156854 #
lump $-1 -1 $-1 $-1 $9 $1 #
ATTRIB_CUSTOM-attrib $-1 -1 $-1 $2 $0 @20 Timestamp_attrib_def 1 1789746059735924 #
shell $-1 -1 $-1 $-1 $-1 $10 $-1 $3 #
ATTRIB_CUSTOM-attrib $-1 -1 $-1 $4 $1 @20 Timestamp_attrib_def 1 1789746059736153 #
shell $-1 -1 $-1 $-1 $-1 $11 $-1 $5 #
face $12 -1 $-1 $13 $14 $7 $-1 $15 reversed single #
face $16 -1 $-1 $17 $18 $9 $-1 $19 forward single #
DXID-attrib $-1 -1 $-1 $-1 $10 @10 ASM ENTITY @1 0 #
face $20 -1 $-1 $21 $22 $7 $-1 $23 reversed single #
loop $-1 -1 $-1 $-1 $24 $10 #
plane-surface $-1 -1 $-1 54 -9 -36.5 -1 1.224646799146999945e-16 0 0 0 1 forward_v I I I I #
DXID-attrib $-1 -1 $-1 $-1 $11 @10 ASM ENTITY @1 0 #
face $25 -1 $-1 $26 $27 $9 $-1 $28 forward single #
loop $-1 -1 $-1 $29 $30 $11 #
cone-surface $-1 -1 $-1 47.40000000000000568 31.20000000000000284 -16.5 0 0 1 -1.425000000000000266 1.745121688784474885e-16 0 1 I I 0 1 1.425000000000000266 forward I I I I #
DXID-attrib $-1 -1 $-1 $-1 $13 @10 ASM ENTITY @1 1 #
face $31 -1 $-1 $32 $33 $7 $-1 $34 forward single #
loop $-1 -1 $-1 $-1 $35 $13 #
plane-surface $-1 -1 $-1 54 -9 -36.5 -1.224646799146999945e-16 -1 0 0 0 1 forward_v I I I I #
coedge $-1 -1 $-1 $36 $37 $38 $39 forward $14 $-1 #
DXID-attrib $-1 -1 $-1 $-1 $17 @10 ASM ENTITY @1 1 #
face $40 -1 $-1 $-1 $41 $9 $-1 $42 reversed single #
loop $-1 -1 $-1 $-1 $43 $17 #
plane-surface $-1 -1 $-1 47.40000000000000568 31.20000000000000284 -10 0 0 1 -1 1.224646799146999945e-16 0 forward_v I I I I #
loop $-1 -1 $-1 $-1 $44 $11 #
coedge $-1 -1 $-1 $30 $30 $45 $46 forward $18 $-1 #
DXID-attrib $-1 -1 $-1 $-1 $21 @10 ASM ENTITY @1 2 #
face $47 -1 $-1 $48 $49 $7 $-1 $50 forward single #
loop $-1 -1 $-1 $51 $52 $21 #
plane-surface $-1 -1 $-1 54 -9 -34.90000000000000568 0 0 1 -1 1.224646799146999945e-16 0 forward_v I I I I #
coedge $-1 -1 $-1 $53 $38 $54 $55 forward $22 $-1 #
coedge $-1 -1 $-1 $56 $24 $52 $57 forward $14 $-1 #
coedge $-1 -1 $-1 $24 $56 $58 $59 reversed $14 $-1 #
coedge $-1 -1 $-1 $35 $60 $24 $39 reversed $22 $-1 #
edge $-1 -1 $-1 $61 0 $62 1.600000000000001421 $24 $63 forward @7 unknown #
DXID-attrib $-1 -1 $-1 $-1 $26 @10 ASM ENTITY @1 2 #
loop $-1 -1 $-1 $-1 $45 $26 #
plane-surface $-1 -1 $-1 47.40000000000000568 31.20000000000000284 -16.5 0 0 1 -1 1.224646799146999945e-16 0 forward_v I I I I #
coedge $-1 -1 $-1 $43 $43 $44 $64 forward $27 $-1 #
coedge $-1 -1 $-1 $44 $44 $43 $64 reversed $29 $-1 #
coedge $-1 -1 $-1 $45 $45 $30 $46 reversed $41 $-1 #
edge $-1 -1 $-1 $65 1.224646799146999945e-16 $65 6.283185307179586232 $30 $66 forward @7 unknown #
DXID-attrib $-1 -1 $-1 $-1 $32 @10 ASM ENTITY @1 3 #
face $67 -1 $-1 $68 $69 $7 $-1 $70 reversed single #
loop $-1 -1 $-1 $-1 $71 $32 #
plane-surface $-1 -1 $-1 54 -17 -36.5 -1.224646799146999945e-16 -1 0 0 0 1 forward_v I I I I #
loop $-1 -1 $-1 $-1 $72 $21 #
coedge $-1 -1 $-1 $73 $74 $36 $57 reversed $33 $-1 #
coedge $-1 -1 $-1 $60 $35 $75 $76 forward $22 $-1 #
coedge $-1 -1 $-1 $58 $77 $35 $55 reversed $69 $-1 #
edge $-1 -1 $-1 $61 0 $78 7.999999999999998224 $35 $79 forward @7 unknown #
coedge $-1 -1 $-1 $37 $36 $80 $81 reversed $14 $-1 #
edge $-1 -1 $-1 $62 0 $82 8.000000000000001776 $36 $83 forward @7 unknown #
coedge $-1 -1 $-1 $84 $54 $37 $59 forward $69 $-1 #
edge $-1 -1 $-1 $61 0 $85 8.000000000000001776 $37 $86 forward @7 unknown #
coedge $-1 -1 $-1 $38 $53 $73 $87 reversed $22 $-1 #
vertex $-1 -1 $-1 $39 $88 #
vertex $-1 -1 $-1 $39 $89 #
straight-curve $-1 -1 $-1 54 -9 -36.5 0 0 1 F 0 F 1.600000000000001421 #
edge $-1 -1 $-1 $90 1.224646799146999945e-16 $90 6.283185307179586232 $44 $91 forward @7 unknown #
vertex $-1 -1 $-1 $46 $92 #
ellipse-curve $-1 -1 $-1 47.40000000000000568 31.20000000000000284 -16.5 0 0 1 -1.425000000000000266 1.745121688784474885e-16 0 1 I I #
DXID-attrib $-1 -1 $-1 $-1 $48 @10 ASM ENTITY @1 4 #
face $93 -1 $-1 $94 $95 $7 $-1 $96 forward single #
loop $-1 -1 $-1 $-1 $58 $48 #
plane-surface $-1 -1 $-1 54 -9 -36.5 0 0 1 -1 1.224646799146999945e-16 0 forward_v I I I I #
coedge $-1 -1 $-1 $80 $97 $84 $98 reversed $49 $-1 #
coedge $-1 -1 $-1 $99 $100 $101 $102 forward $51 $-1 #
coedge $-1 -1 $-1 $103 $52 $60 $87 forward $33 $-1 #
coedge $-1 -1 $-1 $52 $103 $104 $105 reversed $33 $-1 #
coedge $-1 -1 $-1 $106 $107 $53 $76 reversed $95 $-1 #
edge $-1 -1 $-1 $78 0 $108 1.600000000000001421 $53 $109 forward @7 unknown #
coedge $-1 -1 $-1 $54 $84 $106 $110 reversed $69 $-1 #
vertex $-1 -1 $-1 $55 $111 #
straight-curve $-1 -1 $-1 54 -9 -36.5 -1 1.224646799146999945e-16 0 F 0 F 7.999999999999998224 #
coedge $-1 -1 $-1 $104 $71 $56 $81 forward $49 $-1 #
edge $-1 -1 $-1 $85 0 $82 1.600000000000001421 $56 $112 forward @7 unknown #
vertex $-1 -1 $-1 $57 $113 #
straight-curve $-1 -1 $-1 54 -9 -34.90000000000000568 -1.224646799146999945e-16 -1 0 F 0 F 8.000000000000001776 #
coedge $-1 -1 $-1 $77 $58 $71 $98 forward $69 $-1 #
vertex $-1 -1 $-1 $81 $114 #
straight-curve $-1 -1 $-1 54 -9 -36.5 -1.224646799146999945e-16 -1 0 F 0 F 8.000000000000001776 #
edge $-1 -1 $-1 $62 0 $108 7.999999999999998224 $60 $115 forward @7 unknown #
point $-1 -1 $-1 54 -9 -36.5 #
point $-1 -1 $-1 54 -9 -34.90000000000000568 #
vertex $-1 -1 $-1 $64 $116 #
ellipse-curve $-1 -1 $-1 47.40000000000000568 31.20000000000000284 -10 0 0 1 -1.425000000000000266 1.745121688784474885e-16 0 1 I I #
point $-1 -1 $-1 45.97500000000000142 31.20000000000000284 -16.5 #
DXID-attrib $-1 -1 $-1 $-1 $68 @10 ASM ENTITY @1 5 #
face $117 -1 $-1 $118 $119 $7 $-1 $120 reversed single #
loop $-1 -1 $-1 $-1 $75 $68 #
plane-surface $-1 -1 $-1 46.00000000000000711 -9 -36.5 -1 1.224646799146999945e-16 0 0 0 1 forward_v I I I I #
coedge $-1 -1 $-1 $71 $104 $121 $122 reversed $49 $-1 #
edge $-1 -1 $-1 $85 0 $123 7.999999999999998224 $71 $124 forward @7 unknown #
coedge $-1 -1 $-1 $125 $72 $126 $127 forward $51 $-1 #
coedge $-1 -1 $-1 $72 $125 $128 $129 reversed $51 $-1 #
coedge $-1 -1 $-1 $130 $131 $72 $102 reversed $119 $-1 #
edge $-1 -1 $-1 $132 0 $133 1.300000000000001155 $72 $134 forward @7 unknown #
coedge $-1 -1 $-1 $74 $73 $107 $135 forward $33 $-1 #
coedge $-1 -1 $-1 $97 $80 $74 $105 forward $49 $-1 #
edge $-1 -1 $-1 $82 0 $136 7.999999999999998224 $74 $137 forward @7 unknown #
coedge $-1 -1 $-1 $121 $75 $77 $110 forward $95 $-1 #
coedge $-1 -1 $-1 $75 $121 $103 $135 reversed $95 $-1 #
vertex $-1 -1 $-1 $76 $138 #
straight-curve $-1 -1 $-1 46.00000000000000711 -9 -36.5 0 0 1 F 0 F 1.600000000000001421 #
edge $-1 -1 $-1 $78 0 $123 8.000000000000001776 $77 $139 forward @7 unknown #
point $-1 -1 $-1 46.00000000000000711 -9 -36.5 #
straight-curve $-1 -1 $-1 54 -17 -36.5 0 0 1 F 0 F 1.600000000000001421 #
point $-1 -1 $-1 54 -17 -34.90000000000000568 #
point $-1 -1 $-1 54 -17 -36.5 #
straight-curve $-1 -1 $-1 54 -9 -34.90000000000000568 -1 1.224646799146999945e-16 0 F 0 F 7.999999999999998224 #
point $-1 -1 $-1 45.97500000000000142 31.20000000000000284 -10 #
DXID-attrib $-1 -1 $-1 $-1 $94 @10 ASM ENTITY @1 6 #
face $140 -1 $-1 $141 $142 $7 $-1 $143 reversed single #
loop $-1 -1 $-1 $-1 $130 $94 #
plane-surface $-1 -1 $-1 51.45000000000000284 -12.35000000000000142 -34.90000000000000568 -1 1.224646799146999945e-16 0 0 0 1 forward_v I I I I #
coedge $-1 -1 $-1 $107 $106 $97 $122 forward $95 $-1 #
edge $-1 -1 $-1 $123 0 $136 1.600000000000001421 $97 $144 forward @7 unknown #
vertex $-1 -1 $-1 $98 $145 #
straight-curve $-1 -1 $-1 54 -17 -36.5 -1 1.224646799146999945e-16 0 F 0 F 7.999999999999998224 #
coedge $-1 -1 $-1 $100 $99 $146 $147 reversed $51 $-1 #
coedge $-1 -1 $-1 $148 $149 $99 $127 reversed $150 $-1 #
edge $-1 -1 $-1 $133 0 $151 2.900000000000000355 $99 $152 forward @7 unknown #
coedge $-1 -1 $-1 $153 $154 $100 $129 forward $142 $-1 #
edge $-1 -1 $-1 $132 0 $155 2.900000000000000355 $100 $156 forward @7 unknown #
coedge $-1 -1 $-1 $157 $101 $154 $158 forward $119 $-1 #
coedge $-1 -1 $-1 $101 $157 $148 $159 reversed $119 $-1 #
vertex $-1 -1 $-1 $102 $160 #
vertex $-1 -1 $-1 $102 $161 #
straight-curve $-1 -1 $-1 51.45000000000000284 -12.35000000000000142 -34.90000000000000568 -1.224646799146999945e-16 -1 0 F 0 F 1.300000000000001155 #
edge $-1 -1 $-1 $108 0 $136 8.000000000000001776 $103 $162 forward @7 unknown #
vertex $-1 -1 $-1 $135 $163 #
straight-curve $-1 -1 $-1 54 -17 -34.90000000000000568 -1 1.224646799146999945e-16 0 F 0 F 7.999999999999998224 #
point $-1 -1 $-1 46.00000000000000711 -9 -34.90000000000000568 #
straight-curve $-1 -1 $-1 46.00000000000000711 -9 -36.5 -1.224646799146999945e-16 -1 0 F 0 F 8.000000000000001776 #
DXID-attrib $-1 -1 $-1 $-1 $118 @10 ASM ENTITY @1 7 #
face $164 -1 $-1 $165 $166 $7 $-1 $167 forward single #
loop $-1 -1 $-1 $-1 $128 $118 #
plane-surface $-1 -1 $-1 51.45000000000000284 -12.35000000000000142 -34.90000000000000568 -1.224646799146999945e-16 -1 0 0 0 1 forward_v I I I I #
straight-curve $-1 -1 $-1 46.00000000000000711 -17 -36.5 0 0 1 F 0 F 1.600000000000001421 #
point $-1 -1 $-1 46.00000000000000711 -17 -36.5 #
coedge $-1 -1 $-1 $168 $169 $125 $147 forward $166 $-1 #
edge $-1 -1 $-1 $155 0 $151 1.300000000000001155 $125 $170 forward @7 unknown #
coedge $-1 -1 $-1 $171 $126 $131 $159 forward $150 $-1 #
coedge $-1 -1 $-1 $126 $171 $168 $172 reversed $150 $-1 #
loop $-1 -1 $-1 $-1 $126 $165 #
vertex $-1 -1 $-1 $127 $173 #
straight-curve $-1 -1 $-1 51.45000000000000284 -13.65000000000000213 -34.90000000000000568 -1 1.224646799146999945e-16 0 F 0 F 2.900000000000000355 #
coedge $-1 -1 $-1 $174 $128 $169 $175 forward $142 $-1 #
coedge $-1 -1 $-1 $128 $174 $130 $158 reversed $142 $-1 #
vertex $-1 -1 $-1 $147 $176 #
straight-curve $-1 -1 $-1 51.45000000000000284 -12.35000000000000142 -34.90000000000000568 -1 1.224646799146999945e-16 0 F 0 F 2.900000000000000355 #
coedge $-1 -1 $-1 $131 $130 $177 $178 forward $119 $-1 #
edge $-1 -1 $-1 $132 0 $179 1.120000000000000995 $130 $180 forward @7 unknown #
edge $-1 -1 $-1 $133 0 $181 1.120000000000000995 $131 $182 forward @7 unknown #
point $-1 -1 $-1 51.45000000000000284 -12.35000000000000142 -34.90000000000000568 #
point $-1 -1 $-1 51.45000000000000284 -13.65000000000000213 -34.90000000000000568 #
straight-curve $-1 -1 $-1 46.00000000000000711 -9 -34.90000000000000568 -1.224646799146999945e-16 -1 0 F 0 F 8.000000000000001776 #
point $-1 -1 $-1 46.00000000000000711 -17 -34.90000000000000568 #
DXID-attrib $-1 -1 $-1 $-1 $141 @10 ASM ENTITY @1 8 #
face $183 -1 $-1 $184 $150 $7 $-1 $185 forward single #
loop $-1 -1 $-1 $-1 $169 $141 #
plane-surface $-1 -1 $-1 48.55000000000000426 -12.35000000000000142 -34.90000000000000568 -1 1.224646799146999945e-16 0 0 0 1 forward_v I I I I #
coedge $-1 -1 $-1 $186 $146 $149 $172 forward $166 $-1 #
coedge $-1 -1 $-1 $146 $186 $153 $175 reversed $166 $-1 #
straight-curve $-1 -1 $-1 48.55000000000000426 -12.35000000000000142 -34.90000000000000568 -1.224646799146999945e-16 -1 0 F 0 F 1.300000000000001155 #
coedge $-1 -1 $-1 $149 $148 $187 $188 forward $150 $-1 #
edge $-1 -1 $-1 $151 0 $189 1.120000000000000995 $168 $190 forward @7 unknown #
point $-1 -1 $-1 48.55000000000000426 -13.65000000000000213 -34.90000000000000568 #
coedge $-1 -1 $-1 $154 $153 $191 $192 reversed $142 $-1 #
edge $-1 -1 $-1 $155 0 $193 1.120000000000000995 $153 $194 forward @7 unknown #
point $-1 -1 $-1 48.55000000000000426 -12.35000000000000142 -34.90000000000000568 #
coedge $-1 -1 $-1 $191 $187 $157 $178 reversed $195 $-1 #
edge $-1 -1 $-1 $179 0 $181 1.300000000000001155 $157 $196 forward @7 unknown #
vertex $-1 -1 $-1 $158 $197 #
straight-curve $-1 -1 $-1 51.45000000000000284 -12.35000000000000142 -34.90000000000000568 0 0 1 F 0 F 1.120000000000000995 #
vertex $-1 -1 $-1 $178 $198 #
straight-curve $-1 -1 $-1 51.45000000000000284 -13.65000000000000213 -34.90000000000000568 0 0 1 F 0 F 1.120000000000000995 #
DXID-attrib $-1 -1 $-1 $-1 $165 @10 ASM ENTITY @1 9 #
face $199 -1 $-1 $-1 $195 $7 $-1 $200 forward single #
plane-surface $-1 -1 $-1 51.45000000000000284 -13.65000000000000213 -34.90000000000000568 -1.224646799146999945e-16 -1 0 0 0 1 forward_v I I I I #
coedge $-1 -1 $-1 $169 $168 $201 $202 reversed $166 $-1 #
coedge $-1 -1 $-1 $177 $201 $171 $188 reversed $195 $-1 #
edge $-1 -1 $-1 $181 0 $189 2.900000000000000355 $171 $203 forward @7 unknown #
vertex $-1 -1 $-1 $172 $204 #
straight-curve $-1 -1 $-1 48.55000000000000426 -13.65000000000000213 -34.90000000000000568 0 0 1 F 0 F 1.120000000000000995 #
coedge $-1 -1 $-1 $201 $177 $174 $192 forward $195 $-1 #
edge $-1 -1 $-1 $179 0 $193 2.900000000000000355 $174 $205 forward @7 unknown #
vertex $-1 -1 $-1 $175 $206 #
straight-curve $-1 -1 $-1 48.55000000000000426 -12.35000000000000142 -34.90000000000000568 0 0 1 F 0 F 1.120000000000000995 #
loop $-1 -1 $-1 $-1 $177 $184 #
straight-curve $-1 -1 $-1 51.45000000000000284 -12.35000000000000142 -33.78000000000000114 -1.224646799146999945e-16 -1 0 F 0 F 1.300000000000001155 #
point $-1 -1 $-1 51.45000000000000284 -12.35000000000000142 -33.78000000000000114 #
point $-1 -1 $-1 51.45000000000000284 -13.65000000000000213 -33.78000000000000114 #
DXID-attrib $-1 -1 $-1 $-1 $184 @10 ASM ENTITY @2 10 #
plane-surface $-1 -1 $-1 51.45000000000000284 -12.35000000000000142 -33.78000000000000114 0 0 1 -1 1.224646799146999945e-16 0 forward_v I I I I #
coedge $-1 -1 $-1 $187 $191 $186 $202 forward $195 $-1 #
edge $-1 -1 $-1 $193 0 $189 1.300000000000001155 $186 $207 forward @7 unknown #
straight-curve $-1 -1 $-1 51.45000000000000284 -13.65000000000000213 -33.78000000000000114 -1 1.224646799146999945e-16 0 F 0 F 2.900000000000000355 #
point $-1 -1 $-1 48.55000000000000426 -13.65000000000000213 -33.78000000000000114 #
straight-curve $-1 -1 $-1 51.45000000000000284 -12.35000000000000142 -33.78000000000000114 -1 1.224646799146999945e-16 0 F 0 F 2.900000000000000355 #
point $-1 -1 $-1 48.55000000000000426 -12.35000000000000142 -33.78000000000000114 #
straight-curve $-1 -1 $-1 48.55000000000000426 -12.35000000000000142 -33.78000000000000114 -1.224646799146999945e-16 -1 0 F 0 F 1.300000000000001155 #
End-of-ACIS-data 