700 0 1 0           
30 Autodesk Translation Framework 21 ASM 232.4.0.65535 OSX 24 Fri Sep 18 17:51:45 2026 
1 9.999999999999999547e-07 1.000000000000000036e-10 
body $1 -1 $-1 $2 $-1 $-1 #
rgb_color-st-attrib $-1 -1 $3 $-1 $0 0.627450980392156854 0.627450980392156854 0.627450980392156854 #
lump $-1 -1 $-1 $-1 $4 $0 #
ATTRIB_CUSTOM-attrib $-1 -1 $-1 $1 $0 @20 Timestamp_attrib_def 1 1789750305466944 #
shell $-1 -1 $-1 $-1 $-1 $5 $-1 $2 #
face $6 -1 $-1 $7 $8 $4 $-1 $9 reversed single #
DXID-attrib $-1 -1 $-1 $-1 $5 @10 ASM ENTITY @1 0 #
face $10 -1 $-1 $11 $12 $4 $-1 $13 reversed single #
loop $-1 -1 $-1 $-1 $14 $5 #
plane-surface $-1 -1 $-1 363.5 -54.5 0.4500000000000000666 0 0 1 -1 1.224646799146999945e-16 0 forward_v I I I I #
DXID-attrib $-1 -1 $-1 $-1 $7 @10 ASM ENTITY @1 1 #
face $15 -1 $-1 $16 $17 $4 $-1 $18 forward single #
loop $-1 -1 $-1 $-1 $19 $7 #
plane-surface $-1 -1 $-1 350 -54.5 1.851571792652999981 1.224646799146999945e-16 1 0 0 0 -1 forward_v I I I I #
coedge $-1 -1 $-1 $20 $21 $22 $23 forward $8 $-1 #
DXID-attrib $-1 -1 $-1 $-1 $11 @10 ASM ENTITY @1 2 #
face $24 -1 $-1 $25 $26 $4 $-1 $27 forward single #
loop $-1 -1 $-1 $-1 $28 $11 #
plane-surface $-1 -1 $-1 353.0000000000000568 -46.5 -15 -1 1.224646799146999945e-16 0 0 0 1 forward_v I I I I #
coedge $-1 -1 $-1 $29 $22 $30 $31 reversed $12 $-1 #
coedge $-1 -1 $-1 $32 $14 $33 $34 reversed $8 $-1 #
coedge $-1 -1 $-1 $14 $35 $36 $37 reversed $8 $-1 #
coedge $-1 -1 $-1 $19 $38 $14 $23 reversed $12 $-1 #
edge $-1 -1 $-1 $39 0 $40 10.49999999999997158 $14 $41 forward @7 unknown #
DXID-attrib $-1 -1 $-1 $-1 $16 @10 ASM ENTITY @1 3 #
face $42 -1 $-1 $43 $44 $4 $-1 $45 reversed single #
loop $-1 -1 $-1 $46 $47 $16 #
plane-surface $-1 -1 $-1 363.0000000000000568 -54 -30.01000000000000512 -1.224646799146999945e-16 -1 0 0 0 1 forward_v I I I I #
coedge $-1 -1 $-1 $48 $33 $38 $49 reversed $17 $-1 #
coedge $-1 -1 $-1 $38 $19 $50 $51 reversed $12 $-1 #
coedge $-1 -1 $-1 $36 $52 $19 $31 forward $53 $-1 #
edge $-1 -1 $-1 $54 0 $39 3.676955262167729277 $19 $55 forward @7 unknown #
coedge $-1 -1 $-1 $56 $20 $57 $58 forward $8 $-1 #
coedge $-1 -1 $-1 $28 $59 $20 $34 forward $17 $-1 #
edge $-1 -1 $-1 $60 3.499999999999996447 $40 3.999999999999994671 $20 $61 forward @7 unknown #
coedge $-1 -1 $-1 $21 $62 $63 $64 reversed $8 $-1 #
coedge $-1 -1 $-1 $65 $30 $21 $37 forward $53 $-1 #
edge $-1 -1 $-1 $39 0 $66 27.89999999999999858 $21 $67 forward @7 unknown #
coedge $-1 -1 $-1 $22 $29 $28 $49 forward $12 $-1 #
vertex $-1 -1 $-1 $23 $68 #
vertex $-1 -1 $-1 $23 $69 #
straight-curve $-1 -1 $-1 363.5 -54.5 0.4500000000000000666 -1 1.224646799146999945e-16 0 F 0 F 10.49999999999997158 #
DXID-attrib $-1 -1 $-1 $-1 $25 @10 ASM ENTITY @1 4 #
face $70 -1 $-1 $71 $72 $4 $-1 $73 reversed single #
loop $-1 -1 $-1 $-1 $74 $25 #
plane-surface $-1 -1 $-1 363.0000000000000568 -44 -30.01000000000000512 -1 1.224646799146999945e-16 0 0 0 1 forward_v I I I I #
loop $-1 -1 $-1 $-1 $75 $16 #
coedge $-1 -1 $-1 $76 $77 $78 $79 reversed $26 $-1 #
coedge $-1 -1 $-1 $80 $28 $81 $82 forward $17 $-1 #
edge $-1 -1 $-1 $83 0 $40 2.600000000000000089 $38 $84 forward @7 unknown #
coedge $-1 -1 $-1 $85 $81 $29 $51 forward $86 $-1 #
edge $-1 -1 $-1 $83 19.10000000000003695 $54 32.20000000000005969 $29 $87 forward @7 unknown #
coedge $-1 -1 $-1 $30 $65 $85 $88 reversed $53 $-1 #
loop $-1 -1 $-1 $-1 $52 $89 #
vertex $-1 -1 $-1 $31 $90 #
straight-curve $-1 -1 $-1 366.1000000000000796 -54.5 3.049999999999999822 -0.7071067811870000996 8.659560562354999418e-17 -0.7071067811870000996 F 0 F 3.676955262167729277 #
coedge $-1 -1 $-1 $91 $32 $92 $93 reversed $8 $-1 #
coedge $-1 -1 $-1 $94 $95 $32 $58 reversed $26 $-1 #
edge $-1 -1 $-1 $60 -10.24999999999998579 $96 -0.2499999999999857891 $32 $97 forward @7 unknown #
coedge $-1 -1 $-1 $33 $98 $94 $99 reversed $17 $-1 #
vertex $-1 -1 $-1 $34 $100 #
straight-curve $-1 -1 $-1 353.0000000000000568 -50.50000000000000711 0.4500000000000000666 -1.224646799146999945e-16 -1 0 F 3.499999999999996447 F 3.999999999999994671 #
coedge $-1 -1 $-1 $35 $101 $102 $103 forward $8 $-1 #
coedge $-1 -1 $-1 $104 $105 $35 $64 forward $106 $-1 #
edge $-1 -1 $-1 $66 0 $107 27.00000000000002842 $35 $108 forward @7 unknown #
coedge $-1 -1 $-1 $52 $36 $105 $109 reversed $53 $-1 #
vertex $-1 -1 $-1 $64 $110 #
straight-curve $-1 -1 $-1 363.5 -54.5 0.4500000000000000666 1.224646799146999945e-16 1 0 F 0 F 27.89999999999999858 #
point $-1 -1 $-1 363.5 -54.5 0.4500000000000000666 #
point $-1 -1 $-1 353.0000000000000568 -54.5 0.4500000000000000666 #
DXID-attrib $-1 -1 $-1 $-1 $43 @10 ASM ENTITY @1 5 #
face $111 -1 $-1 $112 $113 $4 $-1 $114 forward single #
loop $-1 -1 $-1 $-1 $115 $43 #
plane-surface $-1 -1 $-1 363.0000000000000568 -44 -30.01000000000000512 -1.224646799146999945e-16 -1 0 0 0 1 forward_v I I I I #
coedge $-1 -1 $-1 $92 $116 $117 $118 forward $44 $-1 #
coedge $-1 -1 $-1 $119 $120 $121 $122 reversed $46 $-1 #
coedge $-1 -1 $-1 $123 $47 $124 $125 reversed $26 $-1 #
coedge $-1 -1 $-1 $47 $126 $127 $128 reversed $26 $-1 #
coedge $-1 -1 $-1 $129 $130 $47 $79 forward $113 $-1 #
edge $-1 -1 $-1 $131 18 $132 30.46000000000000085 $47 $133 forward @7 unknown #
coedge $-1 -1 $-1 $134 $48 $135 $136 reversed $17 $-1 #
coedge $-1 -1 $-1 $50 $137 $48 $82 reversed $86 $-1 #
edge $-1 -1 $-1 $83 0 $138 27.5 $48 $139 forward @7 unknown #
vertex $-1 -1 $-1 $51 $140 #
straight-curve $-1 -1 $-1 353.0000000000000568 -54.5 3.049999999999999822 0 0 -1 F 0 F 2.600000000000000089 #
coedge $-1 -1 $-1 $141 $50 $52 $88 forward $86 $-1 #
loop $-1 -1 $-1 $-1 $142 $143 #
straight-curve $-1 -1 $-1 333.8999999999999773 -54.5 3.049999999999999822 1 -1.224646799146999945e-16 0 F 19.10000000000003695 F 32.20000000000005969 #
edge $-1 -1 $-1 $54 0 $144 27.89999999999999858 $52 $145 forward @7 unknown #
face $146 -1 $-1 $143 $53 $4 $-1 $147 reversed single #
point $-1 -1 $-1 366.1000000000000796 -54.5 3.049999999999999822 #
coedge $-1 -1 $-1 $148 $56 $149 $150 reversed $8 $-1 #
coedge $-1 -1 $-1 $151 $74 $56 $93 forward $44 $-1 #
edge $-1 -1 $-1 $152 -5.250000000000003553 $96 4.749999999999996447 $56 $153 forward @7 unknown #
coedge $-1 -1 $-1 $154 $57 $59 $99 forward $26 $-1 #
coedge $-1 -1 $-1 $57 $155 $151 $156 forward $26 $-1 #
vertex $-1 -1 $-1 $58 $157 #
straight-curve $-1 -1 $-1 363.25 -54 0.4500000000000000666 1 -1.224646799146999945e-16 0 F -10.24999999999998579 F -0.2499999999999857891 #
coedge $-1 -1 $-1 $59 $158 $159 $160 forward $17 $-1 #
edge $-1 -1 $-1 $60 -22.95499999999999829 $161 -7.50500000000000167 $59 $162 forward @7 unknown #
point $-1 -1 $-1 353.0000000000000568 -54 0.4500000000000000666 #
coedge $-1 -1 $-1 $62 $163 $164 $165 forward $8 $-1 #
coedge $-1 -1 $-1 $166 $167 $62 $103 reversed $168 $-1 #
edge $-1 -1 $-1 $169 0 $107 27.89999999999999858 $62 $170 forward @7 unknown #
coedge $-1 -1 $-1 $171 $63 $167 $172 forward $106 $-1 #
coedge $-1 -1 $-1 $63 $171 $65 $109 forward $106 $-1 #
loop $-1 -1 $-1 $-1 $63 $173 #
vertex $-1 -1 $-1 $103 $174 #
straight-curve $-1 -1 $-1 363.5 -26.60000000000000142 0.4500000000000000666 -1 1.224646799146999945e-16 0 F 0 F 27.00000000000002842 #
edge $-1 -1 $-1 $144 0 $66 3.676955262167729277 $105 $175 forward @7 unknown #
point $-1 -1 $-1 363.5 -26.60000000000000142 0.4500000000000000666 #
DXID-attrib $-1 -1 $-1 $-1 $71 @10 ASM ENTITY @1 6 #
face $176 -1 $-1 $177 $178 $4 $-1 $179 reversed single #
loop $-1 -1 $-1 $-1 $180 $71 #
plane-surface $-1 -1 $-1 337 -44 -30.01000000000000512 -1 1.224646799146999945e-16 0 0 0 1 forward_v I I I I #
coedge $-1 -1 $-1 $149 $181 $180 $182 forward $72 $-1 #
coedge $-1 -1 $-1 $74 $151 $183 $184 forward $44 $-1 #
coedge $-1 -1 $-1 $185 $149 $74 $118 reversed $72 $-1 #
edge $-1 -1 $-1 $186 18 $152 30.46000000000000085 $74 $187 forward @7 unknown #
coedge $-1 -1 $-1 $188 $75 $189 $190 forward $46 $-1 #
coedge $-1 -1 $-1 $75 $191 $192 $193 forward $46 $-1 #
coedge $-1 -1 $-1 $194 $195 $75 $122 forward $196 $-1 #
edge $-1 -1 $-1 $197 0.244999999999997442 $198 3.245000000000000107 $75 $199 forward @7 unknown #
coedge $-1 -1 $-1 $200 $76 $201 $202 forward $26 $-1 #
coedge $-1 -1 $-1 $203 $204 $76 $125 forward $205 $-1 #
edge $-1 -1 $-1 $206 0.01414213562370777999 $131 25.45584412269942121 $76 $207 forward @7 unknown #
coedge $-1 -1 $-1 $77 $154 $208 $209 reversed $26 $-1 #
coedge $-1 -1 $-1 $163 $148 $77 $128 forward $8 $-1 #
edge $-1 -1 $-1 $132 -26.25 $210 -16.25 $127 $211 forward @7 unknown #
coedge $-1 -1 $-1 $180 $78 $148 $212 reversed $113 $-1 #
coedge $-1 -1 $-1 $78 $180 $203 $213 forward $113 $-1 #
vertex $-1 -1 $-1 $79 $214 #
vertex $-1 -1 $-1 $212 $215 #
straight-curve $-1 -1 $-1 337 -54 -30.01000000000000512 0 0 1 F 18 F 30.46000000000000085 #
coedge $-1 -1 $-1 $216 $80 $217 $218 forward $17 $-1 #
coedge $-1 -1 $-1 $219 $220 $80 $136 forward $221 $-1 #
edge $-1 -1 $-1 $222 0 $138 1.499999999999999556 $80 $223 forward @7 unknown #
coedge $-1 -1 $-1 $81 $224 $219 $225 reversed $86 $-1 #
vertex $-1 -1 $-1 $82 $226 #
straight-curve $-1 -1 $-1 353.0000000000000568 -54.5 3.049999999999999822 1.224646799146999945e-16 1 0 F 0 F 27.5 #
point $-1 -1 $-1 353.0000000000000568 -54.5 3.049999999999999822 #
coedge $-1 -1 $-1 $227 $85 $171 $228 reversed $86 $-1 #
coedge $-1 -1 $-1 $224 $227 $229 $230 forward $86 $-1 #
face $231 -1 $-1 $232 $86 $4 $-1 $233 reversed single #
vertex $-1 -1 $-1 $228 $234 #
straight-curve $-1 -1 $-1 366.1000000000000796 -54.5 3.049999999999999822 1.224646799146999945e-16 1 0 F 0 F 27.89999999999999858 #
DXID-attrib $-1 -1 $-1 $-1 $89 @10 ASM ENTITY @2 11 #
plane-surface $-1 -1 $-1 366.1000000000000796 -54.5 3.049999999999999822 -0.7071067811865475727 8.659560562349458903e-17 0.7071067811865475727 -0.7071067811865476838 8.659560562349461368e-17 -0.7071067811865476838 forward_v I I I I #
coedge $-1 -1 $-1 $127 $91 $129 $212 forward $8 $-1 #
coedge $-1 -1 $-1 $117 $115 $91 $150 forward $72 $-1 #
edge $-1 -1 $-1 $235 -26.25 $152 -0.2499999999999857891 $91 $236 forward @7 unknown #
coedge $-1 -1 $-1 $116 $92 $95 $156 reversed $44 $-1 #
vertex $-1 -1 $-1 $93 $237 #
straight-curve $-1 -1 $-1 363.0000000000000568 -49.25000000000000711 0.4500000000000000666 -1.224646799146999945e-16 -1 0 F -5.250000000000003553 F 4.749999999999996447 #
coedge $-1 -1 $-1 $126 $94 $238 $239 forward $26 $-1 #
coedge $-1 -1 $-1 $95 $240 $241 $242 forward $26 $-1 #
edge $-1 -1 $-1 $243 18 $96 30.46000000000000085 $95 $244 forward @7 unknown #
point $-1 -1 $-1 363.0000000000000568 -54 0.4500000000000000666 #
coedge $-1 -1 $-1 $98 $245 $246 $247 forward $17 $-1 #
coedge $-1 -1 $-1 $248 $238 $98 $160 reversed $249 $-1 #
edge $-1 -1 $-1 $250 5 $161 7.5 $98 $251 forward @7 unknown #
vertex $-1 -1 $-1 $160 $252 #
straight-curve $-1 -1 $-1 353.0000000000000568 -54 -22.50500000000000256 0 0 -1 F -22.95499999999999829 F -7.50500000000000167 #
coedge $-1 -1 $-1 $101 $127 $253 $254 forward $8 $-1 #
coedge $-1 -1 $-1 $255 $256 $101 $165 reversed $257 $-1 #
edge $-1 -1 $-1 $258 16.49999999999998579 $169 27.00000000000002842 $101 $259 forward @7 unknown #
coedge $-1 -1 $-1 $260 $102 $256 $261 forward $168 $-1 #
coedge $-1 -1 $-1 $102 $260 $104 $172 reversed $168 $-1 #
loop $-1 -1 $-1 $-1 $102 $262 #
vertex $-1 -1 $-1 $165 $263 #
straight-curve $-1 -1 $-1 336.5 -54.5 0.4500000000000000666 1.224646799146999945e-16 1 0 F 0 F 27.89999999999999858 #
coedge $-1 -1 $-1 $105 $104 $141 $228 forward $106 $-1 #
edge $-1 -1 $-1 $107 0 $264 3.676955262167679539 $167 $265 forward @7 unknown #
face $266 -1 $-1 $89 $106 $4 $-1 $267 forward single #
point $-1 -1 $-1 336.5 -26.60000000000000142 0.4500000000000000666 #
straight-curve $-1 -1 $-1 366.1000000000000796 -26.60000000000000142 3.049999999999999822 -0.7071067811870000996 8.659560562354999418e-17 -0.7071067811870000996 F 0 F 3.676955262167729277 #
DXID-attrib $-1 -1 $-1 $-1 $112 @10 ASM ENTITY @1 7 #
face $268 -1 $-1 $262 $257 $4 $-1 $269 reversed single #
loop $-1 -1 $-1 $-1 $270 $112 #
plane-surface $-1 -1 $-1 347 -46.5 -15 -1 1.224646799146999945e-16 0 0 0 1 forward_v I I I I #
coedge $-1 -1 $-1 $130 $129 $115 $182 reversed $113 $-1 #
coedge $-1 -1 $-1 $115 $271 $272 $273 forward $72 $-1 #
edge $-1 -1 $-1 $274 18 $235 30.46000000000000085 $115 $275 forward @7 unknown #
coedge $-1 -1 $-1 $241 $276 $116 $184 reversed $277 $-1 #
edge $-1 -1 $-1 $243 -5 $186 5 $116 $278 forward @7 unknown #
coedge $-1 -1 $-1 $279 $117 $276 $280 reversed $72 $-1 #
vertex $-1 -1 $-1 $118 $281 #
straight-curve $-1 -1 $-1 363.0000000000000568 -44 -30.01000000000000512 0 0 1 F 18 F 30.46000000000000085 #
coedge $-1 -1 $-1 $282 $119 $283 $284 reversed $46 $-1 #
coedge $-1 -1 $-1 $285 $286 $119 $190 reversed $287 $-1 #
edge $-1 -1 $-1 $197 0 $288 1.30000000000002558 $119 $289 forward @7 unknown #
coedge $-1 -1 $-1 $120 $290 $291 $292 reversed $46 $-1 #
coedge $-1 -1 $-1 $293 $294 $120 $193 reversed $295 $-1 #
edge $-1 -1 $-1 $296 11.64999999999999147 $198 12.95000000000001705 $120 $297 forward @7 unknown #
coedge $-1 -1 $-1 $298 $121 $294 $299 reversed $196 $-1 #
coedge $-1 -1 $-1 $121 $298 $285 $300 forward $196 $-1 #
loop $-1 -1 $-1 $-1 $195 $301 #
vertex $-1 -1 $-1 $122 $302 #
vertex $-1 -1 $-1 $122 $303 #
straight-curve $-1 -1 $-1 345.6999999999999886 -54 -33.25500000000000256 0 0 -1 F 0.244999999999997442 F 3.245000000000000107 #
coedge $-1 -1 $-1 $304 $123 $305 $306 reversed $26 $-1 #
coedge $-1 -1 $-1 $307 $308 $123 $202 reversed $309 $-1 #
edge $-1 -1 $-1 $206 78.48999999999999488 $310 95 $123 $311 forward @7 unknown #
coedge $-1 -1 $-1 $272 $124 $130 $213 reversed $205 $-1 #
coedge $-1 -1 $-1 $124 $272 $307 $312 reversed $205 $-1 #
loop $-1 -1 $-1 $-1 $124 $313 #
vertex $-1 -1 $-1 $125 $314 #
straight-curve $-1 -1 $-1 319 -54 -30.01000000000000512 0.7071067811870000996 -8.659560562354999418e-17 0.7071067811870000996 F 0.01414213562370777999 F 25.45584412269942121 #
coedge $-1 -1 $-1 $315 $253 $126 $209 forward $178 $-1 #
edge $-1 -1 $-1 $210 -22.95499999999999829 $316 -7.50500000000000167 $126 $317 forward @7 unknown #
vertex $-1 -1 $-1 $128 $318 #
straight-curve $-1 -1 $-1 363.25 -54 0.4500000000000000666 1 -1.224646799146999945e-16 0 F -26.25 F -16.25 #
edge $-1 -1 $-1 $235 -5.250000000000003553 $132 4.749999999999996447 $148 $319 forward @7 unknown #
edge $-1 -1 $-1 $274 -5 $131 5 $130 $320 forward @7 unknown #
point $-1 -1 $-1 337 -54 -12.01000000000000156 #
point $-1 -1 $-1 337 -54 0.4500000000000000666 #
coedge $-1 -1 $-1 $321 $134 $322 $323 forward $17 $-1 #
coedge $-1 -1 $-1 $324 $325 $134 $218 reversed $326 $-1 #
edge $-1 -1 $-1 $222 0 $327 19.5 $134 $328 forward @7 unknown #
coedge $-1 -1 $-1 $329 $135 $137 $225 forward $221 $-1 #
coedge $-1 -1 $-1 $135 $329 $324 $330 reversed $221 $-1 #
loop $-1 -1 $-1 $-1 $329 $232 #
vertex $-1 -1 $-1 $136 $331 #
straight-curve $-1 -1 $-1 353.0000000000000568 -27 1.550000000000000266 0 0 1 F 0 F 1.499999999999999556 #
coedge $-1 -1 $-1 $137 $142 $332 $333 reversed $86 $-1 #
edge $-1 -1 $-1 $138 -9.550000000000054001 $334 -3.55000000000003979 $137 $335 forward @7 unknown #
point $-1 -1 $-1 353.0000000000000568 -27 3.049999999999999822 #
coedge $-1 -1 $-1 $142 $141 $260 $336 reversed $86 $-1 #
edge $-1 -1 $-1 $264 0 $144 32.20000000000005969 $171 $337 forward @7 unknown #
coedge $-1 -1 $-1 $256 $255 $142 $230 reversed $257 $-1 #
edge $-1 -1 $-1 $338 0 $339 13.10000000000002274 $229 $340 forward @7 unknown #
DXID-attrib $-1 -1 $-1 $-1 $143 @10 ASM ENTITY @2 12 #
face $341 -1 $-1 $342 $221 $4 $-1 $343 forward single #
plane-surface $-1 -1 $-1 333.8999999999999773 -54.5 3.049999999999999822 0 0 -1 1 -1.224646799146999945e-16 0 forward_v I I I I #
point $-1 -1 $-1 366.1000000000000796 -26.60000000000000142 3.049999999999999822 #
vertex $-1 -1 $-1 $150 $344 #
straight-curve $-1 -1 $-1 363.25 -44 0.4500000000000000666 1 -1.224646799146999945e-16 0 F -26.25 F -0.2499999999999857891 #
point $-1 -1 $-1 363.0000000000000568 -44 0.4500000000000000666 #
coedge $-1 -1 $-1 $159 $345 $154 $239 reversed $249 $-1 #
edge $-1 -1 $-1 $161 5 $316 11.00000000000001421 $154 $346 forward @7 unknown #
coedge $-1 -1 $-1 $155 $347 $348 $349 forward $26 $-1 #
coedge $-1 -1 $-1 $350 $183 $155 $242 reversed $277 $-1 #
edge $-1 -1 $-1 $351 0.01414213562370777999 $243 25.45584412269939634 $155 $352 forward @7 unknown #
vertex $-1 -1 $-1 $242 $353 #
straight-curve $-1 -1 $-1 363.0000000000000568 -54 -30.01000000000000512 0 0 1 F 18 F 30.46000000000000085 #
coedge $-1 -1 $-1 $158 $354 $355 $356 reversed $17 $-1 #
coedge $-1 -1 $-1 $357 $358 $158 $247 reversed $359 $-1 #
edge $-1 -1 $-1 $360 0.0100000000000011191 $250 4.010000000000002451 $158 $361 forward @7 unknown #
coedge $-1 -1 $-1 $345 $159 $358 $362 reversed $249 $-1 #
loop $-1 -1 $-1 $-1 $159 $363 #
vertex $-1 -1 $-1 $247 $364 #
straight-curve $-1 -1 $-1 353.0000000000000568 -46.5 -15 -1.224646799146999945e-16 -1 0 F 5 F 7.5 #
point $-1 -1 $-1 353.0000000000000568 -54 -15 #
coedge $-1 -1 $-1 $208 $365 $163 $254 reversed $178 $-1 #
edge $-1 -1 $-1 $210 3.499999999999996447 $258 3.999999999999994671 $163 $366 forward @7 unknown #
coedge $-1 -1 $-1 $229 $164 $365 $367 reversed $257 $-1 #
coedge $-1 -1 $-1 $164 $229 $166 $261 reversed $257 $-1 #
loop $-1 -1 $-1 $-1 $255 $177 #
vertex $-1 -1 $-1 $254 $368 #
straight-curve $-1 -1 $-1 363.5 -54.5 0.4500000000000000666 -1 1.224646799146999945e-16 0 F 16.49999999999998579 F 27.00000000000002842 #
coedge $-1 -1 $-1 $167 $166 $227 $336 forward $168 $-1 #
edge $-1 -1 $-1 $169 0 $338 3.676955262167679539 $256 $369 forward @7 unknown #
face $370 -1 $-1 $173 $168 $4 $-1 $371 reversed single #
point $-1 -1 $-1 336.5 -54.5 0.4500000000000000666 #
vertex $-1 -1 $-1 $336 $372 #
straight-curve $-1 -1 $-1 336.5 -26.60000000000000142 0.4500000000000000666 -0.7071067811870000996 8.659560562354999418e-17 0.7071067811870000996 F 0 F 3.676955262167679539 #
DXID-attrib $-1 -1 $-1 $-1 $173 @10 ASM ENTITY @2 10 #
plane-surface $-1 -1 $-1 350 -26.60000000000000142 1.851571792652999981 1.224646799146999945e-16 1 0 0 0 -1 forward_v I I I I #
DXID-attrib $-1 -1 $-1 $-1 $177 @10 ASM ENTITY @1 8 #
plane-surface $-1 -1 $-1 350 -54.5 1.851571792652999981 1.224646799146999945e-16 1 0 0 0 -1 forward_v I I I I #
coedge $-1 -1 $-1 $373 $374 $375 $376 forward $178 $-1 #
coedge $-1 -1 $-1 $181 $377 $378 $379 forward $72 $-1 #
coedge $-1 -1 $-1 $204 $203 $181 $273 reversed $205 $-1 #
edge $-1 -1 $-1 $380 0.01414213562370777999 $274 25.45584412269942121 $181 $381 forward @7 unknown #
vertex $-1 -1 $-1 $182 $382 #
straight-curve $-1 -1 $-1 337 -44 -30.01000000000000512 0 0 1 F 18 F 30.46000000000000085 #
coedge $-1 -1 $-1 $183 $350 $185 $280 forward $277 $-1 #
loop $-1 -1 $-1 $-1 $241 $383 #
straight-curve $-1 -1 $-1 363.0000000000000568 -49 -12.01000000000000156 1.224646799146999945e-16 1 0 F -5 F 5 #
coedge $-1 -1 $-1 $384 $185 $385 $386 forward $72 $-1 #
edge $-1 -1 $-1 $387 0.01414213562370777999 $186 25.45584412269939634 $185 $388 forward @7 unknown #
point $-1 -1 $-1 363.0000000000000568 -44 -12.01000000000000156 #
coedge $-1 -1 $-1 $389 $188 $390 $391 reversed $46 $-1 #
coedge $-1 -1 $-1 $374 $392 $188 $284 forward $178 $-1 #
edge $-1 -1 $-1 $393 -15.00500000000000256 $288 -0.5050000000000043343 $188 $394 forward @7 unknown #
coedge $-1 -1 $-1 $395 $189 $195 $300 reversed $287 $-1 #
coedge $-1 -1 $-1 $189 $396 $374 $397 forward $287 $-1 #
loop $-1 -1 $-1 $398 $399 $400 #
vertex $-1 -1 $-1 $190 $401 #
straight-curve $-1 -1 $-1 345.6999999999999886 -54 -33.5 1 -1.224646799146999945e-16 0 F 0 F 1.30000000000002558 #
coedge $-1 -1 $-1 $191 $402 $403 $404 forward $46 $-1 #
coedge $-1 -1 $-1 $405 $406 $191 $292 forward $407 $-1 #
edge $-1 -1 $-1 $296 2.49499999999999833 $408 3.994999999999997442 $191 $409 forward @7 unknown #
coedge $-1 -1 $-1 $410 $192 $406 $411 forward $295 $-1 #
coedge $-1 -1 $-1 $192 $412 $194 $299 forward $295 $-1 #
loop $-1 -1 $-1 $413 $414 $415 #
vertex $-1 -1 $-1 $292 $416 #
straight-curve $-1 -1 $-1 358.6500000000000341 -54 -36.5 -1 1.224646799146999945e-16 0 F 11.64999999999999147 F 12.95000000000001705 #
coedge $-1 -1 $-1 $195 $194 $417 $418 forward $196 $-1 #
edge $-1 -1 $-1 $419 0 $198 40.29999999999999716 $194 $420 forward @7 unknown #
edge $-1 -1 $-1 $421 0 $197 40.29999999999999716 $285 $422 forward @7 unknown #
face $423 -1 $-1 $415 $196 $4 $-1 $424 reversed single #
point $-1 -1 $-1 345.6999999999999886 -54 -33.5 #
point $-1 -1 $-1 345.6999999999999886 -54 -36.5 #
coedge $-1 -1 $-1 $347 $200 $425 $426 reversed $26 $-1 #
coedge $-1 -1 $-1 $427 $428 $200 $306 forward $429 $-1 #
edge $-1 -1 $-1 $430 0 $310 10 $200 $431 forward @7 unknown #
coedge $-1 -1 $-1 $378 $201 $204 $312 forward $309 $-1 #
coedge $-1 -1 $-1 $201 $432 $427 $433 forward $309 $-1 #
loop $-1 -1 $-1 $-1 $348 $434 #
vertex $-1 -1 $-1 $202 $435 #
straight-curve $-1 -1 $-1 397.5 -54 -30 -1 1.224646799146999945e-16 0 F 78.48999999999999488 F 95 #
edge $-1 -1 $-1 $206 -29.5 $380 -19.5 $307 $436 forward @7 unknown #
face $437 -1 $-1 $301 $205 $4 $-1 $438 reversed single #
point $-1 -1 $-1 319.0099999999999909 -54 -30 #
coedge $-1 -1 $-1 $439 $208 $345 $440 reversed $178 $-1 #
vertex $-1 -1 $-1 $239 $441 #
straight-curve $-1 -1 $-1 347 -54 -22.50500000000000256 0 0 -1 F -22.95499999999999829 F -7.50500000000000167 #
point $-1 -1 $-1 347 -54 0.4500000000000000666 #
straight-curve $-1 -1 $-1 337 -49.25000000000000711 0.4500000000000000666 -1.224646799146999945e-16 -1 0 F -5.250000000000003553 F 4.749999999999996447 #
straight-curve $-1 -1 $-1 337 -49 -12.01000000000000156 -1.224646799146999945e-16 -1 0 F -5 F 5 #
coedge $-1 -1 $-1 $354 $216 $442 $443 forward $17 $-1 #
coedge $-1 -1 $-1 $444 $445 $216 $323 reversed $446 $-1 #
edge $-1 -1 $-1 $327 1.499999999999999556 $447 36.54999999999999716 $216 $448 forward @7 unknown #
coedge $-1 -1 $-1 $449 $217 $220 $330 forward $326 $-1 #
coedge $-1 -1 $-1 $217 $449 $444 $450 reversed $326 $-1 #
loop $-1 -1 $-1 $-1 $217 $342 #
vertex $-1 -1 $-1 $218 $451 #
straight-curve $-1 -1 $-1 353.0000000000000568 -27 1.550000000000000266 -1.224646799146999945e-16 -1 0 F 0 F 19.5 #
coedge $-1 -1 $-1 $220 $219 $452 $453 reversed $221 $-1 #
edge $-1 -1 $-1 $222 0 $454 6.000000000000014211 $220 $455 forward @7 unknown #
point $-1 -1 $-1 353.0000000000000568 -27 1.550000000000000266 #
coedge $-1 -1 $-1 $365 $452 $224 $333 forward $178 $-1 #
edge $-1 -1 $-1 $334 0 $339 27.5 $332 $456 forward @7 unknown #
vertex $-1 -1 $-1 $453 $457 #
straight-curve $-1 -1 $-1 343.4499999999999886 -27 3.049999999999999822 -1 1.224646799146999945e-16 0 F -9.550000000000054001 F -3.55000000000003979 #
edge $-1 -1 $-1 $338 0 $264 27.89999999999999858 $260 $458 forward @7 unknown #
straight-curve $-1 -1 $-1 333.8999999999999773 -26.60000000000000142 3.049999999999999822 1 -1.224646799146999945e-16 0 F 0 F 32.20000000000005969 #
vertex $-1 -1 $-1 $230 $459 #
vertex $-1 -1 $-1 $333 $460 #
straight-curve $-1 -1 $-1 333.8999999999999773 -54.5 3.049999999999999822 1 -1.224646799146999945e-16 0 F 0 F 13.10000000000002274 #
DXID-attrib $-1 -1 $-1 $-1 $232 @10 ASM ENTITY @2 13 #
face $461 -1 $-1 $462 $326 $4 $-1 $463 forward single #
plane-surface $-1 -1 $-1 353.0000000000000568 -27 1.550000000000000266 -1.224646799146999945e-16 -1 0 0 0 1 forward_v I I I I #
point $-1 -1 $-1 337 -44 0.4500000000000000666 #
coedge $-1 -1 $-1 $238 $248 $315 $440 forward $249 $-1 #
straight-curve $-1 -1 $-1 358.0000000000000568 -54 -15 -1 1.224646799146999945e-16 0 F 5 F 11.00000000000001421 #
coedge $-1 -1 $-1 $240 $304 $464 $465 forward $26 $-1 #
coedge $-1 -1 $-1 $466 $467 $240 $349 reversed $309 $-1 #
edge $-1 -1 $-1 $468 0 $351 16.50999999999996248 $240 $469 forward @7 unknown #
coedge $-1 -1 $-1 $276 $241 $467 $470 forward $277 $-1 #
vertex $-1 -1 $-1 $349 $471 #
straight-curve $-1 -1 $-1 381 -54 -30.01000000000000512 -0.7071067811870000996 8.659560562354999418e-17 0.7071067811870000996 F 0.01414213562370777999 F 25.45584412269939634 #
point $-1 -1 $-1 363.0000000000000568 -54 -12.01000000000000156 #
coedge $-1 -1 $-1 $245 $321 $389 $472 reversed $17 $-1 #
coedge $-1 -1 $-1 $390 $473 $245 $356 forward $474 $-1 #
edge $-1 -1 $-1 $360 5 $475 7.5 $245 $476 forward @7 unknown #
coedge $-1 -1 $-1 $477 $246 $473 $478 reversed $359 $-1 #
coedge $-1 -1 $-1 $246 $477 $248 $362 forward $359 $-1 #
loop $-1 -1 $-1 $-1 $477 $479 #
vertex $-1 -1 $-1 $356 $480 #
straight-curve $-1 -1 $-1 353.0000000000000568 -51.5 -19.01000000000000156 0 0 1 F 0.0100000000000011191 F 4.010000000000002451 #
edge $-1 -1 $-1 $481 -6.000000000000014211 $250 0 $358 $482 forward @7 unknown #
face $483 -1 $-1 $383 $249 $4 $-1 $484 forward single #
point $-1 -1 $-1 353.0000000000000568 -51.5 -15 #
coedge $-1 -1 $-1 $253 $332 $255 $367 forward $178 $-1 #
straight-curve $-1 -1 $-1 347 -50.50000000000000711 0.4500000000000000666 -1.224646799146999945e-16 -1 0 F 3.499999999999996447 F 3.999999999999994671 #
edge $-1 -1 $-1 $339 0 $258 2.600000000000000089 $365 $485 forward @7 unknown #
point $-1 -1 $-1 347 -54.5 0.4500000000000000666 #
straight-curve $-1 -1 $-1 336.5 -54.5 0.4500000000000000666 -0.7071067811870000996 8.659560562354999418e-17 0.7071067811870000996 F 0 F 3.676955262167679539 #
DXID-attrib $-1 -1 $-1 $-1 $262 @10 ASM ENTITY @1 9 #
plane-surface $-1 -1 $-1 336.5 -54.5 0.4500000000000000666 0.7071067811865475727 -8.659560562349458903e-17 0.7071067811865475727 -0.7071067811865476838 8.659560562349461368e-17 0.7071067811865476838 forward_v I I I I #
point $-1 -1 $-1 333.8999999999999773 -26.60000000000000142 3.049999999999999822 #
coedge $-1 -1 $-1 $452 $270 $449 $486 reversed $178 $-1 #
coedge $-1 -1 $-1 $270 $283 $286 $397 reversed $178 $-1 #
coedge $-1 -1 $-1 $445 $444 $270 $376 reversed $446 $-1 #
edge $-1 -1 $-1 $487 0 $488 35.04999999999999716 $270 $489 forward @7 unknown #
coedge $-1 -1 $-1 $271 $490 $491 $492 reversed $72 $-1 #
coedge $-1 -1 $-1 $493 $307 $271 $379 reversed $309 $-1 #
edge $-1 -1 $-1 $494 43.99000000000000909 $380 61.98000000000003951 $271 $495 forward @7 unknown #
vertex $-1 -1 $-1 $379 $496 #
straight-curve $-1 -1 $-1 319 -44 -30.01000000000000512 0.7071067811870000996 -8.659560562354999418e-17 0.7071067811870000996 F 0.01414213562370777999 F 25.45584412269942121 #
point $-1 -1 $-1 337 -44 -12.01000000000000156 #
face $497 -1 $-1 $434 $277 $4 $-1 $498 forward single #
coedge $-1 -1 $-1 $499 $279 $500 $501 forward $72 $-1 #
coedge $-1 -1 $-1 $467 $502 $279 $386 reversed $309 $-1 #
edge $-1 -1 $-1 $387 0 $503 17.98999999999999488 $279 $504 forward @7 unknown #
vertex $-1 -1 $-1 $280 $505 #
straight-curve $-1 -1 $-1 381 -44 -30.01000000000000512 -0.7071067811870000996 8.659560562354999418e-17 0.7071067811870000996 F 0.01414213562370777999 F 25.45584412269939634 #
coedge $-1 -1 $-1 $506 $282 $354 $472 forward $46 $-1 #
coedge $-1 -1 $-1 $507 $355 $282 $391 forward $474 $-1 #
edge $-1 -1 $-1 $475 5 $393 11.00000000000001421 $282 $508 forward @7 unknown #
coedge $-1 -1 $-1 $283 $439 $507 $509 forward $178 $-1 #
vertex $-1 -1 $-1 $284 $510 #
straight-curve $-1 -1 $-1 347 -54 -34.00500000000000256 0 0 -1 F -15.00500000000000256 F -0.5050000000000043343 #
coedge $-1 -1 $-1 $399 $285 $511 $512 reversed $287 $-1 #
coedge $-1 -1 $-1 $286 $442 $445 $513 reversed $287 $-1 #
edge $-1 -1 $-1 $487 16.39999999999999858 $288 23.89999999999999858 $374 $514 forward @7 unknown #
loop $-1 -1 $-1 $-1 $515 $400 #
coedge $-1 -1 $-1 $516 $395 $517 $518 forward $287 $-1 #
face $519 -1 $-1 $520 $287 $4 $-1 $521 reversed single #
point $-1 -1 $-1 347 -54 -33.5 #
coedge $-1 -1 $-1 $290 $522 $523 $524 forward $46 $-1 #
coedge $-1 -1 $-1 $525 $526 $290 $404 reversed $527 $-1 #
edge $-1 -1 $-1 $528 5 $408 11.00000000000001421 $290 $529 forward @7 unknown #
coedge $-1 -1 $-1 $530 $291 $526 $531 forward $407 $-1 #
coedge $-1 -1 $-1 $291 $530 $293 $411 reversed $407 $-1 #
loop $-1 -1 $-1 $-1 $406 $532 #
vertex $-1 -1 $-1 $404 $533 #
straight-curve $-1 -1 $-1 347 -54 -34.00500000000000256 0 0 -1 F 2.49499999999999833 F 3.994999999999997442 #
coedge $-1 -1 $-1 $534 $293 $535 $536 forward $295 $-1 #
edge $-1 -1 $-1 $296 0 $537 28.5 $293 $538 forward @7 unknown #
coedge $-1 -1 $-1 $294 $414 $539 $540 forward $295 $-1 #
loop $-1 -1 $-1 $-1 $541 $415 #
coedge $-1 -1 $-1 $412 $542 $543 $544 reversed $295 $-1 #
face $545 -1 $-1 $532 $295 $4 $-1 $546 forward single #
point $-1 -1 $-1 347 -54 -36.5 #
coedge $-1 -1 $-1 $539 $511 $298 $418 reversed $547 $-1 #
edge $-1 -1 $-1 $419 0 $421 3.000000000000002665 $298 $548 forward @7 unknown #
vertex $-1 -1 $-1 $299 $549 #
straight-curve $-1 -1 $-1 345.6999999999999886 -13.70000000000000107 -36.5 -1.224646799146999945e-16 -1 0 F 0 F 40.29999999999999716 #
vertex $-1 -1 $-1 $300 $550 #
straight-curve $-1 -1 $-1 345.6999999999999886 -13.70000000000000107 -33.5 -1.224646799146999945e-16 -1 0 F 0 F 40.29999999999999716 #
DXID-attrib $-1 -1 $-1 $-1 $301 @10 ASM ENTITY @2 26 #
plane-surface $-1 -1 $-1 345.6999999999999886 -13.70000000000000107 -36.5 -1 1.224646799146999945e-16 0 0 0 1 forward_v I I I I #
coedge $-1 -1 $-1 $551 $552 $304 $426 forward $553 $-1 #
edge $-1 -1 $-1 $554 0 $430 95 $304 $555 forward @7 unknown #
coedge $-1 -1 $-1 $556 $305 $308 $433 reversed $429 $-1 #
coedge $-1 -1 $-1 $305 $557 $551 $558 forward $429 $-1 #
loop $-1 -1 $-1 $-1 $427 $559 #
vertex $-1 -1 $-1 $306 $560 #
straight-curve $-1 -1 $-1 302.5 -54 -40 0 0 1 F 0 F 10 #
coedge $-1 -1 $-1 $308 $466 $561 $562 reversed $309 $-1 #
edge $-1 -1 $-1 $563 30.5 $310 59 $308 $564 forward @7 unknown #
face $565 -1 $-1 $566 $309 $4 $-1 $567 forward single #
point $-1 -1 $-1 302.5 -54 -30 #
straight-curve $-1 -1 $-1 319.0099999999999909 -24.5 -30 1.224646799146999945e-16 1 0 F -29.5 F -19.5 #
DXID-attrib $-1 -1 $-1 $-1 $313 @10 ASM ENTITY @2 25 #
plane-surface $-1 -1 $-1 319 -54 -30.01000000000000512 0.7071067811865475727 -8.659560562349458903e-17 -0.7071067811865475727 0.7071067811865476838 -8.659560562349461368e-17 0.7071067811865476838 forward_v I I I I #
coedge $-1 -1 $-1 $392 $315 $477 $568 reversed $178 $-1 #
edge $-1 -1 $-1 $481 5 $316 7.5 $315 $569 forward @7 unknown #
point $-1 -1 $-1 347 -54 -15 #
coedge $-1 -1 $-1 $396 $516 $321 $443 reversed $287 $-1 #
edge $-1 -1 $-1 $447 16.39999999999999858 $570 23.89999999999999858 $321 $571 forward @7 unknown #
coedge $-1 -1 $-1 $375 $322 $325 $450 forward $446 $-1 #
coedge $-1 -1 $-1 $322 $375 $396 $513 forward $446 $-1 #
loop $-1 -1 $-1 $-1 $375 $462 #
vertex $-1 -1 $-1 $323 $572 #
straight-curve $-1 -1 $-1 353.0000000000000568 -46.5 3.049999999999999822 0 0 -1 F 1.499999999999999556 F 36.54999999999999716 #
coedge $-1 -1 $-1 $325 $324 $373 $486 forward $326 $-1 #
edge $-1 -1 $-1 $327 0 $488 6.000000000000014211 $325 $573 forward @7 unknown #
point $-1 -1 $-1 353.0000000000000568 -46.5 1.550000000000000266 #
coedge $-1 -1 $-1 $332 $373 $329 $453 forward $178 $-1 #
edge $-1 -1 $-1 $454 0 $334 1.499999999999999556 $452 $574 forward @7 unknown #
vertex $-1 -1 $-1 $486 $575 #
straight-curve $-1 -1 $-1 353.0000000000000568 -27 1.550000000000000266 -1 1.224646799146999945e-16 0 F 0 F 6.000000000000014211 #
straight-curve $-1 -1 $-1 347 -27 3.049999999999999822 -1.224646799146999945e-16 -1 0 F 0 F 27.5 #
point $-1 -1 $-1 347 -27 3.049999999999999822 #
straight-curve $-1 -1 $-1 333.8999999999999773 -54.5 3.049999999999999822 1.224646799146999945e-16 1 0 F 0 F 27.89999999999999858 #
point $-1 -1 $-1 333.8999999999999773 -54.5 3.049999999999999822 #
point $-1 -1 $-1 347 -54.5 3.049999999999999822 #
DXID-attrib $-1 -1 $-1 $-1 $342 @10 ASM ENTITY @2 14 #
face $576 -1 $-1 $400 $446 $4 $-1 $577 forward single #
plane-surface $-1 -1 $-1 353.0000000000000568 -27 1.550000000000000266 0 0 1 -1 1.224646799146999945e-16 0 forward_v I I I I #
coedge $-1 -1 $-1 $578 $579 $347 $465 reversed $580 $-1 #
edge $-1 -1 $-1 $554 0 $468 10 $347 $581 forward @7 unknown #
coedge $-1 -1 $-1 $432 $348 $579 $582 reversed $309 $-1 #
coedge $-1 -1 $-1 $348 $385 $350 $470 reversed $309 $-1 #
vertex $-1 -1 $-1 $465 $583 #
straight-curve $-1 -1 $-1 397.5 -54 -30 -1 1.224646799146999945e-16 0 F 0 F 16.50999999999996248 #
edge $-1 -1 $-1 $351 -29.5 $387 -19.5 $350 $584 forward @7 unknown #
point $-1 -1 $-1 380.9900000000000091 -54 -30 #
edge $-1 -1 $-1 $475 -15.00500000000000256 $570 -0.5050000000000043343 $354 $585 forward @7 unknown #
coedge $-1 -1 $-1 $355 $507 $357 $478 forward $474 $-1 #
loop $-1 -1 $-1 $-1 $355 $520 #
vertex $-1 -1 $-1 $472 $586 #
straight-curve $-1 -1 $-1 353.0000000000000568 -46.5 -19 -1.224646799146999945e-16 -1 0 F 5 F 7.5 #
coedge $-1 -1 $-1 $358 $357 $439 $568 forward $359 $-1 #
edge $-1 -1 $-1 $587 -6.000000000000014211 $360 0 $473 $588 forward @7 unknown #
face $589 -1 $-1 $363 $359 $4 $-1 $590 reversed single #
point $-1 -1 $-1 353.0000000000000568 -51.5 -19 #
vertex $-1 -1 $-1 $440 $591 #
straight-curve $-1 -1 $-1 353.0000000000000568 -51.5 -15 1 -1.224646799146999945e-16 0 F -6.000000000000014211 F 0 #
DXID-attrib $-1 -1 $-1 $-1 $363 @10 ASM ENTITY @2 19 #
plane-surface $-1 -1 $-1 353.0000000000000568 -46.5 -15 0 0 1 -1 1.224646799146999945e-16 0 forward_v I I I I #
straight-curve $-1 -1 $-1 347 -54.5 3.049999999999999822 0 0 -1 F 0 F 2.600000000000000089 #
edge $-1 -1 $-1 $454 0 $488 19.5 $373 $592 forward @7 unknown #
vertex $-1 -1 $-1 $376 $593 #
vertex $-1 -1 $-1 $376 $594 #
straight-curve $-1 -1 $-1 347 -46.5 -33.5 0 0 1 F 0 F 35.04999999999999716 #
coedge $-1 -1 $-1 $377 $595 $596 $597 forward $72 $-1 #
coedge $-1 -1 $-1 $598 $599 $377 $492 forward $600 $-1 #
edge $-1 -1 $-1 $494 -1.405981329329999419 $601 6.584018670669999906 $377 $602 forward @7 unknown #
coedge $-1 -1 $-1 $603 $378 $599 $604 forward $309 $-1 #
vertex $-1 -1 $-1 $492 $605 #
straight-curve $-1 -1 $-1 380.9900000000000091 -44 -30 -1 1.224646799146999945e-16 0 F 43.99000000000000909 F 61.98000000000003951 #
point $-1 -1 $-1 319.0099999999999909 -44 -30 #
DXID-attrib $-1 -1 $-1 $-1 $383 @10 ASM ENTITY @2 20 #
plane-surface $-1 -1 $-1 381 -54 -30.01000000000000512 0.7071067811865475727 -8.659560562349458903e-17 0.7071067811865475727 -0.7071067811865476838 8.659560562349461368e-17 0.7071067811865476838 forward_v I I I I #
coedge $-1 -1 $-1 $606 $384 $607 $608 forward $72 $-1 #
coedge $-1 -1 $-1 $609 $610 $384 $501 reversed $611 $-1 #
edge $-1 -1 $-1 $503 -1.405981329329999419 $612 6.584018670669999906 $384 $613 forward @7 unknown #
coedge $-1 -1 $-1 $385 $614 $609 $615 reversed $309 $-1 #
vertex $-1 -1 $-1 $386 $616 #
straight-curve $-1 -1 $-1 380.9900000000000091 -44 -30 -1 1.224646799146999945e-16 0 F 0 F 17.98999999999999488 #
point $-1 -1 $-1 380.9900000000000091 -44 -30 #
coedge $-1 -1 $-1 $617 $389 $516 $618 forward $46 $-1 #
coedge $-1 -1 $-1 $473 $390 $392 $509 reversed $474 $-1 #
straight-curve $-1 -1 $-1 358.0000000000000568 -54 -19 -1 1.224646799146999945e-16 0 F 5 F 11.00000000000001421 #
edge $-1 -1 $-1 $587 5 $393 7.5 $392 $619 forward @7 unknown #
point $-1 -1 $-1 347 -54 -19 #
coedge $-1 -1 $-1 $417 $620 $395 $512 forward $547 $-1 #
edge $-1 -1 $-1 $621 0 $421 8.599999999999994316 $395 $622 forward @7 unknown #
edge $-1 -1 $-1 $487 -6.649999999999991473 $447 -0.6499999999999772626 $445 $623 forward @7 unknown #
straight-curve $-1 -1 $-1 347 -30.10000000000000142 -33.5 -1.224646799146999945e-16 -1 0 F 16.39999999999999858 F 23.89999999999999858 #
coedge $-1 -1 $-1 $515 $515 $624 $625 forward $398 $-1 #
coedge $-1 -1 $-1 $442 $399 $506 $618 reversed $287 $-1 #
coedge $-1 -1 $-1 $626 $627 $399 $518 reversed $628 $-1 #
edge $-1 -1 $-1 $621 0 $629 40.29999999999999716 $399 $630 forward @7 unknown #
DXID-attrib $-1 -1 $-1 $-1 $400 @10 ASM ENTITY @2 16 #
face $631 -1 $-1 $479 $474 $4 $-1 $632 reversed single #
plane-surface $-1 -1 $-1 354.3000000000000114 -13.70000000000000107 -33.5 0 0 1 -1 1.224646799146999945e-16 0 forward_v I I I I #
coedge $-1 -1 $-1 $402 $617 $542 $633 forward $46 $-1 #
coedge $-1 -1 $-1 $634 $635 $402 $524 reversed $636 $-1 #
edge $-1 -1 $-1 $637 2.49499999999999833 $528 3.994999999999997442 $402 $638 forward @7 unknown #
coedge $-1 -1 $-1 $639 $403 $635 $640 forward $527 $-1 #
coedge $-1 -1 $-1 $403 $639 $405 $531 reversed $527 $-1 #
loop $-1 -1 $-1 $-1 $525 $641 #
vertex $-1 -1 $-1 $524 $642 #
straight-curve $-1 -1 $-1 358.0000000000000568 -54 -38 -1 1.224646799146999945e-16 0 F 5 F 11.00000000000001421 #
coedge $-1 -1 $-1 $406 $405 $643 $644 forward $407 $-1 #
edge $-1 -1 $-1 $408 0 $645 28.5 $405 $646 forward @7 unknown #
face $647 -1 $-1 $641 $407 $4 $-1 $648 reversed single #
point $-1 -1 $-1 347 -54 -38 #
coedge $-1 -1 $-1 $542 $410 $634 $649 forward $295 $-1 #
coedge $-1 -1 $-1 $643 $650 $410 $536 reversed $651 $-1 #
edge $-1 -1 $-1 $537 -6.649999999999991473 $652 -0.6499999999999772626 $410 $653 forward @7 unknown #
vertex $-1 -1 $-1 $411 $654 #
straight-curve $-1 -1 $-1 347 -54 -36.5 1.224646799146999945e-16 1 0 F 0 F 28.5 #
coedge $-1 -1 $-1 $620 $417 $412 $540 reversed $547 $-1 #
edge $-1 -1 $-1 $655 0 $419 8.599999999999994316 $412 $656 forward @7 unknown #
coedge $-1 -1 $-1 $541 $541 $657 $658 reversed $413 $-1 #
coedge $-1 -1 $-1 $414 $534 $522 $633 reversed $295 $-1 #
coedge $-1 -1 $-1 $627 $626 $414 $544 forward $628 $-1 #
edge $-1 -1 $-1 $655 0 $659 40.29999999999999716 $414 $660 forward @7 unknown #
DXID-attrib $-1 -1 $-1 $-1 $415 @10 ASM ENTITY @2 27 #
plane-surface $-1 -1 $-1 354.3000000000000114 -13.70000000000000107 -36.5 0 0 1 -1 1.224646799146999945e-16 0 forward_v I I I I #
loop $-1 -1 $-1 $-1 $539 $661 #
straight-curve $-1 -1 $-1 345.6999999999999886 -13.70000000000000107 -36.5 0 0 1 F 0 F 3.000000000000002665 #
point $-1 -1 $-1 345.6999999999999886 -13.70000000000000107 -36.5 #
point $-1 -1 $-1 345.6999999999999886 -13.70000000000000107 -33.5 #
coedge $-1 -1 $-1 $662 $425 $428 $558 reversed $553 $-1 #
coedge $-1 -1 $-1 $425 $662 $578 $663 forward $553 $-1 #
loop $-1 -1 $-1 $-1 $552 $664 #
vertex $-1 -1 $-1 $426 $665 #
straight-curve $-1 -1 $-1 397.5 -54 -40 -1 1.224646799146999945e-16 0 F 0 F 95 #
coedge $-1 -1 $-1 $666 $427 $667 $668 reversed $429 $-1 #
coedge $-1 -1 $-1 $428 $669 $670 $671 forward $429 $-1 #
edge $-1 -1 $-1 $672 0 $430 59 $551 $673 forward @7 unknown #
face $674 -1 $-1 $313 $429 $4 $-1 $675 forward single #
point $-1 -1 $-1 302.5 -54 -40 #
coedge $-1 -1 $-1 $676 $667 $432 $562 forward $677 $-1 #
edge $-1 -1 $-1 $563 -95.50000000000004263 $678 -0.5000000000000426326 $432 $679 forward @7 unknown #
vertex $-1 -1 $-1 $562 $680 #
straight-curve $-1 -1 $-1 302.5 5 -30 -1.224646799146999945e-16 -1 0 F 30.5 F 59 #
DXID-attrib $-1 -1 $-1 $-1 $434 @10 ASM ENTITY @2 21 #
face $681 -1 $-1 $664 $580 $4 $-1 $682 reversed single #
plane-surface $-1 -1 $-1 397.5 5 -30 0 0 1 -1 1.224646799146999945e-16 0 forward_v I I I I #
edge $-1 -1 $-1 $587 0.0100000000000011191 $481 4.010000000000002451 $439 $683 forward @7 unknown #
straight-curve $-1 -1 $-1 347 -46.5 -15 -1.224646799146999945e-16 -1 0 F 5 F 7.5 #
vertex $-1 -1 $-1 $443 $684 #
straight-curve $-1 -1 $-1 353.0000000000000568 -30.10000000000000142 -33.5 -1.224646799146999945e-16 -1 0 F 16.39999999999999858 F 23.89999999999999858 #
point $-1 -1 $-1 353.0000000000000568 -46.5 -33.5 #
straight-curve $-1 -1 $-1 353.0000000000000568 -46.5 1.550000000000000266 -1 1.224646799146999945e-16 0 F 0 F 6.000000000000014211 #
straight-curve $-1 -1 $-1 347 -27 1.550000000000000266 0 0 1 F 0 F 1.499999999999999556 #
point $-1 -1 $-1 347 -27 1.550000000000000266 #
DXID-attrib $-1 -1 $-1 $-1 $462 @10 ASM ENTITY @2 15 #
plane-surface $-1 -1 $-1 353.0000000000000568 -46.5 -15 -1.224646799146999945e-16 -1 0 0 0 1 forward_v I I I I #
coedge $-1 -1 $-1 $685 $464 $552 $663 reversed $580 $-1 #
coedge $-1 -1 $-1 $464 $686 $466 $582 forward $580 $-1 #
loop $-1 -1 $-1 $-1 $579 $566 #
straight-curve $-1 -1 $-1 397.5 -54 -40 0 0 1 F 0 F 10 #
edge $-1 -1 $-1 $678 30.5 $468 59 $466 $687 forward @7 unknown #
point $-1 -1 $-1 397.5 -54 -30 #
straight-curve $-1 -1 $-1 380.9900000000000091 -24.5 -30 1.224646799146999945e-16 1 0 F -29.5 F -19.5 #
straight-curve $-1 -1 $-1 353.0000000000000568 -54 -34.00500000000000256 0 0 -1 F -15.00500000000000256 F -0.5050000000000043343 #
point $-1 -1 $-1 353.0000000000000568 -54 -19 #
vertex $-1 -1 $-1 $568 $688 #
straight-curve $-1 -1 $-1 353.0000000000000568 -51.5 -19 1 -1.224646799146999945e-16 0 F -6.000000000000014211 F 0 #
DXID-attrib $-1 -1 $-1 $-1 $479 @10 ASM ENTITY @2 18 #
plane-surface $-1 -1 $-1 353.0000000000000568 -51.5 -19.01000000000000156 -1.224646799146999945e-16 -1 0 0 0 1 forward_v I I I I #
point $-1 -1 $-1 347 -51.5 -15 #
straight-curve $-1 -1 $-1 347 -27 1.550000000000000266 -1.224646799146999945e-16 -1 0 F 0 F 19.5 #
point $-1 -1 $-1 347 -46.5 -33.5 #
point $-1 -1 $-1 347 -46.5 1.550000000000000266 #
coedge $-1 -1 $-1 $490 $689 $690 $691 forward $72 $-1 #
coedge $-1 -1 $-1 $692 $693 $490 $597 reversed $694 $-1 #
edge $-1 -1 $-1 $695 12.00000000000002842 $601 13.99999999999998579 $490 $696 forward @7 unknown #
coedge $-1 -1 $-1 $599 $491 $693 $697 reversed $600 $-1 #
coedge $-1 -1 $-1 $491 $598 $493 $604 reversed $600 $-1 #
loop $-1 -1 $-1 $-1 $599 $698 #
vertex $-1 -1 $-1 $597 $699 #
straight-curve $-1 -1 $-1 337 -44 -28.59401867066999969 0 0 1 F -1.405981329329999419 F 6.584018670669999906 #
coedge $-1 -1 $-1 $700 $493 $701 $702 reversed $309 $-1 #
edge $-1 -1 $-1 $494 -25.91098132933000286 $703 -17.92098132932999732 $493 $704 forward @7 unknown #
point $-1 -1 $-1 337 -44 -30 #
coedge $-1 -1 $-1 $689 $499 $705 $706 reversed $72 $-1 #
coedge $-1 -1 $-1 $707 $708 $499 $608 reversed $709 $-1 #
edge $-1 -1 $-1 $612 0 $710 2.000000000000028422 $499 $711 forward @7 unknown #
coedge $-1 -1 $-1 $610 $500 $502 $615 forward $611 $-1 #
coedge $-1 -1 $-1 $500 $609 $707 $712 forward $611 $-1 #
loop $-1 -1 $-1 $-1 $609 $713 #
vertex $-1 -1 $-1 $501 $714 #
straight-curve $-1 -1 $-1 363.0000000000000568 -44 -28.59401867066999969 0 0 1 F -1.405981329329999419 F 6.584018670669999906 #
coedge $-1 -1 $-1 $502 $715 $716 $717 reversed $309 $-1 #
edge $-1 -1 $-1 $503 -25.91098132933000286 $718 -17.92098132932999732 $502 $719 forward @7 unknown #
point $-1 -1 $-1 363.0000000000000568 -44 -30 #
coedge $-1 -1 $-1 $522 $506 $627 $720 forward $46 $-1 #
edge $-1 -1 $-1 $570 7.30000000000003979 $629 8.599999999999994316 $506 $721 forward @7 unknown #
straight-curve $-1 -1 $-1 347 -46.5 -19 -1.224646799146999945e-16 -1 0 F 5 F 7.5 #
coedge $-1 -1 $-1 $511 $539 $626 $722 forward $547 $-1 #
vertex $-1 -1 $-1 $518 $723 #
straight-curve $-1 -1 $-1 354.3000000000000114 -13.70000000000000107 -33.5 -1 1.224646799146999945e-16 0 F 0 F 8.599999999999994316 #
straight-curve $-1 -1 $-1 353.6500000000000341 -46.5 -33.5 1 -1.224646799146999945e-16 0 F -6.649999999999991473 F -0.6499999999999772626 #
coedge $-1 -1 $-1 $624 $624 $515 $625 reversed $724 $-1 #
edge $-1 -1 $-1 $725 1.224646799146999699e-16 $725 6.283185307179586232 $515 $726 forward @7 unknown #
coedge $-1 -1 $-1 $543 $517 $620 $722 reversed $628 $-1 #
coedge $-1 -1 $-1 $517 $543 $617 $720 reversed $628 $-1 #
loop $-1 -1 $-1 $-1 $517 $727 #
vertex $-1 -1 $-1 $618 $728 #
straight-curve $-1 -1 $-1 354.3000000000000114 -13.70000000000000107 -33.5 -1.224646799146999945e-16 -1 0 F 0 F 40.29999999999999716 #
DXID-attrib $-1 -1 $-1 $-1 $520 @10 ASM ENTITY @2 17 #
plane-surface $-1 -1 $-1 353.0000000000000568 -46.5 -19 0 0 1 -1 1.224646799146999945e-16 0 forward_v I I I I #
edge $-1 -1 $-1 $659 4.350000000000022737 $637 5.649999999999977263 $522 $729 forward @7 unknown #
coedge $-1 -1 $-1 $730 $523 $534 $649 reversed $636 $-1 #
coedge $-1 -1 $-1 $523 $730 $525 $640 reversed $636 $-1 #
loop $-1 -1 $-1 $-1 $634 $731 #
vertex $-1 -1 $-1 $633 $732 #
straight-curve $-1 -1 $-1 353.0000000000000568 -54 -34.00500000000000256 0 0 -1 F 2.49499999999999833 F 3.994999999999997442 #
coedge $-1 -1 $-1 $526 $525 $733 $734 forward $527 $-1 #
edge $-1 -1 $-1 $528 0 $735 28.5 $525 $736 forward @7 unknown #
face $737 -1 $-1 $731 $527 $4 $-1 $738 forward single #
point $-1 -1 $-1 353.0000000000000568 -54 -38 #
coedge $-1 -1 $-1 $733 $535 $530 $644 reversed $651 $-1 #
edge $-1 -1 $-1 $645 0 $537 1.499999999999999112 $530 $739 forward @7 unknown #
vertex $-1 -1 $-1 $531 $740 #
straight-curve $-1 -1 $-1 347 -54 -38 1.224646799146999945e-16 1 0 F 0 F 28.5 #
DXID-attrib $-1 -1 $-1 $-1 $532 @10 ASM ENTITY @2 28 #
plane-surface $-1 -1 $-1 347 -25.50000000000000355 -38 -1 1.224646799146999945e-16 0 0 0 1 forward_v I I I I #
edge $-1 -1 $-1 $652 0 $637 28.5 $534 $741 forward @7 unknown #
coedge $-1 -1 $-1 $535 $733 $730 $742 forward $651 $-1 #
loop $-1 -1 $-1 $-1 $643 $743 #
vertex $-1 -1 $-1 $536 $744 #
straight-curve $-1 -1 $-1 353.6500000000000341 -25.50000000000000355 -36.5 1 -1.224646799146999945e-16 0 F -6.649999999999991473 F -0.6499999999999772626 #
point $-1 -1 $-1 347 -25.50000000000000355 -36.5 #
vertex $-1 -1 $-1 $544 $745 #
straight-curve $-1 -1 $-1 354.3000000000000114 -13.70000000000000107 -36.5 -1 1.224646799146999945e-16 0 F 0 F 8.599999999999994316 #
coedge $-1 -1 $-1 $657 $657 $541 $658 forward $746 $-1 #
edge $-1 -1 $-1 $747 1.224646799146999699e-16 $747 6.283185307179586232 $541 $748 forward @7 unknown #
vertex $-1 -1 $-1 $720 $749 #
straight-curve $-1 -1 $-1 354.3000000000000114 -13.70000000000000107 -36.5 -1.224646799146999945e-16 -1 0 F 0 F 40.29999999999999716 #
face $750 -1 $-1 $751 $547 $4 $-1 $752 forward single #
coedge $-1 -1 $-1 $552 $551 $753 $754 reversed $553 $-1 #
edge $-1 -1 $-1 $755 0 $554 59 $578 $756 forward @7 unknown #
face $757 -1 $-1 $559 $553 $4 $-1 $758 reversed single #
point $-1 -1 $-1 397.5 -54 -40 #
coedge $-1 -1 $-1 $759 $556 $760 $761 forward $429 $-1 #
coedge $-1 -1 $-1 $561 $762 $556 $668 forward $677 $-1 #
edge $-1 -1 $-1 $763 3.999999999999999112 $563 6.000000000000000888 $556 $764 forward @7 unknown #
coedge $-1 -1 $-1 $557 $765 $766 $767 reversed $429 $-1 #
coedge $-1 -1 $-1 $768 $753 $557 $671 reversed $769 $-1 #
edge $-1 -1 $-1 $770 0 $672 30 $557 $771 forward @7 unknown #
vertex $-1 -1 $-1 $558 $772 #
straight-curve $-1 -1 $-1 302.5 5 -40 -1.224646799146999945e-16 -1 0 F 0 F 59 #
DXID-attrib $-1 -1 $-1 $-1 $559 @10 ASM ENTITY @2 24 #
plane-surface $-1 -1 $-1 302.5 5 -40 -1 1.224646799146999945e-16 0 0 0 1 forward_v I I I I #
coedge $-1 -1 $-1 $762 $561 $686 $773 reversed $677 $-1 #
loop $-1 -1 $-1 $-1 $762 $774 #
vertex $-1 -1 $-1 $582 $775 #
straight-curve $-1 -1 $-1 398.0000000000000568 -25.50000000000000355 -30 1 -1.224646799146999945e-16 0 F -95.50000000000004263 F -0.5000000000000426326 #
point $-1 -1 $-1 302.5 -25.50000000000000355 -30 #
DXID-attrib $-1 -1 $-1 $-1 $566 @10 ASM ENTITY @2 22 #
plane-surface $-1 -1 $-1 397.5 5 -40 -1 1.224646799146999945e-16 0 0 0 1 forward_v I I I I #
straight-curve $-1 -1 $-1 347 -51.5 -19.01000000000000156 0 0 1 F 0.0100000000000011191 F 4.010000000000002451 #
point $-1 -1 $-1 353.0000000000000568 -54 -33.5 #
coedge $-1 -1 $-1 $776 $578 $777 $778 forward $580 $-1 #
coedge $-1 -1 $-1 $579 $779 $676 $773 forward $580 $-1 #
straight-curve $-1 -1 $-1 397.5 5 -30 -1.224646799146999945e-16 -1 0 F 30.5 F 59 #
point $-1 -1 $-1 347 -51.5 -19 #
coedge $-1 -1 $-1 $595 $606 $780 $781 forward $72 $-1 #
coedge $-1 -1 $-1 $782 $783 $595 $691 reversed $784 $-1 #
edge $-1 -1 $-1 $785 -1.405981329329999419 $695 6.584018670669999906 $595 $786 forward @7 unknown #
coedge $-1 -1 $-1 $701 $596 $783 $787 reversed $694 $-1 #
coedge $-1 -1 $-1 $596 $701 $598 $697 forward $694 $-1 #
loop $-1 -1 $-1 $-1 $692 $788 #
vertex $-1 -1 $-1 $691 $789 #
straight-curve $-1 -1 $-1 351 -44 -22.01000000000000156 -1 1.224646799146999945e-16 0 F 12.00000000000002842 F 13.99999999999998579 #
edge $-1 -1 $-1 $703 0.01414213562372347924 $601 11.31370849897752073 $693 $790 forward @7 unknown #
face $791 -1 $-1 $661 $600 $4 $-1 $792 reversed single #
point $-1 -1 $-1 337 -44 -22.01000000000000156 #
coedge $-1 -1 $-1 $780 $603 $782 $793 reversed $309 $-1 #
coedge $-1 -1 $-1 $693 $692 $603 $702 forward $694 $-1 #
edge $-1 -1 $-1 $794 29.25000000000004263 $703 31.25 $603 $795 forward @7 unknown #
vertex $-1 -1 $-1 $604 $796 #
straight-curve $-1 -1 $-1 337 -18.08901867067000069 -30 1.224646799146999945e-16 1 0 F -25.91098132933000286 F -17.92098132932999732 #
coedge $-1 -1 $-1 $797 $798 $606 $706 forward $799 $-1 #
edge $-1 -1 $-1 $800 -1.405981329329999419 $710 6.584018670669999906 $606 $801 forward @7 unknown #
coedge $-1 -1 $-1 $716 $607 $610 $712 reversed $709 $-1 #
coedge $-1 -1 $-1 $607 $716 $797 $802 forward $709 $-1 #
loop $-1 -1 $-1 $-1 $707 $803 #
vertex $-1 -1 $-1 $608 $804 #
straight-curve $-1 -1 $-1 363.0000000000000568 -44 -22.01000000000000156 -1 1.224646799146999945e-16 0 F 0 F 2.000000000000028422 #
edge $-1 -1 $-1 $718 0.01414213562372347924 $612 11.31370849897752073 $610 $805 forward @7 unknown #
face $806 -1 $-1 $803 $611 $4 $-1 $807 forward single #
point $-1 -1 $-1 363.0000000000000568 -44 -22.01000000000000156 #
coedge $-1 -1 $-1 $614 $780 $798 $808 forward $309 $-1 #
coedge $-1 -1 $-1 $708 $707 $614 $717 forward $709 $-1 #
edge $-1 -1 $-1 $718 17.24999999999994316 $809 19.24999999999997158 $614 $810 forward @7 unknown #
vertex $-1 -1 $-1 $717 $811 #
straight-curve $-1 -1 $-1 363.0000000000000568 -18.08901867067000069 -30 1.224646799146999945e-16 1 0 F -25.91098132933000286 F -17.92098132932999732 #
edge $-1 -1 $-1 $629 0.244999999999997442 $659 3.245000000000000107 $617 $812 forward @7 unknown #
straight-curve $-1 -1 $-1 345.6999999999999886 -54 -33.5 1 -1.224646799146999945e-16 0 F 7.30000000000003979 F 8.599999999999994316 #
edge $-1 -1 $-1 $655 0 $621 3.000000000000002665 $626 $813 forward @7 unknown #
point $-1 -1 $-1 354.3000000000000114 -13.70000000000000107 -33.5 #
loop $-1 -1 $-1 $814 $624 $751 #
vertex $-1 -1 $-1 $625 $815 #
ellipse-curve $-1 -1 $-1 347.4000000000000341 -23.80000000000000426 -33.5 0 0 1 -1.500000000000000222 1.836970198720500165e-16 0 1 I I #
face $816 -1 $-1 $713 $628 $4 $-1 $817 forward single #
point $-1 -1 $-1 354.3000000000000114 -54 -33.5 #
straight-curve $-1 -1 $-1 358.6500000000000341 -54 -36.5 -1 1.224646799146999945e-16 0 F 4.350000000000022737 F 5.649999999999977263 #
coedge $-1 -1 $-1 $635 $634 $650 $742 reversed $636 $-1 #
face $818 -1 $-1 $727 $636 $4 $-1 $819 forward single #
point $-1 -1 $-1 353.0000000000000568 -54 -36.5 #
coedge $-1 -1 $-1 $650 $643 $639 $734 reversed $651 $-1 #
edge $-1 -1 $-1 $735 0 $645 6.000000000000014211 $639 $820 forward @7 unknown #
vertex $-1 -1 $-1 $640 $821 #
straight-curve $-1 -1 $-1 353.0000000000000568 -54 -38 1.224646799146999945e-16 1 0 F 0 F 28.5 #
DXID-attrib $-1 -1 $-1 $-1 $641 @10 ASM ENTITY @2 29 #
plane-surface $-1 -1 $-1 353.0000000000000568 -25.50000000000000355 -38 0 0 1 -1 1.224646799146999945e-16 0 forward_v I I I I #
straight-curve $-1 -1 $-1 347 -25.50000000000000355 -38 0 0 1 F 0 F 1.499999999999999112 #
point $-1 -1 $-1 347 -25.50000000000000355 -38 #
straight-curve $-1 -1 $-1 353.0000000000000568 -25.50000000000000355 -36.5 -1.224646799146999945e-16 -1 0 F 0 F 28.5 #
edge $-1 -1 $-1 $735 0 $652 1.499999999999999112 $730 $822 forward @7 unknown #
face $823 -1 $-1 $824 $651 $4 $-1 $825 forward single #
point $-1 -1 $-1 353.0000000000000568 -25.50000000000000355 -36.5 #
point $-1 -1 $-1 354.3000000000000114 -13.70000000000000107 -36.5 #
loop $-1 -1 $-1 $-1 $657 $824 #
vertex $-1 -1 $-1 $658 $826 #
ellipse-curve $-1 -1 $-1 347.4000000000000341 -23.80000000000000426 -36.5 0 0 1 -1.500000000000000222 1.836970198720500165e-16 0 1 I I #
point $-1 -1 $-1 354.3000000000000114 -54 -36.5 #
DXID-attrib $-1 -1 $-1 $-1 $661 @10 ASM ENTITY @2 38 #
face $827 -1 $-1 $774 $724 $4 $-1 $828 reversed single #
plane-surface $-1 -1 $-1 354.3000000000000114 -13.70000000000000107 -36.5 -1.224646799146999945e-16 -1 0 0 0 1 forward_v I I I I #
coedge $-1 -1 $-1 $670 $777 $662 $754 forward $769 $-1 #
edge $-1 -1 $-1 $755 0 $672 95 $662 $829 forward @7 unknown #
vertex $-1 -1 $-1 $663 $830 #
straight-curve $-1 -1 $-1 397.5 5 -40 -1.224646799146999945e-16 -1 0 F 0 F 59 #
DXID-attrib $-1 -1 $-1 $-1 $664 @10 ASM ENTITY @2 23 #
plane-surface $-1 -1 $-1 397.5 5 -40 0 0 1 -1 1.224646799146999945e-16 0 forward_v I I I I #
coedge $-1 -1 $-1 $831 $666 $832 $833 forward $429 $-1 #
coedge $-1 -1 $-1 $834 $835 $666 $761 reversed $836 $-1 #
edge $-1 -1 $-1 $763 -22.75000000000000355 $837 -7.75 $666 $838 forward @7 unknown #
coedge $-1 -1 $-1 $667 $676 $834 $839 forward $677 $-1 #
vertex $-1 -1 $-1 $668 $840 #
straight-curve $-1 -1 $-1 302.5 -25.50000000000000355 -36 0 0 1 F 3.999999999999999112 F 6.000000000000000888 #
coedge $-1 -1 $-1 $669 $841 $842 $843 forward $429 $-1 #
coedge $-1 -1 $-1 $844 $845 $669 $767 forward $846 $-1 #
edge $-1 -1 $-1 $770 0 $847 9 $669 $848 forward @7 unknown #
coedge $-1 -1 $-1 $777 $670 $845 $849 reversed $769 $-1 #
loop $-1 -1 $-1 $-1 $753 $850 #
vertex $-1 -1 $-1 $767 $851 #
straight-curve $-1 -1 $-1 302.5 5 -10 0 0 -1 F 0 F 30 #
point $-1 -1 $-1 302.5 5 -40 #
edge $-1 -1 $-1 $852 3.999999999999999112 $678 6.000000000000000888 $686 $853 forward @7 unknown #
face $854 -1 $-1 $850 $677 $4 $-1 $855 reversed single #
point $-1 -1 $-1 397.5 -25.50000000000000355 -30 #
coedge $-1 -1 $-1 $856 $685 $857 $858 forward $580 $-1 #
coedge $-1 -1 $-1 $753 $768 $685 $778 reversed $769 $-1 #
edge $-1 -1 $-1 $755 0 $859 30 $685 $860 forward @7 unknown #
coedge $-1 -1 $-1 $686 $861 $862 $863 reversed $580 $-1 #
coedge $-1 -1 $-1 $715 $700 $689 $781 reversed $309 $-1 #
edge $-1 -1 $-1 $800 19.99000000000002331 $785 41.99000000000005173 $689 $864 forward @7 unknown #
coedge $-1 -1 $-1 $783 $690 $700 $793 forward $784 $-1 #
coedge $-1 -1 $-1 $690 $782 $692 $787 forward $784 $-1 #
loop $-1 -1 $-1 $-1 $782 $865 #
vertex $-1 -1 $-1 $781 $866 #
straight-curve $-1 -1 $-1 339 -44 -28.59401867066999969 0 0 1 F -1.405981329329999419 F 6.584018670669999906 #
edge $-1 -1 $-1 $794 0.01414213562372347924 $695 11.31370849897752073 $783 $867 forward @7 unknown #
face $868 -1 $-1 $698 $694 $4 $-1 $869 forward single #
point $-1 -1 $-1 339 -44 -22.01000000000000156 #
straight-curve $-1 -1 $-1 337 -36 -30.01000000000000512 -8.659560562354999418e-17 -0.7071067811870000996 0.7071067811870000996 F 0.01414213562372347924 F 11.31370849897752073 #
DXID-attrib $-1 -1 $-1 $-1 $698 @10 ASM ENTITY @2 37 #
plane-surface $-1 -1 $-1 337 -41.17803734134000138 -27.17803734134000138 1 -1.224646799146999945e-16 0 0 0 -1 forward_v I I I I #
edge $-1 -1 $-1 $785 -25.91098132933000286 $794 -17.92098132932999732 $700 $870 forward @7 unknown #
vertex $-1 -1 $-1 $702 $871 #
straight-curve $-1 -1 $-1 368.25 -36.00999999999999801 -30 -1 1.224646799146999945e-16 0 F 29.25000000000004263 F 31.25 #
point $-1 -1 $-1 337 -36.00999999999999801 -30 #
coedge $-1 -1 $-1 $798 $705 $708 $802 reversed $799 $-1 #
coedge $-1 -1 $-1 $705 $797 $715 $808 reversed $799 $-1 #
loop $-1 -1 $-1 $-1 $798 $872 #
vertex $-1 -1 $-1 $706 $873 #
straight-curve $-1 -1 $-1 361 -44 -28.59401867066999969 0 0 1 F -1.405981329329999419 F 6.584018670669999906 #
edge $-1 -1 $-1 $809 0.01414213562372347924 $710 11.31370849897752073 $708 $874 forward @7 unknown #
face $875 -1 $-1 $872 $709 $4 $-1 $876 forward single #
point $-1 -1 $-1 361 -44 -22.01000000000000156 #
straight-curve $-1 -1 $-1 363.0000000000000568 -36 -30.01000000000000512 -8.659560562354999418e-17 -0.7071067811870000996 0.7071067811870000996 F 0.01414213562372347924 F 11.31370849897752073 #
DXID-attrib $-1 -1 $-1 $-1 $713 @10 ASM ENTITY @2 32 #
plane-surface $-1 -1 $-1 363.0000000000000568 -41.17803734134000138 -27.17803734134000138 1 -1.224646799146999945e-16 0 0 0 -1 forward_v I I I I #
edge $-1 -1 $-1 $800 -25.91098132933000286 $809 -17.92098132932999732 $715 $877 forward @7 unknown #
vertex $-1 -1 $-1 $808 $878 #
straight-curve $-1 -1 $-1 380.25 -36.00999999999999801 -30 -1 1.224646799146999945e-16 0 F 17.24999999999994316 F 19.24999999999997158 #
point $-1 -1 $-1 363.0000000000000568 -36.00999999999999801 -30 #
straight-curve $-1 -1 $-1 354.3000000000000114 -54 -33.25500000000000256 0 0 -1 F 0.244999999999997442 F 3.245000000000000107 #
straight-curve $-1 -1 $-1 354.3000000000000114 -13.70000000000000107 -36.5 0 0 1 F 0 F 3.000000000000002665 #
loop $-1 -1 $-1 $-1 $879 $751 #
point $-1 -1 $-1 345.8999999999999773 -23.80000000000000426 -33.5 #
DXID-attrib $-1 -1 $-1 $-1 $727 @10 ASM ENTITY @2 31 #
plane-surface $-1 -1 $-1 354.3000000000000114 -13.70000000000000107 -36.5 -1 1.224646799146999945e-16 0 0 0 1 forward_v I I I I #
DXID-attrib $-1 -1 $-1 $-1 $731 @10 ASM ENTITY @2 30 #
plane-surface $-1 -1 $-1 353.0000000000000568 -25.50000000000000355 -38 -1 1.224646799146999945e-16 0 0 0 1 forward_v I I I I #
straight-curve $-1 -1 $-1 353.0000000000000568 -25.50000000000000355 -38 -1 1.224646799146999945e-16 0 F 0 F 6.000000000000014211 #
point $-1 -1 $-1 353.0000000000000568 -25.50000000000000355 -38 #
straight-curve $-1 -1 $-1 353.0000000000000568 -25.50000000000000355 -38 0 0 1 F 0 F 1.499999999999999112 #
DXID-attrib $-1 -1 $-1 $-1 $743 @10 ASM ENTITY @2 50 #
face $880 -1 $-1 $881 $882 $4 $-1 $883 reversed single #
plane-surface $-1 -1 $-1 353.0000000000000568 -25.50000000000000355 -38 -1.224646799146999945e-16 -1 0 0 0 1 forward_v I I I I #
point $-1 -1 $-1 345.8999999999999773 -23.80000000000000426 -36.5 #
DXID-attrib $-1 -1 $-1 $-1 $751 @10 ASM ENTITY @2 39 #
cone-surface $-1 -1 $-1 347.4000000000000341 -23.80000000000000426 -38.5 0 0 1 -1.500000000000000222 1.836970198720500165e-16 0 1 I I 0 1 1.500000000000000222 forward I I I I #
straight-curve $-1 -1 $-1 397.5 5 -40 -1 1.224646799146999945e-16 0 F 0 F 95 #
point $-1 -1 $-1 397.5 5 -40 #
coedge $-1 -1 $-1 $841 $759 $884 $885 reversed $429 $-1 #
coedge $-1 -1 $-1 $886 $887 $759 $833 reversed $888 $-1 #
edge $-1 -1 $-1 $837 3.999999999999999112 $889 6.999999999999997335 $759 $890 forward @7 unknown #
coedge $-1 -1 $-1 $862 $760 $762 $839 reversed $836 $-1 #
coedge $-1 -1 $-1 $760 $862 $886 $891 forward $836 $-1 #
loop $-1 -1 $-1 $892 $834 $893 #
vertex $-1 -1 $-1 $761 $894 #
straight-curve $-1 -1 $-1 302.5 -2.75 -32 1.224646799146999945e-16 1 0 F -22.75000000000000355 F -7.75 #
edge $-1 -1 $-1 $852 1.000000000000014211 $763 96.00000000000001421 $762 $895 forward @7 unknown #
point $-1 -1 $-1 302.5 -25.50000000000000355 -32 #
coedge $-1 -1 $-1 $765 $831 $896 $897 forward $429 $-1 #
coedge $-1 -1 $-1 $898 $899 $765 $843 reversed $900 $-1 #
edge $-1 -1 $-1 $901 17.98999999999999844 $847 30 $765 $902 forward @7 unknown #
coedge $-1 -1 $-1 $857 $766 $899 $903 reversed $846 $-1 #
coedge $-1 -1 $-1 $766 $857 $768 $849 forward $846 $-1 #
loop $-1 -1 $-1 $-1 $857 $904 #
vertex $-1 -1 $-1 $843 $905 #
straight-curve $-1 -1 $-1 302.5 5 -10 -1.224646799146999945e-16 -1 0 F 0 F 9 #
edge $-1 -1 $-1 $859 0 $770 95 $768 $906 forward @7 unknown #
face $907 -1 $-1 $904 $769 $4 $-1 $908 reversed single #
point $-1 -1 $-1 302.5 5 -10 #
vertex $-1 -1 $-1 $863 $909 #
straight-curve $-1 -1 $-1 397.5 -25.50000000000000355 -36 0 0 1 F 3.999999999999999112 F 6.000000000000000888 #
DXID-attrib $-1 -1 $-1 $-1 $774 @10 ASM ENTITY @2 40 #
plane-surface $-1 -1 $-1 398.5 -25.50000000000000355 -32 -1.224646799146999945e-16 -1 0 0 0 1 forward_v I I I I #
coedge $-1 -1 $-1 $910 $776 $911 $912 reversed $580 $-1 #
coedge $-1 -1 $-1 $845 $844 $776 $858 reversed $846 $-1 #
edge $-1 -1 $-1 $859 0 $913 9 $776 $914 forward @7 unknown #
vertex $-1 -1 $-1 $778 $915 #
straight-curve $-1 -1 $-1 397.5 5 -40 0 0 1 F 0 F 30 #
coedge $-1 -1 $-1 $779 $916 $917 $918 reversed $580 $-1 #
coedge $-1 -1 $-1 $835 $834 $779 $863 forward $836 $-1 #
edge $-1 -1 $-1 $852 -22.75000000000000355 $919 -7.75 $779 $920 forward @7 unknown #
straight-curve $-1 -1 $-1 380.9900000000000091 -44 -30 -1 1.224646799146999945e-16 0 F 19.99000000000002331 F 41.99000000000005173 #
face $921 -1 $-1 $788 $784 $4 $-1 $922 forward single #
point $-1 -1 $-1 339 -44 -30 #
straight-curve $-1 -1 $-1 339 -36 -30.01000000000000512 -8.659560562354999418e-17 -0.7071067811870000996 0.7071067811870000996 F 0.01414213562372347924 F 11.31370849897752073 #
DXID-attrib $-1 -1 $-1 $-1 $788 @10 ASM ENTITY @2 36 #
plane-surface $-1 -1 $-1 339 -36 -30.01000000000000512 8.659560562349458903e-17 0.7071067811865475727 0.7071067811865475727 -8.659560562349461368e-17 -0.7071067811865476838 0.7071067811865476838 forward_v I I I I #
straight-curve $-1 -1 $-1 339 -18.08901867067000069 -30 1.224646799146999945e-16 1 0 F -25.91098132933000286 F -17.92098132932999732 #
point $-1 -1 $-1 339 -36.00999999999999801 -30 #
face $923 -1 $-1 $865 $799 $4 $-1 $924 reversed single #
point $-1 -1 $-1 361 -44 -30 #
straight-curve $-1 -1 $-1 361 -36 -30.01000000000000512 -8.659560562354999418e-17 -0.7071067811870000996 0.7071067811870000996 F 0.01414213562372347924 F 11.31370849897752073 #
DXID-attrib $-1 -1 $-1 $-1 $803 @10 ASM ENTITY @2 33 #
plane-surface $-1 -1 $-1 363.0000000000000568 -36 -30.01000000000000512 8.659560562349458903e-17 0.7071067811865475727 0.7071067811865475727 -8.659560562349461368e-17 -0.7071067811865476838 0.7071067811865476838 forward_v I I I I #
straight-curve $-1 -1 $-1 361 -18.08901867067000069 -30 1.224646799146999945e-16 1 0 F -25.91098132933000286 F -17.92098132932999732 #
point $-1 -1 $-1 361 -36.00999999999999801 -30 #
coedge $-1 -1 $-1 $879 $879 $925 $926 forward $814 $-1 #
DXID-attrib $-1 -1 $-1 $-1 $824 @10 ASM ENTITY @2 51 #
face $927 -1 $-1 $928 $929 $4 $-1 $930 forward single #
loop $-1 -1 $-1 $746 $931 $824 #
cone-surface $-1 -1 $-1 347.4000000000000341 -23.80000000000000426 -38.5 0 0 1 -1.500000000000000222 1.836970198720500165e-16 0 1 I I 0 1 1.500000000000000222 forward I I I I #
coedge $-1 -1 $-1 $932 $933 $831 $885 forward $934 $-1 #
edge $-1 -1 $-1 $935 -8.239999999999998437 $889 -7.75 $831 $936 forward @7 unknown #
coedge $-1 -1 $-1 $917 $832 $835 $891 reversed $888 $-1 #
coedge $-1 -1 $-1 $832 $937 $932 $938 forward $888 $-1 #
loop $-1 -1 $-1 $-1 $886 $939 #
vertex $-1 -1 $-1 $833 $940 #
straight-curve $-1 -1 $-1 302.5 -10.5 -36 0 0 1 F 3.999999999999999112 F 6.999999999999997335 #
edge $-1 -1 $-1 $919 1.000000000000014211 $837 96.00000000000001421 $886 $941 forward @7 unknown #
loop $-1 -1 $-1 $-1 $925 $893 #
face $942 -1 $-1 $943 $836 $4 $-1 $944 forward single #
point $-1 -1 $-1 302.5 -10.5 -32 #
straight-curve $-1 -1 $-1 398.5 -25.50000000000000355 -32 -1 1.224646799146999945e-16 0 F 1.000000000000014211 F 96.00000000000001421 #
coedge $-1 -1 $-1 $945 $946 $841 $897 reversed $947 $-1 #
edge $-1 -1 $-1 $935 1.428355697995912665 $901 11.31370849897752073 $841 $948 forward @7 unknown #
coedge $-1 -1 $-1 $949 $842 $946 $950 forward $900 $-1 #
coedge $-1 -1 $-1 $842 $911 $844 $903 forward $900 $-1 #
loop $-1 -1 $-1 $-1 $842 $951 #
vertex $-1 -1 $-1 $897 $952 #
straight-curve $-1 -1 $-1 302.5 -4 -40 0 0 1 F 17.98999999999999844 F 30 #
edge $-1 -1 $-1 $913 0 $847 95 $844 $953 forward @7 unknown #
face $954 -1 $-1 $951 $846 $4 $-1 $955 forward single #
point $-1 -1 $-1 302.5 -4 -10 #
straight-curve $-1 -1 $-1 397.5 5 -10 -1 1.224646799146999945e-16 0 F 0 F 95 #
DXID-attrib $-1 -1 $-1 $-1 $850 @10 ASM ENTITY @2 41 #
plane-surface $-1 -1 $-1 397.5 5 -40 -1.224646799146999945e-16 -1 0 0 0 1 forward_v I I I I #
point $-1 -1 $-1 397.5 -25.50000000000000355 -32 #
coedge $-1 -1 $-1 $916 $856 $956 $957 reversed $580 $-1 #
coedge $-1 -1 $-1 $899 $958 $856 $912 forward $900 $-1 #
edge $-1 -1 $-1 $959 17.98999999999999844 $913 30 $856 $960 forward @7 unknown #
vertex $-1 -1 $-1 $858 $961 #
straight-curve $-1 -1 $-1 397.5 5 -10 -1.224646799146999945e-16 -1 0 F 0 F 9 #
point $-1 -1 $-1 397.5 5 -10 #
coedge $-1 -1 $-1 $861 $910 $962 $963 forward $580 $-1 #
coedge $-1 -1 $-1 $964 $886 $861 $918 forward $888 $-1 #
edge $-1 -1 $-1 $919 3.999999999999999112 $965 6.999999999999997335 $861 $966 forward @7 unknown #
vertex $-1 -1 $-1 $918 $967 #
straight-curve $-1 -1 $-1 397.5 -2.75 -32 1.224646799146999945e-16 1 0 F -22.75000000000000355 F -7.75 #
DXID-attrib $-1 -1 $-1 $-1 $865 @10 ASM ENTITY @2 35 #
plane-surface $-1 -1 $-1 339 -41.17803734134000138 -27.17803734134000138 1 -1.224646799146999945e-16 0 0 0 -1 forward_v I I I I #
DXID-attrib $-1 -1 $-1 $-1 $872 @10 ASM ENTITY @2 34 #
plane-surface $-1 -1 $-1 361 -41.17803734134000138 -27.17803734134000138 1 -1.224646799146999945e-16 0 0 0 -1 forward_v I I I I #
coedge $-1 -1 $-1 $925 $925 $879 $926 reversed $892 $-1 #
edge $-1 -1 $-1 $968 1.224646799146999699e-16 $968 6.283185307179586232 $879 $969 forward @7 unknown #
DXID-attrib $-1 -1 $-1 $-1 $881 @10 ASM ENTITY @2 52 #
face $970 -1 $-1 $971 $972 $4 $-1 $973 forward single #
loop $-1 -1 $-1 $-1 $974 $881 #
plane-surface $-1 -1 $-1 395.5000000000000568 -6.821962658651999689 -27.17803734134000138 -1 1.224646799146999945e-16 0 0 0 1 forward_v I I I I #
coedge $-1 -1 $-1 $931 $931 $975 $976 reversed $882 $-1 #
coedge $-1 -1 $-1 $977 $884 $887 $938 reversed $934 $-1 #
coedge $-1 -1 $-1 $884 $977 $945 $978 reversed $934 $-1 #
loop $-1 -1 $-1 $-1 $932 $979 #
vertex $-1 -1 $-1 $885 $980 #
straight-curve $-1 -1 $-1 302.5 -2.75 -29.00000000000000355 1.224646799146999945e-16 1 0 F -8.239999999999998437 F -7.75 #
coedge $-1 -1 $-1 $887 $981 $982 $983 forward $888 $-1 #
edge $-1 -1 $-1 $984 93.99999999999998579 $889 96.00000000000001421 $887 $985 forward @7 unknown #
face $986 -1 $-1 $893 $888 $4 $-1 $987 forward single #
point $-1 -1 $-1 302.5 -10.5 -29.00000000000000355 #
straight-curve $-1 -1 $-1 398.5 -10.5 -32 -1 1.224646799146999945e-16 0 F 1.000000000000014211 F 96.00000000000001421 #
DXID-attrib $-1 -1 $-1 $-1 $893 @10 ASM ENTITY @2 47 #
face $988 -1 $-1 $979 $947 $4 $-1 $989 reversed single #
plane-surface $-1 -1 $-1 398.5 -10.5 -32 0 0 1 -1 1.224646799146999945e-16 0 forward_v I I I I #
coedge $-1 -1 $-1 $990 $896 $933 $978 forward $947 $-1 #
coedge $-1 -1 $-1 $896 $990 $898 $950 reversed $947 $-1 #
loop $-1 -1 $-1 $-1 $990 $943 #
straight-curve $-1 -1 $-1 302.5 -12.00000000000000178 -30.01000000000000512 8.659560562354999418e-17 0.7071067811870000996 0.7071067811870000996 F 1.428355697995912665 F 11.31370849897752073 #
coedge $-1 -1 $-1 $991 $898 $992 $993 forward $900 $-1 #
edge $-1 -1 $-1 $901 -48.50000000000001421 $994 -46.49999999999998579 $898 $995 forward @7 unknown #
face $996 -1 $-1 $997 $900 $4 $-1 $998 forward single #
point $-1 -1 $-1 302.5 -4 -22.01000000000000156 #
straight-curve $-1 -1 $-1 397.5 -4 -10 -1 1.224646799146999945e-16 0 F 0 F 95 #
DXID-attrib $-1 -1 $-1 $-1 $904 @10 ASM ENTITY @2 42 #
plane-surface $-1 -1 $-1 397.5 5 -10 0 0 1 -1 1.224646799146999945e-16 0 forward_v I I I I #
coedge $-1 -1 $-1 $999 $1000 $910 $957 forward $1001 $-1 #
edge $-1 -1 $-1 $1002 1.428355697995912665 $959 11.31370849897752073 $910 $1003 forward @7 unknown #
coedge $-1 -1 $-1 $911 $1004 $999 $1005 forward $900 $-1 #
vertex $-1 -1 $-1 $912 $1006 #
straight-curve $-1 -1 $-1 397.5 -4 -40 0 0 1 F 17.98999999999999844 F 30 #
point $-1 -1 $-1 397.5 -4 -10 #
coedge $-1 -1 $-1 $1007 $1008 $916 $963 reversed $1009 $-1 #
edge $-1 -1 $-1 $1002 -8.239999999999998437 $965 -7.75 $916 $1010 forward @7 unknown #
coedge $-1 -1 $-1 $1011 $917 $1008 $1012 forward $888 $-1 #
vertex $-1 -1 $-1 $963 $1013 #
straight-curve $-1 -1 $-1 397.5 -10.5 -36 0 0 1 F 3.999999999999999112 F 6.999999999999997335 #
point $-1 -1 $-1 397.5 -10.5 -32 #
vertex $-1 -1 $-1 $926 $1014 #
ellipse-curve $-1 -1 $-1 347.4000000000000341 -23.80000000000000426 -32 0 0 1 -1.500000000000000222 1.836970198720500165e-16 0 1 I I #
DXID-attrib $-1 -1 $-1 $-1 $928 @10 ASM ENTITY @2 53 #
face $1015 -1 $-1 $1016 $1017 $4 $-1 $1018 reversed single #
loop $-1 -1 $-1 $-1 $1019 $928 #
plane-surface $-1 -1 $-1 397.5 5 -30 0 0 1 -1 1.224646799146999945e-16 0 forward_v I I I I #
coedge $-1 -1 $-1 $1020 $1021 $1004 $1022 forward $929 $-1 #
coedge $-1 -1 $-1 $975 $975 $931 $976 forward $1023 $-1 #
edge $-1 -1 $-1 $1024 1.224646799146999699e-16 $1024 6.283185307179586232 $931 $1025 forward @7 unknown #
coedge $-1 -1 $-1 $933 $932 $1026 $1027 reversed $934 $-1 #
edge $-1 -1 $-1 $935 -48.99999999999998579 $1028 -46.99999999999995737 $945 $1029 forward @7 unknown #
face $1030 -1 $-1 $743 $934 $4 $-1 $1031 reversed single #
point $-1 -1 $-1 302.5 -10.99000000000000021 -29.00000000000000355 #
coedge $-1 -1 $-1 $937 $1032 $1033 $1034 reversed $888 $-1 #
coedge $-1 -1 $-1 $1035 $1026 $937 $983 reversed $1036 $-1 #
edge $-1 -1 $-1 $1037 -0.4109813293299957593 $984 0.589018670670000688 $937 $1038 forward @7 unknown #
vertex $-1 -1 $-1 $983 $1039 #
straight-curve $-1 -1 $-1 398.5 -10.5 -29.00000000000000355 -1 1.224646799146999945e-16 0 F 93.99999999999998579 F 96.00000000000001421 #
DXID-attrib $-1 -1 $-1 $-1 $939 @10 ASM ENTITY @2 46 #
plane-surface $-1 -1 $-1 398.5 -10.5 -32 -1.224646799146999945e-16 -1 0 0 0 1 forward_v I I I I #
DXID-attrib $-1 -1 $-1 $-1 $943 @10 ASM ENTITY @2 48 #
plane-surface $-1 -1 $-1 304.5 -12.00000000000000178 -30.01000000000000512 8.659560562349458903e-17 0.7071067811865475727 -0.7071067811865475727 8.659560562349461368e-17 0.7071067811865476838 0.7071067811865476838 forward_v I I I I #
coedge $-1 -1 $-1 $946 $945 $1040 $1041 forward $947 $-1 #
coedge $-1 -1 $-1 $1042 $949 $1043 $1044 forward $900 $-1 #
coedge $-1 -1 $-1 $1040 $1035 $949 $993 reversed $1036 $-1 #
edge $-1 -1 $-1 $994 -11.57901867067000268 $1045 -3.589018670670003353 $949 $1046 forward @7 unknown #
vertex $-1 -1 $-1 $950 $1047 #
straight-curve $-1 -1 $-1 351 -4 -22.01000000000000156 1 -1.224646799146999945e-16 0 F -48.50000000000001421 F -46.49999999999998579 #
DXID-attrib $-1 -1 $-1 $-1 $951 @10 ASM ENTITY @2 43 #
face $1048 -1 $-1 $1049 $1001 $4 $-1 $1050 reversed single #
plane-surface $-1 -1 $-1 397.5 -4 -40 -1.224646799146999945e-16 -1 0 0 0 1 forward_v I I I I #
coedge $-1 -1 $-1 $1051 $956 $958 $1005 reversed $1001 $-1 #
coedge $-1 -1 $-1 $956 $1051 $1007 $1052 forward $1001 $-1 #
loop $-1 -1 $-1 $-1 $956 $997 #
vertex $-1 -1 $-1 $957 $1053 #
straight-curve $-1 -1 $-1 397.5 -12.00000000000000178 -30.01000000000000512 8.659560562354999418e-17 0.7071067811870000996 0.7071067811870000996 F 1.428355697995912665 F 11.31370849897752073 #
coedge $-1 -1 $-1 $958 $1054 $974 $1022 reversed $900 $-1 #
edge $-1 -1 $-1 $1055 -1.999999999999957367 $959 0 $958 $1056 forward @7 unknown #
point $-1 -1 $-1 397.5 -4 -22.01000000000000156 #
coedge $-1 -1 $-1 $1057 $962 $1000 $1052 reversed $1009 $-1 #
coedge $-1 -1 $-1 $962 $1057 $964 $1012 reversed $1009 $-1 #
loop $-1 -1 $-1 $-1 $962 $1049 #
straight-curve $-1 -1 $-1 397.5 -2.75 -29.00000000000000355 1.224646799146999945e-16 1 0 F -8.239999999999998437 F -7.75 #
coedge $-1 -1 $-1 $1058 $964 $1059 $1060 reversed $888 $-1 #
edge $-1 -1 $-1 $965 1.000000000000014211 $1061 2.999999999999971578 $1008 $1062 forward @7 unknown #
point $-1 -1 $-1 397.5 -10.5 -29.00000000000000355 #
point $-1 -1 $-1 345.8999999999999773 -23.80000000000000426 -32 #
DXID-attrib $-1 -1 $-1 $-1 $971 @10 ASM ENTITY @2 54 #
face $1063 -1 $-1 $1064 $1065 $4 $-1 $1066 reversed single #
loop $-1 -1 $-1 $-1 $1067 $971 #
plane-surface $-1 -1 $-1 365 -6.821962658651999689 -27.17803734134000138 -1 1.224646799146999945e-16 0 0 0 1 forward_v I I I I #
coedge $-1 -1 $-1 $1068 $1069 $1058 $1070 forward $972 $-1 #
coedge $-1 -1 $-1 $1059 $974 $1068 $1071 forward $929 $-1 #
coedge $-1 -1 $-1 $974 $1072 $1051 $1073 forward $929 $-1 #
edge $-1 -1 $-1 $1055 -11.57901867067000268 $1074 -3.589018670670003353 $1004 $1075 forward @7 unknown #
loop $-1 -1 $-1 $-1 $975 $1076 #
vertex $-1 -1 $-1 $976 $1077 #
ellipse-curve $-1 -1 $-1 347.4000000000000341 -23.80000000000000426 -38.5 0 0 1 -1.500000000000000222 1.836970198720500165e-16 0 1 I I #
coedge $-1 -1 $-1 $982 $1040 $977 $1027 forward $1036 $-1 #
edge $-1 -1 $-1 $1028 -2.329018670673999036 $984 -1.839018670673999711 $977 $1078 forward @7 unknown #
vertex $-1 -1 $-1 $1041 $1079 #
straight-curve $-1 -1 $-1 351.5 -10.99000000000000021 -29.00000000000000355 1 -1.224646799146999945e-16 0 F -48.99999999999998579 F -46.99999999999995737 #
DXID-attrib $-1 -1 $-1 $-1 $979 @10 ASM ENTITY @2 49 #
plane-surface $-1 -1 $-1 398.5 -10.5 -29.00000000000000355 0 0 1 -1 1.224646799146999945e-16 0 forward_v I I I I #
coedge $-1 -1 $-1 $981 $1080 $1081 $1082 reversed $888 $-1 #
coedge $-1 -1 $-1 $1083 $1084 $981 $1034 forward $1085 $-1 #
edge $-1 -1 $-1 $1037 -93.50000000000001421 $1086 -63.00000000000004263 $981 $1087 forward @7 unknown #
coedge $-1 -1 $-1 $992 $982 $1084 $1088 reversed $1036 $-1 #
loop $-1 -1 $-1 $-1 $992 $1089 #
vertex $-1 -1 $-1 $1034 $1090 #
straight-curve $-1 -1 $-1 304.5 -10.5 -29.58901867067000424 0 0 1 F -0.4109813293299957593 F 0.589018670670000688 #
point $-1 -1 $-1 304.5 -10.5 -29.00000000000000355 #
coedge $-1 -1 $-1 $1026 $992 $990 $1041 reversed $1036 $-1 #
edge $-1 -1 $-1 $1028 1.428355697995912665 $994 11.31370849897752073 $990 $1091 forward @7 unknown #
coedge $-1 -1 $-1 $1092 $991 $1093 $1094 reversed $900 $-1 #
coedge $-1 -1 $-1 $1084 $1083 $991 $1044 reversed $1085 $-1 #
edge $-1 -1 $-1 $1045 -92.99999999999997158 $1095 -62.5 $991 $1096 forward @7 unknown #
vertex $-1 -1 $-1 $993 $1097 #
straight-curve $-1 -1 $-1 304.5 -4 -33.58901867067000069 0 0 -1 F -11.57901867067000268 F -3.589018670670003353 #
point $-1 -1 $-1 304.5 -4 -22.01000000000000156 #
DXID-attrib $-1 -1 $-1 $-1 $997 @10 ASM ENTITY @2 44 #
face $1098 -1 $-1 $939 $1009 $4 $-1 $1099 reversed single #
plane-surface $-1 -1 $-1 397.5 -12.00000000000000178 -30.01000000000000512 8.659560562349458903e-17 0.7071067811865475727 -0.7071067811865475727 8.659560562349461368e-17 0.7071067811865476838 0.7071067811865476838 forward_v I I I I #
coedge $-1 -1 $-1 $1000 $999 $1021 $1073 reversed $1001 $-1 #
edge $-1 -1 $-1 $1100 -2.5 $1002 -0.5000000000000426326 $1000 $1101 forward @7 unknown #
point $-1 -1 $-1 397.5 -10.99000000000000021 -29.00000000000000355 #
coedge $-1 -1 $-1 $1004 $1102 $1103 $1104 forward $900 $-1 #
vertex $-1 -1 $-1 $1022 $1105 #
straight-curve $-1 -1 $-1 397.5 -4 -22.01000000000000156 1 -1.224646799146999945e-16 0 F -1.999999999999957367 F 0 #
coedge $-1 -1 $-1 $1008 $1007 $1072 $1106 forward $1009 $-1 #
coedge $-1 -1 $-1 $1107 $1011 $1019 $1070 reversed $888 $-1 #
coedge $-1 -1 $-1 $1072 $1020 $1011 $1060 forward $929 $-1 #
edge $-1 -1 $-1 $1108 -0.4109813293299957593 $1061 0.589018670670000688 $1011 $1109 forward @7 unknown #
vertex $-1 -1 $-1 $1106 $1110 #
straight-curve $-1 -1 $-1 398.5 -10.5 -29.00000000000000355 -1 1.224646799146999945e-16 0 F 1.000000000000014211 F 2.999999999999971578 #
DXID-attrib $-1 -1 $-1 $-1 $1016 @10 ASM ENTITY @2 55 #
face $1111 -1 $-1 $1112 $1113 $4 $-1 $1114 forward single #
loop $-1 -1 $-1 $-1 $1115 $1016 #
plane-surface $-1 -1 $-1 365 -12.00000000000000178 -30.01000000000000512 8.659560562349458903e-17 0.7071067811865475727 -0.7071067811865475727 8.659560562349461368e-17 0.7071067811865476838 0.7071067811865476838 forward_v I I I I #
coedge $-1 -1 $-1 $1116 $1117 $1102 $1118 reversed $1017 $-1 #
coedge $-1 -1 $-1 $1103 $1019 $1020 $1071 reversed $972 $-1 #
coedge $-1 -1 $-1 $1019 $1103 $1117 $1119 forward $972 $-1 #
edge $-1 -1 $-1 $1120 -33.00000000000004263 $1108 -2.5 $1058 $1121 forward @7 unknown #
edge $-1 -1 $-1 $1074 3.089018670674000155 $1108 9.589018670674001044 $1020 $1122 forward @7 unknown #
coedge $-1 -1 $-1 $1021 $1059 $1057 $1106 reversed $929 $-1 #
edge $-1 -1 $-1 $1100 1.428355697995912665 $1055 11.31370849897752073 $1051 $1123 forward @7 unknown #
vertex $-1 -1 $-1 $1104 $1124 #
straight-curve $-1 -1 $-1 395.5000000000000568 -4 -33.58901867067000069 0 0 -1 F -11.57901867067000268 F -3.589018670670003353 #
face $1125 -1 $-1 $-1 $1023 $4 $-1 $1126 forward single #
point $-1 -1 $-1 345.8999999999999773 -23.80000000000000426 -38.5 #
straight-curve $-1 -1 $-1 304.5 -8.660981329326000733 -29.00000000000000355 1.224646799146999945e-16 1 0 F -2.329018670673999036 F -1.839018670673999711 #
point $-1 -1 $-1 304.5 -10.99000000000000021 -29.00000000000000355 #
coedge $-1 -1 $-1 $1032 $1127 $1128 $1129 forward $888 $-1 #
coedge $-1 -1 $-1 $1130 $1131 $1032 $1082 forward $1132 $-1 #
edge $-1 -1 $-1 $1086 -0.4109813293299957593 $1133 0.589018670670000688 $1032 $1134 forward @7 unknown #
coedge $-1 -1 $-1 $1043 $1033 $1131 $1135 reversed $1085 $-1 #
coedge $-1 -1 $-1 $1033 $1043 $1035 $1088 forward $1085 $-1 #
loop $-1 -1 $-1 $-1 $1084 $1136 #
vertex $-1 -1 $-1 $1082 $1137 #
straight-curve $-1 -1 $-1 398.0000000000000568 -10.5 -30 1 -1.224646799146999945e-16 0 F -93.50000000000001421 F -63.00000000000004263 #
edge $-1 -1 $-1 $1045 3.089018670674000155 $1037 9.589018670674001044 $1084 $1138 forward @7 unknown #
face $1139 -1 $-1 $1140 $1036 $4 $-1 $1141 reversed single #
point $-1 -1 $-1 304.5 -10.5 -30 #
straight-curve $-1 -1 $-1 304.5 -12.00000000000000178 -30.01000000000000512 8.659560562354999418e-17 0.7071067811870000996 0.7071067811870000996 F 1.428355697995912665 F 11.31370849897752073 #
coedge $-1 -1 $-1 $1142 $1042 $1143 $1144 forward $900 $-1 #
coedge $-1 -1 $-1 $1131 $1145 $1042 $1094 forward $1132 $-1 #
edge $-1 -1 $-1 $1146 -11.57901867067000268 $1095 -3.589018670670003353 $1042 $1147 forward @7 unknown #
vertex $-1 -1 $-1 $1044 $1148 #
straight-curve $-1 -1 $-1 397.5 -4 -30 1 -1.224646799146999945e-16 0 F -92.99999999999997158 F -62.5 #
point $-1 -1 $-1 304.5 -4 -30 #
DXID-attrib $-1 -1 $-1 $-1 $1049 @10 ASM ENTITY @2 45 #
plane-surface $-1 -1 $-1 398.5 -10.5 -29.00000000000000355 0 0 1 -1 1.224646799146999945e-16 0 forward_v I I I I #
vertex $-1 -1 $-1 $1073 $1149 #
straight-curve $-1 -1 $-1 398.0000000000000568 -10.99000000000000021 -29.00000000000000355 1 -1.224646799146999945e-16 0 F -2.5 F -0.5000000000000426326 #
coedge $-1 -1 $-1 $1054 $1150 $1067 $1118 forward $900 $-1 #
coedge $-1 -1 $-1 $1069 $1068 $1054 $1104 reversed $972 $-1 #
edge $-1 -1 $-1 $1151 -32.5 $1074 -1.999999999999957367 $1054 $1152 forward @7 unknown #
point $-1 -1 $-1 395.5000000000000568 -4 -22.01000000000000156 #
edge $-1 -1 $-1 $1100 -2.329018670673999036 $1061 -1.839018670673999711 $1057 $1153 forward @7 unknown #
coedge $-1 -1 $-1 $1154 $1058 $1155 $1156 forward $888 $-1 #
vertex $-1 -1 $-1 $1060 $1157 #
straight-curve $-1 -1 $-1 395.5000000000000568 -10.5 -29.58901867067000424 0 0 1 F -0.4109813293299957593 F 0.589018670670000688 #
point $-1 -1 $-1 395.5000000000000568 -10.5 -29.00000000000000355 #
DXID-attrib $-1 -1 $-1 $-1 $1064 @10 ASM ENTITY @2 56 #
face $1158 -1 $-1 $1159 $1160 $4 $-1 $1161 forward single #
loop $-1 -1 $-1 $-1 $1162 $1064 #
plane-surface $-1 -1 $-1 363.0000000000000568 -6.821962658651999689 -27.17803734134000138 -1 1.224646799146999945e-16 0 0 0 1 forward_v I I I I #
coedge $-1 -1 $-1 $1163 $1164 $1116 $1165 forward $1065 $-1 #
coedge $-1 -1 $-1 $1166 $1067 $1115 $1165 reversed $1017 $-1 #
coedge $-1 -1 $-1 $1067 $1155 $1069 $1119 reversed $1017 $-1 #
edge $-1 -1 $-1 $1167 -11.57901867067000268 $1151 -3.589018670670003353 $1102 $1168 forward @7 unknown #
edge $-1 -1 $-1 $1151 3.089018670674000155 $1120 9.589018670674001044 $1069 $1169 forward @7 unknown #
vertex $-1 -1 $-1 $1070 $1170 #
straight-curve $-1 -1 $-1 398.0000000000000568 -10.5 -30 1 -1.224646799146999945e-16 0 F -33.00000000000004263 F -2.5 #
straight-curve $-1 -1 $-1 395.5000000000000568 -0.9109813293259999556 -30 -1.224646799146999945e-16 -1 0 F 3.089018670674000155 F 9.589018670674001044 #
straight-curve $-1 -1 $-1 395.5000000000000568 -12.00000000000000178 -30.01000000000000512 8.659560562354999418e-17 0.7071067811870000996 0.7071067811870000996 F 1.428355697995912665 F 11.31370849897752073 #
point $-1 -1 $-1 395.5000000000000568 -4 -30 #
DXID-attrib $-1 -1 $-1 $-1 $1076 @10 ASM ENTITY @2 65 #
plane-surface $-1 -1 $-1 347.4000000000000341 -23.80000000000000426 -38.5 0 0 1 -1 1.224646799146999945e-16 0 forward_v I I I I #
coedge $-1 -1 $-1 $1080 $1171 $1172 $1173 forward $888 $-1 #
coedge $-1 -1 $-1 $1174 $1175 $1080 $1129 reversed $1176 $-1 #
edge $-1 -1 $-1 $1177 61.49999999999998579 $1133 63.50000000000001421 $1080 $1178 forward @7 unknown #
coedge $-1 -1 $-1 $1145 $1081 $1175 $1179 reversed $1132 $-1 #
coedge $-1 -1 $-1 $1081 $1093 $1083 $1135 forward $1132 $-1 #
loop $-1 -1 $-1 $-1 $1093 $1180 #
vertex $-1 -1 $-1 $1129 $1181 #
straight-curve $-1 -1 $-1 335 -10.5 -29.58901867067000424 0 0 1 F -0.4109813293299957593 F 0.589018670670000688 #
edge $-1 -1 $-1 $1095 3.089018670674000155 $1086 9.589018670674001044 $1131 $1182 forward @7 unknown #
face $1183 -1 $-1 $1089 $1085 $4 $-1 $1184 forward single #
point $-1 -1 $-1 335 -10.5 -30 #
straight-curve $-1 -1 $-1 304.5 -0.9109813293259999556 -30 -1.224646799146999945e-16 -1 0 F 3.089018670674000155 F 9.589018670674001044 #
DXID-attrib $-1 -1 $-1 $-1 $1089 @10 ASM ENTITY @2 62 #
face $1185 -1 $-1 $1186 $1176 $4 $-1 $1187 reversed single #
plane-surface $-1 -1 $-1 304.5 -6.821962658651999689 -27.17803734134000138 -1 1.224646799146999945e-16 0 0 0 1 forward_v I I I I #
coedge $-1 -1 $-1 $1188 $1092 $1189 $1190 forward $900 $-1 #
coedge $-1 -1 $-1 $1191 $1192 $1092 $1144 reversed $1193 $-1 #
edge $-1 -1 $-1 $1146 -32.25000000000001421 $1194 -30.24999999999998579 $1092 $1195 forward @7 unknown #
coedge $-1 -1 $-1 $1093 $1130 $1191 $1196 forward $1132 $-1 #
vertex $-1 -1 $-1 $1094 $1197 #
straight-curve $-1 -1 $-1 335 -4 -33.58901867067000069 0 0 -1 F -11.57901867067000268 F -3.589018670670003353 #
point $-1 -1 $-1 335 -4 -30 #
point $-1 -1 $-1 395.5000000000000568 -10.99000000000000021 -29.00000000000000355 #
coedge $-1 -1 $-1 $1102 $1198 $1163 $1199 forward $900 $-1 #
vertex $-1 -1 $-1 $1118 $1200 #
straight-curve $-1 -1 $-1 397.5 -4 -30 1 -1.224646799146999945e-16 0 F -32.5 F -1.999999999999957367 #
straight-curve $-1 -1 $-1 395.5000000000000568 -8.660981329326000733 -29.00000000000000355 1.224646799146999945e-16 1 0 F -2.329018670673999036 F -1.839018670673999711 #
coedge $-1 -1 $-1 $1201 $1107 $1202 $1203 forward $888 $-1 #
coedge $-1 -1 $-1 $1117 $1166 $1107 $1156 reversed $1017 $-1 #
edge $-1 -1 $-1 $1120 -0.4109813293299957593 $1204 0.589018670670000688 $1107 $1205 forward @7 unknown #
point $-1 -1 $-1 395.5000000000000568 -10.5 -30 #
DXID-attrib $-1 -1 $-1 $-1 $1112 @10 ASM ENTITY @2 57 #
face $1206 -1 $-1 $1207 $1208 $4 $-1 $1209 reversed single #
loop $-1 -1 $-1 $-1 $1210 $1112 #
plane-surface $-1 -1 $-1 397.5 5 -30 0 0 1 -1 1.224646799146999945e-16 0 forward_v I I I I #
coedge $-1 -1 $-1 $1211 $1212 $1198 $1213 forward $1113 $-1 #
coedge $-1 -1 $-1 $1214 $1115 $1150 $1199 reversed $1065 $-1 #
coedge $-1 -1 $-1 $1115 $1214 $1215 $1216 forward $1065 $-1 #
edge $-1 -1 $-1 $1217 1.428355697995912665 $1167 11.31370849897752073 $1116 $1218 forward @7 unknown #
coedge $-1 -1 $-1 $1155 $1116 $1219 $1220 forward $1017 $-1 #
vertex $-1 -1 $-1 $1199 $1221 #
straight-curve $-1 -1 $-1 365 -4 -33.58901867067000069 0 0 -1 F -11.57901867067000268 F -3.589018670670003353 #
straight-curve $-1 -1 $-1 365 -0.9109813293259999556 -30 -1.224646799146999945e-16 -1 0 F 3.089018670674000155 F 9.589018670674001044 #
point $-1 -1 $-1 365 -10.5 -30 #
coedge $-1 -1 $-1 $1127 $1201 $1210 $1222 reversed $888 $-1 #
coedge $-1 -1 $-1 $1223 $1224 $1127 $1173 reversed $1208 $-1 #
edge $-1 -1 $-1 $1225 -0.4109813293299957593 $1177 0.589018670670000688 $1127 $1226 forward @7 unknown #
coedge $-1 -1 $-1 $1227 $1128 $1224 $1228 reversed $1176 $-1 #
coedge $-1 -1 $-1 $1128 $1227 $1130 $1179 forward $1176 $-1 #
loop $-1 -1 $-1 $-1 $1128 $1140 #
vertex $-1 -1 $-1 $1173 $1229 #
straight-curve $-1 -1 $-1 398.5 -10.5 -29.00000000000000355 -1 1.224646799146999945e-16 0 F 61.49999999999998579 F 63.50000000000001421 #
edge $-1 -1 $-1 $1230 -2.329018670673999036 $1133 -1.839018670673999711 $1130 $1231 forward @7 unknown #
face $1232 -1 $-1 $1136 $1132 $4 $-1 $1233 forward single #
point $-1 -1 $-1 335 -10.5 -29.00000000000000355 #
straight-curve $-1 -1 $-1 335 -0.9109813293259999556 -30 -1.224646799146999945e-16 -1 0 F 3.089018670674000155 F 9.589018670674001044 #
DXID-attrib $-1 -1 $-1 $-1 $1136 @10 ASM ENTITY @2 61 #
plane-surface $-1 -1 $-1 397.5 5 -30 0 0 1 -1 1.224646799146999945e-16 0 forward_v I I I I #
DXID-attrib $-1 -1 $-1 $-1 $1140 @10 ASM ENTITY @2 63 #
face $1234 -1 $-1 $1076 $1235 $4 $-1 $1236 reversed single #
plane-surface $-1 -1 $-1 398.5 -10.5 -29.00000000000000355 0 0 1 -1 1.224646799146999945e-16 0 forward_v I I I I #
coedge $-1 -1 $-1 $1198 $1142 $1237 $1238 forward $900 $-1 #
coedge $-1 -1 $-1 $1239 $1223 $1142 $1190 reversed $1208 $-1 #
edge $-1 -1 $-1 $1194 -11.57901867067000268 $1240 -3.589018670670003353 $1142 $1241 forward @7 unknown #
coedge $-1 -1 $-1 $1242 $1143 $1145 $1196 reversed $1193 $-1 #
coedge $-1 -1 $-1 $1143 $1242 $1239 $1243 forward $1193 $-1 #
loop $-1 -1 $-1 $-1 $1192 $1207 #
vertex $-1 -1 $-1 $1144 $1244 #
straight-curve $-1 -1 $-1 367.25 -4 -22.01000000000000156 1 -1.224646799146999945e-16 0 F -32.25000000000001421 F -30.24999999999998579 #
edge $-1 -1 $-1 $1230 1.428355697995912665 $1146 11.31370849897752073 $1191 $1245 forward @7 unknown #
point $-1 -1 $-1 335 -4 -22.01000000000000156 #
coedge $-1 -1 $-1 $1150 $1188 $1162 $1213 reversed $900 $-1 #
edge $-1 -1 $-1 $1246 -18.24999999999995737 $1167 -16.25 $1150 $1247 forward @7 unknown #
point $-1 -1 $-1 365 -4 -30 #
coedge $-1 -1 $-1 $1171 $1154 $1248 $1249 reversed $888 $-1 #
coedge $-1 -1 $-1 $1219 $1250 $1154 $1203 reversed $1235 $-1 #
edge $-1 -1 $-1 $1204 33.50000000000001421 $1251 35.49999999999997158 $1154 $1252 forward @7 unknown #
vertex $-1 -1 $-1 $1156 $1253 #
straight-curve $-1 -1 $-1 365 -10.5 -29.58901867067000424 0 0 1 F -0.4109813293299957593 F 0.589018670670000688 #
DXID-attrib $-1 -1 $-1 $-1 $1159 @10 ASM ENTITY @2 58 #
face $1254 -1 $-1 $1180 $1193 $4 $-1 $1255 reversed single #
loop $-1 -1 $-1 $-1 $1189 $1159 #
plane-surface $-1 -1 $-1 337 -6.821962658651999689 -27.17803734134000138 -1 1.224646799146999945e-16 0 0 0 1 forward_v I I I I #
coedge $-1 -1 $-1 $1256 $1257 $1171 $1222 forward $1160 $-1 #
coedge $-1 -1 $-1 $1248 $1162 $1256 $1258 forward $1113 $-1 #
coedge $-1 -1 $-1 $1162 $1259 $1214 $1260 forward $1113 $-1 #
edge $-1 -1 $-1 $1246 -11.57901867067000268 $1261 -3.589018670670003353 $1198 $1262 forward @7 unknown #
coedge $-1 -1 $-1 $1164 $1163 $1212 $1260 reversed $1065 $-1 #
coedge $-1 -1 $-1 $1250 $1219 $1164 $1216 reversed $1235 $-1 #
edge $-1 -1 $-1 $1263 -18.75 $1217 -16.75000000000004263 $1164 $1264 forward @7 unknown #
vertex $-1 -1 $-1 $1165 $1265 #
straight-curve $-1 -1 $-1 365 -12.00000000000000178 -30.01000000000000512 8.659560562354999418e-17 0.7071067811870000996 0.7071067811870000996 F 1.428355697995912665 F 11.31370849897752073 #
coedge $-1 -1 $-1 $1215 $1202 $1166 $1220 reversed $1235 $-1 #
edge $-1 -1 $-1 $1217 -2.329018670673999036 $1204 -1.839018670673999711 $1166 $1266 forward @7 unknown #
point $-1 -1 $-1 365 -4 -22.01000000000000156 #
edge $-1 -1 $-1 $1225 -61.00000000000001421 $1267 -35 $1171 $1268 forward @7 unknown #
coedge $-1 -1 $-1 $1189 $1172 $1257 $1269 reversed $1208 $-1 #
coedge $-1 -1 $-1 $1172 $1239 $1174 $1228 forward $1208 $-1 #
vertex $-1 -1 $-1 $1222 $1270 #
straight-curve $-1 -1 $-1 337 -10.5 -29.58901867067000424 0 0 1 F -0.4109813293299957593 F 0.589018670670000688 #
coedge $-1 -1 $-1 $1175 $1174 $1242 $1271 reversed $1176 $-1 #
edge $-1 -1 $-1 $1272 -2.329018670673999036 $1177 -1.839018670673999711 $1224 $1273 forward @7 unknown #
point $-1 -1 $-1 337 -10.5 -29.00000000000000355 #
vertex $-1 -1 $-1 $1196 $1274 #
straight-curve $-1 -1 $-1 335 -8.660981329326000733 -29.00000000000000355 1.224646799146999945e-16 1 0 F -2.329018670673999036 F -1.839018670673999711 #
DXID-attrib $-1 -1 $-1 $-1 $1180 @10 ASM ENTITY @2 60 #
plane-surface $-1 -1 $-1 335 -6.821962658651999689 -27.17803734134000138 -1 1.224646799146999945e-16 0 0 0 1 forward_v I I I I #
DXID-attrib $-1 -1 $-1 $-1 $1186 @10 ASM ENTITY @2 64 #
loop $-1 -1 $-1 $-1 $1219 $1186 #
plane-surface $-1 -1 $-1 398.5 -10.5 -29.00000000000000355 0 0 1 -1 1.224646799146999945e-16 0 forward_v I I I I #
coedge $-1 -1 $-1 $1257 $1256 $1188 $1238 reversed $1160 $-1 #
edge $-1 -1 $-1 $1240 -60.49999999999997158 $1261 -34.49999999999995737 $1188 $1275 forward @7 unknown #
coedge $-1 -1 $-1 $1224 $1189 $1192 $1243 reversed $1208 $-1 #
vertex $-1 -1 $-1 $1190 $1276 #
straight-curve $-1 -1 $-1 337 -4 -33.58901867067000069 0 0 -1 F -11.57901867067000268 F -3.589018670670003353 #
coedge $-1 -1 $-1 $1192 $1191 $1227 $1271 forward $1193 $-1 #
edge $-1 -1 $-1 $1272 1.428355697995912665 $1194 11.31370849897752073 $1239 $1277 forward @7 unknown #
point $-1 -1 $-1 337 -4 -22.01000000000000156 #
straight-curve $-1 -1 $-1 335 -12.00000000000000178 -30.01000000000000512 8.659560562354999418e-17 0.7071067811870000996 0.7071067811870000996 F 1.428355697995912665 F 11.31370849897752073 #
vertex $-1 -1 $-1 $1213 $1278 #
straight-curve $-1 -1 $-1 381.25 -4 -22.01000000000000156 1 -1.224646799146999945e-16 0 F -18.24999999999995737 F -16.25 #
coedge $-1 -1 $-1 $1259 $1211 $1201 $1249 forward $1113 $-1 #
edge $-1 -1 $-1 $1267 -0.4109813293299957593 $1251 0.589018670670000688 $1201 $1279 forward @7 unknown #
coedge $-1 -1 $-1 $1202 $1215 $1259 $1280 forward $1235 $-1 #
vertex $-1 -1 $-1 $1203 $1281 #
straight-curve $-1 -1 $-1 398.5 -10.5 -29.00000000000000355 -1 1.224646799146999945e-16 0 F 33.50000000000001421 F 35.49999999999997158 #
point $-1 -1 $-1 365 -10.5 -29.00000000000000355 #
DXID-attrib $-1 -1 $-1 $-1 $1207 @10 ASM ENTITY @2 59 #
plane-surface $-1 -1 $-1 337 -12.00000000000000178 -30.01000000000000512 8.659560562349458903e-17 0.7071067811865475727 -0.7071067811865475727 8.659560562349461368e-17 0.7071067811865476838 0.7071067811865476838 forward_v I I I I #
coedge $-1 -1 $-1 $1237 $1210 $1211 $1258 reversed $1160 $-1 #
coedge $-1 -1 $-1 $1210 $1237 $1223 $1269 forward $1160 $-1 #
edge $-1 -1 $-1 $1261 3.089018670674000155 $1267 9.589018670674001044 $1211 $1282 forward @7 unknown #
coedge $-1 -1 $-1 $1212 $1248 $1250 $1280 reversed $1113 $-1 #
edge $-1 -1 $-1 $1263 1.428355697995912665 $1246 11.31370849897752073 $1214 $1283 forward @7 unknown #
vertex $-1 -1 $-1 $1238 $1284 #
straight-curve $-1 -1 $-1 363.0000000000000568 -4 -33.58901867067000069 0 0 -1 F -11.57901867067000268 F -3.589018670670003353 #
vertex $-1 -1 $-1 $1260 $1285 #
straight-curve $-1 -1 $-1 381.7500000000000568 -10.99000000000000021 -29.00000000000000355 1 -1.224646799146999945e-16 0 F -18.75 F -16.75000000000004263 #
point $-1 -1 $-1 365 -10.99000000000000021 -29.00000000000000355 #
straight-curve $-1 -1 $-1 365 -8.660981329326000733 -29.00000000000000355 1.224646799146999945e-16 1 0 F -2.329018670673999036 F -1.839018670673999711 #
vertex $-1 -1 $-1 $1249 $1286 #
straight-curve $-1 -1 $-1 398.0000000000000568 -10.5 -30 1 -1.224646799146999945e-16 0 F -61.00000000000001421 F -35 #
edge $-1 -1 $-1 $1240 3.089018670674000155 $1225 9.589018670674001044 $1257 $1287 forward @7 unknown #
point $-1 -1 $-1 337 -10.5 -30 #
edge $-1 -1 $-1 $1230 -32.74999999999998579 $1272 -30.74999999999995737 $1242 $1288 forward @7 unknown #
vertex $-1 -1 $-1 $1243 $1289 #
straight-curve $-1 -1 $-1 337 -8.660981329326000733 -29.00000000000000355 1.224646799146999945e-16 1 0 F -2.329018670673999036 F -1.839018670673999711 #
point $-1 -1 $-1 335 -10.99000000000000021 -29.00000000000000355 #
straight-curve $-1 -1 $-1 397.5 -4 -30 1 -1.224646799146999945e-16 0 F -60.49999999999997158 F -34.49999999999995737 #
point $-1 -1 $-1 337 -4 -30 #
straight-curve $-1 -1 $-1 337 -12.00000000000000178 -30.01000000000000512 8.659560562354999418e-17 0.7071067811870000996 0.7071067811870000996 F 1.428355697995912665 F 11.31370849897752073 #
point $-1 -1 $-1 363.0000000000000568 -4 -22.01000000000000156 #
straight-curve $-1 -1 $-1 363.0000000000000568 -10.5 -29.58901867067000424 0 0 1 F -0.4109813293299957593 F 0.589018670670000688 #
edge $-1 -1 $-1 $1263 -2.329018670673999036 $1251 -1.839018670673999711 $1259 $1290 forward @7 unknown #
point $-1 -1 $-1 363.0000000000000568 -10.5 -29.00000000000000355 #
straight-curve $-1 -1 $-1 363.0000000000000568 -0.9109813293259999556 -30 -1.224646799146999945e-16 -1 0 F 3.089018670674000155 F 9.589018670674001044 #
straight-curve $-1 -1 $-1 363.0000000000000568 -12.00000000000000178 -30.01000000000000512 8.659560562354999418e-17 0.7071067811870000996 0.7071067811870000996 F 1.428355697995912665 F 11.31370849897752073 #
point $-1 -1 $-1 363.0000000000000568 -4 -30 #
point $-1 -1 $-1 363.0000000000000568 -10.99000000000000021 -29.00000000000000355 #
point $-1 -1 $-1 363.0000000000000568 -10.5 -30 #
straight-curve $-1 -1 $-1 337 -0.9109813293259999556 -30 -1.224646799146999945e-16 -1 0 F 3.089018670674000155 F 9.589018670674001044 #
straight-curve $-1 -1 $-1 367.75 -10.99000000000000021 -29.00000000000000355 1 -1.224646799146999945e-16 0 F -32.74999999999998579 F -30.74999999999995737 #
point $-1 -1 $-1 337 -10.99000000000000021 -29.00000000000000355 #
straight-curve $-1 -1 $-1 363.0000000000000568 -8.660981329326000733 -29.00000000000000355 1.224646799146999945e-16 1 0 F -2.329018670673999036 F -1.839018670673999711 #
End-of-ACIS-data 