700 0 3 0           
30 Autodesk Translation Framework 21 ASM 232.4.0.65535 OSX 24 Fri Sep 18 19:26:44 2026 
1 9.999999999999999547e-07 1.000000000000000036e-10 
body $3 -1 $-1 $4 $-1 $-1 #
body $5 -1 $-1 $6 $-1 $-1 #
body $7 -1 $-1 $8 $-1 $-1 #
rgb_color-st-attrib $-1 -1 $9 $-1 $0 0.627450980392156854 0.627450980392156854 0.627450980392156854 #
lump $-1 -1 $-1 $-1 $10 $0 #
rgb_color-st-attrib $-1 -1 $11 $-1 $1 0.627450980392156854 0.627450980392156854 0.627450980392156854 #
lump $-1 -1 $-1 $-1 $12 $1 #
rgb_color-st-attrib $-1 -1 $13 $-1 $2 0.627450980392156854 0.627450980392156854 0.627450980392156854 #
lump $-1 -1 $-1 $-1 $14 $2 #
ATTRIB_CUSTOM-attrib $-1 -1 $-1 $3 $0 @20 Timestamp_attrib_def 1 1789756004483222 #
shell $-1 -1 $-1 $-1 $-1 $15 $-1 $4 #
ATTRIB_CUSTOM-attrib $-1 -1 $-1 $5 $1 @20 Timestamp_attrib_def 1 1789756004483494 #
shell $-1 -1 $-1 $-1 $-1 $16 $-1 $6 #
ATTRIB_CUSTOM-attrib $-1 -1 $-1 $7 $2 @20 Timestamp_attrib_def 1 1789756004483713 #
shell $-1 -1 $-1 $-1 $-1 $17 $-1 $8 #
face $18 -1 $-1 $19 $20 $10 $-1 $21 reversed single #
face $22 -1 $-1 $23 $24 $12 $-1 $25 forward single #
face $26 -1 $-1 $27 $28 $14 $-1 $29 forward single #
DXID-attrib $-1 -1 $-1 $-1 $15 @10 ASM ENTITY @1 0 #
face $30 -1 $-1 $31 $32 $10 $-1 $33 reversed single #
loop $-1 -1 $-1 $-1 $34 $15 #
plane-surface $-1 -1 $-1 352.0500000000000682 -16.5 -35.20000000000000284 -1 1.224646799146999945e-16 0 0 0 1 forward_v I I I I #
DXID-attrib $-1 -1 $-1 $-1 $16 @10 ASM ENTITY @1 0 #
face $35 -1 $-1 $36 $37 $12 $-1 $38 forward single #
loop $-1 -1 $-1 $39 $40 $16 #
cone-surface $-1 -1 $-1 353.1999999999999886 -20.66306801421000117 -38.5 0 0 1 -1.425000000000000266 1.745121688784474885e-16 0 1 I I 0 1 1.425000000000000266 forward I I I I #
DXID-attrib $-1 -1 $-1 $-1 $17 @10 ASM ENTITY @1 0 #
face $41 -1 $-1 $42 $43 $14 $-1 $44 forward single #
loop $-1 -1 $-1 $45 $46 $17 #
cone-surface $-1 -1 $-1 346.8000000000000114 -20.66306801421000117 -38.5 0 0 1 -1.425000000000000266 1.745121688784474885e-16 0 1 I I 0 1 1.425000000000000266 forward I I I I #
DXID-attrib $-1 -1 $-1 $-1 $19 @10 ASM ENTITY @1 1 #
face $47 -1 $-1 $48 $49 $10 $-1 $50 forward single #
loop $-1 -1 $-1 $-1 $51 $19 #
plane-surface $-1 -1 $-1 352.0500000000000682 -16.5 -35.20000000000000284 -1.224646799146999945e-16 -1 0 0 0 1 forward_v I I I I #
coedge $-1 -1 $-1 $52 $53 $54 $55 forward $20 $-1 #
DXID-attrib $-1 -1 $-1 $-1 $23 @10 ASM ENTITY @1 1 #
face $56 -1 $-1 $-1 $57 $12 $-1 $58 reversed single #
loop $-1 -1 $-1 $-1 $59 $23 #
plane-surface $-1 -1 $-1 353.1999999999999886 -20.66306801421000117 -32 0 0 1 -1 1.224646799146999945e-16 0 forward_v I I I I #
loop $-1 -1 $-1 $-1 $60 $16 #
coedge $-1 -1 $-1 $40 $40 $61 $62 forward $24 $-1 #
DXID-attrib $-1 -1 $-1 $-1 $27 @10 ASM ENTITY @1 1 #
face $63 -1 $-1 $-1 $64 $14 $-1 $65 reversed single #
loop $-1 -1 $-1 $-1 $66 $27 #
plane-surface $-1 -1 $-1 346.8000000000000114 -20.66306801421000117 -32 0 0 1 -1 1.224646799146999945e-16 0 forward_v I I I I #
loop $-1 -1 $-1 $-1 $67 $17 #
coedge $-1 -1 $-1 $46 $46 $68 $69 forward $28 $-1 #
DXID-attrib $-1 -1 $-1 $-1 $31 @10 ASM ENTITY @1 2 #
face $70 -1 $-1 $71 $72 $10 $-1 $73 forward single #
loop $-1 -1 $-1 $-1 $74 $31 #
plane-surface $-1 -1 $-1 352.0500000000000682 -16.5 -33.70000000000000284 0 0 1 -1 1.224646799146999945e-16 0 forward_v I I I I #
coedge $-1 -1 $-1 $75 $54 $76 $77 forward $32 $-1 #
coedge $-1 -1 $-1 $78 $34 $74 $79 forward $20 $-1 #
coedge $-1 -1 $-1 $34 $78 $80 $81 reversed $20 $-1 #
coedge $-1 -1 $-1 $51 $82 $34 $55 reversed $32 $-1 #
edge $-1 -1 $-1 $83 0 $84 1.499999999999999112 $34 $85 forward @7 unknown #
DXID-attrib $-1 -1 $-1 $-1 $36 @10 ASM ENTITY @1 2 #
loop $-1 -1 $-1 $-1 $61 $36 #
plane-surface $-1 -1 $-1 353.1999999999999886 -20.66306801421000117 -38.5 0 0 1 -1 1.224646799146999945e-16 0 forward_v I I I I #
coedge $-1 -1 $-1 $59 $59 $60 $86 forward $37 $-1 #
coedge $-1 -1 $-1 $60 $60 $59 $86 reversed $39 $-1 #
coedge $-1 -1 $-1 $61 $61 $40 $62 reversed $57 $-1 #
edge $-1 -1 $-1 $87 1.224646799146999945e-16 $87 6.283185307179586232 $40 $88 forward @7 unknown #
DXID-attrib $-1 -1 $-1 $-1 $42 @10 ASM ENTITY @1 2 #
loop $-1 -1 $-1 $-1 $68 $42 #
plane-surface $-1 -1 $-1 346.8000000000000114 -20.66306801421000117 -38.5 0 0 1 -1 1.224646799146999945e-16 0 forward_v I I I I #
coedge $-1 -1 $-1 $66 $66 $67 $89 forward $43 $-1 #
coedge $-1 -1 $-1 $67 $67 $66 $89 reversed $45 $-1 #
coedge $-1 -1 $-1 $68 $68 $46 $69 reversed $64 $-1 #
edge $-1 -1 $-1 $90 1.224646799146999945e-16 $90 6.283185307179586232 $46 $91 forward @7 unknown #
DXID-attrib $-1 -1 $-1 $-1 $48 @10 ASM ENTITY @1 3 #
face $92 -1 $-1 $93 $94 $10 $-1 $95 reversed single #
loop $-1 -1 $-1 $96 $97 $48 #
plane-surface $-1 -1 $-1 352.0500000000000682 -19.5 -35.20000000000000284 -1.224646799146999945e-16 -1 0 0 0 1 forward_v I I I I #
coedge $-1 -1 $-1 $98 $99 $52 $79 reversed $49 $-1 #
coedge $-1 -1 $-1 $82 $51 $100 $101 forward $32 $-1 #
coedge $-1 -1 $-1 $80 $102 $51 $77 reversed $94 $-1 #
edge $-1 -1 $-1 $83 0 $103 4.100000000000036948 $51 $104 forward @7 unknown #
coedge $-1 -1 $-1 $53 $52 $105 $106 reversed $20 $-1 #
edge $-1 -1 $-1 $84 0 $107 3.000000000000000444 $52 $108 forward @7 unknown #
coedge $-1 -1 $-1 $109 $76 $53 $81 forward $94 $-1 #
edge $-1 -1 $-1 $83 0 $110 3.000000000000000444 $53 $111 forward @7 unknown #
coedge $-1 -1 $-1 $54 $75 $98 $112 reversed $32 $-1 #
vertex $-1 -1 $-1 $55 $113 #
vertex $-1 -1 $-1 $55 $114 #
straight-curve $-1 -1 $-1 352.0500000000000682 -16.5 -35.20000000000000284 0 0 1 F 0 F 1.499999999999999112 #
edge $-1 -1 $-1 $115 1.224646799146999945e-16 $115 6.283185307179586232 $60 $116 forward @7 unknown #
vertex $-1 -1 $-1 $62 $117 #
ellipse-curve $-1 -1 $-1 353.1999999999999886 -20.66306801421000117 -38.5 0 0 1 -1.425000000000000266 1.745121688784474885e-16 0 1 I I #
edge $-1 -1 $-1 $118 1.224646799146999945e-16 $118 6.283185307179586232 $67 $119 forward @7 unknown #
vertex $-1 -1 $-1 $69 $120 #
ellipse-curve $-1 -1 $-1 346.8000000000000114 -20.66306801421000117 -38.5 0 0 1 -1.425000000000000266 1.745121688784474885e-16 0 1 I I #
DXID-attrib $-1 -1 $-1 $-1 $71 @10 ASM ENTITY @1 4 #
face $121 -1 $-1 $122 $123 $10 $-1 $124 forward single #
loop $-1 -1 $-1 $-1 $80 $71 #
plane-surface $-1 -1 $-1 352.0500000000000682 -16.5 -35.20000000000000284 0 0 1 -1 1.224646799146999945e-16 0 forward_v I I I I #
loop $-1 -1 $-1 $125 $126 $48 #
coedge $-1 -1 $-1 $105 $127 $109 $128 reversed $72 $-1 #
coedge $-1 -1 $-1 $129 $74 $82 $112 forward $49 $-1 #
coedge $-1 -1 $-1 $74 $129 $130 $131 reversed $49 $-1 #
coedge $-1 -1 $-1 $132 $133 $75 $101 reversed $123 $-1 #
edge $-1 -1 $-1 $103 0 $134 1.499999999999999112 $75 $135 forward @7 unknown #
coedge $-1 -1 $-1 $76 $109 $132 $136 reversed $94 $-1 #
vertex $-1 -1 $-1 $77 $137 #
straight-curve $-1 -1 $-1 352.0500000000000682 -16.5 -35.20000000000000284 -1 1.224646799146999945e-16 0 F 0 F 4.100000000000036948 #
coedge $-1 -1 $-1 $130 $97 $78 $106 forward $72 $-1 #
edge $-1 -1 $-1 $110 0 $107 1.499999999999999112 $78 $138 forward @7 unknown #
vertex $-1 -1 $-1 $79 $139 #
straight-curve $-1 -1 $-1 352.0500000000000682 -16.5 -33.70000000000000284 -1.224646799146999945e-16 -1 0 F 0 F 3.000000000000000444 #
coedge $-1 -1 $-1 $102 $80 $97 $128 forward $94 $-1 #
vertex $-1 -1 $-1 $106 $140 #
straight-curve $-1 -1 $-1 352.0500000000000682 -16.5 -35.20000000000000284 -1.224646799146999945e-16 -1 0 F 0 F 3.000000000000000444 #
edge $-1 -1 $-1 $84 0 $134 4.100000000000036948 $82 $141 forward @7 unknown #
point $-1 -1 $-1 352.0500000000000682 -16.5 -35.20000000000000284 #
point $-1 -1 $-1 352.0500000000000682 -16.5 -33.70000000000000284 #
vertex $-1 -1 $-1 $86 $142 #
ellipse-curve $-1 -1 $-1 353.1999999999999886 -20.66306801421000117 -32 0 0 1 -1.425000000000000266 1.745121688784474885e-16 0 1 I I #
point $-1 -1 $-1 351.7750000000000341 -20.66306801421000117 -38.5 #
vertex $-1 -1 $-1 $89 $143 #
ellipse-curve $-1 -1 $-1 346.8000000000000114 -20.66306801421000117 -32 0 0 1 -1.425000000000000266 1.745121688784474885e-16 0 1 I I #
point $-1 -1 $-1 345.375 -20.66306801421000117 -38.5 #
DXID-attrib $-1 -1 $-1 $-1 $93 @10 ASM ENTITY @1 5 #
face $144 -1 $-1 $145 $146 $10 $-1 $147 forward single #
loop $-1 -1 $-1 $-1 $100 $93 #
plane-surface $-1 -1 $-1 347.9500000000000455 -16.5 -35.20000000000000284 -1 1.224646799146999945e-16 0 0 0 1 forward_v I I I I #
loop $-1 -1 $-1 $148 $149 $48 #
coedge $-1 -1 $-1 $150 $151 $152 $153 reversed $96 $-1 #
coedge $-1 -1 $-1 $97 $130 $154 $155 reversed $72 $-1 #
edge $-1 -1 $-1 $110 0 $156 4.100000000000036948 $97 $157 forward @7 unknown #
coedge $-1 -1 $-1 $99 $98 $133 $158 forward $49 $-1 #
coedge $-1 -1 $-1 $127 $105 $99 $131 forward $72 $-1 #
edge $-1 -1 $-1 $107 0 $159 4.100000000000036948 $99 $160 forward @7 unknown #
coedge $-1 -1 $-1 $154 $100 $102 $136 forward $123 $-1 #
coedge $-1 -1 $-1 $100 $154 $129 $158 reversed $123 $-1 #
vertex $-1 -1 $-1 $101 $161 #
straight-curve $-1 -1 $-1 347.9500000000000455 -16.5 -35.20000000000000284 0 0 1 F 0 F 1.499999999999999112 #
edge $-1 -1 $-1 $103 0 $156 3.000000000000000444 $102 $162 forward @7 unknown #
point $-1 -1 $-1 347.9500000000000455 -16.5 -35.20000000000000284 #
straight-curve $-1 -1 $-1 352.0500000000000682 -19.5 -35.20000000000000284 0 0 1 F 0 F 1.499999999999999112 #
point $-1 -1 $-1 352.0500000000000682 -19.5 -33.70000000000000284 #
point $-1 -1 $-1 352.0500000000000682 -19.5 -35.20000000000000284 #
straight-curve $-1 -1 $-1 352.0500000000000682 -16.5 -33.70000000000000284 -1 1.224646799146999945e-16 0 F 0 F 4.100000000000036948 #
point $-1 -1 $-1 351.7750000000000341 -20.66306801421000117 -32 #
point $-1 -1 $-1 345.375 -20.66306801421000117 -32 #
DXID-attrib $-1 -1 $-1 $-1 $122 @10 ASM ENTITY @1 6 #
face $163 -1 $-1 $164 $165 $10 $-1 $166 reversed single #
loop $-1 -1 $-1 $-1 $167 $122 #
plane-surface $-1 -1 $-1 351.4950000000000045 -19.48999999999999844 -34.22500000000000142 0 0 1 -1 1.224646799146999945e-16 0 forward_v I I I I #
loop $-1 -1 $-1 $-1 $168 $48 #
coedge $-1 -1 $-1 $169 $170 $171 $172 reversed $125 $-1 #
coedge $-1 -1 $-1 $173 $126 $174 $175 forward $96 $-1 #
coedge $-1 -1 $-1 $126 $173 $176 $177 reversed $96 $-1 #
coedge $-1 -1 $-1 $178 $167 $126 $153 forward $146 $-1 #
edge $-1 -1 $-1 $179 0.2774999999999749889 $180 0.7274999999999920419 $126 $181 forward @7 unknown #
coedge $-1 -1 $-1 $133 $132 $127 $155 forward $123 $-1 #
edge $-1 -1 $-1 $156 0 $159 1.499999999999999112 $127 $182 forward @7 unknown #
vertex $-1 -1 $-1 $128 $183 #
straight-curve $-1 -1 $-1 352.0500000000000682 -19.5 -35.20000000000000284 -1 1.224646799146999945e-16 0 F 0 F 4.100000000000036948 #
edge $-1 -1 $-1 $134 0 $159 3.000000000000000444 $129 $184 forward @7 unknown #
vertex $-1 -1 $-1 $158 $185 #
straight-curve $-1 -1 $-1 352.0500000000000682 -19.5 -33.70000000000000284 -1 1.224646799146999945e-16 0 F 0 F 4.100000000000036948 #
point $-1 -1 $-1 347.9500000000000455 -16.5 -33.70000000000000284 #
straight-curve $-1 -1 $-1 347.9500000000000455 -16.5 -35.20000000000000284 -1.224646799146999945e-16 -1 0 F 0 F 3.000000000000000444 #
DXID-attrib $-1 -1 $-1 $-1 $145 @10 ASM ENTITY @1 7 #
face $186 -1 $-1 $187 $188 $10 $-1 $189 forward single #
loop $-1 -1 $-1 $-1 $190 $145 #
plane-surface $-1 -1 $-1 351.4950000000000045 -19.48999999999999844 -34.67499999999999716 -1 1.224646799146999945e-16 0 0 0 1 forward_v I I I I #
coedge $-1 -1 $-1 $152 $191 $190 $192 reversed $146 $-1 #
coedge $-1 -1 $-1 $193 $194 $195 $196 reversed $148 $-1 #
coedge $-1 -1 $-1 $197 $149 $198 $199 forward $125 $-1 #
coedge $-1 -1 $-1 $149 $197 $200 $201 reversed $125 $-1 #
coedge $-1 -1 $-1 $202 $203 $149 $172 forward $204 $-1 #
edge $-1 -1 $-1 $205 0.9125000000000227374 $206 1.36250000000003979 $149 $207 forward @7 unknown #
coedge $-1 -1 $-1 $151 $150 $208 $209 forward $96 $-1 #
coedge $-1 -1 $-1 $190 $210 $150 $175 reversed $165 $-1 #
edge $-1 -1 $-1 $179 -0.7125000000000003553 $211 -0.2625000000000055067 $150 $212 forward @7 unknown #
coedge $-1 -1 $-1 $213 $214 $151 $177 forward $188 $-1 #
edge $-1 -1 $-1 $180 -0.7125000000000003553 $215 -0.2625000000000055067 $151 $216 forward @7 unknown #
coedge $-1 -1 $-1 $191 $152 $214 $217 forward $146 $-1 #
vertex $-1 -1 $-1 $153 $218 #
vertex $-1 -1 $-1 $153 $219 #
straight-curve $-1 -1 $-1 351.7725000000000364 -19.5 -34.22500000000000142 -1 1.224646799146999945e-16 0 F 0.2774999999999749889 F 0.7274999999999920419 #
straight-curve $-1 -1 $-1 347.9500000000000455 -19.5 -35.20000000000000284 0 0 1 F 0 F 1.499999999999999112 #
point $-1 -1 $-1 347.9500000000000455 -19.5 -35.20000000000000284 #
straight-curve $-1 -1 $-1 347.9500000000000455 -16.5 -33.70000000000000284 -1.224646799146999945e-16 -1 0 F 0 F 3.000000000000000444 #
point $-1 -1 $-1 347.9500000000000455 -19.5 -33.70000000000000284 #
DXID-attrib $-1 -1 $-1 $-1 $164 @10 ASM ENTITY @1 8 #
face $220 -1 $-1 $221 $222 $10 $-1 $223 reversed single #
loop $-1 -1 $-1 $-1 $214 $164 #
plane-surface $-1 -1 $-1 351.0450000000000159 -19.48999999999999844 -34.67499999999999716 -1 1.224646799146999945e-16 0 0 0 1 forward_v I I I I #
coedge $-1 -1 $-1 $224 $174 $167 $192 forward $165 $-1 #
coedge $-1 -1 $-1 $167 $178 $225 $226 reversed $146 $-1 #
edge $-1 -1 $-1 $179 0.01000000000000333955 $227 14.01000000000000156 $167 $228 forward @7 unknown #
coedge $-1 -1 $-1 $229 $168 $230 $231 forward $148 $-1 #
coedge $-1 -1 $-1 $168 $229 $232 $233 reversed $148 $-1 #
coedge $-1 -1 $-1 $234 $235 $168 $196 forward $236 $-1 #
edge $-1 -1 $-1 $237 1.547499999999999432 $238 1.99749999999994543 $168 $239 forward @7 unknown #
coedge $-1 -1 $-1 $170 $169 $240 $241 forward $125 $-1 #
coedge $-1 -1 $-1 $242 $243 $169 $199 reversed $244 $-1 #
edge $-1 -1 $-1 $205 -0.7125000000000003553 $245 -0.2625000000000055067 $169 $246 forward @7 unknown #
coedge $-1 -1 $-1 $247 $248 $170 $201 forward $249 $-1 #
edge $-1 -1 $-1 $206 -0.7125000000000003553 $250 -0.2625000000000055067 $170 $251 forward @7 unknown #
coedge $-1 -1 $-1 $252 $171 $248 $253 forward $204 $-1 #
coedge $-1 -1 $-1 $171 $252 $242 $254 reversed $204 $-1 #
loop $-1 -1 $-1 $-1 $203 $221 #
vertex $-1 -1 $-1 $172 $255 #
vertex $-1 -1 $-1 $172 $256 #
straight-curve $-1 -1 $-1 351.1375000000000455 -19.5 -34.22500000000000142 -1 1.224646799146999945e-16 0 F 0.9125000000000227374 F 1.36250000000003979 #
coedge $-1 -1 $-1 $257 $258 $173 $209 reversed $222 $-1 #
edge $-1 -1 $-1 $211 0.2774999999999749889 $215 0.7274999999999920419 $173 $259 forward @7 unknown #
coedge $-1 -1 $-1 $174 $224 $257 $260 reversed $165 $-1 #
vertex $-1 -1 $-1 $175 $261 #
straight-curve $-1 -1 $-1 351.4950000000000045 -19.5 -34.9375 0 0 -1 F -0.7125000000000003553 F -0.2625000000000055067 #
coedge $-1 -1 $-1 $262 $176 $258 $263 forward $188 $-1 #
coedge $-1 -1 $-1 $176 $262 $178 $217 reversed $188 $-1 #
vertex $-1 -1 $-1 $209 $264 #
straight-curve $-1 -1 $-1 351.0450000000000159 -19.5 -34.9375 0 0 -1 F -0.7125000000000003553 F -0.2625000000000055067 #
edge $-1 -1 $-1 $180 0.01000000000000333955 $265 14.01000000000000156 $178 $266 forward @7 unknown #
point $-1 -1 $-1 351.4950000000000045 -19.5 -34.22500000000000142 #
point $-1 -1 $-1 351.0450000000000159 -19.5 -34.22500000000000142 #
DXID-attrib $-1 -1 $-1 $-1 $187 @10 ASM ENTITY @1 9 #
face $267 -1 $-1 $268 $204 $10 $-1 $269 forward single #
loop $-1 -1 $-1 $-1 $257 $187 #
plane-surface $-1 -1 $-1 351.4950000000000045 -19.48999999999999844 -34.67499999999999716 0 0 1 -1 1.224646799146999945e-16 0 forward_v I I I I #
coedge $-1 -1 $-1 $210 $190 $270 $271 reversed $165 $-1 #
coedge $-1 -1 $-1 $272 $270 $191 $226 forward $273 $-1 #
edge $-1 -1 $-1 $227 0 $265 0.450000000000017053 $191 $274 forward @7 unknown #
vertex $-1 -1 $-1 $192 $275 #
straight-curve $-1 -1 $-1 351.4950000000000045 -19.48999999999999844 -34.22500000000000142 -1.224646799146999945e-16 -1 0 F 0.01000000000000333955 F 14.01000000000000156 #
coedge $-1 -1 $-1 $194 $193 $276 $277 forward $148 $-1 #
coedge $-1 -1 $-1 $278 $279 $193 $231 reversed $280 $-1 #
edge $-1 -1 $-1 $237 -0.7125000000000003553 $281 -0.2625000000000055067 $193 $282 forward @7 unknown #
coedge $-1 -1 $-1 $283 $284 $194 $233 forward $285 $-1 #
edge $-1 -1 $-1 $238 -0.7125000000000003553 $286 -0.2625000000000055067 $194 $287 forward @7 unknown #
coedge $-1 -1 $-1 $288 $195 $284 $289 forward $236 $-1 #
coedge $-1 -1 $-1 $195 $288 $278 $290 reversed $236 $-1 #
loop $-1 -1 $-1 $-1 $235 $291 #
vertex $-1 -1 $-1 $196 $292 #
vertex $-1 -1 $-1 $196 $293 #
straight-curve $-1 -1 $-1 350.5024999999999977 -19.5 -34.22500000000000142 -1 1.224646799146999945e-16 0 F 1.547499999999999432 F 1.99749999999994543 #
coedge $-1 -1 $-1 $294 $295 $197 $241 reversed $296 $-1 #
edge $-1 -1 $-1 $245 0.9125000000000227374 $250 1.36250000000003979 $197 $297 forward @7 unknown #
coedge $-1 -1 $-1 $298 $198 $203 $254 forward $244 $-1 #
coedge $-1 -1 $-1 $198 $298 $294 $299 reversed $244 $-1 #
loop $-1 -1 $-1 $-1 $242 $268 #
vertex $-1 -1 $-1 $199 $300 #
straight-curve $-1 -1 $-1 350.2250000000000227 -19.5 -34.9375 0 0 -1 F -0.7125000000000003553 F -0.2625000000000055067 #
coedge $-1 -1 $-1 $301 $200 $295 $302 forward $249 $-1 #
coedge $-1 -1 $-1 $200 $301 $202 $253 reversed $249 $-1 #
loop $-1 -1 $-1 $-1 $248 $303 #
vertex $-1 -1 $-1 $241 $304 #
straight-curve $-1 -1 $-1 349.7749999999999773 -19.5 -34.9375 0 0 -1 F -0.7125000000000003553 F -0.2625000000000055067 #
coedge $-1 -1 $-1 $203 $202 $305 $306 reversed $204 $-1 #
edge $-1 -1 $-1 $206 0.01000000000000333955 $307 14.01000000000000156 $202 $308 forward @7 unknown #
edge $-1 -1 $-1 $205 0.01000000000000333955 $309 14.01000000000000156 $203 $310 forward @7 unknown #
point $-1 -1 $-1 350.2250000000000227 -19.5 -34.22500000000000142 #
point $-1 -1 $-1 349.7749999999999773 -19.5 -34.22500000000000142 #
coedge $-1 -1 $-1 $311 $208 $210 $260 forward $222 $-1 #
coedge $-1 -1 $-1 $208 $311 $213 $263 reversed $222 $-1 #
straight-curve $-1 -1 $-1 351.7725000000000364 -19.5 -34.67499999999999716 -1 1.224646799146999945e-16 0 F 0.2774999999999749889 F 0.7274999999999920419 #
edge $-1 -1 $-1 $211 0.01000000000000333955 $312 14.01000000000000156 $210 $313 forward @7 unknown #
point $-1 -1 $-1 351.4950000000000045 -19.5 -34.67499999999999716 #
coedge $-1 -1 $-1 $214 $213 $272 $314 forward $188 $-1 #
edge $-1 -1 $-1 $215 0.01000000000000333955 $315 14.01000000000000156 $213 $316 forward @7 unknown #
point $-1 -1 $-1 351.0450000000000159 -19.5 -34.67499999999999716 #
vertex $-1 -1 $-1 $217 $317 #
straight-curve $-1 -1 $-1 351.0450000000000159 -19.48999999999999844 -34.22500000000000142 -1.224646799146999945e-16 -1 0 F 0.01000000000000333955 F 14.01000000000000156 #
DXID-attrib $-1 -1 $-1 $-1 $221 @10 ASM ENTITY @2 10 #
face $318 -1 $-1 $303 $244 $10 $-1 $319 reversed single #
plane-surface $-1 -1 $-1 350.2250000000000227 -19.48999999999999844 -34.22500000000000142 0 0 1 -1 1.224646799146999945e-16 0 forward_v I I I I #
coedge $-1 -1 $-1 $225 $320 $224 $271 forward $273 $-1 #
edge $-1 -1 $-1 $312 0 $227 0.4499999999999948486 $224 $321 forward @7 unknown #
coedge $-1 -1 $-1 $320 $225 $262 $314 reversed $273 $-1 #
loop $-1 -1 $-1 $-1 $320 $322 #
straight-curve $-1 -1 $-1 351.4950000000000045 -33.5 -34.22500000000000142 -1 1.224646799146999945e-16 0 F 0 F 0.450000000000017053 #
point $-1 -1 $-1 351.4950000000000045 -33.5 -34.22500000000000142 #
coedge $-1 -1 $-1 $323 $324 $229 $277 reversed $325 $-1 #
edge $-1 -1 $-1 $281 1.547499999999999432 $286 1.99749999999994543 $229 $326 forward @7 unknown #
coedge $-1 -1 $-1 $327 $230 $235 $290 forward $280 $-1 #
coedge $-1 -1 $-1 $230 $327 $323 $328 reversed $280 $-1 #
loop $-1 -1 $-1 $-1 $278 $329 #
vertex $-1 -1 $-1 $231 $330 #
straight-curve $-1 -1 $-1 348.9549999999999841 -19.5 -34.9375 0 0 -1 F -0.7125000000000003553 F -0.2625000000000055067 #
coedge $-1 -1 $-1 $331 $232 $324 $332 forward $285 $-1 #
coedge $-1 -1 $-1 $232 $331 $234 $289 reversed $285 $-1 #
loop $-1 -1 $-1 $-1 $284 $333 #
vertex $-1 -1 $-1 $277 $334 #
straight-curve $-1 -1 $-1 348.5050000000000523 -19.5 -34.9375 0 0 -1 F -0.7125000000000003553 F -0.2625000000000055067 #
coedge $-1 -1 $-1 $235 $234 $335 $336 reversed $236 $-1 #
edge $-1 -1 $-1 $238 0.01000000000000333955 $337 14.01000000000000156 $234 $338 forward @7 unknown #
edge $-1 -1 $-1 $237 0.01000000000000333955 $339 14.01000000000000156 $235 $340 forward @7 unknown #
face $341 -1 $-1 $333 $236 $10 $-1 $342 forward single #
point $-1 -1 $-1 348.9549999999999841 -19.5 -34.22500000000000142 #
point $-1 -1 $-1 348.5050000000000523 -19.5 -34.22500000000000142 #
coedge $-1 -1 $-1 $343 $240 $243 $299 forward $296 $-1 #
coedge $-1 -1 $-1 $240 $343 $247 $302 reversed $296 $-1 #
loop $-1 -1 $-1 $-1 $294 $344 #
straight-curve $-1 -1 $-1 351.1375000000000455 -19.5 -34.67499999999999716 -1 1.224646799146999945e-16 0 F 0.9125000000000227374 F 1.36250000000003979 #
coedge $-1 -1 $-1 $243 $242 $345 $346 reversed $244 $-1 #
edge $-1 -1 $-1 $245 0.01000000000000333955 $347 14.01000000000000156 $243 $348 forward @7 unknown #
point $-1 -1 $-1 350.2250000000000227 -19.5 -34.67499999999999716 #
coedge $-1 -1 $-1 $248 $247 $349 $350 forward $249 $-1 #
edge $-1 -1 $-1 $250 0.01000000000000333955 $351 14.01000000000000156 $247 $352 forward @7 unknown #
face $353 -1 $-1 $344 $249 $10 $-1 $354 forward single #
point $-1 -1 $-1 349.7749999999999773 -19.5 -34.67499999999999716 #
coedge $-1 -1 $-1 $349 $345 $252 $306 forward $355 $-1 #
edge $-1 -1 $-1 $309 0 $307 0.450000000000017053 $252 $356 forward @7 unknown #
vertex $-1 -1 $-1 $253 $357 #
straight-curve $-1 -1 $-1 349.7749999999999773 -19.48999999999999844 -34.22500000000000142 -1.224646799146999945e-16 -1 0 F 0.01000000000000333955 F 14.01000000000000156 #
vertex $-1 -1 $-1 $254 $358 #
straight-curve $-1 -1 $-1 350.2250000000000227 -19.48999999999999844 -34.22500000000000142 -1.224646799146999945e-16 -1 0 F 0.01000000000000333955 F 14.01000000000000156 #
coedge $-1 -1 $-1 $258 $257 $320 $359 forward $222 $-1 #
vertex $-1 -1 $-1 $271 $360 #
straight-curve $-1 -1 $-1 351.4950000000000045 -19.48999999999999844 -34.67499999999999716 -1.224646799146999945e-16 -1 0 F 0.01000000000000333955 F 14.01000000000000156 #
edge $-1 -1 $-1 $315 0 $265 0.4499999999999948486 $262 $361 forward @7 unknown #
vertex $-1 -1 $-1 $263 $362 #
straight-curve $-1 -1 $-1 351.0450000000000159 -19.48999999999999844 -34.67499999999999716 -1.224646799146999945e-16 -1 0 F 0.01000000000000333955 F 14.01000000000000156 #
point $-1 -1 $-1 351.0450000000000159 -33.5 -34.22500000000000142 #
DXID-attrib $-1 -1 $-1 $-1 $268 @10 ASM ENTITY @2 11 #
plane-surface $-1 -1 $-1 350.2250000000000227 -19.48999999999999844 -34.67499999999999716 -1 1.224646799146999945e-16 0 0 0 1 forward_v I I I I #
coedge $-1 -1 $-1 $270 $272 $311 $359 reversed $273 $-1 #
straight-curve $-1 -1 $-1 351.4950000000000045 -33.5 -34.67499999999999716 0 0 1 F 0 F 0.4499999999999948486 #
face $363 -1 $-1 $364 $273 $10 $-1 $365 forward single #
coedge $-1 -1 $-1 $366 $276 $279 $328 forward $325 $-1 #
coedge $-1 -1 $-1 $276 $366 $283 $332 reversed $325 $-1 #
loop $-1 -1 $-1 $-1 $323 $367 #
straight-curve $-1 -1 $-1 350.5024999999999977 -19.5 -34.67499999999999716 -1 1.224646799146999945e-16 0 F 1.547499999999999432 F 1.99749999999994543 #
coedge $-1 -1 $-1 $279 $278 $368 $369 reversed $280 $-1 #
edge $-1 -1 $-1 $281 0.01000000000000333955 $370 14.01000000000000156 $323 $371 forward @7 unknown #
face $372 -1 $-1 $322 $280 $10 $-1 $373 reversed single #
point $-1 -1 $-1 348.9549999999999841 -19.5 -34.67499999999999716 #
coedge $-1 -1 $-1 $284 $283 $374 $375 forward $285 $-1 #
edge $-1 -1 $-1 $286 0.01000000000000333955 $376 14.01000000000000156 $283 $377 forward @7 unknown #
face $378 -1 $-1 $367 $285 $10 $-1 $379 forward single #
point $-1 -1 $-1 348.5050000000000523 -19.5 -34.67499999999999716 #
coedge $-1 -1 $-1 $374 $368 $288 $336 forward $380 $-1 #
edge $-1 -1 $-1 $339 0 $337 0.4499999999999459988 $288 $381 forward @7 unknown #
vertex $-1 -1 $-1 $289 $382 #
straight-curve $-1 -1 $-1 348.5050000000000523 -19.48999999999999844 -34.22500000000000142 -1.224646799146999945e-16 -1 0 F 0.01000000000000333955 F 14.01000000000000156 #
vertex $-1 -1 $-1 $290 $383 #
straight-curve $-1 -1 $-1 348.9549999999999841 -19.48999999999999844 -34.22500000000000142 -1.224646799146999945e-16 -1 0 F 0.01000000000000333955 F 14.01000000000000156 #
DXID-attrib $-1 -1 $-1 $-1 $291 @10 ASM ENTITY @2 14 #
plane-surface $-1 -1 $-1 348.9549999999999841 -19.48999999999999844 -34.22500000000000142 0 0 1 -1 1.224646799146999945e-16 0 forward_v I I I I #
coedge $-1 -1 $-1 $295 $294 $384 $385 forward $296 $-1 #
face $386 -1 $-1 $291 $296 $10 $-1 $387 reversed single #
coedge $-1 -1 $-1 $305 $384 $298 $346 forward $355 $-1 #
edge $-1 -1 $-1 $347 0 $309 0.4499999999999948486 $298 $388 forward @7 unknown #
vertex $-1 -1 $-1 $346 $389 #
straight-curve $-1 -1 $-1 350.2250000000000227 -19.48999999999999844 -34.67499999999999716 -1.224646799146999945e-16 -1 0 F 0.01000000000000333955 F 14.01000000000000156 #
coedge $-1 -1 $-1 $384 $305 $301 $350 reversed $355 $-1 #
edge $-1 -1 $-1 $351 0 $307 0.4499999999999948486 $301 $390 forward @7 unknown #
vertex $-1 -1 $-1 $302 $391 #
straight-curve $-1 -1 $-1 349.7749999999999773 -19.48999999999999844 -34.67499999999999716 -1.224646799146999945e-16 -1 0 F 0.01000000000000333955 F 14.01000000000000156 #
DXID-attrib $-1 -1 $-1 $-1 $303 @10 ASM ENTITY @2 12 #
plane-surface $-1 -1 $-1 349.7749999999999773 -19.48999999999999844 -34.67499999999999716 -1 1.224646799146999945e-16 0 0 0 1 forward_v I I I I #
loop $-1 -1 $-1 $-1 $384 $364 #
straight-curve $-1 -1 $-1 350.2250000000000227 -33.5 -34.22500000000000142 -1 1.224646799146999945e-16 0 F 0 F 0.450000000000017053 #
point $-1 -1 $-1 349.7749999999999773 -33.5 -34.22500000000000142 #
point $-1 -1 $-1 350.2250000000000227 -33.5 -34.22500000000000142 #
edge $-1 -1 $-1 $312 0 $315 0.450000000000017053 $311 $392 forward @7 unknown #
point $-1 -1 $-1 351.4950000000000045 -33.5 -34.67499999999999716 #
straight-curve $-1 -1 $-1 351.0450000000000159 -33.5 -34.67499999999999716 0 0 1 F 0 F 0.4499999999999948486 #
point $-1 -1 $-1 351.0450000000000159 -33.5 -34.67499999999999716 #
DXID-attrib $-1 -1 $-1 $-1 $322 @10 ASM ENTITY @2 18 #
face $393 -1 $-1 $394 $355 $10 $-1 $395 forward single #
plane-surface $-1 -1 $-1 351.4950000000000045 -33.5 -34.67499999999999716 -1.224646799146999945e-16 -1 0 0 0 1 forward_v I I I I #
coedge $-1 -1 $-1 $324 $323 $396 $397 forward $325 $-1 #
face $398 -1 $-1 $329 $325 $10 $-1 $399 reversed single #
coedge $-1 -1 $-1 $335 $396 $327 $369 forward $380 $-1 #
edge $-1 -1 $-1 $370 0 $339 0.4499999999999948486 $327 $400 forward @7 unknown #
vertex $-1 -1 $-1 $328 $401 #
straight-curve $-1 -1 $-1 348.9549999999999841 -19.48999999999999844 -34.67499999999999716 -1.224646799146999945e-16 -1 0 F 0.01000000000000333955 F 14.01000000000000156 #
DXID-attrib $-1 -1 $-1 $-1 $329 @10 ASM ENTITY @2 17 #
plane-surface $-1 -1 $-1 348.9549999999999841 -19.48999999999999844 -34.67499999999999716 -1 1.224646799146999945e-16 0 0 0 1 forward_v I I I I #
coedge $-1 -1 $-1 $396 $335 $331 $375 reversed $380 $-1 #
edge $-1 -1 $-1 $376 0 $337 0.4499999999999948486 $331 $402 forward @7 unknown #
vertex $-1 -1 $-1 $332 $403 #
straight-curve $-1 -1 $-1 348.5050000000000523 -19.48999999999999844 -34.67499999999999716 -1.224646799146999945e-16 -1 0 F 0.01000000000000333955 F 14.01000000000000156 #
DXID-attrib $-1 -1 $-1 $-1 $333 @10 ASM ENTITY @2 15 #
plane-surface $-1 -1 $-1 348.5050000000000523 -19.48999999999999844 -34.67499999999999716 -1 1.224646799146999945e-16 0 0 0 1 forward_v I I I I #
loop $-1 -1 $-1 $-1 $396 $394 #
straight-curve $-1 -1 $-1 348.9549999999999841 -33.5 -34.22500000000000142 -1 1.224646799146999945e-16 0 F 0 F 0.4499999999999459988 #
point $-1 -1 $-1 348.5050000000000523 -33.5 -34.22500000000000142 #
point $-1 -1 $-1 348.9549999999999841 -33.5 -34.22500000000000142 #
coedge $-1 -1 $-1 $345 $349 $343 $385 reversed $355 $-1 #
edge $-1 -1 $-1 $347 0 $351 0.450000000000017053 $343 $404 forward @7 unknown #
DXID-attrib $-1 -1 $-1 $-1 $344 @10 ASM ENTITY @2 13 #
plane-surface $-1 -1 $-1 350.2250000000000227 -19.48999999999999844 -34.67499999999999716 0 0 1 -1 1.224646799146999945e-16 0 forward_v I I I I #
straight-curve $-1 -1 $-1 350.2250000000000227 -33.5 -34.67499999999999716 0 0 1 F 0 F 0.4499999999999948486 #
point $-1 -1 $-1 350.2250000000000227 -33.5 -34.67499999999999716 #
straight-curve $-1 -1 $-1 349.7749999999999773 -33.5 -34.67499999999999716 0 0 1 F 0 F 0.4499999999999948486 #
point $-1 -1 $-1 349.7749999999999773 -33.5 -34.67499999999999716 #
straight-curve $-1 -1 $-1 351.4950000000000045 -33.5 -34.67499999999999716 -1 1.224646799146999945e-16 0 F 0 F 0.450000000000017053 #
DXID-attrib $-1 -1 $-1 $-1 $364 @10 ASM ENTITY @2 19 #
face $405 -1 $-1 $-1 $380 $10 $-1 $406 forward single #
plane-surface $-1 -1 $-1 350.2250000000000227 -33.5 -34.67499999999999716 -1.224646799146999945e-16 -1 0 0 0 1 forward_v I I I I #
coedge $-1 -1 $-1 $368 $374 $366 $397 reversed $380 $-1 #
edge $-1 -1 $-1 $370 0 $376 0.4499999999999459988 $366 $407 forward @7 unknown #
DXID-attrib $-1 -1 $-1 $-1 $367 @10 ASM ENTITY @2 16 #
plane-surface $-1 -1 $-1 348.9549999999999841 -19.48999999999999844 -34.67499999999999716 0 0 1 -1 1.224646799146999945e-16 0 forward_v I I I I #
straight-curve $-1 -1 $-1 348.9549999999999841 -33.5 -34.67499999999999716 0 0 1 F 0 F 0.4499999999999948486 #
point $-1 -1 $-1 348.9549999999999841 -33.5 -34.67499999999999716 #
straight-curve $-1 -1 $-1 348.5050000000000523 -33.5 -34.67499999999999716 0 0 1 F 0 F 0.4499999999999948486 #
point $-1 -1 $-1 348.5050000000000523 -33.5 -34.67499999999999716 #
straight-curve $-1 -1 $-1 350.2250000000000227 -33.5 -34.67499999999999716 -1 1.224646799146999945e-16 0 F 0 F 0.450000000000017053 #
DXID-attrib $-1 -1 $-1 $-1 $394 @10 ASM ENTITY @2 20 #
plane-surface $-1 -1 $-1 348.9549999999999841 -33.5 -34.67499999999999716 -1.224646799146999945e-16 -1 0 0 0 1 forward_v I I I I #
straight-curve $-1 -1 $-1 348.9549999999999841 -33.5 -34.67499999999999716 -1 1.224646799146999945e-16 0 F 0 F 0.4499999999999459988 #
End-of-ACIS-data 