700 0 1 0           
30 Autodesk Translation Framework 21 ASM 232.4.0.65535 OSX 24 Fri Sep 18 19:26:45 2026 
1 9.999999999999999547e-07 1.000000000000000036e-10 
body $1 -1 $-1 $2 $-1 $-1 #
rgb_color-st-attrib $-1 -1 $3 $-1 $0 0.627450980392156854 0.627450980392156854 0.627450980392156854 #
lump $-1 -1 $-1 $-1 $4 $0 #
ATTRIB_CUSTOM-attrib $-1 -1 $-1 $1 $0 @20 Timestamp_attrib_def 1 1789756005524610 #
shell $-1 -1 $-1 $-1 $-1 $5 $-1 $2 #
face $6 -1 $-1 $7 $8 $4 $-1 $9 forward single #
DXID-attrib $-1 -1 $-1 $-1 $5 @10 ASM ENTITY @1 0 #
face $10 -1 $-1 $11 $12 $4 $-1 $13 forward single #
loop $-1 -1 $-1 $-1 $14 $5 #
plane-surface $-1 -1 $-1 903.5000000000001137 -40.79999999999999716 109.269999999999996 -0.7071067811865475727 -7.8504622934139775e-17 -0.7071067811865475727 0.7071067811865476838 -7.8504622934139775e-17 -0.7071067811865476838 forward_v I I I I #
DXID-attrib $-1 -1 $-1 $-1 $7 @10 ASM ENTITY @1 1 #
face $15 -1 $-1 $16 $17 $4 $-1 $18 forward single #
loop $-1 -1 $-1 $19 $20 $7 #
plane-surface $-1 -1 $-1 928.8809371613700705 -40.79999999999999716 104 0 -1 1.110223024625000001e-16 1 0 0 forward_v I I I I #
coedge $-1 -1 $-1 $21 $22 $23 $24 reversed $8 $-1 #
DXID-attrib $-1 -1 $-1 $-1 $11 @10 ASM ENTITY @1 2 #
face $25 -1 $-1 $26 $27 $4 $-1 $28 reversed single #
loop $-1 -1 $-1 $-1 $29 $11 #
plane-surface $-1 -1 $-1 902.8500000000001364 -39.71999999999999886 108.4700000000000131 0 1.110223024625000001e-16 1 0 -1 1.110223024625000001e-16 forward_v I I I I #
loop $-1 -1 $-1 $30 $31 $7 #
coedge $-1 -1 $-1 $32 $33 $34 $35 forward $12 $-1 #
coedge $-1 -1 $-1 $36 $14 $37 $38 forward $8 $-1 #
coedge $-1 -1 $-1 $14 $39 $40 $41 reversed $8 $-1 #
coedge $-1 -1 $-1 $42 $43 $14 $24 forward $12 $-1 #
edge $-1 -1 $-1 $44 0 $45 1.131370849897727515 $14 $46 forward @7 unknown #
DXID-attrib $-1 -1 $-1 $-1 $16 @10 ASM ENTITY @1 3 #
face $47 -1 $-1 $48 $49 $4 $-1 $50 forward single #
loop $-1 -1 $-1 $-1 $51 $16 #
plane-surface $-1 -1 $-1 902.8500000000001364 -39.71999999999999886 99.53000000000001535 0 -1 1.110223024625000001e-16 1 0 0 forward_v I I I I #
coedge $-1 -1 $-1 $52 $40 $51 $53 reversed $17 $-1 #
loop $-1 -1 $-1 $-1 $54 $7 #
coedge $-1 -1 $-1 $55 $56 $57 $58 forward $19 $-1 #
coedge $-1 -1 $-1 $59 $20 $60 $61 forward $12 $-1 #
coedge $-1 -1 $-1 $20 $62 $63 $64 forward $12 $-1 #
coedge $-1 -1 $-1 $65 $66 $20 $35 reversed $67 $-1 #
edge $-1 -1 $-1 $68 1.280000000000001137 $69 4.700000000000006395 $20 $70 forward @7 unknown #
coedge $-1 -1 $-1 $71 $21 $72 $73 forward $8 $-1 #
coedge $-1 -1 $-1 $74 $75 $21 $38 reversed $76 $-1 #
edge $-1 -1 $-1 $44 0 $77 1.799999999999997158 $21 $78 forward @7 unknown #
coedge $-1 -1 $-1 $22 $71 $79 $80 forward $8 $-1 #
coedge $-1 -1 $-1 $29 $81 $22 $41 forward $17 $-1 #
edge $-1 -1 $-1 $45 -0.5400000000000027001 $82 0.5399999999999982592 $22 $83 forward @7 unknown #
coedge $-1 -1 $-1 $84 $23 $81 $85 reversed $12 $-1 #
coedge $-1 -1 $-1 $23 $59 $74 $86 forward $12 $-1 #
vertex $-1 -1 $-1 $24 $87 #
vertex $-1 -1 $-1 $24 $88 #
straight-curve $-1 -1 $-1 903.5000000000001137 -40.79999999999999716 109.269999999999996 0.7071067811870000996 -7.850462293419000326e-17 -0.7071067811870000996 F 0 F 1.131370849897727515 #
DXID-attrib $-1 -1 $-1 $-1 $26 @10 ASM ENTITY @1 4 #
face $89 -1 $-1 $90 $91 $4 $-1 $92 reversed single #
loop $-1 -1 $-1 $-1 $93 $26 #
plane-surface $-1 -1 $-1 904.7699999999999818 -40.79999999999999716 108 -1 0 0 -0 -1.110223024625000001e-16 -1 forward_v I I I I #
coedge $-1 -1 $-1 $79 $94 $29 $53 forward $27 $-1 #
coedge $-1 -1 $-1 $95 $29 $96 $97 forward $17 $-1 #
edge $-1 -1 $-1 $98 0 $82 1.44999999999996021 $29 $99 forward @7 unknown #
coedge $-1 -1 $-1 $100 $101 $102 $103 forward $30 $-1 #
coedge $-1 -1 $-1 $104 $31 $105 $106 forward $19 $-1 #
coedge $-1 -1 $-1 $31 $104 $107 $108 reversed $19 $-1 #
coedge $-1 -1 $-1 $109 $110 $31 $58 reversed $111 $-1 #
edge $-1 -1 $-1 $112 0 $113 3.000000000000007105 $31 $114 forward @7 unknown #
coedge $-1 -1 $-1 $43 $32 $115 $116 forward $12 $-1 #
coedge $-1 -1 $-1 $117 $118 $32 $61 reversed $119 $-1 #
edge $-1 -1 $-1 $69 2.879999999999967031 $120 45.72000000000002728 $32 $121 forward @7 unknown #
coedge $-1 -1 $-1 $33 $122 $123 $124 forward $12 $-1 #
coedge $-1 -1 $-1 $125 $126 $33 $64 reversed $127 $-1 #
edge $-1 -1 $-1 $128 0 $68 30.10000000000005116 $33 $129 forward @7 unknown #
coedge $-1 -1 $-1 $130 $34 $126 $131 reversed $67 $-1 #
coedge $-1 -1 $-1 $34 $130 $117 $132 reversed $67 $-1 #
loop $-1 -1 $-1 $-1 $130 $133 #
vertex $-1 -1 $-1 $35 $134 #
vertex $-1 -1 $-1 $35 $135 #
straight-curve $-1 -1 $-1 948.5000000000001137 -40.79999999999999716 112.0000000000000142 0 1.110223024625000001e-16 1 F 1.280000000000001137 F 4.700000000000006395 #
coedge $-1 -1 $-1 $39 $36 $136 $137 reversed $8 $-1 #
coedge $-1 -1 $-1 $138 $139 $36 $73 reversed $91 $-1 #
edge $-1 -1 $-1 $77 0 $140 1.796051224212640296 $36 $141 forward @7 unknown #
coedge $-1 -1 $-1 $142 $37 $43 $86 reversed $76 $-1 #
coedge $-1 -1 $-1 $37 $142 $138 $143 forward $76 $-1 #
loop $-1 -1 $-1 $-1 $142 $90 #
vertex $-1 -1 $-1 $38 $144 #
straight-curve $-1 -1 $-1 903.5000000000001137 -40.79999999999999716 109.269999999999996 0 1 -1.110223024625000001e-16 F 0 F 1.799999999999997158 #
coedge $-1 -1 $-1 $145 $51 $39 $80 reversed $27 $-1 #
edge $-1 -1 $-1 $146 1.417749096278132059 $82 2.082429470593044396 $39 $147 forward @7 unknown #
coedge $-1 -1 $-1 $40 $148 $42 $85 forward $17 $-1 #
vertex $-1 -1 $-1 $80 $149 #
straight-curve $-1 -1 $-1 904.3000000000000682 -40.25999999999999801 108.4700000000000131 0 1 -1.110223024625000001e-16 F -0.5400000000000027001 F 0.5399999999999982592 #
coedge $-1 -1 $-1 $150 $42 $151 $152 reversed $12 $-1 #
edge $-1 -1 $-1 $153 4.665468580679998922 $45 11.56546858067997618 $42 $154 forward @7 unknown #
edge $-1 -1 $-1 $155 0 $44 5.270000000000010232 $43 $156 forward @7 unknown #
point $-1 -1 $-1 903.5000000000001137 -40.79999999999999716 109.269999999999996 #
point $-1 -1 $-1 904.3000000000000682 -40.79999999999999716 108.4700000000000131 #
DXID-attrib $-1 -1 $-1 $-1 $48 @10 ASM ENTITY @1 5 #
face $157 -1 $-1 $133 $76 $4 $-1 $158 forward single #
loop $-1 -1 $-1 $159 $72 $48 #
plane-surface $-1 -1 $-1 928.8809371613700705 -39 104 0 -1 1.110223024625000001e-16 1 0 0 forward_v I I I I #
coedge $-1 -1 $-1 $136 $160 $145 $161 forward $49 $-1 #
coedge $-1 -1 $-1 $51 $162 $163 $164 forward $27 $-1 #
coedge $-1 -1 $-1 $148 $52 $165 $166 forward $17 $-1 #
coedge $-1 -1 $-1 $163 $167 $52 $97 reversed $168 $-1 #
edge $-1 -1 $-1 $98 0 $169 4.579999999999997407 $52 $170 forward @7 unknown #
vertex $-1 -1 $-1 $53 $171 #
straight-curve $-1 -1 $-1 902.8500000000001364 -39.71999999999999886 108.4700000000000131 1 0 0 F 0 F 1.44999999999996021 #
coedge $-1 -1 $-1 $172 $54 $173 $174 forward $30 $-1 #
coedge $-1 -1 $-1 $54 $172 $175 $176 reversed $30 $-1 #
coedge $-1 -1 $-1 $177 $178 $54 $103 reversed $179 $-1 #
edge $-1 -1 $-1 $180 0 $181 3.000000000000007105 $54 $182 forward @7 unknown #
coedge $-1 -1 $-1 $56 $55 $183 $184 reversed $19 $-1 #
coedge $-1 -1 $-1 $185 $186 $55 $106 reversed $187 $-1 #
edge $-1 -1 $-1 $113 0 $188 3.999999999999914735 $55 $189 forward @7 unknown #
coedge $-1 -1 $-1 $190 $191 $56 $108 forward $192 $-1 #
edge $-1 -1 $-1 $112 0 $193 3.999999999999914735 $56 $194 forward @7 unknown #
coedge $-1 -1 $-1 $195 $57 $191 $196 forward $111 $-1 #
coedge $-1 -1 $-1 $57 $195 $185 $197 reversed $111 $-1 #
loop $-1 -1 $-1 $-1 $109 $198 #
vertex $-1 -1 $-1 $58 $199 #
vertex $-1 -1 $-1 $58 $200 #
straight-curve $-1 -1 $-1 904.9000000000000909 -40.79999999999999716 94.59999999999999432 0 1.110223024625000001e-16 1 F 0 F 3.000000000000007105 #
coedge $-1 -1 $-1 $201 $202 $59 $116 reversed $203 $-1 #
edge $-1 -1 $-1 $120 -0 $155 3.054701294723894733 $59 $204 forward @7 unknown #
coedge $-1 -1 $-1 $205 $60 $66 $132 forward $119 $-1 #
coedge $-1 -1 $-1 $60 $206 $201 $207 reversed $119 $-1 #
loop $-1 -1 $-1 $-1 $208 $209 #
vertex $-1 -1 $-1 $61 $210 #
straight-curve $-1 -1 $-1 951.3800000000001091 -40.79999999999999716 116.7000000000000171 -1 0 0 F 2.879999999999967031 F 45.72000000000002728 #
coedge $-1 -1 $-1 $62 $211 $212 $213 reversed $12 $-1 #
coedge $-1 -1 $-1 $214 $215 $62 $124 reversed $216 $-1 #
edge $-1 -1 $-1 $217 17.76321595662000874 $128 18.56000000000001648 $62 $218 forward @7 unknown #
coedge $-1 -1 $-1 $219 $63 $215 $220 forward $127 $-1 #
coedge $-1 -1 $-1 $63 $221 $65 $131 forward $127 $-1 #
loop $-1 -1 $-1 $-1 $63 $222 #
vertex $-1 -1 $-1 $124 $223 #
straight-curve $-1 -1 $-1 918.4000000000000909 -40.79999999999999716 113.2800000000000153 1 0 0 F 0 F 30.10000000000005116 #
coedge $-1 -1 $-1 $66 $65 $224 $225 forward $67 $-1 #
edge $-1 -1 $-1 $226 -1.600000000000001421 $68 0 $65 $227 forward @7 unknown #
edge $-1 -1 $-1 $69 0 $228 1.600000000000001421 $66 $229 forward @7 unknown #
face $230 -1 $-1 $222 $67 $4 $-1 $231 reversed single #
point $-1 -1 $-1 948.5000000000001137 -40.79999999999999716 113.2800000000000153 #
point $-1 -1 $-1 948.5000000000001137 -40.79999999999999716 116.7000000000000171 #
coedge $-1 -1 $-1 $232 $93 $71 $137 forward $49 $-1 #
edge $-1 -1 $-1 $146 1.080000000000000959 $140 1.799999999999997158 $71 $233 forward @7 unknown #
coedge $-1 -1 $-1 $234 $72 $75 $143 reversed $91 $-1 #
coedge $-1 -1 $-1 $72 $235 $232 $236 reversed $91 $-1 #
vertex $-1 -1 $-1 $73 $237 #
straight-curve $-1 -1 $-1 903.5000000000001137 -39 109.269999999999996 0.7071067811870000996 -7.850462293419000326e-17 -0.7071067811870000996 F 0 F 1.796051224212640296 #
coedge $-1 -1 $-1 $75 $74 $202 $238 forward $76 $-1 #
edge $-1 -1 $-1 $239 0 $77 5.270000000000010232 $138 $240 forward @7 unknown #
point $-1 -1 $-1 903.5000000000001137 -39 109.269999999999996 #
coedge $-1 -1 $-1 $241 $79 $93 $161 reversed $27 $-1 #
vertex $-1 -1 $-1 $137 $242 #
straight-curve $-1 -1 $-1 905.7725000000000364 -39.71999999999999886 106.9975000000000165 -0.7071067811870000996 7.850462293419000326e-17 0.7071067811870000996 F 1.417749096278132059 F 2.082429470593044396 #
coedge $-1 -1 $-1 $81 $95 $243 $244 reversed $17 $-1 #
point $-1 -1 $-1 904.3000000000000682 -39.71999999999999886 108.4700000000000131 #
coedge $-1 -1 $-1 $245 $84 $246 $247 forward $12 $-1 #
coedge $-1 -1 $-1 $243 $248 $84 $152 forward $249 $-1 #
edge $-1 -1 $-1 $250 -2.234999999999995879 $153 6.7050000000000054 $84 $251 forward @7 unknown #
vertex $-1 -1 $-1 $85 $252 #
straight-curve $-1 -1 $-1 915.8654685806800444 -40.79999999999999716 108.4700000000000131 -1 0 0 F 4.665468580679998922 F 11.56546858067997618 #
vertex $-1 -1 $-1 $116 $253 #
straight-curve $-1 -1 $-1 903.5000000000001137 -40.79999999999999716 114.5400000000000063 0 -1.110223024625000001e-16 -1 F 0 F 5.270000000000010232 #
DXID-attrib $-1 -1 $-1 $-1 $90 @10 ASM ENTITY @1 6 #
plane-surface $-1 -1 $-1 903.5000000000001137 -40.79999999999999716 114.5400000000000063 -1 0 0 -0 -1.110223024625000001e-16 -1 forward_v I I I I #
loop $-1 -1 $-1 $254 $255 $48 #
coedge $-1 -1 $-1 $93 $232 $256 $257 reversed $49 $-1 #
edge $-1 -1 $-1 $258 -3.765000000000000568 $146 4.235000000000006537 $145 $259 forward @7 unknown #
coedge $-1 -1 $-1 $94 $241 $260 $261 reversed $27 $-1 #
coedge $-1 -1 $-1 $262 $96 $94 $164 reversed $168 $-1 #
edge $-1 -1 $-1 $263 0 $98 8.940000000000001279 $94 $264 forward @7 unknown #
coedge $-1 -1 $-1 $265 $266 $95 $166 reversed $267 $-1 #
edge $-1 -1 $-1 $169 0 $268 8.349999999999937472 $95 $269 forward @7 unknown #
coedge $-1 -1 $-1 $96 $262 $265 $270 forward $168 $-1 #
loop $-1 -1 $-1 $-1 $262 $271 #
vertex $-1 -1 $-1 $97 $272 #
straight-curve $-1 -1 $-1 902.8500000000001364 -39.71999999999999886 108.4700000000000131 0 -1 1.110223024625000001e-16 F 0 F 4.579999999999997407 #
point $-1 -1 $-1 902.8500000000001364 -39.71999999999999886 108.4700000000000131 #
coedge $-1 -1 $-1 $101 $100 $273 $274 reversed $30 $-1 #
coedge $-1 -1 $-1 $275 $276 $100 $174 reversed $277 $-1 #
edge $-1 -1 $-1 $181 0 $278 3.999999999999914735 $100 $279 forward @7 unknown #
coedge $-1 -1 $-1 $280 $281 $101 $176 forward $282 $-1 #
edge $-1 -1 $-1 $180 0 $283 3.999999999999914735 $101 $284 forward @7 unknown #
coedge $-1 -1 $-1 $285 $102 $281 $286 forward $179 $-1 #
coedge $-1 -1 $-1 $102 $285 $275 $287 reversed $179 $-1 #
loop $-1 -1 $-1 $-1 $177 $288 #
vertex $-1 -1 $-1 $103 $289 #
vertex $-1 -1 $-1 $103 $290 #
straight-curve $-1 -1 $-1 904.9000000000000909 -40.79999999999999716 110.4000000000000057 0 1.110223024625000001e-16 1 F 0 F 3.000000000000007105 #
coedge $-1 -1 $-1 $291 $292 $104 $184 forward $293 $-1 #
edge $-1 -1 $-1 $193 0 $188 3.000000000000007105 $104 $294 forward @7 unknown #
coedge $-1 -1 $-1 $295 $105 $110 $197 forward $187 $-1 #
coedge $-1 -1 $-1 $105 $295 $291 $296 reversed $187 $-1 #
loop $-1 -1 $-1 $-1 $105 $297 #
vertex $-1 -1 $-1 $106 $298 #
straight-curve $-1 -1 $-1 904.9000000000000909 -40.79999999999999716 97.59999999999999432 1 0 0 F 0 F 3.999999999999914735 #
coedge $-1 -1 $-1 $299 $107 $292 $300 forward $192 $-1 #
coedge $-1 -1 $-1 $107 $299 $109 $196 reversed $192 $-1 #
loop $-1 -1 $-1 $-1 $107 $301 #
vertex $-1 -1 $-1 $184 $302 #
straight-curve $-1 -1 $-1 904.9000000000000909 -40.79999999999999716 94.59999999999999432 1 0 0 F 0 F 3.999999999999914735 #
coedge $-1 -1 $-1 $110 $109 $303 $304 forward $111 $-1 #
edge $-1 -1 $-1 $112 0 $305 2.000000000000001776 $109 $306 forward @7 unknown #
edge $-1 -1 $-1 $113 0 $307 2.000000000000001776 $110 $308 forward @7 unknown #
face $309 -1 $-1 $297 $111 $4 $-1 $310 reversed single #
point $-1 -1 $-1 904.9000000000000909 -40.79999999999999716 94.59999999999999432 #
point $-1 -1 $-1 904.9000000000000909 -40.79999999999999716 97.59999999999999432 #
coedge $-1 -1 $-1 $311 $115 $118 $207 forward $203 $-1 #
coedge $-1 -1 $-1 $115 $311 $142 $238 reversed $203 $-1 #
loop $-1 -1 $-1 $-1 $201 $312 #
straight-curve $-1 -1 $-1 905.6600000000000819 -40.79999999999999716 116.7000000000000171 -0.7071067811870000996 -7.850462293419000326e-17 -0.7071067811870000996 F -0 F 3.054701294723894733 #
coedge $-1 -1 $-1 $313 $117 $314 $315 forward $119 $-1 #
coedge $-1 -1 $-1 $118 $208 $316 $317 forward $119 $-1 #
edge $-1 -1 $-1 $120 0 $318 1.799999999999997158 $201 $319 forward @7 unknown #
coedge $-1 -1 $-1 $206 $320 $321 $322 forward $119 $-1 #
face $323 -1 $-1 $198 $119 $4 $-1 $324 forward single #
point $-1 -1 $-1 905.6600000000000819 -40.79999999999999716 116.7000000000000171 #
coedge $-1 -1 $-1 $122 $325 $326 $327 forward $12 $-1 #
coedge $-1 -1 $-1 $328 $329 $122 $213 forward $330 $-1 #
edge $-1 -1 $-1 $217 0.7996333279004801398 $331 5.483551979279098987 $122 $332 forward @7 unknown #
coedge $-1 -1 $-1 $333 $123 $329 $334 reversed $216 $-1 #
coedge $-1 -1 $-1 $123 $333 $125 $220 reversed $216 $-1 #
loop $-1 -1 $-1 $-1 $333 $335 #
vertex $-1 -1 $-1 $213 $336 #
straight-curve $-1 -1 $-1 918.4000000000000909 -40.79999999999999716 94.71999999999999886 0 1.110223024625000001e-16 1 F 17.76321595662000874 F 18.56000000000001648 #
coedge $-1 -1 $-1 $337 $125 $338 $339 forward $127 $-1 #
edge $-1 -1 $-1 $128 0 $340 5 $125 $341 forward @7 unknown #
coedge $-1 -1 $-1 $126 $337 $342 $343 reversed $127 $-1 #
face $344 -1 $-1 $335 $127 $4 $-1 $345 forward single #
point $-1 -1 $-1 918.4000000000000909 -40.79999999999999716 113.2800000000000153 #
coedge $-1 -1 $-1 $342 $314 $130 $225 reversed $346 $-1 #
edge $-1 -1 $-1 $226 1.280000000000001137 $228 4.700000000000006395 $130 $347 forward @7 unknown #
vertex $-1 -1 $-1 $225 $348 #
straight-curve $-1 -1 $-1 948.5000000000001137 -40.79999999999999716 113.2800000000000153 0 1 -1.110223024625000001e-16 F -1.600000000000001421 F 0 #
vertex $-1 -1 $-1 $225 $349 #
straight-curve $-1 -1 $-1 948.5000000000001137 -40.79999999999999716 116.7000000000000171 0 -1 1.110223024625000001e-16 F 0 F 1.600000000000001421 #
DXID-attrib $-1 -1 $-1 $-1 $133 @10 ASM ENTITY @1 7 #
plane-surface $-1 -1 $-1 948.5000000000001137 -40.79999999999999716 112.0000000000000142 1 0 0 0 -1 1.110223024625000001e-16 forward_v I I I I #
coedge $-1 -1 $-1 $160 $136 $139 $236 forward $49 $-1 #
straight-curve $-1 -1 $-1 904.7699999999999818 -40.79999999999999716 108 0 1 -1.110223024625000001e-16 F 1.080000000000000959 F 1.799999999999997158 #
coedge $-1 -1 $-1 $316 $138 $311 $350 reversed $91 $-1 #
coedge $-1 -1 $-1 $139 $351 $352 $353 reversed $91 $-1 #
edge $-1 -1 $-1 $140 0 $354 8.000000000000007105 $232 $355 forward @7 unknown #
point $-1 -1 $-1 904.7699999999999818 -39 108 #
edge $-1 -1 $-1 $155 0 $239 1.799999999999997158 $142 $356 forward @7 unknown #
vertex $-1 -1 $-1 $143 $357 #
straight-curve $-1 -1 $-1 903.5000000000001137 -39 114.5400000000000063 0 -1.110223024625000001e-16 -1 F 0 F 5.270000000000010232 #
coedge $-1 -1 $-1 $162 $145 $358 $359 reversed $27 $-1 #
point $-1 -1 $-1 904.7699999999999818 -39.71999999999999886 108 #
coedge $-1 -1 $-1 $360 $151 $148 $244 forward $249 $-1 #
edge $-1 -1 $-1 $153 1.080000000000000959 $268 4.579999999999997407 $148 $361 forward @7 unknown #
coedge $-1 -1 $-1 $362 $150 $363 $364 forward $12 $-1 #
coedge $-1 -1 $-1 $365 $366 $150 $247 reversed $367 $-1 #
edge $-1 -1 $-1 $250 4.665468580679998922 $368 11.56546858067997618 $150 $369 forward @7 unknown #
coedge $-1 -1 $-1 $151 $360 $365 $370 reversed $249 $-1 #
loop $-1 -1 $-1 $-1 $248 $371 #
vertex $-1 -1 $-1 $152 $372 #
straight-curve $-1 -1 $-1 911.2000000000000455 -40.79999999999999716 101.7650000000000148 0 1.110223024625000001e-16 1 F -2.234999999999995879 F 6.7050000000000054 #
point $-1 -1 $-1 911.2000000000000455 -40.79999999999999716 108.4700000000000131 #
point $-1 -1 $-1 903.5000000000001137 -40.79999999999999716 114.5400000000000063 #
loop $-1 -1 $-1 $-1 $373 $48 #
coedge $-1 -1 $-1 $374 $375 $376 $377 reversed $159 $-1 #
coedge $-1 -1 $-1 $352 $358 $160 $257 forward $378 $-1 #
edge $-1 -1 $-1 $258 1.080000000000000959 $354 1.799999999999997158 $160 $379 forward @7 unknown #
vertex $-1 -1 $-1 $161 $380 #
straight-curve $-1 -1 $-1 904.7699999999999818 -39.71999999999999886 103.7650000000000006 0 1.110223024625000001e-16 1 F -3.765000000000000568 F 4.235000000000006537 #
coedge $-1 -1 $-1 $366 $381 $162 $261 forward $367 $-1 #
edge $-1 -1 $-1 $263 0 $382 1.44999999999996021 $162 $383 forward @7 unknown #
coedge $-1 -1 $-1 $167 $163 $381 $384 forward $168 $-1 #
vertex $-1 -1 $-1 $261 $385 #
straight-curve $-1 -1 $-1 902.8500000000001364 -39.71999999999999886 99.53000000000001535 0 1.110223024625000001e-16 1 F 0 F 8.940000000000001279 #
coedge $-1 -1 $-1 $386 $165 $167 $270 reversed $267 $-1 #
coedge $-1 -1 $-1 $165 $386 $360 $387 forward $267 $-1 #
loop $-1 -1 $-1 $-1 $265 $388 #
vertex $-1 -1 $-1 $166 $389 #
straight-curve $-1 -1 $-1 902.8500000000001364 -44.29999999999999716 108.4700000000000131 1 0 0 F 0 F 8.349999999999937472 #
edge $-1 -1 $-1 $390 0 $169 8.940000000000001279 $265 $391 forward @7 unknown #
face $392 -1 $-1 $393 $168 $4 $-1 $394 reversed single #
point $-1 -1 $-1 902.8500000000001364 -44.29999999999999716 108.4700000000000131 #
coedge $-1 -1 $-1 $395 $396 $172 $274 forward $397 $-1 #
edge $-1 -1 $-1 $283 0 $278 3.000000000000007105 $172 $398 forward @7 unknown #
coedge $-1 -1 $-1 $399 $173 $178 $287 forward $277 $-1 #
coedge $-1 -1 $-1 $173 $399 $395 $400 reversed $277 $-1 #
loop $-1 -1 $-1 $-1 $173 $401 #
vertex $-1 -1 $-1 $174 $402 #
straight-curve $-1 -1 $-1 904.9000000000000909 -40.79999999999999716 113.4000000000000199 1 0 0 F 0 F 3.999999999999914735 #
coedge $-1 -1 $-1 $403 $175 $396 $404 forward $282 $-1 #
coedge $-1 -1 $-1 $175 $403 $177 $286 reversed $282 $-1 #
loop $-1 -1 $-1 $-1 $175 $405 #
vertex $-1 -1 $-1 $274 $406 #
straight-curve $-1 -1 $-1 904.9000000000000909 -40.79999999999999716 110.4000000000000057 1 0 0 F 0 F 3.999999999999914735 #
coedge $-1 -1 $-1 $178 $177 $407 $408 forward $179 $-1 #
edge $-1 -1 $-1 $180 0 $409 2.000000000000001776 $177 $410 forward @7 unknown #
edge $-1 -1 $-1 $181 0 $411 2.000000000000001776 $178 $412 forward @7 unknown #
face $413 -1 $-1 $401 $179 $4 $-1 $414 reversed single #
point $-1 -1 $-1 904.9000000000000909 -40.79999999999999716 110.4000000000000057 #
point $-1 -1 $-1 904.9000000000000909 -40.79999999999999716 113.4000000000000199 #
coedge $-1 -1 $-1 $415 $183 $186 $296 forward $293 $-1 #
coedge $-1 -1 $-1 $183 $415 $190 $300 reversed $293 $-1 #
loop $-1 -1 $-1 $-1 $292 $416 #
straight-curve $-1 -1 $-1 908.8999999999999773 -40.79999999999999716 94.59999999999999432 0 1.110223024625000001e-16 1 F 0 F 3.000000000000007105 #
coedge $-1 -1 $-1 $186 $185 $417 $418 forward $187 $-1 #
edge $-1 -1 $-1 $188 0 $419 2.000000000000001776 $186 $420 forward @7 unknown #
face $421 -1 $-1 $301 $187 $4 $-1 $422 forward single #
point $-1 -1 $-1 908.8999999999999773 -40.79999999999999716 97.59999999999999432 #
coedge $-1 -1 $-1 $191 $190 $423 $424 reversed $192 $-1 #
edge $-1 -1 $-1 $193 0 $425 2.000000000000001776 $190 $426 forward @7 unknown #
face $427 -1 $-1 $416 $192 $4 $-1 $428 reversed single #
point $-1 -1 $-1 908.8999999999999773 -40.79999999999999716 94.59999999999999432 #
coedge $-1 -1 $-1 $423 $417 $195 $304 reversed $429 $-1 #
edge $-1 -1 $-1 $305 0 $307 3.000000000000007105 $195 $430 forward @7 unknown #
vertex $-1 -1 $-1 $196 $431 #
straight-curve $-1 -1 $-1 904.9000000000000909 -40.79999999999999716 94.59999999999999432 0 -1 1.110223024625000001e-16 F 0 F 2.000000000000001776 #
vertex $-1 -1 $-1 $304 $432 #
straight-curve $-1 -1 $-1 904.9000000000000909 -40.79999999999999716 97.59999999999999432 0 -1 1.110223024625000001e-16 F 0 F 2.000000000000001776 #
DXID-attrib $-1 -1 $-1 $-1 $198 @10 ASM ENTITY @2 30 #
plane-surface $-1 -1 $-1 904.9000000000000909 -40.79999999999999716 94.59999999999999432 1 0 0 0 -1 1.110223024625000001e-16 forward_v I I I I #
coedge $-1 -1 $-1 $202 $201 $234 $350 forward $203 $-1 #
face $433 -1 $-1 $209 $203 $4 $-1 $434 forward single #
coedge $-1 -1 $-1 $320 $205 $435 $436 reversed $119 $-1 #
coedge $-1 -1 $-1 $224 $437 $205 $315 reversed $346 $-1 #
edge $-1 -1 $-1 $228 0 $438 5.999999999999943157 $205 $439 forward @7 unknown #
coedge $-1 -1 $-1 $440 $234 $206 $317 reversed $91 $-1 #
edge $-1 -1 $-1 $441 0 $318 45.72000000000002728 $316 $442 forward @7 unknown #
vertex $-1 -1 $-1 $350 $443 #
straight-curve $-1 -1 $-1 905.6600000000000819 -40.79999999999999716 116.7000000000000171 0 1 -1.110223024625000001e-16 F 0 F 1.799999999999997158 #
coedge $-1 -1 $-1 $208 $313 $444 $445 reversed $119 $-1 #
coedge $-1 -1 $-1 $446 $447 $208 $322 reversed $448 $-1 #
edge $-1 -1 $-1 $449 0 $441 1.799999999999997158 $321 $450 forward @7 unknown #
DXID-attrib $-1 -1 $-1 $-1 $209 @10 ASM ENTITY @2 29 #
plane-surface $-1 -1 $-1 951.3800000000001091 -40.79999999999999716 116.7000000000000171 0 1.110223024625000001e-16 1 -1 0 0 forward_v I I I I #
coedge $-1 -1 $-1 $211 $451 $452 $453 reversed $12 $-1 #
coedge $-1 -1 $-1 $454 $455 $211 $327 reversed $456 $-1 #
edge $-1 -1 $-1 $457 0 $331 15.39678404337999851 $211 $458 forward @7 unknown #
coedge $-1 -1 $-1 $459 $212 $455 $460 reversed $330 $-1 #
coedge $-1 -1 $-1 $212 $459 $214 $334 forward $330 $-1 #
loop $-1 -1 $-1 $-1 $459 $461 #
vertex $-1 -1 $-1 $327 $462 #
ellipse-curve $-1 -1 $-1 917.2500000000001137 -40.79999999999999716 111.3000000000000114 0 -1 1.110223024625000001e-16 1.650000000000000133 0 0 1 F 0.7996333279004801398 F 5.483551979279098987 #
coedge $-1 -1 $-1 $215 $214 $463 $464 forward $216 $-1 #
edge $-1 -1 $-1 $465 -5 $217 0 $214 $466 forward @7 unknown #
face $467 -1 $-1 $461 $216 $4 $-1 $468 reversed single #
point $-1 -1 $-1 918.4000000000000909 -40.79999999999999716 112.4832159566200005 #
coedge $-1 -1 $-1 $221 $219 $469 $470 reversed $127 $-1 #
coedge $-1 -1 $-1 $463 $471 $219 $339 reversed $472 $-1 #
edge $-1 -1 $-1 $340 0 $473 32.99999999999997158 $219 $474 forward @7 unknown #
vertex $-1 -1 $-1 $220 $475 #
straight-curve $-1 -1 $-1 918.4000000000000909 -40.79999999999999716 113.2800000000000153 0 -1 1.110223024625000001e-16 F 0 F 5 #
coedge $-1 -1 $-1 $476 $224 $221 $343 forward $346 $-1 #
edge $-1 -1 $-1 $226 15.04999999999995453 $477 17.94999999999987494 $221 $478 forward @7 unknown #
DXID-attrib $-1 -1 $-1 $-1 $222 @10 ASM ENTITY @1 8 #
plane-surface $-1 -1 $-1 918.4000000000000909 -40.79999999999999716 113.2800000000000153 0 1.110223024625000001e-16 1 0 -1 1.110223024625000001e-16 forward_v I I I I #
loop $-1 -1 $-1 $-1 $224 $479 #
straight-curve $-1 -1 $-1 948.5000000000001137 -42.40000000000000568 112.0000000000000142 0 1.110223024625000001e-16 1 F 1.280000000000001137 F 4.700000000000006395 #
point $-1 -1 $-1 948.5000000000001137 -42.40000000000000568 113.2800000000000153 #
point $-1 -1 $-1 948.5000000000001137 -42.40000000000000568 116.7000000000000171 #
edge $-1 -1 $-1 $318 -0 $239 3.054701294723894733 $234 $480 forward @7 unknown #
coedge $-1 -1 $-1 $235 $481 $482 $483 reversed $91 $-1 #
coedge $-1 -1 $-1 $484 $256 $235 $353 forward $378 $-1 #
edge $-1 -1 $-1 $354 -0 $485 1.796051224212640296 $235 $486 forward @7 unknown #
vertex $-1 -1 $-1 $236 $487 #
straight-curve $-1 -1 $-1 904.7699999999999818 -39 108 0 -1.110223024625000001e-16 -1 F 0 F 8.000000000000007105 #
straight-curve $-1 -1 $-1 903.5000000000001137 -40.79999999999999716 114.5400000000000063 0 1 -1.110223024625000001e-16 F 0 F 1.799999999999997158 #
point $-1 -1 $-1 903.5000000000001137 -39 114.5400000000000063 #
coedge $-1 -1 $-1 $256 $488 $241 $359 forward $378 $-1 #
edge $-1 -1 $-1 $382 0.1803122292024358919 $258 0.8449926035173358496 $241 $489 forward @7 unknown #
coedge $-1 -1 $-1 $248 $243 $266 $387 reversed $249 $-1 #
straight-curve $-1 -1 $-1 911.2000000000000455 -39.71999999999999886 108.4700000000000131 0 -1 1.110223024625000001e-16 F 1.080000000000000959 F 4.579999999999997407 #
coedge $-1 -1 $-1 $490 $245 $491 $492 forward $12 $-1 #
coedge $-1 -1 $-1 $488 $484 $245 $364 reversed $378 $-1 #
edge $-1 -1 $-1 $368 0.6646803743148999022 $493 1.796051224212640296 $245 $494 forward @7 unknown #
coedge $-1 -1 $-1 $495 $246 $248 $370 forward $367 $-1 #
coedge $-1 -1 $-1 $246 $260 $488 $496 reversed $367 $-1 #
loop $-1 -1 $-1 $-1 $260 $497 #
vertex $-1 -1 $-1 $247 $498 #
straight-curve $-1 -1 $-1 915.8654685806800444 -40.79999999999999716 99.53000000000001535 -1 0 0 F 4.665468580679998922 F 11.56546858067997618 #
edge $-1 -1 $-1 $250 1.080000000000000959 $499 4.579999999999997407 $365 $500 forward @7 unknown #
face $501 -1 $-1 $312 $249 $4 $-1 $502 forward single #
point $-1 -1 $-1 911.2000000000000455 -40.79999999999999716 99.53000000000001535 #
coedge $-1 -1 $-1 $503 $504 $505 $506 reversed $254 $-1 #
coedge $-1 -1 $-1 $507 $255 $508 $509 forward $159 $-1 #
coedge $-1 -1 $-1 $255 $507 $510 $511 reversed $159 $-1 #
coedge $-1 -1 $-1 $512 $513 $255 $377 forward $514 $-1 #
edge $-1 -1 $-1 $515 0 $516 4.599999999999990763 $255 $517 forward @7 unknown #
loop $-1 -1 $-1 $-1 $358 $518 #
straight-curve $-1 -1 $-1 904.7699999999999818 -40.79999999999999716 100 0 1 -1.110223024625000001e-16 F 1.080000000000000959 F 1.799999999999997158 #
point $-1 -1 $-1 904.7699999999999818 -39.71999999999999886 100 #
coedge $-1 -1 $-1 $260 $495 $262 $384 reversed $367 $-1 #
vertex $-1 -1 $-1 $359 $519 #
straight-curve $-1 -1 $-1 902.8500000000001364 -39.71999999999999886 99.53000000000001535 1 0 0 F 0 F 1.44999999999996021 #
edge $-1 -1 $-1 $263 0 $390 4.579999999999997407 $381 $520 forward @7 unknown #
point $-1 -1 $-1 902.8500000000001364 -39.71999999999999886 99.53000000000001535 #
coedge $-1 -1 $-1 $266 $265 $495 $521 forward $267 $-1 #
edge $-1 -1 $-1 $499 0 $268 8.940000000000001279 $360 $522 forward @7 unknown #
face $523 -1 $-1 $271 $267 $4 $-1 $524 forward single #
point $-1 -1 $-1 911.2000000000000455 -44.29999999999999716 108.4700000000000131 #
vertex $-1 -1 $-1 $521 $525 #
straight-curve $-1 -1 $-1 902.8500000000001364 -44.29999999999999716 99.53000000000001535 0 1.110223024625000001e-16 1 F 0 F 8.940000000000001279 #
DXID-attrib $-1 -1 $-1 $-1 $271 @10 ASM ENTITY @2 39 #
face $526 -1 $-1 $527 $514 $4 $-1 $528 reversed single #
plane-surface $-1 -1 $-1 902.8500000000001364 -39.71999999999999886 99.53000000000001535 1 0 0 0 -1 1.110223024625000001e-16 forward_v I I I I #
coedge $-1 -1 $-1 $529 $273 $276 $400 forward $397 $-1 #
coedge $-1 -1 $-1 $273 $529 $280 $404 reversed $397 $-1 #
loop $-1 -1 $-1 $-1 $396 $530 #
straight-curve $-1 -1 $-1 908.8999999999999773 -40.79999999999999716 110.4000000000000057 0 1.110223024625000001e-16 1 F 0 F 3.000000000000007105 #
coedge $-1 -1 $-1 $276 $275 $531 $532 forward $277 $-1 #
edge $-1 -1 $-1 $278 0 $533 2.000000000000001776 $276 $534 forward @7 unknown #
face $535 -1 $-1 $405 $277 $4 $-1 $536 forward single #
point $-1 -1 $-1 908.8999999999999773 -40.79999999999999716 113.4000000000000199 #
coedge $-1 -1 $-1 $281 $280 $537 $538 reversed $282 $-1 #
edge $-1 -1 $-1 $283 0 $539 2.000000000000001776 $280 $540 forward @7 unknown #
face $541 -1 $-1 $530 $282 $4 $-1 $542 reversed single #
point $-1 -1 $-1 908.8999999999999773 -40.79999999999999716 110.4000000000000057 #
coedge $-1 -1 $-1 $537 $531 $285 $408 reversed $543 $-1 #
edge $-1 -1 $-1 $409 0 $411 3.000000000000007105 $285 $544 forward @7 unknown #
vertex $-1 -1 $-1 $286 $545 #
straight-curve $-1 -1 $-1 904.9000000000000909 -40.79999999999999716 110.4000000000000057 0 -1 1.110223024625000001e-16 F 0 F 2.000000000000001776 #
vertex $-1 -1 $-1 $408 $546 #
straight-curve $-1 -1 $-1 904.9000000000000909 -40.79999999999999716 113.4000000000000199 0 -1 1.110223024625000001e-16 F 0 F 2.000000000000001776 #
DXID-attrib $-1 -1 $-1 $-1 $288 @10 ASM ENTITY @2 34 #
plane-surface $-1 -1 $-1 904.9000000000000909 -40.79999999999999716 110.4000000000000057 1 0 0 0 -1 1.110223024625000001e-16 forward_v I I I I #
coedge $-1 -1 $-1 $292 $291 $547 $548 reversed $293 $-1 #
face $549 -1 $-1 $288 $293 $4 $-1 $550 forward single #
coedge $-1 -1 $-1 $303 $547 $295 $418 reversed $429 $-1 #
edge $-1 -1 $-1 $307 0 $419 3.999999999999914735 $295 $551 forward @7 unknown #
vertex $-1 -1 $-1 $418 $552 #
straight-curve $-1 -1 $-1 908.8999999999999773 -40.79999999999999716 97.59999999999999432 0 -1 1.110223024625000001e-16 F 0 F 2.000000000000001776 #
DXID-attrib $-1 -1 $-1 $-1 $297 @10 ASM ENTITY @2 31 #
plane-surface $-1 -1 $-1 904.9000000000000909 -40.79999999999999716 97.59999999999999432 0 1.110223024625000001e-16 1 0 -1 1.110223024625000001e-16 forward_v I I I I #
coedge $-1 -1 $-1 $547 $303 $299 $424 forward $429 $-1 #
edge $-1 -1 $-1 $305 0 $425 3.999999999999914735 $299 $553 forward @7 unknown #
vertex $-1 -1 $-1 $300 $554 #
straight-curve $-1 -1 $-1 908.8999999999999773 -40.79999999999999716 94.59999999999999432 0 -1 1.110223024625000001e-16 F 0 F 2.000000000000001776 #
DXID-attrib $-1 -1 $-1 $-1 $301 @10 ASM ENTITY @2 32 #
plane-surface $-1 -1 $-1 904.9000000000000909 -40.79999999999999716 94.59999999999999432 0 1.110223024625000001e-16 1 0 -1 1.110223024625000001e-16 forward_v I I I I #
loop $-1 -1 $-1 $-1 $303 $555 #
straight-curve $-1 -1 $-1 904.9000000000000909 -42.80000000000000426 94.59999999999999432 0 1.110223024625000001e-16 1 F 0 F 3.000000000000007105 #
point $-1 -1 $-1 904.9000000000000909 -42.80000000000000426 94.59999999999999432 #
point $-1 -1 $-1 904.9000000000000909 -42.80000000000000426 97.59999999999999432 #
DXID-attrib $-1 -1 $-1 $-1 $312 @10 ASM ENTITY @2 28 #
plane-surface $-1 -1 $-1 905.6600000000000819 -40.79999999999999716 116.7000000000000171 -0.7071067811865475727 7.8504622934139775e-17 0.7071067811865475727 -0.7071067811865476838 -7.8504622934139775e-17 -0.7071067811865476838 forward_v I I I I #
coedge $-1 -1 $-1 $556 $557 $313 $436 forward $558 $-1 #
edge $-1 -1 $-1 $559 0 $438 1.600000000000001421 $435 $560 forward @7 unknown #
coedge $-1 -1 $-1 $314 $561 $556 $562 forward $346 $-1 #
vertex $-1 -1 $-1 $436 $563 #
straight-curve $-1 -1 $-1 948.5000000000001137 -42.40000000000000568 116.7000000000000171 1 0 0 F 0 F 5.999999999999943157 #
coedge $-1 -1 $-1 $564 $316 $447 $565 reversed $91 $-1 #
vertex $-1 -1 $-1 $317 $566 #
straight-curve $-1 -1 $-1 951.3800000000001091 -39 116.7000000000000171 -1 0 0 F 0 F 45.72000000000002728 #
point $-1 -1 $-1 905.6600000000000819 -39 116.7000000000000171 #
coedge $-1 -1 $-1 $567 $568 $320 $445 forward $569 $-1 #
edge $-1 -1 $-1 $449 2.879999999999967031 $559 5.999999999999943157 $320 $570 forward @7 unknown #
coedge $-1 -1 $-1 $571 $321 $568 $572 reversed $448 $-1 #
coedge $-1 -1 $-1 $321 $573 $440 $565 forward $448 $-1 #
loop $-1 -1 $-1 $-1 $573 $574 #
vertex $-1 -1 $-1 $322 $575 #
straight-curve $-1 -1 $-1 951.3800000000001091 -40.79999999999999716 116.7000000000000171 0 1 -1.110223024625000001e-16 F 0 F 1.799999999999997158 #
coedge $-1 -1 $-1 $325 $576 $577 $578 reversed $12 $-1 #
coedge $-1 -1 $-1 $579 $580 $325 $453 forward $581 $-1 #
edge $-1 -1 $-1 $457 0 $582 32.99999999999997158 $325 $583 forward @7 unknown #
coedge $-1 -1 $-1 $584 $326 $580 $585 forward $456 $-1 #
coedge $-1 -1 $-1 $326 $584 $328 $460 forward $456 $-1 #
loop $-1 -1 $-1 $-1 $584 $586 #
vertex $-1 -1 $-1 $453 $587 #
straight-curve $-1 -1 $-1 918.4000000000000909 -40.79999999999999716 94.71999999999999886 0 1.110223024625000001e-16 1 F 0 F 15.39678404337999851 #
coedge $-1 -1 $-1 $329 $328 $588 $589 reversed $330 $-1 #
edge $-1 -1 $-1 $590 -5 $331 0 $328 $591 forward @7 unknown #
face $592 -1 $-1 $586 $593 $4 $-1 $594 forward single #
point $-1 -1 $-1 918.4000000000000909 -40.79999999999999716 110.1167840433799938 #
coedge $-1 -1 $-1 $588 $338 $333 $464 reversed $472 $-1 #
edge $-1 -1 $-1 $465 17.76321595662000874 $340 18.56000000000001648 $333 $595 forward @7 unknown #
vertex $-1 -1 $-1 $464 $596 #
straight-curve $-1 -1 $-1 918.4000000000000909 -40.79999999999999716 112.4832159566200005 0 1 -1.110223024625000001e-16 F -5 F 0 #
DXID-attrib $-1 -1 $-1 $-1 $335 @10 ASM ENTITY @1 9 #
plane-surface $-1 -1 $-1 918.4000000000000909 -40.79999999999999716 94.71999999999999886 1 0 0 0 -1 1.110223024625000001e-16 forward_v I I I I #
coedge $-1 -1 $-1 $597 $598 $337 $470 forward $599 $-1 #
edge $-1 -1 $-1 $477 1.600000000000001421 $473 5 $337 $600 forward @7 unknown #
coedge $-1 -1 $-1 $338 $601 $597 $602 forward $472 $-1 #
loop $-1 -1 $-1 $-1 $603 $604 #
vertex $-1 -1 $-1 $339 $605 #
straight-curve $-1 -1 $-1 918.4000000000000909 -45.79999999999999716 113.2800000000000153 1 0 0 F 0 F 32.99999999999997158 #
point $-1 -1 $-1 918.4000000000000909 -45.79999999999999716 113.2800000000000153 #
coedge $-1 -1 $-1 $561 $342 $598 $606 forward $346 $-1 #
vertex $-1 -1 $-1 $470 $607 #
straight-curve $-1 -1 $-1 933.4500000000001592 -42.40000000000000568 113.2800000000000153 1 0 0 F 15.04999999999995453 F 17.94999999999987494 #
face $608 -1 $-1 $604 $346 $4 $-1 $609 forward single #
straight-curve $-1 -1 $-1 905.6600000000000819 -39 116.7000000000000171 -0.7071067811870000996 -7.850462293419000326e-17 -0.7071067811870000996 F -0 F 3.054701294723894733 #
coedge $-1 -1 $-1 $351 $610 $611 $612 reversed $91 $-1 #
coedge $-1 -1 $-1 $613 $614 $351 $483 forward $615 $-1 #
edge $-1 -1 $-1 $485 0 $616 5.270000000000010232 $351 $617 forward @7 unknown #
coedge $-1 -1 $-1 $363 $352 $614 $618 reversed $378 $-1 #
vertex $-1 -1 $-1 $483 $619 #
straight-curve $-1 -1 $-1 904.7699999999999818 -39 100 -0.7071067811870000996 -7.850462293419000326e-17 -0.7071067811870000996 F -0 F 1.796051224212640296 #
point $-1 -1 $-1 904.7699999999999818 -39 100 #
coedge $-1 -1 $-1 $358 $363 $366 $496 forward $378 $-1 #
straight-curve $-1 -1 $-1 904.1725000000001273 -39.71999999999999886 99.40250000000000341 0.7071067811870000996 7.850462293419000326e-17 0.7071067811870000996 F 0.1803122292024358919 F 0.8449926035173358496 #
coedge $-1 -1 $-1 $620 $362 $621 $622 forward $12 $-1 #
coedge $-1 -1 $-1 $614 $613 $362 $492 reversed $615 $-1 #
edge $-1 -1 $-1 $493 0 $623 5.270000000000010232 $362 $624 forward @7 unknown #
vertex $-1 -1 $-1 $364 $625 #
straight-curve $-1 -1 $-1 904.7699999999999818 -40.79999999999999716 100 -0.7071067811870000996 -7.850462293419000326e-17 -0.7071067811870000996 F 0.6646803743148999022 F 1.796051224212640296 #
coedge $-1 -1 $-1 $381 $365 $386 $521 reversed $367 $-1 #
edge $-1 -1 $-1 $368 -0.5400000000000027001 $382 0.5399999999999982592 $488 $626 forward @7 unknown #
face $627 -1 $-1 $371 $367 $4 $-1 $628 reversed single #
point $-1 -1 $-1 904.3000000000000682 -40.79999999999999716 99.53000000000001535 #
vertex $-1 -1 $-1 $370 $629 #
straight-curve $-1 -1 $-1 911.2000000000000455 -39.71999999999999886 99.53000000000001535 0 -1 1.110223024625000001e-16 F 1.080000000000000959 F 4.579999999999997407 #
DXID-attrib $-1 -1 $-1 $-1 $371 @10 ASM ENTITY @2 27 #
plane-surface $-1 -1 $-1 911.2000000000000455 -39.71999999999999886 99.53000000000001535 1 0 0 0 -1 1.110223024625000001e-16 forward_v I I I I #
coedge $-1 -1 $-1 $630 $373 $631 $632 forward $254 $-1 #
coedge $-1 -1 $-1 $373 $630 $633 $634 reversed $254 $-1 #
coedge $-1 -1 $-1 $635 $636 $373 $506 forward $637 $-1 #
edge $-1 -1 $-1 $638 0 $639 6.999999999999992895 $373 $640 forward @7 unknown #
coedge $-1 -1 $-1 $375 $374 $641 $642 forward $159 $-1 #
coedge $-1 -1 $-1 $643 $644 $374 $509 reversed $645 $-1 #
edge $-1 -1 $-1 $515 0 $646 4.100000000000108002 $374 $647 forward @7 unknown #
coedge $-1 -1 $-1 $648 $649 $375 $511 forward $650 $-1 #
edge $-1 -1 $-1 $516 0 $651 4.100000000000108002 $375 $652 forward @7 unknown #
coedge $-1 -1 $-1 $653 $376 $649 $654 reversed $514 $-1 #
coedge $-1 -1 $-1 $376 $653 $643 $655 forward $514 $-1 #
loop $-1 -1 $-1 $-1 $513 $393 #
vertex $-1 -1 $-1 $377 $656 #
vertex $-1 -1 $-1 $377 $657 #
straight-curve $-1 -1 $-1 906.2999999999999545 -39 101.7000000000000171 0 1.110223024625000001e-16 1 F 0 F 4.599999999999990763 #
face $658 -1 $-1 $497 $378 $4 $-1 $659 forward single #
point $-1 -1 $-1 904.3000000000000682 -39.71999999999999886 99.53000000000001535 #
straight-curve $-1 -1 $-1 902.8500000000001364 -39.71999999999999886 99.53000000000001535 0 -1 1.110223024625000001e-16 F 0 F 4.579999999999997407 #
edge $-1 -1 $-1 $390 0 $499 8.349999999999937472 $495 $660 forward @7 unknown #
straight-curve $-1 -1 $-1 911.2000000000000455 -44.29999999999999716 99.53000000000001535 0 1.110223024625000001e-16 1 F 0 F 8.940000000000001279 #
DXID-attrib $-1 -1 $-1 $-1 $388 @10 ASM ENTITY @2 38 #
plane-surface $-1 -1 $-1 902.8500000000001364 -44.29999999999999716 99.53000000000001535 0 -1 1.110223024625000001e-16 1 0 0 forward_v I I I I #
point $-1 -1 $-1 902.8500000000001364 -44.29999999999999716 99.53000000000001535 #
DXID-attrib $-1 -1 $-1 $-1 $393 @10 ASM ENTITY @2 40 #
face $661 -1 $-1 $662 $650 $4 $-1 $663 forward single #
plane-surface $-1 -1 $-1 906.2999999999999545 -35.39999999999999858 101.7000000000000171 1 0 0 0 -1 1.110223024625000001e-16 forward_v I I I I #
coedge $-1 -1 $-1 $396 $395 $664 $665 reversed $397 $-1 #
face $666 -1 $-1 $388 $397 $4 $-1 $667 forward single #
coedge $-1 -1 $-1 $407 $664 $399 $532 reversed $543 $-1 #
edge $-1 -1 $-1 $411 0 $533 3.999999999999914735 $399 $668 forward @7 unknown #
vertex $-1 -1 $-1 $532 $669 #
straight-curve $-1 -1 $-1 908.8999999999999773 -40.79999999999999716 113.4000000000000199 0 -1 1.110223024625000001e-16 F 0 F 2.000000000000001776 #
DXID-attrib $-1 -1 $-1 $-1 $401 @10 ASM ENTITY @2 35 #
plane-surface $-1 -1 $-1 904.9000000000000909 -40.79999999999999716 113.4000000000000199 0 1.110223024625000001e-16 1 0 -1 1.110223024625000001e-16 forward_v I I I I #
coedge $-1 -1 $-1 $664 $407 $403 $538 forward $543 $-1 #
edge $-1 -1 $-1 $409 0 $539 3.999999999999914735 $403 $670 forward @7 unknown #
vertex $-1 -1 $-1 $404 $671 #
straight-curve $-1 -1 $-1 908.8999999999999773 -40.79999999999999716 110.4000000000000057 0 -1 1.110223024625000001e-16 F 0 F 2.000000000000001776 #
DXID-attrib $-1 -1 $-1 $-1 $405 @10 ASM ENTITY @2 36 #
plane-surface $-1 -1 $-1 904.9000000000000909 -40.79999999999999716 110.4000000000000057 0 1.110223024625000001e-16 1 0 -1 1.110223024625000001e-16 forward_v I I I I #
loop $-1 -1 $-1 $-1 $407 $672 #
straight-curve $-1 -1 $-1 904.9000000000000909 -42.80000000000000426 110.4000000000000057 0 1.110223024625000001e-16 1 F 0 F 3.000000000000007105 #
point $-1 -1 $-1 904.9000000000000909 -42.80000000000000426 110.4000000000000057 #
point $-1 -1 $-1 904.9000000000000909 -42.80000000000000426 113.4000000000000199 #
coedge $-1 -1 $-1 $417 $423 $415 $548 forward $429 $-1 #
edge $-1 -1 $-1 $425 0 $419 3.000000000000007105 $415 $673 forward @7 unknown #
DXID-attrib $-1 -1 $-1 $-1 $416 @10 ASM ENTITY @2 33 #
plane-surface $-1 -1 $-1 908.8999999999999773 -40.79999999999999716 94.59999999999999432 1 0 0 0 -1 1.110223024625000001e-16 forward_v I I I I #
straight-curve $-1 -1 $-1 904.9000000000000909 -42.80000000000000426 97.59999999999999432 1 0 0 F 0 F 3.999999999999914735 #
point $-1 -1 $-1 908.8999999999999773 -42.80000000000000426 97.59999999999999432 #
straight-curve $-1 -1 $-1 904.9000000000000909 -42.80000000000000426 94.59999999999999432 1 0 0 F 0 F 3.999999999999914735 #
point $-1 -1 $-1 908.8999999999999773 -42.80000000000000426 94.59999999999999432 #
face $674 -1 $-1 $672 $429 $4 $-1 $675 forward single #
coedge $-1 -1 $-1 $676 $435 $437 $562 reversed $558 $-1 #
coedge $-1 -1 $-1 $435 $677 $567 $678 forward $558 $-1 #
loop $-1 -1 $-1 $-1 $676 $679 #
vertex $-1 -1 $-1 $678 $680 #
straight-curve $-1 -1 $-1 954.5 -40.79999999999999716 116.7000000000000171 0 -1 1.110223024625000001e-16 F 0 F 1.600000000000001421 #
coedge $-1 -1 $-1 $437 $476 $681 $682 forward $346 $-1 #
edge $-1 -1 $-1 $683 0 $438 4.700000000000006395 $556 $684 forward @7 unknown #
point $-1 -1 $-1 954.5 -42.40000000000000568 116.7000000000000171 #
coedge $-1 -1 $-1 $685 $440 $686 $687 reversed $91 $-1 #
edge $-1 -1 $-1 $688 0 $441 5.388153672638045677 $440 $689 forward @7 unknown #
point $-1 -1 $-1 951.3800000000001091 -39 116.7000000000000171 #
coedge $-1 -1 $-1 $568 $444 $557 $678 reversed $569 $-1 #
coedge $-1 -1 $-1 $444 $567 $446 $572 forward $569 $-1 #
loop $-1 -1 $-1 $-1 $444 $690 #
straight-curve $-1 -1 $-1 948.5000000000001137 -40.79999999999999716 116.7000000000000171 1 0 0 F 2.879999999999967031 F 5.999999999999943157 #
coedge $-1 -1 $-1 $573 $446 $691 $692 reversed $448 $-1 #
edge $-1 -1 $-1 $693 0.9758073580368227251 $449 5.388153672638045677 $446 $694 forward @7 unknown #
coedge $-1 -1 $-1 $447 $571 $695 $696 forward $448 $-1 #
face $697 -1 $-1 $698 $448 $4 $-1 $699 forward single #
point $-1 -1 $-1 951.3800000000001091 -40.79999999999999716 116.7000000000000171 #
coedge $-1 -1 $-1 $451 $700 $701 $702 reversed $12 $-1 #
coedge $-1 -1 $-1 $703 $704 $451 $578 forward $599 $-1 #
edge $-1 -1 $-1 $582 0 $705 17.28000000000001535 $451 $706 forward @7 unknown #
coedge $-1 -1 $-1 $707 $452 $704 $708 forward $581 $-1 #
coedge $-1 -1 $-1 $452 $707 $454 $585 reversed $581 $-1 #
loop $-1 -1 $-1 $-1 $452 $709 #
vertex $-1 -1 $-1 $578 $710 #
straight-curve $-1 -1 $-1 918.4000000000000909 -40.79999999999999716 94.71999999999999886 1 0 0 F 0 F 32.99999999999997158 #
coedge $-1 -1 $-1 $455 $454 $603 $711 forward $456 $-1 #
edge $-1 -1 $-1 $457 0 $712 5 $454 $713 forward @7 unknown #
face $714 -1 $-1 $709 $456 $4 $-1 $715 reversed single #
point $-1 -1 $-1 918.4000000000000909 -40.79999999999999716 94.71999999999999886 #
coedge $-1 -1 $-1 $603 $463 $459 $589 forward $472 $-1 #
edge $-1 -1 $-1 $465 -0.7996333279004801398 $590 0.7996333279004875783 $459 $716 forward @7 unknown #
vertex $-1 -1 $-1 $589 $717 #
straight-curve $-1 -1 $-1 918.4000000000000909 -40.79999999999999716 110.1167840433799938 0 1 -1.110223024625000001e-16 F -5 F 0 #
DXID-attrib $-1 -1 $-1 $-1 $461 @10 ASM ENTITY @2 10 #
loop $-1 -1 $-1 $330 $718 $461 #
cone-surface $-1 -1 $-1 917.2500000000001137 -40.79999999999999716 111.3000000000000114 0 1 -1.110223024625000001e-16 1.650000000000000133 0 0 1 I I 0 1 1.650000000000000133 forward I I I I #
straight-curve $-1 -1 $-1 918.4000000000000909 -45.79999999999999716 94.71999999999999886 0 1.110223024625000001e-16 1 F 17.76321595662000874 F 18.56000000000001648 #
point $-1 -1 $-1 918.4000000000000909 -45.79999999999999716 112.4832159566200005 #
coedge $-1 -1 $-1 $704 $469 $471 $602 reversed $599 $-1 #
coedge $-1 -1 $-1 $469 $703 $476 $606 reversed $599 $-1 #
loop $-1 -1 $-1 $-1 $597 $719 #
straight-curve $-1 -1 $-1 951.3999999999999773 -40.79999999999999716 113.2800000000000153 0 -1 1.110223024625000001e-16 F 1.600000000000001421 F 5 #
coedge $-1 -1 $-1 $471 $603 $707 $720 forward $472 $-1 #
edge $-1 -1 $-1 $721 0 $473 18.56000000000001648 $597 $722 forward @7 unknown #
coedge $-1 -1 $-1 $601 $588 $584 $711 reversed $472 $-1 #
face $723 -1 $-1 $724 $472 $4 $-1 $725 forward single #
point $-1 -1 $-1 951.3999999999999773 -45.79999999999999716 113.2800000000000153 #
edge $-1 -1 $-1 $477 -9.920000000000008811 $726 -8.640000000000007674 $598 $727 forward @7 unknown #
point $-1 -1 $-1 951.3999999999999773 -42.40000000000000568 113.2800000000000153 #
DXID-attrib $-1 -1 $-1 $-1 $479 @10 ASM ENTITY @2 48 #
plane-surface $-1 -1 $-1 948.5000000000001137 -42.40000000000000568 112.0000000000000142 0 -1 1.110223024625000001e-16 1 0 0 forward_v I I I I #
coedge $-1 -1 $-1 $481 $685 $728 $729 reversed $91 $-1 #
coedge $-1 -1 $-1 $730 $731 $481 $612 forward $732 $-1 #
edge $-1 -1 $-1 $616 0 $733 3.054701294723882743 $481 $734 forward @7 unknown #
coedge $-1 -1 $-1 $491 $482 $731 $735 reversed $615 $-1 #
coedge $-1 -1 $-1 $482 $491 $484 $618 forward $615 $-1 #
loop $-1 -1 $-1 $-1 $614 $736 #
vertex $-1 -1 $-1 $612 $737 #
straight-curve $-1 -1 $-1 903.5000000000001137 -39 98.73000000000001819 0 -1.110223024625000001e-16 -1 F 0 F 5.270000000000010232 #
edge $-1 -1 $-1 $493 0 $485 1.799999999999997158 $614 $738 forward @7 unknown #
point $-1 -1 $-1 903.5000000000001137 -39 98.73000000000001819 #
coedge $-1 -1 $-1 $739 $490 $740 $741 forward $12 $-1 #
coedge $-1 -1 $-1 $731 $730 $490 $622 reversed $732 $-1 #
edge $-1 -1 $-1 $623 0 $742 3.054701294723882743 $490 $743 forward @7 unknown #
vertex $-1 -1 $-1 $492 $744 #
straight-curve $-1 -1 $-1 903.5000000000001137 -40.79999999999999716 98.73000000000001819 0 -1.110223024625000001e-16 -1 F 0 F 5.270000000000010232 #
point $-1 -1 $-1 903.5000000000001137 -40.79999999999999716 98.73000000000001819 #
straight-curve $-1 -1 $-1 904.3000000000000682 -40.25999999999999801 99.53000000000001535 0 1 -1.110223024625000001e-16 F -0.5400000000000027001 F 0.5399999999999982592 #
DXID-attrib $-1 -1 $-1 $-1 $497 @10 ASM ENTITY @2 26 #
plane-surface $-1 -1 $-1 902.8500000000001364 -39.71999999999999886 99.53000000000001535 0 1.110223024625000001e-16 1 0 -1 1.110223024625000001e-16 forward_v I I I I #
point $-1 -1 $-1 911.2000000000000455 -44.29999999999999716 99.53000000000001535 #
coedge $-1 -1 $-1 $504 $503 $745 $746 forward $254 $-1 #
coedge $-1 -1 $-1 $747 $748 $503 $632 reversed $749 $-1 #
edge $-1 -1 $-1 $638 0 $750 7.000000000000028422 $503 $751 forward @7 unknown #
coedge $-1 -1 $-1 $752 $753 $504 $634 forward $754 $-1 #
edge $-1 -1 $-1 $639 0 $755 7.000000000000028422 $504 $756 forward @7 unknown #
coedge $-1 -1 $-1 $757 $505 $753 $758 reversed $637 $-1 #
coedge $-1 -1 $-1 $505 $757 $747 $759 forward $637 $-1 #
loop $-1 -1 $-1 $-1 $636 $760 #
vertex $-1 -1 $-1 $506 $761 #
vertex $-1 -1 $-1 $506 $762 #
straight-curve $-1 -1 $-1 923.8999999999999773 -39 100.5 0 1.110223024625000001e-16 1 F 0 F 6.999999999999992895 #
coedge $-1 -1 $-1 $763 $764 $507 $642 reversed $765 $-1 #
edge $-1 -1 $-1 $646 0 $651 4.599999999999990763 $507 $766 forward @7 unknown #
coedge $-1 -1 $-1 $767 $508 $513 $655 reversed $645 $-1 #
coedge $-1 -1 $-1 $508 $767 $763 $768 forward $645 $-1 #
loop $-1 -1 $-1 $-1 $767 $662 #
vertex $-1 -1 $-1 $509 $769 #
straight-curve $-1 -1 $-1 906.2999999999999545 -39 101.7000000000000171 1 0 0 F 0 F 4.100000000000108002 #
coedge $-1 -1 $-1 $770 $510 $764 $771 reversed $650 $-1 #
coedge $-1 -1 $-1 $510 $770 $512 $654 forward $650 $-1 #
loop $-1 -1 $-1 $-1 $770 $527 #
vertex $-1 -1 $-1 $642 $772 #
straight-curve $-1 -1 $-1 906.2999999999999545 -39 106.3000000000000114 1 0 0 F 0 F 4.100000000000108002 #
coedge $-1 -1 $-1 $513 $512 $773 $774 reversed $514 $-1 #
edge $-1 -1 $-1 $775 0 $516 3.600000000000003197 $512 $776 forward @7 unknown #
edge $-1 -1 $-1 $777 0 $515 3.600000000000003197 $513 $778 forward @7 unknown #
point $-1 -1 $-1 906.2999999999999545 -39 101.7000000000000171 #
point $-1 -1 $-1 906.2999999999999545 -39 106.3000000000000114 #
DXID-attrib $-1 -1 $-1 $-1 $518 @10 ASM ENTITY @2 25 #
plane-surface $-1 -1 $-1 904.7699999999999818 -40.79999999999999716 100 -0.7071067811865475727 7.8504622934139775e-17 0.7071067811865475727 -0.7071067811865476838 -7.8504622934139775e-17 -0.7071067811865476838 forward_v I I I I #
straight-curve $-1 -1 $-1 902.8500000000001364 -44.29999999999999716 99.53000000000001535 1 0 0 F 0 F 8.349999999999937472 #
DXID-attrib $-1 -1 $-1 $-1 $527 @10 ASM ENTITY @2 41 #
face $779 -1 $-1 $780 $645 $4 $-1 $781 reversed single #
plane-surface $-1 -1 $-1 906.2999999999999545 -35.39999999999999858 106.3000000000000114 0 1.110223024625000001e-16 1 0 -1 1.110223024625000001e-16 forward_v I I I I #
coedge $-1 -1 $-1 $531 $537 $529 $665 forward $543 $-1 #
edge $-1 -1 $-1 $539 0 $533 3.000000000000007105 $529 $782 forward @7 unknown #
DXID-attrib $-1 -1 $-1 $-1 $530 @10 ASM ENTITY @2 37 #
plane-surface $-1 -1 $-1 908.8999999999999773 -40.79999999999999716 110.4000000000000057 1 0 0 0 -1 1.110223024625000001e-16 forward_v I I I I #
straight-curve $-1 -1 $-1 904.9000000000000909 -42.80000000000000426 113.4000000000000199 1 0 0 F 0 F 3.999999999999914735 #
point $-1 -1 $-1 908.8999999999999773 -42.80000000000000426 113.4000000000000199 #
straight-curve $-1 -1 $-1 904.9000000000000909 -42.80000000000000426 110.4000000000000057 1 0 0 F 0 F 3.999999999999914735 #
point $-1 -1 $-1 908.8999999999999773 -42.80000000000000426 110.4000000000000057 #
face $783 -1 $-1 $784 $543 $4 $-1 $785 forward single #
straight-curve $-1 -1 $-1 908.8999999999999773 -42.80000000000000426 94.59999999999999432 0 1.110223024625000001e-16 1 F 0 F 3.000000000000007105 #
DXID-attrib $-1 -1 $-1 $-1 $555 @10 ASM ENTITY @2 55 #
plane-surface $-1 -1 $-1 904.9000000000000909 -42.80000000000000426 94.59999999999999432 0 -1 1.110223024625000001e-16 1 0 0 forward_v I I I I #
coedge $-1 -1 $-1 $677 $556 $786 $787 reversed $558 $-1 #
coedge $-1 -1 $-1 $557 $676 $700 $788 forward $558 $-1 #
edge $-1 -1 $-1 $693 1.579999999999994742 $559 4.700000000000006395 $557 $789 forward @7 unknown #
face $790 -1 $-1 $574 $558 $4 $-1 $791 forward single #
point $-1 -1 $-1 954.5 -40.79999999999999716 116.7000000000000171 #
coedge $-1 -1 $-1 $792 $786 $561 $682 reversed $793 $-1 #
edge $-1 -1 $-1 $726 2.899999999999920419 $683 5.999999999999943157 $681 $794 forward @7 unknown #
vertex $-1 -1 $-1 $787 $795 #
straight-curve $-1 -1 $-1 954.5 -42.40000000000000568 112.0000000000000142 0 1.110223024625000001e-16 1 F 0 F 4.700000000000006395 #
coedge $-1 -1 $-1 $610 $564 $796 $797 reversed $91 $-1 #
coedge $-1 -1 $-1 $695 $798 $564 $687 forward $799 $-1 #
edge $-1 -1 $-1 $800 0 $688 17.78000000000000469 $564 $801 forward @7 unknown #
vertex $-1 -1 $-1 $565 $802 #
straight-curve $-1 -1 $-1 955.1900000000000546 -39 112.8900000000000148 -0.7071067811870000996 7.850462293419000326e-17 0.7071067811870000996 F 0 F 5.388153672638045677 #
face $803 -1 $-1 $804 $569 $4 $-1 $805 reversed single #
coedge $-1 -1 $-1 $700 $806 $571 $692 forward $12 $-1 #
edge $-1 -1 $-1 $807 0 $693 0.9758073580368227251 $691 $808 forward @7 unknown #
vertex $-1 -1 $-1 $692 $809 #
straight-curve $-1 -1 $-1 955.1900000000000546 -40.79999999999999716 112.8900000000000148 -0.7071067811870000996 7.850462293419000326e-17 0.7071067811870000996 F 0.9758073580368227251 F 5.388153672638045677 #
coedge $-1 -1 $-1 $810 $686 $573 $696 reversed $799 $-1 #
edge $-1 -1 $-1 $807 0 $688 1.799999999999997158 $573 $811 forward @7 unknown #
DXID-attrib $-1 -1 $-1 $-1 $574 @10 ASM ENTITY @2 16 #
face $812 -1 $-1 $813 $799 $4 $-1 $814 forward single #
plane-surface $-1 -1 $-1 955.1900000000000546 -40.79999999999999716 112.8900000000000148 0.7071067811865475727 7.8504622934139775e-17 0.7071067811865475727 -0.7071067811865476838 7.8504622934139775e-17 0.7071067811865476838 forward_v I I I I #
coedge $-1 -1 $-1 $576 $691 $677 $788 reversed $12 $-1 #
coedge $-1 -1 $-1 $786 $792 $576 $702 forward $793 $-1 #
edge $-1 -1 $-1 $705 2.899999999999920419 $815 5.999999999999943157 $576 $816 forward @7 unknown #
coedge $-1 -1 $-1 $598 $577 $792 $817 forward $599 $-1 #
coedge $-1 -1 $-1 $577 $597 $579 $708 reversed $599 $-1 #
vertex $-1 -1 $-1 $702 $818 #
straight-curve $-1 -1 $-1 951.3999999999999773 -40.79999999999999716 94.71999999999999886 0 1.110223024625000001e-16 1 F 0 F 17.28000000000001535 #
coedge $-1 -1 $-1 $580 $579 $601 $720 reversed $581 $-1 #
edge $-1 -1 $-1 $582 0 $721 5 $579 $819 forward @7 unknown #
face $820 -1 $-1 $719 $581 $4 $-1 $821 reversed single #
point $-1 -1 $-1 951.3999999999999773 -40.79999999999999716 94.71999999999999886 #
edge $-1 -1 $-1 $712 0 $590 15.39678404337999851 $584 $822 forward @7 unknown #
vertex $-1 -1 $-1 $711 $823 #
straight-curve $-1 -1 $-1 918.4000000000000909 -40.79999999999999716 94.71999999999999886 0 -1 1.110223024625000001e-16 F 0 F 5 #
DXID-attrib $-1 -1 $-1 $-1 $586 @10 ASM ENTITY @2 11 #
plane-surface $-1 -1 $-1 918.4000000000000909 -40.79999999999999716 94.71999999999999886 1 0 0 0 -1 1.110223024625000001e-16 forward_v I I I I #
ellipse-curve $-1 -1 $-1 917.2500000000001137 -45.79999999999999716 111.3000000000000114 0 1 -1.110223024625000001e-16 1.650000000000000133 0 0 1 F -0.7996333279004801398 F 0.7996333279004875783 #
point $-1 -1 $-1 918.4000000000000909 -45.79999999999999716 110.1167840433799938 #
coedge $-1 -1 $-1 $718 $718 $824 $825 reversed $593 $-1 #
face $826 -1 $-1 $827 $599 $4 $-1 $828 forward single #
edge $-1 -1 $-1 $712 0 $721 32.99999999999997158 $707 $829 forward @7 unknown #
vertex $-1 -1 $-1 $708 $830 #
straight-curve $-1 -1 $-1 951.3999999999999773 -45.79999999999999716 94.71999999999999886 0 1.110223024625000001e-16 1 F 0 F 18.56000000000001648 #
DXID-attrib $-1 -1 $-1 $-1 $604 @10 ASM ENTITY @2 49 #
face $831 -1 $-1 $690 $832 $4 $-1 $833 forward single #
plane-surface $-1 -1 $-1 918.4000000000000909 -45.79999999999999716 94.71999999999999886 0 -1 1.110223024625000001e-16 1 0 0 forward_v I I I I #
vertex $-1 -1 $-1 $817 $834 #
straight-curve $-1 -1 $-1 951.3999999999999773 -42.40000000000000568 103.3599999999999994 0 -1.110223024625000001e-16 -1 F -9.920000000000008811 F -8.640000000000007674 #
coedge $-1 -1 $-1 $835 $836 $610 $729 forward $837 $-1 #
edge $-1 -1 $-1 $733 0 $838 45.72000000000002728 $610 $839 forward @7 unknown #
coedge $-1 -1 $-1 $621 $611 $836 $840 reversed $732 $-1 #
coedge $-1 -1 $-1 $611 $621 $613 $735 forward $732 $-1 #
loop $-1 -1 $-1 $-1 $731 $841 #
vertex $-1 -1 $-1 $729 $842 #
straight-curve $-1 -1 $-1 903.5000000000001137 -39 93.46000000000000796 0.7071067811870000996 -7.850462293419000326e-17 -0.7071067811870000996 F 0 F 3.054701294723882743 #
edge $-1 -1 $-1 $623 0 $616 1.799999999999997158 $731 $843 forward @7 unknown #
face $844 -1 $-1 $518 $615 $4 $-1 $845 forward single #
point $-1 -1 $-1 903.5000000000001137 -39 93.46000000000000796 #
straight-curve $-1 -1 $-1 903.5000000000001137 -40.79999999999999716 98.73000000000001819 0 1 -1.110223024625000001e-16 F 0 F 1.799999999999997158 #
coedge $-1 -1 $-1 $846 $620 $847 $848 forward $12 $-1 #
coedge $-1 -1 $-1 $836 $835 $620 $741 reversed $837 $-1 #
edge $-1 -1 $-1 $742 0 $849 45.72000000000002728 $620 $850 forward @7 unknown #
vertex $-1 -1 $-1 $622 $851 #
straight-curve $-1 -1 $-1 903.5000000000001137 -40.79999999999999716 93.46000000000000796 0.7071067811870000996 -7.850462293419000326e-17 -0.7071067811870000996 F 0 F 3.054701294723882743 #
point $-1 -1 $-1 903.5000000000001137 -40.79999999999999716 93.46000000000000796 #
coedge $-1 -1 $-1 $852 $853 $630 $746 reversed $854 $-1 #
edge $-1 -1 $-1 $750 0 $755 6.999999999999992895 $630 $855 forward @7 unknown #
coedge $-1 -1 $-1 $856 $631 $636 $759 reversed $749 $-1 #
coedge $-1 -1 $-1 $631 $856 $852 $857 forward $749 $-1 #
loop $-1 -1 $-1 $-1 $856 $858 #
vertex $-1 -1 $-1 $632 $859 #
straight-curve $-1 -1 $-1 923.8999999999999773 -39 100.5 1 0 0 F 0 F 7.000000000000028422 #
coedge $-1 -1 $-1 $860 $633 $853 $861 reversed $754 $-1 #
coedge $-1 -1 $-1 $633 $860 $635 $758 forward $754 $-1 #
loop $-1 -1 $-1 $-1 $860 $862 #
vertex $-1 -1 $-1 $746 $863 #
straight-curve $-1 -1 $-1 923.8999999999999773 -39 107.5 1 0 0 F 0 F 7.000000000000028422 #
coedge $-1 -1 $-1 $636 $635 $864 $865 reversed $637 $-1 #
edge $-1 -1 $-1 $866 0 $639 0.8000000000000007105 $635 $867 forward @7 unknown #
edge $-1 -1 $-1 $868 0 $638 0.8000000000000007105 $636 $869 forward @7 unknown #
face $870 -1 $-1 $858 $637 $4 $-1 $871 reversed single #
point $-1 -1 $-1 923.8999999999999773 -39 100.5 #
point $-1 -1 $-1 923.8999999999999773 -39 107.5 #
coedge $-1 -1 $-1 $872 $641 $644 $768 reversed $765 $-1 #
coedge $-1 -1 $-1 $641 $872 $648 $771 forward $765 $-1 #
loop $-1 -1 $-1 $-1 $763 $780 #
straight-curve $-1 -1 $-1 910.4000000000000909 -39 101.7000000000000171 0 1.110223024625000001e-16 1 F 0 F 4.599999999999990763 #
coedge $-1 -1 $-1 $644 $643 $873 $874 forward $645 $-1 #
edge $-1 -1 $-1 $875 0 $646 3.600000000000003197 $644 $876 forward @7 unknown #
point $-1 -1 $-1 910.4000000000000909 -39 101.7000000000000171 #
coedge $-1 -1 $-1 $649 $648 $877 $878 reversed $650 $-1 #
edge $-1 -1 $-1 $879 0 $651 3.600000000000003197 $648 $880 forward @7 unknown #
point $-1 -1 $-1 910.4000000000000909 -39 106.3000000000000114 #
coedge $-1 -1 $-1 $877 $873 $653 $774 forward $881 $-1 #
edge $-1 -1 $-1 $777 0 $775 4.599999999999990763 $653 $882 forward @7 unknown #
vertex $-1 -1 $-1 $654 $883 #
straight-curve $-1 -1 $-1 906.2999999999999545 -35.39999999999999858 106.3000000000000114 0 -1 1.110223024625000001e-16 F 0 F 3.600000000000003197 #
vertex $-1 -1 $-1 $655 $884 #
straight-curve $-1 -1 $-1 906.2999999999999545 -35.39999999999999858 101.7000000000000171 0 -1 1.110223024625000001e-16 F 0 F 3.600000000000003197 #
DXID-attrib $-1 -1 $-1 $-1 $662 @10 ASM ENTITY @2 42 #
face $885 -1 $-1 $760 $765 $4 $-1 $886 forward single #
plane-surface $-1 -1 $-1 906.2999999999999545 -35.39999999999999858 101.7000000000000171 0 1.110223024625000001e-16 1 0 -1 1.110223024625000001e-16 forward_v I I I I #
straight-curve $-1 -1 $-1 908.8999999999999773 -42.80000000000000426 110.4000000000000057 0 1.110223024625000001e-16 1 F 0 F 3.000000000000007105 #
DXID-attrib $-1 -1 $-1 $-1 $672 @10 ASM ENTITY @2 56 #
face $887 -1 $-1 $888 $881 $4 $-1 $889 reversed single #
plane-surface $-1 -1 $-1 904.9000000000000909 -42.80000000000000426 110.4000000000000057 0 -1 1.110223024625000001e-16 1 0 0 forward_v I I I I #
coedge $-1 -1 $-1 $681 $701 $676 $787 forward $793 $-1 #
edge $-1 -1 $-1 $815 0 $683 1.600000000000001421 $786 $890 forward @7 unknown #
edge $-1 -1 $-1 $815 0 $693 1.579999999999994742 $700 $891 forward @7 unknown #
straight-curve $-1 -1 $-1 954.5 -40.79999999999999716 112.0000000000000142 0 1.110223024625000001e-16 1 F 1.579999999999994742 F 4.700000000000006395 #
DXID-attrib $-1 -1 $-1 $-1 $679 @10 ASM ENTITY @2 15 #
plane-surface $-1 -1 $-1 954.5 -40.79999999999999716 112.0000000000000142 1 0 0 0 -1 1.110223024625000001e-16 forward_v I I I I #
coedge $-1 -1 $-1 $701 $681 $703 $817 reversed $793 $-1 #
loop $-1 -1 $-1 $-1 $701 $827 #
straight-curve $-1 -1 $-1 948.5000000000001137 -42.40000000000000568 112.0000000000000142 1 0 0 F 2.899999999999920419 F 5.999999999999943157 #
point $-1 -1 $-1 954.5 -42.40000000000000568 112.0000000000000142 #
coedge $-1 -1 $-1 $892 $893 $685 $797 forward $894 $-1 #
edge $-1 -1 $-1 $838 0 $800 5.388153672638045677 $685 $895 forward @7 unknown #
coedge $-1 -1 $-1 $686 $896 $892 $897 forward $799 $-1 #
loop $-1 -1 $-1 $-1 $798 $698 #
vertex $-1 -1 $-1 $687 $898 #
straight-curve $-1 -1 $-1 955.1900000000000546 -39 95.11000000000001364 0 1.110223024625000001e-16 1 F 0 F 17.78000000000000469 #
point $-1 -1 $-1 955.1900000000000546 -39 112.8900000000000148 #
DXID-attrib $-1 -1 $-1 $-1 $690 @10 ASM ENTITY @2 51 #
face $899 -1 $-1 $900 $901 $4 $-1 $902 reversed single #
plane-surface $-1 -1 $-1 948.5000000000001137 -40.79999999999999716 112.0000000000000142 0 -1 1.110223024625000001e-16 1 0 0 forward_v I I I I #
coedge $-1 -1 $-1 $691 $903 $810 $904 forward $12 $-1 #
vertex $-1 -1 $-1 $904 $905 #
straight-curve $-1 -1 $-1 955.1900000000000546 -40.79999999999999716 112.8900000000000148 -0.7071067811870000996 7.850462293419000326e-17 0.7071067811870000996 F 0 F 0.9758073580368227251 #
point $-1 -1 $-1 954.5 -40.79999999999999716 113.5800000000000125 #
coedge $-1 -1 $-1 $906 $695 $806 $904 reversed $799 $-1 #
straight-curve $-1 -1 $-1 955.1900000000000546 -40.79999999999999716 112.8900000000000148 0 1 -1.110223024625000001e-16 F 0 F 1.799999999999997158 #
DXID-attrib $-1 -1 $-1 $-1 $698 @10 ASM ENTITY @2 17 #
face $907 -1 $-1 $908 $909 $4 $-1 $910 forward single #
plane-surface $-1 -1 $-1 955.1900000000000546 -40.79999999999999716 95.11000000000001364 1 0 0 0 1.110223024625000001e-16 1 forward_v I I I I #
vertex $-1 -1 $-1 $788 $911 #
straight-curve $-1 -1 $-1 948.5000000000001137 -40.79999999999999716 112.0000000000000142 1 0 0 F 2.899999999999920419 F 5.999999999999943157 #
edge $-1 -1 $-1 $705 0 $726 1.600000000000001421 $703 $912 forward @7 unknown #
point $-1 -1 $-1 951.3999999999999773 -40.79999999999999716 112.0000000000000142 #
straight-curve $-1 -1 $-1 951.3999999999999773 -40.79999999999999716 94.71999999999999886 0 -1 1.110223024625000001e-16 F 0 F 5 #
DXID-attrib $-1 -1 $-1 $-1 $709 @10 ASM ENTITY @2 12 #
plane-surface $-1 -1 $-1 918.4000000000000909 -40.79999999999999716 94.71999999999999886 0 1.110223024625000001e-16 1 0 -1 1.110223024625000001e-16 forward_v I I I I #
straight-curve $-1 -1 $-1 918.4000000000000909 -45.79999999999999716 94.71999999999999886 0 1.110223024625000001e-16 1 F 0 F 15.39678404337999851 #
point $-1 -1 $-1 918.4000000000000909 -45.79999999999999716 94.71999999999999886 #
coedge $-1 -1 $-1 $824 $824 $718 $825 forward $832 $-1 #
edge $-1 -1 $-1 $913 0 $913 6.283185307179586232 $718 $914 forward @7 unknown #
DXID-attrib $-1 -1 $-1 $-1 $719 @10 ASM ENTITY @2 13 #
face $915 -1 $-1 $679 $793 $4 $-1 $916 reversed single #
plane-surface $-1 -1 $-1 951.3999999999999773 -40.79999999999999716 94.71999999999999886 1 0 0 0 -1 1.110223024625000001e-16 forward_v I I I I #
straight-curve $-1 -1 $-1 918.4000000000000909 -45.79999999999999716 94.71999999999999886 1 0 0 F 0 F 32.99999999999997158 #
point $-1 -1 $-1 951.3999999999999773 -45.79999999999999716 94.71999999999999886 #
DXID-attrib $-1 -1 $-1 $-1 $724 @10 ASM ENTITY @2 50 #
loop $-1 -1 $-1 $-1 $824 $724 #
plane-surface $-1 -1 $-1 917.2500000000001137 -46.70000000000000995 111.3000000000000114 0 -1 1.110223024625000001e-16 1 0 0 forward_v I I I I #
point $-1 -1 $-1 951.3999999999999773 -42.40000000000000568 112.0000000000000142 #
coedge $-1 -1 $-1 $740 $728 $893 $917 reversed $837 $-1 #
coedge $-1 -1 $-1 $728 $740 $730 $840 forward $837 $-1 #
loop $-1 -1 $-1 $-1 $836 $918 #
vertex $-1 -1 $-1 $797 $919 #
straight-curve $-1 -1 $-1 905.6600000000000819 -39 91.30000000000001137 1 0 0 F 0 F 45.72000000000002728 #
edge $-1 -1 $-1 $742 0 $733 1.799999999999997158 $836 $920 forward @7 unknown #
face $921 -1 $-1 $736 $732 $4 $-1 $922 forward single #
point $-1 -1 $-1 905.6600000000000819 -39 91.30000000000001137 #
straight-curve $-1 -1 $-1 903.5000000000001137 -40.79999999999999716 93.46000000000000796 0 1 -1.110223024625000001e-16 F 0 F 1.799999999999997158 #
DXID-attrib $-1 -1 $-1 $-1 $736 @10 ASM ENTITY @2 24 #
plane-surface $-1 -1 $-1 903.5000000000001137 -40.79999999999999716 98.73000000000001819 -1 0 0 -0 -1.110223024625000001e-16 -1 forward_v I I I I #
coedge $-1 -1 $-1 $923 $739 $896 $924 forward $12 $-1 #
coedge $-1 -1 $-1 $893 $892 $739 $848 reversed $894 $-1 #
edge $-1 -1 $-1 $849 0 $925 5.388153672638045677 $739 $926 forward @7 unknown #
vertex $-1 -1 $-1 $741 $927 #
straight-curve $-1 -1 $-1 905.6600000000000819 -40.79999999999999716 91.30000000000001137 1 0 0 F 0 F 45.72000000000002728 #
point $-1 -1 $-1 905.6600000000000819 -40.79999999999999716 91.30000000000001137 #
coedge $-1 -1 $-1 $928 $745 $748 $857 reversed $854 $-1 #
coedge $-1 -1 $-1 $745 $928 $752 $861 forward $854 $-1 #
loop $-1 -1 $-1 $-1 $852 $929 #
straight-curve $-1 -1 $-1 930.9000000000000909 -39 100.5 0 1.110223024625000001e-16 1 F 0 F 6.999999999999992895 #
coedge $-1 -1 $-1 $748 $747 $930 $931 forward $749 $-1 #
edge $-1 -1 $-1 $932 0 $750 0.8000000000000007105 $748 $933 forward @7 unknown #
face $934 -1 $-1 $929 $749 $4 $-1 $935 reversed single #
point $-1 -1 $-1 930.9000000000000909 -39 100.5 #
coedge $-1 -1 $-1 $753 $752 $936 $937 reversed $754 $-1 #
edge $-1 -1 $-1 $938 0 $755 0.8000000000000007105 $853 $939 forward @7 unknown #
face $940 -1 $-1 $479 $754 $4 $-1 $941 forward single #
point $-1 -1 $-1 930.9000000000000909 -39 107.5 #
coedge $-1 -1 $-1 $936 $930 $757 $865 forward $942 $-1 #
edge $-1 -1 $-1 $868 0 $866 6.999999999999992895 $757 $943 forward @7 unknown #
vertex $-1 -1 $-1 $758 $944 #
straight-curve $-1 -1 $-1 923.8999999999999773 -38.20000000000000284 107.5 0 -1 1.110223024625000001e-16 F 0 F 0.8000000000000007105 #
vertex $-1 -1 $-1 $759 $945 #
straight-curve $-1 -1 $-1 923.8999999999999773 -38.20000000000000284 100.5 0 -1 1.110223024625000001e-16 F 0 F 0.8000000000000007105 #
DXID-attrib $-1 -1 $-1 $-1 $760 @10 ASM ENTITY @2 44 #
plane-surface $-1 -1 $-1 923.8999999999999773 -38.20000000000000284 100.5 1 0 0 0 -1 1.110223024625000001e-16 forward_v I I I I #
coedge $-1 -1 $-1 $764 $763 $946 $947 forward $765 $-1 #
coedge $-1 -1 $-1 $773 $946 $767 $874 reversed $881 $-1 #
edge $-1 -1 $-1 $777 0 $875 4.100000000000108002 $767 $948 forward @7 unknown #
vertex $-1 -1 $-1 $874 $949 #
straight-curve $-1 -1 $-1 910.4000000000000909 -35.39999999999999858 101.7000000000000171 0 -1 1.110223024625000001e-16 F 0 F 3.600000000000003197 #
coedge $-1 -1 $-1 $946 $773 $770 $878 forward $881 $-1 #
edge $-1 -1 $-1 $775 0 $879 4.100000000000108002 $770 $950 forward @7 unknown #
vertex $-1 -1 $-1 $878 $951 #
straight-curve $-1 -1 $-1 910.4000000000000909 -35.39999999999999858 106.3000000000000114 0 -1 1.110223024625000001e-16 F 0 F 3.600000000000003197 #
loop $-1 -1 $-1 $-1 $773 $784 #
straight-curve $-1 -1 $-1 906.2999999999999545 -35.39999999999999858 101.7000000000000171 0 1.110223024625000001e-16 1 F 0 F 4.599999999999990763 #
point $-1 -1 $-1 906.2999999999999545 -35.39999999999999858 106.3000000000000114 #
point $-1 -1 $-1 906.2999999999999545 -35.39999999999999858 101.7000000000000171 #
DXID-attrib $-1 -1 $-1 $-1 $780 @10 ASM ENTITY @2 43 #
plane-surface $-1 -1 $-1 910.4000000000000909 -35.39999999999999858 101.7000000000000171 1 0 0 0 -1 1.110223024625000001e-16 forward_v I I I I #
DXID-attrib $-1 -1 $-1 $-1 $784 @10 ASM ENTITY @2 57 #
face $952 -1 $-1 $-1 $942 $4 $-1 $953 reversed single #
plane-surface $-1 -1 $-1 906.2999999999999545 -35.39999999999999858 101.7000000000000171 0 -1 1.110223024625000001e-16 1 0 0 forward_v I I I I #
straight-curve $-1 -1 $-1 954.5 -40.79999999999999716 112.0000000000000142 0 -1 1.110223024625000001e-16 F 0 F 1.600000000000001421 #
straight-curve $-1 -1 $-1 954.5 -40.79999999999999716 112.0000000000000142 0 1.110223024625000001e-16 1 F 0 F 1.579999999999994742 #
coedge $-1 -1 $-1 $847 $796 $798 $897 reversed $894 $-1 #
coedge $-1 -1 $-1 $796 $847 $835 $917 forward $894 $-1 #
loop $-1 -1 $-1 $-1 $893 $954 #
straight-curve $-1 -1 $-1 951.3800000000001091 -39 91.30000000000001137 0.7071067811870000996 7.850462293419000326e-17 0.7071067811870000996 F 0 F 5.388153672638045677 #
coedge $-1 -1 $-1 $798 $906 $846 $924 reversed $799 $-1 #
edge $-1 -1 $-1 $925 0 $800 1.799999999999997158 $798 $955 forward @7 unknown #
point $-1 -1 $-1 955.1900000000000546 -39 95.11000000000001364 #
DXID-attrib $-1 -1 $-1 $-1 $804 @10 ASM ENTITY @2 52 #
face $956 -1 $-1 $957 $958 $4 $-1 $959 forward single #
loop $-1 -1 $-1 $-1 $960 $804 #
plane-surface $-1 -1 $-1 952.3500000000001364 -40.79999999999999716 102.5 0 -1 1.110223024625000001e-16 1 0 0 forward_v I I I I #
coedge $-1 -1 $-1 $806 $961 $962 $963 forward $12 $-1 #
edge $-1 -1 $-1 $964 10.38999999999999702 $807 17.78000000000000469 $806 $965 forward @7 unknown #
point $-1 -1 $-1 955.1900000000000546 -40.79999999999999716 112.8900000000000148 #
coedge $-1 -1 $-1 $896 $810 $966 $967 reversed $799 $-1 #
DXID-attrib $-1 -1 $-1 $-1 $813 @10 ASM ENTITY @2 18 #
face $968 -1 $-1 $969 $970 $4 $-1 $971 reversed single #
loop $-1 -1 $-1 $-1 $962 $813 #
plane-surface $-1 -1 $-1 952.3500000000001364 -40.79999999999999716 105.5 0 1.110223024625000001e-16 1 0 -1 1.110223024625000001e-16 forward_v I I I I #
point $-1 -1 $-1 954.5 -40.79999999999999716 112.0000000000000142 #
straight-curve $-1 -1 $-1 951.3999999999999773 -40.79999999999999716 112.0000000000000142 0 -1 1.110223024625000001e-16 F 0 F 1.600000000000001421 #
vertex $-1 -1 $-1 $825 $972 #
ellipse-curve $-1 -1 $-1 917.2500000000001137 -46.70000000000000995 111.3000000000000114 0 -1 1.110223024625000001e-16 1.650000000000000133 0 0 1 I I #
DXID-attrib $-1 -1 $-1 $-1 $827 @10 ASM ENTITY @2 14 #
plane-surface $-1 -1 $-1 948.5000000000001137 -40.79999999999999716 112.0000000000000142 0 1.110223024625000001e-16 1 0 -1 1.110223024625000001e-16 forward_v I I I I #
edge $-1 -1 $-1 $849 0 $838 1.799999999999997158 $893 $973 forward @7 unknown #
face $974 -1 $-1 $841 $837 $4 $-1 $975 forward single #
point $-1 -1 $-1 951.3800000000001091 -39 91.30000000000001137 #
straight-curve $-1 -1 $-1 905.6600000000000819 -40.79999999999999716 91.30000000000001137 0 1 -1.110223024625000001e-16 F 0 F 1.799999999999997158 #
DXID-attrib $-1 -1 $-1 $-1 $841 @10 ASM ENTITY @2 23 #
plane-surface $-1 -1 $-1 903.5000000000001137 -40.79999999999999716 93.46000000000000796 -0.7071067811865475727 -7.8504622934139775e-17 -0.7071067811865475727 0.7071067811865476838 -7.8504622934139775e-17 -0.7071067811865476838 forward_v I I I I #
coedge $-1 -1 $-1 $961 $846 $976 $977 reversed $12 $-1 #
edge $-1 -1 $-1 $925 0 $978 7.38999999999998991 $846 $979 forward @7 unknown #
vertex $-1 -1 $-1 $848 $980 #
straight-curve $-1 -1 $-1 951.3800000000001091 -40.79999999999999716 91.30000000000001137 0.7071067811870000996 7.850462293419000326e-17 0.7071067811870000996 F 0 F 5.388153672638045677 #
point $-1 -1 $-1 951.3800000000001091 -40.79999999999999716 91.30000000000001137 #
coedge $-1 -1 $-1 $853 $852 $981 $982 forward $854 $-1 #
face $983 -1 $-1 $862 $854 $4 $-1 $984 forward single #
coedge $-1 -1 $-1 $864 $981 $856 $931 reversed $942 $-1 #
edge $-1 -1 $-1 $868 0 $932 7.000000000000028422 $856 $985 forward @7 unknown #
vertex $-1 -1 $-1 $931 $986 #
straight-curve $-1 -1 $-1 930.9000000000000909 -38.20000000000000284 100.5 0 -1 1.110223024625000001e-16 F 0 F 0.8000000000000007105 #
DXID-attrib $-1 -1 $-1 $-1 $858 @10 ASM ENTITY @2 45 #
plane-surface $-1 -1 $-1 923.8999999999999773 -38.20000000000000284 100.5 0 1.110223024625000001e-16 1 0 -1 1.110223024625000001e-16 forward_v I I I I #
coedge $-1 -1 $-1 $981 $864 $860 $937 forward $942 $-1 #
edge $-1 -1 $-1 $866 0 $938 7.000000000000028422 $860 $987 forward @7 unknown #
vertex $-1 -1 $-1 $982 $988 #
straight-curve $-1 -1 $-1 930.9000000000000909 -38.20000000000000284 107.5 0 -1 1.110223024625000001e-16 F 0 F 0.8000000000000007105 #
DXID-attrib $-1 -1 $-1 $-1 $862 @10 ASM ENTITY @2 47 #
plane-surface $-1 -1 $-1 923.8999999999999773 -38.20000000000000284 107.5 0 1.110223024625000001e-16 1 0 -1 1.110223024625000001e-16 forward_v I I I I #
loop $-1 -1 $-1 $-1 $864 $888 #
straight-curve $-1 -1 $-1 923.8999999999999773 -38.20000000000000284 100.5 0 1.110223024625000001e-16 1 F 0 F 6.999999999999992895 #
point $-1 -1 $-1 923.8999999999999773 -38.20000000000000284 107.5 #
point $-1 -1 $-1 923.8999999999999773 -38.20000000000000284 100.5 #
coedge $-1 -1 $-1 $873 $877 $872 $947 reversed $881 $-1 #
edge $-1 -1 $-1 $875 0 $879 4.599999999999990763 $872 $989 forward @7 unknown #
straight-curve $-1 -1 $-1 906.2999999999999545 -35.39999999999999858 101.7000000000000171 1 0 0 F 0 F 4.100000000000108002 #
point $-1 -1 $-1 910.4000000000000909 -35.39999999999999858 101.7000000000000171 #
straight-curve $-1 -1 $-1 906.2999999999999545 -35.39999999999999858 106.3000000000000114 1 0 0 F 0 F 4.100000000000108002 #
point $-1 -1 $-1 910.4000000000000909 -35.39999999999999858 106.3000000000000114 #
DXID-attrib $-1 -1 $-1 $-1 $888 @10 ASM ENTITY @2 58 #
plane-surface $-1 -1 $-1 923.8999999999999773 -38.20000000000000284 100.5 0 -1 1.110223024625000001e-16 1 0 0 forward_v I I I I #
face $990 -1 $-1 $918 $894 $4 $-1 $991 forward single #
straight-curve $-1 -1 $-1 955.1900000000000546 -40.79999999999999716 95.11000000000001364 0 1 -1.110223024625000001e-16 F 0 F 1.799999999999997158 #
DXID-attrib $-1 -1 $-1 $-1 $900 @10 ASM ENTITY @2 53 #
face $992 -1 $-1 $555 $993 $4 $-1 $994 forward single #
loop $-1 -1 $-1 $-1 $995 $900 #
plane-surface $-1 -1 $-1 955.4500000000001592 -40.79999999999999716 102.5 1 0 0 0 -1 1.110223024625000001e-16 forward_v I I I I #
coedge $-1 -1 $-1 $996 $966 $997 $998 forward $901 $-1 #
coedge $-1 -1 $-1 $903 $923 $999 $1000 forward $12 $-1 #
coedge $-1 -1 $-1 $1001 $997 $903 $963 reversed $909 $-1 #
edge $-1 -1 $-1 $1002 0 $964 2.839999999999918145 $903 $1003 forward @7 unknown #
vertex $-1 -1 $-1 $963 $1004 #
straight-curve $-1 -1 $-1 955.1900000000000546 -40.79999999999999716 95.11000000000001364 0 1.110223024625000001e-16 1 F 10.38999999999999702 F 17.78000000000000469 #
coedge $-1 -1 $-1 $960 $1005 $906 $967 forward $901 $-1 #
edge $-1 -1 $-1 $978 7.38999999999998991 $964 10.38999999999999702 $906 $1006 forward @7 unknown #
DXID-attrib $-1 -1 $-1 $-1 $908 @10 ASM ENTITY @2 19 #
face $1007 -1 $-1 $954 $1008 $4 $-1 $1009 reversed single #
loop $-1 -1 $-1 $-1 $1010 $908 #
plane-surface $-1 -1 $-1 952.3500000000001364 -40.79999999999999716 102.5 1 0 0 0 -1 1.110223024625000001e-16 forward_v I I I I #
point $-1 -1 $-1 918.8999999999999773 -46.70000000000000995 111.3000000000000114 #
straight-curve $-1 -1 $-1 951.3800000000001091 -40.79999999999999716 91.30000000000001137 0 1 -1.110223024625000001e-16 F 0 F 1.799999999999997158 #
DXID-attrib $-1 -1 $-1 $-1 $918 @10 ASM ENTITY @2 22 #
plane-surface $-1 -1 $-1 905.6600000000000819 -40.79999999999999716 91.30000000000001137 0 -1.110223024625000001e-16 -1 1 0 0 forward_v I I I I #
coedge $-1 -1 $-1 $1011 $1012 $923 $977 forward $1008 $-1 #
edge $-1 -1 $-1 $1013 0 $978 2.839999999999918145 $923 $1014 forward @7 unknown #
vertex $-1 -1 $-1 $924 $1015 #
straight-curve $-1 -1 $-1 955.1900000000000546 -40.79999999999999716 95.11000000000001364 0 1.110223024625000001e-16 1 F 0 F 7.38999999999998991 #
point $-1 -1 $-1 955.1900000000000546 -40.79999999999999716 95.11000000000001364 #
coedge $-1 -1 $-1 $930 $936 $928 $982 reversed $942 $-1 #
edge $-1 -1 $-1 $932 0 $938 6.999999999999992895 $928 $1016 forward @7 unknown #
DXID-attrib $-1 -1 $-1 $-1 $929 @10 ASM ENTITY @2 46 #
plane-surface $-1 -1 $-1 930.9000000000000909 -38.20000000000000284 100.5 1 0 0 0 -1 1.110223024625000001e-16 forward_v I I I I #
straight-curve $-1 -1 $-1 923.8999999999999773 -38.20000000000000284 100.5 1 0 0 F 0 F 7.000000000000028422 #
point $-1 -1 $-1 930.9000000000000909 -38.20000000000000284 100.5 #
straight-curve $-1 -1 $-1 923.8999999999999773 -38.20000000000000284 107.5 1 0 0 F 0 F 7.000000000000028422 #
point $-1 -1 $-1 930.9000000000000909 -38.20000000000000284 107.5 #
straight-curve $-1 -1 $-1 910.4000000000000909 -35.39999999999999858 101.7000000000000171 0 1.110223024625000001e-16 1 F 0 F 4.599999999999990763 #
DXID-attrib $-1 -1 $-1 $-1 $954 @10 ASM ENTITY @2 21 #
plane-surface $-1 -1 $-1 951.3800000000001091 -40.79999999999999716 91.30000000000001137 0.7071067811865475727 -7.8504622934139775e-17 -0.7071067811865475727 0.7071067811865476838 7.8504622934139775e-17 0.7071067811865476838 forward_v I I I I #
DXID-attrib $-1 -1 $-1 $-1 $957 @10 ASM ENTITY @2 54 #
loop $-1 -1 $-1 $-1 $1017 $957 #
plane-surface $-1 -1 $-1 952.3500000000001364 -44.56000000000000227 102.5 0 -1 1.110223024625000001e-16 1 0 0 forward_v I I I I #
coedge $-1 -1 $-1 $1018 $1019 $1020 $1021 reversed $958 $-1 #
coedge $-1 -1 $-1 $1005 $960 $1018 $1022 reversed $901 $-1 #
coedge $-1 -1 $-1 $962 $1023 $960 $998 reversed $909 $-1 #
edge $-1 -1 $-1 $964 2.839999999999918145 $1024 3.100000000000022737 $997 $1025 forward @7 unknown #
coedge $-1 -1 $-1 $1010 $1026 $961 $1000 reversed $970 $-1 #
edge $-1 -1 $-1 $1013 0 $1002 3.000000000000007105 $961 $1027 forward @7 unknown #
coedge $-1 -1 $-1 $1028 $962 $1026 $1029 forward $909 $-1 #
vertex $-1 -1 $-1 $1000 $1030 #
straight-curve $-1 -1 $-1 952.3500000000001364 -40.79999999999999716 105.5 1 0 0 F 0 F 2.839999999999918145 #
point $-1 -1 $-1 955.1900000000000546 -40.79999999999999716 105.5 #
coedge $-1 -1 $-1 $966 $996 $1011 $1031 reversed $901 $-1 #
straight-curve $-1 -1 $-1 955.1900000000000546 -40.79999999999999716 95.11000000000001364 0 1.110223024625000001e-16 1 F 7.38999999999998991 F 10.38999999999999702 #
DXID-attrib $-1 -1 $-1 $-1 $969 @10 ASM ENTITY @2 20 #
loop $-1 -1 $-1 $-1 $976 $969 #
plane-surface $-1 -1 $-1 952.3500000000001364 -40.79999999999999716 102.5 0 1.110223024625000001e-16 1 0 -1 1.110223024625000001e-16 forward_v I I I I #
coedge $-1 -1 $-1 $1032 $999 $1012 $1033 forward $970 $-1 #
coedge $-1 -1 $-1 $1020 $976 $1005 $1031 forward $1008 $-1 #
coedge $-1 -1 $-1 $976 $1034 $1010 $1033 reversed $1008 $-1 #
vertex $-1 -1 $-1 $977 $1035 #
straight-curve $-1 -1 $-1 952.3500000000001364 -40.79999999999999716 102.5 1 0 0 F 0 F 2.839999999999918145 #
point $-1 -1 $-1 955.1900000000000546 -40.79999999999999716 102.5 #
straight-curve $-1 -1 $-1 930.9000000000000909 -38.20000000000000284 100.5 0 1.110223024625000001e-16 1 F 0 F 6.999999999999992895 #
coedge $-1 -1 $-1 $1036 $1037 $1032 $1038 reversed $993 $-1 #
coedge $-1 -1 $-1 $1039 $995 $996 $1022 forward $958 $-1 #
coedge $-1 -1 $-1 $995 $1039 $1040 $1041 reversed $958 $-1 #
coedge $-1 -1 $-1 $1034 $1011 $995 $1021 forward $1008 $-1 #
edge $-1 -1 $-1 $1042 0 $1043 3.76000000000000334 $1020 $1044 forward @7 unknown #
edge $-1 -1 $-1 $1042 0 $1024 3.000000000000007105 $996 $1045 forward @7 unknown #
coedge $-1 -1 $-1 $997 $1028 $1039 $1046 reversed $909 $-1 #
vertex $-1 -1 $-1 $1046 $1047 #
straight-curve $-1 -1 $-1 952.3500000000001364 -40.79999999999999716 105.5 1 0 0 F 2.839999999999918145 F 3.100000000000022737 #
coedge $-1 -1 $-1 $999 $1032 $1001 $1029 reversed $970 $-1 #
straight-curve $-1 -1 $-1 952.3500000000001364 -40.79999999999999716 102.5 0 1.110223024625000001e-16 1 F 0 F 3.000000000000007105 #
coedge $-1 -1 $-1 $1023 $1001 $1037 $1048 forward $909 $-1 #
edge $-1 -1 $-1 $1002 0 $1049 3.76000000000000334 $1001 $1050 forward @7 unknown #
point $-1 -1 $-1 952.3500000000001364 -40.79999999999999716 105.5 #
edge $-1 -1 $-1 $978 2.839999999999918145 $1042 3.100000000000022737 $1011 $1051 forward @7 unknown #
coedge $-1 -1 $-1 $1026 $1010 $1017 $1038 forward $970 $-1 #
edge $-1 -1 $-1 $1013 0 $1052 3.76000000000000334 $1010 $1053 forward @7 unknown #
coedge $-1 -1 $-1 $1012 $1020 $1036 $1054 reversed $1008 $-1 #
point $-1 -1 $-1 952.3500000000001364 -40.79999999999999716 102.5 #
coedge $-1 -1 $-1 $1040 $1017 $1034 $1054 forward $993 $-1 #
coedge $-1 -1 $-1 $1017 $1040 $1028 $1048 reversed $993 $-1 #
edge $-1 -1 $-1 $1052 0 $1049 3.000000000000007105 $1032 $1055 forward @7 unknown #
coedge $-1 -1 $-1 $1019 $1018 $1023 $1046 forward $958 $-1 #
coedge $-1 -1 $-1 $1037 $1036 $1019 $1041 forward $993 $-1 #
edge $-1 -1 $-1 $1043 0 $1056 3.000000000000007105 $1019 $1057 forward @7 unknown #
vertex $-1 -1 $-1 $1031 $1058 #
vertex $-1 -1 $-1 $1021 $1059 #
straight-curve $-1 -1 $-1 955.4500000000001592 -40.79999999999999716 102.5 0 -1 1.110223024625000001e-16 F 0 F 3.76000000000000334 #
straight-curve $-1 -1 $-1 955.4500000000001592 -40.79999999999999716 102.5 0 1.110223024625000001e-16 1 F 0 F 3.000000000000007105 #
edge $-1 -1 $-1 $1024 0 $1056 3.76000000000000334 $1023 $1060 forward @7 unknown #
point $-1 -1 $-1 955.4500000000001592 -40.79999999999999716 105.5 #
edge $-1 -1 $-1 $1049 0 $1056 3.100000000000022737 $1028 $1061 forward @7 unknown #
vertex $-1 -1 $-1 $1029 $1062 #
straight-curve $-1 -1 $-1 952.3500000000001364 -40.79999999999999716 105.5 0 -1 1.110223024625000001e-16 F 0 F 3.76000000000000334 #
straight-curve $-1 -1 $-1 952.3500000000001364 -40.79999999999999716 102.5 1 0 0 F 2.839999999999918145 F 3.100000000000022737 #
vertex $-1 -1 $-1 $1033 $1063 #
straight-curve $-1 -1 $-1 952.3500000000001364 -40.79999999999999716 102.5 0 -1 1.110223024625000001e-16 F 0 F 3.76000000000000334 #
edge $-1 -1 $-1 $1052 0 $1043 3.100000000000022737 $1034 $1064 forward @7 unknown #
straight-curve $-1 -1 $-1 952.3500000000001364 -44.56000000000000227 102.5 0 1.110223024625000001e-16 1 F 0 F 3.000000000000007105 #
vertex $-1 -1 $-1 $1048 $1065 #
straight-curve $-1 -1 $-1 955.4500000000001592 -44.56000000000000227 102.5 0 1.110223024625000001e-16 1 F 0 F 3.000000000000007105 #
point $-1 -1 $-1 955.4500000000001592 -40.79999999999999716 102.5 #
point $-1 -1 $-1 955.4500000000001592 -44.56000000000000227 102.5 #
straight-curve $-1 -1 $-1 955.4500000000001592 -40.79999999999999716 105.5 0 -1 1.110223024625000001e-16 F 0 F 3.76000000000000334 #
straight-curve $-1 -1 $-1 952.3500000000001364 -44.56000000000000227 105.5 1 0 0 F 0 F 3.100000000000022737 #
point $-1 -1 $-1 952.3500000000001364 -44.56000000000000227 105.5 #
point $-1 -1 $-1 952.3500000000001364 -44.56000000000000227 102.5 #
straight-curve $-1 -1 $-1 952.3500000000001364 -44.56000000000000227 102.5 1 0 0 F 0 F 3.100000000000022737 #
point $-1 -1 $-1 955.4500000000001592 -44.56000000000000227 105.5 #
End-of-ACIS-data 