700 0 1 0           
30 Autodesk Translation Framework 21 ASM 232.4.0.65535 OSX 24 Fri Sep 18 19:26:46 2026 
1 9.999999999999999547e-07 1.000000000000000036e-10 
body $1 -1 $-1 $2 $-1 $-1 #
rgb_color-st-attrib $-1 -1 $3 $-1 $0 0.627450980392156854 0.627450980392156854 0.627450980392156854 #
lump $-1 -1 $-1 $-1 $4 $0 #
ATTRIB_CUSTOM-attrib $-1 -1 $-1 $1 $0 @20 Timestamp_attrib_def 1 1789756006417112 #
shell $-1 -1 $-1 $-1 $-1 $5 $-1 $2 #
face $6 -1 $-1 $7 $8 $4 $-1 $9 forward single #
DXID-attrib $-1 -1 $-1 $-1 $5 @10 ASM ENTITY @1 0 #
face $10 -1 $-1 $11 $12 $4 $-1 $13 forward single #
loop $-1 -1 $-1 $14 $15 $5 #
cone-surface $-1 -1 $-1 1286 22 77 0 0 1 4.75 0 0 1 I I 0 1 4.75 forward I I I I #
DXID-attrib $-1 -1 $-1 $-1 $7 @10 ASM ENTITY @1 1 #
face $16 -1 $-1 $17 $18 $4 $-1 $19 reversed single #
loop $-1 -1 $-1 $-1 $20 $7 #
plane-surface $-1 -1 $-1 1286 22 114.2999999999999972 0 0 1 1 0 0 forward_v I I I I #
loop $-1 -1 $-1 $-1 $21 $5 #
coedge $-1 -1 $-1 $15 $15 $22 $23 forward $8 $-1 #
DXID-attrib $-1 -1 $-1 $-1 $11 @10 ASM ENTITY @1 2 #
face $24 -1 $-1 $25 $26 $4 $-1 $27 forward single #
loop $-1 -1 $-1 $28 $22 $11 #
plane-surface $-1 -1 $-1 1286 22 77 0 0 1 1 0 0 forward_v I I I I #
coedge $-1 -1 $-1 $20 $20 $21 $29 forward $12 $-1 #
coedge $-1 -1 $-1 $21 $21 $20 $29 reversed $14 $-1 #
coedge $-1 -1 $-1 $22 $22 $15 $23 reversed $18 $-1 #
edge $-1 -1 $-1 $30 0 $30 6.283185307179586232 $15 $31 forward @7 unknown #
DXID-attrib $-1 -1 $-1 $-1 $17 @10 ASM ENTITY @1 3 #
face $32 -1 $-1 $33 $34 $4 $-1 $35 reversed single #
loop $-1 -1 $-1 $36 $37 $17 #
cone-surface $-1 -1 $-1 1286 22 67.30000000000001137 0 0 1 4.599999999999999645 0 0 1 I I 0 1 4.599999999999999645 forward I I I I #
loop $-1 -1 $-1 $-1 $38 $11 #
edge $-1 -1 $-1 $39 0 $39 6.283185307179586232 $21 $40 forward @7 unknown #
vertex $-1 -1 $-1 $23 $41 #
ellipse-curve $-1 -1 $-1 1286 22 77 0 0 1 4.75 0 0 1 I I #
DXID-attrib $-1 -1 $-1 $-1 $25 @10 ASM ENTITY @1 4 #
face $42 -1 $-1 $43 $44 $4 $-1 $45 forward single #
loop $-1 -1 $-1 $46 $47 $25 #
plane-surface $-1 -1 $-1 1286 22 67.30000000000001137 0 0 1 1 0 0 forward_v I I I I #
loop $-1 -1 $-1 $-1 $48 $17 #
coedge $-1 -1 $-1 $37 $37 $47 $49 forward $26 $-1 #
coedge $-1 -1 $-1 $38 $38 $48 $50 forward $28 $-1 #
vertex $-1 -1 $-1 $29 $51 #
ellipse-curve $-1 -1 $-1 1286 22 114.2999999999999972 0 0 1 4.75 0 0 1 I I #
point $-1 -1 $-1 1290.750000000000227 22 77 #
DXID-attrib $-1 -1 $-1 $-1 $33 @10 ASM ENTITY @1 5 #
face $52 -1 $-1 $53 $54 $4 $-1 $55 forward single #
loop $-1 -1 $-1 $56 $57 $33 #
cone-surface $-1 -1 $-1 1286 22 61.99000000000000909 0 0 1 3.149999999999999911 0 0 1 I I 0 1 3.149999999999999911 forward I I I I #
loop $-1 -1 $-1 $-1 $58 $25 #
coedge $-1 -1 $-1 $47 $47 $37 $49 reversed $34 $-1 #
coedge $-1 -1 $-1 $48 $48 $38 $50 reversed $36 $-1 #
edge $-1 -1 $-1 $59 0 $59 6.283185307179586232 $37 $60 forward @7 unknown #
edge $-1 -1 $-1 $61 0 $61 6.283185307179586232 $38 $62 forward @7 unknown #
point $-1 -1 $-1 1290.750000000000227 22 114.2999999999999972 #
DXID-attrib $-1 -1 $-1 $-1 $43 @10 ASM ENTITY @1 6 #
face $63 -1 $-1 $64 $65 $4 $-1 $66 forward single #
loop $-1 -1 $-1 $67 $68 $43 #
plane-surface $-1 -1 $-1 1286 22 67.09999999999999432 0 0 1 1 0 0 forward_v I I I I #
loop $-1 -1 $-1 $-1 $69 $33 #
coedge $-1 -1 $-1 $57 $57 $70 $71 forward $44 $-1 #
coedge $-1 -1 $-1 $58 $58 $69 $72 forward $46 $-1 #
vertex $-1 -1 $-1 $49 $73 #
ellipse-curve $-1 -1 $-1 1286 22 67.30000000000001137 0 0 1 4.599999999999999645 0 0 1 I I #
vertex $-1 -1 $-1 $50 $74 #
ellipse-curve $-1 -1 $-1 1286 22 77 0 0 1 4.599999999999999645 0 0 1 I I #
DXID-attrib $-1 -1 $-1 $-1 $53 @10 ASM ENTITY @1 7 #
face $75 -1 $-1 $76 $77 $4 $-1 $78 reversed single #
loop $-1 -1 $-1 $79 $80 $53 #
cone-surface $-1 -1 $-1 1286 22 64.54999999999999716 0 0 1 4.5 0 0 1 I I 0 1 4.5 forward I I I I #
loop $-1 -1 $-1 $-1 $70 $43 #
coedge $-1 -1 $-1 $68 $68 $81 $82 forward $54 $-1 #
coedge $-1 -1 $-1 $69 $69 $58 $72 reversed $56 $-1 #
coedge $-1 -1 $-1 $70 $70 $57 $71 reversed $67 $-1 #
edge $-1 -1 $-1 $83 0 $83 6.283185307179586232 $57 $84 forward @7 unknown #
edge $-1 -1 $-1 $85 0 $85 6.283185307179586232 $58 $86 forward @7 unknown #
point $-1 -1 $-1 1290.599999999999909 22 67.30000000000001137 #
point $-1 -1 $-1 1290.599999999999909 22 77 #
DXID-attrib $-1 -1 $-1 $-1 $64 @10 ASM ENTITY @1 8 #
face $87 -1 $-1 $88 $89 $4 $-1 $90 forward single #
loop $-1 -1 $-1 $91 $92 $64 #
plane-surface $-1 -1 $-1 1286 22 64.54999999999999716 0 0 1 1 0 0 forward_v I I I I #
loop $-1 -1 $-1 $-1 $81 $53 #
coedge $-1 -1 $-1 $80 $80 $92 $93 forward $65 $-1 #
coedge $-1 -1 $-1 $81 $81 $68 $82 reversed $79 $-1 #
edge $-1 -1 $-1 $94 0 $94 6.283185307179586232 $68 $95 forward @7 unknown #
vertex $-1 -1 $-1 $71 $96 #
ellipse-curve $-1 -1 $-1 1286 22 67.09999999999999432 0 0 1 3.149999999999999911 0 0 1 I I #
vertex $-1 -1 $-1 $72 $97 #
ellipse-curve $-1 -1 $-1 1286 22 67.30000000000001137 0 0 1 3.149999999999999911 0 0 1 I I #
DXID-attrib $-1 -1 $-1 $-1 $76 @10 ASM ENTITY @1 9 #
face $98 -1 $-1 $99 $100 $4 $-1 $101 forward single #
loop $-1 -1 $-1 $102 $103 $76 #
cone-surface $-1 -1 $-1 1286 22 61.99000000000000909 0 0 1 3.149999999999999911 0 0 1 I I 0 1 3.149999999999999911 forward I I I I #
loop $-1 -1 $-1 $-1 $104 $64 #
coedge $-1 -1 $-1 $92 $92 $80 $93 reversed $77 $-1 #
edge $-1 -1 $-1 $105 0 $105 6.283185307179586232 $80 $106 forward @7 unknown #
vertex $-1 -1 $-1 $82 $107 #
ellipse-curve $-1 -1 $-1 1286 22 67.09999999999999432 0 0 1 4.5 0 0 1 I I #
point $-1 -1 $-1 1289.150000000000091 22 67.09999999999999432 #
point $-1 -1 $-1 1289.150000000000091 22 67.30000000000001137 #
DXID-attrib $-1 -1 $-1 $-1 $88 @10 ASM ENTITY @2 10 #
face $108 -1 $-1 $109 $110 $4 $-1 $111 forward single #
loop $-1 -1 $-1 $112 $113 $88 #
plane-surface $-1 -1 $-1 1286 22 62 0 0 1 1 0 0 forward_v I I I I #
loop $-1 -1 $-1 $-1 $114 $76 #
coedge $-1 -1 $-1 $103 $103 $104 $115 reversed $89 $-1 #
coedge $-1 -1 $-1 $104 $104 $103 $115 forward $91 $-1 #
vertex $-1 -1 $-1 $93 $116 #
ellipse-curve $-1 -1 $-1 1286 22 64.54999999999999716 0 0 1 4.5 0 0 1 I I #
point $-1 -1 $-1 1290.5 22 67.09999999999999432 #
DXID-attrib $-1 -1 $-1 $-1 $99 @10 ASM ENTITY @2 11 #
face $117 -1 $-1 $118 $119 $4 $-1 $120 reversed single #
loop $-1 -1 $-1 $121 $122 $99 #
cone-surface $-1 -1 $-1 1286 22 60 0 0 1 4.299999999999999822 0 0 1 I I 0 1 4.299999999999999822 forward I I I I #
loop $-1 -1 $-1 $-1 $123 $88 #
coedge $-1 -1 $-1 $113 $113 $124 $125 forward $100 $-1 #
coedge $-1 -1 $-1 $114 $114 $123 $126 forward $102 $-1 #
edge $-1 -1 $-1 $127 0 $127 6.283185307179586232 $104 $128 forward @7 unknown #
point $-1 -1 $-1 1290.5 22 64.54999999999999716 #
DXID-attrib $-1 -1 $-1 $-1 $109 @10 ASM ENTITY @2 12 #
face $129 -1 $-1 $130 $131 $4 $-1 $132 forward single #
loop $-1 -1 $-1 $133 $134 $109 #
plane-surface $-1 -1 $-1 1286 22 60 0 0 1 1 0 0 forward_v I I I I #
loop $-1 -1 $-1 $-1 $124 $99 #
coedge $-1 -1 $-1 $122 $122 $134 $135 forward $110 $-1 #
coedge $-1 -1 $-1 $123 $123 $114 $126 reversed $112 $-1 #
coedge $-1 -1 $-1 $124 $124 $113 $125 reversed $121 $-1 #
edge $-1 -1 $-1 $136 0 $136 6.283185307179586232 $113 $137 forward @7 unknown #
edge $-1 -1 $-1 $138 0 $138 6.283185307179586232 $114 $139 forward @7 unknown #
vertex $-1 -1 $-1 $115 $140 #
ellipse-curve $-1 -1 $-1 1286 22 64.54999999999999716 0 0 1 3.149999999999999911 0 0 1 I I #
DXID-attrib $-1 -1 $-1 $-1 $118 @10 ASM ENTITY @2 13 #
face $141 -1 $-1 $-1 $142 $4 $-1 $143 reversed single #
loop $-1 -1 $-1 $144 $145 $118 #
cone-surface $-1 -1 $-1 1286 22 47 0 0 1 3.000000000000000444 0 0 1 I I 0 1 3.000000000000000444 forward I I I I #
loop $-1 -1 $-1 $-1 $146 $109 #
coedge $-1 -1 $-1 $134 $134 $122 $135 reversed $119 $-1 #
edge $-1 -1 $-1 $147 0 $147 6.283185307179586232 $122 $148 forward @7 unknown #
vertex $-1 -1 $-1 $125 $149 #
ellipse-curve $-1 -1 $-1 1286 22 62 0 0 1 4.299999999999999822 0 0 1 I I #
vertex $-1 -1 $-1 $126 $150 #
ellipse-curve $-1 -1 $-1 1286 22 62 0 0 1 3.149999999999999911 0 0 1 I I #
point $-1 -1 $-1 1289.150000000000091 22 64.54999999999999716 #
DXID-attrib $-1 -1 $-1 $-1 $130 @10 ASM ENTITY @2 14 #
loop $-1 -1 $-1 $-1 $151 $130 #
plane-surface $-1 -1 $-1 1286 22 47 0 0 1 1 0 0 forward_v I I I I #
loop $-1 -1 $-1 $-1 $152 $118 #
coedge $-1 -1 $-1 $145 $145 $151 $153 forward $131 $-1 #
coedge $-1 -1 $-1 $146 $146 $152 $154 forward $133 $-1 #
vertex $-1 -1 $-1 $135 $155 #
ellipse-curve $-1 -1 $-1 1286 22 60 0 0 1 4.299999999999999822 0 0 1 I I #
point $-1 -1 $-1 1290.299999999999955 22 62 #
point $-1 -1 $-1 1289.150000000000091 22 62 #
coedge $-1 -1 $-1 $151 $151 $145 $153 reversed $142 $-1 #
coedge $-1 -1 $-1 $152 $152 $146 $154 reversed $144 $-1 #
edge $-1 -1 $-1 $156 0 $156 6.283185307179586232 $145 $157 forward @7 unknown #
edge $-1 -1 $-1 $158 0 $158 6.283185307179586232 $146 $159 forward @7 unknown #
point $-1 -1 $-1 1290.299999999999955 22 60 #
vertex $-1 -1 $-1 $153 $160 #
ellipse-curve $-1 -1 $-1 1286 22 47 0 0 1 3.000000000000000444 0 0 1 I I #
vertex $-1 -1 $-1 $154 $161 #
ellipse-curve $-1 -1 $-1 1286 22 60 0 0 1 3.000000000000000444 0 0 1 I I #
point $-1 -1 $-1 1289 22 47 #
point $-1 -1 $-1 1289 22 60 #
End-of-ACIS-data 