700 0 1 0           
30 Autodesk Translation Framework 21 ASM 232.4.0.65535 OSX 24 Fri Sep 18 16:41:02 2026 
1 9.999999999999999547e-07 1.000000000000000036e-10 
body $1 -1 $-1 $2 $-1 $-1 #
rgb_color-st-attrib $-1 -1 $3 $-1 $0 0.627450980392156854 0.627450980392156854 0.627450980392156854 #
lump $-1 -1 $-1 $-1 $4 $0 #
ATTRIB_CUSTOM-attrib $-1 -1 $-1 $1 $0 @20 Timestamp_attrib_def 1 1789746062389047 #
shell $-1 -1 $-1 $-1 $-1 $5 $-1 $2 #
face $6 -1 $-1 $7 $8 $4 $-1 $9 reversed single #
DXID-attrib $-1 -1 $-1 $-1 $5 @10 ASM ENTITY @1 0 #
face $10 -1 $-1 $11 $12 $4 $-1 $13 reversed single #
loop $-1 -1 $-1 $14 $15 $5 #
plane-surface $-1 -1 $-1 1116.5 34.5 0.4500000000000000666 0 0 1 1 0 0 forward_v I I I I #
DXID-attrib $-1 -1 $-1 $-1 $7 @10 ASM ENTITY @1 1 #
face $16 -1 $-1 $17 $18 $4 $-1 $19 reversed single #
loop $-1 -1 $-1 $-1 $20 $7 #
plane-surface $-1 -1 $-1 1113.900000000000091 34.5 3.049999999999999822 0.7071067811865475727 0 0.7071067811865475727 0.7071067811865476838 0 -0.7071067811865476838 forward_v I I I I #
loop $-1 -1 $-1 $-1 $21 $5 #
coedge $-1 -1 $-1 $22 $23 $24 $25 reversed $8 $-1 #
DXID-attrib $-1 -1 $-1 $-1 $11 @10 ASM ENTITY @1 2 #
face $26 -1 $-1 $27 $28 $4 $-1 $29 forward single #
loop $-1 -1 $-1 $-1 $30 $11 #
plane-surface $-1 -1 $-1 1130 34.5 1.851571792652999981 -0 -1 -0 0 0 -1 forward_v I I I I #
coedge $-1 -1 $-1 $31 $32 $33 $34 reversed $12 $-1 #
coedge $-1 -1 $-1 $35 $36 $37 $38 reversed $14 $-1 #
coedge $-1 -1 $-1 $39 $15 $40 $41 forward $8 $-1 #
coedge $-1 -1 $-1 $15 $39 $42 $43 reversed $8 $-1 #
coedge $-1 -1 $-1 $32 $31 $15 $25 forward $12 $-1 #
edge $-1 -1 $-1 $44 0 $45 27.89999999999999858 $15 $46 forward @7 unknown #
DXID-attrib $-1 -1 $-1 $-1 $17 @10 ASM ENTITY @1 3 #
face $47 -1 $-1 $48 $49 $4 $-1 $50 reversed single #
loop $-1 -1 $-1 $-1 $42 $17 #
plane-surface $-1 -1 $-1 1130 6.600000000000000533 1.851571792652999981 -0 -1 -0 0 0 -1 forward_v I I I I #
coedge $-1 -1 $-1 $51 $40 $31 $52 reversed $18 $-1 #
coedge $-1 -1 $-1 $24 $20 $30 $52 forward $12 $-1 #
coedge $-1 -1 $-1 $20 $24 $53 $54 reversed $12 $-1 #
coedge $-1 -1 $-1 $55 $56 $20 $34 forward $57 $-1 #
edge $-1 -1 $-1 $58 0 $59 27.89999999999999858 $20 $60 forward @7 unknown #
coedge $-1 -1 $-1 $61 $21 $62 $63 forward $14 $-1 #
coedge $-1 -1 $-1 $21 $61 $64 $65 reversed $14 $-1 #
coedge $-1 -1 $-1 $66 $67 $21 $38 forward $68 $-1 #
edge $-1 -1 $-1 $69 -26.25 $70 -0.2499999999999147349 $21 $71 forward @7 unknown #
coedge $-1 -1 $-1 $23 $22 $72 $73 forward $8 $-1 #
coedge $-1 -1 $-1 $30 $74 $22 $41 reversed $18 $-1 #
edge $-1 -1 $-1 $44 0 $75 27.00000000000002842 $22 $76 forward @7 unknown #
coedge $-1 -1 $-1 $77 $53 $23 $43 forward $28 $-1 #
edge $-1 -1 $-1 $45 0 $78 27.00000000000002842 $23 $79 forward @7 unknown #
vertex $-1 -1 $-1 $25 $80 #
vertex $-1 -1 $-1 $25 $81 #
straight-curve $-1 -1 $-1 1116.5 34.5 0.4500000000000000666 0 -1 0 F 0 F 27.89999999999999858 #
DXID-attrib $-1 -1 $-1 $-1 $27 @10 ASM ENTITY @1 4 #
face $82 -1 $-1 $83 $68 $4 $-1 $84 reversed single #
loop $-1 -1 $-1 $-1 $72 $27 #
plane-surface $-1 -1 $-1 1143.5 34.5 0.4500000000000000666 -0.7071067811865475727 0 0.7071067811865475727 0.7071067811865476838 0 0.7071067811865476838 forward_v I I I I #
coedge $-1 -1 $-1 $85 $30 $56 $86 reversed $18 $-1 #
edge $-1 -1 $-1 $58 0 $44 3.676955262167628913 $31 $87 forward @7 unknown #
coedge $-1 -1 $-1 $42 $88 $32 $54 forward $28 $-1 #
edge $-1 -1 $-1 $59 0 $45 3.676955262167628913 $32 $89 forward @7 unknown #
coedge $-1 -1 $-1 $90 $33 $88 $91 reversed $57 $-1 #
coedge $-1 -1 $-1 $33 $92 $51 $86 forward $57 $-1 #
loop $-1 -1 $-1 $-1 $93 $94 #
vertex $-1 -1 $-1 $34 $95 #
vertex $-1 -1 $-1 $34 $96 #
straight-curve $-1 -1 $-1 1113.900000000000091 34.5 3.049999999999999822 0 -1 0 F 0 F 27.89999999999999858 #
coedge $-1 -1 $-1 $36 $35 $97 $98 forward $14 $-1 #
coedge $-1 -1 $-1 $99 $100 $35 $63 reversed $101 $-1 #
edge $-1 -1 $-1 $69 -5.249999999999999112 $102 4.750000000000000888 $35 $103 forward @7 unknown #
coedge $-1 -1 $-1 $104 $105 $36 $65 forward $106 $-1 #
edge $-1 -1 $-1 $70 -5.249999999999999112 $107 4.750000000000000888 $36 $108 forward @7 unknown #
coedge $-1 -1 $-1 $109 $37 $105 $110 reversed $68 $-1 #
coedge $-1 -1 $-1 $37 $111 $99 $112 forward $68 $-1 #
loop $-1 -1 $-1 $-1 $67 $48 #
vertex $-1 -1 $-1 $38 $113 #
vertex $-1 -1 $-1 $38 $114 #
straight-curve $-1 -1 $-1 1116.75 24.00000000000000355 0.4500000000000000666 -1 0 0 F -26.25 F -0.2499999999999147349 #
coedge $-1 -1 $-1 $115 $116 $39 $73 reversed $49 $-1 #
edge $-1 -1 $-1 $75 0 $78 27.89999999999999858 $39 $117 forward @7 unknown #
coedge $-1 -1 $-1 $40 $118 $115 $119 reversed $18 $-1 #
vertex $-1 -1 $-1 $41 $120 #
straight-curve $-1 -1 $-1 1116.5 34.5 0.4500000000000000666 1 0 0 F 0 F 27.00000000000002842 #
coedge $-1 -1 $-1 $88 $42 $116 $121 forward $28 $-1 #
vertex $-1 -1 $-1 $73 $122 #
straight-curve $-1 -1 $-1 1116.5 6.600000000000000533 0.4500000000000000666 1 0 0 F 0 F 27.00000000000002842 #
point $-1 -1 $-1 1116.5 34.5 0.4500000000000000666 #
point $-1 -1 $-1 1116.5 6.600000000000000533 0.4500000000000000666 #
DXID-attrib $-1 -1 $-1 $-1 $48 @10 ASM ENTITY @1 5 #
face $123 -1 $-1 $124 $101 $4 $-1 $125 forward single #
plane-surface $-1 -1 $-1 1117 24.00000000000000355 -30.01000000000000512 0 1 0 0 0 1 forward_v I I I I #
coedge $-1 -1 $-1 $126 $51 $127 $128 reversed $18 $-1 #
edge $-1 -1 $-1 $129 19.09999999999996589 $58 32.19999999999984652 $51 $130 forward @7 unknown #
straight-curve $-1 -1 $-1 1113.900000000000091 34.5 3.049999999999999822 0.7071067811870000996 0 -0.7071067811870000996 F 0 F 3.676955262167628913 #
coedge $-1 -1 $-1 $53 $77 $55 $91 forward $28 $-1 #
straight-curve $-1 -1 $-1 1113.900000000000091 6.600000000000000533 3.049999999999999822 0.7071067811870000996 0 -0.7071067811870000996 F 0 F 3.676955262167628913 #
coedge $-1 -1 $-1 $93 $55 $131 $132 reversed $57 $-1 #
edge $-1 -1 $-1 $133 0 $59 32.19999999999984652 $88 $134 forward @7 unknown #
coedge $-1 -1 $-1 $56 $135 $136 $137 forward $57 $-1 #
coedge $-1 -1 $-1 $138 $90 $118 $139 forward $57 $-1 #
face $140 -1 $-1 $141 $57 $4 $-1 $142 reversed single #
point $-1 -1 $-1 1113.900000000000091 34.5 3.049999999999999822 #
point $-1 -1 $-1 1113.900000000000091 6.600000000000000533 3.049999999999999822 #
coedge $-1 -1 $-1 $143 $144 $61 $98 reversed $145 $-1 #
edge $-1 -1 $-1 $102 -26.25 $107 -0.2499999999999147349 $61 $146 forward @7 unknown #
coedge $-1 -1 $-1 $147 $62 $67 $112 reversed $101 $-1 #
coedge $-1 -1 $-1 $62 $148 $143 $149 forward $101 $-1 #
loop $-1 -1 $-1 $-1 $99 $83 #
vertex $-1 -1 $-1 $63 $150 #
straight-curve $-1 -1 $-1 1143 29.25000000000000355 0.4500000000000000666 0 1 0 F -5.249999999999999112 F 4.750000000000000888 #
coedge $-1 -1 $-1 $151 $64 $144 $152 reversed $106 $-1 #
coedge $-1 -1 $-1 $64 $153 $66 $110 forward $106 $-1 #
loop $-1 -1 $-1 $-1 $105 $154 #
vertex $-1 -1 $-1 $98 $155 #
straight-curve $-1 -1 $-1 1117 29.25000000000000355 0.4500000000000000666 0 1 0 F -5.249999999999999112 F 4.750000000000000888 #
coedge $-1 -1 $-1 $156 $66 $157 $158 forward $68 $-1 #
edge $-1 -1 $-1 $159 8.000000000000001776 $70 30.46000000000000085 $66 $160 forward @7 unknown #
coedge $-1 -1 $-1 $67 $161 $162 $163 forward $68 $-1 #
edge $-1 -1 $-1 $164 8.000000000000001776 $69 30.46000000000000085 $67 $165 forward @7 unknown #
point $-1 -1 $-1 1143 24.00000000000000355 0.4500000000000000666 #
point $-1 -1 $-1 1117 24.00000000000000355 0.4500000000000000666 #
coedge $-1 -1 $-1 $131 $72 $74 $119 forward $49 $-1 #
coedge $-1 -1 $-1 $72 $131 $77 $121 reversed $49 $-1 #
straight-curve $-1 -1 $-1 1143.5 34.5 0.4500000000000000666 0 -1 0 F 0 F 27.89999999999999858 #
coedge $-1 -1 $-1 $74 $166 $93 $139 reversed $18 $-1 #
edge $-1 -1 $-1 $75 0 $167 3.676955262167628913 $74 $168 forward @7 unknown #
point $-1 -1 $-1 1143.5 34.5 0.4500000000000000666 #
edge $-1 -1 $-1 $78 0 $133 3.676955262167628913 $77 $169 forward @7 unknown #
point $-1 -1 $-1 1143.5 6.600000000000000533 0.4500000000000000666 #
DXID-attrib $-1 -1 $-1 $-1 $83 @10 ASM ENTITY @1 6 #
face $170 -1 $-1 $154 $145 $4 $-1 $171 forward single #
plane-surface $-1 -1 $-1 1143 24.00000000000000355 -30.01000000000000512 1 0 0 0 0 1 forward_v I I I I #
coedge $-1 -1 $-1 $166 $85 $172 $173 reversed $18 $-1 #
coedge $-1 -1 $-1 $136 $174 $85 $128 forward $175 $-1 #
edge $-1 -1 $-1 $176 -0.1507858963260000351 $129 1.349214103673999521 $85 $177 forward @7 unknown #
vertex $-1 -1 $-1 $86 $178 #
straight-curve $-1 -1 $-1 1146.099999999999909 34.5 3.049999999999999822 -1 0 0 F 19.09999999999996589 F 32.19999999999984652 #
coedge $-1 -1 $-1 $116 $115 $90 $132 forward $49 $-1 #
edge $-1 -1 $-1 $167 0 $133 27.89999999999999858 $131 $179 forward @7 unknown #
vertex $-1 -1 $-1 $121 $180 #
straight-curve $-1 -1 $-1 1146.099999999999909 6.600000000000000533 3.049999999999999822 -1 0 0 F 0 F 32.19999999999984652 #
coedge $-1 -1 $-1 $92 $138 $181 $182 reversed $57 $-1 #
coedge $-1 -1 $-1 $183 $127 $92 $137 reversed $175 $-1 #
edge $-1 -1 $-1 $184 0 $129 27.5 $92 $185 forward @7 unknown #
coedge $-1 -1 $-1 $135 $93 $186 $187 forward $57 $-1 #
edge $-1 -1 $-1 $167 0 $188 13.09999999999988063 $118 $189 forward @7 unknown #
DXID-attrib $-1 -1 $-1 $-1 $94 @10 ASM ENTITY @1 9 #
face $190 -1 $-1 $191 $175 $4 $-1 $192 forward single #
plane-surface $-1 -1 $-1 1146.099999999999909 34.5 3.049999999999999822 -0 -0 -1 -1 0 0 forward_v I I I I #
coedge $-1 -1 $-1 $193 $97 $100 $149 reversed $145 $-1 #
coedge $-1 -1 $-1 $97 $193 $104 $152 forward $145 $-1 #
loop $-1 -1 $-1 $194 $143 $124 #
straight-curve $-1 -1 $-1 1116.75 34 0.4500000000000000666 -1 0 0 F -26.25 F -0.2499999999999147349 #
coedge $-1 -1 $-1 $195 $99 $196 $197 reversed $101 $-1 #
coedge $-1 -1 $-1 $100 $198 $199 $200 forward $101 $-1 #
edge $-1 -1 $-1 $201 0 $102 40.44999999999999574 $100 $202 forward @7 unknown #
point $-1 -1 $-1 1143 34 0.4500000000000000666 #
coedge $-1 -1 $-1 $203 $104 $204 $205 forward $106 $-1 #
edge $-1 -1 $-1 $206 0 $107 40.44999999999999574 $144 $207 forward @7 unknown #
coedge $-1 -1 $-1 $105 $208 $209 $210 forward $106 $-1 #
face $211 -1 $-1 $94 $106 $4 $-1 $212 reversed single #
point $-1 -1 $-1 1117 34 0.4500000000000000666 #
coedge $-1 -1 $-1 $213 $109 $214 $215 reversed $68 $-1 #
coedge $-1 -1 $-1 $209 $216 $109 $158 reversed $217 $-1 #
edge $-1 -1 $-1 $159 0 $218 2.000000000000028422 $109 $219 forward @7 unknown #
vertex $-1 -1 $-1 $110 $220 #
straight-curve $-1 -1 $-1 1117 24.00000000000000355 -30.01000000000000512 0 0 1 F 8.000000000000001776 F 30.46000000000000085 #
coedge $-1 -1 $-1 $111 $213 $221 $222 forward $68 $-1 #
coedge $-1 -1 $-1 $223 $196 $111 $163 reversed $224 $-1 #
edge $-1 -1 $-1 $225 12.00000000000002842 $164 14.00000000000005684 $111 $226 forward @7 unknown #
vertex $-1 -1 $-1 $112 $227 #
straight-curve $-1 -1 $-1 1143 24.00000000000000355 -30.01000000000000512 0 0 1 F 8.000000000000001776 F 30.46000000000000085 #
coedge $-1 -1 $-1 $118 $126 $228 $229 forward $18 $-1 #
vertex $-1 -1 $-1 $139 $230 #
straight-curve $-1 -1 $-1 1143.5 34.5 0.4500000000000000666 0.7071067811870000996 0 0.7071067811870000996 F 0 F 3.676955262167628913 #
straight-curve $-1 -1 $-1 1143.5 6.600000000000000533 0.4500000000000000666 0.7071067811870000996 0 0.7071067811870000996 F 0 F 3.676955262167628913 #
DXID-attrib $-1 -1 $-1 $-1 $124 @10 ASM ENTITY @1 7 #
plane-surface $-1 -1 $-1 1117 34 -30.01000000000000512 0 1 0 0 0 1 forward_v I I I I #
coedge $-1 -1 $-1 $231 $232 $126 $173 forward $233 $-1 #
edge $-1 -1 $-1 $234 -4.500000000000028422 $176 1.500000000000056843 $126 $235 forward @7 unknown #
coedge $-1 -1 $-1 $127 $236 $231 $237 forward $175 $-1 #
loop $-1 -1 $-1 $-1 $136 $141 #
vertex $-1 -1 $-1 $128 $238 #
straight-curve $-1 -1 $-1 1127 34.5 1.700785896326000302 0 0 1 F -0.1507858963260000351 F 1.349214103673999521 #
point $-1 -1 $-1 1127 34.5 3.049999999999999822 #
straight-curve $-1 -1 $-1 1146.099999999999909 34.5 3.049999999999999822 0 -1 0 F 0 F 27.89999999999999858 #
point $-1 -1 $-1 1146.099999999999909 6.600000000000000533 3.049999999999999822 #
coedge $-1 -1 $-1 $239 $240 $135 $182 forward $241 $-1 #
edge $-1 -1 $-1 $184 -9.549999999999982947 $242 -3.549999999999897682 $135 $243 forward @7 unknown #
coedge $-1 -1 $-1 $244 $136 $240 $245 reversed $175 $-1 #
vertex $-1 -1 $-1 $182 $246 #
straight-curve $-1 -1 $-1 1127 7.000000000000000888 3.049999999999999822 0 1 0 F 0 F 27.5 #
coedge $-1 -1 $-1 $228 $247 $138 $187 reversed $248 $-1 #
edge $-1 -1 $-1 $188 0 $242 27.5 $138 $249 forward @7 unknown #
vertex $-1 -1 $-1 $229 $250 #
straight-curve $-1 -1 $-1 1146.099999999999909 34.5 3.049999999999999822 -1 0 0 F 0 F 13.09999999999988063 #
DXID-attrib $-1 -1 $-1 $-1 $141 @10 ASM ENTITY @2 10 #
face $251 -1 $-1 $252 $233 $4 $-1 $253 forward single #
plane-surface $-1 -1 $-1 1127 7.000000000000000888 1.550000000000000266 1 0 0 0 0 1 forward_v I I I I #
coedge $-1 -1 $-1 $144 $143 $254 $255 reversed $145 $-1 #
loop $-1 -1 $-1 $-1 $256 $124 #
coedge $-1 -1 $-1 $257 $147 $258 $259 reversed $101 $-1 #
coedge $-1 -1 $-1 $162 $260 $147 $197 forward $224 $-1 #
edge $-1 -1 $-1 $261 0.01414213562372504916 $164 11.31370849897752073 $147 $262 forward @7 unknown #
coedge $-1 -1 $-1 $148 $263 $264 $265 forward $101 $-1 #
coedge $-1 -1 $-1 $266 $254 $148 $200 reversed $267 $-1 #
edge $-1 -1 $-1 $268 0 $201 59 $148 $269 forward @7 unknown #
vertex $-1 -1 $-1 $200 $270 #
straight-curve $-1 -1 $-1 1143 34 -40 0 0 1 F 0 F 40.44999999999999574 #
coedge $-1 -1 $-1 $271 $151 $272 $273 forward $106 $-1 #
coedge $-1 -1 $-1 $254 $266 $151 $205 reversed $267 $-1 #
edge $-1 -1 $-1 $206 0 $274 59 $151 $275 forward @7 unknown #
vertex $-1 -1 $-1 $255 $276 #
straight-curve $-1 -1 $-1 1117 34 -40 0 0 1 F 0 F 40.44999999999999574 #
coedge $-1 -1 $-1 $153 $277 $278 $279 forward $106 $-1 #
coedge $-1 -1 $-1 $280 $157 $153 $210 reversed $217 $-1 #
edge $-1 -1 $-1 $281 0.01414213562372504916 $159 11.31370849897752073 $153 $282 forward @7 unknown #
DXID-attrib $-1 -1 $-1 $-1 $154 @10 ASM ENTITY @1 8 #
plane-surface $-1 -1 $-1 1117 24.00000000000000355 -30.01000000000000512 1 0 0 0 0 1 forward_v I I I I #
coedge $-1 -1 $-1 $161 $156 $283 $284 forward $68 $-1 #
coedge $-1 -1 $-1 $285 $286 $156 $215 forward $287 $-1 #
edge $-1 -1 $-1 $288 -1.405981329329999419 $218 6.584018670669999906 $156 $289 forward @7 unknown #
coedge $-1 -1 $-1 $157 $280 $285 $290 forward $217 $-1 #
loop $-1 -1 $-1 $-1 $209 $291 #
vertex $-1 -1 $-1 $158 $292 #
straight-curve $-1 -1 $-1 1117 24.00000000000000355 -22.01000000000000156 1 0 0 F 0 F 2.000000000000028422 #
point $-1 -1 $-1 1117 24.00000000000000355 -22.01000000000000156 #
coedge $-1 -1 $-1 $293 $294 $161 $222 reversed $295 $-1 #
edge $-1 -1 $-1 $296 -1.405981329329999419 $225 6.584018670669999906 $161 $297 forward @7 unknown #
coedge $-1 -1 $-1 $260 $162 $294 $298 reversed $224 $-1 #
loop $-1 -1 $-1 $-1 $223 $299 #
vertex $-1 -1 $-1 $222 $300 #
straight-curve $-1 -1 $-1 1129 24.00000000000000355 -22.01000000000000156 1 0 0 F 12.00000000000002842 F 14.00000000000005684 #
point $-1 -1 $-1 1143 24.00000000000000355 -22.01000000000000156 #
coedge $-1 -1 $-1 $301 $186 $166 $229 reversed $248 $-1 #
edge $-1 -1 $-1 $234 -0.1507858963260000351 $188 1.349214103673999521 $166 $302 forward @7 unknown #
point $-1 -1 $-1 1146.099999999999909 34.5 3.049999999999999822 #
coedge $-1 -1 $-1 $303 $172 $174 $237 reversed $233 $-1 #
coedge $-1 -1 $-1 $172 $303 $301 $304 forward $233 $-1 #
loop $-1 -1 $-1 $-1 $231 $191 #
vertex $-1 -1 $-1 $173 $305 #
straight-curve $-1 -1 $-1 1128.5 34.5 1.550000000000000266 -1 0 0 F -4.500000000000028422 F 1.500000000000056843 #
coedge $-1 -1 $-1 $174 $306 $307 $308 forward $175 $-1 #
edge $-1 -1 $-1 $309 24.5 $176 27.5 $174 $310 forward @7 unknown #
point $-1 -1 $-1 1127 34.5 1.550000000000000266 #
coedge $-1 -1 $-1 $311 $181 $247 $312 reversed $241 $-1 #
coedge $-1 -1 $-1 $181 $311 $183 $245 forward $241 $-1 #
loop $-1 -1 $-1 $-1 $239 $313 #
vertex $-1 -1 $-1 $187 $314 #
straight-curve $-1 -1 $-1 1136.549999999999955 7.000000000000000888 3.049999999999999822 1 0 0 F -9.549999999999982947 F -3.549999999999897682 #
coedge $-1 -1 $-1 $315 $183 $316 $317 forward $175 $-1 #
edge $-1 -1 $-1 $318 0 $184 1.499999999999999556 $183 $319 forward @7 unknown #
point $-1 -1 $-1 1127 7.000000000000000888 3.049999999999999822 #
coedge $-1 -1 $-1 $186 $320 $239 $312 forward $248 $-1 #
loop $-1 -1 $-1 $-1 $186 $252 #
straight-curve $-1 -1 $-1 1133 34.5 3.049999999999999822 0 -1 0 F 0 F 27.5 #
point $-1 -1 $-1 1133 34.5 3.049999999999999822 #
DXID-attrib $-1 -1 $-1 $-1 $191 @10 ASM ENTITY @2 11 #
face $321 -1 $-1 $291 $248 $4 $-1 $322 reversed single #
plane-surface $-1 -1 $-1 1127 7.000000000000000888 1.550000000000000266 0 0 1 1 0 0 forward_v I I I I #
coedge $-1 -1 $-1 $199 $204 $193 $255 forward $267 $-1 #
edge $-1 -1 $-1 $206 0 $201 26.00000000000008527 $193 $323 forward @7 unknown #
coedge $-1 -1 $-1 $324 $325 $326 $327 forward $194 $-1 #
coedge $-1 -1 $-1 $328 $195 $329 $330 reversed $101 $-1 #
coedge $-1 -1 $-1 $331 $332 $195 $259 forward $333 $-1 #
edge $-1 -1 $-1 $334 30.49999999999999645 $261 41.00999999999999801 $195 $335 forward @7 unknown #
coedge $-1 -1 $-1 $196 $223 $331 $336 forward $224 $-1 #
vertex $-1 -1 $-1 $197 $337 #
straight-curve $-1 -1 $-1 1143 16 -30.01000000000000512 0 0.7071067811870000996 0.7071067811870000996 F 0.01414213562372504916 F 11.31370849897752073 #
coedge $-1 -1 $-1 $198 $338 $339 $340 reversed $101 $-1 #
coedge $-1 -1 $-1 $341 $342 $198 $265 reversed $343 $-1 #
edge $-1 -1 $-1 $344 0 $268 30 $198 $345 forward @7 unknown #
coedge $-1 -1 $-1 $204 $199 $342 $346 reversed $267 $-1 #
loop $-1 -1 $-1 $-1 $204 $347 #
vertex $-1 -1 $-1 $265 $348 #
straight-curve $-1 -1 $-1 1143 -25 -40 0 1 0 F 0 F 59 #
point $-1 -1 $-1 1143 34 -40 #
coedge $-1 -1 $-1 $349 $203 $350 $351 forward $106 $-1 #
coedge $-1 -1 $-1 $342 $341 $203 $273 reversed $343 $-1 #
edge $-1 -1 $-1 $274 0 $352 30 $203 $353 forward @7 unknown #
vertex $-1 -1 $-1 $205 $354 #
straight-curve $-1 -1 $-1 1117 34 -40 0 -1 0 F 0 F 59 #
point $-1 -1 $-1 1117 34 -40 #
coedge $-1 -1 $-1 $208 $355 $356 $357 forward $106 $-1 #
coedge $-1 -1 $-1 $332 $358 $208 $279 reversed $333 $-1 #
edge $-1 -1 $-1 $359 30.49999999999999645 $281 41.00999999999999801 $208 $360 forward @7 unknown #
coedge $-1 -1 $-1 $216 $209 $358 $361 forward $217 $-1 #
vertex $-1 -1 $-1 $279 $362 #
straight-curve $-1 -1 $-1 1117 16 -30.01000000000000512 0 0.7071067811870000996 0.7071067811870000996 F 0.01414213562372504916 F 11.31370849897752073 #
coedge $-1 -1 $-1 $363 $364 $213 $284 reversed $333 $-1 #
edge $-1 -1 $-1 $288 2.000000000000028422 $296 24.00000000000005684 $213 $365 forward @7 unknown #
coedge $-1 -1 $-1 $286 $214 $216 $290 reversed $287 $-1 #
coedge $-1 -1 $-1 $214 $285 $363 $366 reversed $287 $-1 #
loop $-1 -1 $-1 $-1 $286 $367 #
vertex $-1 -1 $-1 $215 $368 #
straight-curve $-1 -1 $-1 1119 24.00000000000000355 -28.59401867066999969 0 0 1 F -1.405981329329999419 F 6.584018670669999906 #
edge $-1 -1 $-1 $369 0.01414213562372504916 $218 11.31370849897752073 $216 $370 forward @7 unknown #
face $371 -1 $-1 $367 $217 $4 $-1 $372 forward single #
point $-1 -1 $-1 1119 24.00000000000000355 -22.01000000000000156 #
coedge $-1 -1 $-1 $294 $221 $364 $373 forward $295 $-1 #
coedge $-1 -1 $-1 $221 $293 $223 $298 forward $295 $-1 #
loop $-1 -1 $-1 $-1 $293 $374 #
vertex $-1 -1 $-1 $284 $375 #
straight-curve $-1 -1 $-1 1141 24.00000000000000355 -28.59401867066999969 0 0 1 F -1.405981329329999419 F 6.584018670669999906 #
edge $-1 -1 $-1 $376 0.01414213562372504916 $225 11.31370849897752073 $294 $377 forward @7 unknown #
face $378 -1 $-1 $347 $224 $4 $-1 $379 forward single #
point $-1 -1 $-1 1141 24.00000000000000355 -22.01000000000000156 #
coedge $-1 -1 $-1 $380 $228 $232 $304 reversed $248 $-1 #
straight-curve $-1 -1 $-1 1133 34.5 1.700785896326000302 0 0 1 F -0.1507858963260000351 F 1.349214103673999521 #
coedge $-1 -1 $-1 $232 $231 $381 $382 forward $233 $-1 #
edge $-1 -1 $-1 $383 24.5 $234 27.5 $232 $384 forward @7 unknown #
point $-1 -1 $-1 1133 34.5 1.550000000000000266 #
coedge $-1 -1 $-1 $236 $315 $385 $386 forward $175 $-1 #
coedge $-1 -1 $-1 $387 $381 $236 $308 reversed $388 $-1 #
edge $-1 -1 $-1 $389 4.500000000000001776 $309 39.54999999999999716 $236 $390 forward @7 unknown #
vertex $-1 -1 $-1 $308 $391 #
straight-curve $-1 -1 $-1 1127 7.000000000000000888 1.550000000000000266 0 1 0 F 24.5 F 27.5 #
coedge $-1 -1 $-1 $240 $239 $392 $393 reversed $241 $-1 #
edge $-1 -1 $-1 $394 0 $242 1.499999999999999556 $247 $395 forward @7 unknown #
face $396 -1 $-1 $397 $241 $4 $-1 $398 forward single #
point $-1 -1 $-1 1133 7.000000000000000888 3.049999999999999822 #
coedge $-1 -1 $-1 $306 $244 $399 $400 reversed $175 $-1 #
coedge $-1 -1 $-1 $392 $401 $244 $317 reversed $402 $-1 #
edge $-1 -1 $-1 $318 0 $403 19.5 $244 $404 forward @7 unknown #
vertex $-1 -1 $-1 $245 $405 #
straight-curve $-1 -1 $-1 1127 7.000000000000000888 1.550000000000000266 0 0 1 F 0 F 1.499999999999999556 #
coedge $-1 -1 $-1 $247 $406 $407 $408 reversed $248 $-1 #
DXID-attrib $-1 -1 $-1 $-1 $252 @10 ASM ENTITY @2 12 #
plane-surface $-1 -1 $-1 1133 7.000000000000000888 1.550000000000000266 1 0 0 0 0 1 forward_v I I I I #
straight-curve $-1 -1 $-1 1117 34 -40 1 0 0 F 0 F 26.00000000000008527 #
coedge $-1 -1 $-1 $409 $256 $410 $411 forward $194 $-1 #
coedge $-1 -1 $-1 $256 $412 $413 $414 reversed $194 $-1 #
coedge $-1 -1 $-1 $415 $416 $256 $327 reversed $417 $-1 #
edge $-1 -1 $-1 $418 0 $419 8.599999999999994316 $256 $420 forward @7 unknown #
coedge $-1 -1 $-1 $421 $257 $422 $423 forward $101 $-1 #
coedge $-1 -1 $-1 $424 $425 $257 $330 forward $426 $-1 #
edge $-1 -1 $-1 $427 -0.9949999999999992184 $334 1.005000000000002558 $257 $428 forward @7 unknown #
coedge $-1 -1 $-1 $364 $258 $260 $336 reversed $333 $-1 #
coedge $-1 -1 $-1 $258 $278 $424 $429 reversed $333 $-1 #
loop $-1 -1 $-1 $-1 $278 $430 #
vertex $-1 -1 $-1 $259 $431 #
straight-curve $-1 -1 $-1 1143 -25 -30 0 1 0 F 30.49999999999999645 F 41.00999999999999801 #
edge $-1 -1 $-1 $376 12.00000000000002842 $261 14.00000000000005684 $331 $432 forward @7 unknown #
point $-1 -1 $-1 1143 16.01000000000000156 -30 #
coedge $-1 -1 $-1 $263 $433 $434 $435 forward $101 $-1 #
coedge $-1 -1 $-1 $436 $437 $263 $340 forward $438 $-1 #
edge $-1 -1 $-1 $344 0 $439 8.999999999999998224 $263 $440 forward @7 unknown #
coedge $-1 -1 $-1 $272 $264 $437 $441 reversed $343 $-1 #
coedge $-1 -1 $-1 $264 $272 $266 $346 forward $343 $-1 #
loop $-1 -1 $-1 $-1 $342 $442 #
vertex $-1 -1 $-1 $340 $443 #
straight-curve $-1 -1 $-1 1143 -25 -10 0 0 -1 F 0 F 30 #
edge $-1 -1 $-1 $274 0 $268 26.00000000000008527 $266 $444 forward @7 unknown #
face $445 -1 $-1 $442 $267 $4 $-1 $446 reversed single #
point $-1 -1 $-1 1143 -25 -40 #
coedge $-1 -1 $-1 $447 $271 $448 $449 reversed $106 $-1 #
coedge $-1 -1 $-1 $437 $436 $271 $351 reversed $438 $-1 #
edge $-1 -1 $-1 $352 0 $450 8.999999999999998224 $271 $451 forward @7 unknown #
vertex $-1 -1 $-1 $273 $452 #
straight-curve $-1 -1 $-1 1117 -25 -40 0 0 1 F 0 F 30 #
point $-1 -1 $-1 1117 -25 -40 #
coedge $-1 -1 $-1 $277 $453 $454 $455 reversed $106 $-1 #
coedge $-1 -1 $-1 $425 $424 $277 $357 reversed $426 $-1 #
edge $-1 -1 $-1 $456 -0.9949999999999992184 $359 1.005000000000002558 $277 $457 forward @7 unknown #
coedge $-1 -1 $-1 $278 $363 $280 $361 reversed $333 $-1 #
vertex $-1 -1 $-1 $357 $458 #
straight-curve $-1 -1 $-1 1117 -25 -30 0 1 0 F 30.49999999999999645 F 41.00999999999999801 #
edge $-1 -1 $-1 $281 0 $369 2.000000000000028422 $280 $459 forward @7 unknown #
point $-1 -1 $-1 1117 16.01000000000000156 -30 #
coedge $-1 -1 $-1 $358 $283 $286 $366 forward $333 $-1 #
coedge $-1 -1 $-1 $283 $331 $293 $373 reversed $333 $-1 #
straight-curve $-1 -1 $-1 1117 24.00000000000000355 -30 1 0 0 F 2.000000000000028422 F 24.00000000000005684 #
edge $-1 -1 $-1 $288 -25.91098132932600606 $369 -17.92098132932600052 $286 $460 forward @7 unknown #
face $461 -1 $-1 $430 $287 $4 $-1 $462 reversed single #
point $-1 -1 $-1 1119 24.00000000000000355 -30 #
vertex $-1 -1 $-1 $361 $463 #
straight-curve $-1 -1 $-1 1119 16 -30.01000000000000512 0 0.7071067811870000996 0.7071067811870000996 F 0.01414213562372504916 F 11.31370849897752073 #
DXID-attrib $-1 -1 $-1 $-1 $291 @10 ASM ENTITY @2 13 #
plane-surface $-1 -1 $-1 1117 16 -30.01000000000000512 0 -0.7071067811865475727 0.7071067811865475727 0 0.7071067811865476838 0.7071067811865476838 forward_v I I I I #
edge $-1 -1 $-1 $296 -25.91098132932600606 $376 -17.92098132932600052 $364 $464 forward @7 unknown #
face $465 -1 $-1 $299 $295 $4 $-1 $466 forward single #
point $-1 -1 $-1 1141 24.00000000000000355 -30 #
vertex $-1 -1 $-1 $336 $467 #
straight-curve $-1 -1 $-1 1141 16 -30.01000000000000512 0 0.7071067811870000996 0.7071067811870000996 F 0.01414213562372504916 F 11.31370849897752073 #
DXID-attrib $-1 -1 $-1 $-1 $299 @10 ASM ENTITY @2 17 #
plane-surface $-1 -1 $-1 1141 16 -30.01000000000000512 0 -0.7071067811865475727 0.7071067811865475727 0 0.7071067811865476838 0.7071067811865476838 forward_v I I I I #
coedge $-1 -1 $-1 $468 $301 $469 $470 reversed $248 $-1 #
coedge $-1 -1 $-1 $307 $469 $303 $382 reversed $388 $-1 #
edge $-1 -1 $-1 $309 0 $383 6.000000000000085265 $303 $471 forward @7 unknown #
vertex $-1 -1 $-1 $382 $472 #
straight-curve $-1 -1 $-1 1133 7.000000000000000888 1.550000000000000266 0 1 0 F 24.5 F 27.5 #
coedge $-1 -1 $-1 $473 $474 $306 $386 reversed $475 $-1 #
edge $-1 -1 $-1 $476 16.40000000000000213 $389 21.40000000000000568 $306 $477 forward @7 unknown #
coedge $-1 -1 $-1 $469 $307 $474 $478 reversed $388 $-1 #
loop $-1 -1 $-1 $-1 $469 $479 #
vertex $-1 -1 $-1 $386 $480 #
straight-curve $-1 -1 $-1 1127 31.50000000000000355 -38 0 0 1 F 4.500000000000001776 F 39.54999999999999716 #
point $-1 -1 $-1 1127 31.50000000000000355 1.550000000000000266 #
coedge $-1 -1 $-1 $407 $316 $311 $393 forward $402 $-1 #
edge $-1 -1 $-1 $318 0 $394 6.000000000000085265 $311 $481 forward @7 unknown #
vertex $-1 -1 $-1 $408 $482 #
straight-curve $-1 -1 $-1 1133 7.000000000000000888 1.550000000000000266 0 0 1 F 0 F 1.499999999999999556 #
DXID-attrib $-1 -1 $-1 $-1 $313 @10 ASM ENTITY @2 36 #
face $483 -1 $-1 $484 $402 $4 $-1 $485 forward single #
plane-surface $-1 -1 $-1 1127 7.000000000000000888 1.550000000000000266 0 1 0 0 0 1 forward_v I I I I #
coedge $-1 -1 $-1 $486 $487 $315 $400 forward $488 $-1 #
edge $-1 -1 $-1 $476 4.500000000000001776 $403 39.54999999999999716 $315 $489 forward @7 unknown #
coedge $-1 -1 $-1 $316 $407 $486 $490 reversed $402 $-1 #
loop $-1 -1 $-1 $-1 $316 $397 #
vertex $-1 -1 $-1 $317 $491 #
straight-curve $-1 -1 $-1 1127 7.000000000000000888 1.550000000000000266 0 1 0 F 0 F 19.5 #
point $-1 -1 $-1 1127 7.000000000000000888 1.550000000000000266 #
coedge $-1 -1 $-1 $320 $468 $492 $493 forward $248 $-1 #
coedge $-1 -1 $-1 $401 $392 $320 $408 forward $402 $-1 #
edge $-1 -1 $-1 $394 0 $494 19.5 $320 $495 forward @7 unknown #
coedge $-1 -1 $-1 $496 $324 $497 $498 forward $194 $-1 #
coedge $-1 -1 $-1 $499 $500 $324 $411 reversed $501 $-1 #
edge $-1 -1 $-1 $419 0.244999999999997442 $502 3.245000000000000107 $324 $503 forward @7 unknown #
coedge $-1 -1 $-1 $325 $504 $505 $506 forward $194 $-1 #
coedge $-1 -1 $-1 $507 $508 $325 $414 forward $509 $-1 #
edge $-1 -1 $-1 $418 0.244999999999997442 $510 3.245000000000000107 $325 $511 forward @7 unknown #
coedge $-1 -1 $-1 $512 $326 $508 $513 reversed $417 $-1 #
coedge $-1 -1 $-1 $326 $512 $499 $514 forward $417 $-1 #
loop $-1 -1 $-1 $515 $416 $516 #
vertex $-1 -1 $-1 $327 $517 #
vertex $-1 -1 $-1 $327 $518 #
straight-curve $-1 -1 $-1 1134.300000000000182 34 -33.5 -1 0 0 F 0 F 8.599999999999994316 #
coedge $-1 -1 $-1 $519 $328 $520 $521 forward $101 $-1 #
coedge $-1 -1 $-1 $522 $523 $328 $423 reversed $524 $-1 #
edge $-1 -1 $-1 $427 1.750000000000000444 $525 16.75 $328 $526 forward @7 unknown #
coedge $-1 -1 $-1 $356 $329 $332 $429 forward $426 $-1 #
coedge $-1 -1 $-1 $329 $356 $522 $527 forward $426 $-1 #
loop $-1 -1 $-1 $-1 $425 $528 #
vertex $-1 -1 $-1 $330 $529 #
straight-curve $-1 -1 $-1 1143 5.5 -31.00500000000000256 0 0 1 F -0.9949999999999992184 F 1.005000000000002558 #
edge $-1 -1 $-1 $334 -26.50000000000005684 $359 -0.4999999999999715783 $332 $530 forward @7 unknown #
face $531 -1 $-1 $374 $333 $4 $-1 $532 forward single #
point $-1 -1 $-1 1143 5.5 -30 #
straight-curve $-1 -1 $-1 1129 16.01000000000000156 -30 1 0 0 F 12.00000000000002842 F 14.00000000000005684 #
coedge $-1 -1 $-1 $338 $519 $533 $534 forward $101 $-1 #
coedge $-1 -1 $-1 $535 $536 $338 $435 reversed $537 $-1 #
edge $-1 -1 $-1 $538 17.98999999999999844 $439 30 $338 $539 forward @7 unknown #
coedge $-1 -1 $-1 $350 $339 $536 $540 reversed $438 $-1 #
coedge $-1 -1 $-1 $339 $350 $341 $441 forward $438 $-1 #
loop $-1 -1 $-1 $-1 $350 $541 #
vertex $-1 -1 $-1 $435 $542 #
straight-curve $-1 -1 $-1 1143 -25 -10 0 1 0 F 0 F 8.999999999999998224 #
edge $-1 -1 $-1 $352 0 $344 26.00000000000008527 $341 $543 forward @7 unknown #
face $544 -1 $-1 $541 $343 $4 $-1 $545 reversed single #
point $-1 -1 $-1 1143 -25 -10 #
straight-curve $-1 -1 $-1 1117 -25 -40 1 0 0 F 0 F 26.00000000000008527 #
DXID-attrib $-1 -1 $-1 $-1 $347 @10 ASM ENTITY @2 18 #
plane-surface $-1 -1 $-1 1117 -25 -40 0 0 1 1 0 0 forward_v I I I I #
coedge $-1 -1 $-1 $546 $349 $547 $548 reversed $106 $-1 #
coedge $-1 -1 $-1 $536 $549 $349 $449 forward $537 $-1 #
edge $-1 -1 $-1 $550 17.98999999999999844 $450 30 $349 $551 forward @7 unknown #
vertex $-1 -1 $-1 $351 $552 #
straight-curve $-1 -1 $-1 1117 -25 -10 0 1 0 F 0 F 8.999999999999998224 #
point $-1 -1 $-1 1117 -25 -10 #
coedge $-1 -1 $-1 $355 $546 $553 $554 reversed $106 $-1 #
coedge $-1 -1 $-1 $523 $522 $355 $455 forward $524 $-1 #
edge $-1 -1 $-1 $456 1.750000000000000444 $555 16.75 $355 $556 forward @7 unknown #
vertex $-1 -1 $-1 $455 $557 #
straight-curve $-1 -1 $-1 1117 5.5 -31.00500000000000256 0 0 1 F -0.9949999999999992184 F 1.005000000000002558 #
point $-1 -1 $-1 1117 5.5 -30 #
straight-curve $-1 -1 $-1 1117 16.01000000000000156 -30 1 0 0 F 0 F 2.000000000000028422 #
straight-curve $-1 -1 $-1 1119 -1.910981329326000289 -30 0 -1 0 F -25.91098132932600606 F -17.92098132932600052 #
DXID-attrib $-1 -1 $-1 $-1 $367 @10 ASM ENTITY @2 14 #
plane-surface $-1 -1 $-1 1119 21.17803734134799853 -27.17803734134000138 -1 -0 -0 0 0 -1 forward_v I I I I #
point $-1 -1 $-1 1119 16.01000000000000156 -30 #
straight-curve $-1 -1 $-1 1141 -1.910981329326000289 -30 0 -1 0 F -25.91098132932600606 F -17.92098132932600052 #
DXID-attrib $-1 -1 $-1 $-1 $374 @10 ASM ENTITY @2 16 #
plane-surface $-1 -1 $-1 1141 21.17803734134799853 -27.17803734134000138 -1 -0 -0 0 0 -1 forward_v I I I I #
point $-1 -1 $-1 1141 16.01000000000000156 -30 #
coedge $-1 -1 $-1 $406 $380 $558 $559 reversed $248 $-1 #
coedge $-1 -1 $-1 $381 $387 $380 $470 forward $388 $-1 #
edge $-1 -1 $-1 $560 4.500000000000001776 $383 39.54999999999999716 $380 $561 forward @7 unknown #
straight-curve $-1 -1 $-1 1127 31.50000000000000355 1.550000000000000266 1 0 0 F 0 F 6.000000000000085265 #
point $-1 -1 $-1 1133 31.50000000000000355 1.550000000000000266 #
coedge $-1 -1 $-1 $558 $385 $487 $562 reversed $475 $-1 #
coedge $-1 -1 $-1 $385 $558 $387 $478 forward $475 $-1 #
loop $-1 -1 $-1 $-1 $473 $516 #
vertex $-1 -1 $-1 $400 $563 #
straight-curve $-1 -1 $-1 1127 10.09999999999999964 -33.5 0 1 0 F 16.40000000000000213 F 21.40000000000000568 #
edge $-1 -1 $-1 $560 -6.650000000000204636 $389 -0.6500000000001193712 $474 $564 forward @7 unknown #
face $565 -1 $-1 $566 $388 $4 $-1 $567 reversed single #
point $-1 -1 $-1 1127 31.50000000000000355 -33.5 #
straight-curve $-1 -1 $-1 1127 7.000000000000000888 1.550000000000000266 1 0 0 F 0 F 6.000000000000085265 #
point $-1 -1 $-1 1133 7.000000000000000888 1.550000000000000266 #
DXID-attrib $-1 -1 $-1 $-1 $397 @10 ASM ENTITY @2 37 #
face $568 -1 $-1 $479 $488 $4 $-1 $569 forward single #
plane-surface $-1 -1 $-1 1127 7.000000000000000888 1.550000000000000266 0 0 1 1 0 0 forward_v I I I I #
coedge $-1 -1 $-1 $492 $399 $401 $490 forward $488 $-1 #
coedge $-1 -1 $-1 $399 $492 $473 $562 forward $488 $-1 #
loop $-1 -1 $-1 $-1 $492 $484 #
straight-curve $-1 -1 $-1 1127 26.50000000000000355 -38 0 0 1 F 4.500000000000001776 F 39.54999999999999716 #
edge $-1 -1 $-1 $403 0 $494 6.000000000000085265 $401 $570 forward @7 unknown #
point $-1 -1 $-1 1127 26.50000000000000355 1.550000000000000266 #
coedge $-1 -1 $-1 $487 $486 $406 $493 reversed $488 $-1 #
edge $-1 -1 $-1 $571 4.500000000000001776 $494 39.54999999999999716 $406 $572 forward @7 unknown #
vertex $-1 -1 $-1 $493 $573 #
straight-curve $-1 -1 $-1 1133 7.000000000000000888 1.550000000000000266 0 1 0 F 0 F 19.5 #
coedge $-1 -1 $-1 $574 $409 $575 $576 forward $194 $-1 #
coedge $-1 -1 $-1 $577 $578 $409 $498 reversed $579 $-1 #
edge $-1 -1 $-1 $502 4.350000000000164846 $580 5.650000000000119371 $409 $581 forward @7 unknown #
coedge $-1 -1 $-1 $582 $410 $416 $514 reversed $501 $-1 #
coedge $-1 -1 $-1 $410 $582 $577 $583 forward $501 $-1 #
loop $-1 -1 $-1 $-1 $499 $584 #
vertex $-1 -1 $-1 $411 $585 #
straight-curve $-1 -1 $-1 1125.700000000000045 34 -33.25500000000000256 0 0 -1 F 0.244999999999997442 F 3.245000000000000107 #
coedge $-1 -1 $-1 $412 $574 $586 $587 reversed $194 $-1 #
coedge $-1 -1 $-1 $588 $589 $412 $506 reversed $579 $-1 #
edge $-1 -1 $-1 $590 11.65000000000020464 $510 12.95000000000015916 $412 $591 forward @7 unknown #
coedge $-1 -1 $-1 $592 $413 $589 $593 reversed $509 $-1 #
coedge $-1 -1 $-1 $413 $592 $415 $513 forward $509 $-1 #
loop $-1 -1 $-1 $-1 $508 $594 #
vertex $-1 -1 $-1 $506 $595 #
straight-curve $-1 -1 $-1 1134.300000000000182 34 -33.25500000000000256 0 0 -1 F 0.244999999999997442 F 3.245000000000000107 #
coedge $-1 -1 $-1 $416 $415 $596 $597 reversed $417 $-1 #
edge $-1 -1 $-1 $598 0 $418 40.29999999999999716 $415 $599 forward @7 unknown #
edge $-1 -1 $-1 $600 0 $419 40.29999999999999716 $416 $601 forward @7 unknown #
loop $-1 -1 $-1 $475 $602 $516 #
face $603 -1 $-1 $584 $417 $4 $-1 $604 reversed single #
point $-1 -1 $-1 1134.300000000000182 34 -33.5 #
point $-1 -1 $-1 1125.700000000000045 34 -33.5 #
coedge $-1 -1 $-1 $433 $421 $605 $606 reversed $101 $-1 #
coedge $-1 -1 $-1 $607 $608 $421 $521 reversed $609 $-1 #
edge $-1 -1 $-1 $525 -0.9949999999999992184 $610 2.004999999999999005 $421 $611 forward @7 unknown #
coedge $-1 -1 $-1 $454 $422 $425 $527 reversed $524 $-1 #
coedge $-1 -1 $-1 $422 $454 $607 $612 forward $524 $-1 #
loop $-1 -1 $-1 $613 $522 $614 #
vertex $-1 -1 $-1 $423 $615 #
straight-curve $-1 -1 $-1 1143 7.250000000000000888 -32 0 -1 0 F 1.750000000000000444 F 16.75 #
edge $-1 -1 $-1 $456 0.9999999999999431566 $427 27.00000000000002842 $522 $616 forward @7 unknown #
face $617 -1 $-1 $516 $426 $4 $-1 $618 reversed single #
point $-1 -1 $-1 1143 5.5 -32 #
straight-curve $-1 -1 $-1 1116.5 5.5 -30 -1 0 0 F -26.50000000000005684 F -0.4999999999999715783 #
DXID-attrib $-1 -1 $-1 $-1 $430 @10 ASM ENTITY @2 15 #
plane-surface $-1 -1 $-1 1117 -25 -30 0 0 1 1 0 0 forward_v I I I I #
coedge $-1 -1 $-1 $619 $620 $433 $534 reversed $621 $-1 #
edge $-1 -1 $-1 $622 1.428355697995911333 $538 11.31370849897751896 $433 $623 forward @7 unknown #
coedge $-1 -1 $-1 $624 $434 $620 $625 forward $537 $-1 #
coedge $-1 -1 $-1 $434 $448 $436 $540 forward $537 $-1 #
loop $-1 -1 $-1 $-1 $434 $626 #
vertex $-1 -1 $-1 $534 $627 #
straight-curve $-1 -1 $-1 1143 -16 -40 0 0 1 F 17.98999999999999844 F 30 #
edge $-1 -1 $-1 $450 0 $439 26.00000000000008527 $436 $628 forward @7 unknown #
face $629 -1 $-1 $626 $438 $4 $-1 $630 forward single #
point $-1 -1 $-1 1143 -16 -10 #
straight-curve $-1 -1 $-1 1117 -25 -10 1 0 0 F 0 F 26.00000000000008527 #
DXID-attrib $-1 -1 $-1 $-1 $442 @10 ASM ENTITY @2 19 #
plane-surface $-1 -1 $-1 1117 -25 -40 0 1 0 0 0 1 forward_v I I I I #
coedge $-1 -1 $-1 $453 $447 $631 $632 forward $106 $-1 #
coedge $-1 -1 $-1 $633 $634 $447 $548 forward $635 $-1 #
edge $-1 -1 $-1 $636 1.428355697995911333 $550 11.31370849897751896 $447 $637 forward @7 unknown #
coedge $-1 -1 $-1 $448 $638 $633 $639 forward $537 $-1 #
vertex $-1 -1 $-1 $449 $640 #
straight-curve $-1 -1 $-1 1117 -16 -40 0 0 1 F 17.98999999999999844 F 30 #
point $-1 -1 $-1 1117 -16 -10 #
coedge $-1 -1 $-1 $641 $607 $453 $554 forward $609 $-1 #
edge $-1 -1 $-1 $555 -0.9949999999999992184 $642 2.004999999999999005 $453 $643 forward @7 unknown #
vertex $-1 -1 $-1 $554 $644 #
straight-curve $-1 -1 $-1 1117 7.250000000000000888 -32 0 -1 0 F 1.750000000000000444 F 16.75 #
point $-1 -1 $-1 1117 5.5 -32 #
coedge $-1 -1 $-1 $474 $473 $468 $559 forward $475 $-1 #
edge $-1 -1 $-1 $571 16.40000000000000213 $560 21.40000000000000568 $468 $645 forward @7 unknown #
vertex $-1 -1 $-1 $470 $646 #
straight-curve $-1 -1 $-1 1133 31.50000000000000355 -38 0 0 1 F 4.500000000000001776 F 39.54999999999999716 #
edge $-1 -1 $-1 $571 -6.650000000000204636 $476 -0.6500000000001193712 $473 $647 forward @7 unknown #
point $-1 -1 $-1 1127 26.50000000000000355 -33.5 #
straight-curve $-1 -1 $-1 1126.349999999999909 31.50000000000000355 -33.5 -1 0 0 F -6.650000000000204636 F -0.6500000000001193712 #
DXID-attrib $-1 -1 $-1 $-1 $479 @10 ASM ENTITY @2 39 #
face $648 -1 $-1 $649 $650 $4 $-1 $651 forward single #
plane-surface $-1 -1 $-1 1127 31.50000000000000355 -38 0 1 0 0 0 1 forward_v I I I I #
DXID-attrib $-1 -1 $-1 $-1 $484 @10 ASM ENTITY @2 38 #
plane-surface $-1 -1 $-1 1127 26.50000000000000355 -38 0 1 0 0 0 1 forward_v I I I I #
straight-curve $-1 -1 $-1 1127 26.50000000000000355 1.550000000000000266 1 0 0 F 0 F 6.000000000000085265 #
vertex $-1 -1 $-1 $559 $652 #
straight-curve $-1 -1 $-1 1133 26.50000000000000355 -38 0 0 1 F 4.500000000000001776 F 39.54999999999999716 #
point $-1 -1 $-1 1133 26.50000000000000355 1.550000000000000266 #
coedge $-1 -1 $-1 $504 $496 $653 $654 forward $194 $-1 #
coedge $-1 -1 $-1 $655 $656 $496 $576 reversed $657 $-1 #
edge $-1 -1 $-1 $580 2.49499999999999833 $658 3.994999999999997442 $496 $659 forward @7 unknown #
coedge $-1 -1 $-1 $660 $497 $500 $583 reversed $579 $-1 #
coedge $-1 -1 $-1 $497 $661 $655 $662 forward $579 $-1 #
loop $-1 -1 $-1 $663 $577 $664 #
vertex $-1 -1 $-1 $498 $665 #
straight-curve $-1 -1 $-1 1121.349999999999909 34 -36.5 1 0 0 F 4.350000000000164846 F 5.650000000000119371 #
coedge $-1 -1 $-1 $500 $499 $666 $667 reversed $501 $-1 #
edge $-1 -1 $-1 $668 0 $502 40.29999999999999716 $500 $669 forward @7 unknown #
face $670 -1 $-1 $664 $501 $4 $-1 $671 forward single #
point $-1 -1 $-1 1125.700000000000045 34 -36.5 #
coedge $-1 -1 $-1 $672 $673 $504 $587 forward $674 $-1 #
edge $-1 -1 $-1 $590 2.49499999999999833 $675 3.994999999999997442 $504 $676 forward @7 unknown #
coedge $-1 -1 $-1 $661 $505 $673 $677 forward $579 $-1 #
coedge $-1 -1 $-1 $505 $660 $507 $593 forward $579 $-1 #
vertex $-1 -1 $-1 $587 $678 #
straight-curve $-1 -1 $-1 1121.349999999999909 34 -36.5 1 0 0 F 11.65000000000020464 F 12.95000000000015916 #
coedge $-1 -1 $-1 $508 $507 $679 $680 forward $509 $-1 #
edge $-1 -1 $-1 $681 0 $510 40.29999999999999716 $589 $682 forward @7 unknown #
face $683 -1 $-1 $684 $509 $4 $-1 $685 reversed single #
point $-1 -1 $-1 1134.300000000000182 34 -36.5 #
coedge $-1 -1 $-1 $679 $666 $512 $597 forward $686 $-1 #
edge $-1 -1 $-1 $600 0 $598 8.599999999999994316 $512 $687 forward @7 unknown #
vertex $-1 -1 $-1 $513 $688 #
straight-curve $-1 -1 $-1 1134.300000000000182 -6.299999999999999822 -33.5 0 1 0 F 0 F 40.29999999999999716 #
vertex $-1 -1 $-1 $514 $689 #
straight-curve $-1 -1 $-1 1125.700000000000045 -6.299999999999999822 -33.5 0 1 0 F 0 F 40.29999999999999716 #
coedge $-1 -1 $-1 $602 $602 $690 $691 forward $515 $-1 #
DXID-attrib $-1 -1 $-1 $-1 $516 @10 ASM ENTITY @2 27 #
plane-surface $-1 -1 $-1 1125.700000000000045 -6.299999999999999822 -33.5 0 0 1 1 0 0 forward_v I I I I #
coedge $-1 -1 $-1 $692 $693 $519 $606 forward $694 $-1 #
edge $-1 -1 $-1 $622 16.26000000000000156 $610 16.75 $519 $695 forward @7 unknown #
coedge $-1 -1 $-1 $553 $520 $523 $612 reversed $609 $-1 #
coedge $-1 -1 $-1 $520 $696 $692 $697 forward $609 $-1 #
loop $-1 -1 $-1 $-1 $607 $698 #
vertex $-1 -1 $-1 $521 $699 #
straight-curve $-1 -1 $-1 1143 -9.5 -31.00500000000000256 0 0 1 F -0.9949999999999992184 F 2.004999999999999005 #
edge $-1 -1 $-1 $555 0.9999999999999431566 $525 27.00000000000002842 $607 $700 forward @7 unknown #
loop $-1 -1 $-1 $-1 $701 $614 #
face $702 -1 $-1 $528 $524 $4 $-1 $703 forward single #
point $-1 -1 $-1 1143 -9.5 -32 #
straight-curve $-1 -1 $-1 1116 5.5 -32 1 0 0 F 0.9999999999999431566 F 27.00000000000002842 #
DXID-attrib $-1 -1 $-1 $-1 $528 @10 ASM ENTITY @2 26 #
plane-surface $-1 -1 $-1 1116 5.5 -32 0 1 0 0 0 1 forward_v I I I I #
coedge $-1 -1 $-1 $704 $533 $693 $705 forward $621 $-1 #
coedge $-1 -1 $-1 $533 $704 $535 $625 reversed $621 $-1 #
loop $-1 -1 $-1 $-1 $704 $706 #
vertex $-1 -1 $-1 $606 $707 #
straight-curve $-1 -1 $-1 1143 -8 -30.01000000000000512 0 -0.7071067811870000996 0.7071067811870000996 F 1.428355697995911333 F 11.31370849897751896 #
coedge $-1 -1 $-1 $708 $535 $709 $710 forward $537 $-1 #
edge $-1 -1 $-1 $538 -14.00000000000005684 $711 -12.00000000000002842 $535 $712 forward @7 unknown #
face $713 -1 $-1 $706 $537 $4 $-1 $714 forward single #
point $-1 -1 $-1 1143 -16 -22.01000000000000156 #
straight-curve $-1 -1 $-1 1117 -16 -10 1 0 0 F 0 F 26.00000000000008527 #
DXID-attrib $-1 -1 $-1 $-1 $541 @10 ASM ENTITY @2 20 #
plane-surface $-1 -1 $-1 1117 -25 -10 0 0 1 1 0 0 forward_v I I I I #
coedge $-1 -1 $-1 $715 $716 $546 $632 reversed $717 $-1 #
edge $-1 -1 $-1 $636 16.26000000000000156 $642 16.75 $546 $718 forward @7 unknown #
coedge $-1 -1 $-1 $719 $547 $549 $639 reversed $635 $-1 #
coedge $-1 -1 $-1 $547 $719 $715 $720 forward $635 $-1 #
loop $-1 -1 $-1 $-1 $547 $684 #
vertex $-1 -1 $-1 $548 $721 #
straight-curve $-1 -1 $-1 1117 -8 -30.01000000000000512 0 -0.7071067811870000996 0.7071067811870000996 F 1.428355697995911333 F 11.31370849897751896 #
coedge $-1 -1 $-1 $549 $708 $722 $723 reversed $537 $-1 #
edge $-1 -1 $-1 $724 -2.000000000000028422 $550 0 $549 $725 forward @7 unknown #
point $-1 -1 $-1 1117 -16 -22.01000000000000156 #
coedge $-1 -1 $-1 $726 $553 $716 $727 forward $609 $-1 #
vertex $-1 -1 $-1 $632 $728 #
straight-curve $-1 -1 $-1 1117 -9.5 -31.00500000000000256 0 0 1 F -0.9949999999999992184 F 2.004999999999999005 #
point $-1 -1 $-1 1117 -9.5 -32 #
straight-curve $-1 -1 $-1 1133 10.09999999999999964 -33.5 0 1 0 F 16.40000000000000213 F 21.40000000000000568 #
point $-1 -1 $-1 1133 31.50000000000000355 -33.5 #
straight-curve $-1 -1 $-1 1126.349999999999909 26.50000000000000355 -33.5 -1 0 0 F -6.650000000000204636 F -0.6500000000001193712 #
DXID-attrib $-1 -1 $-1 $-1 $566 @10 ASM ENTITY @2 40 #
face $729 -1 $-1 $730 $731 $4 $-1 $732 forward single #
loop $-1 -1 $-1 $-1 $722 $566 #
plane-surface $-1 -1 $-1 1119 -13.17803734134000138 -27.17803734134000138 1 0 0 0 0 1 forward_v I I I I #
point $-1 -1 $-1 1133 26.50000000000000355 -33.5 #
coedge $-1 -1 $-1 $733 $734 $574 $654 reversed $735 $-1 #
edge $-1 -1 $-1 $658 5 $675 11.00000000000008527 $574 $736 forward @7 unknown #
coedge $-1 -1 $-1 $737 $575 $578 $662 reversed $657 $-1 #
coedge $-1 -1 $-1 $575 $737 $733 $738 forward $657 $-1 #
loop $-1 -1 $-1 $-1 $655 $739 #
vertex $-1 -1 $-1 $576 $740 #
straight-curve $-1 -1 $-1 1127 34 -34.00500000000000256 0 0 -1 F 2.49499999999999833 F 3.994999999999997442 #
coedge $-1 -1 $-1 $589 $577 $741 $742 forward $579 $-1 #
coedge $-1 -1 $-1 $578 $588 $743 $744 forward $579 $-1 #
edge $-1 -1 $-1 $745 0 $580 28.50000000000000355 $578 $746 forward @7 unknown #
loop $-1 -1 $-1 $-1 $747 $664 #
face $748 -1 $-1 $739 $579 $4 $-1 $749 forward single #
point $-1 -1 $-1 1127 34 -36.5 #
coedge $-1 -1 $-1 $596 $741 $582 $667 forward $686 $-1 #
edge $-1 -1 $-1 $668 0 $600 3.000000000000002665 $582 $750 forward @7 unknown #
vertex $-1 -1 $-1 $667 $751 #
straight-curve $-1 -1 $-1 1125.700000000000045 -6.299999999999999822 -36.5 0 1 0 F 0 F 40.29999999999999716 #
DXID-attrib $-1 -1 $-1 $-1 $584 @10 ASM ENTITY @2 28 #
plane-surface $-1 -1 $-1 1125.700000000000045 -6.299999999999999822 -36.5 1 0 0 0 0 1 forward_v I I I I #
coedge $-1 -1 $-1 $752 $586 $734 $753 reversed $674 $-1 #
coedge $-1 -1 $-1 $586 $752 $588 $677 reversed $674 $-1 #
loop $-1 -1 $-1 $-1 $673 $754 #
vertex $-1 -1 $-1 $654 $755 #
straight-curve $-1 -1 $-1 1133 34 -34.00500000000000256 0 0 -1 F 2.49499999999999833 F 3.994999999999997442 #
edge $-1 -1 $-1 $590 0 $756 28.50000000000000355 $588 $757 forward @7 unknown #
point $-1 -1 $-1 1133 34 -36.5 #
coedge $-1 -1 $-1 $741 $596 $592 $680 reversed $686 $-1 #
edge $-1 -1 $-1 $681 0 $598 3.000000000000002665 $592 $758 forward @7 unknown #
vertex $-1 -1 $-1 $742 $759 #
straight-curve $-1 -1 $-1 1134.300000000000182 -6.299999999999999822 -36.5 0 1 0 F 0 F 40.29999999999999716 #
DXID-attrib $-1 -1 $-1 $-1 $594 @10 ASM ENTITY @2 33 #
face $760 -1 $-1 $761 $635 $4 $-1 $762 reversed single #
plane-surface $-1 -1 $-1 1134.300000000000182 -6.299999999999999822 -36.5 1 0 0 0 0 1 forward_v I I I I #
loop $-1 -1 $-1 $-1 $741 $763 #
straight-curve $-1 -1 $-1 1125.700000000000045 -6.299999999999999822 -33.5 1 0 0 F 0 F 8.599999999999994316 #
point $-1 -1 $-1 1134.300000000000182 -6.299999999999999822 -33.5 #
point $-1 -1 $-1 1125.700000000000045 -6.299999999999999822 -33.5 #
coedge $-1 -1 $-1 $690 $690 $602 $691 reversed $764 $-1 #
edge $-1 -1 $-1 $765 0 $765 6.283185307179586232 $602 $766 forward @7 unknown #
coedge $-1 -1 $-1 $767 $605 $608 $697 reversed $694 $-1 #
coedge $-1 -1 $-1 $605 $767 $619 $705 reversed $694 $-1 #
loop $-1 -1 $-1 $-1 $692 $768 #
straight-curve $-1 -1 $-1 1143 7.250000000000000888 -29.00000000000000355 0 -1 0 F 16.26000000000000156 F 16.75 #
coedge $-1 -1 $-1 $608 $769 $770 $771 forward $609 $-1 #
edge $-1 -1 $-1 $772 25 $610 27.00000000000002842 $692 $773 forward @7 unknown #
face $774 -1 $-1 $614 $609 $4 $-1 $775 forward single #
point $-1 -1 $-1 1143 -9.5 -29.00000000000000355 #
straight-curve $-1 -1 $-1 1116 -9.5 -32 1 0 0 F 0.9999999999999431566 F 27.00000000000002842 #
coedge $-1 -1 $-1 $701 $701 $776 $777 reversed $613 $-1 #
DXID-attrib $-1 -1 $-1 $-1 $614 @10 ASM ENTITY @2 25 #
plane-surface $-1 -1 $-1 1116 -9.5 -32 0 0 1 1 0 0 forward_v I I I I #
coedge $-1 -1 $-1 $620 $619 $778 $779 forward $621 $-1 #
edge $-1 -1 $-1 $622 -14.50000000000002842 $780 -12.5 $619 $781 forward @7 unknown #
face $782 -1 $-1 $768 $621 $4 $-1 $783 reversed single #
point $-1 -1 $-1 1143 -9.009999999999999787 -29.00000000000000355 #
coedge $-1 -1 $-1 $638 $624 $784 $785 forward $537 $-1 #
coedge $-1 -1 $-1 $778 $786 $624 $710 reversed $787 $-1 #
edge $-1 -1 $-1 $711 -11.57901867067000268 $788 -3.589018670670003353 $624 $789 forward @7 unknown #
vertex $-1 -1 $-1 $625 $790 #
straight-curve $-1 -1 $-1 1129 -16 -22.01000000000000156 -1 0 0 F -14.00000000000005684 F -12.00000000000002842 #
DXID-attrib $-1 -1 $-1 $-1 $626 @10 ASM ENTITY @2 21 #
plane-surface $-1 -1 $-1 1117 -16 -40 0 1 0 0 0 1 forward_v I I I I #
coedge $-1 -1 $-1 $791 $631 $634 $720 reversed $717 $-1 #
coedge $-1 -1 $-1 $631 $791 $641 $727 reversed $717 $-1 #
loop $-1 -1 $-1 $-1 $631 $761 #
straight-curve $-1 -1 $-1 1117 7.250000000000000888 -29.00000000000000355 0 -1 0 F 16.26000000000000156 F 16.75 #
coedge $-1 -1 $-1 $634 $633 $792 $793 reversed $635 $-1 #
edge $-1 -1 $-1 $794 -2.5 $636 -0.4999999999999715783 $634 $795 forward @7 unknown #
point $-1 -1 $-1 1117 -9.009999999999999787 -29.00000000000000355 #
coedge $-1 -1 $-1 $796 $792 $638 $723 forward $650 $-1 #
edge $-1 -1 $-1 $724 -11.57901867067000268 $797 -3.589018670670003353 $638 $798 forward @7 unknown #
vertex $-1 -1 $-1 $723 $799 #
straight-curve $-1 -1 $-1 1117 -16 -22.01000000000000156 -1 0 0 F -2.000000000000028422 F 0 #
coedge $-1 -1 $-1 $769 $641 $800 $801 reversed $609 $-1 #
edge $-1 -1 $-1 $642 0.9999999999999431566 $802 2.999999999999971578 $641 $803 forward @7 unknown #
point $-1 -1 $-1 1117 -9.5 -29.00000000000000355 #
DXID-attrib $-1 -1 $-1 $-1 $649 @10 ASM ENTITY @2 41 #
face $804 -1 $-1 $805 $787 $4 $-1 $806 reversed single #
loop $-1 -1 $-1 $-1 $807 $649 #
plane-surface $-1 -1 $-1 1117 -25 -30 0 0 1 1 0 0 forward_v I I I I #
coedge $-1 -1 $-1 $808 $653 $656 $738 reversed $735 $-1 #
coedge $-1 -1 $-1 $653 $808 $672 $753 forward $735 $-1 #
loop $-1 -1 $-1 $-1 $733 $809 #
straight-curve $-1 -1 $-1 1122 34 -38 1 0 0 F 5 F 11.00000000000008527 #
coedge $-1 -1 $-1 $656 $655 $810 $811 reversed $657 $-1 #
edge $-1 -1 $-1 $812 0 $658 28.50000000000000355 $656 $813 forward @7 unknown #
face $814 -1 $-1 $809 $657 $4 $-1 $815 forward single #
point $-1 -1 $-1 1127 34 -38 #
coedge $-1 -1 $-1 $666 $679 $660 $742 reversed $686 $-1 #
edge $-1 -1 $-1 $668 0 $681 8.599999999999994316 $660 $816 forward @7 unknown #
coedge $-1 -1 $-1 $817 $810 $661 $744 reversed $818 $-1 #
edge $-1 -1 $-1 $756 -6.650000000000204636 $745 -0.6500000000001193712 $661 $819 forward @7 unknown #
vertex $-1 -1 $-1 $744 $820 #
straight-curve $-1 -1 $-1 1127 5.5 -36.5 0 1 0 F 0 F 28.50000000000000355 #
coedge $-1 -1 $-1 $747 $747 $821 $822 reversed $663 $-1 #
DXID-attrib $-1 -1 $-1 $-1 $664 @10 ASM ENTITY @2 29 #
plane-surface $-1 -1 $-1 1125.700000000000045 -6.299999999999999822 -36.5 0 0 1 1 0 0 forward_v I I I I #
straight-curve $-1 -1 $-1 1125.700000000000045 -6.299999999999999822 -36.5 0 0 1 F 0 F 3.000000000000002665 #
point $-1 -1 $-1 1125.700000000000045 -6.299999999999999822 -36.5 #
coedge $-1 -1 $-1 $673 $672 $817 $823 forward $674 $-1 #
edge $-1 -1 $-1 $824 0 $675 28.50000000000000355 $734 $825 forward @7 unknown #
face $826 -1 $-1 $594 $674 $4 $-1 $827 reversed single #
point $-1 -1 $-1 1133 34 -38 #
vertex $-1 -1 $-1 $677 $828 #
straight-curve $-1 -1 $-1 1133 34 -36.5 0 -1 0 F 0 F 28.50000000000000355 #
straight-curve $-1 -1 $-1 1134.300000000000182 -6.299999999999999822 -36.5 0 0 1 F 0 F 3.000000000000002665 #
point $-1 -1 $-1 1134.300000000000182 -6.299999999999999822 -36.5 #
DXID-attrib $-1 -1 $-1 $-1 $684 @10 ASM ENTITY @2 34 #
face $829 -1 $-1 $313 $717 $4 $-1 $830 reversed single #
plane-surface $-1 -1 $-1 1117 -8 -30.01000000000000512 0 -0.7071067811865475727 -0.7071067811865475727 0 -0.7071067811865476838 0.7071067811865476838 forward_v I I I I #
face $831 -1 $-1 $832 $686 $4 $-1 $833 forward single #
loop $-1 -1 $-1 $834 $690 $805 #
vertex $-1 -1 $-1 $691 $835 #
ellipse-curve $-1 -1 $-1 1132.599999999999909 3.799999999999999822 -33.5 0 0 1 1.500000000000000222 0 0 1 I I #
coedge $-1 -1 $-1 $693 $692 $836 $837 reversed $694 $-1 #
face $838 -1 $-1 $698 $694 $4 $-1 $839 reversed single #
coedge $-1 -1 $-1 $696 $726 $807 $840 reversed $609 $-1 #
coedge $-1 -1 $-1 $786 $836 $696 $771 reversed $787 $-1 #
edge $-1 -1 $-1 $841 -0.4109813293299957593 $772 0.589018670670000688 $696 $842 forward @7 unknown #
vertex $-1 -1 $-1 $697 $843 #
straight-curve $-1 -1 $-1 1116 -9.5 -29.00000000000000355 1 0 0 F 25 F 27.00000000000002842 #
DXID-attrib $-1 -1 $-1 $-1 $698 @10 ASM ENTITY @2 24 #
plane-surface $-1 -1 $-1 1116 -9.5 -32 0 1 0 0 0 1 forward_v I I I I #
coedge $-1 -1 $-1 $776 $776 $701 $777 forward $834 $-1 #
edge $-1 -1 $-1 $844 0 $844 6.283185307179586232 $701 $845 forward @7 unknown #
coedge $-1 -1 $-1 $836 $709 $704 $779 reversed $787 $-1 #
edge $-1 -1 $-1 $780 1.428355697995911333 $711 11.31370849897751896 $704 $846 forward @7 unknown #
vertex $-1 -1 $-1 $779 $847 #
straight-curve $-1 -1 $-1 1128.5 -9.009999999999999787 -29.00000000000000355 -1 0 0 F -14.50000000000002842 F -12.5 #
DXID-attrib $-1 -1 $-1 $-1 $706 @10 ASM ENTITY @2 22 #
plane-surface $-1 -1 $-1 1141 -8 -30.01000000000000512 0 -0.7071067811865475727 -0.7071067811865475727 0 -0.7071067811865476838 0.7071067811865476838 forward_v I I I I #
coedge $-1 -1 $-1 $848 $849 $708 $785 reversed $731 $-1 #
edge $-1 -1 $-1 $788 -24.00000000000005684 $797 -2.000000000000028422 $708 $850 forward @7 unknown #
coedge $-1 -1 $-1 $709 $770 $848 $851 reversed $787 $-1 #
loop $-1 -1 $-1 $-1 $709 $730 #
vertex $-1 -1 $-1 $710 $852 #
straight-curve $-1 -1 $-1 1141 -16 -33.58901867067000069 0 0 -1 F -11.57901867067000268 F -3.589018670670003353 #
point $-1 -1 $-1 1141 -16 -22.01000000000000156 #
coedge $-1 -1 $-1 $716 $715 $853 $854 forward $717 $-1 #
coedge $-1 -1 $-1 $722 $853 $719 $793 forward $650 $-1 #
edge $-1 -1 $-1 $794 1.428355697995911333 $724 11.31370849897751896 $719 $855 forward @7 unknown #
vertex $-1 -1 $-1 $793 $856 #
straight-curve $-1 -1 $-1 1116.5 -9.009999999999999787 -29.00000000000000355 -1 0 0 F -2.5 F -0.4999999999999715783 #
coedge $-1 -1 $-1 $800 $722 $849 $857 forward $650 $-1 #
vertex $-1 -1 $-1 $785 $858 #
straight-curve $-1 -1 $-1 1119 -16 -33.58901867067000069 0 0 -1 F -11.57901867067000268 F -3.589018670670003353 #
point $-1 -1 $-1 1119 -16 -22.01000000000000156 #
coedge $-1 -1 $-1 $853 $796 $726 $801 forward $650 $-1 #
edge $-1 -1 $-1 $859 -0.4109813293299957593 $802 0.589018670670000688 $726 $860 forward @7 unknown #
vertex $-1 -1 $-1 $727 $861 #
straight-curve $-1 -1 $-1 1116 -9.5 -29.00000000000000355 1 0 0 F 0.9999999999999431566 F 2.999999999999971578 #
DXID-attrib $-1 -1 $-1 $-1 $730 @10 ASM ENTITY @2 42 #
face $862 -1 $-1 $763 $764 $4 $-1 $863 reversed single #
plane-surface $-1 -1 $-1 1141 -13.17803734134000138 -27.17803734134000138 1 0 0 0 0 1 forward_v I I I I #
coedge $-1 -1 $-1 $849 $848 $769 $840 forward $731 $-1 #
coedge $-1 -1 $-1 $734 $733 $864 $865 forward $735 $-1 #
face $866 -1 $-1 $754 $735 $4 $-1 $867 forward single #
coedge $-1 -1 $-1 $743 $864 $737 $811 forward $818 $-1 #
edge $-1 -1 $-1 $812 0 $745 1.499999999999999112 $737 $868 forward @7 unknown #
vertex $-1 -1 $-1 $811 $869 #
straight-curve $-1 -1 $-1 1127 5.5 -38 0 1 0 F 0 F 28.50000000000000355 #
DXID-attrib $-1 -1 $-1 $-1 $739 @10 ASM ENTITY @2 30 #
plane-surface $-1 -1 $-1 1127 5.5 -38 1 0 0 0 0 1 forward_v I I I I #
straight-curve $-1 -1 $-1 1125.700000000000045 -6.299999999999999822 -36.5 1 0 0 F 0 F 8.599999999999994316 #
coedge $-1 -1 $-1 $864 $743 $752 $823 reversed $818 $-1 #
loop $-1 -1 $-1 $-1 $817 $832 #
straight-curve $-1 -1 $-1 1126.349999999999909 5.5 -36.5 -1 0 0 F -6.650000000000204636 F -0.6500000000001193712 #
point $-1 -1 $-1 1127 5.5 -36.5 #
coedge $-1 -1 $-1 $821 $821 $747 $822 forward $870 $-1 #
edge $-1 -1 $-1 $871 0 $871 6.283185307179586232 $747 $872 forward @7 unknown #
edge $-1 -1 $-1 $824 0 $756 1.499999999999999112 $752 $873 forward @7 unknown #
vertex $-1 -1 $-1 $865 $874 #
straight-curve $-1 -1 $-1 1133 5.5 -38 0 1 0 F 0 F 28.50000000000000355 #
DXID-attrib $-1 -1 $-1 $-1 $754 @10 ASM ENTITY @2 32 #
plane-surface $-1 -1 $-1 1133 5.5 -38 1 0 0 0 0 1 forward_v I I I I #
point $-1 -1 $-1 1133 5.5 -36.5 #
DXID-attrib $-1 -1 $-1 $-1 $761 @10 ASM ENTITY @2 35 #
plane-surface $-1 -1 $-1 1116 -9.5 -29.00000000000000355 0 0 1 1 0 0 forward_v I I I I #
DXID-attrib $-1 -1 $-1 $-1 $763 @10 ASM ENTITY @2 44 #
face $875 -1 $-1 $876 $818 $4 $-1 $877 forward single #
plane-surface $-1 -1 $-1 1125.700000000000045 -6.299999999999999822 -36.5 0 1 0 0 0 1 forward_v I I I I #
loop $-1 -1 $-1 $-1 $776 $805 #
point $-1 -1 $-1 1134.099999999999909 3.799999999999999822 -33.5 #
coedge $-1 -1 $-1 $770 $778 $767 $837 forward $787 $-1 #
edge $-1 -1 $-1 $780 -2.329018670670000013 $772 -1.839018670669999578 $767 $878 forward @7 unknown #
DXID-attrib $-1 -1 $-1 $-1 $768 @10 ASM ENTITY @2 23 #
plane-surface $-1 -1 $-1 1116 -9.5 -29.00000000000000355 0 0 1 1 0 0 forward_v I I I I #
edge $-1 -1 $-1 $841 -24.50000000000002842 $859 -2.5 $769 $879 forward @7 unknown #
vertex $-1 -1 $-1 $840 $880 #
straight-curve $-1 -1 $-1 1141 -9.5 -29.58901867067000424 0 0 1 F -0.4109813293299957593 F 0.589018670670000688 #
point $-1 -1 $-1 1141 -9.5 -29.00000000000000355 #
vertex $-1 -1 $-1 $777 $881 #
ellipse-curve $-1 -1 $-1 1132.599999999999909 3.799999999999999822 -32 0 0 1 1.500000000000000222 0 0 1 I I #
straight-curve $-1 -1 $-1 1141 -8 -30.01000000000000512 0 -0.7071067811870000996 0.7071067811870000996 F 1.428355697995911333 F 11.31370849897751896 #
point $-1 -1 $-1 1141 -9.009999999999999787 -29.00000000000000355 #
coedge $-1 -1 $-1 $807 $784 $786 $851 forward $731 $-1 #
coedge $-1 -1 $-1 $784 $807 $796 $857 reversed $731 $-1 #
straight-curve $-1 -1 $-1 1117 -16 -30 -1 0 0 F -24.00000000000005684 F -2.000000000000028422 #
edge $-1 -1 $-1 $788 3.089018670670000688 $841 9.589018670670000688 $848 $882 forward @7 unknown #
point $-1 -1 $-1 1141 -16 -30 #
coedge $-1 -1 $-1 $792 $800 $791 $854 reversed $650 $-1 #
edge $-1 -1 $-1 $794 -2.329018670670000013 $802 -1.839018670669999578 $791 $883 forward @7 unknown #
straight-curve $-1 -1 $-1 1119 -8 -30.01000000000000512 0 -0.7071067811870000996 0.7071067811870000996 F 1.428355697995911333 F 11.31370849897751896 #
point $-1 -1 $-1 1119 -9.009999999999999787 -29.00000000000000355 #
edge $-1 -1 $-1 $797 3.089018670670000688 $859 9.589018670670000688 $796 $884 forward @7 unknown #
point $-1 -1 $-1 1119 -16 -30 #
vertex $-1 -1 $-1 $801 $885 #
straight-curve $-1 -1 $-1 1119 -9.5 -29.58901867067000424 0 0 1 F -0.4109813293299957593 F 0.589018670670000688 #
point $-1 -1 $-1 1119 -9.5 -29.00000000000000355 #
DXID-attrib $-1 -1 $-1 $-1 $805 @10 ASM ENTITY @2 43 #
cone-surface $-1 -1 $-1 1132.599999999999909 3.799999999999999822 -38.5 0 0 1 1.500000000000000222 0 0 1 I I 0 1 1.500000000000000222 forward I I I I #
coedge $-1 -1 $-1 $810 $817 $808 $865 reversed $818 $-1 #
edge $-1 -1 $-1 $812 0 $824 6.000000000000085265 $808 $886 forward @7 unknown #
DXID-attrib $-1 -1 $-1 $-1 $809 @10 ASM ENTITY @2 31 #
plane-surface $-1 -1 $-1 1127 5.5 -38 0 0 1 1 0 0 forward_v I I I I #
straight-curve $-1 -1 $-1 1127 5.5 -38 0 0 1 F 0 F 1.499999999999999112 #
point $-1 -1 $-1 1127 5.5 -38 #
loop $-1 -1 $-1 $-1 $821 $876 #
vertex $-1 -1 $-1 $822 $887 #
ellipse-curve $-1 -1 $-1 1132.599999999999909 3.799999999999999822 -36.5 0 0 1 1.500000000000000222 0 0 1 I I #
straight-curve $-1 -1 $-1 1133 5.5 -38 0 0 1 F 0 F 1.499999999999999112 #
point $-1 -1 $-1 1133 5.5 -38 #
DXID-attrib $-1 -1 $-1 $-1 $832 @10 ASM ENTITY @2 45 #
face $888 -1 $-1 $889 $890 $4 $-1 $891 reversed single #
plane-surface $-1 -1 $-1 1127 5.5 -38 0 1 0 0 0 1 forward_v I I I I #
straight-curve $-1 -1 $-1 1141 -11.33901867067000069 -29.00000000000000355 0 -1 0 F -2.329018670670000013 F -1.839018670669999578 #
straight-curve $-1 -1 $-1 1116.5 -9.5 -30 -1 0 0 F -24.50000000000002842 F -2.5 #
point $-1 -1 $-1 1141 -9.5 -30 #
point $-1 -1 $-1 1134.099999999999909 3.799999999999999822 -32 #
straight-curve $-1 -1 $-1 1141 -19.08901867067000069 -30 0 1 0 F 3.089018670670000688 F 9.589018670670000688 #
straight-curve $-1 -1 $-1 1119 -11.33901867067000069 -29.00000000000000355 0 -1 0 F -2.329018670670000013 F -1.839018670669999578 #
straight-curve $-1 -1 $-1 1119 -19.08901867067000069 -30 0 1 0 F 3.089018670670000688 F 9.589018670670000688 #
point $-1 -1 $-1 1119 -9.5 -30 #
straight-curve $-1 -1 $-1 1127 5.5 -38 1 0 0 F 0 F 6.000000000000085265 #
point $-1 -1 $-1 1134.099999999999909 3.799999999999999822 -36.5 #
DXID-attrib $-1 -1 $-1 $-1 $876 @10 ASM ENTITY @2 46 #
face $892 -1 $-1 $-1 $893 $4 $-1 $894 forward single #
loop $-1 -1 $-1 $870 $895 $876 #
cone-surface $-1 -1 $-1 1132.599999999999909 3.799999999999999822 -38.5 0 0 1 1.500000000000000222 0 0 1 I I 0 1 1.500000000000000222 forward I I I I #
DXID-attrib $-1 -1 $-1 $-1 $889 @10 ASM ENTITY @2 47 #
loop $-1 -1 $-1 $-1 $896 $889 #
plane-surface $-1 -1 $-1 1132.599999999999909 3.799999999999999822 -38.5 0 0 1 1 0 0 forward_v I I I I #
coedge $-1 -1 $-1 $895 $895 $896 $897 reversed $890 $-1 #
coedge $-1 -1 $-1 $896 $896 $895 $897 forward $893 $-1 #
edge $-1 -1 $-1 $898 0 $898 6.283185307179586232 $895 $899 forward @7 unknown #
vertex $-1 -1 $-1 $897 $900 #
ellipse-curve $-1 -1 $-1 1132.599999999999909 3.799999999999999822 -38.5 0 0 1 1.500000000000000222 0 0 1 I I #
point $-1 -1 $-1 1134.099999999999909 3.799999999999999822 -38.5 #
End-of-ACIS-data 