700 0 1 0           
30 Autodesk Translation Framework 21 ASM 232.4.0.65535 OSX 24 Fri Sep 18 17:23:19 2026 
1 9.999999999999999547e-07 1.000000000000000036e-10 
body $1 -1 $-1 $2 $-1 $-1 #
rgb_color-st-attrib $-1 -1 $3 $-1 $0 0.627450980392156854 0.627450980392156854 0.627450980392156854 #
lump $-1 -1 $-1 $-1 $4 $0 #
ATTRIB_CUSTOM-attrib $-1 -1 $-1 $1 $0 @20 Timestamp_attrib_def 1 1789748599705684 #
shell $-1 -1 $-1 $-1 $-1 $5 $-1 $2 #
face $6 -1 $-1 $7 $8 $4 $-1 $9 forward single #
DXID-attrib $-1 -1 $-1 $-1 $5 @10 ASM ENTITY @1 0 #
face $10 -1 $-1 $11 $12 $4 $-1 $13 forward single #
loop $-1 -1 $-1 $14 $15 $5 #
cone-surface $-1 -1 $-1 1214.599999999999909 21.5 19 1 0 0 0 0 10.625 1 I I 0 1 10.625 forward I I I I #
DXID-attrib $-1 -1 $-1 $-1 $7 @10 ASM ENTITY @1 1 #
face $16 -1 $-1 $-1 $17 $4 $-1 $18 reversed single #
loop $-1 -1 $-1 $-1 $19 $7 #
plane-surface $-1 -1 $-1 1285.400000000000091 21.5 19 1 0 0 0 0 1 forward_v I I I I #
loop $-1 -1 $-1 $-1 $20 $5 #
coedge $-1 -1 $-1 $15 $15 $21 $22 forward $8 $-1 #
DXID-attrib $-1 -1 $-1 $-1 $11 @10 ASM ENTITY @1 2 #
loop $-1 -1 $-1 $-1 $21 $11 #
plane-surface $-1 -1 $-1 1214.599999999999909 21.5 19 1 0 0 0 0 1 forward_v I I I I #
coedge $-1 -1 $-1 $19 $19 $20 $23 forward $12 $-1 #
coedge $-1 -1 $-1 $20 $20 $19 $23 reversed $14 $-1 #
coedge $-1 -1 $-1 $21 $21 $15 $22 reversed $17 $-1 #
edge $-1 -1 $-1 $24 0 $24 6.283185307179586232 $15 $25 forward @7 unknown #
edge $-1 -1 $-1 $26 0 $26 6.283185307179586232 $20 $27 forward @7 unknown #
vertex $-1 -1 $-1 $22 $28 #
ellipse-curve $-1 -1 $-1 1214.599999999999909 21.5 19 1 0 0 0 0 10.625 1 I I #
vertex $-1 -1 $-1 $23 $29 #
ellipse-curve $-1 -1 $-1 1285.400000000000091 21.5 19 1 0 0 0 0 10.625 1 I I #
point $-1 -1 $-1 1214.599999999999909 21.5 29.62500000000000355 #
point $-1 -1 $-1 1285.400000000000091 21.5 29.62500000000000355 #
End-of-ACIS-data 