700 0 1 0           
30 Autodesk Translation Framework 21 ASM 232.4.0.65535 OSX 24 Fri Sep 18 19:26:47 2026 
1 9.999999999999999547e-07 1.000000000000000036e-10 
body $1 -1 $-1 $2 $-1 $-1 #
rgb_color-st-attrib $-1 -1 $3 $-1 $0 0.627450980392156854 0.627450980392156854 0.627450980392156854 #
lump $-1 -1 $-1 $-1 $4 $0 #
ATTRIB_CUSTOM-attrib $-1 -1 $-1 $1 $0 @20 Timestamp_attrib_def 1 1789756007205621 #
shell $-1 -1 $-1 $-1 $-1 $5 $-1 $2 #
face $6 -1 $-1 $7 $8 $4 $-1 $9 reversed single #
DXID-attrib $-1 -1 $-1 $-1 $5 @10 ASM ENTITY @1 0 #
face $10 -1 $-1 $11 $12 $4 $-1 $13 reversed single #
loop $-1 -1 $-1 $-1 $14 $5 #
plane-surface $-1 -1 $-1 1211.150000000000091 6.200000000000001066 10 1 0 0 0 0 1 forward_v I I I I #
DXID-attrib $-1 -1 $-1 $-1 $7 @10 ASM ENTITY @1 1 #
face $15 -1 $-1 $16 $17 $4 $-1 $18 forward single #
loop $-1 -1 $-1 $19 $20 $7 #
plane-surface $-1 -1 $-1 1211.150000000000091 6.200000000000001066 10 0 1 0 0 0 1 forward_v I I I I #
coedge $-1 -1 $-1 $21 $22 $23 $24 forward $8 $-1 #
DXID-attrib $-1 -1 $-1 $-1 $11 @10 ASM ENTITY @1 2 #
face $25 -1 $-1 $26 $27 $4 $-1 $28 forward single #
loop $-1 -1 $-1 $-1 $29 $11 #
plane-surface $-1 -1 $-1 1211.150000000000091 6.200000000000001066 30.89999999999999858 0 0 1 1 0 0 forward_v I I I I #
loop $-1 -1 $-1 $-1 $30 $7 #
coedge $-1 -1 $-1 $31 $23 $32 $33 forward $12 $-1 #
coedge $-1 -1 $-1 $34 $14 $29 $35 forward $8 $-1 #
coedge $-1 -1 $-1 $14 $34 $36 $37 reversed $8 $-1 #
coedge $-1 -1 $-1 $20 $38 $14 $24 reversed $12 $-1 #
edge $-1 -1 $-1 $39 0 $40 20.89999999999999858 $14 $41 forward @7 unknown #
DXID-attrib $-1 -1 $-1 $-1 $16 @10 ASM ENTITY @1 3 #
face $42 -1 $-1 $43 $44 $4 $-1 $45 reversed single #
loop $-1 -1 $-1 $46 $47 $16 #
plane-surface $-1 -1 $-1 1211.150000000000091 27.5 10 0 1 0 0 0 1 forward_v I I I I #
coedge $-1 -1 $-1 $48 $49 $21 $35 reversed $17 $-1 #
coedge $-1 -1 $-1 $50 $51 $52 $53 forward $19 $-1 #
coedge $-1 -1 $-1 $38 $20 $54 $55 forward $12 $-1 #
coedge $-1 -1 $-1 $36 $56 $20 $33 reversed $44 $-1 #
edge $-1 -1 $-1 $39 0 $57 77.6999999999998181 $20 $58 forward @7 unknown #
coedge $-1 -1 $-1 $22 $21 $59 $60 reversed $8 $-1 #
edge $-1 -1 $-1 $40 0 $61 21.29999999999999716 $21 $62 forward @7 unknown #
coedge $-1 -1 $-1 $63 $32 $22 $37 forward $44 $-1 #
edge $-1 -1 $-1 $39 0 $64 21.29999999999999716 $22 $65 forward @7 unknown #
coedge $-1 -1 $-1 $23 $31 $48 $66 reversed $12 $-1 #
vertex $-1 -1 $-1 $24 $67 #
vertex $-1 -1 $-1 $24 $68 #
straight-curve $-1 -1 $-1 1211.150000000000091 6.200000000000001066 10 0 0 1 F 0 F 20.89999999999999858 #
DXID-attrib $-1 -1 $-1 $-1 $26 @10 ASM ENTITY @1 4 #
face $69 -1 $-1 $70 $71 $4 $-1 $72 forward single #
loop $-1 -1 $-1 $-1 $36 $26 #
plane-surface $-1 -1 $-1 1211.150000000000091 6.200000000000001066 10 0 0 1 1 0 0 forward_v I I I I #
loop $-1 -1 $-1 $73 $74 $16 #
coedge $-1 -1 $-1 $59 $75 $63 $76 reversed $27 $-1 #
coedge $-1 -1 $-1 $77 $29 $38 $66 forward $17 $-1 #
coedge $-1 -1 $-1 $29 $77 $78 $79 reversed $17 $-1 #
coedge $-1 -1 $-1 $80 $30 $81 $82 forward $19 $-1 #
coedge $-1 -1 $-1 $30 $80 $83 $84 reversed $19 $-1 #
coedge $-1 -1 $-1 $85 $86 $30 $53 reversed $87 $-1 #
edge $-1 -1 $-1 $88 2.874999999999943157 $89 69.07499999999984652 $30 $90 forward @7 unknown #
coedge $-1 -1 $-1 $91 $92 $31 $55 reversed $71 $-1 #
edge $-1 -1 $-1 $57 0 $93 20.89999999999999858 $31 $94 forward @7 unknown #
coedge $-1 -1 $-1 $32 $63 $91 $95 reversed $44 $-1 #
vertex $-1 -1 $-1 $33 $96 #
straight-curve $-1 -1 $-1 1211.150000000000091 6.200000000000001066 10 1 0 0 F 0 F 77.6999999999998181 #
coedge $-1 -1 $-1 $78 $47 $34 $60 forward $27 $-1 #
edge $-1 -1 $-1 $64 0 $61 20.89999999999999858 $34 $97 forward @7 unknown #
vertex $-1 -1 $-1 $35 $98 #
straight-curve $-1 -1 $-1 1211.150000000000091 6.200000000000001066 30.89999999999999858 0 1 0 F 0 F 21.29999999999999716 #
coedge $-1 -1 $-1 $56 $36 $47 $76 forward $44 $-1 #
vertex $-1 -1 $-1 $60 $99 #
straight-curve $-1 -1 $-1 1211.150000000000091 6.200000000000001066 10 0 1 0 F 0 F 21.29999999999999716 #
edge $-1 -1 $-1 $40 0 $93 77.6999999999998181 $38 $100 forward @7 unknown #
point $-1 -1 $-1 1211.150000000000091 6.200000000000001066 10 #
point $-1 -1 $-1 1211.150000000000091 6.200000000000001066 30.89999999999999858 #
DXID-attrib $-1 -1 $-1 $-1 $43 @10 ASM ENTITY @1 5 #
face $101 -1 $-1 $102 $87 $4 $-1 $103 reversed single #
loop $-1 -1 $-1 $-1 $54 $43 #
plane-surface $-1 -1 $-1 1288.849999999999909 6.200000000000001066 10 1 0 0 0 0 1 forward_v I I I I #
loop $-1 -1 $-1 $-1 $104 $16 #
coedge $-1 -1 $-1 $105 $106 $107 $108 reversed $46 $-1 #
coedge $-1 -1 $-1 $47 $78 $109 $110 reversed $27 $-1 #
edge $-1 -1 $-1 $64 0 $111 77.6999999999998181 $47 $112 forward @7 unknown #
coedge $-1 -1 $-1 $49 $48 $92 $113 forward $17 $-1 #
coedge $-1 -1 $-1 $75 $59 $49 $79 forward $27 $-1 #
edge $-1 -1 $-1 $61 0 $114 77.6999999999998181 $49 $115 forward @7 unknown #
coedge $-1 -1 $-1 $51 $50 $116 $117 reversed $19 $-1 #
coedge $-1 -1 $-1 $118 $119 $50 $82 reversed $120 $-1 #
edge $-1 -1 $-1 $89 -19.47499999999999787 $121 -0.4749999999999987566 $50 $122 forward @7 unknown #
coedge $-1 -1 $-1 $123 $124 $51 $84 forward $125 $-1 #
edge $-1 -1 $-1 $88 -19.47499999999999787 $126 -0.4749999999999987566 $51 $127 forward @7 unknown #
coedge $-1 -1 $-1 $128 $52 $124 $129 forward $87 $-1 #
coedge $-1 -1 $-1 $52 $128 $118 $130 reversed $87 $-1 #
loop $-1 -1 $-1 $-1 $85 $70 #
vertex $-1 -1 $-1 $53 $131 #
vertex $-1 -1 $-1 $53 $132 #
straight-curve $-1 -1 $-1 1214.025000000000091 6.200000000000001066 29.95000000000000284 1 0 0 F 2.874999999999943157 F 69.07499999999984652 #
coedge $-1 -1 $-1 $109 $54 $56 $95 forward $71 $-1 #
coedge $-1 -1 $-1 $54 $109 $77 $113 reversed $71 $-1 #
vertex $-1 -1 $-1 $55 $133 #
straight-curve $-1 -1 $-1 1288.849999999999909 6.200000000000001066 10 0 0 1 F 0 F 20.89999999999999858 #
edge $-1 -1 $-1 $57 0 $111 21.29999999999999716 $56 $134 forward @7 unknown #
point $-1 -1 $-1 1288.849999999999909 6.200000000000001066 10 #
straight-curve $-1 -1 $-1 1211.150000000000091 27.5 10 0 0 1 F 0 F 20.89999999999999858 #
point $-1 -1 $-1 1211.150000000000091 27.5 30.89999999999999858 #
point $-1 -1 $-1 1211.150000000000091 27.5 10 #
straight-curve $-1 -1 $-1 1211.150000000000091 6.200000000000001066 30.89999999999999858 1 0 0 F 0 F 77.6999999999998181 #
DXID-attrib $-1 -1 $-1 $-1 $70 @10 ASM ENTITY @1 6 #
face $135 -1 $-1 $136 $120 $4 $-1 $137 reversed single #
plane-surface $-1 -1 $-1 1216.900000000000091 5.200000000000000178 29.95000000000000284 0 0 1 1 0 0 forward_v I I I I #
coedge $-1 -1 $-1 $138 $139 $140 $141 reversed $73 $-1 #
coedge $-1 -1 $-1 $142 $74 $143 $144 forward $46 $-1 #
coedge $-1 -1 $-1 $74 $142 $145 $146 reversed $46 $-1 #
coedge $-1 -1 $-1 $147 $148 $74 $108 forward $149 $-1 #
edge $-1 -1 $-1 $150 1.450000000000102318 $151 2.450000000000045475 $74 $152 forward @7 unknown #
coedge $-1 -1 $-1 $92 $91 $75 $110 forward $71 $-1 #
edge $-1 -1 $-1 $111 0 $114 20.89999999999999858 $75 $153 forward @7 unknown #
vertex $-1 -1 $-1 $76 $154 #
straight-curve $-1 -1 $-1 1211.150000000000091 27.5 10 1 0 0 F 0 F 77.6999999999998181 #
edge $-1 -1 $-1 $93 0 $114 21.29999999999999716 $77 $155 forward @7 unknown #
vertex $-1 -1 $-1 $113 $156 #
straight-curve $-1 -1 $-1 1211.150000000000091 27.5 30.89999999999999858 1 0 0 F 0 F 77.6999999999998181 #
coedge $-1 -1 $-1 $157 $158 $80 $117 forward $159 $-1 #
edge $-1 -1 $-1 $126 2.874999999999943157 $121 69.07499999999984652 $80 $160 forward @7 unknown #
coedge $-1 -1 $-1 $161 $81 $86 $130 forward $120 $-1 #
coedge $-1 -1 $-1 $81 $161 $157 $162 reversed $120 $-1 #
loop $-1 -1 $-1 $-1 $118 $102 #
vertex $-1 -1 $-1 $82 $163 #
straight-curve $-1 -1 $-1 1283.099999999999909 6.200000000000001066 10.47500000000000142 0 0 -1 F -19.47499999999999787 F -0.4749999999999987566 #
coedge $-1 -1 $-1 $164 $83 $158 $165 forward $125 $-1 #
coedge $-1 -1 $-1 $83 $164 $85 $129 reversed $125 $-1 #
loop $-1 -1 $-1 $-1 $124 $166 #
vertex $-1 -1 $-1 $117 $167 #
straight-curve $-1 -1 $-1 1216.900000000000091 6.200000000000001066 10.47500000000000142 0 0 -1 F -19.47499999999999787 F -0.4749999999999987566 #
coedge $-1 -1 $-1 $86 $85 $168 $169 forward $87 $-1 #
edge $-1 -1 $-1 $88 1.000000000000000888 $170 11.15000000000000213 $85 $171 forward @7 unknown #
edge $-1 -1 $-1 $89 1.000000000000000888 $172 11.15000000000000213 $86 $173 forward @7 unknown #
point $-1 -1 $-1 1216.900000000000091 6.200000000000001066 29.95000000000000284 #
point $-1 -1 $-1 1283.099999999999909 6.200000000000001066 29.95000000000000284 #
point $-1 -1 $-1 1288.849999999999909 6.200000000000001066 30.89999999999999858 #
straight-curve $-1 -1 $-1 1288.849999999999909 6.200000000000001066 10 0 1 0 F 0 F 21.29999999999999716 #
DXID-attrib $-1 -1 $-1 $-1 $102 @10 ASM ENTITY @1 7 #
face $174 -1 $-1 $166 $159 $4 $-1 $175 forward single #
plane-surface $-1 -1 $-1 1283.099999999999909 5.200000000000000178 10.94999999999999929 1 0 0 0 0 1 forward_v I I I I #
coedge $-1 -1 $-1 $176 $104 $177 $178 forward $73 $-1 #
coedge $-1 -1 $-1 $104 $176 $179 $180 reversed $73 $-1 #
coedge $-1 -1 $-1 $181 $182 $104 $141 forward $183 $-1 #
edge $-1 -1 $-1 $184 36.89999999999997726 $185 37.89999999999992042 $104 $186 forward @7 unknown #
coedge $-1 -1 $-1 $106 $105 $187 $188 forward $46 $-1 #
coedge $-1 -1 $-1 $189 $190 $105 $144 reversed $191 $-1 #
edge $-1 -1 $-1 $150 -5.975000000000001421 $192 -4.975000000000000533 $105 $193 forward @7 unknown #
coedge $-1 -1 $-1 $194 $195 $106 $146 forward $196 $-1 #
edge $-1 -1 $-1 $151 -5.975000000000001421 $197 -4.975000000000000533 $106 $198 forward @7 unknown #
coedge $-1 -1 $-1 $199 $107 $195 $200 forward $149 $-1 #
coedge $-1 -1 $-1 $107 $199 $189 $201 reversed $149 $-1 #
loop $-1 -1 $-1 $-1 $148 $202 #
vertex $-1 -1 $-1 $108 $203 #
vertex $-1 -1 $-1 $108 $204 #
straight-curve $-1 -1 $-1 1212.599999999999909 27.5 20.95000000000000284 1 0 0 F 1.450000000000102318 F 2.450000000000045475 #
straight-curve $-1 -1 $-1 1288.849999999999909 27.5 10 0 0 1 F 0 F 20.89999999999999858 #
point $-1 -1 $-1 1288.849999999999909 27.5 10 #
straight-curve $-1 -1 $-1 1288.849999999999909 6.200000000000001066 30.89999999999999858 0 1 0 F 0 F 21.29999999999999716 #
point $-1 -1 $-1 1288.849999999999909 27.5 30.89999999999999858 #
coedge $-1 -1 $-1 $205 $116 $119 $162 forward $159 $-1 #
coedge $-1 -1 $-1 $116 $205 $123 $165 reversed $159 $-1 #
loop $-1 -1 $-1 $-1 $158 $136 #
straight-curve $-1 -1 $-1 1214.025000000000091 6.200000000000001066 10.94999999999999929 1 0 0 F 2.874999999999943157 F 69.07499999999984652 #
coedge $-1 -1 $-1 $119 $118 $206 $207 reversed $120 $-1 #
edge $-1 -1 $-1 $121 1.000000000000000888 $208 11.15000000000000213 $119 $209 forward @7 unknown #
point $-1 -1 $-1 1283.099999999999909 6.200000000000001066 10.94999999999999929 #
coedge $-1 -1 $-1 $124 $123 $210 $211 forward $125 $-1 #
edge $-1 -1 $-1 $126 1.000000000000000888 $212 11.15000000000000213 $158 $213 forward @7 unknown #
face $214 -1 $-1 $202 $125 $4 $-1 $215 forward single #
point $-1 -1 $-1 1216.900000000000091 6.200000000000001066 10.94999999999999929 #
coedge $-1 -1 $-1 $210 $206 $128 $169 reversed $216 $-1 #
edge $-1 -1 $-1 $170 0 $172 66.19999999999990337 $128 $217 forward @14 tangent_not_g2 #
vertex $-1 -1 $-1 $129 $218 #
straight-curve $-1 -1 $-1 1216.900000000000091 5.200000000000000178 29.95000000000000284 0 1 0 F 1.000000000000000888 F 11.15000000000000213 #
vertex $-1 -1 $-1 $169 $219 #
straight-curve $-1 -1 $-1 1283.099999999999909 5.200000000000000178 29.95000000000000284 0 1 0 F 1.000000000000000888 F 11.15000000000000213 #
DXID-attrib $-1 -1 $-1 $-1 $136 @10 ASM ENTITY @1 8 #
plane-surface $-1 -1 $-1 1216.900000000000091 5.200000000000000178 10.94999999999999929 0 0 1 1 0 0 forward_v I I I I #
coedge $-1 -1 $-1 $139 $138 $220 $221 forward $73 $-1 #
coedge $-1 -1 $-1 $222 $223 $138 $178 reversed $224 $-1 #
edge $-1 -1 $-1 $184 -5.975000000000001421 $225 -4.975000000000000533 $138 $226 forward @7 unknown #
coedge $-1 -1 $-1 $227 $228 $139 $180 forward $229 $-1 #
edge $-1 -1 $-1 $185 -5.975000000000001421 $230 -4.975000000000000533 $139 $231 forward @7 unknown #
coedge $-1 -1 $-1 $232 $140 $228 $233 forward $183 $-1 #
coedge $-1 -1 $-1 $140 $232 $222 $234 reversed $183 $-1 #
loop $-1 -1 $-1 $-1 $182 $235 #
vertex $-1 -1 $-1 $141 $236 #
vertex $-1 -1 $-1 $141 $237 #
straight-curve $-1 -1 $-1 1248.050000000000182 27.5 20.95000000000000284 1 0 0 F 36.89999999999997726 F 37.89999999999992042 #
coedge $-1 -1 $-1 $238 $239 $142 $188 reversed $240 $-1 #
edge $-1 -1 $-1 $192 1.450000000000102318 $197 2.450000000000045475 $142 $241 forward @7 unknown #
coedge $-1 -1 $-1 $242 $143 $148 $201 forward $191 $-1 #
coedge $-1 -1 $-1 $143 $242 $238 $243 reversed $191 $-1 #
loop $-1 -1 $-1 $-1 $189 $244 #
vertex $-1 -1 $-1 $144 $245 #
straight-curve $-1 -1 $-1 1214.049999999999955 27.5 14.97500000000000142 0 0 -1 F -5.975000000000001421 F -4.975000000000000533 #
coedge $-1 -1 $-1 $246 $145 $239 $247 forward $196 $-1 #
coedge $-1 -1 $-1 $145 $246 $147 $200 reversed $196 $-1 #
loop $-1 -1 $-1 $-1 $195 $248 #
vertex $-1 -1 $-1 $188 $249 #
straight-curve $-1 -1 $-1 1215.049999999999955 27.5 14.97500000000000142 0 0 -1 F -5.975000000000001421 F -4.975000000000000533 #
coedge $-1 -1 $-1 $148 $147 $250 $251 reversed $149 $-1 #
edge $-1 -1 $-1 $151 0.009999999999998898659 $252 4.310000000000000497 $147 $253 forward @7 unknown #
edge $-1 -1 $-1 $150 0.009999999999998898659 $254 4.310000000000000497 $148 $255 forward @7 unknown #
face $256 -1 $-1 $244 $149 $4 $-1 $257 forward single #
point $-1 -1 $-1 1214.049999999999955 27.5 20.95000000000000284 #
point $-1 -1 $-1 1215.049999999999955 27.5 20.95000000000000284 #
coedge $-1 -1 $-1 $158 $157 $258 $259 reversed $159 $-1 #
coedge $-1 -1 $-1 $168 $258 $161 $207 forward $216 $-1 #
edge $-1 -1 $-1 $208 -3.141592653589793116 $172 0 $161 $260 forward @7 unknown #
vertex $-1 -1 $-1 $207 $261 #
straight-curve $-1 -1 $-1 1283.099999999999909 5.200000000000000178 10.94999999999999929 0 1 0 F 1.000000000000000888 F 11.15000000000000213 #
coedge $-1 -1 $-1 $258 $168 $164 $211 reversed $216 $-1 #
edge $-1 -1 $-1 $212 -3.141592653589793116 $170 0 $164 $262 forward @7 unknown #
vertex $-1 -1 $-1 $165 $263 #
straight-curve $-1 -1 $-1 1216.900000000000091 5.200000000000000178 10.94999999999999929 0 1 0 F 1.000000000000000888 F 11.15000000000000213 #
DXID-attrib $-1 -1 $-1 $-1 $166 @10 ASM ENTITY @1 9 #
plane-surface $-1 -1 $-1 1216.900000000000091 5.200000000000000178 10.94999999999999929 1 0 0 0 0 1 forward_v I I I I #
loop $-1 -1 $-1 $-1 $168 $264 #
straight-curve $-1 -1 $-1 1216.900000000000091 16.35000000000000142 29.95000000000000284 1 0 0 F 0 F 66.19999999999990337 #
point $-1 -1 $-1 1216.900000000000091 16.35000000000000142 29.95000000000000284 #
point $-1 -1 $-1 1283.099999999999909 16.35000000000000142 29.95000000000000284 #
coedge $-1 -1 $-1 $265 $266 $176 $221 reversed $267 $-1 #
edge $-1 -1 $-1 $225 36.89999999999997726 $230 37.89999999999992042 $176 $268 forward @7 unknown #
coedge $-1 -1 $-1 $269 $177 $182 $234 forward $224 $-1 #
coedge $-1 -1 $-1 $177 $269 $265 $270 reversed $224 $-1 #
loop $-1 -1 $-1 $-1 $222 $271 #
vertex $-1 -1 $-1 $178 $272 #
straight-curve $-1 -1 $-1 1284.950000000000045 27.5 14.97500000000000142 0 0 -1 F -5.975000000000001421 F -4.975000000000000533 #
coedge $-1 -1 $-1 $273 $179 $266 $274 forward $229 $-1 #
coedge $-1 -1 $-1 $179 $273 $181 $233 reversed $229 $-1 #
loop $-1 -1 $-1 $-1 $228 $275 #
vertex $-1 -1 $-1 $221 $276 #
straight-curve $-1 -1 $-1 1285.950000000000045 27.5 14.97500000000000142 0 0 -1 F -5.975000000000001421 F -4.975000000000000533 #
coedge $-1 -1 $-1 $182 $181 $277 $278 reversed $183 $-1 #
edge $-1 -1 $-1 $185 0.009999999999998898659 $279 4.310000000000000497 $181 $280 forward @7 unknown #
edge $-1 -1 $-1 $184 0.009999999999998898659 $281 4.310000000000000497 $182 $282 forward @7 unknown #
face $283 -1 $-1 $275 $183 $4 $-1 $284 forward single #
point $-1 -1 $-1 1284.950000000000045 27.5 20.95000000000000284 #
point $-1 -1 $-1 1285.950000000000045 27.5 20.95000000000000284 #
coedge $-1 -1 $-1 $285 $187 $190 $243 forward $240 $-1 #
coedge $-1 -1 $-1 $187 $285 $194 $247 reversed $240 $-1 #
loop $-1 -1 $-1 $-1 $238 $286 #
straight-curve $-1 -1 $-1 1212.599999999999909 27.5 19.95000000000000284 1 0 0 F 1.450000000000102318 F 2.450000000000045475 #
coedge $-1 -1 $-1 $190 $189 $287 $288 reversed $191 $-1 #
edge $-1 -1 $-1 $192 0.009999999999998898659 $289 4.310000000000000497 $190 $290 forward @7 unknown #
face $291 -1 $-1 $248 $191 $4 $-1 $292 reversed single #
point $-1 -1 $-1 1214.049999999999955 27.5 19.95000000000000284 #
coedge $-1 -1 $-1 $195 $194 $293 $294 forward $196 $-1 #
edge $-1 -1 $-1 $197 0.009999999999998898659 $295 4.310000000000000497 $194 $296 forward @7 unknown #
face $297 -1 $-1 $286 $196 $4 $-1 $298 forward single #
point $-1 -1 $-1 1215.049999999999955 27.5 19.95000000000000284 #
coedge $-1 -1 $-1 $293 $287 $199 $251 forward $299 $-1 #
edge $-1 -1 $-1 $254 0 $252 0.9999999999999431566 $199 $300 forward @7 unknown #
vertex $-1 -1 $-1 $200 $301 #
straight-curve $-1 -1 $-1 1215.049999999999955 27.49000000000000199 20.95000000000000284 0 1 0 F 0.009999999999998898659 F 4.310000000000000497 #
vertex $-1 -1 $-1 $201 $302 #
straight-curve $-1 -1 $-1 1214.049999999999955 27.49000000000000199 20.95000000000000284 0 1 0 F 0.009999999999998898659 F 4.310000000000000497 #
DXID-attrib $-1 -1 $-1 $-1 $202 @10 ASM ENTITY @2 10 #
plane-surface $-1 -1 $-1 1214.049999999999955 27.49000000000000199 20.95000000000000284 0 0 1 1 0 0 forward_v I I I I #
coedge $-1 -1 $-1 $206 $210 $205 $259 forward $216 $-1 #
edge $-1 -1 $-1 $212 0 $208 66.19999999999990337 $205 $303 forward @14 tangent_not_g2 #
ellipse-curve $-1 -1 $-1 1283.099999999999909 16.35000000000000142 20.44999999999999929 1 0 0 0 0 9.5 1 F -3.141592653589793116 F 0 #
point $-1 -1 $-1 1283.099999999999909 16.35000000000000142 10.94999999999999929 #
ellipse-curve $-1 -1 $-1 1216.900000000000091 16.35000000000000142 20.44999999999999929 1 0 0 0 0 9.5 1 F -3.141592653589793116 F 0 #
point $-1 -1 $-1 1216.900000000000091 16.35000000000000142 10.94999999999999929 #
face $304 -1 $-1 $305 $216 $4 $-1 $306 reversed single #
coedge $-1 -1 $-1 $307 $220 $223 $270 forward $267 $-1 #
coedge $-1 -1 $-1 $220 $307 $227 $274 reversed $267 $-1 #
loop $-1 -1 $-1 $-1 $265 $308 #
straight-curve $-1 -1 $-1 1248.050000000000182 27.5 19.95000000000000284 1 0 0 F 36.89999999999997726 F 37.89999999999992042 #
coedge $-1 -1 $-1 $223 $222 $309 $310 reversed $224 $-1 #
edge $-1 -1 $-1 $225 0.009999999999998898659 $311 4.310000000000000497 $265 $312 forward @7 unknown #
face $313 -1 $-1 $264 $224 $4 $-1 $314 reversed single #
point $-1 -1 $-1 1284.950000000000045 27.5 19.95000000000000284 #
coedge $-1 -1 $-1 $228 $227 $315 $316 forward $229 $-1 #
edge $-1 -1 $-1 $230 0.009999999999998898659 $317 4.310000000000000497 $227 $318 forward @7 unknown #
face $319 -1 $-1 $308 $229 $4 $-1 $320 forward single #
point $-1 -1 $-1 1285.950000000000045 27.5 19.95000000000000284 #
coedge $-1 -1 $-1 $315 $309 $232 $278 forward $321 $-1 #
edge $-1 -1 $-1 $281 0 $279 0.9999999999999431566 $232 $322 forward @7 unknown #
vertex $-1 -1 $-1 $233 $323 #
straight-curve $-1 -1 $-1 1285.950000000000045 27.49000000000000199 20.95000000000000284 0 1 0 F 0.009999999999998898659 F 4.310000000000000497 #
vertex $-1 -1 $-1 $234 $324 #
straight-curve $-1 -1 $-1 1284.950000000000045 27.49000000000000199 20.95000000000000284 0 1 0 F 0.009999999999998898659 F 4.310000000000000497 #
DXID-attrib $-1 -1 $-1 $-1 $235 @10 ASM ENTITY @2 14 #
plane-surface $-1 -1 $-1 1284.950000000000045 27.49000000000000199 20.95000000000000284 0 0 1 1 0 0 forward_v I I I I #
coedge $-1 -1 $-1 $239 $238 $325 $326 forward $240 $-1 #
face $327 -1 $-1 $235 $240 $4 $-1 $328 reversed single #
coedge $-1 -1 $-1 $250 $325 $242 $288 forward $299 $-1 #
edge $-1 -1 $-1 $289 0 $254 1.000000000000000888 $242 $329 forward @7 unknown #
vertex $-1 -1 $-1 $288 $330 #
straight-curve $-1 -1 $-1 1214.049999999999955 27.49000000000000199 19.95000000000000284 0 1 0 F 0.009999999999998898659 F 4.310000000000000497 #
DXID-attrib $-1 -1 $-1 $-1 $244 @10 ASM ENTITY @2 11 #
plane-surface $-1 -1 $-1 1214.049999999999955 27.49000000000000199 19.95000000000000284 1 0 0 0 0 1 forward_v I I I I #
coedge $-1 -1 $-1 $325 $250 $246 $294 reversed $299 $-1 #
edge $-1 -1 $-1 $295 0 $252 1.000000000000000888 $246 $331 forward @7 unknown #
vertex $-1 -1 $-1 $247 $332 #
straight-curve $-1 -1 $-1 1215.049999999999955 27.49000000000000199 19.95000000000000284 0 1 0 F 0.009999999999998898659 F 4.310000000000000497 #
DXID-attrib $-1 -1 $-1 $-1 $248 @10 ASM ENTITY @2 12 #
plane-surface $-1 -1 $-1 1215.049999999999955 27.49000000000000199 19.95000000000000284 1 0 0 0 0 1 forward_v I I I I #
loop $-1 -1 $-1 $-1 $325 $305 #
straight-curve $-1 -1 $-1 1214.049999999999955 31.80000000000000071 20.95000000000000284 1 0 0 F 0 F 0.9999999999999431566 #
point $-1 -1 $-1 1215.049999999999955 31.80000000000000071 20.95000000000000284 #
point $-1 -1 $-1 1214.049999999999955 31.80000000000000071 20.95000000000000284 #
straight-curve $-1 -1 $-1 1216.900000000000091 16.35000000000000142 10.94999999999999929 1 0 0 F 0 F 66.19999999999990337 #
DXID-attrib $-1 -1 $-1 $-1 $264 @10 ASM ENTITY @2 18 #
face $333 -1 $-1 $334 $299 $4 $-1 $335 forward single #
cone-surface $-1 -1 $-1 1216.900000000000091 16.35000000000000142 20.44999999999999929 1 0 0 0 0 9.5 1 I I 0 1 9.5 forward I I I I #
coedge $-1 -1 $-1 $266 $265 $336 $337 forward $267 $-1 #
face $338 -1 $-1 $271 $267 $4 $-1 $339 reversed single #
coedge $-1 -1 $-1 $277 $336 $269 $310 forward $321 $-1 #
edge $-1 -1 $-1 $311 0 $281 1.000000000000000888 $269 $340 forward @7 unknown #
vertex $-1 -1 $-1 $270 $341 #
straight-curve $-1 -1 $-1 1284.950000000000045 27.49000000000000199 19.95000000000000284 0 1 0 F 0.009999999999998898659 F 4.310000000000000497 #
DXID-attrib $-1 -1 $-1 $-1 $271 @10 ASM ENTITY @2 17 #
plane-surface $-1 -1 $-1 1284.950000000000045 27.49000000000000199 19.95000000000000284 1 0 0 0 0 1 forward_v I I I I #
coedge $-1 -1 $-1 $336 $277 $273 $316 reversed $321 $-1 #
edge $-1 -1 $-1 $317 0 $279 1.000000000000000888 $273 $342 forward @7 unknown #
vertex $-1 -1 $-1 $274 $343 #
straight-curve $-1 -1 $-1 1285.950000000000045 27.49000000000000199 19.95000000000000284 0 1 0 F 0.009999999999998898659 F 4.310000000000000497 #
DXID-attrib $-1 -1 $-1 $-1 $275 @10 ASM ENTITY @2 15 #
plane-surface $-1 -1 $-1 1285.950000000000045 27.49000000000000199 19.95000000000000284 1 0 0 0 0 1 forward_v I I I I #
loop $-1 -1 $-1 $-1 $336 $334 #
straight-curve $-1 -1 $-1 1284.950000000000045 31.80000000000000071 20.95000000000000284 1 0 0 F 0 F 0.9999999999999431566 #
point $-1 -1 $-1 1285.950000000000045 31.80000000000000071 20.95000000000000284 #
point $-1 -1 $-1 1284.950000000000045 31.80000000000000071 20.95000000000000284 #
coedge $-1 -1 $-1 $287 $293 $285 $326 reversed $299 $-1 #
edge $-1 -1 $-1 $289 0 $295 0.9999999999999431566 $285 $344 forward @7 unknown #
DXID-attrib $-1 -1 $-1 $-1 $286 @10 ASM ENTITY @2 13 #
plane-surface $-1 -1 $-1 1214.049999999999955 27.49000000000000199 19.95000000000000284 0 0 1 1 0 0 forward_v I I I I #
straight-curve $-1 -1 $-1 1214.049999999999955 31.80000000000000071 19.95000000000000284 0 0 1 F 0 F 1.000000000000000888 #
point $-1 -1 $-1 1214.049999999999955 31.80000000000000071 19.95000000000000284 #
straight-curve $-1 -1 $-1 1215.049999999999955 31.80000000000000071 19.95000000000000284 0 0 1 F 0 F 1.000000000000000888 #
point $-1 -1 $-1 1215.049999999999955 31.80000000000000071 19.95000000000000284 #
DXID-attrib $-1 -1 $-1 $-1 $305 @10 ASM ENTITY @2 19 #
face $345 -1 $-1 $-1 $321 $4 $-1 $346 forward single #
plane-surface $-1 -1 $-1 1214.049999999999955 31.80000000000000071 19.95000000000000284 0 1 0 0 0 1 forward_v I I I I #
coedge $-1 -1 $-1 $309 $315 $307 $337 reversed $321 $-1 #
edge $-1 -1 $-1 $311 0 $317 0.9999999999999431566 $307 $347 forward @7 unknown #
DXID-attrib $-1 -1 $-1 $-1 $308 @10 ASM ENTITY @2 16 #
plane-surface $-1 -1 $-1 1284.950000000000045 27.49000000000000199 19.95000000000000284 0 0 1 1 0 0 forward_v I I I I #
straight-curve $-1 -1 $-1 1284.950000000000045 31.80000000000000071 19.95000000000000284 0 0 1 F 0 F 1.000000000000000888 #
point $-1 -1 $-1 1284.950000000000045 31.80000000000000071 19.95000000000000284 #
straight-curve $-1 -1 $-1 1285.950000000000045 31.80000000000000071 19.95000000000000284 0 0 1 F 0 F 1.000000000000000888 #
point $-1 -1 $-1 1285.950000000000045 31.80000000000000071 19.95000000000000284 #
straight-curve $-1 -1 $-1 1214.049999999999955 31.80000000000000071 19.95000000000000284 1 0 0 F 0 F 0.9999999999999431566 #
DXID-attrib $-1 -1 $-1 $-1 $334 @10 ASM ENTITY @2 20 #
plane-surface $-1 -1 $-1 1284.950000000000045 31.80000000000000071 19.95000000000000284 0 1 0 0 0 1 forward_v I I I I #
straight-curve $-1 -1 $-1 1284.950000000000045 31.80000000000000071 19.95000000000000284 1 0 0 F 0 F 0.9999999999999431566 #
End-of-ACIS-data 