700 0 1 0           
30 Autodesk Translation Framework 21 ASM 232.4.0.65535 OSX 24 Fri Sep 18 19:26:50 2026 
1 9.999999999999999547e-07 1.000000000000000036e-10 
body $1 -1 $-1 $2 $-1 $-1 #
rgb_color-st-attrib $-1 -1 $3 $-1 $0 0.627450980392156854 0.627450980392156854 0.627450980392156854 #
lump $-1 -1 $-1 $-1 $4 $0 #
ATTRIB_CUSTOM-attrib $-1 -1 $-1 $1 $0 @20 Timestamp_attrib_def 1 1789756010004969 #
shell $-1 -1 $-1 $-1 $-1 $5 $-1 $2 #
face $6 -1 $-1 $7 $8 $4 $-1 $9 reversed single #
DXID-attrib $-1 -1 $-1 $-1 $5 @10 ASM ENTITY @1 0 #
face $10 -1 $-1 $11 $12 $4 $-1 $13 reversed single #
loop $-1 -1 $-1 $-1 $14 $5 #
plane-surface $-1 -1 $-1 1472.000000000000227 -8 -80 1 0 0 0 0 1 forward_v I I I I #
DXID-attrib $-1 -1 $-1 $-1 $7 @10 ASM ENTITY @1 1 #
face $15 -1 $-1 $16 $17 $4 $-1 $18 forward single #
loop $-1 -1 $-1 $19 $20 $7 #
plane-surface $-1 -1 $-1 1472.000000000000227 -8 -80 0 1 0 0 0 1 forward_v I I I I #
coedge $-1 -1 $-1 $21 $22 $23 $24 forward $8 $-1 #
DXID-attrib $-1 -1 $-1 $-1 $11 @10 ASM ENTITY @1 2 #
face $25 -1 $-1 $26 $27 $4 $-1 $28 forward single #
loop $-1 -1 $-1 $-1 $29 $11 #
plane-surface $-1 -1 $-1 1472.000000000000227 -8 -11 0 0 1 1 0 0 forward_v I I I I #
loop $-1 -1 $-1 $-1 $30 $7 #
coedge $-1 -1 $-1 $31 $23 $32 $33 forward $12 $-1 #
coedge $-1 -1 $-1 $34 $14 $29 $35 forward $8 $-1 #
coedge $-1 -1 $-1 $14 $34 $36 $37 reversed $8 $-1 #
coedge $-1 -1 $-1 $20 $38 $14 $24 reversed $12 $-1 #
edge $-1 -1 $-1 $39 0 $40 69 $14 $41 forward @7 unknown #
DXID-attrib $-1 -1 $-1 $-1 $16 @10 ASM ENTITY @1 3 #
face $42 -1 $-1 $43 $44 $4 $-1 $45 reversed single #
loop $-1 -1 $-1 $46 $47 $16 #
plane-surface $-1 -1 $-1 1472.000000000000227 4 -80 0 1 0 0 0 1 forward_v I I I I #
coedge $-1 -1 $-1 $48 $49 $21 $35 reversed $17 $-1 #
coedge $-1 -1 $-1 $50 $51 $52 $53 forward $19 $-1 #
coedge $-1 -1 $-1 $38 $20 $54 $55 forward $12 $-1 #
coedge $-1 -1 $-1 $36 $56 $20 $33 reversed $44 $-1 #
edge $-1 -1 $-1 $39 0 $57 155.9999999999999432 $20 $58 forward @7 unknown #
coedge $-1 -1 $-1 $22 $21 $59 $60 reversed $8 $-1 #
edge $-1 -1 $-1 $40 0 $61 12.00000000000000178 $21 $62 forward @7 unknown #
coedge $-1 -1 $-1 $63 $32 $22 $37 forward $44 $-1 #
edge $-1 -1 $-1 $39 0 $64 12.00000000000000178 $22 $65 forward @7 unknown #
coedge $-1 -1 $-1 $23 $31 $48 $66 reversed $12 $-1 #
vertex $-1 -1 $-1 $24 $67 #
vertex $-1 -1 $-1 $24 $68 #
straight-curve $-1 -1 $-1 1472.000000000000227 -8 -80 0 0 1 F 0 F 69 #
DXID-attrib $-1 -1 $-1 $-1 $26 @10 ASM ENTITY @1 4 #
face $69 -1 $-1 $70 $71 $4 $-1 $72 forward single #
loop $-1 -1 $-1 $-1 $36 $26 #
plane-surface $-1 -1 $-1 1472.000000000000227 -8 -80 0 0 1 1 0 0 forward_v I I I I #
loop $-1 -1 $-1 $-1 $73 $16 #
coedge $-1 -1 $-1 $59 $74 $63 $75 reversed $27 $-1 #
coedge $-1 -1 $-1 $76 $29 $38 $66 forward $17 $-1 #
coedge $-1 -1 $-1 $29 $76 $77 $78 reversed $17 $-1 #
coedge $-1 -1 $-1 $79 $30 $80 $81 forward $19 $-1 #
coedge $-1 -1 $-1 $30 $79 $82 $83 reversed $19 $-1 #
coedge $-1 -1 $-1 $84 $85 $30 $53 reversed $86 $-1 #
edge $-1 -1 $-1 $87 14.00000000000005684 $88 114.0000000000000568 $30 $89 forward @7 unknown #
coedge $-1 -1 $-1 $90 $91 $31 $55 reversed $71 $-1 #
edge $-1 -1 $-1 $57 0 $92 69 $31 $93 forward @7 unknown #
coedge $-1 -1 $-1 $32 $63 $90 $94 reversed $44 $-1 #
vertex $-1 -1 $-1 $33 $95 #
straight-curve $-1 -1 $-1 1472.000000000000227 -8 -80 1 0 0 F 0 F 155.9999999999999432 #
coedge $-1 -1 $-1 $77 $47 $34 $60 forward $27 $-1 #
edge $-1 -1 $-1 $64 0 $61 69 $34 $96 forward @7 unknown #
vertex $-1 -1 $-1 $35 $97 #
straight-curve $-1 -1 $-1 1472.000000000000227 -8 -11 0 1 0 F 0 F 12.00000000000000178 #
coedge $-1 -1 $-1 $56 $36 $47 $75 forward $44 $-1 #
vertex $-1 -1 $-1 $60 $98 #
straight-curve $-1 -1 $-1 1472.000000000000227 -8 -80 0 1 0 F 0 F 12.00000000000000178 #
edge $-1 -1 $-1 $40 0 $92 155.9999999999999432 $38 $99 forward @7 unknown #
point $-1 -1 $-1 1472.000000000000227 -8 -80 #
point $-1 -1 $-1 1472.000000000000227 -8 -11 #
DXID-attrib $-1 -1 $-1 $-1 $43 @10 ASM ENTITY @1 5 #
face $100 -1 $-1 $101 $86 $4 $-1 $102 reversed single #
loop $-1 -1 $-1 $-1 $54 $43 #
plane-surface $-1 -1 $-1 1628 -8 -80 1 0 0 0 0 1 forward_v I I I I #
coedge $-1 -1 $-1 $103 $104 $105 $106 reversed $46 $-1 #
coedge $-1 -1 $-1 $47 $77 $107 $108 reversed $27 $-1 #
edge $-1 -1 $-1 $64 0 $109 155.9999999999999432 $47 $110 forward @7 unknown #
coedge $-1 -1 $-1 $49 $48 $91 $111 forward $17 $-1 #
coedge $-1 -1 $-1 $74 $59 $49 $78 forward $27 $-1 #
edge $-1 -1 $-1 $61 0 $112 155.9999999999999432 $49 $113 forward @7 unknown #
coedge $-1 -1 $-1 $51 $50 $114 $115 reversed $19 $-1 #
coedge $-1 -1 $-1 $116 $117 $50 $81 reversed $118 $-1 #
edge $-1 -1 $-1 $88 -42.00000000000000711 $119 -7.000000000000001776 $50 $120 forward @7 unknown #
coedge $-1 -1 $-1 $121 $122 $51 $83 forward $123 $-1 #
edge $-1 -1 $-1 $87 -42.00000000000000711 $124 -7.000000000000001776 $51 $125 forward @7 unknown #
coedge $-1 -1 $-1 $105 $52 $122 $126 forward $86 $-1 #
coedge $-1 -1 $-1 $52 $105 $116 $127 reversed $86 $-1 #
loop $-1 -1 $-1 $128 $84 $70 #
vertex $-1 -1 $-1 $53 $129 #
vertex $-1 -1 $-1 $53 $130 #
straight-curve $-1 -1 $-1 1486 -8 -31 1 0 0 F 14.00000000000005684 F 114.0000000000000568 #
coedge $-1 -1 $-1 $107 $54 $56 $94 forward $71 $-1 #
coedge $-1 -1 $-1 $54 $107 $76 $111 reversed $71 $-1 #
vertex $-1 -1 $-1 $55 $131 #
straight-curve $-1 -1 $-1 1628 -8 -80 0 0 1 F 0 F 69 #
edge $-1 -1 $-1 $57 0 $109 12.00000000000000178 $56 $132 forward @7 unknown #
point $-1 -1 $-1 1628 -8 -80 #
straight-curve $-1 -1 $-1 1472.000000000000227 4 -80 0 0 1 F 0 F 69 #
point $-1 -1 $-1 1472.000000000000227 4 -11 #
point $-1 -1 $-1 1472.000000000000227 4 -80 #
straight-curve $-1 -1 $-1 1472.000000000000227 -8 -11 1 0 0 F 0 F 155.9999999999999432 #
DXID-attrib $-1 -1 $-1 $-1 $70 @10 ASM ENTITY @1 6 #
face $133 -1 $-1 $134 $118 $4 $-1 $135 reversed single #
plane-surface $-1 -1 $-1 1500 -9 -31 0 0 1 1 0 0 forward_v I I I I #
coedge $-1 -1 $-1 $136 $73 $137 $138 forward $46 $-1 #
coedge $-1 -1 $-1 $73 $136 $139 $140 reversed $46 $-1 #
coedge $-1 -1 $-1 $85 $84 $73 $106 forward $86 $-1 #
edge $-1 -1 $-1 $141 14.00000000000005684 $142 114.0000000000000568 $73 $143 forward @7 unknown #
coedge $-1 -1 $-1 $91 $90 $74 $108 forward $71 $-1 #
edge $-1 -1 $-1 $109 0 $112 69 $74 $144 forward @7 unknown #
vertex $-1 -1 $-1 $75 $145 #
straight-curve $-1 -1 $-1 1472.000000000000227 4 -80 1 0 0 F 0 F 155.9999999999999432 #
edge $-1 -1 $-1 $92 0 $112 12.00000000000000178 $76 $146 forward @7 unknown #
vertex $-1 -1 $-1 $111 $147 #
straight-curve $-1 -1 $-1 1472.000000000000227 4 -11 1 0 0 F 0 F 155.9999999999999432 #
coedge $-1 -1 $-1 $148 $149 $79 $115 forward $150 $-1 #
edge $-1 -1 $-1 $124 14.00000000000005684 $119 114.0000000000000568 $79 $151 forward @7 unknown #
coedge $-1 -1 $-1 $139 $80 $85 $127 forward $118 $-1 #
coedge $-1 -1 $-1 $80 $139 $148 $152 reversed $118 $-1 #
loop $-1 -1 $-1 $-1 $116 $101 #
vertex $-1 -1 $-1 $81 $153 #
straight-curve $-1 -1 $-1 1600 -8 -73 0 0 -1 F -42.00000000000000711 F -7.000000000000001776 #
coedge $-1 -1 $-1 $137 $82 $149 $154 forward $123 $-1 #
coedge $-1 -1 $-1 $82 $137 $84 $126 reversed $123 $-1 #
loop $-1 -1 $-1 $-1 $122 $155 #
vertex $-1 -1 $-1 $115 $156 #
straight-curve $-1 -1 $-1 1500 -8 -73 0 0 -1 F -42.00000000000000711 F -7.000000000000001776 #
edge $-1 -1 $-1 $87 0.999999999999999778 $141 13 $84 $157 forward @7 unknown #
edge $-1 -1 $-1 $88 0.999999999999999778 $142 13 $85 $158 forward @7 unknown #
loop $-1 -1 $-1 $-1 $159 $70 #
point $-1 -1 $-1 1500 -8 -31 #
point $-1 -1 $-1 1600 -8 -31 #
point $-1 -1 $-1 1628 -8 -11 #
straight-curve $-1 -1 $-1 1628 -8 -80 0 1 0 F 0 F 12.00000000000000178 #
DXID-attrib $-1 -1 $-1 $-1 $101 @10 ASM ENTITY @1 7 #
face $160 -1 $-1 $155 $150 $4 $-1 $161 forward single #
plane-surface $-1 -1 $-1 1600 -9 -66 1 0 0 0 0 1 forward_v I I I I #
coedge $-1 -1 $-1 $104 $103 $162 $163 forward $46 $-1 #
coedge $-1 -1 $-1 $122 $121 $103 $138 reversed $123 $-1 #
edge $-1 -1 $-1 $141 -42.00000000000000711 $164 -7.000000000000001776 $103 $165 forward @7 unknown #
coedge $-1 -1 $-1 $117 $116 $104 $140 forward $118 $-1 #
edge $-1 -1 $-1 $142 -42.00000000000000711 $166 -7.000000000000001776 $104 $167 forward @7 unknown #
vertex $-1 -1 $-1 $106 $168 #
vertex $-1 -1 $-1 $106 $169 #
straight-curve $-1 -1 $-1 1486 4 -31 1 0 0 F 14.00000000000005684 F 114.0000000000000568 #
straight-curve $-1 -1 $-1 1628 4 -80 0 0 1 F 0 F 69 #
point $-1 -1 $-1 1628 4 -80 #
straight-curve $-1 -1 $-1 1628 -8 -11 0 1 0 F 0 F 12.00000000000000178 #
point $-1 -1 $-1 1628 4 -11 #
coedge $-1 -1 $-1 $162 $114 $117 $152 forward $150 $-1 #
coedge $-1 -1 $-1 $114 $162 $121 $154 reversed $150 $-1 #
loop $-1 -1 $-1 $-1 $149 $134 #
straight-curve $-1 -1 $-1 1486 -8 -66 1 0 0 F 14.00000000000005684 F 114.0000000000000568 #
edge $-1 -1 $-1 $119 0.999999999999999778 $166 13 $117 $170 forward @7 unknown #
point $-1 -1 $-1 1600 -8 -66 #
edge $-1 -1 $-1 $124 0.999999999999999778 $164 13 $149 $171 forward @7 unknown #
face $172 -1 $-1 $173 $123 $4 $-1 $174 forward single #
point $-1 -1 $-1 1500 -8 -66 #
straight-curve $-1 -1 $-1 1500 -9 -31 0 1 0 F 0.999999999999999778 F 13 #
straight-curve $-1 -1 $-1 1600 -9 -31 0 1 0 F 0.999999999999999778 F 13 #
coedge $-1 -1 $-1 $159 $159 $175 $176 forward $128 $-1 #
DXID-attrib $-1 -1 $-1 $-1 $134 @10 ASM ENTITY @1 8 #
plane-surface $-1 -1 $-1 1500 -9 -66 0 0 1 1 0 0 forward_v I I I I #
coedge $-1 -1 $-1 $149 $148 $136 $163 reversed $150 $-1 #
edge $-1 -1 $-1 $164 14.00000000000005684 $166 114.0000000000000568 $136 $177 forward @7 unknown #
vertex $-1 -1 $-1 $138 $178 #
straight-curve $-1 -1 $-1 1500 4 -73 0 0 -1 F -42.00000000000000711 F -7.000000000000001776 #
vertex $-1 -1 $-1 $163 $179 #
straight-curve $-1 -1 $-1 1600 4 -73 0 0 -1 F -42.00000000000000711 F -7.000000000000001776 #
point $-1 -1 $-1 1500 4 -31 #
point $-1 -1 $-1 1600 4 -31 #
straight-curve $-1 -1 $-1 1600 -9 -66 0 1 0 F 0.999999999999999778 F 13 #
straight-curve $-1 -1 $-1 1500 -9 -66 0 1 0 F 0.999999999999999778 F 13 #
DXID-attrib $-1 -1 $-1 $-1 $155 @10 ASM ENTITY @1 9 #
face $180 -1 $-1 $181 $182 $4 $-1 $183 reversed single #
plane-surface $-1 -1 $-1 1500 -9 -66 1 0 0 0 0 1 forward_v I I I I #
coedge $-1 -1 $-1 $175 $175 $159 $176 reversed $182 $-1 #
edge $-1 -1 $-1 $184 0 $184 6.283185307179586232 $159 $185 forward @7 unknown #
straight-curve $-1 -1 $-1 1486 4 -66 1 0 0 F 14.00000000000005684 F 114.0000000000000568 #
point $-1 -1 $-1 1500 4 -66 #
point $-1 -1 $-1 1600 4 -66 #
DXID-attrib $-1 -1 $-1 $-1 $173 @10 ASM ENTITY @2 10 #
face $186 -1 $-1 $-1 $187 $4 $-1 $188 reversed single #
loop $-1 -1 $-1 $189 $175 $173 #
cone-surface $-1 -1 $-1 1550 -2 -32 0 0 1 3.100000000000000533 0 0 1 I I 0 1 3.100000000000000533 forward I I I I #
vertex $-1 -1 $-1 $176 $190 #
ellipse-curve $-1 -1 $-1 1550 -2 -31 0 0 1 3.100000000000000533 0 0 1 I I #
DXID-attrib $-1 -1 $-1 $-1 $181 @10 ASM ENTITY @2 11 #
loop $-1 -1 $-1 $-1 $191 $181 #
plane-surface $-1 -1 $-1 1550 -2 -27.80000000000000426 0 0 1 1 0 0 forward_v I I I I #
loop $-1 -1 $-1 $-1 $192 $173 #
point $-1 -1 $-1 1553.099999999999909 -2 -31 #
coedge $-1 -1 $-1 $191 $191 $192 $193 reversed $187 $-1 #
coedge $-1 -1 $-1 $192 $192 $191 $193 forward $189 $-1 #
edge $-1 -1 $-1 $194 0 $194 6.283185307179586232 $192 $195 forward @7 unknown #
vertex $-1 -1 $-1 $193 $196 #
ellipse-curve $-1 -1 $-1 1550 -2 -27.80000000000000426 0 0 1 3.100000000000000533 0 0 1 I I #
point $-1 -1 $-1 1553.099999999999909 -2 -27.80000000000000426 #
End-of-ACIS-data 