700 0 1 0           
30 Autodesk Translation Framework 21 ASM 232.4.0.65535 OSX 24 Fri Sep 18 17:51:53 2026 
1 9.999999999999999547e-07 1.000000000000000036e-10 
body $1 -1 $-1 $2 $-1 $-1 #
rgb_color-st-attrib $-1 -1 $3 $-1 $0 0.627450980392156854 0.627450980392156854 0.627450980392156854 #
lump $-1 -1 $-1 $-1 $4 $0 #
ATTRIB_CUSTOM-attrib $-1 -1 $-1 $1 $0 @20 Timestamp_attrib_def 1 1789750313143432 #
shell $-1 -1 $-1 $-1 $-1 $5 $-1 $2 #
face $6 -1 $-1 $7 $8 $4 $-1 $9 reversed single #
DXID-attrib $-1 -1 $-1 $-1 $5 @10 ASM ENTITY @1 0 #
face $10 -1 $-1 $11 $12 $4 $-1 $13 reversed single #
loop $-1 -1 $-1 $-1 $14 $5 #
plane-surface $-1 -1 $-1 1778.400000000000318 -1.750000000000000222 97.82500000000000284 1 0 0 0 0 1 forward_v I I I I #
DXID-attrib $-1 -1 $-1 $-1 $7 @10 ASM ENTITY @1 1 #
face $15 -1 $-1 $16 $17 $4 $-1 $18 forward single #
loop $-1 -1 $-1 $-1 $19 $7 #
plane-surface $-1 -1 $-1 1778.400000000000318 -1.750000000000000222 97.82500000000000284 0 1 0 0 0 1 forward_v I I I I #
coedge $-1 -1 $-1 $20 $21 $22 $23 forward $8 $-1 #
DXID-attrib $-1 -1 $-1 $-1 $11 @10 ASM ENTITY @1 2 #
face $24 -1 $-1 $25 $26 $4 $-1 $27 forward single #
loop $-1 -1 $-1 $-1 $28 $11 #
plane-surface $-1 -1 $-1 1778.400000000000318 -1.750000000000000222 110.1749999999999972 0 0 1 1 0 0 forward_v I I I I #
coedge $-1 -1 $-1 $29 $22 $30 $31 forward $12 $-1 #
coedge $-1 -1 $-1 $32 $14 $28 $33 forward $8 $-1 #
coedge $-1 -1 $-1 $14 $32 $34 $35 reversed $8 $-1 #
coedge $-1 -1 $-1 $19 $36 $14 $23 reversed $12 $-1 #
edge $-1 -1 $-1 $37 0 $38 12.34999999999999432 $14 $39 forward @7 unknown #
DXID-attrib $-1 -1 $-1 $-1 $16 @10 ASM ENTITY @1 3 #
face $40 -1 $-1 $41 $42 $4 $-1 $43 reversed single #
loop $-1 -1 $-1 $-1 $44 $16 #
plane-surface $-1 -1 $-1 1778.400000000000318 4.75 97.82500000000000284 0 1 0 0 0 1 forward_v I I I I #
coedge $-1 -1 $-1 $45 $46 $20 $33 reversed $17 $-1 #
coedge $-1 -1 $-1 $36 $19 $47 $48 forward $12 $-1 #
coedge $-1 -1 $-1 $34 $49 $19 $31 reversed $42 $-1 #
edge $-1 -1 $-1 $37 0 $50 23.99999999999977263 $19 $51 forward @7 unknown #
coedge $-1 -1 $-1 $21 $20 $52 $53 reversed $8 $-1 #
edge $-1 -1 $-1 $38 0 $54 6.5 $20 $55 forward @7 unknown #
coedge $-1 -1 $-1 $56 $30 $21 $35 forward $42 $-1 #
edge $-1 -1 $-1 $37 0 $57 6.5 $21 $58 forward @7 unknown #
coedge $-1 -1 $-1 $22 $29 $45 $59 reversed $12 $-1 #
vertex $-1 -1 $-1 $23 $60 #
vertex $-1 -1 $-1 $23 $61 #
straight-curve $-1 -1 $-1 1778.400000000000318 -1.750000000000000222 97.82500000000000284 0 0 1 F 0 F 12.34999999999999432 #
DXID-attrib $-1 -1 $-1 $-1 $25 @10 ASM ENTITY @1 4 #
face $62 -1 $-1 $63 $64 $4 $-1 $65 forward single #
loop $-1 -1 $-1 $-1 $34 $25 #
plane-surface $-1 -1 $-1 1778.400000000000318 -1.750000000000000222 97.82500000000000284 0 0 1 1 0 0 forward_v I I I I #
coedge $-1 -1 $-1 $52 $66 $56 $67 reversed $26 $-1 #
coedge $-1 -1 $-1 $68 $28 $36 $59 forward $17 $-1 #
coedge $-1 -1 $-1 $28 $68 $69 $70 reversed $17 $-1 #
coedge $-1 -1 $-1 $71 $72 $29 $48 reversed $64 $-1 #
edge $-1 -1 $-1 $50 0 $73 12.34999999999999432 $29 $74 forward @7 unknown #
coedge $-1 -1 $-1 $30 $56 $71 $75 reversed $42 $-1 #
vertex $-1 -1 $-1 $31 $76 #
straight-curve $-1 -1 $-1 1778.400000000000318 -1.750000000000000222 97.82500000000000284 1 0 0 F 0 F 23.99999999999977263 #
coedge $-1 -1 $-1 $69 $44 $32 $53 forward $26 $-1 #
edge $-1 -1 $-1 $57 0 $54 12.34999999999999432 $32 $77 forward @7 unknown #
vertex $-1 -1 $-1 $33 $78 #
straight-curve $-1 -1 $-1 1778.400000000000318 -1.750000000000000222 110.1749999999999972 0 1 0 F 0 F 6.5 #
coedge $-1 -1 $-1 $49 $34 $44 $67 forward $42 $-1 #
vertex $-1 -1 $-1 $53 $79 #
straight-curve $-1 -1 $-1 1778.400000000000318 -1.750000000000000222 97.82500000000000284 0 1 0 F 0 F 6.5 #
edge $-1 -1 $-1 $38 0 $73 23.99999999999977263 $36 $80 forward @7 unknown #
point $-1 -1 $-1 1778.400000000000318 -1.750000000000000222 97.82500000000000284 #
point $-1 -1 $-1 1778.400000000000318 -1.750000000000000222 110.1749999999999972 #
DXID-attrib $-1 -1 $-1 $-1 $41 @10 ASM ENTITY @1 5 #
face $81 -1 $-1 $82 $83 $4 $-1 $84 reversed single #
loop $-1 -1 $-1 $85 $47 $41 #
plane-surface $-1 -1 $-1 1802.400000000000091 -1.750000000000000222 97.82500000000000284 1 0 0 0 0 1 forward_v I I I I #
coedge $-1 -1 $-1 $44 $69 $86 $87 reversed $26 $-1 #
edge $-1 -1 $-1 $57 0 $88 23.99999999999977263 $44 $89 forward @7 unknown #
coedge $-1 -1 $-1 $46 $45 $72 $90 forward $17 $-1 #
coedge $-1 -1 $-1 $66 $52 $46 $70 forward $26 $-1 #
edge $-1 -1 $-1 $54 0 $91 23.99999999999977263 $46 $92 forward @7 unknown #
coedge $-1 -1 $-1 $86 $47 $49 $75 forward $64 $-1 #
coedge $-1 -1 $-1 $47 $86 $68 $90 reversed $64 $-1 #
vertex $-1 -1 $-1 $48 $93 #
straight-curve $-1 -1 $-1 1802.400000000000091 -1.750000000000000222 97.82500000000000284 0 0 1 F 0 F 12.34999999999999432 #
edge $-1 -1 $-1 $50 0 $88 6.5 $49 $94 forward @7 unknown #
point $-1 -1 $-1 1802.400000000000091 -1.750000000000000222 97.82500000000000284 #
straight-curve $-1 -1 $-1 1778.400000000000318 4.75 97.82500000000000284 0 0 1 F 0 F 12.34999999999999432 #
point $-1 -1 $-1 1778.400000000000318 4.75 110.1749999999999972 #
point $-1 -1 $-1 1778.400000000000318 4.75 97.82500000000000284 #
straight-curve $-1 -1 $-1 1778.400000000000318 -1.750000000000000222 110.1749999999999972 1 0 0 F 0 F 23.99999999999977263 #
DXID-attrib $-1 -1 $-1 $-1 $63 @10 ASM ENTITY @1 6 #
face $95 -1 $-1 $96 $97 $4 $-1 $98 forward single #
loop $-1 -1 $-1 $-1 $99 $63 #
plane-surface $-1 -1 $-1 1802.390000000000327 0.2999999999999999889 99.9000000000000199 0 0 1 1 0 0 forward_v I I I I #
loop $-1 -1 $-1 $-1 $100 $41 #
coedge $-1 -1 $-1 $72 $71 $66 $87 forward $64 $-1 #
edge $-1 -1 $-1 $88 0 $91 12.34999999999999432 $66 $101 forward @7 unknown #
vertex $-1 -1 $-1 $67 $102 #
straight-curve $-1 -1 $-1 1778.400000000000318 4.75 97.82500000000000284 1 0 0 F 0 F 23.99999999999977263 #
edge $-1 -1 $-1 $73 0 $91 6.5 $68 $103 forward @7 unknown #
vertex $-1 -1 $-1 $90 $104 #
straight-curve $-1 -1 $-1 1778.400000000000318 4.75 110.1749999999999972 1 0 0 F 0 F 23.99999999999977263 #
point $-1 -1 $-1 1802.400000000000091 -1.750000000000000222 110.1749999999999972 #
straight-curve $-1 -1 $-1 1802.400000000000091 -1.750000000000000222 97.82500000000000284 0 1 0 F 0 F 6.5 #
DXID-attrib $-1 -1 $-1 $-1 $82 @10 ASM ENTITY @1 7 #
face $105 -1 $-1 $106 $107 $4 $-1 $108 forward single #
loop $-1 -1 $-1 $-1 $109 $82 #
plane-surface $-1 -1 $-1 1802.390000000000327 2.700000000000000178 99.9000000000000199 0 1 0 0 0 1 forward_v I I I I #
coedge $-1 -1 $-1 $110 $111 $109 $112 forward $83 $-1 #
coedge $-1 -1 $-1 $113 $114 $111 $115 forward $85 $-1 #
straight-curve $-1 -1 $-1 1802.400000000000091 4.75 97.82500000000000284 0 0 1 F 0 F 12.34999999999999432 #
point $-1 -1 $-1 1802.400000000000091 4.75 97.82500000000000284 #
straight-curve $-1 -1 $-1 1802.400000000000091 -1.750000000000000222 110.1749999999999972 0 1 0 F 0 F 6.5 #
point $-1 -1 $-1 1802.400000000000091 4.75 110.1749999999999972 #
DXID-attrib $-1 -1 $-1 $-1 $96 @10 ASM ENTITY @1 8 #
face $116 -1 $-1 $117 $118 $4 $-1 $119 reversed single #
loop $-1 -1 $-1 $-1 $120 $96 #
plane-surface $-1 -1 $-1 1802.390000000000327 0.2999999999999999889 108.1000000000000085 0 0 1 1 0 0 forward_v I I I I #
coedge $-1 -1 $-1 $121 $122 $99 $112 reversed $97 $-1 #
coedge $-1 -1 $-1 $123 $99 $124 $125 reversed $83 $-1 #
coedge $-1 -1 $-1 $99 $123 $100 $115 reversed $83 $-1 #
edge $-1 -1 $-1 $126 0.009999999999763531378 $127 6.659999999999683951 $99 $128 forward @7 unknown #
coedge $-1 -1 $-1 $129 $100 $130 $131 forward $85 $-1 #
coedge $-1 -1 $-1 $100 $129 $121 $132 reversed $85 $-1 #
edge $-1 -1 $-1 $126 -3.425000000000000266 $133 -1.024999999999999911 $100 $134 forward @7 unknown #
DXID-attrib $-1 -1 $-1 $-1 $106 @10 ASM ENTITY @1 9 #
face $135 -1 $-1 $-1 $136 $4 $-1 $137 forward single #
loop $-1 -1 $-1 $-1 $138 $106 #
plane-surface $-1 -1 $-1 1802.390000000000327 0.2999999999999999889 99.9000000000000199 0 1 0 0 0 1 forward_v I I I I #
coedge $-1 -1 $-1 $139 $140 $141 $142 reversed $107 $-1 #
coedge $-1 -1 $-1 $141 $109 $114 $132 forward $97 $-1 #
coedge $-1 -1 $-1 $109 $141 $143 $144 reversed $97 $-1 #
coedge $-1 -1 $-1 $111 $110 $138 $145 reversed $83 $-1 #
coedge $-1 -1 $-1 $143 $146 $110 $125 forward $136 $-1 #
edge $-1 -1 $-1 $147 0 $127 2.399999999999999911 $110 $148 forward @7 unknown #
vertex $-1 -1 $-1 $115 $149 #
vertex $-1 -1 $-1 $112 $150 #
straight-curve $-1 -1 $-1 1802.390000000000327 2.700000000000000178 99.9000000000000199 1 0 0 F 0.009999999999763531378 F 6.659999999999683951 #
coedge $-1 -1 $-1 $114 $113 $139 $151 reversed $85 $-1 #
coedge $-1 -1 $-1 $138 $152 $113 $131 reversed $118 $-1 #
edge $-1 -1 $-1 $133 1.037500000000015632 $153 9.237500000000000711 $113 $154 forward @7 unknown #
edge $-1 -1 $-1 $126 1.037500000000015632 $155 9.237500000000000711 $114 $156 forward @7 unknown #
vertex $-1 -1 $-1 $115 $157 #
straight-curve $-1 -1 $-1 1802.400000000000091 -0.7249999999999999778 99.9000000000000199 0 -1 0 F -3.425000000000000266 F -1.024999999999999911 #
DXID-attrib $-1 -1 $-1 $-1 $117 @10 ASM ENTITY @2 10 #
loop $-1 -1 $-1 $-1 $146 $117 #
plane-surface $-1 -1 $-1 1809.049999999999955 0.2999999999999999889 99.9000000000000199 1 0 0 0 0 1 forward_v I I I I #
coedge $-1 -1 $-1 $158 $130 $123 $145 forward $118 $-1 #
coedge $-1 -1 $-1 $159 $120 $129 $151 forward $107 $-1 #
coedge $-1 -1 $-1 $120 $159 $160 $161 forward $107 $-1 #
coedge $-1 -1 $-1 $122 $121 $120 $142 forward $97 $-1 #
edge $-1 -1 $-1 $155 0.009999999999763531378 $162 6.659999999999683951 $141 $163 forward @7 unknown #
coedge $-1 -1 $-1 $160 $124 $122 $144 forward $136 $-1 #
edge $-1 -1 $-1 $127 0 $162 8.199999999999985079 $122 $164 forward @7 unknown #
edge $-1 -1 $-1 $133 0.009999999999763531378 $147 6.659999999999683951 $123 $165 forward @7 unknown #
coedge $-1 -1 $-1 $124 $160 $158 $166 reversed $136 $-1 #
vertex $-1 -1 $-1 $125 $167 #
straight-curve $-1 -1 $-1 1809.049999999999955 0.2999999999999999889 99.9000000000000199 0 1 0 F 0 F 2.399999999999999911 #
point $-1 -1 $-1 1802.400000000000091 2.700000000000000178 99.9000000000000199 #
point $-1 -1 $-1 1809.049999999999955 2.700000000000000178 99.9000000000000199 #
edge $-1 -1 $-1 $155 -3.425000000000000266 $153 -1.024999999999999911 $129 $168 forward @7 unknown #
coedge $-1 -1 $-1 $130 $158 $159 $169 reversed $118 $-1 #
vertex $-1 -1 $-1 $131 $170 #
straight-curve $-1 -1 $-1 1802.400000000000091 0.2999999999999999889 98.86250000000001137 0 0 1 F 1.037500000000015632 F 9.237500000000000711 #
vertex $-1 -1 $-1 $151 $171 #
straight-curve $-1 -1 $-1 1802.400000000000091 2.700000000000000178 98.86250000000001137 0 0 1 F 1.037500000000015632 F 9.237500000000000711 #
point $-1 -1 $-1 1802.400000000000091 0.2999999999999999889 99.9000000000000199 #
coedge $-1 -1 $-1 $152 $138 $146 $166 forward $118 $-1 #
coedge $-1 -1 $-1 $140 $139 $152 $169 forward $107 $-1 #
coedge $-1 -1 $-1 $146 $143 $140 $161 reversed $136 $-1 #
edge $-1 -1 $-1 $172 0 $162 2.399999999999999911 $140 $173 forward @7 unknown #
vertex $-1 -1 $-1 $142 $174 #
straight-curve $-1 -1 $-1 1802.390000000000327 2.700000000000000178 108.1000000000000085 1 0 0 F 0.009999999999763531378 F 6.659999999999683951 #
straight-curve $-1 -1 $-1 1809.049999999999955 2.700000000000000178 99.9000000000000199 0 0 1 F 0 F 8.199999999999985079 #
straight-curve $-1 -1 $-1 1802.390000000000327 0.2999999999999999889 99.9000000000000199 1 0 0 F 0.009999999999763531378 F 6.659999999999683951 #
edge $-1 -1 $-1 $147 0 $172 8.199999999999985079 $158 $175 forward @7 unknown #
point $-1 -1 $-1 1809.049999999999955 0.2999999999999999889 99.9000000000000199 #
straight-curve $-1 -1 $-1 1802.400000000000091 -0.7249999999999999778 108.1000000000000085 0 -1 0 F -3.425000000000000266 F -1.024999999999999911 #
edge $-1 -1 $-1 $153 0.009999999999763531378 $172 6.659999999999683951 $159 $176 forward @7 unknown #
point $-1 -1 $-1 1802.400000000000091 0.2999999999999999889 108.1000000000000085 #
point $-1 -1 $-1 1802.400000000000091 2.700000000000000178 108.1000000000000085 #
vertex $-1 -1 $-1 $169 $177 #
straight-curve $-1 -1 $-1 1809.049999999999955 0.2999999999999999889 108.1000000000000085 0 1 0 F 0 F 2.399999999999999911 #
point $-1 -1 $-1 1809.049999999999955 2.700000000000000178 108.1000000000000085 #
straight-curve $-1 -1 $-1 1809.049999999999955 0.2999999999999999889 99.9000000000000199 0 0 1 F 0 F 8.199999999999985079 #
straight-curve $-1 -1 $-1 1802.390000000000327 0.2999999999999999889 108.1000000000000085 1 0 0 F 0.009999999999763531378 F 6.659999999999683951 #
point $-1 -1 $-1 1809.049999999999955 0.2999999999999999889 108.1000000000000085 #
End-of-ACIS-data 