  0
SECTION
  2
HEADER
  9
$ACADVER
  1
AC1024
  9
$ACADMAINTVER
 70
6
  9
$DWGCODEPAGE
  3
ANSI_1252
  9
$LASTSAVEDBY
  1
ezdxf
  9
$INSBASE
 10
0.0
 20
0.0
 30
0.0
  9
$EXTMIN
 10
1e+20
 20
1e+20
 30
1e+20
  9
$EXTMAX
 10
-1e+20
 20
-1e+20
 30
-1e+20
  9
$LIMMIN
 10
0.0
 20
0.0
  9
$LIMMAX
 10
420.0
 20
297.0
  9
$ORTHOMODE
 70
0
  9
$REGENMODE
 70
1
  9
$FILLMODE
 70
1
  9
$QTEXTMODE
 70
0
  9
$MIRRTEXT
 70
1
  9
$LTSCALE
 40
1.0
  9
$ATTMODE
 70
1
  9
$TEXTSIZE
 40
2.5
  9
$TRACEWID
 40
1.0
  9
$TEXTSTYLE
  7
OpenSans
  9
$CLAYER
  8
0
  9
$CELTYPE
  6
ByLayer
  9
$CECOLOR
 62
256
  9
$CELTSCALE
 40
1.0
  9
$DISPSILH
 70
0
  9
$DIMSCALE
 40
1.0
  9
$DIMASZ
 40
0.175
  9
$DIMEXO
 40
0.125
  9
$DIMDLI
 40
3.75
  9
$DIMRND
 40
0.0
  9
$DIMDLE
 40
0.0
  9
$DIMEXE
 40
0.375
  9
$DIMTP
 40
0.0
  9
$DIMTM
 40
0.0
  9
$DIMTXT
 40
0.25
  9
$DIMCEN
 40
2.5
  9
$DIMTSZ
 40
0.0
  9
$DIMTOL
 70
0
  9
$DIMLIM
 70
0
  9
$DIMTIH
 70
0
  9
$DIMTOH
 70
0
  9
$DIMSE1
 70
0
  9
$DIMSE2
 70
0
  9
$DIMTAD
 70
1
  9
$DIMZIN
 70
12
  9
$DIMBLK
  1
ARCHTICK
  9
$DIMASO
 70
1
  9
$DIMSHO
 70
1
  9
$DIMPOST
  1

  9
$DIMAPOST
  1

  9
$DIMALT
 70
0
  9
$DIMALTD
 70
3
  9
$DIMALTF
 40
0.03937007874
  9
$DIMLFAC
 40
100.0
  9
$DIMTOFL
 70
1
  9
$DIMTVP
 40
0.0
  9
$DIMTIX
 70
0
  9
$DIMSOXD
 70
0
  9
$DIMSAH
 70
0
  9
$DIMBLK1
  1

  9
$DIMBLK2
  1

  9
$DIMSTYLE
  2
EZDXF
  9
$DIMCLRD
 70
0
  9
$DIMCLRE
 70
0
  9
$DIMCLRT
 70
0
  9
$DIMTFAC
 40
0.5
  9
$DIMGAP
 40
0.1
  9
$DIMJUST
 70
0
  9
$DIMSD1
 70
0
  9
$DIMSD2
 70
0
  9
$DIMTOLJ
 70
0
  9
$DIMTZIN
 70
8
  9
$DIMALTZ
 70
0
  9
$DIMALTTZ
 70
0
  9
$DIMUPT
 70
1
  9
$DIMDEC
 70
2
  9
$DIMTDEC
 70
2
  9
$DIMALTU
 70
2
  9
$DIMALTTD
 70
3
  9
$DIMTXSTY
  7
OpenSansCondensed-Light
  9
$DIMAUNIT
 70
0
  9
$DIMADEC
 70
2
  9
$DIMALTRND
 40
0.0
  9
$DIMAZIN
 70
3
  9
$DIMDSEP
 70
46
  9
$DIMATFIT
 70
3
  9
$DIMFRAC
 70
0
  9
$DIMLDRBLK
  1

  9
$DIMLUNIT
 70
2
  9
$DIMLWD
 70
-2
  9
$DIMLWE
 70
-2
  9
$DIMTMOVE
 70
2
  9
$DIMFXL
 40
1.0
  9
$DIMFXLON
 70
0
  9
$DIMJOGANG
 40
0.785398163397
  9
$DIMTFILL
 70
0
  9
$DIMTFILLCLR
 70
0
  9
$DIMARCSYM
 70
0
  9
$DIMLTYPE
  6

  9
$DIMLTEX1
  6

  9
$DIMLTEX2
  6

  9
$DIMTXTDIRECTION
 70
0
  9
$LUNITS
 70
2
  9
$LUPREC
 70
4
  9
$SKETCHINC
 40
1.0
  9
$FILLETRAD
 40
10.0
  9
$AUNITS
 70
0
  9
$AUPREC
 70
2
  9
$MENU
  1
.
  9
$ELEVATION
 40
0.0
  9
$PELEVATION
 40
0.0
  9
$THICKNESS
 40
0.0
  9
$LIMCHECK
 70
0
  9
$CHAMFERA
 40
0.0
  9
$CHAMFERB
 40
0.0
  9
$CHAMFERC
 40
0.0
  9
$CHAMFERD
 40
0.0
  9
$SKPOLY
 70
0
  9
$TDCREATE
 40
2461287.9533449076
  9
$TDUCREATE
 40
2458532.153996898
  9
$TDUPDATE
 40
2461287.9533449076
  9
$TDUUPDATE
 40
2458532.1544311
  9
$TDINDWG
 40
0.0
  9
$TDUSRTIMER
 40
0.0
  9
$USRTIMER
 70
1
  9
$ANGBASE
 50
0.0
  9
$ANGDIR
 70
0
  9
$PDMODE
 70
0
  9
$PDSIZE
 40
0.0
  9
$PLINEWID
 40
0.0
  9
$SPLFRAME
 70
0
  9
$SPLINETYPE
 70
6
  9
$SPLINESEGS
 70
8
  9
$HANDSEED
  5
217
  9
$SURFTAB1
 70
6
  9
$SURFTAB2
 70
6
  9
$SURFTYPE
 70
6
  9
$SURFU
 70
6
  9
$SURFV
 70
6
  9
$UCSBASE
  2

  9
$UCSNAME
  2

  9
$UCSORG
 10
0.0
 20
0.0
 30
0.0
  9
$UCSXDIR
 10
1.0
 20
0.0
 30
0.0
  9
$UCSYDIR
 10
0.0
 20
1.0
 30
0.0
  9
$UCSORTHOREF
  2

  9
$UCSORTHOVIEW
 70
0
  9
$UCSORGTOP
 10
0.0
 20
0.0
 30
0.0
  9
$UCSORGBOTTOM
 10
0.0
 20
0.0
 30
0.0
  9
$UCSORGLEFT
 10
0.0
 20
0.0
 30
0.0
  9
$UCSORGRIGHT
 10
0.0
 20
0.0
 30
0.0
  9
$UCSORGFRONT
 10
0.0
 20
0.0
 30
0.0
  9
$UCSORGBACK
 10
0.0
 20
0.0
 30
0.0
  9
$PUCSBASE
  2

  9
$PUCSNAME
  2

  9
$PUCSORG
 10
0.0
 20
0.0
 30
0.0
  9
$PUCSXDIR
 10
1.0
 20
0.0
 30
0.0
  9
$PUCSYDIR
 10
0.0
 20
1.0
 30
0.0
  9
$PUCSORTHOREF
  2

  9
$PUCSORTHOVIEW
 70
0
  9
$PUCSORGTOP
 10
0.0
 20
0.0
 30
0.0
  9
$PUCSORGBOTTOM
 10
0.0
 20
0.0
 30
0.0
  9
$PUCSORGLEFT
 10
0.0
 20
0.0
 30
0.0
  9
$PUCSORGRIGHT
 10
0.0
 20
0.0
 30
0.0
  9
$PUCSORGFRONT
 10
0.0
 20
0.0
 30
0.0
  9
$PUCSORGBACK
 10
0.0
 20
0.0
 30
0.0
  9
$USERI1
 70
0
  9
$USERI2
 70
0
  9
$USERI3
 70
0
  9
$USERI4
 70
0
  9
$USERI5
 70
0
  9
$USERR1
 40
0.0
  9
$USERR2
 40
0.0
  9
$USERR3
 40
0.0
  9
$USERR4
 40
0.0
  9
$USERR5
 40
0.0
  9
$WORLDVIEW
 70
1
  9
$SHADEDGE
 70
3
  9
$SHADEDIF
 70
70
  9
$TILEMODE
 70
1
  9
$MAXACTVP
 70
64
  9
$PINSBASE
 10
0.0
 20
0.0
 30
0.0
  9
$PLIMCHECK
 70
0
  9
$PEXTMIN
 10
1e+20
 20
1e+20
 30
1e+20
  9
$PEXTMAX
 10
-1e+20
 20
-1e+20
 30
-1e+20
  9
$PLIMMIN
 10
0.0
 20
0.0
  9
$PLIMMAX
 10
420.0
 20
297.0
  9
$UNITMODE
 70
0
  9
$VISRETAIN
 70
1
  9
$PLINEGEN
 70
0
  9
$PSLTSCALE
 70
1
  9
$TREEDEPTH
 70
3020
  9
$CMLSTYLE
  2
Standard
  9
$CMLJUST
 70
0
  9
$CMLSCALE
 40
20.0
  9
$PROXYGRAPHICS
 70
1
  9
$MEASUREMENT
 70
1
  9
$CELWEIGHT
370
-1
  9
$ENDCAPS
280
0
  9
$JOINSTYLE
280
0
  9
$LWDISPLAY
290
0
  9
$INSUNITS
 70
6
  9
$HYPERLINKBASE
  1

  9
$STYLESHEET
  1

  9
$XEDIT
290
1
  9
$CEPSNTYPE
380
0
  9
$PSTYLEMODE
290
1
  9
$FINGERPRINTGUID
  2
{09973507-A294-4017-9331-C2D98EE3F9F0}
  9
$VERSIONGUID
  2
{BD13C90E-56BC-443E-A03A-4A58289508DE}
  9
$EXTNAMES
290
1
  9
$PSVPSCALE
 40
0.0
  9
$OLESTARTUP
290
0
  9
$SORTENTS
280
127
  9
$INDEXCTL
280
0
  9
$HIDETEXT
280
1
  9
$XCLIPFRAME
280
1
  9
$HALOGAP
280
0
  9
$OBSCOLOR
 70
257
  9
$OBSLTYPE
280
0
  9
$INTERSECTIONDISPLAY
280
0
  9
$INTERSECTIONCOLOR
 70
257
  9
$DIMASSOC
280
2
  9
$PROJECTNAME
  1

  9
$CAMERADISPLAY
290
0
  9
$LENSLENGTH
 40
50.0
  9
$CAMERAHEIGHT
 40
0.0
  9
$STEPSPERSEC
 40
24.0
  9
$STEPSIZE
 40
100.0
  9
$3DDWFPREC
 40
2.0
  9
$PSOLWIDTH
 40
0.005
  9
$PSOLHEIGHT
 40
0.08
  9
$LOFTANG1
 40
1.570796326795
  9
$LOFTANG2
 40
1.570796326795
  9
$LOFTMAG1
 40
0.0
  9
$LOFTMAG2
 40
0.0
  9
$LOFTPARAM
 70
7
  9
$LOFTNORMALS
280
1
  9
$LATITUDE
 40
37.795
  9
$LONGITUDE
 40
-122.394
  9
$NORTHDIRECTION
 40
0.0
  9
$TIMEZONE
 70
-8000
  9
$LIGHTGLYPHDISPLAY
280
1
  9
$TILEMODELIGHTSYNCH
280
1
  9
$CMATERIAL
347
20
  9
$SOLIDHIST
280
0
  9
$SHOWHIST
280
1
  9
$DWFFRAME
280
2
  9
$DGNFRAME
280
2
  9
$REALWORLDSCALE
290
1
  9
$INTERFERECOLOR
 62
256
  9
$CSHADOW
280
0
  9
$SHADOWPLANELOCATION
 40
0.0
  0
ENDSEC
  0
SECTION
  2
CLASSES
  0
CLASS
  1
ACDBDICTIONARYWDFLT
  2
AcDbDictionaryWithDefault
  3
ObjectDBX Classes
 90
0
 91
0
280
0
281
0
  0
CLASS
  1
SUN
  2
AcDbSun
  3
SCENEOE
 90
1153
 91
0
280
0
281
0
  0
CLASS
  1
VISUALSTYLE
  2
AcDbVisualStyle
  3
ObjectDBX Classes
 90
4095
 91
0
280
0
281
0
  0
CLASS
  1
MATERIAL
  2
AcDbMaterial
  3
ObjectDBX Classes
 90
1153
 91
0
280
0
281
0
  0
CLASS
  1
SCALE
  2
AcDbScale
  3
ObjectDBX Classes
 90
1153
 91
0
280
0
281
0
  0
CLASS
  1
TABLESTYLE
  2
AcDbTableStyle
  3
ObjectDBX Classes
 90
4095
 91
0
280
0
281
0
  0
CLASS
  1
MLEADERSTYLE
  2
AcDbMLeaderStyle
  3
ACDB_MLEADERSTYLE_CLASS
 90
4095
 91
0
280
0
281
0
  0
CLASS
  1
DICTIONARYVAR
  2
AcDbDictionaryVar
  3
ObjectDBX Classes
 90
0
 91
0
280
0
281
0
  0
CLASS
  1
CELLSTYLEMAP
  2
AcDbCellStyleMap
  3
ObjectDBX Classes
 90
1152
 91
0
280
0
281
0
  0
CLASS
  1
MENTALRAYRENDERSETTINGS
  2
AcDbMentalRayRenderSettings
  3
SCENEOE
 90
1024
 91
0
280
0
281
0
  0
CLASS
  1
ACDBDETAILVIEWSTYLE
  2
AcDbDetailViewStyle
  3
ObjectDBX Classes
 90
1025
 91
0
280
0
281
0
  0
CLASS
  1
ACDBSECTIONVIEWSTYLE
  2
AcDbSectionViewStyle
  3
ObjectDBX Classes
 90
1025
 91
0
280
0
281
0
  0
CLASS
  1
RASTERVARIABLES
  2
AcDbRasterVariables
  3
ISM
 90
0
 91
0
280
0
281
0
  0
CLASS
  1
ACDBPLACEHOLDER
  2
AcDbPlaceHolder
  3
ObjectDBX Classes
 90
0
 91
0
280
0
281
0
  0
CLASS
  1
LAYOUT
  2
AcDbLayout
  3
ObjectDBX Classes
 90
0
 91
0
280
0
281
0
  0
ENDSEC
  0
SECTION
  2
TABLES
  0
TABLE
  2
VPORT
  5
8
330
0
100
AcDbSymbolTable
 70
1
  0
VPORT
  5
23
330
8
100
AcDbSymbolTableRecord
100
AcDbViewportTableRecord
  2
*Active
 70
0
 10
0.0
 20
0.0
 11
1.0
 21
1.0
 12
0.0
 22
0.0
 13
0.0
 23
0.0
 14
0.5
 24
0.5
 15
0.5
 25
0.5
 16
0.0
 26
0.0
 36
1.0
 17
0.0
 27
0.0
 37
0.0
 40
1000.0
 41
1.34
 42
50.0
 43
0.0
 44
0.0
 50
0.0
 51
0.0
 71
0
 72
1000
 73
1
 74
3
 75
0
 76
0
 77
0
 78
0
281
0
 65
0
146
0.0
  0
ENDTAB
  0
TABLE
  2
LTYPE
  5
2
330
0
100
AcDbSymbolTable
 70
21
  0
LTYPE
  5
24
330
2
100
AcDbSymbolTableRecord
100
AcDbLinetypeTableRecord
  2
ByBlock
 70
0
  3

 72
65
 73
0
 40
0.0
  0
LTYPE
  5
25
330
2
100
AcDbSymbolTableRecord
100
AcDbLinetypeTableRecord
  2
ByLayer
 70
0
  3

 72
65
 73
0
 40
0.0
  0
LTYPE
  5
26
330
2
100
AcDbSymbolTableRecord
100
AcDbLinetypeTableRecord
  2
Continuous
 70
0
  3

 72
65
 73
0
 40
0.0
  0
LTYPE
  5
2F
330
2
100
AcDbSymbolTableRecord
100
AcDbLinetypeTableRecord
  2
CENTER
 70
0
  3
Center ____ _ ____ _ ____ _ ____ _ ____ _ ____
 72
65
 73
4
 40
5.08
 49
3.175
 74
0
 49
-0.635
 74
0
 49
0.635
 74
0
 49
-0.635
 74
0
  0
LTYPE
  5
30
330
2
100
AcDbSymbolTableRecord
100
AcDbLinetypeTableRecord
  2
CENTERX2
 70
0
  3
Center (2x) ________  __  ________  __  ________
 72
65
 73
4
 40
8.89
 49
6.35
 74
0
 49
-0.635
 74
0
 49
1.27
 74
0
 49
-0.635
 74
0
  0
LTYPE
  5
31
330
2
100
AcDbSymbolTableRecord
100
AcDbLinetypeTableRecord
  2
CENTER2
 70
0
  3
Center (.5x) ____ _ ____ _ ____ _ ____ _ ____
 72
65
 73
4
 40
2.54
 49
1.587
 74
0
 49
-0.318
 74
0
 49
0.318
 74
0
 49
-0.318
 74
0
  0
LTYPE
  5
32
330
2
100
AcDbSymbolTableRecord
100
AcDbLinetypeTableRecord
  2
DASHED
 70
0
  3
Dashed __ __ __ __ __ __ __ __ __ __ __ __ __ _
 72
65
 73
2
 40
1.524
 49
1.27
 74
0
 49
-0.254
 74
0
  0
LTYPE
  5
33
330
2
100
AcDbSymbolTableRecord
100
AcDbLinetypeTableRecord
  2
DASHEDX2
 70
0
  3
Dashed (2x) ____  ____  ____  ____  ____  ____
 72
65
 73
2
 40
3.048
 49
2.54
 74
0
 49
-0.508
 74
0
  0
LTYPE
  5
34
330
2
100
AcDbSymbolTableRecord
100
AcDbLinetypeTableRecord
  2
DASHED2
 70
0
  3
Dashed (.5x) _ _ _ _ _ _ _ _ _ _ _ _ _ _
 72
65
 73
2
 40
0.762
 49
0.635
 74
0
 49
-0.127
 74
0
  0
LTYPE
  5
35
330
2
100
AcDbSymbolTableRecord
100
AcDbLinetypeTableRecord
  2
PHANTOM
 70
0
  3
Phantom ______  __  __  ______  __  __  ______
 72
65
 73
6
 40
6.35
 49
3.175
 74
0
 49
-0.635
 74
0
 49
0.635
 74
0
 49
-0.635
 74
0
 49
0.635
 74
0
 49
-0.635
 74
0
  0
LTYPE
  5
36
330
2
100
AcDbSymbolTableRecord
100
AcDbLinetypeTableRecord
  2
PHANTOMX2
 70
0
  3
Phantom (2x)____________    ____    ____    ____________
 72
65
 73
6
 40
10.795
 49
6.35
 74
0
 49
-0.635
 74
0
 49
1.27
 74
0
 49
-0.635
 74
0
 49
1.27
 74
0
 49
-0.635
 74
0
  0
LTYPE
  5
37
330
2
100
AcDbSymbolTableRecord
100
AcDbLinetypeTableRecord
  2
PHANTOM2
 70
0
  3
Phantom (.5x) ___ _ _ ___ _ _ ___ _ _ ___ _ _ ___
 72
65
 73
6
 40
3.175
 49
1.587
 74
0
 49
-0.318
 74
0
 49
0.318
 74
0
 49
-0.318
 74
0
 49
0.318
 74
0
 49
-0.318
 74
0
  0
LTYPE
  5
38
330
2
100
AcDbSymbolTableRecord
100
AcDbLinetypeTableRecord
  2
DASHDOT
 70
0
  3
Dash dot __ . __ . __ . __ . __ . __ . __ . __
 72
65
 73
4
 40
3.556
 49
2.54
 74
0
 49
-0.508
 74
0
 49
0.0
 74
0
 49
-0.508
 74
0
  0
LTYPE
  5
39
330
2
100
AcDbSymbolTableRecord
100
AcDbLinetypeTableRecord
  2
DASHDOTX2
 70
0
  3
Dash dot (2x) ____  .  ____  .  ____  .  ____
 72
65
 73
4
 40
6.096
 49
5.08
 74
0
 49
-0.508
 74
0
 49
0.0
 74
0
 49
-0.508
 74
0
  0
LTYPE
  5
3A
330
2
100
AcDbSymbolTableRecord
100
AcDbLinetypeTableRecord
  2
DASHDOT2
 70
0
  3
Dash dot (.5x) _ . _ . _ . _ . _ . _ . _ . _
 72
65
 73
4
 40
1.778
 49
1.27
 74
0
 49
-0.254
 74
0
 49
0.0
 74
0
 49
-0.254
 74
0
  0
LTYPE
  5
3B
330
2
100
AcDbSymbolTableRecord
100
AcDbLinetypeTableRecord
  2
DOT
 70
0
  3
Dot .  .  .  .  .  .  .  .  .  .  .  .  .  .  .  .
 72
65
 73
2
 40
0.508
 49
0.0
 74
0
 49
-0.508
 74
0
  0
LTYPE
  5
3C
330
2
100
AcDbSymbolTableRecord
100
AcDbLinetypeTableRecord
  2
DOTX2
 70
0
  3
Dot (2x) .    .    .    .    .    .    .    . 
 72
65
 73
2
 40
1.016
 49
0.0
 74
0
 49
-1.016
 74
0
  0
LTYPE
  5
3D
330
2
100
AcDbSymbolTableRecord
100
AcDbLinetypeTableRecord
  2
DOT2
 70
0
  3
Dot (.5) . . . . . . . . . . . . . . . . . . . 
 72
65
 73
2
 40
0.254
 49
0.0
 74
0
 49
-0.254
 74
0
  0
LTYPE
  5
3E
330
2
100
AcDbSymbolTableRecord
100
AcDbLinetypeTableRecord
  2
DIVIDE
 70
0
  3
Divide __ . . __ . . __ . . __ . . __ . . __
 72
65
 73
6
 40
4.064
 49
2.54
 74
0
 49
-0.508
 74
0
 49
0.0
 74
0
 49
-0.508
 74
0
 49
0.0
 74
0
 49
-0.508
 74
0
  0
LTYPE
  5
3F
330
2
100
AcDbSymbolTableRecord
100
AcDbLinetypeTableRecord
  2
DIVIDEX2
 70
0
  3
Divide (2x) ____  . .  ____  . .  ____  . .  ____
 72
65
 73
6
 40
6.604
 49
5.08
 74
0
 49
-0.508
 74
0
 49
0.0
 74
0
 49
-0.508
 74
0
 49
0.0
 74
0
 49
-0.508
 74
0
  0
LTYPE
  5
40
330
2
100
AcDbSymbolTableRecord
100
AcDbLinetypeTableRecord
  2
DIVIDE2
 70
0
  3
Divide(.5x) _ . _ . _ . _ . _ . _ . _ . _
 72
65
 73
6
 40
2.032
 49
1.27
 74
0
 49
-0.254
 74
0
 49
0.0
 74
0
 49
-0.254
 74
0
 49
0.0
 74
0
 49
-0.254
 74
0
  0
ENDTAB
  0
TABLE
  2
LAYER
  5
1
330
0
100
AcDbSymbolTable
 70
7
  0
LAYER
  5
27
330
1
100
AcDbSymbolTableRecord
100
AcDbLayerTableRecord
  2
0
 70
0
 62
7
  6
Continuous
370
-3
390
13
347
21
  0
LAYER
  5
28
330
1
100
AcDbSymbolTableRecord
100
AcDbLayerTableRecord
  2
Defpoints
 70
0
 62
7
  6
Continuous
290
0
370
-3
390
13
347
21
  0
LAYER
  5
8A
330
1
100
AcDbSymbolTableRecord
100
AcDbLayerTableRecord
  2
OUTLINE
 70
0
 62
7
  6
Continuous
370
-3
390
13
347
21
  0
LAYER
  5
8B
330
1
100
AcDbSymbolTableRecord
100
AcDbLayerTableRecord
  2
REF
 70
0
 62
8
  6
Continuous
370
-3
390
13
347
21
  0
LAYER
  5
8C
330
1
100
AcDbSymbolTableRecord
100
AcDbLayerTableRecord
  2
DIMS
 70
0
 62
1
  6
Continuous
370
-3
390
13
347
21
  0
LAYER
  5
8D
330
1
100
AcDbSymbolTableRecord
100
AcDbLayerTableRecord
  2
TEXT
 70
0
 62
3
  6
Continuous
370
-3
390
13
347
21
  0
LAYER
  5
8E
330
1
100
AcDbSymbolTableRecord
100
AcDbLayerTableRecord
  2
NOTES
 70
0
 62
4
  6
Continuous
370
-3
390
13
347
21
  0
ENDTAB
  0
TABLE
  2
STYLE
  5
5
330
0
100
AcDbSymbolTable
 70
26
  0
STYLE
  5
29
330
5
100
AcDbSymbolTableRecord
100
AcDbTextStyleTableRecord
  2
Standard
 70
0
 40
0.0
 41
1.0
 50
0.0
 71
0
 42
2.5
  3
txt
  4

  0
STYLE
  5
41
330
5
100
AcDbSymbolTableRecord
100
AcDbTextStyleTableRecord
  2
OpenSans-Light
 70
0
 40
0.0
 41
1.0
 50
0.0
 71
0
 42
2.5
  3
OpenSans-Light.ttf
  4

  0
STYLE
  5
42
330
5
100
AcDbSymbolTableRecord
100
AcDbTextStyleTableRecord
  2
OpenSans-Light-Italic
 70
0
 40
0.0
 41
1.0
 50
0.0
 71
0
 42
2.5
  3
OpenSans-LightItalic.ttf
  4

  0
STYLE
  5
43
330
5
100
AcDbSymbolTableRecord
100
AcDbTextStyleTableRecord
  2
OpenSans
 70
0
 40
0.0
 41
1.0
 50
0.0
 71
0
 42
2.5
  3
OpenSans-Regular.ttf
  4

  0
STYLE
  5
44
330
5
100
AcDbSymbolTableRecord
100
AcDbTextStyleTableRecord
  2
OpenSans-Italic
 70
0
 40
0.0
 41
1.0
 50
0.0
 71
0
 42
2.5
  3
OpenSans-Italic.ttf
  4

  0
STYLE
  5
45
330
5
100
AcDbSymbolTableRecord
100
AcDbTextStyleTableRecord
  2
OpenSans-SemiBold
 70
0
 40
0.0
 41
1.0
 50
0.0
 71
0
 42
2.5
  3
OpenSans-SemiBold.ttf
  4

  0
STYLE
  5
46
330
5
100
AcDbSymbolTableRecord
100
AcDbTextStyleTableRecord
  2
OpenSans-SemiBoldItalic
 70
0
 40
0.0
 41
1.0
 50
0.0
 71
0
 42
2.5
  3
OpenSans-SemiBoldItalic.ttf
  4

  0
STYLE
  5
47
330
5
100
AcDbSymbolTableRecord
100
AcDbTextStyleTableRecord
  2
OpenSans-Bold
 70
0
 40
0.0
 41
1.0
 50
0.0
 71
0
 42
2.5
  3
OpenSans-Bold.ttf
  4

  0
STYLE
  5
48
330
5
100
AcDbSymbolTableRecord
100
AcDbTextStyleTableRecord
  2
OpenSans-BoldItalic
 70
0
 40
0.0
 41
1.0
 50
0.0
 71
0
 42
2.5
  3
OpenSans-BoldItalic.ttf
  4

  0
STYLE
  5
49
330
5
100
AcDbSymbolTableRecord
100
AcDbTextStyleTableRecord
  2
OpenSans-ExtraBold
 70
0
 40
0.0
 41
1.0
 50
0.0
 71
0
 42
2.5
  3
OpenSans-ExtraBold.ttf
  4

  0
STYLE
  5
4A
330
5
100
AcDbSymbolTableRecord
100
AcDbTextStyleTableRecord
  2
OpenSans-ExtraBoldItalic
 70
0
 40
0.0
 41
1.0
 50
0.0
 71
0
 42
2.5
  3
OpenSans-ExtraBoldItalic.ttf
  4

  0
STYLE
  5
4B
330
5
100
AcDbSymbolTableRecord
100
AcDbTextStyleTableRecord
  2
OpenSansCondensed-Bold
 70
0
 40
0.0
 41
1.0
 50
0.0
 71
0
 42
2.5
  3
OpenSansCondensed-Bold.ttf
  4

  0
STYLE
  5
4C
330
5
100
AcDbSymbolTableRecord
100
AcDbTextStyleTableRecord
  2
OpenSansCondensed-Light
 70
0
 40
0.0
 41
1.0
 50
0.0
 71
0
 42
2.5
  3
OpenSansCondensed-Light.ttf
  4

  0
STYLE
  5
4D
330
5
100
AcDbSymbolTableRecord
100
AcDbTextStyleTableRecord
  2
OpenSansCondensed-Italic
 70
0
 40
0.0
 41
1.0
 50
0.0
 71
0
 42
2.5
  3
OpenSansCondensed-LightItalic.ttf
  4

  0
STYLE
  5
4E
330
5
100
AcDbSymbolTableRecord
100
AcDbTextStyleTableRecord
  2
LiberationSans
 70
0
 40
0.0
 41
1.0
 50
0.0
 71
0
 42
2.5
  3
LiberationSans-Regular.ttf
  4

  0
STYLE
  5
4F
330
5
100
AcDbSymbolTableRecord
100
AcDbTextStyleTableRecord
  2
LiberationSans-Bold
 70
0
 40
0.0
 41
1.0
 50
0.0
 71
0
 42
2.5
  3
LiberationSans-Bold.ttf
  4

  0
STYLE
  5
50
330
5
100
AcDbSymbolTableRecord
100
AcDbTextStyleTableRecord
  2
LiberationSans-BoldItalic
 70
0
 40
0.0
 41
1.0
 50
0.0
 71
0
 42
2.5
  3
LiberationSans-BoldItalic.ttf
  4

  0
STYLE
  5
51
330
5
100
AcDbSymbolTableRecord
100
AcDbTextStyleTableRecord
  2
LiberationSans-Italic
 70
0
 40
0.0
 41
1.0
 50
0.0
 71
0
 42
2.5
  3
LiberationSans-Italic.ttf
  4

  0
STYLE
  5
52
330
5
100
AcDbSymbolTableRecord
100
AcDbTextStyleTableRecord
  2
LiberationSerif
 70
0
 40
0.0
 41
1.0
 50
0.0
 71
0
 42
2.5
  3
LiberationSerif-Regular.ttf
  4

  0
STYLE
  5
53
330
5
100
AcDbSymbolTableRecord
100
AcDbTextStyleTableRecord
  2
LiberationSerif-Bold
 70
0
 40
0.0
 41
1.0
 50
0.0
 71
0
 42
2.5
  3
LiberationSerif-Bold.ttf
  4

  0
STYLE
  5
54
330
5
100
AcDbSymbolTableRecord
100
AcDbTextStyleTableRecord
  2
LiberationSerif-BoldItalic
 70
0
 40
0.0
 41
1.0
 50
0.0
 71
0
 42
2.5
  3
LiberationSerif-BoldItalic.ttf
  4

  0
STYLE
  5
55
330
5
100
AcDbSymbolTableRecord
100
AcDbTextStyleTableRecord
  2
LiberationSerif-Italic
 70
0
 40
0.0
 41
1.0
 50
0.0
 71
0
 42
2.5
  3
LiberationSerif-Italic.ttf
  4

  0
STYLE
  5
56
330
5
100
AcDbSymbolTableRecord
100
AcDbTextStyleTableRecord
  2
LiberationMono
 70
0
 40
0.0
 41
1.0
 50
0.0
 71
0
 42
2.5
  3
LiberationMono-Regular.ttf
  4

  0
STYLE
  5
57
330
5
100
AcDbSymbolTableRecord
100
AcDbTextStyleTableRecord
  2
LiberationMono-Bold
 70
0
 40
0.0
 41
1.0
 50
0.0
 71
0
 42
2.5
  3
LiberationMono-Bold.ttf
  4

  0
STYLE
  5
58
330
5
100
AcDbSymbolTableRecord
100
AcDbTextStyleTableRecord
  2
LiberationMono-BoldItalic
 70
0
 40
0.0
 41
1.0
 50
0.0
 71
0
 42
2.5
  3
LiberationMono-BoldItalic.ttf
  4

  0
STYLE
  5
59
330
5
100
AcDbSymbolTableRecord
100
AcDbTextStyleTableRecord
  2
LiberationMono-Italic
 70
0
 40
0.0
 41
1.0
 50
0.0
 71
0
 42
2.5
  3
LiberationMono-Italic.ttf
  4

  0
ENDTAB
  0
TABLE
  2
VIEW
  5
7
330
0
100
AcDbSymbolTable
 70
0
  0
ENDTAB
  0
TABLE
  2
UCS
  5
6
330
0
100
AcDbSymbolTable
 70
0
  0
ENDTAB
  0
TABLE
  2
APPID
  5
3
330
0
100
AcDbSymbolTable
 70
3
  0
APPID
  5
2A
330
3
100
AcDbSymbolTableRecord
100
AcDbRegAppTableRecord
  2
ACAD
 70
0
  0
APPID
  5
214
330
3
100
AcDbSymbolTableRecord
100
AcDbRegAppTableRecord
  2
HATCHBACKGROUNDCOLOR
 70
0
  0
APPID
  5
215
330
3
100
AcDbSymbolTableRecord
100
AcDbRegAppTableRecord
  2
EZDXF
 70
0
  0
ENDTAB
  0
TABLE
  2
DIMSTYLE
  5
4
330
0
100
AcDbSymbolTable
 70
12
100
AcDbDimStyleTable
  0
DIMSTYLE
105
2B
330
4
100
AcDbSymbolTableRecord
100
AcDbDimStyleTableRecord
  2
Standard
 70
0
 40
1.0
 41
2.5
 42
0.625
 43
3.75
 44
1.25
 45
0.0
 46
0.0
 47
0.0
 48
0.0
 49
2.5
140
2.5
141
2.5
142
0.0
143
0.03937007874
144
1.0
145
0.0
146
1.0
147
0.625
148
0.0
 69
0
 70
0
 71
0
 72
0
 73
0
 74
0
 75
0
 76
0
 77
1
 78
8
 79
3
170
0
171
3
172
1
173
0
174
0
175
0
176
0
177
0
178
0
179
2
271
2
272
2
273
2
274
3
275
0
276
0
277
2
278
44
279
0
280
0
281
0
282
0
283
0
284
8
285
0
286
0
288
0
289
3
290
0
371
-2
372
-2
  0
DIMSTYLE
105
73
330
4
100
AcDbSymbolTableRecord
100
AcDbDimStyleTableRecord
  2
EZDXF
 70
0
 40
1.0
 41
0.175
 42
0.125
 43
3.75
 44
0.375
 45
0.0
 46
0.0
 47
0.0
 48
0.0
 49
2.5
140
0.25
141
2.5
142
0.0
143
0.03937007874
144
100.0
145
0.0
146
0.5
147
0.1
148
0.0
 69
0
 70
0
 71
0
 72
0
 73
0
 74
0
 75
0
 76
0
 77
1
 78
12
 79
3
170
0
171
3
172
1
173
0
174
0
175
0
176
0
177
0
178
0
179
2
271
2
272
2
273
2
274
3
275
0
276
0
277
2
278
46
279
2
280
0
281
0
282
0
283
0
284
8
285
0
286
0
288
1
289
3
290
0
340
4C
342
74
371
-2
372
-2
  0
DIMSTYLE
105
7C
330
4
100
AcDbSymbolTableRecord
100
AcDbDimStyleTableRecord
  2
EZ_M_100_H25_CM
 70
0
 40
1.0
 41
0.25
 42
0.125
 43
3.75
 44
0.375
 45
0.0
 46
0.0
 47
0.0
 48
0.0
 49
2.5
140
0.25
141
2.5
142
0.125
143
0.03937007874
144
100.0
145
0.0
146
0.5
147
0.1
148
0.0
 69
0
 70
0
 71
0
 72
0
 73
0
 74
0
 75
0
 76
0
 77
1
 78
12
 79
3
170
0
171
3
172
1
173
0
174
0
175
0
176
0
177
0
178
0
179
2
271
2
272
2
273
2
274
3
275
0
276
0
277
2
278
46
279
2
280
0
281
0
282
0
283
0
284
8
285
0
286
0
288
1
289
3
290
0
340
4C
371
-2
372
-2
  0
DIMSTYLE
105
7D
330
4
100
AcDbSymbolTableRecord
100
AcDbDimStyleTableRecord
  2
EZ_M_50_H25_CM
 70
0
 40
1.0
 41
0.125
 42
0.0625
 43
3.75
 44
0.1875
 45
0.0
 46
0.0
 47
0.0
 48
0.0
 49
2.5
140
0.125
141
2.5
142
0.0625
143
0.03937007874
144
100.0
145
0.0
146
0.5
147
0.05
148
0.0
 69
0
 70
0
 71
0
 72
0
 73
0
 74
0
 75
0
 76
0
 77
1
 78
12
 79
3
170
0
171
3
172
1
173
0
174
0
175
0
176
0
177
0
178
0
179
2
271
2
272
2
273
2
274
3
275
0
276
0
277
2
278
46
279
2
280
0
281
0
282
0
283
0
284
8
285
0
286
0
288
1
289
3
290
0
340
4C
371
-2
372
-2
  0
DIMSTYLE
105
7E
330
4
100
AcDbSymbolTableRecord
100
AcDbDimStyleTableRecord
  2
EZ_M_25_H25_CM
 70
0
 40
1.0
 41
0.0625
 42
0.03125
 43
3.75
 44
0.09375
 45
0.0
 46
0.0
 47
0.0
 48
0.0
 49
2.5
140
0.0625
141
2.5
142
0.03125
143
0.03937007874
144
100.0
145
0.0
146
0.5
147
0.025
148
0.0
 69
0
 70
0
 71
0
 72
0
 73
0
 74
0
 75
0
 76
0
 77
1
 78
12
 79
3
170
0
171
3
172
1
173
0
174
0
175
0
176
0
177
0
178
0
179
2
271
2
272
2
273
2
274
3
275
0
276
0
277
2
278
46
279
2
280
0
281
0
282
0
283
0
284
8
285
0
286
0
288
1
289
3
290
0
340
4C
371
-2
372
-2
  0
DIMSTYLE
105
7F
330
4
100
AcDbSymbolTableRecord
100
AcDbDimStyleTableRecord
  2
EZ_M_20_H25_CM
 70
0
 40
1.0
 41
0.05
 42
0.025
 43
3.75
 44
0.07500000000000001
 45
0.0
 46
0.0
 47
0.0
 48
0.0
 49
2.5
140
0.05
141
2.5
142
0.025
143
0.03937007874
144
100.0
145
0.0
146
0.5
147
0.020000000000000004
148
0.0
 69
0
 70
0
 71
0
 72
0
 73
0
 74
0
 75
0
 76
0
 77
1
 78
12
 79
3
170
0
171
3
172
1
173
0
174
0
175
0
176
0
177
0
178
0
179
2
271
2
272
2
273
2
274
3
275
0
276
0
277
2
278
46
279
2
280
0
281
0
282
0
283
0
284
8
285
0
286
0
288
1
289
3
290
0
340
4C
371
-2
372
-2
  0
DIMSTYLE
105
80
330
4
100
AcDbSymbolTableRecord
100
AcDbDimStyleTableRecord
  2
EZ_M_10_H25_CM
 70
0
 40
1.0
 41
0.025
 42
0.0125
 43
3.75
 44
0.037500000000000006
 45
0.0
 46
0.0
 47
0.0
 48
0.0
 49
2.5
140
0.025
141
2.5
142
0.0125
143
0.03937007874
144
100.0
145
0.0
146
0.5
147
0.010000000000000002
148
0.0
 69
0
 70
0
 71
0
 72
0
 73
0
 74
0
 75
0
 76
0
 77
1
 78
12
 79
3
170
0
171
3
172
1
173
0
174
0
175
0
176
0
177
0
178
0
179
2
271
2
272
2
273
2
274
3
275
0
276
0
277
2
278
46
279
2
280
0
281
0
282
0
283
0
284
8
285
0
286
0
288
1
289
3
290
0
340
4C
371
-2
372
-2
  0
DIMSTYLE
105
81
330
4
100
AcDbSymbolTableRecord
100
AcDbDimStyleTableRecord
  2
EZ_M_5_H25_CM
 70
0
 40
1.0
 41
0.0125
 42
0.00625
 43
3.75
 44
0.018750000000000003
 45
0.0
 46
0.0
 47
0.0
 48
0.0
 49
2.5
140
0.0125
141
2.5
142
0.00625
143
0.03937007874
144
100.0
145
0.0
146
0.5
147
0.005000000000000001
148
0.0
 69
0
 70
0
 71
0
 72
0
 73
0
 74
0
 75
0
 76
0
 77
1
 78
12
 79
3
170
0
171
3
172
1
173
0
174
0
175
0
176
0
177
0
178
0
179
2
271
2
272
2
273
2
274
3
275
0
276
0
277
2
278
46
279
2
280
0
281
0
282
0
283
0
284
8
285
0
286
0
288
1
289
3
290
0
340
4C
371
-2
372
-2
  0
DIMSTYLE
105
82
330
4
100
AcDbSymbolTableRecord
100
AcDbDimStyleTableRecord
  2
EZ_M_1_H25_CM
 70
0
 40
1.0
 41
0.0025
 42
0.00125
 43
3.75
 44
0.00375
 45
0.0
 46
0.0
 47
0.0
 48
0.0
 49
2.5
140
0.0025
141
2.5
142
0.00125
143
0.03937007874
144
100.0
145
0.0
146
0.5
147
0.001
148
0.0
 69
0
 70
0
 71
0
 72
0
 73
0
 74
0
 75
0
 76
0
 77
1
 78
12
 79
3
170
0
171
3
172
1
173
0
174
0
175
0
176
0
177
0
178
0
179
2
271
2
272
2
273
2
274
3
275
0
276
0
277
2
278
46
279
2
280
0
281
0
282
0
283
0
284
8
285
0
286
0
288
1
289
3
290
0
340
4C
371
-2
372
-2
  0
DIMSTYLE
105
83
330
4
100
AcDbSymbolTableRecord
100
AcDbDimStyleTableRecord
  2
EZ_RADIUS
 70
0
 40
1.0
 41
0.25
 42
0.125
 43
3.75
 44
0.375
 45
0.0
 46
0.0
 47
0.0
 48
0.0
 49
2.5
140
0.25
141
0.0
142
0.0
143
0.03937007874
144
100.0
145
0.0
146
0.5
147
0.1
148
0.0
 69
0
 70
0
 71
0
 72
0
 73
0
 74
0
 75
0
 76
0
 77
1
 78
12
 79
3
170
0
171
3
172
0
173
0
174
0
175
0
176
0
177
0
178
0
179
2
271
2
272
2
273
2
274
3
275
0
276
0
277
2
278
46
279
1
280
0
281
0
282
0
283
0
284
8
285
0
286
0
288
1
289
3
290
0
340
4C
342
84
371
-2
372
-2
  0
DIMSTYLE
105
88
330
4
100
AcDbSymbolTableRecord
100
AcDbDimStyleTableRecord
  2
EZ_RADIUS_INSIDE
 70
0
 40
1.0
 41
0.25
 42
0.125
 43
3.75
 44
0.375
 45
0.0
 46
0.0
 47
0.0
 48
0.0
 49
2.5
140
0.25
141
0.0
142
0.0
143
0.03937007874
144
100.0
145
0.0
146
0.5
147
0.1
148
0.0
 69
0
 70
0
 71
0
 72
0
 73
0
 74
0
 75
0
 76
0
 77
0
 78
12
 79
3
170
0
171
3
172
0
173
0
174
1
175
0
176
0
177
0
178
0
179
2
271
2
272
2
273
2
274
3
275
0
276
0
277
2
278
46
279
0
280
0
281
0
282
0
283
0
284
8
285
0
286
0
288
1
289
0
290
0
340
4C
342
84
371
-2
372
-2
  0
DIMSTYLE
105
89
330
4
100
AcDbSymbolTableRecord
100
AcDbDimStyleTableRecord
  2
EZ_CURVED
 70
0
 40
1.0
 41
0.25
 42
0.125
 43
3.75
 44
0.375
 45
0.0
 46
0.0
 47
0.0
 48
0.0
 49
2.5
140
0.25
141
2.5
142
0.0
143
0.03937007874
144
100.0
145
0.0
146
0.5
147
0.1
148
0.0
 69
0
 70
0
 71
0
 72
0
 73
0
 74
0
 75
0
 76
0
 77
1
 78
12
 79
2
 90
2
170
0
171
3
172
1
173
0
174
0
175
0
176
0
177
0
178
0
179
2
271
2
272
2
273
2
274
3
275
0
276
0
277
2
278
46
279
2
280
0
281
0
282
0
283
0
284
8
285
0
286
0
288
1
289
3
290
0
340
4C
371
-2
372
-2
  0
ENDTAB
  0
TABLE
  2
BLOCK_RECORD
  5
9
330
0
100
AcDbSymbolTable
 70
18
  0
BLOCK_RECORD
  5
17
330
9
100
AcDbSymbolTableRecord
100
AcDbBlockTableRecord
  2
*Model_Space
340
1A
 70
0
280
1
281
0
  0
BLOCK_RECORD
  5
1B
330
9
100
AcDbSymbolTableRecord
100
AcDbBlockTableRecord
  2
*Paper_Space
340
1E
 70
0
280
1
281
0
  0
BLOCK_RECORD
  5
74
330
9
100
AcDbSymbolTableRecord
100
AcDbBlockTableRecord
  2
_ARCHTICK
340
0
 70
0
280
1
281
0
  0
BLOCK_RECORD
  5
78
330
9
100
AcDbSymbolTableRecord
100
AcDbBlockTableRecord
  2
_CLOSEDFILLED
340
0
 70
0
280
1
281
0
  0
BLOCK_RECORD
  5
84
330
9
100
AcDbSymbolTableRecord
100
AcDbBlockTableRecord
  2
_CLOSEDBLANK
340
0
 70
0
280
1
281
0
  0
BLOCK_RECORD
  5
DC
330
9
100
AcDbSymbolTableRecord
100
AcDbBlockTableRecord
  2
*D1
340
0
 70
0
280
1
281
0
  0
BLOCK_RECORD
  5
EB
330
9
100
AcDbSymbolTableRecord
100
AcDbBlockTableRecord
  2
*D2
340
0
 70
0
280
1
281
0
  0
BLOCK_RECORD
  5
FA
330
9
100
AcDbSymbolTableRecord
100
AcDbBlockTableRecord
  2
*D3
340
0
 70
0
280
1
281
0
  0
BLOCK_RECORD
  5
109
330
9
100
AcDbSymbolTableRecord
100
AcDbBlockTableRecord
  2
*D4
340
0
 70
0
280
1
281
0
  0
BLOCK_RECORD
  5
118
330
9
100
AcDbSymbolTableRecord
100
AcDbBlockTableRecord
  2
*D5
340
0
 70
0
280
1
281
0
  0
BLOCK_RECORD
  5
14E
330
9
100
AcDbSymbolTableRecord
100
AcDbBlockTableRecord
  2
*D6
340
0
 70
0
280
1
281
0
  0
BLOCK_RECORD
  5
15D
330
9
100
AcDbSymbolTableRecord
100
AcDbBlockTableRecord
  2
*D7
340
0
 70
0
280
1
281
0
  0
BLOCK_RECORD
  5
181
330
9
100
AcDbSymbolTableRecord
100
AcDbBlockTableRecord
  2
*D8
340
0
 70
0
280
1
281
0
  0
BLOCK_RECORD
  5
190
330
9
100
AcDbSymbolTableRecord
100
AcDbBlockTableRecord
  2
*D9
340
0
 70
0
280
1
281
0
  0
BLOCK_RECORD
  5
1B2
330
9
100
AcDbSymbolTableRecord
100
AcDbBlockTableRecord
  2
*D10
340
0
 70
0
280
1
281
0
  0
BLOCK_RECORD
  5
1C1
330
9
100
AcDbSymbolTableRecord
100
AcDbBlockTableRecord
  2
*D11
340
0
 70
0
280
1
281
0
  0
BLOCK_RECORD
  5
1F5
330
9
100
AcDbSymbolTableRecord
100
AcDbBlockTableRecord
  2
*D12
340
0
 70
0
280
1
281
0
  0
BLOCK_RECORD
  5
204
330
9
100
AcDbSymbolTableRecord
100
AcDbBlockTableRecord
  2
*D13
340
0
 70
0
280
1
281
0
  0
ENDTAB
  0
ENDSEC
  0
SECTION
  2
BLOCKS
  0
BLOCK
  5
18
330
17
100
AcDbEntity
  8
0
100
AcDbBlockBegin
  2
*Model_Space
 70
0
 10
0.0
 20
0.0
 30
0.0
  3
*Model_Space
  1

  0
ENDBLK
  5
19
330
17
100
AcDbEntity
  8
0
100
AcDbBlockEnd
  0
BLOCK
  5
1C
330
1B
100
AcDbEntity
  8
0
100
AcDbBlockBegin
  2
*Paper_Space
 70
0
 10
0.0
 20
0.0
 30
0.0
  3
*Paper_Space
  1

  0
ENDBLK
  5
1D
330
1B
100
AcDbEntity
  8
0
100
AcDbBlockEnd
  0
BLOCK
  5
75
330
74
100
AcDbEntity
  8
0
100
AcDbBlockBegin
  2
_ARCHTICK
 70
0
 10
0.0
 20
0.0
 30
0.0
  3
_ARCHTICK
  1

  0
LWPOLYLINE
  5
77
330
74
100
AcDbEntity
  8
0
  6
BYBLOCK
 62
0
100
AcDbPolyline
 90
2
 70
0
 43
0.15
 10
-0.5
 20
-0.5
 10
0.5
 20
0.5
  0
ENDBLK
  5
76
330
74
100
AcDbEntity
  8
0
100
AcDbBlockEnd
  0
BLOCK
  5
79
330
78
100
AcDbEntity
  8
0
100
AcDbBlockBegin
  2
_CLOSEDFILLED
 70
0
 10
0.0
 20
0.0
 30
0.0
  3
_CLOSEDFILLED
  1

  0
SOLID
  5
7B
330
78
100
AcDbEntity
  8
0
  6
BYBLOCK
 62
0
100
AcDbTrace
 10
-1.0
 20
0.16439898372402537
 30
0.0
 11
0.0
 21
0.0
 31
0.0
 12
-1.0
 22
-0.16439898372402537
 32
0.0
 13
-1.0
 23
-0.16439898372402537
 33
0.0
  0
ENDBLK
  5
7A
330
78
100
AcDbEntity
  8
0
100
AcDbBlockEnd
  0
BLOCK
  5
85
330
84
100
AcDbEntity
  8
0
100
AcDbBlockBegin
  2
_CLOSEDBLANK
 70
0
 10
0.0
 20
0.0
 30
0.0
  3
_CLOSEDBLANK
  1

  0
LWPOLYLINE
  5
87
330
84
100
AcDbEntity
  8
0
  6
BYBLOCK
 62
0
100
AcDbPolyline
 90
3
 70
1
 10
-1.0
 20
0.16439898372402537
 10
0.0
 20
0.0
 10
-1.0
 20
-0.16439898372402537
  0
ENDBLK
  5
86
330
84
100
AcDbEntity
  8
0
100
AcDbBlockEnd
  0
BLOCK
  5
DD
330
DC
100
AcDbEntity
  8
0
100
AcDbBlockBegin
  2
*D1
 70
1
 10
0.0
 20
0.0
 30
0.0
  3
*D1
  1

  0
LINE
  5
DF
330
DC
100
AcDbEntity
  8
0
100
AcDbLine
 10
0.0
 20
-100.8
 30
0.0
 11
0.0
 21
-111.0
 31
0.0
  0
LINE
  5
E0
330
DC
100
AcDbEntity
  8
0
100
AcDbLine
 10
120.0
 20
-100.8
 30
0.0
 11
120.0
 21
-111.0
 31
0.0
  0
INSERT
  5
E1
330
DC
100
AcDbEntity
  8
DIMS
100
AcDbBlockReference
  2
_ARCHTICK
 10
0.0
 20
-110.0
 30
0.0
 41
1.5
 42
1.5
 50
180.0
  0
INSERT
  5
E3
330
DC
100
AcDbEntity
  8
DIMS
100
AcDbBlockReference
  2
_ARCHTICK
 10
120.0
 20
-110.0
 30
0.0
 41
1.5
 42
1.5
  0
LINE
  5
E5
330
DC
100
AcDbEntity
  8
0
100
AcDbLine
 10
0.0
 20
-110.0
 30
0.0
 11
120.0
 21
-110.0
 31
0.0
  0
MTEXT
  5
E6
330
DC
100
AcDbEntity
  8
DIMS
100
AcDbMText
 10
60.0
 20
-108.15
 30
0.0
 40
2.5
 71
5
  1
12000
  7
OpenSansCondensed-Light
  0
POINT
  5
E7
330
DC
100
AcDbEntity
  8
Defpoints
100
AcDbPoint
 10
0.0
 20
-110.0
 30
0.0
  0
POINT
  5
E8
330
DC
100
AcDbEntity
  8
Defpoints
100
AcDbPoint
 10
0.0
 20
-100.0
 30
0.0
  0
POINT
  5
E9
330
DC
100
AcDbEntity
  8
Defpoints
100
AcDbPoint
 10
120.0
 20
-100.0
 30
0.0
  0
ENDBLK
  5
DE
330
DC
100
AcDbEntity
  8
0
100
AcDbBlockEnd
  0
BLOCK
  5
EC
330
EB
100
AcDbEntity
  8
0
100
AcDbBlockBegin
  2
*D2
 70
1
 10
0.0
 20
0.0
 30
0.0
  3
*D2
  1

  0
LINE
  5
EE
330
EB
100
AcDbEntity
  8
0
100
AcDbLine
 10
-0.8
 20
-100.0
 30
0.0
 11
-13.0
 21
-100.0
 31
0.0
  0
LINE
  5
EF
330
EB
100
AcDbEntity
  8
0
100
AcDbLine
 10
-0.8
 20
-20.0
 30
0.0
 11
-13.0
 21
-20.0
 31
0.0
  0
INSERT
  5
F0
330
EB
100
AcDbEntity
  8
DIMS
100
AcDbBlockReference
  2
_ARCHTICK
 10
-12.0
 20
-100.0
 30
0.0
 41
1.5
 42
1.5
 50
270.0
  0
INSERT
  5
F2
330
EB
100
AcDbEntity
  8
DIMS
100
AcDbBlockReference
  2
_ARCHTICK
 10
-12.0
 20
-20.0
 30
0.0
 41
1.5
 42
1.5
 50
90.0
  0
LINE
  5
F4
330
EB
100
AcDbEntity
  8
0
100
AcDbLine
 10
-12.0
 20
-100.0
 30
0.0
 11
-12.0
 21
-20.0
 31
0.0
  0
MTEXT
  5
F5
330
EB
100
AcDbEntity
  8
DIMS
100
AcDbMText
 10
-13.85
 20
-60.0
 30
0.0
 40
2.5
 71
5
  1
8000
  7
OpenSansCondensed-Light
 50
90.0
  0
POINT
  5
F6
330
EB
100
AcDbEntity
  8
Defpoints
100
AcDbPoint
 10
-12.0
 20
-100.0
 30
0.0
  0
POINT
  5
F7
330
EB
100
AcDbEntity
  8
Defpoints
100
AcDbPoint
 10
0.0
 20
-100.0
 30
0.0
  0
POINT
  5
F8
330
EB
100
AcDbEntity
  8
Defpoints
100
AcDbPoint
 10
0.0
 20
-20.0
 30
0.0
  0
ENDBLK
  5
ED
330
EB
100
AcDbEntity
  8
0
100
AcDbBlockEnd
  0
BLOCK
  5
FB
330
FA
100
AcDbEntity
  8
0
100
AcDbBlockBegin
  2
*D3
 70
1
 10
0.0
 20
0.0
 30
0.0
  3
*D3
  1

  0
LINE
  5
FD
330
FA
100
AcDbEntity
  8
0
100
AcDbLine
 10
25.0
 20
-37.2
 30
0.0
 11
25.0
 21
-11.0
 31
0.0
  0
LINE
  5
FE
330
FA
100
AcDbEntity
  8
0
100
AcDbLine
 10
95.0
 20
-37.2
 30
0.0
 11
95.0
 21
-11.0
 31
0.0
  0
INSERT
  5
FF
330
FA
100
AcDbEntity
  8
DIMS
100
AcDbBlockReference
  2
_ARCHTICK
 10
25.0
 20
-12.0
 30
0.0
 41
1.5
 42
1.5
 50
180.0
  0
INSERT
  5
101
330
FA
100
AcDbEntity
  8
DIMS
100
AcDbBlockReference
  2
_ARCHTICK
 10
95.0
 20
-12.0
 30
0.0
 41
1.5
 42
1.5
  0
LINE
  5
103
330
FA
100
AcDbEntity
  8
0
100
AcDbLine
 10
25.0
 20
-12.0
 30
0.0
 11
95.0
 21
-12.0
 31
0.0
  0
MTEXT
  5
104
330
FA
100
AcDbEntity
  8
DIMS
100
AcDbMText
 10
60.0
 20
-10.15
 30
0.0
 40
2.5
 71
5
  1
keyhole pitch 7000
  7
OpenSansCondensed-Light
  0
POINT
  5
105
330
FA
100
AcDbEntity
  8
Defpoints
100
AcDbPoint
 10
25.0
 20
-12.0
 30
0.0
  0
POINT
  5
106
330
FA
100
AcDbEntity
  8
Defpoints
100
AcDbPoint
 10
25.0
 20
-38.0
 30
0.0
  0
POINT
  5
107
330
FA
100
AcDbEntity
  8
Defpoints
100
AcDbPoint
 10
95.0
 20
-38.0
 30
0.0
  0
ENDBLK
  5
FC
330
FA
100
AcDbEntity
  8
0
100
AcDbBlockEnd
  0
BLOCK
  5
10A
330
109
100
AcDbEntity
  8
0
100
AcDbBlockBegin
  2
*D4
 70
1
 10
0.0
 20
0.0
 30
0.0
  3
*D4
  1

  0
LINE
  5
10C
330
109
100
AcDbEntity
  8
0
100
AcDbLine
 10
120.8
 20
-100.0
 30
0.0
 11
131.0
 21
-100.0
 31
0.0
  0
LINE
  5
10D
330
109
100
AcDbEntity
  8
0
100
AcDbLine
 10
120.8
 20
-38.0
 30
0.0
 11
131.0
 21
-38.0
 31
0.0
  0
INSERT
  5
10E
330
109
100
AcDbEntity
  8
DIMS
100
AcDbBlockReference
  2
_ARCHTICK
 10
130.0
 20
-100.0
 30
0.0
 41
1.5
 42
1.5
 50
270.0
  0
INSERT
  5
110
330
109
100
AcDbEntity
  8
DIMS
100
AcDbBlockReference
  2
_ARCHTICK
 10
130.0
 20
-38.0
 30
0.0
 41
1.5
 42
1.5
 50
90.0
  0
LINE
  5
112
330
109
100
AcDbEntity
  8
0
100
AcDbLine
 10
130.0
 20
-100.0
 30
0.0
 11
130.0
 21
-38.0
 31
0.0
  0
MTEXT
  5
113
330
109
100
AcDbEntity
  8
DIMS
100
AcDbMText
 10
128.15
 20
-69.0
 30
0.0
 40
2.5
 71
5
  1
keyhole 6200
  7
OpenSansCondensed-Light
 50
90.0
  0
POINT
  5
114
330
109
100
AcDbEntity
  8
Defpoints
100
AcDbPoint
 10
130.0
 20
-100.0
 30
0.0
  0
POINT
  5
115
330
109
100
AcDbEntity
  8
Defpoints
100
AcDbPoint
 10
120.0
 20
-100.0
 30
0.0
  0
POINT
  5
116
330
109
100
AcDbEntity
  8
Defpoints
100
AcDbPoint
 10
120.0
 20
-38.0
 30
0.0
  0
ENDBLK
  5
10B
330
109
100
AcDbEntity
  8
0
100
AcDbBlockEnd
  0
BLOCK
  5
119
330
118
100
AcDbEntity
  8
0
100
AcDbBlockBegin
  2
*D5
 70
1
 10
0.0
 20
0.0
 30
0.0
  3
*D5
  1

  0
LINE
  5
11B
330
118
100
AcDbEntity
  8
0
100
AcDbLine
 10
120.8
 20
-100.0
 30
0.0
 11
141.0
 21
-100.0
 31
0.0
  0
LINE
  5
11C
330
118
100
AcDbEntity
  8
0
100
AcDbLine
 10
120.8
 20
-58.0
 30
0.0
 11
141.0
 21
-58.0
 31
0.0
  0
INSERT
  5
11D
330
118
100
AcDbEntity
  8
DIMS
100
AcDbBlockReference
  2
_ARCHTICK
 10
140.0
 20
-100.0
 30
0.0
 41
1.5
 42
1.5
 50
270.0
  0
INSERT
  5
11F
330
118
100
AcDbEntity
  8
DIMS
100
AcDbBlockReference
  2
_ARCHTICK
 10
140.0
 20
-58.0
 30
0.0
 41
1.5
 42
1.5
 50
90.0
  0
LINE
  5
121
330
118
100
AcDbEntity
  8
0
100
AcDbLine
 10
140.0
 20
-100.0
 30
0.0
 11
140.0
 21
-58.0
 31
0.0
  0
MTEXT
  5
122
330
118
100
AcDbEntity
  8
DIMS
100
AcDbMText
 10
137.15
 20
-79.0
 30
0.0
 40
2.5
 71
5
  1
board centre 4200
  7
OpenSansCondensed-Light
 50
90.0
  0
POINT
  5
123
330
118
100
AcDbEntity
  8
Defpoints
100
AcDbPoint
 10
140.0
 20
-100.0
 30
0.0
  0
POINT
  5
124
330
118
100
AcDbEntity
  8
Defpoints
100
AcDbPoint
 10
120.0
 20
-100.0
 30
0.0
  0
POINT
  5
125
330
118
100
AcDbEntity
  8
Defpoints
100
AcDbPoint
 10
120.0
 20
-58.0
 30
0.0
  0
ENDBLK
  5
11A
330
118
100
AcDbEntity
  8
0
100
AcDbBlockEnd
  0
BLOCK
  5
14F
330
14E
100
AcDbEntity
  8
0
100
AcDbBlockBegin
  2
*D6
 70
1
 10
0.0
 20
0.0
 30
0.0
  3
*D6
  1

  0
LINE
  5
151
330
14E
100
AcDbEntity
  8
0
100
AcDbLine
 10
-0.8
 20
-181.5
 30
0.0
 11
-9.0
 21
-181.5
 31
0.0
  0
LINE
  5
152
330
14E
100
AcDbEntity
  8
0
100
AcDbLine
 10
-0.8
 20
-174.5
 30
0.0
 11
-9.0
 21
-174.5
 31
0.0
  0
INSERT
  5
153
330
14E
100
AcDbEntity
  8
DIMS
100
AcDbBlockReference
  2
_ARCHTICK
 10
-8.0
 20
-181.5
 30
0.0
 41
1.5
 42
1.5
 50
270.0
  0
INSERT
  5
155
330
14E
100
AcDbEntity
  8
DIMS
100
AcDbBlockReference
  2
_ARCHTICK
 10
-8.0
 20
-174.5
 30
0.0
 41
1.5
 42
1.5
 50
90.0
  0
LINE
  5
157
330
14E
100
AcDbEntity
  8
0
100
AcDbLine
 10
-8.0
 20
-181.5
 30
0.0
 11
-8.0
 21
-174.5
 31
0.0
  0
MTEXT
  5
158
330
14E
100
AcDbEntity
  8
DIMS
100
AcDbMText
 10
-10.85
 20
-178.0
 30
0.0
 40
2.5
 71
5
  1
cable notch 700
  7
OpenSansCondensed-Light
 50
90.0
  0
POINT
  5
159
330
14E
100
AcDbEntity
  8
Defpoints
100
AcDbPoint
 10
-8.0
 20
-181.5
 30
0.0
  0
POINT
  5
15A
330
14E
100
AcDbEntity
  8
Defpoints
100
AcDbPoint
 10
0.0
 20
-181.5
 30
0.0
  0
POINT
  5
15B
330
14E
100
AcDbEntity
  8
Defpoints
100
AcDbPoint
 10
0.0
 20
-174.5
 30
0.0
  0
ENDBLK
  5
150
330
14E
100
AcDbEntity
  8
0
100
AcDbBlockEnd
  0
BLOCK
  5
15E
330
15D
100
AcDbEntity
  8
0
100
AcDbBlockBegin
  2
*D7
 70
1
 10
0.0
 20
0.0
 30
0.0
  3
*D7
  1

  0
LINE
  5
160
330
15D
100
AcDbEntity
  8
0
100
AcDbLine
 10
0.0
 20
-161.2
 30
0.0
 11
0.0
 21
-153.0
 31
0.0
  0
LINE
  5
161
330
15D
100
AcDbEntity
  8
0
100
AcDbLine
 10
45.0
 20
-161.2
 30
0.0
 11
45.0
 21
-153.0
 31
0.0
  0
INSERT
  5
162
330
15D
100
AcDbEntity
  8
DIMS
100
AcDbBlockReference
  2
_ARCHTICK
 10
0.0
 20
-154.0
 30
0.0
 41
1.5
 42
1.5
 50
180.0
  0
INSERT
  5
164
330
15D
100
AcDbEntity
  8
DIMS
100
AcDbBlockReference
  2
_ARCHTICK
 10
45.0
 20
-154.0
 30
0.0
 41
1.5
 42
1.5
  0
LINE
  5
166
330
15D
100
AcDbEntity
  8
0
100
AcDbLine
 10
0.0
 20
-154.0
 30
0.0
 11
45.0
 21
-154.0
 31
0.0
  0
MTEXT
  5
167
330
15D
100
AcDbEntity
  8
DIMS
100
AcDbMText
 10
22.5
 20
-152.15
 30
0.0
 40
2.5
 71
5
  1
plug space 4500
  7
OpenSansCondensed-Light
  0
POINT
  5
168
330
15D
100
AcDbEntity
  8
Defpoints
100
AcDbPoint
 10
0.0
 20
-154.0
 30
0.0
  0
POINT
  5
169
330
15D
100
AcDbEntity
  8
Defpoints
100
AcDbPoint
 10
0.0
 20
-162.0
 30
0.0
  0
POINT
  5
16A
330
15D
100
AcDbEntity
  8
Defpoints
100
AcDbPoint
 10
45.0
 20
-162.0
 30
0.0
  0
ENDBLK
  5
15F
330
15D
100
AcDbEntity
  8
0
100
AcDbBlockEnd
  0
BLOCK
  5
182
330
181
100
AcDbEntity
  8
0
100
AcDbBlockBegin
  2
*D8
 70
1
 10
0.0
 20
0.0
 30
0.0
  3
*D8
  1

  0
LINE
  5
184
330
181
100
AcDbEntity
  8
0
100
AcDbLine
 10
120.8
 20
-330.0
 30
0.0
 11
131.0
 21
-330.0
 31
0.0
  0
LINE
  5
185
330
181
100
AcDbEntity
  8
0
100
AcDbLine
 10
120.8
 20
-300.0
 30
0.0
 11
131.0
 21
-300.0
 31
0.0
  0
INSERT
  5
186
330
181
100
AcDbEntity
  8
DIMS
100
AcDbBlockReference
  2
_ARCHTICK
 10
130.0
 20
-330.0
 30
0.0
 41
1.5
 42
1.5
 50
270.0
  0
INSERT
  5
188
330
181
100
AcDbEntity
  8
DIMS
100
AcDbBlockReference
  2
_ARCHTICK
 10
130.0
 20
-300.0
 30
0.0
 41
1.5
 42
1.5
 50
90.0
  0
LINE
  5
18A
330
181
100
AcDbEntity
  8
0
100
AcDbLine
 10
130.0
 20
-330.0
 30
0.0
 11
130.0
 21
-300.0
 31
0.0
  0
MTEXT
  5
18B
330
181
100
AcDbEntity
  8
DIMS
100
AcDbMText
 10
128.15
 20
-315.0
 30
0.0
 40
2.5
 71
5
  1
depth 3000
  7
OpenSansCondensed-Light
 50
90.0
  0
POINT
  5
18C
330
181
100
AcDbEntity
  8
Defpoints
100
AcDbPoint
 10
130.0
 20
-330.0
 30
0.0
  0
POINT
  5
18D
330
181
100
AcDbEntity
  8
Defpoints
100
AcDbPoint
 10
120.0
 20
-330.0
 30
0.0
  0
POINT
  5
18E
330
181
100
AcDbEntity
  8
Defpoints
100
AcDbPoint
 10
120.0
 20
-300.0
 30
0.0
  0
ENDBLK
  5
183
330
181
100
AcDbEntity
  8
0
100
AcDbBlockEnd
  0
BLOCK
  5
191
330
190
100
AcDbEntity
  8
0
100
AcDbBlockBegin
  2
*D9
 70
1
 10
0.0
 20
0.0
 30
0.0
  3
*D9
  1

  0
LINE
  5
193
330
190
100
AcDbEntity
  8
0
100
AcDbLine
 10
-1.8
 20
-307.5
 30
0.0
 11
-13.0
 21
-307.5
 31
0.0
  0
LINE
  5
194
330
190
100
AcDbEntity
  8
0
100
AcDbLine
 10
-1.8
 20
-300.0
 30
0.0
 11
-13.0
 21
-300.0
 31
0.0
  0
INSERT
  5
195
330
190
100
AcDbEntity
  8
DIMS
100
AcDbBlockReference
  2
_ARCHTICK
 10
-12.0
 20
-307.5
 30
0.0
 41
1.5
 42
1.5
 50
270.0
  0
INSERT
  5
197
330
190
100
AcDbEntity
  8
DIMS
100
AcDbBlockReference
  2
_ARCHTICK
 10
-12.0
 20
-300.0
 30
0.0
 41
1.5
 42
1.5
 50
90.0
  0
LINE
  5
199
330
190
100
AcDbEntity
  8
0
100
AcDbLine
 10
-12.0
 20
-307.5
 30
0.0
 11
-12.0
 21
-300.0
 31
0.0
  0
MTEXT
  5
19A
330
190
100
AcDbEntity
  8
DIMS
100
AcDbMText
 10
-14.85
 20
-303.75
 30
0.0
 40
2.5
 71
5
  1
PCB top 750
  7
OpenSansCondensed-Light
 50
90.0
  0
POINT
  5
19B
330
190
100
AcDbEntity
  8
Defpoints
100
AcDbPoint
 10
-12.0
 20
-307.5
 30
0.0
  0
POINT
  5
19C
330
190
100
AcDbEntity
  8
Defpoints
100
AcDbPoint
 10
-1.0
 20
-307.5
 30
0.0
  0
POINT
  5
19D
330
190
100
AcDbEntity
  8
Defpoints
100
AcDbPoint
 10
-1.0
 20
-300.0
 30
0.0
  0
ENDBLK
  5
192
330
190
100
AcDbEntity
  8
0
100
AcDbBlockEnd
  0
BLOCK
  5
1B3
330
1B2
100
AcDbEntity
  8
0
100
AcDbBlockBegin
  2
*D10
 70
1
 10
0.0
 20
0.0
 30
0.0
  3
*D10
  1

  0
LINE
  5
1B5
330
1B2
100
AcDbEntity
  8
0
100
AcDbLine
 10
0.0
 20
-380.8
 30
0.0
 11
0.0
 21
-389.0
 31
0.0
  0
LINE
  5
1B6
330
1B2
100
AcDbEntity
  8
0
100
AcDbLine
 10
104.0
 20
-380.8
 30
0.0
 11
104.0
 21
-389.0
 31
0.0
  0
INSERT
  5
1B7
330
1B2
100
AcDbEntity
  8
DIMS
100
AcDbBlockReference
  2
_ARCHTICK
 10
0.0
 20
-388.0
 30
0.0
 41
1.5
 42
1.5
 50
180.0
  0
INSERT
  5
1B9
330
1B2
100
AcDbEntity
  8
DIMS
100
AcDbBlockReference
  2
_ARCHTICK
 10
104.0
 20
-388.0
 30
0.0
 41
1.5
 42
1.5
  0
LINE
  5
1BB
330
1B2
100
AcDbEntity
  8
0
100
AcDbLine
 10
0.0
 20
-388.0
 30
0.0
 11
104.0
 21
-388.0
 31
0.0
  0
MTEXT
  5
1BC
330
1B2
100
AcDbEntity
  8
DIMS
100
AcDbMText
 10
52.0
 20
-386.15
 30
0.0
 40
2.5
 71
5
  1
SMA 10400
  7
OpenSansCondensed-Light
  0
POINT
  5
1BD
330
1B2
100
AcDbEntity
  8
Defpoints
100
AcDbPoint
 10
0.0
 20
-388.0
 30
0.0
  0
POINT
  5
1BE
330
1B2
100
AcDbEntity
  8
Defpoints
100
AcDbPoint
 10
0.0
 20
-380.0
 30
0.0
  0
POINT
  5
1BF
330
1B2
100
AcDbEntity
  8
Defpoints
100
AcDbPoint
 10
104.0
 20
-380.0
 30
0.0
  0
ENDBLK
  5
1B4
330
1B2
100
AcDbEntity
  8
0
100
AcDbBlockEnd
  0
BLOCK
  5
1C2
330
1C1
100
AcDbEntity
  8
0
100
AcDbBlockBegin
  2
*D11
 70
1
 10
0.0
 20
0.0
 30
0.0
  3
*D11
  1

  0
LINE
  5
1C4
330
1C1
100
AcDbEntity
  8
0
100
AcDbLine
 10
120.8
 20
-380.0
 30
0.0
 11
131.0
 21
-380.0
 31
0.0
  0
LINE
  5
1C5
330
1C1
100
AcDbEntity
  8
0
100
AcDbLine
 10
120.8
 20
-365.0
 30
0.0
 11
131.0
 21
-365.0
 31
0.0
  0
INSERT
  5
1C6
330
1C1
100
AcDbEntity
  8
DIMS
100
AcDbBlockReference
  2
_ARCHTICK
 10
130.0
 20
-380.0
 30
0.0
 41
1.5
 42
1.5
 50
270.0
  0
INSERT
  5
1C8
330
1C1
100
AcDbEntity
  8
DIMS
100
AcDbBlockReference
  2
_ARCHTICK
 10
130.0
 20
-365.0
 30
0.0
 41
1.5
 42
1.5
 50
90.0
  0
LINE
  5
1CA
330
1C1
100
AcDbEntity
  8
0
100
AcDbLine
 10
130.0
 20
-380.0
 30
0.0
 11
130.0
 21
-365.0
 31
0.0
  0
MTEXT
  5
1CB
330
1C1
100
AcDbEntity
  8
DIMS
100
AcDbMText
 10
127.15
 20
-372.5
 30
0.0
 40
2.5
 71
5
  1
SMA 1500
  7
OpenSansCondensed-Light
 50
90.0
  0
POINT
  5
1CC
330
1C1
100
AcDbEntity
  8
Defpoints
100
AcDbPoint
 10
130.0
 20
-380.0
 30
0.0
  0
POINT
  5
1CD
330
1C1
100
AcDbEntity
  8
Defpoints
100
AcDbPoint
 10
120.0
 20
-380.0
 30
0.0
  0
POINT
  5
1CE
330
1C1
100
AcDbEntity
  8
Defpoints
100
AcDbPoint
 10
120.0
 20
-365.0
 30
0.0
  0
ENDBLK
  5
1C3
330
1C1
100
AcDbEntity
  8
0
100
AcDbBlockEnd
  0
BLOCK
  5
1F6
330
1F5
100
AcDbEntity
  8
0
100
AcDbBlockBegin
  2
*D12
 70
1
 10
0.0
 20
0.0
 30
0.0
  3
*D12
  1

  0
LINE
  5
1F8
330
1F5
100
AcDbEntity
  8
0
100
AcDbLine
 10
230.0
 20
-100.8
 30
0.0
 11
230.0
 21
-109.0
 31
0.0
  0
LINE
  5
1F9
330
1F5
100
AcDbEntity
  8
0
100
AcDbLine
 10
260.0
 20
-100.8
 30
0.0
 11
260.0
 21
-109.0
 31
0.0
  0
INSERT
  5
1FA
330
1F5
100
AcDbEntity
  8
DIMS
100
AcDbBlockReference
  2
_ARCHTICK
 10
230.0
 20
-108.0
 30
0.0
 41
1.5
 42
1.5
 50
180.0
  0
INSERT
  5
1FC
330
1F5
100
AcDbEntity
  8
DIMS
100
AcDbBlockReference
  2
_ARCHTICK
 10
260.0
 20
-108.0
 30
0.0
 41
1.5
 42
1.5
  0
LINE
  5
1FE
330
1F5
100
AcDbEntity
  8
0
100
AcDbLine
 10
230.0
 20
-108.0
 30
0.0
 11
260.0
 21
-108.0
 31
0.0
  0
MTEXT
  5
1FF
330
1F5
100
AcDbEntity
  8
DIMS
100
AcDbMText
 10
245.0
 20
-106.15
 30
0.0
 40
2.5
 71
5
  1
depth 3000
  7
OpenSansCondensed-Light
  0
POINT
  5
200
330
1F5
100
AcDbEntity
  8
Defpoints
100
AcDbPoint
 10
230.0
 20
-108.0
 30
0.0
  0
POINT
  5
201
330
1F5
100
AcDbEntity
  8
Defpoints
100
AcDbPoint
 10
230.0
 20
-100.0
 30
0.0
  0
POINT
  5
202
330
1F5
100
AcDbEntity
  8
Defpoints
100
AcDbPoint
 10
260.0
 20
-100.0
 30
0.0
  0
ENDBLK
  5
1F7
330
1F5
100
AcDbEntity
  8
0
100
AcDbBlockEnd
  0
BLOCK
  5
205
330
204
100
AcDbEntity
  8
0
100
AcDbBlockBegin
  2
*D13
 70
1
 10
0.0
 20
0.0
 30
0.0
  3
*D13
  1

  0
LINE
  5
207
330
204
100
AcDbEntity
  8
0
100
AcDbLine
 10
262.8
 20
-100.0
 30
0.0
 11
269.0
 21
-100.0
 31
0.0
  0
LINE
  5
208
330
204
100
AcDbEntity
  8
0
100
AcDbLine
 10
262.8
 20
-20.0
 30
0.0
 11
269.0
 21
-20.0
 31
0.0
  0
INSERT
  5
209
330
204
100
AcDbEntity
  8
DIMS
100
AcDbBlockReference
  2
_ARCHTICK
 10
268.0
 20
-100.0
 30
0.0
 41
1.5
 42
1.5
 50
270.0
  0
INSERT
  5
20B
330
204
100
AcDbEntity
  8
DIMS
100
AcDbBlockReference
  2
_ARCHTICK
 10
268.0
 20
-20.0
 30
0.0
 41
1.5
 42
1.5
 50
90.0
  0
LINE
  5
20D
330
204
100
AcDbEntity
  8
0
100
AcDbLine
 10
268.0
 20
-100.0
 30
0.0
 11
268.0
 21
-20.0
 31
0.0
  0
MTEXT
  5
20E
330
204
100
AcDbEntity
  8
DIMS
100
AcDbMText
 10
266.15
 20
-60.0
 30
0.0
 40
2.5
 71
5
  1
8000
  7
OpenSansCondensed-Light
 50
90.0
  0
POINT
  5
20F
330
204
100
AcDbEntity
  8
Defpoints
100
AcDbPoint
 10
268.0
 20
-100.0
 30
0.0
  0
POINT
  5
210
330
204
100
AcDbEntity
  8
Defpoints
100
AcDbPoint
 10
262.0
 20
-100.0
 30
0.0
  0
POINT
  5
211
330
204
100
AcDbEntity
  8
Defpoints
100
AcDbPoint
 10
262.0
 20
-20.0
 30
0.0
  0
ENDBLK
  5
206
330
204
100
AcDbEntity
  8
0
100
AcDbBlockEnd
  0
ENDSEC
  0
SECTION
  2
ENTITIES
  0
TEXT
  5
8F
330
17
100
AcDbEntity
  8
TEXT
100
AcDbText
 10
0.0
 20
0.0
 30
0.0
 40
5.0
  1
HazardLink gateway body v8A (mm)
 11
0.0
 21
0.0
 31
0.0
100
AcDbText
  0
LINE
  5
90
330
17
100
AcDbEntity
  8
OUTLINE
100
AcDbLine
 10
56.0
 20
-22.5
 30
0.0
 11
56.0
 21
-20.0
 31
0.0
  0
LINE
  5
91
330
17
100
AcDbEntity
  8
OUTLINE
100
AcDbLine
 10
16.0
 20
-22.5
 30
0.0
 11
56.0
 21
-22.5
 31
0.0
  0
LINE
  5
92
330
17
100
AcDbEntity
  8
OUTLINE
100
AcDbLine
 10
16.0
 20
-20.0
 30
0.0
 11
16.0
 21
-22.5
 31
0.0
  0
LINE
  5
93
330
17
100
AcDbEntity
  8
OUTLINE
100
AcDbLine
 10
56.0
 20
-20.0
 30
0.0
 11
16.0
 21
-20.0
 31
0.0
  0
LINE
  5
94
330
17
100
AcDbEntity
  8
OUTLINE
100
AcDbLine
 10
8.14575131106459
 20
-22.5
 30
0.0
 11
16.0
 21
-22.5
 31
0.0
  0
LWPOLYLINE
  5
95
330
17
100
AcDbEntity
  8
OUTLINE
100
AcDbPolyline
 90
37
 70
0
 10
8.14575131106459
 20
-22.5
 10
8.406734556605532
 20
-22.75211095248821
 10
8.643796796173566
 20
-23.026835689977545
 10
8.854987123300205
 20
-23.32191336203313
 10
9.03856754472248
 20
-23.63491562350741
 10
9.193027283218791
 20
-23.96326661863496
 10
9.3170952105677
 20
-24.304264179067502
 10
9.409750308312457
 20
-24.65510206139993
 10
9.470230070244323
 20
-25.01289304118319
 10
9.49803677745631
 20
-25.37469267337154
 10
9.492941594326743
 20
-25.737523523667477
 10
9.454986451724679
 20
-26.09839967135204
 10
9.384483701939331
 20
-26.454351281954246
 10
9.282013548173254
 20
-26.802449047538502
 10
9.148419269753315
 20
-27.139828293478516
 10
8.984800282353635
 20
-27.463712553330552
 10
8.792503090341452
 20
-27.77143641779645
 10
8.573110205703706
 20
-28.060467469740573
 10
8.328427124746181
 20
-28.3284271247462
 10
8.060467469740558
 20
-28.573110205703728
 10
7.771436417796435
 20
-28.79250309034147
 10
7.463712553330536
 20
-28.984800282353646
 10
7.139828293478498
 20
-29.148419269753333
 10
6.802449047538484
 20
-29.282013548173268
 10
6.454351281954223
 20
-29.38448370193933
 10
6.09839967135202
 20
-29.45498645172468
 10
5.737523523667452
 20
-29.492941594326737
 10
5.374692673371513
 20
-29.498036777456306
 10
5.0128930411831645
 20
-29.470230070244327
 10
4.6551020613999095
 20
-29.409750308312454
 10
4.3042641790674745
 20
-29.317095210567686
 10
3.963266618634936
 20
-29.193027283218782
 10
3.6349156235073945
 20
-29.03856754472247
 10
3.3219133620331096
 20
-28.85498712330019
 10
3.0268356899775304
 20
-28.643796796173547
 10
2.7521109524881933
 20
-28.406734556605514
 10
2.4999999999999827
 20
-28.145751311064572
  0
LINE
  5
96
330
17
100
AcDbEntity
  8
OUTLINE
100
AcDbLine
 10
2.5
 20
-91.85424868893541
 30
0.0
 11
2.5
 21
-28.145751311064586
 31
0.0
  0
LWPOLYLINE
  5
97
330
17
100
AcDbEntity
  8
OUTLINE
100
AcDbPolyline
 90
37
 70
0
 10
2.499999999999824
 20
-91.85424868893561
 10
2.7521109524880245
 20
-91.59326544339464
 10
3.026835689977352
 20
-91.3562032038266
 10
3.3219133620329253
 20
-91.14501287669992
 10
3.634915623507206
 20
-90.96143245527763
 10
3.963266618634746
 20
-90.8069727167813
 10
4.304264179067285
 20
-90.68290478943237
 10
4.65510206139972
 20
-90.59024969168759
 10
5.01289304118298
 20
-90.5297699297557
 10
5.374692673371333
 20
-90.5019632225437
 10
5.737523523667279
 20
-90.50705840567325
 10
6.098399671351856
 20
-90.54501354827529
 10
6.454351281954068
 20
-90.61551629806063
 10
6.802449047538338
 20
-90.71798645182669
 10
7.139828293478366
 20
-90.85158073024661
 10
7.463712553330414
 20
-91.01519971764628
 10
7.771436417796325
 20
-91.20749690965846
 10
8.060467469740463
 20
-91.4268897942962
 10
8.328427124746096
 20
-91.67157287525372
 10
8.573110205703633
 20
-91.93953253025933
 10
8.792503090341391
 20
-92.22856358220346
 10
8.984800282353586
 20
-92.53628744666935
 10
9.148419269753276
 20
-92.86017170652138
 10
9.282013548173225
 20
-93.19755095246141
 10
9.384483701939311
 20
-93.54564871804567
 10
9.454986451724668
 20
-93.90160032864789
 10
9.492941594326737
 20
-94.26247647633245
 10
9.49803677745631
 20
-94.6253073266284
 10
9.470230070244329
 20
-94.98710695881675
 10
9.409750308312468
 20
-95.34489793860001
 10
9.317095210567713
 20
-95.69573582093247
 10
9.193027283218804
 20
-96.03673338136501
 10
9.038567544722492
 20
-96.36508437649256
 10
8.854987123300216
 20
-96.67808663796686
 10
8.643796796173575
 20
-96.97316431002244
 10
8.406734556605537
 20
-97.24788904751178
 10
8.14575131106459
 20
-97.5
  0
LINE
  5
98
330
17
100
AcDbEntity
  8
OUTLINE
100
AcDbLine
 10
57.35424868893541
 20
-97.5
 30
0.0
 11
8.14575131106459
 21
-97.5
 31
0.0
  0
LWPOLYLINE
  5
99
330
17
100
AcDbEntity
  8
OUTLINE
100
AcDbPolyline
 90
37
 70
0
 10
57.354248688935506
 20
-97.50000000000009
 10
56.97617077381241
 20
-97.11848368542823
 10
56.652615827397135
 20
-96.68975322833597
 10
56.38941790144957
 20
-96.22153911068763
 10
56.19132274422696
 20
-95.72228374829953
 10
56.06190222942009
 20
-95.20098926479194
 10
56.00348995133972
 20
-94.66705517339321
 10
56.01713914764305
 20
-94.13010889337203
 10
56.10260370829962
 20
-93.59983215707285
 10
56.258342613226034
 20
-93.08578643762696
 10
56.48154771857398
 20
-92.59724054506934
 10
56.76819439065419
 20
-92.14300349949328
 10
57.11311407451101
 20
-91.73126569472375
 10
57.51008748865634
 20
-91.36945121650304
 10
57.95195676555922
 20
-91.06408397805457
 10
58.430754515874746
 20
-90.8206700867478
 10
58.93784748924218
 20
-90.64359856292283
 10
59.46409224128992
 20
-90.53606220102354
 10
60.0
 20
-90.5
 10
60.535907758710074
 20
-90.53606220102354
 10
61.06215251075781
 20
-90.64359856292283
 10
61.569245484125254
 20
-90.8206700867478
 10
62.04804323444078
 20
-91.06408397805457
 10
62.48991251134366
 20
-91.36945121650304
 10
62.88688592548899
 20
-91.73126569472375
 10
63.23180560934581
 20
-92.14300349949328
 10
63.518452281426015
 20
-92.59724054506933
 10
63.741657386773966
 20
-93.08578643762696
 10
63.89739629170038
 20
-93.59983215707285
 10
63.98286085235695
 20
-94.13010889337203
 10
63.99651004866028
 20
-94.66705517339321
 10
63.93809777057991
 20
-95.20098926479194
 10
63.80867725577304
 20
-95.72228374829953
 10
63.61058209855044
 20
-96.22153911068763
 10
63.347384172602865
 20
-96.68975322833597
 10
63.02382922618759
 20
-97.11848368542823
 10
62.645751311064494
 20
-97.50000000000009
  0
LINE
  5
9A
330
17
100
AcDbEntity
  8
OUTLINE
100
AcDbLine
 10
111.85424868893541
 20
-97.5
 30
0.0
 11
62.64575131106459
 21
-97.5
 31
0.0
  0
LWPOLYLINE
  5
9B
330
17
100
AcDbEntity
  8
OUTLINE
100
AcDbPolyline
 90
37
 70
0
 10
111.85424868893541
 20
-97.5
 10
111.59326544339447
 20
-97.24788904751179
 10
111.35620320382642
 20
-96.97316431002244
 10
111.1450128766998
 20
-96.67808663796686
 10
110.96143245527752
 20
-96.36508437649256
 10
110.8069727167812
 20
-96.03673338136501
 10
110.68290478943229
 20
-95.69573582093247
 10
110.59024969168753
 20
-95.34489793860003
 10
110.52976992975567
 20
-94.98710695881677
 10
110.5019632225437
 20
-94.6253073266284
 10
110.50705840567326
 20
-94.26247647633247
 10
110.54501354827534
 20
-93.90160032864789
 10
110.61551629806068
 20
-93.54564871804568
 10
110.71798645182677
 20
-93.19755095246141
 10
110.85158073024672
 20
-92.8601717065214
 10
111.01519971764641
 20
-92.53628744666936
 10
111.2074969096586
 20
-92.22856358220346
 10
111.42688979429636
 20
-91.93953253025934
 10
111.6715728752539
 20
-91.67157287525372
 10
111.93953253025953
 20
-91.4268897942962
 10
112.22856358220368
 20
-91.20749690965846
 10
112.53628744666958
 20
-91.01519971764628
 10
112.86017170652163
 20
-90.85158073024661
 10
113.19755095246165
 20
-90.71798645182669
 10
113.54564871804592
 20
-90.61551629806063
 10
113.90160032864814
 20
-90.54501354827529
 10
114.26247647633272
 20
-90.50705840567325
 10
114.62530732662866
 20
-90.5019632225437
 10
114.98710695881701
 20
-90.5297699297557
 10
115.34489793860027
 20
-90.59024969168759
 10
115.69573582093271
 20
-90.68290478943237
 10
116.03673338136525
 20
-90.8069727167813
 10
116.36508437649279
 20
-90.96143245527763
 10
116.67808663796707
 20
-91.14501287669992
 10
116.97316431002264
 20
-91.35620320382658
 10
117.24788904751198
 20
-91.59326544339464
 10
117.50000000000017
 20
-91.8542486889356
  0
LINE
  5
9C
330
17
100
AcDbEntity
  8
OUTLINE
100
AcDbLine
 10
117.5
 20
-28.145751311064586
 30
0.0
 11
117.5
 21
-91.85424868893541
 31
0.0
  0
LWPOLYLINE
  5
9D
330
17
100
AcDbEntity
  8
OUTLINE
100
AcDbPolyline
 90
37
 70
0
 10
117.50000000000001
 20
-28.145751311064572
 10
117.2478890475118
 20
-28.406734556605514
 10
116.97316431002247
 20
-28.643796796173547
 10
116.67808663796689
 20
-28.85498712330019
 10
116.3650843764926
 20
-29.03856754472247
 10
116.03673338136507
 20
-29.193027283218782
 10
115.69573582093253
 20
-29.3170952105677
 10
115.34489793860008
 20
-29.409750308312454
 10
114.98710695881684
 20
-29.470230070244327
 10
114.62530732662849
 20
-29.498036777456306
 10
114.26247647633255
 20
-29.492941594326737
 10
113.90160032864797
 20
-29.45498645172468
 10
113.54564871804578
 20
-29.38448370193933
 10
113.19755095246151
 20
-29.282013548173254
 10
112.8601717065215
 20
-29.14841926975332
 10
112.53628744666946
 20
-28.984800282353646
 10
112.22856358220356
 20
-28.79250309034147
 10
111.93953253025944
 20
-28.573110205703728
 10
111.67157287525382
 20
-28.3284271247462
 10
111.42688979429629
 20
-28.060467469740573
 10
111.20749690965854
 20
-27.77143641779645
 10
111.01519971764637
 20
-27.463712553330552
 10
110.85158073024668
 20
-27.139828293478516
 10
110.71798645182675
 20
-26.802449047538502
 10
110.61551629806067
 20
-26.454351281954246
 10
110.54501354827532
 20
-26.09839967135204
 10
110.50705840567326
 20
-25.737523523667477
 10
110.5019632225437
 20
-25.37469267337154
 10
110.52976992975567
 20
-25.01289304118319
 10
110.59024969168755
 20
-24.65510206139993
 10
110.6829047894323
 20
-24.304264179067502
 10
110.8069727167812
 20
-23.96326661863496
 10
110.96143245527752
 20
-23.63491562350741
 10
111.1450128766998
 20
-23.32191336203313
 10
111.35620320382644
 20
-23.026835689977545
 10
111.59326544339447
 20
-22.75211095248821
 10
111.85424868893541
 20
-22.5
  0
LINE
  5
9E
330
17
100
AcDbEntity
  8
OUTLINE
100
AcDbLine
 10
62.64575131106459
 20
-22.5
 30
0.0
 11
111.85424868893541
 21
-22.5
 31
0.0
  0
LWPOLYLINE
  5
9F
330
17
100
AcDbEntity
  8
OUTLINE
100
AcDbPolyline
 90
37
 70
0
 10
62.645751311064465
 20
-22.499999999999886
 10
63.023829226187566
 20
-22.88151631457174
 10
63.347384172602844
 20
-23.310246771663998
 10
63.61058209855042
 20
-23.778460889312342
 10
63.80867725577303
 20
-24.27771625170044
 10
63.9380977705799
 20
-24.79901073520803
 10
63.99651004866028
 20
-25.332944826606763
 10
63.98286085235695
 20
-25.869891106627946
 10
63.89739629170039
 20
-26.400167842927118
 10
63.74165738677397
 20
-26.91421356237302
 10
63.51845228142603
 20
-27.402759454930646
 10
63.23180560934582
 20
-27.85699650050671
 10
62.886885925489004
 20
-28.26873430527624
 10
62.489912511343675
 20
-28.63054878349695
 10
62.04804323444079
 20
-28.93591602194543
 10
61.569245484125254
 20
-29.179329913252204
 10
61.06215251075782
 20
-29.356401437077167
 10
60.53590775871008
 20
-29.46393779897646
 10
60.0
 20
-29.5
 10
59.46409224128992
 20
-29.46393779897646
 10
58.93784748924218
 20
-29.356401437077167
 10
58.43075451587474
 20
-29.179329913252204
 10
57.95195676555921
 20
-28.93591602194543
 10
57.51008748865633
 20
-28.63054878349695
 10
57.113114074511
 20
-28.26873430527624
 10
56.76819439065418
 20
-27.85699650050671
 10
56.48154771857397
 20
-27.402759454930646
 10
56.25834261322603
 20
-26.91421356237302
 10
56.10260370829961
 20
-26.400167842927132
 10
56.01713914764305
 20
-25.869891106627946
 10
56.00348995133972
 20
-25.332944826606763
 10
56.0619022294201
 20
-24.79901073520803
 10
56.191322744226966
 20
-24.27771625170044
 10
56.38941790144958
 20
-23.778460889312342
 10
56.652615827397156
 20
-23.310246771663998
 10
56.976170773812434
 20
-22.881516314571755
 10
57.354248688935535
 20
-22.499999999999886
  0
LINE
  5
A0
330
17
100
AcDbEntity
  8
OUTLINE
100
AcDbLine
 10
56.0
 20
-22.5
 30
0.0
 11
57.35424868893541
 21
-22.5
 31
0.0
  0
LINE
  5
A1
330
17
100
AcDbEntity
  8
OUTLINE
100
AcDbLine
 10
115.0
 20
-20.0
 30
0.0
 11
56.0
 21
-20.0
 31
0.0
  0
LWPOLYLINE
  5
A2
330
17
100
AcDbEntity
  8
OUTLINE
100
AcDbPolyline
 90
37
 70
0
 10
115.0
 20
-20.0
 10
115.21809693682668
 20
-20.004758892090706
 10
115.43577871373829
 20
-20.019026509541277
 10
115.65263096110026
 20
-20.04277569313095
 10
115.86824088833465
 20
-20.07596123493896
 10
116.0821980696905
 20
-20.118519964400335
 10
116.2940952255126
 20
-20.170370868554656
 10
116.50352899752136
 20
-20.231415246258862
 10
116.71010071662835
 20
-20.30153689607046
 10
116.91341716182545
 20
-20.380602337443563
 10
117.1130913087035
 20
-20.46846106481675
 10
117.30874306617517
 20
-20.564945834108897
 10
117.5
 20
-20.669872981077802
 10
117.68649804173413
 20
-20.783042770935566
 10
117.86788218175523
 20
-20.904239778555038
 10
118.0438071450436
 20
-21.03323329854382
 10
118.2139380484327
 20
-21.169777784405113
 10
118.3779510380783
 20
-21.313613315949382
 10
118.53553390593274
 20
-21.464466094067262
 10
118.68638668405062
 20
-21.622048961921692
 10
118.83022221559489
 20
-21.786061951567305
 10
118.96676670145618
 20
-21.9561928549564
 10
119.09576022144496
 20
-22.132117818244765
 10
119.21695722906443
 20
-22.313501958265874
 10
119.3301270189222
 20
-22.5
 10
119.4350541658911
 20
-22.69125693382483
 10
119.53153893518325
 20
-22.886908691296497
 10
119.61939766255644
 20
-23.08658283817455
 10
119.69846310392954
 20
-23.289899283371653
 10
119.76858475374114
 20
-23.49647100247863
 10
119.82962913144534
 20
-23.705904774487394
 10
119.88148003559967
 20
-23.91780193030948
 10
119.92403876506104
 20
-24.131759111665346
 10
119.95722430686905
 20
-24.347369038899743
 10
119.98097349045872
 20
-24.564221286261713
 10
119.9952411079093
 20
-24.781903063173317
 10
120.0
 20
-25.0
  0
LINE
  5
A3
330
17
100
AcDbEntity
  8
OUTLINE
100
AcDbLine
 10
120.0
 20
-95.0
 30
0.0
 11
120.0
 21
-25.0
 31
0.0
  0
LWPOLYLINE
  5
A4
330
17
100
AcDbEntity
  8
OUTLINE
100
AcDbPolyline
 90
37
 70
0
 10
120.0
 20
-95.0
 10
119.9952411079093
 20
-95.21809693682668
 10
119.98097349045872
 20
-95.43577871373829
 10
119.95722430686905
 20
-95.65263096110026
 10
119.92403876506104
 20
-95.86824088833465
 10
119.88148003559967
 20
-96.08219806969052
 10
119.82962913144534
 20
-96.2940952255126
 10
119.76858475374114
 20
-96.50352899752137
 10
119.69846310392954
 20
-96.71010071662835
 10
119.61939766255644
 20
-96.91341716182545
 10
119.53153893518325
 20
-97.1130913087035
 10
119.4350541658911
 20
-97.30874306617517
 10
119.3301270189222
 20
-97.5
 10
119.21695722906443
 20
-97.68649804173413
 10
119.09576022144496
 20
-97.86788218175523
 10
118.96676670145618
 20
-98.0438071450436
 10
118.83022221559489
 20
-98.2139380484327
 10
118.68638668405062
 20
-98.37795103807831
 10
118.53553390593274
 20
-98.53553390593274
 10
118.37795103807831
 20
-98.68638668405062
 10
118.2139380484327
 20
-98.83022221559489
 10
118.0438071450436
 20
-98.96676670145618
 10
117.86788218175523
 20
-99.09576022144496
 10
117.68649804173413
 20
-99.21695722906443
 10
117.5
 20
-99.3301270189222
 10
117.30874306617517
 20
-99.4350541658911
 10
117.1130913087035
 20
-99.53153893518325
 10
116.91341716182545
 20
-99.61939766255644
 10
116.71010071662835
 20
-99.69846310392954
 10
116.50352899752137
 20
-99.76858475374114
 10
116.2940952255126
 20
-99.82962913144534
 10
116.08219806969052
 20
-99.88148003559967
 10
115.86824088833465
 20
-99.92403876506104
 10
115.65263096110026
 20
-99.95722430686905
 10
115.43577871373829
 20
-99.98097349045872
 10
115.21809693682668
 20
-99.9952411079093
 10
115.0
 20
-100.0
  0
LINE
  5
A5
330
17
100
AcDbEntity
  8
OUTLINE
100
AcDbLine
 10
4.999999999999999
 20
-100.0
 30
0.0
 11
115.0
 21
-100.0
 31
0.0
  0
LWPOLYLINE
  5
A6
330
17
100
AcDbEntity
  8
OUTLINE
100
AcDbPolyline
 90
37
 70
0
 10
5.0
 20
-100.0
 10
4.781903063173321
 20
-99.9952411079093
 10
4.564221286261709
 20
-99.98097349045872
 10
4.347369038899743
 20
-99.95722430686905
 10
4.13175911166535
 20
-99.92403876506104
 10
3.917801930309487
 20
-99.88148003559967
 10
3.7059047744873976
 20
-99.82962913144534
 10
3.496471002478636
 20
-99.76858475374114
 10
3.2898992833716583
 20
-99.69846310392954
 10
3.0865828381745493
 20
-99.61939766255644
 10
2.886908691296501
 20
-99.53153893518325
 10
2.6912569338248287
 20
-99.4350541658911
 10
2.4999999999999987
 20
-99.3301270189222
 10
2.3135019582658796
 20
-99.21695722906443
 10
2.132117818244769
 20
-99.09576022144496
 10
1.956192854956396
 20
-98.96676670145618
 10
1.7860619515673029
 20
-98.83022221559489
 10
1.6220489619216982
 20
-98.68638668405062
 10
1.4644660940672622
 20
-98.53553390593274
 10
1.3136133159493797
 20
-98.37795103807831
 10
1.16977778440511
 20
-98.2139380484327
 10
1.0332332985438244
 20
-98.0438071450436
 10
0.9042397785550413
 20
-97.86788218175523
 10
0.7830427709355714
 20
-97.68649804173413
 10
0.6698729810778072
 20
-97.5
 10
0.564945834108892
 20
-97.30874306617517
 10
0.4684610648167489
 20
-97.1130913087035
 10
0.380602337443567
 20
-96.91341716182545
 10
0.30153689607045653
 20
-96.71010071662835
 10
0.2314152462588659
 20
-96.50352899752137
 10
0.17037086855465766
 20
-96.2940952255126
 10
0.11851996440033208
 20
-96.08219806969052
 10
0.07596123493895934
 20
-95.86824088833465
 10
0.04277569313094709
 20
-95.65263096110026
 10
0.019026509541271608
 20
-95.43577871373829
 10
0.004758892090710454
 20
-95.21809693682668
 10
-8.881784197001252e-16
 20
-95.0
  0
LINE
  5
A7
330
17
100
AcDbEntity
  8
OUTLINE
100
AcDbLine
 10
-8.881784197001252e-16
 20
-25.0
 30
0.0
 11
-8.881784197001252e-16
 21
-95.0
 31
0.0
  0
LWPOLYLINE
  5
A8
330
17
100
AcDbEntity
  8
OUTLINE
100
AcDbPolyline
 90
37
 70
0
 10
-8.881784197001252e-16
 20
-25.0
 10
0.004758892090710454
 20
-24.781903063173317
 10
0.019026509541271608
 20
-24.564221286261713
 10
0.04277569313094709
 20
-24.347369038899743
 10
0.07596123493895934
 20
-24.131759111665346
 10
0.11851996440033208
 20
-23.91780193030948
 10
0.17037086855465766
 20
-23.705904774487394
 10
0.23141524625886412
 20
-23.49647100247863
 10
0.30153689607045653
 20
-23.289899283371653
 10
0.3806023374435652
 20
-23.08658283817455
 10
0.46846106481674976
 20
-22.886908691296497
 10
0.5649458341088902
 20
-22.69125693382483
 10
0.6698729810778055
 20
-22.5
 10
0.7830427709355705
 20
-22.313501958265874
 10
0.9042397785550405
 20
-22.132117818244765
 10
1.0332332985438235
 20
-21.9561928549564
 10
1.1697777844051087
 20
-21.786061951567305
 10
1.3136133159493788
 20
-21.622048961921706
 10
1.4644660940672614
 20
-21.464466094067262
 10
1.6220489619216978
 20
-21.313613315949382
 10
1.7860619515673029
 20
-21.169777784405113
 10
1.956192854956396
 20
-21.03323329854382
 10
2.132117818244769
 20
-20.904239778555038
 10
2.3135019582658796
 20
-20.783042770935566
 10
2.4999999999999987
 20
-20.669872981077802
 10
2.6912569338248296
 20
-20.564945834108897
 10
2.886908691296502
 20
-20.46846106481675
 10
3.08658283817455
 20
-20.380602337443563
 10
3.289899283371655
 20
-20.30153689607046
 10
3.496471002478633
 20
-20.231415246258862
 10
3.7059047744873954
 20
-20.170370868554656
 10
3.9178019303094844
 20
-20.118519964400335
 10
4.131759111665346
 20
-20.07596123493896
 10
4.347369038899741
 20
-20.04277569313095
 10
4.5642212862617075
 20
-20.019026509541277
 10
4.781903063173319
 20
-20.004758892090706
 10
4.999999999999999
 20
-20.0
  0
LINE
  5
A9
330
17
100
AcDbEntity
  8
OUTLINE
100
AcDbLine
 10
16.0
 20
-20.0
 30
0.0
 11
4.999999999999999
 21
-20.0
 31
0.0
  0
LINE
  5
AA
330
17
100
AcDbEntity
  8
OUTLINE
100
AcDbLine
 10
14.0
 20
-51.0
 30
0.0
 11
4.5
 21
-51.0
 31
0.0
  0
LINE
  5
AB
330
17
100
AcDbEntity
  8
OUTLINE
100
AcDbLine
 10
14.0
 20
-65.0
 30
0.0
 11
14.0
 21
-51.0
 31
0.0
  0
LINE
  5
AC
330
17
100
AcDbEntity
  8
OUTLINE
100
AcDbLine
 10
4.5
 20
-65.0
 30
0.0
 11
14.0
 21
-65.0
 31
0.0
  0
LINE
  5
AD
330
17
100
AcDbEntity
  8
OUTLINE
100
AcDbLine
 10
4.5
 20
-51.0
 30
0.0
 11
4.5
 21
-65.0
 31
0.0
  0
LINE
  5
AE
330
17
100
AcDbEntity
  8
OUTLINE
100
AcDbLine
 10
43.0
 20
-68.0
 30
0.0
 11
43.0
 21
-71.0
 31
0.0
  0
LINE
  5
AF
330
17
100
AcDbEntity
  8
OUTLINE
100
AcDbLine
 10
45.7
 20
-68.0
 30
0.0
 11
43.0
 21
-68.0
 31
0.0
  0
LINE
  5
B0
330
17
100
AcDbEntity
  8
OUTLINE
100
AcDbLine
 10
45.7
 20
-71.0
 30
0.0
 11
45.7
 21
-68.0
 31
0.0
  0
LINE
  5
B1
330
17
100
AcDbEntity
  8
OUTLINE
100
AcDbLine
 10
47.5
 20
-71.0
 30
0.0
 11
45.7
 21
-71.0
 31
0.0
  0
LINE
  5
B2
330
17
100
AcDbEntity
  8
OUTLINE
100
AcDbLine
 10
47.5
 20
-69.9
 30
0.0
 11
47.5
 21
-71.0
 31
0.0
  0
LINE
  5
B3
330
17
100
AcDbEntity
  8
OUTLINE
100
AcDbLine
 10
66.5
 20
-69.9
 30
0.0
 11
47.5
 21
-69.9
 31
0.0
  0
LINE
  5
B4
330
17
100
AcDbEntity
  8
OUTLINE
100
AcDbLine
 10
66.5
 20
-73.0
 30
0.0
 11
66.5
 21
-69.9
 31
0.0
  0
LINE
  5
B5
330
17
100
AcDbEntity
  8
OUTLINE
100
AcDbLine
 10
45.0
 20
-73.0
 30
0.0
 11
66.5
 21
-73.0
 31
0.0
  0
LINE
  5
B6
330
17
100
AcDbEntity
  8
OUTLINE
100
AcDbLine
 10
45.0
 20
-71.0
 30
0.0
 11
45.0
 21
-73.0
 31
0.0
  0
LINE
  5
B7
330
17
100
AcDbEntity
  8
OUTLINE
100
AcDbLine
 10
43.0
 20
-71.0
 30
0.0
 11
45.0
 21
-71.0
 31
0.0
  0
LINE
  5
B8
330
17
100
AcDbEntity
  8
OUTLINE
100
AcDbLine
 10
74.5
 20
-69.9
 30
0.0
 11
74.5
 21
-73.0
 31
0.0
  0
LINE
  5
B9
330
17
100
AcDbEntity
  8
OUTLINE
100
AcDbLine
 10
94.7
 20
-69.9
 30
0.0
 11
74.5
 21
-69.9
 31
0.0
  0
LINE
  5
BA
330
17
100
AcDbEntity
  8
OUTLINE
100
AcDbLine
 10
94.7
 20
-71.0
 30
0.0
 11
94.7
 21
-69.9
 31
0.0
  0
LINE
  5
BB
330
17
100
AcDbEntity
  8
OUTLINE
100
AcDbLine
 10
100.0
 20
-71.0
 30
0.0
 11
94.7
 21
-71.0
 31
0.0
  0
LINE
  5
BC
330
17
100
AcDbEntity
  8
OUTLINE
100
AcDbLine
 10
100.0
 20
-73.0
 30
0.0
 11
100.0
 21
-71.0
 31
0.0
  0
LINE
  5
BD
330
17
100
AcDbEntity
  8
OUTLINE
100
AcDbLine
 10
74.5
 20
-73.0
 30
0.0
 11
100.0
 21
-73.0
 31
0.0
  0
LINE
  5
BE
330
17
100
AcDbEntity
  8
OUTLINE
100
AcDbLine
 10
100.0
 20
-53.0
 30
0.0
 11
98.0
 21
-53.0
 31
0.0
  0
LINE
  5
BF
330
17
100
AcDbEntity
  8
OUTLINE
100
AcDbLine
 10
100.0
 20
-63.0
 30
0.0
 11
100.0
 21
-53.0
 31
0.0
  0
LINE
  5
C0
330
17
100
AcDbEntity
  8
OUTLINE
100
AcDbLine
 10
98.0
 20
-63.0
 30
0.0
 11
100.0
 21
-63.0
 31
0.0
  0
LINE
  5
C1
330
17
100
AcDbEntity
  8
OUTLINE
100
AcDbLine
 10
98.0
 20
-53.0
 30
0.0
 11
98.0
 21
-63.0
 31
0.0
  0
LINE
  5
C2
330
17
100
AcDbEntity
  8
OUTLINE
100
AcDbLine
 10
100.0
 20
-43.0
 30
0.0
 11
45.0
 21
-43.0
 31
0.0
  0
LINE
  5
C3
330
17
100
AcDbEntity
  8
OUTLINE
100
AcDbLine
 10
100.0
 20
-45.0
 30
0.0
 11
100.0
 21
-43.0
 31
0.0
  0
LINE
  5
C4
330
17
100
AcDbEntity
  8
OUTLINE
100
AcDbLine
 10
94.7
 20
-45.0
 30
0.0
 11
100.0
 21
-45.0
 31
0.0
  0
LINE
  5
C5
330
17
100
AcDbEntity
  8
OUTLINE
100
AcDbLine
 10
94.7
 20
-46.1
 30
0.0
 11
94.7
 21
-45.0
 31
0.0
  0
LINE
  5
C6
330
17
100
AcDbEntity
  8
OUTLINE
100
AcDbLine
 10
92.27000000000001
 20
-46.1
 30
0.0
 11
94.7
 21
-46.1
 31
0.0
  0
LINE
  5
C7
330
17
100
AcDbEntity
  8
OUTLINE
100
AcDbLine
 10
92.27000000000001
 20
-45.0
 30
0.0
 11
92.27000000000001
 21
-46.1
 31
0.0
  0
LINE
  5
C8
330
17
100
AcDbEntity
  8
OUTLINE
100
AcDbLine
 10
87.87
 20
-45.0
 30
0.0
 11
92.27000000000001
 21
-45.0
 31
0.0
  0
LINE
  5
C9
330
17
100
AcDbEntity
  8
OUTLINE
100
AcDbLine
 10
87.87
 20
-46.1
 30
0.0
 11
87.87
 21
-45.0
 31
0.0
  0
LINE
  5
CA
330
17
100
AcDbEntity
  8
OUTLINE
100
AcDbLine
 10
84.65
 20
-46.1
 30
0.0
 11
87.87
 21
-46.1
 31
0.0
  0
LINE
  5
CB
330
17
100
AcDbEntity
  8
OUTLINE
100
AcDbLine
 10
84.65
 20
-45.0
 30
0.0
 11
84.65
 21
-46.1
 31
0.0
  0
LINE
  5
CC
330
17
100
AcDbEntity
  8
OUTLINE
100
AcDbLine
 10
80.25
 20
-45.0
 30
0.0
 11
84.65
 21
-45.0
 31
0.0
  0
LINE
  5
CD
330
17
100
AcDbEntity
  8
OUTLINE
100
AcDbLine
 10
80.25
 20
-46.1
 30
0.0
 11
80.25
 21
-45.0
 31
0.0
  0
LINE
  5
CE
330
17
100
AcDbEntity
  8
OUTLINE
100
AcDbLine
 10
56.71
 20
-46.1
 30
0.0
 11
80.25
 21
-46.1
 31
0.0
  0
LINE
  5
CF
330
17
100
AcDbEntity
  8
OUTLINE
100
AcDbLine
 10
56.71
 20
-45.0
 30
0.0
 11
56.71
 21
-46.1
 31
0.0
  0
LINE
  5
D0
330
17
100
AcDbEntity
  8
OUTLINE
100
AcDbLine
 10
45.7
 20
-45.0
 30
0.0
 11
56.71
 21
-45.0
 31
0.0
  0
LINE
  5
D1
330
17
100
AcDbEntity
  8
OUTLINE
100
AcDbLine
 10
45.7
 20
-48.0
 30
0.0
 11
45.7
 21
-45.0
 31
0.0
  0
LINE
  5
D2
330
17
100
AcDbEntity
  8
OUTLINE
100
AcDbLine
 10
43.0
 20
-48.0
 30
0.0
 11
45.7
 21
-48.0
 31
0.0
  0
LINE
  5
D3
330
17
100
AcDbEntity
  8
OUTLINE
100
AcDbLine
 10
43.0
 20
-45.0
 30
0.0
 11
43.0
 21
-48.0
 31
0.0
  0
LINE
  5
D4
330
17
100
AcDbEntity
  8
OUTLINE
100
AcDbLine
 10
45.0
 20
-45.0
 30
0.0
 11
43.0
 21
-45.0
 31
0.0
  0
LINE
  5
D5
330
17
100
AcDbEntity
  8
OUTLINE
100
AcDbLine
 10
45.0
 20
-43.0
 30
0.0
 11
45.0
 21
-45.0
 31
0.0
  0
LINE
  5
D6
330
17
100
AcDbEntity
  8
OUTLINE
100
AcDbLine
 10
109.0
 20
-35.0
 30
0.0
 11
101.0
 21
-35.0
 31
0.0
  0
LINE
  5
D7
330
17
100
AcDbEntity
  8
OUTLINE
100
AcDbLine
 10
109.0
 20
-41.0
 30
0.0
 11
109.0
 21
-35.0
 31
0.0
  0
LINE
  5
D8
330
17
100
AcDbEntity
  8
OUTLINE
100
AcDbLine
 10
101.0
 20
-41.0
 30
0.0
 11
109.0
 21
-41.0
 31
0.0
  0
LINE
  5
D9
330
17
100
AcDbEntity
  8
OUTLINE
100
AcDbLine
 10
101.0
 20
-35.0
 30
0.0
 11
101.0
 21
-41.0
 31
0.0
  0
TEXT
  5
DA
330
17
100
AcDbEntity
  8
TEXT
100
AcDbText
 10
0.0
 20
-108.0
 30
0.0
 40
2.8
  1
FRONT SECTION at Y=26 (back wall): keyholes, saddles, cradle, bosses
 11
0.0
 21
-108.0
 31
0.0
100
AcDbText
  0
DIMENSION
  5
DB
330
17
100
AcDbEntity
  8
DIMS
100
AcDbDimension
280
0
  2
*D1
  3
EZDXF
 10
0.0
 20
-110.0
 30
0.0
 11
60.0
 21
-108.15
 31
0.0
 70
32
 71
5
  1
<>
100
AcDbAlignedDimension
 13
0.0
 23
-100.0
 33
0.0
 14
120.0
 24
-100.0
 34
0.0
 50
0.0
100
AcDbRotatedDimension
1001
ACAD
1000
DSTYLE
1002
{
1070
140
1040
2.5
1070
41
1040
1.5
1070
42
1040
0.8
1070
44
1040
1.0
1070
147
1040
0.6
1070
271
1070
1
1002
}
  0
DIMENSION
  5
EA
330
17
100
AcDbEntity
  8
DIMS
100
AcDbDimension
280
0
  2
*D2
  3
EZDXF
 10
-12.0
 20
-100.0
 30
0.0
 11
-13.85
 21
-60.0
 31
0.0
 70
32
 71
5
  1
<>
100
AcDbAlignedDimension
 13
0.0
 23
-100.0
 33
0.0
 14
0.0
 24
-20.0
 34
0.0
 50
90.0
100
AcDbRotatedDimension
1001
ACAD
1000
DSTYLE
1002
{
1070
140
1040
2.5
1070
41
1040
1.5
1070
42
1040
0.8
1070
44
1040
1.0
1070
147
1040
0.6
1070
271
1070
1
1002
}
  0
DIMENSION
  5
F9
330
17
100
AcDbEntity
  8
DIMS
100
AcDbDimension
280
0
  2
*D3
  3
EZDXF
 10
25.0
 20
-12.0
 30
0.0
 11
60.0
 21
-10.15
 31
0.0
 70
32
 71
5
  1
keyhole pitch <>
100
AcDbAlignedDimension
 13
25.0
 23
-38.0
 33
0.0
 14
95.0
 24
-38.0
 34
0.0
 50
0.0
100
AcDbRotatedDimension
1001
ACAD
1000
DSTYLE
1002
{
1070
140
1040
2.5
1070
41
1040
1.5
1070
42
1040
0.8
1070
44
1040
1.0
1070
147
1040
0.6
1070
271
1070
1
1002
}
  0
DIMENSION
  5
108
330
17
100
AcDbEntity
  8
DIMS
100
AcDbDimension
280
0
  2
*D4
  3
EZDXF
 10
130.0
 20
-100.0
 30
0.0
 11
128.15
 21
-69.0
 31
0.0
 70
32
 71
5
  1
keyhole <>
100
AcDbAlignedDimension
 13
120.0
 23
-100.0
 33
0.0
 14
120.0
 24
-38.0
 34
0.0
 50
90.0
100
AcDbRotatedDimension
1001
ACAD
1000
DSTYLE
1002
{
1070
140
1040
2.5
1070
41
1040
1.5
1070
42
1040
0.8
1070
44
1040
1.0
1070
147
1040
0.6
1070
271
1070
1
1002
}
  0
DIMENSION
  5
117
330
17
100
AcDbEntity
  8
DIMS
100
AcDbDimension
280
0
  2
*D5
  3
EZDXF
 10
140.0
 20
-100.0
 30
0.0
 11
137.15
 21
-79.0
 31
0.0
 70
32
 71
5
  1
board centre <>
100
AcDbAlignedDimension
 13
120.0
 23
-100.0
 33
0.0
 14
120.0
 24
-58.0
 34
0.0
 50
90.0
100
AcDbRotatedDimension
1001
ACAD
1000
DSTYLE
1002
{
1070
140
1040
2.5
1070
41
1040
1.5
1070
42
1040
0.8
1070
44
1040
1.0
1070
147
1040
0.6
1070
271
1070
1
1002
}
  0
LWPOLYLINE
  5
126
330
17
100
AcDbEntity
  8
OUTLINE
100
AcDbPolyline
 90
37
 70
0
 10
-8.881784197001252e-16
 20
-145.0
 10
0.004758892090710454
 20
-144.78190306317333
 10
0.019026509541271608
 20
-144.56422128626173
 10
0.04277569313094709
 20
-144.34736903889973
 10
0.07596123493895934
 20
-144.13175911166536
 10
0.11851996440033208
 20
-143.91780193030948
 10
0.17037086855465766
 20
-143.7059047744874
 10
0.23141524625886412
 20
-143.49647100247864
 10
0.30153689607045653
 20
-143.28989928337165
 10
0.3806023374435652
 20
-143.08658283817454
 10
0.46846106481674976
 20
-142.8869086912965
 10
0.5649458341088902
 20
-142.69125693382483
 10
0.6698729810778055
 20
-142.5
 10
0.7830427709355705
 20
-142.31350195826587
 10
0.9042397785550405
 20
-142.13211781824475
 10
1.0332332985438235
 20
-141.95619285495638
 10
1.1697777844051087
 20
-141.78606195156732
 10
1.3136133159493788
 20
-141.6220489619217
 10
1.4644660940672614
 20
-141.46446609406726
 10
1.6220489619216978
 20
-141.3136133159494
 10
1.7860619515673029
 20
-141.1697777844051
 10
1.956192854956396
 20
-141.03323329854382
 10
2.132117818244769
 20
-140.90423977855505
 10
2.3135019582658796
 20
-140.78304277093557
 10
2.4999999999999987
 20
-140.6698729810778
 10
2.6912569338248296
 20
-140.5649458341089
 10
2.886908691296502
 20
-140.46846106481675
 10
3.08658283817455
 20
-140.38060233744358
 10
3.289899283371655
 20
-140.30153689607044
 10
3.496471002478633
 20
-140.23141524625885
 10
3.7059047744873954
 20
-140.17037086855464
 10
3.9178019303094844
 20
-140.11851996440032
 10
4.131759111665346
 20
-140.07596123493897
 10
4.347369038899741
 20
-140.04277569313095
 10
4.5642212862617075
 20
-140.01902650954128
 10
4.781903063173319
 20
-140.0047588920907
 10
4.999999999999999
 20
-140.0
  0
LINE
  5
127
330
17
100
AcDbEntity
  8
OUTLINE
100
AcDbLine
 10
115.0
 20
-140.0
 30
0.0
 11
4.999999999999999
 21
-140.0
 31
0.0
  0
LWPOLYLINE
  5
128
330
17
100
AcDbEntity
  8
OUTLINE
100
AcDbPolyline
 90
37
 70
0
 10
115.0
 20
-140.0
 10
115.21809693682668
 20
-140.0047588920907
 10
115.43577871373829
 20
-140.01902650954128
 10
115.65263096110026
 20
-140.04277569313095
 10
115.86824088833465
 20
-140.07596123493897
 10
116.0821980696905
 20
-140.11851996440032
 10
116.2940952255126
 20
-140.17037086855464
 10
116.50352899752136
 20
-140.23141524625885
 10
116.71010071662835
 20
-140.30153689607044
 10
116.91341716182545
 20
-140.38060233744358
 10
117.1130913087035
 20
-140.46846106481675
 10
117.30874306617517
 20
-140.5649458341089
 10
117.5
 20
-140.6698729810778
 10
117.68649804173413
 20
-140.78304277093557
 10
117.86788218175523
 20
-140.90423977855505
 10
118.0438071450436
 20
-141.03323329854382
 10
118.2139380484327
 20
-141.1697777844051
 10
118.3779510380783
 20
-141.3136133159494
 10
118.53553390593274
 20
-141.46446609406726
 10
118.68638668405062
 20
-141.62204896192168
 10
118.83022221559489
 20
-141.78606195156732
 10
118.96676670145618
 20
-141.95619285495638
 10
119.09576022144496
 20
-142.13211781824475
 10
119.21695722906443
 20
-142.31350195826587
 10
119.3301270189222
 20
-142.5
 10
119.4350541658911
 20
-142.69125693382483
 10
119.53153893518325
 20
-142.8869086912965
 10
119.61939766255644
 20
-143.08658283817454
 10
119.69846310392954
 20
-143.28989928337165
 10
119.76858475374114
 20
-143.49647100247864
 10
119.82962913144534
 20
-143.7059047744874
 10
119.88148003559967
 20
-143.91780193030948
 10
119.92403876506104
 20
-144.13175911166536
 10
119.95722430686905
 20
-144.34736903889973
 10
119.98097349045872
 20
-144.56422128626173
 10
119.9952411079093
 20
-144.78190306317333
 10
120.0
 20
-145.0
  0
LINE
  5
129
330
17
100
AcDbEntity
  8
OUTLINE
100
AcDbLine
 10
120.0
 20
-215.0
 30
0.0
 11
120.0
 21
-145.0
 31
0.0
  0
LWPOLYLINE
  5
12A
330
17
100
AcDbEntity
  8
OUTLINE
100
AcDbPolyline
 90
37
 70
0
 10
120.0
 20
-215.0
 10
119.9952411079093
 20
-215.21809693682667
 10
119.98097349045872
 20
-215.4357787137383
 10
119.95722430686905
 20
-215.65263096110027
 10
119.92403876506104
 20
-215.86824088833464
 10
119.88148003559967
 20
-216.08219806969052
 10
119.82962913144534
 20
-216.2940952255126
 10
119.76858475374114
 20
-216.50352899752136
 10
119.69846310392954
 20
-216.71010071662835
 10
119.61939766255644
 20
-216.91341716182546
 10
119.53153893518325
 20
-217.1130913087035
 10
119.4350541658911
 20
-217.30874306617517
 10
119.3301270189222
 20
-217.5
 10
119.21695722906443
 20
-217.68649804173413
 10
119.09576022144496
 20
-217.86788218175522
 10
118.96676670145618
 20
-218.04380714504362
 10
118.83022221559489
 20
-218.2139380484327
 10
118.68638668405062
 20
-218.3779510380783
 10
118.53553390593274
 20
-218.53553390593274
 10
118.37795103807831
 20
-218.68638668405063
 10
118.2139380484327
 20
-218.8302222155949
 10
118.0438071450436
 20
-218.96676670145618
 10
117.86788218175523
 20
-219.09576022144495
 10
117.68649804173413
 20
-219.21695722906443
 10
117.5
 20
-219.33012701892218
 10
117.30874306617517
 20
-219.4350541658911
 10
117.1130913087035
 20
-219.53153893518325
 10
116.91341716182545
 20
-219.61939766255642
 10
116.71010071662835
 20
-219.69846310392956
 10
116.50352899752137
 20
-219.76858475374112
 10
116.2940952255126
 20
-219.82962913144533
 10
116.08219806969052
 20
-219.88148003559968
 10
115.86824088833465
 20
-219.92403876506103
 10
115.65263096110026
 20
-219.95722430686905
 10
115.43577871373829
 20
-219.98097349045872
 10
115.21809693682668
 20
-219.9952411079093
 10
115.0
 20
-220.0
  0
LINE
  5
12B
330
17
100
AcDbEntity
  8
OUTLINE
100
AcDbLine
 10
4.999999999999999
 20
-220.0
 30
0.0
 11
115.0
 21
-220.0
 31
0.0
  0
LWPOLYLINE
  5
12C
330
17
100
AcDbEntity
  8
OUTLINE
100
AcDbPolyline
 90
37
 70
0
 10
5.0
 20
-220.0
 10
4.781903063173321
 20
-219.9952411079093
 10
4.564221286261709
 20
-219.98097349045872
 10
4.347369038899743
 20
-219.95722430686905
 10
4.13175911166535
 20
-219.92403876506103
 10
3.917801930309487
 20
-219.88148003559968
 10
3.7059047744873976
 20
-219.82962913144533
 10
3.496471002478636
 20
-219.76858475374112
 10
3.2898992833716583
 20
-219.69846310392956
 10
3.0865828381745493
 20
-219.61939766255642
 10
2.886908691296501
 20
-219.53153893518325
 10
2.6912569338248287
 20
-219.4350541658911
 10
2.4999999999999987
 20
-219.33012701892218
 10
2.3135019582658796
 20
-219.21695722906443
 10
2.132117818244769
 20
-219.09576022144495
 10
1.956192854956396
 20
-218.96676670145618
 10
1.7860619515673029
 20
-218.8302222155949
 10
1.6220489619216982
 20
-218.68638668405063
 10
1.4644660940672622
 20
-218.53553390593274
 10
1.3136133159493797
 20
-218.3779510380783
 10
1.16977778440511
 20
-218.2139380484327
 10
1.0332332985438244
 20
-218.04380714504362
 10
0.9042397785550413
 20
-217.86788218175522
 10
0.7830427709355714
 20
-217.68649804173413
 10
0.6698729810778072
 20
-217.5
 10
0.564945834108892
 20
-217.30874306617517
 10
0.4684610648167489
 20
-217.1130913087035
 10
0.380602337443567
 20
-216.91341716182546
 10
0.30153689607045653
 20
-216.71010071662835
 10
0.2314152462588659
 20
-216.50352899752136
 10
0.17037086855465766
 20
-216.2940952255126
 10
0.11851996440033208
 20
-216.08219806969052
 10
0.07596123493895934
 20
-215.86824088833464
 10
0.04277569313094709
 20
-215.65263096110027
 10
0.019026509541271608
 20
-215.4357787137383
 10
0.004758892090710454
 20
-215.21809693682667
 10
-8.881784197001252e-16
 20
-215.0
  0
LINE
  5
12D
330
17
100
AcDbEntity
  8
OUTLINE
100
AcDbLine
 10
0.0
 20
-181.5
 30
0.0
 11
-8.881784197001252e-16
 21
-215.0
 31
0.0
  0
LINE
  5
12E
330
17
100
AcDbEntity
  8
OUTLINE
100
AcDbLine
 10
2.5
 20
-181.5
 30
0.0
 11
0.0
 21
-181.5
 31
0.0
  0
LINE
  5
12F
330
17
100
AcDbEntity
  8
OUTLINE
100
AcDbLine
 10
2.5
 20
-211.8542486889354
 30
0.0
 11
2.5
 21
-181.5
 31
0.0
  0
LWPOLYLINE
  5
130
330
17
100
AcDbEntity
  8
OUTLINE
100
AcDbPolyline
 90
37
 70
0
 10
2.499999999999824
 20
-211.8542486889356
 10
2.7521109524880245
 20
-211.59326544339464
 10
3.026835689977352
 20
-211.3562032038266
 10
3.3219133620329253
 20
-211.14501287669992
 10
3.634915623507206
 20
-210.96143245527765
 10
3.963266618634746
 20
-210.8069727167813
 10
4.304264179067285
 20
-210.68290478943237
 10
4.65510206139972
 20
-210.59024969168757
 10
5.01289304118298
 20
-210.5297699297557
 10
5.374692673371333
 20
-210.5019632225437
 10
5.737523523667279
 20
-210.50705840567323
 10
6.098399671351856
 20
-210.54501354827528
 10
6.454351281954068
 20
-210.61551629806064
 10
6.802449047538338
 20
-210.71798645182668
 10
7.139828293478366
 20
-210.8515807302466
 10
7.463712553330414
 20
-211.01519971764628
 10
7.771436417796325
 20
-211.20749690965846
 10
8.060467469740463
 20
-211.4268897942962
 10
8.328427124746096
 20
-211.67157287525373
 10
8.573110205703633
 20
-211.93953253025933
 10
8.792503090341391
 20
-212.22856358220346
 10
8.984800282353586
 20
-212.53628744666935
 10
9.148419269753276
 20
-212.86017170652138
 10
9.282013548173225
 20
-213.1975509524614
 10
9.384483701939311
 20
-213.54564871804567
 10
9.454986451724668
 20
-213.90160032864787
 10
9.492941594326737
 20
-214.26247647633247
 10
9.49803677745631
 20
-214.6253073266284
 10
9.470230070244329
 20
-214.98710695881675
 10
9.409750308312468
 20
-215.3448979386
 10
9.317095210567713
 20
-215.69573582093247
 10
9.193027283218804
 20
-216.036733381365
 10
9.038567544722492
 20
-216.36508437649255
 10
8.854987123300216
 20
-216.67808663796686
 10
8.643796796173575
 20
-216.97316431002244
 10
8.406734556605537
 20
-217.2478890475118
 10
8.14575131106459
 20
-217.5
  0
LINE
  5
131
330
17
100
AcDbEntity
  8
OUTLINE
100
AcDbLine
 10
57.35424868893541
 20
-217.5
 30
0.0
 11
8.14575131106459
 21
-217.5
 31
0.0
  0
LWPOLYLINE
  5
132
330
17
100
AcDbEntity
  8
OUTLINE
100
AcDbPolyline
 90
37
 70
0
 10
57.354248688935506
 20
-217.50000000000009
 10
56.97617077381241
 20
-217.11848368542823
 10
56.652615827397135
 20
-216.68975322833597
 10
56.38941790144957
 20
-216.22153911068764
 10
56.19132274422696
 20
-215.72228374829953
 10
56.06190222942009
 20
-215.20098926479193
 10
56.00348995133972
 20
-214.6670551733932
 10
56.01713914764305
 20
-214.13010889337204
 10
56.10260370829962
 20
-213.59983215707285
 10
56.258342613226034
 20
-213.08578643762698
 10
56.48154771857398
 20
-212.59724054506933
 10
56.76819439065419
 20
-212.1430034994933
 10
57.11311407451101
 20
-211.73126569472376
 10
57.51008748865634
 20
-211.36945121650305
 10
57.95195676555922
 20
-211.06408397805455
 10
58.430754515874746
 20
-210.82067008674778
 10
58.93784748924218
 20
-210.64359856292282
 10
59.46409224128992
 20
-210.53606220102353
 10
60.0
 20
-210.5
 10
60.535907758710074
 20
-210.53606220102353
 10
61.06215251075781
 20
-210.64359856292282
 10
61.569245484125254
 20
-210.82067008674778
 10
62.04804323444078
 20
-211.06408397805455
 10
62.48991251134366
 20
-211.36945121650302
 10
62.88688592548899
 20
-211.73126569472376
 10
63.23180560934581
 20
-212.1430034994933
 10
63.518452281426015
 20
-212.59724054506933
 10
63.741657386773966
 20
-213.08578643762695
 10
63.89739629170038
 20
-213.59983215707285
 10
63.98286085235695
 20
-214.130108893372
 10
63.99651004866028
 20
-214.6670551733932
 10
63.93809777057991
 20
-215.20098926479193
 10
63.80867725577304
 20
-215.72228374829953
 10
63.61058209855044
 20
-216.22153911068762
 10
63.347384172602865
 20
-216.68975322833597
 10
63.02382922618759
 20
-217.11848368542823
 10
62.645751311064494
 20
-217.50000000000009
  0
LINE
  5
133
330
17
100
AcDbEntity
  8
OUTLINE
100
AcDbLine
 10
111.85424868893541
 20
-217.5
 30
0.0
 11
62.64575131106459
 21
-217.5
 31
0.0
  0
LWPOLYLINE
  5
134
330
17
100
AcDbEntity
  8
OUTLINE
100
AcDbPolyline
 90
37
 70
0
 10
111.85424868893541
 20
-217.5
 10
111.59326544339447
 20
-217.2478890475118
 10
111.35620320382642
 20
-216.97316431002244
 10
111.1450128766998
 20
-216.67808663796686
 10
110.96143245527752
 20
-216.36508437649258
 10
110.8069727167812
 20
-216.03673338136502
 10
110.68290478943229
 20
-215.69573582093247
 10
110.59024969168753
 20
-215.3448979386
 10
110.52976992975567
 20
-214.98710695881675
 10
110.5019632225437
 20
-214.62530732662842
 10
110.50705840567326
 20
-214.26247647633247
 10
110.54501354827534
 20
-213.90160032864787
 10
110.61551629806068
 20
-213.5456487180457
 10
110.71798645182677
 20
-213.19755095246143
 10
110.85158073024672
 20
-212.86017170652138
 10
111.01519971764641
 20
-212.53628744666935
 10
111.2074969096586
 20
-212.22856358220346
 10
111.42688979429636
 20
-211.93953253025933
 10
111.6715728752539
 20
-211.67157287525373
 10
111.93953253025953
 20
-211.4268897942962
 10
112.22856358220368
 20
-211.20749690965846
 10
112.53628744666958
 20
-211.01519971764628
 10
112.86017170652163
 20
-210.8515807302466
 10
113.19755095246165
 20
-210.7179864518267
 10
113.54564871804592
 20
-210.61551629806064
 10
113.90160032864814
 20
-210.54501354827528
 10
114.26247647633272
 20
-210.50705840567323
 10
114.62530732662866
 20
-210.5019632225437
 10
114.98710695881701
 20
-210.5297699297557
 10
115.34489793860027
 20
-210.59024969168757
 10
115.69573582093271
 20
-210.68290478943237
 10
116.03673338136525
 20
-210.8069727167813
 10
116.36508437649279
 20
-210.96143245527762
 10
116.67808663796707
 20
-211.14501287669992
 10
116.97316431002264
 20
-211.3562032038266
 10
117.24788904751198
 20
-211.59326544339464
 10
117.50000000000017
 20
-211.8542486889356
  0
LINE
  5
135
330
17
100
AcDbEntity
  8
OUTLINE
100
AcDbLine
 10
117.5
 20
-148.1457513110646
 30
0.0
 11
117.5
 21
-211.8542486889354
 31
0.0
  0
LWPOLYLINE
  5
136
330
17
100
AcDbEntity
  8
OUTLINE
100
AcDbPolyline
 90
37
 70
0
 10
117.50000000000001
 20
-148.14575131106457
 10
117.2478890475118
 20
-148.4067345566055
 10
116.97316431002247
 20
-148.64379679617355
 10
116.67808663796689
 20
-148.8549871233002
 10
116.3650843764926
 20
-149.03856754472247
 10
116.03673338136507
 20
-149.19302728321878
 10
115.69573582093253
 20
-149.3170952105677
 10
115.34489793860008
 20
-149.40975030831245
 10
114.98710695881684
 20
-149.47023007024433
 10
114.62530732662849
 20
-149.49803677745632
 10
114.26247647633255
 20
-149.49294159432674
 10
113.90160032864797
 20
-149.45498645172466
 10
113.54564871804578
 20
-149.38448370193933
 10
113.19755095246151
 20
-149.28201354817327
 10
112.8601717065215
 20
-149.14841926975333
 10
112.53628744666946
 20
-148.98480028235366
 10
112.22856358220356
 20
-148.79250309034148
 10
111.93953253025944
 20
-148.57311020570373
 10
111.67157287525382
 20
-148.3284271247462
 10
111.42688979429629
 20
-148.06046746974056
 10
111.20749690965854
 20
-147.77143641779645
 10
111.01519971764637
 20
-147.46371255333054
 10
110.85158073024668
 20
-147.1398282934785
 10
110.71798645182675
 20
-146.80244904753852
 10
110.61551629806067
 20
-146.45435128195425
 10
110.54501354827532
 20
-146.09839967135204
 10
110.50705840567326
 20
-145.73752352366748
 10
110.5019632225437
 20
-145.37469267337156
 10
110.52976992975567
 20
-145.0128930411832
 10
110.59024969168755
 20
-144.65510206139993
 10
110.6829047894323
 20
-144.3042641790675
 10
110.8069727167812
 20
-143.96326661863498
 10
110.96143245527752
 20
-143.63491562350742
 10
111.1450128766998
 20
-143.32191336203311
 10
111.35620320382644
 20
-143.02683568997753
 10
111.59326544339447
 20
-142.7521109524882
 10
111.85424868893541
 20
-142.5
  0
LINE
  5
137
330
17
100
AcDbEntity
  8
OUTLINE
100
AcDbLine
 10
62.64575131106459
 20
-142.5
 30
0.0
 11
111.85424868893541
 21
-142.5
 31
0.0
  0
LWPOLYLINE
  5
138
330
17
100
AcDbEntity
  8
OUTLINE
100
AcDbPolyline
 90
37
 70
0
 10
62.645751311064465
 20
-142.4999999999999
 10
63.023829226187566
 20
-142.88151631457174
 10
63.347384172602844
 20
-143.310246771664
 10
63.61058209855042
 20
-143.77846088931233
 10
63.80867725577303
 20
-144.27771625170044
 10
63.9380977705799
 20
-144.79901073520801
 10
63.99651004866028
 20
-145.33294482660676
 10
63.98286085235695
 20
-145.86989110662796
 10
63.89739629170039
 20
-146.40016784292712
 10
63.74165738677397
 20
-146.91421356237302
 10
63.51845228142603
 20
-147.40275945493065
 10
63.23180560934582
 20
-147.8569965005067
 10
62.886885925489004
 20
-148.26873430527624
 10
62.489912511343675
 20
-148.63054878349695
 10
62.04804323444079
 20
-148.93591602194545
 10
61.569245484125254
 20
-149.17932991325222
 10
61.06215251075782
 20
-149.35640143707718
 10
60.53590775871008
 20
-149.46393779897647
 10
60.0
 20
-149.5
 10
59.46409224128992
 20
-149.46393779897647
 10
58.93784748924218
 20
-149.35640143707718
 10
58.43075451587474
 20
-149.17932991325222
 10
57.95195676555921
 20
-148.93591602194545
 10
57.51008748865633
 20
-148.63054878349695
 10
57.113114074511
 20
-148.26873430527624
 10
56.76819439065418
 20
-147.8569965005067
 10
56.48154771857397
 20
-147.40275945493065
 10
56.25834261322603
 20
-146.91421356237302
 10
56.10260370829961
 20
-146.40016784292715
 10
56.01713914764305
 20
-145.86989110662796
 10
56.00348995133972
 20
-145.33294482660676
 10
56.0619022294201
 20
-144.79901073520801
 10
56.191322744226966
 20
-144.27771625170044
 10
56.38941790144958
 20
-143.77846088931233
 10
56.652615827397156
 20
-143.310246771664
 10
56.976170773812434
 20
-142.88151631457174
 10
57.354248688935535
 20
-142.4999999999999
  0
LINE
  5
139
330
17
100
AcDbEntity
  8
OUTLINE
100
AcDbLine
 10
8.14575131106459
 20
-142.5
 30
0.0
 11
57.35424868893541
 21
-142.5
 31
0.0
  0
LWPOLYLINE
  5
13A
330
17
100
AcDbEntity
  8
OUTLINE
100
AcDbPolyline
 90
37
 70
0
 10
8.14575131106459
 20
-142.5
 10
8.406734556605532
 20
-142.7521109524882
 10
8.643796796173566
 20
-143.02683568997753
 10
8.854987123300205
 20
-143.32191336203311
 10
9.03856754472248
 20
-143.63491562350742
 10
9.193027283218791
 20
-143.96326661863498
 10
9.3170952105677
 20
-144.3042641790675
 10
9.409750308312457
 20
-144.65510206139993
 10
9.470230070244323
 20
-145.0128930411832
 10
9.49803677745631
 20
-145.37469267337156
 10
9.492941594326743
 20
-145.73752352366748
 10
9.454986451724679
 20
-146.09839967135204
 10
9.384483701939331
 20
-146.45435128195425
 10
9.282013548173254
 20
-146.80244904753852
 10
9.148419269753315
 20
-147.1398282934785
 10
8.984800282353635
 20
-147.46371255333054
 10
8.792503090341452
 20
-147.77143641779645
 10
8.573110205703706
 20
-148.06046746974056
 10
8.328427124746181
 20
-148.3284271247462
 10
8.060467469740558
 20
-148.57311020570373
 10
7.771436417796435
 20
-148.79250309034148
 10
7.463712553330536
 20
-148.98480028235366
 10
7.139828293478498
 20
-149.14841926975333
 10
6.802449047538484
 20
-149.28201354817327
 10
6.454351281954223
 20
-149.38448370193933
 10
6.09839967135202
 20
-149.45498645172466
 10
5.737523523667452
 20
-149.49294159432674
 10
5.374692673371513
 20
-149.49803677745632
 10
5.0128930411831645
 20
-149.47023007024433
 10
4.6551020613999095
 20
-149.40975030831245
 10
4.3042641790674745
 20
-149.3170952105677
 10
3.963266618634936
 20
-149.19302728321878
 10
3.6349156235073945
 20
-149.03856754472247
 10
3.3219133620331096
 20
-148.8549871233002
 10
3.0268356899775304
 20
-148.64379679617355
 10
2.7521109524881933
 20
-148.4067345566055
 10
2.4999999999999827
 20
-148.14575131106457
  0
LINE
  5
13B
330
17
100
AcDbEntity
  8
OUTLINE
100
AcDbLine
 10
2.5
 20
-174.5
 30
0.0
 11
2.5
 21
-148.1457513110646
 31
0.0
  0
LINE
  5
13C
330
17
100
AcDbEntity
  8
OUTLINE
100
AcDbLine
 10
0.0
 20
-174.5
 30
0.0
 11
2.5
 21
-174.5
 31
0.0
  0
LINE
  5
13D
330
17
100
AcDbEntity
  8
OUTLINE
100
AcDbLine
 10
-8.881784197001252e-16
 20
-145.0
 30
0.0
 11
0.0
 21
-174.5
 31
0.0
  0
LWPOLYLINE
  5
13E
330
17
100
AcDbEntity
  8
OUTLINE
100
AcDbPolyline
 90
37
 70
0
 10
5.5
 20
-143.5
 10
5.847296355333861
 20
-143.5303844939756
 10
6.184040286651338
 20
-143.6206147584282
 10
6.5
 20
-143.7679491924311
 10
6.7855752193730785
 20
-143.96791111376206
 10
7.032088886237956
 20
-144.21442478062693
 10
7.232050807568877
 20
-144.5
 10
7.379385241571817
 20
-144.81595971334866
 10
7.469615506024416
 20
-145.15270364466613
 10
7.5
 20
-145.5
 10
7.469615506024416
 20
-145.84729635533387
 10
7.379385241571817
 20
-146.18404028665134
 10
7.232050807568878
 20
-146.5
 10
7.032088886237956
 20
-146.78557521937307
 10
6.785575219373079
 20
-147.03208888623794
 10
6.5
 20
-147.2320508075689
 10
6.184040286651338
 20
-147.3793852415718
 10
5.847296355333861
 20
-147.4696155060244
 10
5.5
 20
-147.5
 10
5.152703644666139
 20
-147.4696155060244
 10
4.815959713348663
 20
-147.3793852415718
 10
4.5
 20
-147.2320508075689
 10
4.2144247806269215
 20
-147.03208888623794
 10
3.967911113762044
 20
-146.78557521937307
 10
3.7679491924311233
 20
-146.5
 10
3.6206147584281836
 20
-146.18404028665134
 10
3.5303844939755837
 20
-145.84729635533387
 10
3.5
 20
-145.5
 10
3.5303844939755837
 20
-145.15270364466613
 10
3.620614758428183
 20
-144.81595971334866
 10
3.767949192431123
 20
-144.5
 10
3.9679111137620438
 20
-144.21442478062693
 10
4.214424780626921
 20
-143.96791111376206
 10
4.499999999999999
 20
-143.7679491924311
 10
4.815959713348661
 20
-143.6206147584282
 10
5.152703644666139
 20
-143.5303844939756
 10
5.499999999999999
 20
-143.5
  0
LWPOLYLINE
  5
13F
330
17
100
AcDbEntity
  8
OUTLINE
100
AcDbPolyline
 90
37
 70
0
 10
5.5
 20
-212.5
 10
5.847296355333861
 20
-212.5303844939756
 10
6.184040286651338
 20
-212.6206147584282
 10
6.5
 20
-212.76794919243113
 10
6.7855752193730785
 20
-212.96791111376206
 10
7.032088886237956
 20
-213.21442478062693
 10
7.232050807568877
 20
-213.5
 10
7.379385241571817
 20
-213.81595971334866
 10
7.469615506024416
 20
-214.15270364466613
 10
7.5
 20
-214.5
 10
7.469615506024416
 20
-214.84729635533387
 10
7.379385241571817
 20
-215.18404028665134
 10
7.232050807568878
 20
-215.5
 10
7.032088886237956
 20
-215.78557521937307
 10
6.785575219373079
 20
-216.03208888623794
 10
6.5
 20
-216.23205080756887
 10
6.184040286651338
 20
-216.3793852415718
 10
5.847296355333861
 20
-216.4696155060244
 10
5.5
 20
-216.5
 10
5.152703644666139
 20
-216.4696155060244
 10
4.815959713348663
 20
-216.3793852415718
 10
4.5
 20
-216.23205080756887
 10
4.2144247806269215
 20
-216.03208888623794
 10
3.967911113762044
 20
-215.78557521937307
 10
3.7679491924311233
 20
-215.5
 10
3.6206147584281836
 20
-215.18404028665134
 10
3.5303844939755837
 20
-214.84729635533387
 10
3.5
 20
-214.5
 10
3.5303844939755837
 20
-214.15270364466613
 10
3.620614758428183
 20
-213.81595971334866
 10
3.767949192431123
 20
-213.5
 10
3.9679111137620438
 20
-213.21442478062693
 10
4.214424780626921
 20
-212.96791111376206
 10
4.499999999999999
 20
-212.76794919243113
 10
4.815959713348661
 20
-212.6206147584282
 10
5.152703644666139
 20
-212.5303844939756
 10
5.499999999999999
 20
-212.5
  0
LWPOLYLINE
  5
140
330
17
100
AcDbEntity
  8
OUTLINE
100
AcDbPolyline
 90
37
 70
0
 10
60.0
 20
-143.5
 10
60.34729635533386
 20
-143.5303844939756
 10
60.68404028665134
 20
-143.6206147584282
 10
61.0
 20
-143.7679491924311
 10
61.28557521937308
 20
-143.96791111376206
 10
61.53208888623796
 20
-144.21442478062693
 10
61.732050807568875
 20
-144.5
 10
61.87938524157182
 20
-144.81595971334866
 10
61.96961550602442
 20
-145.15270364466613
 10
62.0
 20
-145.5
 10
61.96961550602442
 20
-145.84729635533387
 10
61.87938524157182
 20
-146.18404028665134
 10
61.732050807568875
 20
-146.5
 10
61.53208888623796
 20
-146.78557521937307
 10
61.28557521937308
 20
-147.03208888623794
 10
61.0
 20
-147.2320508075689
 10
60.68404028665134
 20
-147.3793852415718
 10
60.34729635533386
 20
-147.4696155060244
 10
60.0
 20
-147.5
 10
59.65270364466614
 20
-147.4696155060244
 10
59.31595971334866
 20
-147.3793852415718
 10
59.0
 20
-147.2320508075689
 10
58.71442478062692
 20
-147.03208888623794
 10
58.46791111376204
 20
-146.78557521937307
 10
58.267949192431125
 20
-146.5
 10
58.12061475842818
 20
-146.18404028665134
 10
58.03038449397558
 20
-145.84729635533387
 10
58.0
 20
-145.5
 10
58.03038449397558
 20
-145.15270364466613
 10
58.12061475842818
 20
-144.81595971334866
 10
58.267949192431125
 20
-144.5
 10
58.46791111376204
 20
-144.21442478062693
 10
58.71442478062692
 20
-143.96791111376206
 10
59.0
 20
-143.7679491924311
 10
59.31595971334866
 20
-143.6206147584282
 10
59.65270364466614
 20
-143.5303844939756
 10
60.0
 20
-143.5
  0
LWPOLYLINE
  5
141
330
17
100
AcDbEntity
  8
OUTLINE
100
AcDbPolyline
 90
37
 70
0
 10
114.5
 20
-143.5
 10
114.84729635533387
 20
-143.5303844939756
 10
115.18404028665134
 20
-143.6206147584282
 10
115.5
 20
-143.7679491924311
 10
115.78557521937307
 20
-143.96791111376206
 10
116.03208888623796
 20
-144.21442478062693
 10
116.23205080756888
 20
-144.5
 10
116.37938524157181
 20
-144.81595971334866
 10
116.46961550602441
 20
-145.15270364466613
 10
116.5
 20
-145.5
 10
116.46961550602441
 20
-145.84729635533387
 10
116.37938524157181
 20
-146.18404028665134
 10
116.23205080756888
 20
-146.5
 10
116.03208888623796
 20
-146.78557521937307
 10
115.78557521937307
 20
-147.03208888623794
 10
115.5
 20
-147.2320508075689
 10
115.18404028665134
 20
-147.3793852415718
 10
114.84729635533387
 20
-147.4696155060244
 10
114.5
 20
-147.5
 10
114.15270364466613
 20
-147.4696155060244
 10
113.81595971334866
 20
-147.3793852415718
 10
113.5
 20
-147.2320508075689
 10
113.21442478062693
 20
-147.03208888623794
 10
112.96791111376204
 20
-146.78557521937307
 10
112.76794919243112
 20
-146.5
 10
112.62061475842819
 20
-146.18404028665134
 10
112.53038449397559
 20
-145.84729635533387
 10
112.5
 20
-145.5
 10
112.53038449397559
 20
-145.15270364466613
 10
112.62061475842819
 20
-144.81595971334866
 10
112.76794919243112
 20
-144.5
 10
112.96791111376204
 20
-144.21442478062693
 10
113.21442478062693
 20
-143.96791111376206
 10
113.5
 20
-143.7679491924311
 10
113.81595971334866
 20
-143.6206147584282
 10
114.15270364466613
 20
-143.5303844939756
 10
114.5
 20
-143.5
  0
LWPOLYLINE
  5
142
330
17
100
AcDbEntity
  8
OUTLINE
100
AcDbPolyline
 90
37
 70
0
 10
60.0
 20
-212.5
 10
60.34729635533386
 20
-212.5303844939756
 10
60.68404028665134
 20
-212.6206147584282
 10
61.0
 20
-212.76794919243113
 10
61.28557521937308
 20
-212.96791111376206
 10
61.53208888623796
 20
-213.21442478062693
 10
61.732050807568875
 20
-213.5
 10
61.87938524157182
 20
-213.81595971334866
 10
61.96961550602442
 20
-214.15270364466613
 10
62.0
 20
-214.5
 10
61.96961550602442
 20
-214.84729635533387
 10
61.87938524157182
 20
-215.18404028665134
 10
61.732050807568875
 20
-215.5
 10
61.53208888623796
 20
-215.78557521937307
 10
61.28557521937308
 20
-216.03208888623794
 10
61.0
 20
-216.23205080756887
 10
60.68404028665134
 20
-216.3793852415718
 10
60.34729635533386
 20
-216.4696155060244
 10
60.0
 20
-216.5
 10
59.65270364466614
 20
-216.4696155060244
 10
59.31595971334866
 20
-216.3793852415718
 10
59.0
 20
-216.23205080756887
 10
58.71442478062692
 20
-216.03208888623794
 10
58.46791111376204
 20
-215.78557521937307
 10
58.267949192431125
 20
-215.5
 10
58.12061475842818
 20
-215.18404028665134
 10
58.03038449397558
 20
-214.84729635533387
 10
58.0
 20
-214.5
 10
58.03038449397558
 20
-214.15270364466613
 10
58.12061475842818
 20
-213.81595971334866
 10
58.267949192431125
 20
-213.5
 10
58.46791111376204
 20
-213.21442478062693
 10
58.71442478062692
 20
-212.96791111376206
 10
59.0
 20
-212.76794919243113
 10
59.31595971334866
 20
-212.6206147584282
 10
59.65270364466614
 20
-212.5303844939756
 10
60.0
 20
-212.5
  0
LWPOLYLINE
  5
143
330
17
100
AcDbEntity
  8
OUTLINE
100
AcDbPolyline
 90
37
 70
0
 10
114.5
 20
-212.5
 10
114.84729635533387
 20
-212.5303844939756
 10
115.18404028665134
 20
-212.6206147584282
 10
115.5
 20
-212.76794919243113
 10
115.78557521937307
 20
-212.96791111376206
 10
116.03208888623796
 20
-213.21442478062693
 10
116.23205080756888
 20
-213.5
 10
116.37938524157181
 20
-213.81595971334866
 10
116.46961550602441
 20
-214.15270364466613
 10
116.5
 20
-214.5
 10
116.46961550602441
 20
-214.84729635533387
 10
116.37938524157181
 20
-215.18404028665134
 10
116.23205080756888
 20
-215.5
 10
116.03208888623796
 20
-215.78557521937307
 10
115.78557521937307
 20
-216.03208888623794
 10
115.5
 20
-216.23205080756887
 10
115.18404028665134
 20
-216.3793852415718
 10
114.84729635533387
 20
-216.4696155060244
 10
114.5
 20
-216.5
 10
114.15270364466613
 20
-216.4696155060244
 10
113.81595971334866
 20
-216.3793852415718
 10
113.5
 20
-216.23205080756887
 10
113.21442478062693
 20
-216.03208888623794
 10
112.96791111376204
 20
-215.78557521937307
 10
112.76794919243112
 20
-215.5
 10
112.62061475842819
 20
-215.18404028665134
 10
112.53038449397559
 20
-214.84729635533387
 10
112.5
 20
-214.5
 10
112.53038449397559
 20
-214.15270364466613
 10
112.62061475842819
 20
-213.81595971334866
 10
112.76794919243112
 20
-213.5
 10
112.96791111376204
 20
-213.21442478062693
 10
113.21442478062693
 20
-212.96791111376206
 10
113.5
 20
-212.76794919243113
 10
113.81595971334866
 20
-212.6206147584282
 10
114.15270364466613
 20
-212.5303844939756
 10
114.5
 20
-212.5
  0
LINE
  5
144
330
17
100
AcDbEntity
  8
OUTLINE
100
AcDbLine
 10
100.0
 20
-191.0
 30
0.0
 11
45.0
 21
-191.0
 31
0.0
  0
LINE
  5
145
330
17
100
AcDbEntity
  8
OUTLINE
100
AcDbLine
 10
100.0
 20
-193.0
 30
0.0
 11
100.0
 21
-191.0
 31
0.0
  0
LINE
  5
146
330
17
100
AcDbEntity
  8
OUTLINE
100
AcDbLine
 10
45.0
 20
-193.0
 30
0.0
 11
100.0
 21
-193.0
 31
0.0
  0
LINE
  5
147
330
17
100
AcDbEntity
  8
OUTLINE
100
AcDbLine
 10
45.0
 20
-191.0
 30
0.0
 11
45.0
 21
-193.0
 31
0.0
  0
LINE
  5
148
330
17
100
AcDbEntity
  8
OUTLINE
100
AcDbLine
 10
100.0
 20
-163.0
 30
0.0
 11
45.0
 21
-163.0
 31
0.0
  0
LINE
  5
149
330
17
100
AcDbEntity
  8
OUTLINE
100
AcDbLine
 10
100.0
 20
-165.0
 30
0.0
 11
100.0
 21
-163.0
 31
0.0
  0
LINE
  5
14A
330
17
100
AcDbEntity
  8
OUTLINE
100
AcDbLine
 10
45.0
 20
-165.0
 30
0.0
 11
100.0
 21
-165.0
 31
0.0
  0
LINE
  5
14B
330
17
100
AcDbEntity
  8
OUTLINE
100
AcDbLine
 10
45.0
 20
-163.0
 30
0.0
 11
45.0
 21
-165.0
 31
0.0
  0
TEXT
  5
14C
330
17
100
AcDbEntity
  8
TEXT
100
AcDbText
 10
0.0
 20
-228.0
 30
0.0
 40
2.8
  1
FRONT SECTION at Y=5: cable notch, plug space, board pocket walls
 11
0.0
 21
-228.0
 31
0.0
100
AcDbText
  0
DIMENSION
  5
14D
330
17
100
AcDbEntity
  8
DIMS
100
AcDbDimension
280
0
  2
*D6
  3
EZDXF
 10
-8.0
 20
-181.5
 30
0.0
 11
-10.85
 21
-178.0
 31
0.0
 70
32
 71
5
  1
cable notch <>
100
AcDbAlignedDimension
 13
0.0
 23
-181.5
 33
0.0
 14
0.0
 24
-174.5
 34
0.0
 50
90.0
100
AcDbRotatedDimension
1001
ACAD
1000
DSTYLE
1002
{
1070
140
1040
2.5
1070
41
1040
1.5
1070
42
1040
0.8
1070
44
1040
1.0
1070
147
1040
0.6
1070
271
1070
1
1002
}
  0
DIMENSION
  5
15C
330
17
100
AcDbEntity
  8
DIMS
100
AcDbDimension
280
0
  2
*D7
  3
EZDXF
 10
0.0
 20
-154.0
 30
0.0
 11
22.5
 21
-152.15
 31
0.0
 70
32
 71
5
  1
plug space <>
100
AcDbAlignedDimension
 13
0.0
 23
-162.0
 33
0.0
 14
45.0
 24
-162.0
 34
0.0
 50
0.0
100
AcDbRotatedDimension
1001
ACAD
1000
DSTYLE
1002
{
1070
140
1040
2.5
1070
41
1040
1.5
1070
42
1040
0.8
1070
44
1040
1.0
1070
147
1040
0.6
1070
271
1070
1
1002
}
  0
LINE
  5
16B
330
17
100
AcDbEntity
  8
OUTLINE
100
AcDbLine
 10
120.0
 20
-330.0
 30
0.0
 11
0.0
 21
-330.0
 31
0.0
  0
LINE
  5
16C
330
17
100
AcDbEntity
  8
OUTLINE
100
AcDbLine
 10
120.0
 20
-300.0
 30
0.0
 11
120.0
 21
-330.0
 31
0.0
  0
LINE
  5
16D
330
17
100
AcDbEntity
  8
OUTLINE
100
AcDbLine
 10
117.5
 20
-300.0
 30
0.0
 11
120.0
 21
-300.0
 31
0.0
  0
LINE
  5
16E
330
17
100
AcDbEntity
  8
OUTLINE
100
AcDbLine
 10
117.5
 20
-327.5
 30
0.0
 11
117.5
 21
-300.0
 31
0.0
  0
LINE
  5
16F
330
17
100
AcDbEntity
  8
OUTLINE
100
AcDbLine
 10
100.0
 20
-327.5
 30
0.0
 11
117.5
 21
-327.5
 31
0.0
  0
LINE
  5
170
330
17
100
AcDbEntity
  8
OUTLINE
100
AcDbLine
 10
100.0
 20
-307.5
 30
0.0
 11
100.0
 21
-327.5
 31
0.0
  0
LINE
  5
171
330
17
100
AcDbEntity
  8
OUTLINE
100
AcDbLine
 10
98.0
 20
-307.5
 30
0.0
 11
100.0
 21
-307.5
 31
0.0
  0
LINE
  5
172
330
17
100
AcDbEntity
  8
OUTLINE
100
AcDbLine
 10
98.0
 20
-327.5
 30
0.0
 11
98.0
 21
-307.5
 31
0.0
  0
LINE
  5
173
330
17
100
AcDbEntity
  8
OUTLINE
100
AcDbLine
 10
14.0
 20
-327.5
 30
0.0
 11
98.0
 21
-327.5
 31
0.0
  0
LINE
  5
174
330
17
100
AcDbEntity
  8
OUTLINE
100
AcDbLine
 10
14.0
 20
-309.5
 30
0.0
 11
14.0
 21
-327.5
 31
0.0
  0
LINE
  5
175
330
17
100
AcDbEntity
  8
OUTLINE
100
AcDbLine
 10
4.5
 20
-309.5
 30
0.0
 11
14.0
 21
-309.5
 31
0.0
  0
LINE
  5
176
330
17
100
AcDbEntity
  8
OUTLINE
100
AcDbLine
 10
4.5
 20
-327.5
 30
0.0
 11
4.5
 21
-309.5
 31
0.0
  0
LINE
  5
177
330
17
100
AcDbEntity
  8
OUTLINE
100
AcDbLine
 10
2.5
 20
-327.5
 30
0.0
 11
4.5
 21
-327.5
 31
0.0
  0
LINE
  5
178
330
17
100
AcDbEntity
  8
OUTLINE
100
AcDbLine
 10
2.5
 20
-310.3
 30
0.0
 11
2.5
 21
-327.5
 31
0.0
  0
LINE
  5
179
330
17
100
AcDbEntity
  8
OUTLINE
100
AcDbLine
 10
0.0
 20
-310.3
 30
0.0
 11
2.5
 21
-310.3
 31
0.0
  0
LINE
  5
17A
330
17
100
AcDbEntity
  8
OUTLINE
100
AcDbLine
 10
0.0
 20
-330.0
 30
0.0
 11
0.0
 21
-310.3
 31
0.0
  0
LINE
  5
17B
330
17
100
AcDbEntity
  8
OUTLINE
100
AcDbLine
 10
12.0
 20
-310.5
 30
0.0
 11
6.5
 21
-310.5
 31
0.0
  0
LINE
  5
17C
330
17
100
AcDbEntity
  8
OUTLINE
100
AcDbLine
 10
12.0
 20
-312.5
 30
0.0
 11
12.0
 21
-310.5
 31
0.0
  0
LINE
  5
17D
330
17
100
AcDbEntity
  8
OUTLINE
100
AcDbLine
 10
6.5
 20
-312.5
 30
0.0
 11
12.0
 21
-312.5
 31
0.0
  0
LINE
  5
17E
330
17
100
AcDbEntity
  8
OUTLINE
100
AcDbLine
 10
6.5
 20
-310.5
 30
0.0
 11
6.5
 21
-312.5
 31
0.0
  0
TEXT
  5
17F
330
17
100
AcDbEntity
  8
TEXT
100
AcDbText
 10
0.0
 20
-308.0
 30
0.0
 40
2.8
  1
TOP SECTION at Z=42: cable notch, saddle, board pocket
 11
0.0
 21
-308.0
 31
0.0
100
AcDbText
  0
DIMENSION
  5
180
330
17
100
AcDbEntity
  8
DIMS
100
AcDbDimension
280
0
  2
*D8
  3
EZDXF
 10
130.0
 20
-330.0
 30
0.0
 11
128.15
 21
-315.0
 31
0.0
 70
32
 71
5
  1
depth <>
100
AcDbAlignedDimension
 13
120.0
 23
-330.0
 33
0.0
 14
120.0
 24
-300.0
 34
0.0
 50
90.0
100
AcDbRotatedDimension
1001
ACAD
1000
DSTYLE
1002
{
1070
140
1040
2.5
1070
41
1040
1.5
1070
42
1040
0.8
1070
44
1040
1.0
1070
147
1040
0.6
1070
271
1070
1
1002
}
  0
DIMENSION
  5
18F
330
17
100
AcDbEntity
  8
DIMS
100
AcDbDimension
280
0
  2
*D9
  3
EZDXF
 10
-12.0
 20
-307.5
 30
0.0
 11
-14.85
 21
-303.75
 31
0.0
 70
32
 71
5
  1
PCB top <>
100
AcDbAlignedDimension
 13
-1.0
 23
-307.5
 33
0.0
 14
-1.0
 24
-300.0
 34
0.0
 50
90.0
100
AcDbRotatedDimension
1001
ACAD
1000
DSTYLE
1002
{
1070
140
1040
2.5
1070
41
1040
1.5
1070
42
1040
0.8
1070
44
1040
1.0
1070
147
1040
0.6
1070
271
1070
1
1002
}
  0
LINE
  5
19E
330
17
100
AcDbEntity
  8
OUTLINE
100
AcDbLine
 10
1.7503846381456096
 20
-380.0
 30
0.0
 11
1.7503846381456096
 21
-350.0
 31
0.0
  0
LINE
  5
19F
330
17
100
AcDbEntity
  8
OUTLINE
100
AcDbLine
 10
118.2496153618544
 20
-380.0
 30
0.0
 11
1.7503846381456096
 21
-380.0
 31
0.0
  0
LINE
  5
1A0
330
17
100
AcDbEntity
  8
OUTLINE
100
AcDbLine
 10
118.2496153618544
 20
-350.0
 30
0.0
 11
118.2496153618544
 21
-380.0
 31
0.0
  0
LINE
  5
1A1
330
17
100
AcDbEntity
  8
OUTLINE
100
AcDbLine
 10
1.7503846381456096
 20
-350.0
 30
0.0
 11
118.2496153618544
 21
-350.0
 31
0.0
  0
LINE
  5
1A2
330
17
100
AcDbEntity
  8
OUTLINE
100
AcDbLine
 10
56.0
 20
-364.0
 30
0.0
 11
16.0
 21
-364.0
 31
0.0
  0
LINE
  5
1A3
330
17
100
AcDbEntity
  8
OUTLINE
100
AcDbLine
 10
56.0
 20
-366.0
 30
0.0
 11
56.0
 21
-364.0
 31
0.0
  0
LINE
  5
1A4
330
17
100
AcDbEntity
  8
OUTLINE
100
AcDbLine
 10
16.0
 20
-366.0
 30
0.0
 11
56.0
 21
-366.0
 31
0.0
  0
LINE
  5
1A5
330
17
100
AcDbEntity
  8
OUTLINE
100
AcDbLine
 10
16.0
 20
-364.0
 30
0.0
 11
16.0
 21
-366.0
 31
0.0
  0
LINE
  5
1A6
330
17
100
AcDbEntity
  8
OUTLINE
100
AcDbLine
 10
56.0
 20
-369.0
 30
0.0
 11
16.0
 21
-369.0
 31
0.0
  0
LINE
  5
1A7
330
17
100
AcDbEntity
  8
OUTLINE
100
AcDbLine
 10
56.0
 20
-371.0
 30
0.0
 11
56.0
 21
-369.0
 31
0.0
  0
LINE
  5
1A8
330
17
100
AcDbEntity
  8
OUTLINE
100
AcDbLine
 10
16.0
 20
-371.0
 30
0.0
 11
56.0
 21
-371.0
 31
0.0
  0
LINE
  5
1A9
330
17
100
AcDbEntity
  8
OUTLINE
100
AcDbLine
 10
16.0
 20
-369.0
 30
0.0
 11
16.0
 21
-371.0
 31
0.0
  0
LINE
  5
1AA
330
17
100
AcDbEntity
  8
OUTLINE
100
AcDbLine
 10
56.0
 20
-374.0
 30
0.0
 11
16.0
 21
-374.0
 31
0.0
  0
LINE
  5
1AB
330
17
100
AcDbEntity
  8
OUTLINE
100
AcDbLine
 10
56.0
 20
-376.0
 30
0.0
 11
56.0
 21
-374.0
 31
0.0
  0
LINE
  5
1AC
330
17
100
AcDbEntity
  8
OUTLINE
100
AcDbLine
 10
16.0
 20
-376.0
 30
0.0
 11
56.0
 21
-376.0
 31
0.0
  0
LINE
  5
1AD
330
17
100
AcDbEntity
  8
OUTLINE
100
AcDbLine
 10
16.0
 20
-374.0
 30
0.0
 11
16.0
 21
-376.0
 31
0.0
  0
LWPOLYLINE
  5
1AE
330
17
100
AcDbEntity
  8
OUTLINE
100
AcDbPolyline
 90
37
 70
0
 10
106.75
 20
-366.7320508075689
 10
106.47444414763393
 20
-367.1070420404539
 10
106.14815792599484
 20
-367.43883528041266
 10
105.77783076492025
 20
-367.7206281942417
 10
105.37105500940253
 20
-367.9466435415897
 10
104.93617026343249
 20
-368.1122476183403
 10
104.4820924137459
 20
-368.21404525553214
 10
104.01813083878048
 20
-368.24994942617343
 10
103.55379755037492
 20
-368.2192240328919
 10
103.098612181134
 20
-368.1224989991992
 10
102.66190681555491
 20
-367.9617573549738
 10
102.2526346662129
 20
-367.7402945809309
 10
101.87918651747427
 20
-367.4626510455883
 10
101.54921869995694
 20
-367.13451891988785
 10
101.26949612255846
 20
-366.76262547788144
 10
101.04575358016561
 20
-366.35459517601964
 10
100.88257818047629
 20
-365.9187933386554
 10
100.78331530038675
 20
-365.4641546544784
 10
100.75
 20
-365.0
 10
100.78331530038675
 20
-364.5358453455216
 10
100.8825781804763
 20
-364.0812066613446
 10
101.04575358016561
 20
-363.64540482398036
 10
101.26949612255846
 20
-363.23737452211856
 10
101.54921869995694
 20
-362.86548108011215
 10
101.87918651747428
 20
-362.5373489544117
 10
102.2526346662129
 20
-362.2597054190691
 10
102.66190681555491
 20
-362.0382426450262
 10
103.098612181134
 20
-361.8775010008008
 10
103.55379755037492
 20
-361.7807759671081
 10
104.0181308387805
 20
-361.75005057382657
 10
104.48209241374592
 20
-361.78595474446786
 10
104.93617026343249
 20
-361.8877523816597
 10
105.37105500940253
 20
-362.0533564584103
 10
105.77783076492025
 20
-362.2793718057583
 10
106.14815792599484
 20
-362.56116471958734
 10
106.47444414763393
 20
-362.8929579595461
 10
106.75
 20
-363.2679491924311
  0
LINE
  5
1AF
330
17
100
AcDbEntity
  8
OUTLINE
100
AcDbLine
 10
106.75
 20
-366.7320508075689
 30
0.0
 11
106.75
 21
-363.2679491924311
 31
0.0
  0
TEXT
  5
1B0
330
17
100
AcDbEntity
  8
TEXT
100
AcDbText
 10
0.0
 20
-358.0
 30
0.0
 40
2.8
  1
TOP SECTION through the top wall: SMA D-hole and exhaust vents
 11
0.0
 21
-358.0
 31
0.0
100
AcDbText
  0
DIMENSION
  5
1B1
330
17
100
AcDbEntity
  8
DIMS
100
AcDbDimension
280
0
  2
*D10
  3
EZDXF
 10
0.0
 20
-388.0
 30
0.0
 11
52.0
 21
-386.15
 31
0.0
 70
32
 71
5
  1
SMA <>
100
AcDbAlignedDimension
 13
0.0
 23
-380.0
 33
0.0
 14
104.0
 24
-380.0
 34
0.0
 50
0.0
100
AcDbRotatedDimension
1001
ACAD
1000
DSTYLE
1002
{
1070
140
1040
2.5
1070
41
1040
1.5
1070
42
1040
0.8
1070
44
1040
1.0
1070
147
1040
0.6
1070
271
1070
1
1002
}
  0
DIMENSION
  5
1C0
330
17
100
AcDbEntity
  8
DIMS
100
AcDbDimension
280
0
  2
*D11
  3
EZDXF
 10
130.0
 20
-380.0
 30
0.0
 11
127.15
 21
-372.5
 31
0.0
 70
32
 71
5
  1
SMA <>
100
AcDbAlignedDimension
 13
120.0
 23
-380.0
 33
0.0
 14
120.0
 24
-365.0
 34
0.0
 50
90.0
100
AcDbRotatedDimension
1001
ACAD
1000
DSTYLE
1002
{
1070
140
1040
2.5
1070
41
1040
1.5
1070
42
1040
0.8
1070
44
1040
1.0
1070
147
1040
0.6
1070
271
1070
1
1002
}
  0
LINE
  5
1CF
330
17
100
AcDbEntity
  8
OUTLINE
100
AcDbLine
 10
248.09232921921324
 20
-20.0
 30
0.0
 11
260.0
 21
-20.0
 31
0.0
  0
LINE
  5
1D0
330
17
100
AcDbEntity
  8
OUTLINE
100
AcDbLine
 10
248.09232921921324
 20
-23.0
 30
0.0
 11
248.09232921921324
 21
-20.0
 31
0.0
  0
LINE
  5
1D1
330
17
100
AcDbEntity
  8
OUTLINE
100
AcDbLine
 10
251.9282032302755
 20
-23.0
 30
0.0
 11
248.09232921921324
 21
-23.0
 31
0.0
  0
LINE
  5
1D2
330
17
100
AcDbEntity
  8
OUTLINE
100
AcDbLine
 10
251.9282032302755
 20
-22.5
 30
0.0
 11
251.9282032302755
 21
-23.0
 31
0.0
  0
LINE
  5
1D3
330
17
100
AcDbEntity
  8
OUTLINE
100
AcDbLine
 10
260.0
 20
-22.5
 30
0.0
 11
251.9282032302755
 21
-22.5
 31
0.0
  0
LINE
  5
1D4
330
17
100
AcDbEntity
  8
OUTLINE
100
AcDbLine
 10
260.0
 20
-20.0
 30
0.0
 11
260.0
 21
-22.5
 31
0.0
  0
LINE
  5
1D5
330
17
100
AcDbEntity
  8
OUTLINE
100
AcDbLine
 10
248.0
 20
-97.5
 30
0.0
 11
260.0
 21
-97.5
 31
0.0
  0
LINE
  5
1D6
330
17
100
AcDbEntity
  8
OUTLINE
100
AcDbLine
 10
248.0
 20
-100.0
 30
0.0
 11
248.0
 21
-97.5
 31
0.0
  0
LINE
  5
1D7
330
17
100
AcDbEntity
  8
OUTLINE
100
AcDbLine
 10
260.0
 20
-100.0
 30
0.0
 11
248.0
 21
-100.0
 31
0.0
  0
LINE
  5
1D8
330
17
100
AcDbEntity
  8
OUTLINE
100
AcDbLine
 10
260.0
 20
-97.5
 30
0.0
 11
260.0
 21
-100.0
 31
0.0
  0
LINE
  5
1D9
330
17
100
AcDbEntity
  8
OUTLINE
100
AcDbLine
 10
230.0
 20
-100.0
 30
0.0
 11
230.0
 21
-20.0
 31
0.0
  0
LINE
  5
1DA
330
17
100
AcDbEntity
  8
OUTLINE
100
AcDbLine
 10
236.0
 20
-100.0
 30
0.0
 11
230.0
 21
-100.0
 31
0.0
  0
LINE
  5
1DB
330
17
100
AcDbEntity
  8
OUTLINE
100
AcDbLine
 10
236.0
 20
-97.5
 30
0.0
 11
236.0
 21
-100.0
 31
0.0
  0
LINE
  5
1DC
330
17
100
AcDbEntity
  8
OUTLINE
100
AcDbLine
 10
232.5
 20
-97.5
 30
0.0
 11
236.0
 21
-97.5
 31
0.0
  0
LINE
  5
1DD
330
17
100
AcDbEntity
  8
OUTLINE
100
AcDbLine
 10
232.5
 20
-41.0
 30
0.0
 11
232.5
 21
-97.5
 31
0.0
  0
LINE
  5
1DE
330
17
100
AcDbEntity
  8
OUTLINE
100
AcDbLine
 10
239.5
 20
-41.0
 30
0.0
 11
232.5
 21
-41.0
 31
0.0
  0
LINE
  5
1DF
330
17
100
AcDbEntity
  8
OUTLINE
100
AcDbLine
 10
239.5
 20
-35.0
 30
0.0
 11
239.5
 21
-41.0
 31
0.0
  0
LINE
  5
1E0
330
17
100
AcDbEntity
  8
OUTLINE
100
AcDbLine
 10
232.5
 20
-35.0
 30
0.0
 11
239.5
 21
-35.0
 31
0.0
  0
LINE
  5
1E1
330
17
100
AcDbEntity
  8
OUTLINE
100
AcDbLine
 10
232.5
 20
-22.5
 30
0.0
 11
232.5
 21
-35.0
 31
0.0
  0
LINE
  5
1E2
330
17
100
AcDbEntity
  8
OUTLINE
100
AcDbLine
 10
238.0717967697245
 20
-22.5
 30
0.0
 11
232.5
 21
-22.5
 31
0.0
  0
LINE
  5
1E3
330
17
100
AcDbEntity
  8
OUTLINE
100
AcDbLine
 10
238.0717967697245
 20
-23.0
 30
0.0
 11
238.0717967697245
 21
-22.5
 31
0.0
  0
LINE
  5
1E4
330
17
100
AcDbEntity
  8
OUTLINE
100
AcDbLine
 10
241.90767078078676
 20
-23.0
 30
0.0
 11
238.0717967697245
 21
-23.0
 31
0.0
  0
LINE
  5
1E5
330
17
100
AcDbEntity
  8
OUTLINE
100
AcDbLine
 10
241.90767078078676
 20
-20.0
 30
0.0
 11
241.90767078078676
 21
-23.0
 31
0.0
  0
LINE
  5
1E6
330
17
100
AcDbEntity
  8
OUTLINE
100
AcDbLine
 10
230.0
 20
-20.0
 30
0.0
 11
241.90767078078676
 21
-20.0
 31
0.0
  0
LINE
  5
1E7
330
17
100
AcDbEntity
  8
OUTLINE
100
AcDbLine
 10
235.5
 20
-40.75
 30
0.0
 11
237.5
 21
-40.75
 31
0.0
  0
LINE
  5
1E8
330
17
100
AcDbEntity
  8
OUTLINE
100
AcDbLine
 10
235.5
 20
-35.25
 30
0.0
 11
235.5
 21
-40.75
 31
0.0
  0
LINE
  5
1E9
330
17
100
AcDbEntity
  8
OUTLINE
100
AcDbLine
 10
237.5
 20
-35.25
 30
0.0
 11
235.5
 21
-35.25
 31
0.0
  0
LINE
  5
1EA
330
17
100
AcDbEntity
  8
OUTLINE
100
AcDbLine
 10
237.5
 20
-40.75
 30
0.0
 11
237.5
 21
-35.25
 31
0.0
  0
LINE
  5
1EB
330
17
100
AcDbEntity
  8
OUTLINE
100
AcDbLine
 10
246.0
 20
-97.5
 30
0.0
 11
246.0
 21
-100.0
 31
0.0
  0
LINE
  5
1EC
330
17
100
AcDbEntity
  8
OUTLINE
100
AcDbLine
 10
243.0
 20
-97.5
 30
0.0
 11
246.0
 21
-97.5
 31
0.0
  0
LINE
  5
1ED
330
17
100
AcDbEntity
  8
OUTLINE
100
AcDbLine
 10
243.0
 20
-100.0
 30
0.0
 11
243.0
 21
-97.5
 31
0.0
  0
LINE
  5
1EE
330
17
100
AcDbEntity
  8
OUTLINE
100
AcDbLine
 10
246.0
 20
-100.0
 30
0.0
 11
243.0
 21
-100.0
 31
0.0
  0
LINE
  5
1EF
330
17
100
AcDbEntity
  8
OUTLINE
100
AcDbLine
 10
241.0
 20
-97.5
 30
0.0
 11
241.0
 21
-100.0
 31
0.0
  0
LINE
  5
1F0
330
17
100
AcDbEntity
  8
OUTLINE
100
AcDbLine
 10
238.0
 20
-97.5
 30
0.0
 11
241.0
 21
-97.5
 31
0.0
  0
LINE
  5
1F1
330
17
100
AcDbEntity
  8
OUTLINE
100
AcDbLine
 10
238.0
 20
-100.0
 30
0.0
 11
238.0
 21
-97.5
 31
0.0
  0
LINE
  5
1F2
330
17
100
AcDbEntity
  8
OUTLINE
100
AcDbLine
 10
241.0
 20
-100.0
 30
0.0
 11
238.0
 21
-100.0
 31
0.0
  0
TEXT
  5
1F3
330
17
100
AcDbEntity
  8
TEXT
100
AcDbText
 10
230.0
 20
-108.0
 30
0.0
 40
2.8
  1
SIDE SECTION at X=103 (through the SMA hole and a vent)
 11
230.0
 21
-108.0
 31
0.0
100
AcDbText
  0
DIMENSION
  5
1F4
330
17
100
AcDbEntity
  8
DIMS
100
AcDbDimension
280
0
  2
*D12
  3
EZDXF
 10
230.0
 20
-108.0
 30
0.0
 11
245.0
 21
-106.15
 31
0.0
 70
32
 71
5
  1
depth <>
100
AcDbAlignedDimension
 13
230.0
 23
-100.0
 33
0.0
 14
260.0
 24
-100.0
 34
0.0
 50
0.0
100
AcDbRotatedDimension
1001
ACAD
1000
DSTYLE
1002
{
1070
140
1040
2.5
1070
41
1040
1.5
1070
42
1040
0.8
1070
44
1040
1.0
1070
147
1040
0.6
1070
271
1070
1
1002
}
  0
DIMENSION
  5
203
330
17
100
AcDbEntity
  8
DIMS
100
AcDbDimension
280
0
  2
*D13
  3
EZDXF
 10
268.0
 20
-100.0
 30
0.0
 11
266.15
 21
-60.0
 31
0.0
 70
32
 71
5
  1
<>
100
AcDbAlignedDimension
 13
262.0
 23
-100.0
 33
0.0
 14
262.0
 24
-20.0
 34
0.0
 50
90.0
100
AcDbRotatedDimension
1001
ACAD
1000
DSTYLE
1002
{
1070
140
1040
2.5
1070
41
1040
1.5
1070
42
1040
0.8
1070
44
1040
1.0
1070
147
1040
0.6
1070
271
1070
1
1002
}
  0
TEXT
  5
212
330
17
100
AcDbEntity
  8
NOTES
100
AcDbText
 10
0.0
 20
-10.0
 30
0.0
 40
2.5
  1
Print back face down. SMA: 6.5 D-hole with a 6.0 flat in a 3.0 mm pad; use the 11 mm extended-thread U.FL-to-SMA pigtail.
 11
0.0
 21
-10.0
 31
0.0
100
AcDbText
  0
TEXT
  5
213
330
17
100
AcDbEntity
  8
NOTES
100
AcDbText
 10
0.0
 20
-14.0
 30
0.0
 40
2.5
  1
Cable: lay the USB-C cable in the left-wall notch, tie it to the saddle so no load reaches the board's receptacle.
 11
0.0
 21
-14.0
 31
0.0
100
AcDbText
  0
ENDSEC
  0
SECTION
  2
OBJECTS
  0
DICTIONARY
  5
A
330
0
100
AcDbDictionary
281
1
  3
ACAD_COLOR
350
B
  3
ACAD_GROUP
350
C
  3
ACAD_LAYOUT
350
D
  3
ACAD_MATERIAL
350
E
  3
ACAD_MLEADERSTYLE
350
F
  3
ACAD_MLINESTYLE
350
10
  3
ACAD_PLOTSETTINGS
350
11
  3
ACAD_PLOTSTYLENAME
350
12
  3
ACAD_SCALELIST
350
14
  3
ACAD_TABLESTYLE
350
15
  3
ACAD_VISUALSTYLE
350
16
  3
EZDXF_META
350
2D
  0
DICTIONARY
  5
B
330
A
100
AcDbDictionary
281
1
  0
DICTIONARY
  5
C
330
A
100
AcDbDictionary
281
1
  0
DICTIONARY
  5
D
330
A
100
AcDbDictionary
281
1
  3
Model
350
1A
  3
Layout1
350
1E
  0
DICTIONARY
  5
E
330
A
100
AcDbDictionary
281
1
  3
ByBlock
350
1F
  3
ByLayer
350
20
  3
Global
350
21
  0
DICTIONARY
  5
F
330
A
100
AcDbDictionary
281
1
  3
Standard
350
2C
  0
DICTIONARY
  5
10
330
A
100
AcDbDictionary
281
1
  3
Standard
350
22
  0
DICTIONARY
  5
11
330
A
100
AcDbDictionary
281
1
  0
ACDBDICTIONARYWDFLT
  5
12
330
A
100
AcDbDictionary
281
1
  3
Normal
350
13
100
AcDbDictionaryWithDefault
340
13
  0
ACDBPLACEHOLDER
  5
13
330
12
  0
DICTIONARY
  5
14
330
A
100
AcDbDictionary
281
1
  0
DICTIONARY
  5
15
330
A
100
AcDbDictionary
281
1
  0
DICTIONARY
  5
16
330
A
100
AcDbDictionary
281
1
  3
2dWireframe
350
5A
  3
Basic
350
5B
  3
Brighten
350
5C
  3
ColorChange
350
5D
  3
Conceptual
350
5E
  3
Dim
350
5F
  3
EdgeColorOff
350
60
  3
Facepattern
350
61
  3
Flat
350
62
  3
FlatWithEdges
350
63
  3
Gouraud
350
64
  3
GouraudWithEdges
350
65
  3
Hidden
350
66
  3
JitterOff
350
67
  3
Linepattern
350
68
  3
Modeling
350
69
  3
OverhangOff
350
6A
  3
Realistic
350
6B
  3
Shaded
350
6C
  3
Shaded with edges
350
6D
  3
Shades of Gray
350
6E
  3
Sketchy
350
6F
  3
Thicken
350
70
  3
Wireframe
350
71
  3
X-Ray
350
72
  0
LAYOUT
  5
1A
330
D
100
AcDbPlotSettings
  1

  4
A3
  6

 40
7.5
 41
20.0
 42
7.5
 43
20.0
 44
420.0
 45
297.0
 46
0.0
 47
0.0
 48
0.0
 49
0.0
140
0.0
141
0.0
142
1.0
143
1.0
 70
1024
 72
1
 73
0
 74
5
  7

 75
16
 76
0
 77
2
 78
300
147
1.0
148
0.0
149
0.0
100
AcDbLayout
  1
Model
 70
1
 71
0
 10
0.0
 20
0.0
 11
420.0
 21
297.0
 12
0.0
 22
0.0
 32
0.0
 14
1e+20
 24
1e+20
 34
1e+20
 15
-1e+20
 25
-1e+20
 35
-1e+20
146
0.0
 13
0.0
 23
0.0
 33
0.0
 16
1.0
 26
0.0
 36
0.0
 17
0.0
 27
1.0
 37
0.0
 76
1
330
17
  0
LAYOUT
  5
1E
330
D
100
AcDbPlotSettings
  1

  4
A3
  6

 40
7.5
 41
20.0
 42
7.5
 43
20.0
 44
420.0
 45
297.0
 46
0.0
 47
0.0
 48
0.0
 49
0.0
140
0.0
141
0.0
142
1.0
143
1.0
 70
0
 72
1
 73
0
 74
5
  7

 75
16
 76
0
 77
2
 78
300
147
1.0
148
0.0
149
0.0
100
AcDbLayout
  1
Layout1
 70
1
 71
1
 10
0.0
 20
0.0
 11
420.0
 21
297.0
 12
0.0
 22
0.0
 32
0.0
 14
1e+20
 24
1e+20
 34
1e+20
 15
-1e+20
 25
-1e+20
 35
-1e+20
146
0.0
 13
0.0
 23
0.0
 33
0.0
 16
1.0
 26
0.0
 36
0.0
 17
0.0
 27
1.0
 37
0.0
 76
1
330
1B
  0
MATERIAL
  5
1F
102
{ACAD_REACTORS
330
E
102
}
330
E
100
AcDbMaterial
  1
ByBlock
  2

 70
0
 40
1.0
 71
1
 41
1.0
 91
-1023410177
 42
1.0
 72
1
  3

 73
1
 74
1
 75
1
 44
0.5
 73
0
 45
1.0
 46
1.0
 77
1
  4

 78
1
 79
1
170
1
 48
1.0
171
1
  6

172
1
173
1
174
1
140
1.0
141
1.0
175
1
  7

176
1
177
1
178
1
143
1.0
179
1
  8

270
1
271
1
272
1
145
1.0
146
1.0
273
1
  9

274
1
275
1
276
1
 42
1.0
 72
1
  3

 73
1
 74
1
 75
1
 94
63
  0
MATERIAL
  5
20
102
{ACAD_REACTORS
330
E
102
}
330
E
100
AcDbMaterial
  1
ByLayer
  2

 70
0
 40
1.0
 71
1
 41
1.0
 91
-1023410177
 42
1.0
 72
1
  3

 73
1
 74
1
 75
1
 44
0.5
 73
0
 45
1.0
 46
1.0
 77
1
  4

 78
1
 79
1
170
1
 48
1.0
171
1
  6

172
1
173
1
174
1
140
1.0
141
1.0
175
1
  7

176
1
177
1
178
1
143
1.0
179
1
  8

270
1
271
1
272
1
145
1.0
146
1.0
273
1
  9

274
1
275
1
276
1
 42
1.0
 72
1
  3

 73
1
 74
1
 75
1
 94
63
  0
MATERIAL
  5
21
102
{ACAD_REACTORS
330
E
102
}
330
E
100
AcDbMaterial
  1
Global
  2

 70
0
 40
1.0
 71
1
 41
1.0
 91
-1023410177
 42
1.0
 72
1
  3

 73
1
 74
1
 75
1
 44
0.5
 73
0
 45
1.0
 46
1.0
 77
1
  4

 78
1
 79
1
170
1
 48
1.0
171
1
  6

172
1
173
1
174
1
140
1.0
141
1.0
175
1
  7

176
1
177
1
178
1
143
1.0
179
1
  8

270
1
271
1
272
1
145
1.0
146
1.0
273
1
  9

274
1
275
1
276
1
 42
1.0
 72
1
  3

 73
1
 74
1
 75
1
 94
63
  0
MLINESTYLE
  5
22
102
{ACAD_REACTORS
330
10
102
}
330
10
100
AcDbMlineStyle
  2
Standard
 70
0
  3

 62
256
 51
90.0
 52
90.0
 71
2
 49
0.5
 62
256
  6
BYLAYER
 49
-0.5
 62
256
  6
BYLAYER
  0
MLEADERSTYLE
  5
2C
102
{ACAD_REACTORS
330
F
102
}
330
F
100
AcDbMLeaderStyle
179
2
170
2
171
1
172
0
 90
2
 40
0.0
 41
0.0
173
1
 91
-1056964608
 92
-2
290
1
 42
2.0
291
1
 43
8.0
  3
Standard
 44
4.0
300

342
29
174
1
175
1
176
0
178
1
 93
-1056964608
 45
4.0
292
0
297
0
 46
4.0
 94
-1056964608
 47
1.0
 49
1.0
140
1.0
294
1
141
0.0
177
0
142
1.0
295
0
296
0
143
3.75
271
0
272
9
273
9
  0
DICTIONARY
  5
2D
330
A
100
AcDbDictionary
280
1
281
1
  3
CREATED_BY_EZDXF
350
2E
  3
WRITTEN_BY_EZDXF
350
216
  0
DICTIONARYVAR
  5
2E
330
2D
100
DictionaryVariables
280
0
  1
1.4.4 @ 2026-09-03T21:52:49.614996+00:00
  0
VISUALSTYLE
  5
5A
102
{ACAD_REACTORS
330
16
102
}
330
16
100
AcDbVisualStyle
  2
2dWireframe
 70
4
 90
0
 40
0.6
 62
7
290
0
291
0
  0
VISUALSTYLE
  5
5B
102
{ACAD_REACTORS
330
16
102
}
330
16
100
AcDbVisualStyle
  2
Basic
 70
7
 90
1
 40
0.6
 62
7
290
0
291
1
  0
VISUALSTYLE
  5
5C
102
{ACAD_REACTORS
330
16
102
}
330
16
100
AcDbVisualStyle
  2
Brighten
 70
12
 90
2
 40
0.6
 62
7
290
0
291
1
  0
VISUALSTYLE
  5
5D
102
{ACAD_REACTORS
330
16
102
}
330
16
100
AcDbVisualStyle
  2
ColorChange
 70
16
 90
2
 40
0.6
 62
8
290
0
291
1
  0
VISUALSTYLE
  5
5E
102
{ACAD_REACTORS
330
16
102
}
330
16
100
AcDbVisualStyle
  2
Conceptual
 70
9
 90
3
 40
0.6
 62
7
290
0
291
0
  0
VISUALSTYLE
  5
5F
102
{ACAD_REACTORS
330
16
102
}
330
16
100
AcDbVisualStyle
  2
Dim
 70
11
 90
2
 40
0.6
 62
7
290
0
291
1
  0
VISUALSTYLE
  5
60
102
{ACAD_REACTORS
330
16
102
}
330
16
100
AcDbVisualStyle
  2
EdgeColorOff
 70
22
 90
2
 40
0.6
 62
7
290
0
291
1
  0
VISUALSTYLE
  5
61
102
{ACAD_REACTORS
330
16
102
}
330
16
100
AcDbVisualStyle
  2
Facepattern
 70
15
 90
2
 40
0.6
 62
7
290
0
291
1
  0
VISUALSTYLE
  5
62
102
{ACAD_REACTORS
330
16
102
}
330
16
100
AcDbVisualStyle
  2
Flat
 70
0
 90
2
 40
0.6
 62
7
290
0
291
1
  0
VISUALSTYLE
  5
63
102
{ACAD_REACTORS
330
16
102
}
330
16
100
AcDbVisualStyle
  2
FlatWithEdges
 70
1
 90
2
 40
0.6
 62
7
290
0
291
1
  0
VISUALSTYLE
  5
64
102
{ACAD_REACTORS
330
16
102
}
330
16
100
AcDbVisualStyle
  2
Gouraud
 70
2
 90
2
 40
0.6
 62
7
290
0
291
1
  0
VISUALSTYLE
  5
65
102
{ACAD_REACTORS
330
16
102
}
330
16
100
AcDbVisualStyle
  2
GouraudWithEdges
 70
3
 90
2
 40
0.6
 62
7
290
0
291
1
  0
VISUALSTYLE
  5
66
102
{ACAD_REACTORS
330
16
102
}
330
16
100
AcDbVisualStyle
  2
Hidden
 70
6
 90
1
 40
0.6
 62
7
290
0
291
0
  0
VISUALSTYLE
  5
67
102
{ACAD_REACTORS
330
16
102
}
330
16
100
AcDbVisualStyle
  2
JitterOff
 70
20
 90
2
 40
0.6
 62
7
290
0
291
1
  0
VISUALSTYLE
  5
68
102
{ACAD_REACTORS
330
16
102
}
330
16
100
AcDbVisualStyle
  2
Linepattern
 70
14
 90
2
 40
0.6
 62
7
290
0
291
1
  0
VISUALSTYLE
  5
69
102
{ACAD_REACTORS
330
16
102
}
330
16
100
AcDbVisualStyle
  2
Modeling
 70
10
 90
2
 40
0.6
 62
7
290
0
291
0
  0
VISUALSTYLE
  5
6A
102
{ACAD_REACTORS
330
16
102
}
330
16
100
AcDbVisualStyle
  2
OverhangOff
 70
21
 90
2
 40
0.6
 62
7
290
0
291
1
  0
VISUALSTYLE
  5
6B
102
{ACAD_REACTORS
330
16
102
}
330
16
100
AcDbVisualStyle
  2
Realistic
 70
8
 90
2
 40
0.6
 62
7
290
0
291
0
  0
VISUALSTYLE
  5
6C
102
{ACAD_REACTORS
330
16
102
}
330
16
100
AcDbVisualStyle
  2
Shaded
 70
27
 90
2
 40
0.6
 62
7
290
0
291
0
  0
VISUALSTYLE
  5
6D
102
{ACAD_REACTORS
330
16
102
}
330
16
100
AcDbVisualStyle
  2
Shaded with edges
 70
26
 90
2
 40
0.6
 62
7
290
0
291
0
  0
VISUALSTYLE
  5
6E
102
{ACAD_REACTORS
330
16
102
}
330
16
100
AcDbVisualStyle
  2
Shades of Gray
 70
23
 90
2
 40
0.6
 62
7
290
0
291
0
  0
VISUALSTYLE
  5
6F
102
{ACAD_REACTORS
330
16
102
}
330
16
100
AcDbVisualStyle
  2
Sketchy
 70
24
 90
1
 40
0.6
 62
7
290
0
291
0
  0
VISUALSTYLE
  5
70
102
{ACAD_REACTORS
330
16
102
}
330
16
100
AcDbVisualStyle
  2
Thicken
 70
13
 90
2
 40
0.6
 62
7
290
0
291
1
  0
VISUALSTYLE
  5
71
102
{ACAD_REACTORS
330
16
102
}
330
16
100
AcDbVisualStyle
  2
Wireframe
 70
5
 90
0
 40
0.6
 62
7
290
0
291
0
  0
VISUALSTYLE
  5
72
102
{ACAD_REACTORS
330
16
102
}
330
16
100
AcDbVisualStyle
  2
X-Ray
 70
25
 90
2
 40
0.5
 62
7
290
0
291
0
  0
DICTIONARYVAR
  5
216
330
2D
100
DictionaryVariables
280
0
  1
1.4.4 @ 2026-09-03T21:52:49.710818+00:00
  0
ENDSEC
  0
EOF
