  0
SECTION
  2
HEADER
  9
$ACADVER
  1
AC1024
  9
$ACADMAINTVER
 70
6
  9
$DWGCODEPAGE
  3
ANSI_1252
  9
$LASTSAVEDBY
  1
ezdxf
  9
$INSBASE
 10
0.0
 20
0.0
 30
0.0
  9
$EXTMIN
 10
1e+20
 20
1e+20
 30
1e+20
  9
$EXTMAX
 10
-1e+20
 20
-1e+20
 30
-1e+20
  9
$LIMMIN
 10
0.0
 20
0.0
  9
$LIMMAX
 10
420.0
 20
297.0
  9
$ORTHOMODE
 70
0
  9
$REGENMODE
 70
1
  9
$FILLMODE
 70
1
  9
$QTEXTMODE
 70
0
  9
$MIRRTEXT
 70
1
  9
$LTSCALE
 40
1.0
  9
$ATTMODE
 70
1
  9
$TEXTSIZE
 40
2.5
  9
$TRACEWID
 40
1.0
  9
$TEXTSTYLE
  7
OpenSans
  9
$CLAYER
  8
0
  9
$CELTYPE
  6
ByLayer
  9
$CECOLOR
 62
256
  9
$CELTSCALE
 40
1.0
  9
$DISPSILH
 70
0
  9
$DIMSCALE
 40
1.0
  9
$DIMASZ
 40
0.175
  9
$DIMEXO
 40
0.125
  9
$DIMDLI
 40
3.75
  9
$DIMRND
 40
0.0
  9
$DIMDLE
 40
0.0
  9
$DIMEXE
 40
0.375
  9
$DIMTP
 40
0.0
  9
$DIMTM
 40
0.0
  9
$DIMTXT
 40
0.25
  9
$DIMCEN
 40
2.5
  9
$DIMTSZ
 40
0.0
  9
$DIMTOL
 70
0
  9
$DIMLIM
 70
0
  9
$DIMTIH
 70
0
  9
$DIMTOH
 70
0
  9
$DIMSE1
 70
0
  9
$DIMSE2
 70
0
  9
$DIMTAD
 70
1
  9
$DIMZIN
 70
12
  9
$DIMBLK
  1
ARCHTICK
  9
$DIMASO
 70
1
  9
$DIMSHO
 70
1
  9
$DIMPOST
  1

  9
$DIMAPOST
  1

  9
$DIMALT
 70
0
  9
$DIMALTD
 70
3
  9
$DIMALTF
 40
0.03937007874
  9
$DIMLFAC
 40
100.0
  9
$DIMTOFL
 70
1
  9
$DIMTVP
 40
0.0
  9
$DIMTIX
 70
0
  9
$DIMSOXD
 70
0
  9
$DIMSAH
 70
0
  9
$DIMBLK1
  1

  9
$DIMBLK2
  1

  9
$DIMSTYLE
  2
EZDXF
  9
$DIMCLRD
 70
0
  9
$DIMCLRE
 70
0
  9
$DIMCLRT
 70
0
  9
$DIMTFAC
 40
0.5
  9
$DIMGAP
 40
0.1
  9
$DIMJUST
 70
0
  9
$DIMSD1
 70
0
  9
$DIMSD2
 70
0
  9
$DIMTOLJ
 70
0
  9
$DIMTZIN
 70
8
  9
$DIMALTZ
 70
0
  9
$DIMALTTZ
 70
0
  9
$DIMUPT
 70
1
  9
$DIMDEC
 70
2
  9
$DIMTDEC
 70
2
  9
$DIMALTU
 70
2
  9
$DIMALTTD
 70
3
  9
$DIMTXSTY
  7
OpenSansCondensed-Light
  9
$DIMAUNIT
 70
0
  9
$DIMADEC
 70
2
  9
$DIMALTRND
 40
0.0
  9
$DIMAZIN
 70
3
  9
$DIMDSEP
 70
46
  9
$DIMATFIT
 70
3
  9
$DIMFRAC
 70
0
  9
$DIMLDRBLK
  1

  9
$DIMLUNIT
 70
2
  9
$DIMLWD
 70
-2
  9
$DIMLWE
 70
-2
  9
$DIMTMOVE
 70
2
  9
$DIMFXL
 40
1.0
  9
$DIMFXLON
 70
0
  9
$DIMJOGANG
 40
0.785398163397
  9
$DIMTFILL
 70
0
  9
$DIMTFILLCLR
 70
0
  9
$DIMARCSYM
 70
0
  9
$DIMLTYPE
  6

  9
$DIMLTEX1
  6

  9
$DIMLTEX2
  6

  9
$DIMTXTDIRECTION
 70
0
  9
$LUNITS
 70
2
  9
$LUPREC
 70
4
  9
$SKETCHINC
 40
1.0
  9
$FILLETRAD
 40
10.0
  9
$AUNITS
 70
0
  9
$AUPREC
 70
2
  9
$MENU
  1
.
  9
$ELEVATION
 40
0.0
  9
$PELEVATION
 40
0.0
  9
$THICKNESS
 40
0.0
  9
$LIMCHECK
 70
0
  9
$CHAMFERA
 40
0.0
  9
$CHAMFERB
 40
0.0
  9
$CHAMFERC
 40
0.0
  9
$CHAMFERD
 40
0.0
  9
$SKPOLY
 70
0
  9
$TDCREATE
 40
2461288.651898148
  9
$TDUCREATE
 40
2458532.153996898
  9
$TDUPDATE
 40
2461288.651898148
  9
$TDUUPDATE
 40
2458532.1544311
  9
$TDINDWG
 40
0.0
  9
$TDUSRTIMER
 40
0.0
  9
$USRTIMER
 70
1
  9
$ANGBASE
 50
0.0
  9
$ANGDIR
 70
0
  9
$PDMODE
 70
0
  9
$PDSIZE
 40
0.0
  9
$PLINEWID
 40
0.0
  9
$SPLFRAME
 70
0
  9
$SPLINETYPE
 70
6
  9
$SPLINESEGS
 70
8
  9
$HANDSEED
  5
211
  9
$SURFTAB1
 70
6
  9
$SURFTAB2
 70
6
  9
$SURFTYPE
 70
6
  9
$SURFU
 70
6
  9
$SURFV
 70
6
  9
$UCSBASE
  2

  9
$UCSNAME
  2

  9
$UCSORG
 10
0.0
 20
0.0
 30
0.0
  9
$UCSXDIR
 10
1.0
 20
0.0
 30
0.0
  9
$UCSYDIR
 10
0.0
 20
1.0
 30
0.0
  9
$UCSORTHOREF
  2

  9
$UCSORTHOVIEW
 70
0
  9
$UCSORGTOP
 10
0.0
 20
0.0
 30
0.0
  9
$UCSORGBOTTOM
 10
0.0
 20
0.0
 30
0.0
  9
$UCSORGLEFT
 10
0.0
 20
0.0
 30
0.0
  9
$UCSORGRIGHT
 10
0.0
 20
0.0
 30
0.0
  9
$UCSORGFRONT
 10
0.0
 20
0.0
 30
0.0
  9
$UCSORGBACK
 10
0.0
 20
0.0
 30
0.0
  9
$PUCSBASE
  2

  9
$PUCSNAME
  2

  9
$PUCSORG
 10
0.0
 20
0.0
 30
0.0
  9
$PUCSXDIR
 10
1.0
 20
0.0
 30
0.0
  9
$PUCSYDIR
 10
0.0
 20
1.0
 30
0.0
  9
$PUCSORTHOREF
  2

  9
$PUCSORTHOVIEW
 70
0
  9
$PUCSORGTOP
 10
0.0
 20
0.0
 30
0.0
  9
$PUCSORGBOTTOM
 10
0.0
 20
0.0
 30
0.0
  9
$PUCSORGLEFT
 10
0.0
 20
0.0
 30
0.0
  9
$PUCSORGRIGHT
 10
0.0
 20
0.0
 30
0.0
  9
$PUCSORGFRONT
 10
0.0
 20
0.0
 30
0.0
  9
$PUCSORGBACK
 10
0.0
 20
0.0
 30
0.0
  9
$USERI1
 70
0
  9
$USERI2
 70
0
  9
$USERI3
 70
0
  9
$USERI4
 70
0
  9
$USERI5
 70
0
  9
$USERR1
 40
0.0
  9
$USERR2
 40
0.0
  9
$USERR3
 40
0.0
  9
$USERR4
 40
0.0
  9
$USERR5
 40
0.0
  9
$WORLDVIEW
 70
1
  9
$SHADEDGE
 70
3
  9
$SHADEDIF
 70
70
  9
$TILEMODE
 70
1
  9
$MAXACTVP
 70
64
  9
$PINSBASE
 10
0.0
 20
0.0
 30
0.0
  9
$PLIMCHECK
 70
0
  9
$PEXTMIN
 10
1e+20
 20
1e+20
 30
1e+20
  9
$PEXTMAX
 10
-1e+20
 20
-1e+20
 30
-1e+20
  9
$PLIMMIN
 10
0.0
 20
0.0
  9
$PLIMMAX
 10
420.0
 20
297.0
  9
$UNITMODE
 70
0
  9
$VISRETAIN
 70
1
  9
$PLINEGEN
 70
0
  9
$PSLTSCALE
 70
1
  9
$TREEDEPTH
 70
3020
  9
$CMLSTYLE
  2
Standard
  9
$CMLJUST
 70
0
  9
$CMLSCALE
 40
20.0
  9
$PROXYGRAPHICS
 70
1
  9
$MEASUREMENT
 70
1
  9
$CELWEIGHT
370
-1
  9
$ENDCAPS
280
0
  9
$JOINSTYLE
280
0
  9
$LWDISPLAY
290
0
  9
$INSUNITS
 70
6
  9
$HYPERLINKBASE
  1

  9
$STYLESHEET
  1

  9
$XEDIT
290
1
  9
$CEPSNTYPE
380
0
  9
$PSTYLEMODE
290
1
  9
$FINGERPRINTGUID
  2
{57937BED-9C63-4D5B-AB75-2600FD6C66CC}
  9
$VERSIONGUID
  2
{F2EB84E3-8486-4748-9389-90F2964E00E5}
  9
$EXTNAMES
290
1
  9
$PSVPSCALE
 40
0.0
  9
$OLESTARTUP
290
0
  9
$SORTENTS
280
127
  9
$INDEXCTL
280
0
  9
$HIDETEXT
280
1
  9
$XCLIPFRAME
280
1
  9
$HALOGAP
280
0
  9
$OBSCOLOR
 70
257
  9
$OBSLTYPE
280
0
  9
$INTERSECTIONDISPLAY
280
0
  9
$INTERSECTIONCOLOR
 70
257
  9
$DIMASSOC
280
2
  9
$PROJECTNAME
  1

  9
$CAMERADISPLAY
290
0
  9
$LENSLENGTH
 40
50.0
  9
$CAMERAHEIGHT
 40
0.0
  9
$STEPSPERSEC
 40
24.0
  9
$STEPSIZE
 40
100.0
  9
$3DDWFPREC
 40
2.0
  9
$PSOLWIDTH
 40
0.005
  9
$PSOLHEIGHT
 40
0.08
  9
$LOFTANG1
 40
1.570796326795
  9
$LOFTANG2
 40
1.570796326795
  9
$LOFTMAG1
 40
0.0
  9
$LOFTMAG2
 40
0.0
  9
$LOFTPARAM
 70
7
  9
$LOFTNORMALS
280
1
  9
$LATITUDE
 40
37.795
  9
$LONGITUDE
 40
-122.394
  9
$NORTHDIRECTION
 40
0.0
  9
$TIMEZONE
 70
-8000
  9
$LIGHTGLYPHDISPLAY
280
1
  9
$TILEMODELIGHTSYNCH
280
1
  9
$CMATERIAL
347
20
  9
$SOLIDHIST
280
0
  9
$SHOWHIST
280
1
  9
$DWFFRAME
280
2
  9
$DGNFRAME
280
2
  9
$REALWORLDSCALE
290
1
  9
$INTERFERECOLOR
 62
256
  9
$CSHADOW
280
0
  9
$SHADOWPLANELOCATION
 40
0.0
  0
ENDSEC
  0
SECTION
  2
CLASSES
  0
CLASS
  1
ACDBDICTIONARYWDFLT
  2
AcDbDictionaryWithDefault
  3
ObjectDBX Classes
 90
0
 91
0
280
0
281
0
  0
CLASS
  1
SUN
  2
AcDbSun
  3
SCENEOE
 90
1153
 91
0
280
0
281
0
  0
CLASS
  1
VISUALSTYLE
  2
AcDbVisualStyle
  3
ObjectDBX Classes
 90
4095
 91
0
280
0
281
0
  0
CLASS
  1
MATERIAL
  2
AcDbMaterial
  3
ObjectDBX Classes
 90
1153
 91
0
280
0
281
0
  0
CLASS
  1
SCALE
  2
AcDbScale
  3
ObjectDBX Classes
 90
1153
 91
0
280
0
281
0
  0
CLASS
  1
TABLESTYLE
  2
AcDbTableStyle
  3
ObjectDBX Classes
 90
4095
 91
0
280
0
281
0
  0
CLASS
  1
MLEADERSTYLE
  2
AcDbMLeaderStyle
  3
ACDB_MLEADERSTYLE_CLASS
 90
4095
 91
0
280
0
281
0
  0
CLASS
  1
DICTIONARYVAR
  2
AcDbDictionaryVar
  3
ObjectDBX Classes
 90
0
 91
0
280
0
281
0
  0
CLASS
  1
CELLSTYLEMAP
  2
AcDbCellStyleMap
  3
ObjectDBX Classes
 90
1152
 91
0
280
0
281
0
  0
CLASS
  1
MENTALRAYRENDERSETTINGS
  2
AcDbMentalRayRenderSettings
  3
SCENEOE
 90
1024
 91
0
280
0
281
0
  0
CLASS
  1
ACDBDETAILVIEWSTYLE
  2
AcDbDetailViewStyle
  3
ObjectDBX Classes
 90
1025
 91
0
280
0
281
0
  0
CLASS
  1
ACDBSECTIONVIEWSTYLE
  2
AcDbSectionViewStyle
  3
ObjectDBX Classes
 90
1025
 91
0
280
0
281
0
  0
CLASS
  1
RASTERVARIABLES
  2
AcDbRasterVariables
  3
ISM
 90
0
 91
0
280
0
281
0
  0
CLASS
  1
LAYOUT
  2
AcDbLayout
  3
ObjectDBX Classes
 90
0
 91
0
280
0
281
0
  0
CLASS
  1
ACDBPLACEHOLDER
  2
AcDbPlaceHolder
  3
ObjectDBX Classes
 90
0
 91
0
280
0
281
0
  0
ENDSEC
  0
SECTION
  2
TABLES
  0
TABLE
  2
VPORT
  5
8
330
0
100
AcDbSymbolTable
 70
1
  0
VPORT
  5
23
330
8
100
AcDbSymbolTableRecord
100
AcDbViewportTableRecord
  2
*Active
 70
0
 10
0.0
 20
0.0
 11
1.0
 21
1.0
 12
0.0
 22
0.0
 13
0.0
 23
0.0
 14
0.5
 24
0.5
 15
0.5
 25
0.5
 16
0.0
 26
0.0
 36
1.0
 17
0.0
 27
0.0
 37
0.0
 40
1000.0
 41
1.34
 42
50.0
 43
0.0
 44
0.0
 50
0.0
 51
0.0
 71
0
 72
1000
 73
1
 74
3
 75
0
 76
0
 77
0
 78
0
281
0
 65
0
146
0.0
  0
ENDTAB
  0
TABLE
  2
LTYPE
  5
2
330
0
100
AcDbSymbolTable
 70
21
  0
LTYPE
  5
24
330
2
100
AcDbSymbolTableRecord
100
AcDbLinetypeTableRecord
  2
ByBlock
 70
0
  3

 72
65
 73
0
 40
0.0
  0
LTYPE
  5
25
330
2
100
AcDbSymbolTableRecord
100
AcDbLinetypeTableRecord
  2
ByLayer
 70
0
  3

 72
65
 73
0
 40
0.0
  0
LTYPE
  5
26
330
2
100
AcDbSymbolTableRecord
100
AcDbLinetypeTableRecord
  2
Continuous
 70
0
  3

 72
65
 73
0
 40
0.0
  0
LTYPE
  5
2F
330
2
100
AcDbSymbolTableRecord
100
AcDbLinetypeTableRecord
  2
CENTER
 70
0
  3
Center ____ _ ____ _ ____ _ ____ _ ____ _ ____
 72
65
 73
4
 40
5.08
 49
3.175
 74
0
 49
-0.635
 74
0
 49
0.635
 74
0
 49
-0.635
 74
0
  0
LTYPE
  5
30
330
2
100
AcDbSymbolTableRecord
100
AcDbLinetypeTableRecord
  2
CENTERX2
 70
0
  3
Center (2x) ________  __  ________  __  ________
 72
65
 73
4
 40
8.89
 49
6.35
 74
0
 49
-0.635
 74
0
 49
1.27
 74
0
 49
-0.635
 74
0
  0
LTYPE
  5
31
330
2
100
AcDbSymbolTableRecord
100
AcDbLinetypeTableRecord
  2
CENTER2
 70
0
  3
Center (.5x) ____ _ ____ _ ____ _ ____ _ ____
 72
65
 73
4
 40
2.54
 49
1.587
 74
0
 49
-0.318
 74
0
 49
0.318
 74
0
 49
-0.318
 74
0
  0
LTYPE
  5
32
330
2
100
AcDbSymbolTableRecord
100
AcDbLinetypeTableRecord
  2
DASHED
 70
0
  3
Dashed __ __ __ __ __ __ __ __ __ __ __ __ __ _
 72
65
 73
2
 40
1.524
 49
1.27
 74
0
 49
-0.254
 74
0
  0
LTYPE
  5
33
330
2
100
AcDbSymbolTableRecord
100
AcDbLinetypeTableRecord
  2
DASHEDX2
 70
0
  3
Dashed (2x) ____  ____  ____  ____  ____  ____
 72
65
 73
2
 40
3.048
 49
2.54
 74
0
 49
-0.508
 74
0
  0
LTYPE
  5
34
330
2
100
AcDbSymbolTableRecord
100
AcDbLinetypeTableRecord
  2
DASHED2
 70
0
  3
Dashed (.5x) _ _ _ _ _ _ _ _ _ _ _ _ _ _
 72
65
 73
2
 40
0.762
 49
0.635
 74
0
 49
-0.127
 74
0
  0
LTYPE
  5
35
330
2
100
AcDbSymbolTableRecord
100
AcDbLinetypeTableRecord
  2
PHANTOM
 70
0
  3
Phantom ______  __  __  ______  __  __  ______
 72
65
 73
6
 40
6.35
 49
3.175
 74
0
 49
-0.635
 74
0
 49
0.635
 74
0
 49
-0.635
 74
0
 49
0.635
 74
0
 49
-0.635
 74
0
  0
LTYPE
  5
36
330
2
100
AcDbSymbolTableRecord
100
AcDbLinetypeTableRecord
  2
PHANTOMX2
 70
0
  3
Phantom (2x)____________    ____    ____    ____________
 72
65
 73
6
 40
10.795
 49
6.35
 74
0
 49
-0.635
 74
0
 49
1.27
 74
0
 49
-0.635
 74
0
 49
1.27
 74
0
 49
-0.635
 74
0
  0
LTYPE
  5
37
330
2
100
AcDbSymbolTableRecord
100
AcDbLinetypeTableRecord
  2
PHANTOM2
 70
0
  3
Phantom (.5x) ___ _ _ ___ _ _ ___ _ _ ___ _ _ ___
 72
65
 73
6
 40
3.175
 49
1.587
 74
0
 49
-0.318
 74
0
 49
0.318
 74
0
 49
-0.318
 74
0
 49
0.318
 74
0
 49
-0.318
 74
0
  0
LTYPE
  5
38
330
2
100
AcDbSymbolTableRecord
100
AcDbLinetypeTableRecord
  2
DASHDOT
 70
0
  3
Dash dot __ . __ . __ . __ . __ . __ . __ . __
 72
65
 73
4
 40
3.556
 49
2.54
 74
0
 49
-0.508
 74
0
 49
0.0
 74
0
 49
-0.508
 74
0
  0
LTYPE
  5
39
330
2
100
AcDbSymbolTableRecord
100
AcDbLinetypeTableRecord
  2
DASHDOTX2
 70
0
  3
Dash dot (2x) ____  .  ____  .  ____  .  ____
 72
65
 73
4
 40
6.096
 49
5.08
 74
0
 49
-0.508
 74
0
 49
0.0
 74
0
 49
-0.508
 74
0
  0
LTYPE
  5
3A
330
2
100
AcDbSymbolTableRecord
100
AcDbLinetypeTableRecord
  2
DASHDOT2
 70
0
  3
Dash dot (.5x) _ . _ . _ . _ . _ . _ . _ . _
 72
65
 73
4
 40
1.778
 49
1.27
 74
0
 49
-0.254
 74
0
 49
0.0
 74
0
 49
-0.254
 74
0
  0
LTYPE
  5
3B
330
2
100
AcDbSymbolTableRecord
100
AcDbLinetypeTableRecord
  2
DOT
 70
0
  3
Dot .  .  .  .  .  .  .  .  .  .  .  .  .  .  .  .
 72
65
 73
2
 40
0.508
 49
0.0
 74
0
 49
-0.508
 74
0
  0
LTYPE
  5
3C
330
2
100
AcDbSymbolTableRecord
100
AcDbLinetypeTableRecord
  2
DOTX2
 70
0
  3
Dot (2x) .    .    .    .    .    .    .    . 
 72
65
 73
2
 40
1.016
 49
0.0
 74
0
 49
-1.016
 74
0
  0
LTYPE
  5
3D
330
2
100
AcDbSymbolTableRecord
100
AcDbLinetypeTableRecord
  2
DOT2
 70
0
  3
Dot (.5) . . . . . . . . . . . . . . . . . . . 
 72
65
 73
2
 40
0.254
 49
0.0
 74
0
 49
-0.254
 74
0
  0
LTYPE
  5
3E
330
2
100
AcDbSymbolTableRecord
100
AcDbLinetypeTableRecord
  2
DIVIDE
 70
0
  3
Divide __ . . __ . . __ . . __ . . __ . . __
 72
65
 73
6
 40
4.064
 49
2.54
 74
0
 49
-0.508
 74
0
 49
0.0
 74
0
 49
-0.508
 74
0
 49
0.0
 74
0
 49
-0.508
 74
0
  0
LTYPE
  5
3F
330
2
100
AcDbSymbolTableRecord
100
AcDbLinetypeTableRecord
  2
DIVIDEX2
 70
0
  3
Divide (2x) ____  . .  ____  . .  ____  . .  ____
 72
65
 73
6
 40
6.604
 49
5.08
 74
0
 49
-0.508
 74
0
 49
0.0
 74
0
 49
-0.508
 74
0
 49
0.0
 74
0
 49
-0.508
 74
0
  0
LTYPE
  5
40
330
2
100
AcDbSymbolTableRecord
100
AcDbLinetypeTableRecord
  2
DIVIDE2
 70
0
  3
Divide(.5x) _ . _ . _ . _ . _ . _ . _ . _
 72
65
 73
6
 40
2.032
 49
1.27
 74
0
 49
-0.254
 74
0
 49
0.0
 74
0
 49
-0.254
 74
0
 49
0.0
 74
0
 49
-0.254
 74
0
  0
ENDTAB
  0
TABLE
  2
LAYER
  5
1
330
0
100
AcDbSymbolTable
 70
7
  0
LAYER
  5
27
330
1
100
AcDbSymbolTableRecord
100
AcDbLayerTableRecord
  2
0
 70
0
 62
7
  6
Continuous
370
-3
390
13
347
21
  0
LAYER
  5
28
330
1
100
AcDbSymbolTableRecord
100
AcDbLayerTableRecord
  2
Defpoints
 70
0
 62
7
  6
Continuous
290
0
370
-3
390
13
347
21
  0
LAYER
  5
8A
330
1
100
AcDbSymbolTableRecord
100
AcDbLayerTableRecord
  2
OUTLINE
 70
0
 62
7
  6
Continuous
370
-3
390
13
347
21
  0
LAYER
  5
8B
330
1
100
AcDbSymbolTableRecord
100
AcDbLayerTableRecord
  2
REF
 70
0
 62
8
  6
Continuous
370
-3
390
13
347
21
  0
LAYER
  5
8C
330
1
100
AcDbSymbolTableRecord
100
AcDbLayerTableRecord
  2
DIMS
 70
0
 62
1
  6
Continuous
370
-3
390
13
347
21
  0
LAYER
  5
8D
330
1
100
AcDbSymbolTableRecord
100
AcDbLayerTableRecord
  2
TEXT
 70
0
 62
3
  6
Continuous
370
-3
390
13
347
21
  0
LAYER
  5
8E
330
1
100
AcDbSymbolTableRecord
100
AcDbLayerTableRecord
  2
NOTES
 70
0
 62
4
  6
Continuous
370
-3
390
13
347
21
  0
ENDTAB
  0
TABLE
  2
STYLE
  5
5
330
0
100
AcDbSymbolTable
 70
26
  0
STYLE
  5
29
330
5
100
AcDbSymbolTableRecord
100
AcDbTextStyleTableRecord
  2
Standard
 70
0
 40
0.0
 41
1.0
 50
0.0
 71
0
 42
2.5
  3
txt
  4

  0
STYLE
  5
41
330
5
100
AcDbSymbolTableRecord
100
AcDbTextStyleTableRecord
  2
OpenSans-Light
 70
0
 40
0.0
 41
1.0
 50
0.0
 71
0
 42
2.5
  3
OpenSans-Light.ttf
  4

  0
STYLE
  5
42
330
5
100
AcDbSymbolTableRecord
100
AcDbTextStyleTableRecord
  2
OpenSans-Light-Italic
 70
0
 40
0.0
 41
1.0
 50
0.0
 71
0
 42
2.5
  3
OpenSans-LightItalic.ttf
  4

  0
STYLE
  5
43
330
5
100
AcDbSymbolTableRecord
100
AcDbTextStyleTableRecord
  2
OpenSans
 70
0
 40
0.0
 41
1.0
 50
0.0
 71
0
 42
2.5
  3
OpenSans-Regular.ttf
  4

  0
STYLE
  5
44
330
5
100
AcDbSymbolTableRecord
100
AcDbTextStyleTableRecord
  2
OpenSans-Italic
 70
0
 40
0.0
 41
1.0
 50
0.0
 71
0
 42
2.5
  3
OpenSans-Italic.ttf
  4

  0
STYLE
  5
45
330
5
100
AcDbSymbolTableRecord
100
AcDbTextStyleTableRecord
  2
OpenSans-SemiBold
 70
0
 40
0.0
 41
1.0
 50
0.0
 71
0
 42
2.5
  3
OpenSans-SemiBold.ttf
  4

  0
STYLE
  5
46
330
5
100
AcDbSymbolTableRecord
100
AcDbTextStyleTableRecord
  2
OpenSans-SemiBoldItalic
 70
0
 40
0.0
 41
1.0
 50
0.0
 71
0
 42
2.5
  3
OpenSans-SemiBoldItalic.ttf
  4

  0
STYLE
  5
47
330
5
100
AcDbSymbolTableRecord
100
AcDbTextStyleTableRecord
  2
OpenSans-Bold
 70
0
 40
0.0
 41
1.0
 50
0.0
 71
0
 42
2.5
  3
OpenSans-Bold.ttf
  4

  0
STYLE
  5
48
330
5
100
AcDbSymbolTableRecord
100
AcDbTextStyleTableRecord
  2
OpenSans-BoldItalic
 70
0
 40
0.0
 41
1.0
 50
0.0
 71
0
 42
2.5
  3
OpenSans-BoldItalic.ttf
  4

  0
STYLE
  5
49
330
5
100
AcDbSymbolTableRecord
100
AcDbTextStyleTableRecord
  2
OpenSans-ExtraBold
 70
0
 40
0.0
 41
1.0
 50
0.0
 71
0
 42
2.5
  3
OpenSans-ExtraBold.ttf
  4

  0
STYLE
  5
4A
330
5
100
AcDbSymbolTableRecord
100
AcDbTextStyleTableRecord
  2
OpenSans-ExtraBoldItalic
 70
0
 40
0.0
 41
1.0
 50
0.0
 71
0
 42
2.5
  3
OpenSans-ExtraBoldItalic.ttf
  4

  0
STYLE
  5
4B
330
5
100
AcDbSymbolTableRecord
100
AcDbTextStyleTableRecord
  2
OpenSansCondensed-Bold
 70
0
 40
0.0
 41
1.0
 50
0.0
 71
0
 42
2.5
  3
OpenSansCondensed-Bold.ttf
  4

  0
STYLE
  5
4C
330
5
100
AcDbSymbolTableRecord
100
AcDbTextStyleTableRecord
  2
OpenSansCondensed-Light
 70
0
 40
0.0
 41
1.0
 50
0.0
 71
0
 42
2.5
  3
OpenSansCondensed-Light.ttf
  4

  0
STYLE
  5
4D
330
5
100
AcDbSymbolTableRecord
100
AcDbTextStyleTableRecord
  2
OpenSansCondensed-Italic
 70
0
 40
0.0
 41
1.0
 50
0.0
 71
0
 42
2.5
  3
OpenSansCondensed-LightItalic.ttf
  4

  0
STYLE
  5
4E
330
5
100
AcDbSymbolTableRecord
100
AcDbTextStyleTableRecord
  2
LiberationSans
 70
0
 40
0.0
 41
1.0
 50
0.0
 71
0
 42
2.5
  3
LiberationSans-Regular.ttf
  4

  0
STYLE
  5
4F
330
5
100
AcDbSymbolTableRecord
100
AcDbTextStyleTableRecord
  2
LiberationSans-Bold
 70
0
 40
0.0
 41
1.0
 50
0.0
 71
0
 42
2.5
  3
LiberationSans-Bold.ttf
  4

  0
STYLE
  5
50
330
5
100
AcDbSymbolTableRecord
100
AcDbTextStyleTableRecord
  2
LiberationSans-BoldItalic
 70
0
 40
0.0
 41
1.0
 50
0.0
 71
0
 42
2.5
  3
LiberationSans-BoldItalic.ttf
  4

  0
STYLE
  5
51
330
5
100
AcDbSymbolTableRecord
100
AcDbTextStyleTableRecord
  2
LiberationSans-Italic
 70
0
 40
0.0
 41
1.0
 50
0.0
 71
0
 42
2.5
  3
LiberationSans-Italic.ttf
  4

  0
STYLE
  5
52
330
5
100
AcDbSymbolTableRecord
100
AcDbTextStyleTableRecord
  2
LiberationSerif
 70
0
 40
0.0
 41
1.0
 50
0.0
 71
0
 42
2.5
  3
LiberationSerif-Regular.ttf
  4

  0
STYLE
  5
53
330
5
100
AcDbSymbolTableRecord
100
AcDbTextStyleTableRecord
  2
LiberationSerif-Bold
 70
0
 40
0.0
 41
1.0
 50
0.0
 71
0
 42
2.5
  3
LiberationSerif-Bold.ttf
  4

  0
STYLE
  5
54
330
5
100
AcDbSymbolTableRecord
100
AcDbTextStyleTableRecord
  2
LiberationSerif-BoldItalic
 70
0
 40
0.0
 41
1.0
 50
0.0
 71
0
 42
2.5
  3
LiberationSerif-BoldItalic.ttf
  4

  0
STYLE
  5
55
330
5
100
AcDbSymbolTableRecord
100
AcDbTextStyleTableRecord
  2
LiberationSerif-Italic
 70
0
 40
0.0
 41
1.0
 50
0.0
 71
0
 42
2.5
  3
LiberationSerif-Italic.ttf
  4

  0
STYLE
  5
56
330
5
100
AcDbSymbolTableRecord
100
AcDbTextStyleTableRecord
  2
LiberationMono
 70
0
 40
0.0
 41
1.0
 50
0.0
 71
0
 42
2.5
  3
LiberationMono-Regular.ttf
  4

  0
STYLE
  5
57
330
5
100
AcDbSymbolTableRecord
100
AcDbTextStyleTableRecord
  2
LiberationMono-Bold
 70
0
 40
0.0
 41
1.0
 50
0.0
 71
0
 42
2.5
  3
LiberationMono-Bold.ttf
  4

  0
STYLE
  5
58
330
5
100
AcDbSymbolTableRecord
100
AcDbTextStyleTableRecord
  2
LiberationMono-BoldItalic
 70
0
 40
0.0
 41
1.0
 50
0.0
 71
0
 42
2.5
  3
LiberationMono-BoldItalic.ttf
  4

  0
STYLE
  5
59
330
5
100
AcDbSymbolTableRecord
100
AcDbTextStyleTableRecord
  2
LiberationMono-Italic
 70
0
 40
0.0
 41
1.0
 50
0.0
 71
0
 42
2.5
  3
LiberationMono-Italic.ttf
  4

  0
ENDTAB
  0
TABLE
  2
VIEW
  5
7
330
0
100
AcDbSymbolTable
 70
0
  0
ENDTAB
  0
TABLE
  2
UCS
  5
6
330
0
100
AcDbSymbolTable
 70
0
  0
ENDTAB
  0
TABLE
  2
APPID
  5
3
330
0
100
AcDbSymbolTable
 70
3
  0
APPID
  5
2A
330
3
100
AcDbSymbolTableRecord
100
AcDbRegAppTableRecord
  2
ACAD
 70
0
  0
APPID
  5
20E
330
3
100
AcDbSymbolTableRecord
100
AcDbRegAppTableRecord
  2
HATCHBACKGROUNDCOLOR
 70
0
  0
APPID
  5
20F
330
3
100
AcDbSymbolTableRecord
100
AcDbRegAppTableRecord
  2
EZDXF
 70
0
  0
ENDTAB
  0
TABLE
  2
DIMSTYLE
  5
4
330
0
100
AcDbSymbolTable
 70
12
100
AcDbDimStyleTable
  0
DIMSTYLE
105
2B
330
4
100
AcDbSymbolTableRecord
100
AcDbDimStyleTableRecord
  2
Standard
 70
0
 40
1.0
 41
2.5
 42
0.625
 43
3.75
 44
1.25
 45
0.0
 46
0.0
 47
0.0
 48
0.0
 49
2.5
140
2.5
141
2.5
142
0.0
143
0.03937007874
144
1.0
145
0.0
146
1.0
147
0.625
148
0.0
 69
0
 70
0
 71
0
 72
0
 73
0
 74
0
 75
0
 76
0
 77
1
 78
8
 79
3
170
0
171
3
172
1
173
0
174
0
175
0
176
0
177
0
178
0
179
2
271
2
272
2
273
2
274
3
275
0
276
0
277
2
278
44
279
0
280
0
281
0
282
0
283
0
284
8
285
0
286
0
288
0
289
3
290
0
371
-2
372
-2
  0
DIMSTYLE
105
73
330
4
100
AcDbSymbolTableRecord
100
AcDbDimStyleTableRecord
  2
EZDXF
 70
0
 40
1.0
 41
0.175
 42
0.125
 43
3.75
 44
0.375
 45
0.0
 46
0.0
 47
0.0
 48
0.0
 49
2.5
140
0.25
141
2.5
142
0.0
143
0.03937007874
144
100.0
145
0.0
146
0.5
147
0.1
148
0.0
 69
0
 70
0
 71
0
 72
0
 73
0
 74
0
 75
0
 76
0
 77
1
 78
12
 79
3
170
0
171
3
172
1
173
0
174
0
175
0
176
0
177
0
178
0
179
2
271
2
272
2
273
2
274
3
275
0
276
0
277
2
278
46
279
2
280
0
281
0
282
0
283
0
284
8
285
0
286
0
288
1
289
3
290
0
340
4C
342
74
371
-2
372
-2
  0
DIMSTYLE
105
7C
330
4
100
AcDbSymbolTableRecord
100
AcDbDimStyleTableRecord
  2
EZ_M_100_H25_CM
 70
0
 40
1.0
 41
0.25
 42
0.125
 43
3.75
 44
0.375
 45
0.0
 46
0.0
 47
0.0
 48
0.0
 49
2.5
140
0.25
141
2.5
142
0.125
143
0.03937007874
144
100.0
145
0.0
146
0.5
147
0.1
148
0.0
 69
0
 70
0
 71
0
 72
0
 73
0
 74
0
 75
0
 76
0
 77
1
 78
12
 79
3
170
0
171
3
172
1
173
0
174
0
175
0
176
0
177
0
178
0
179
2
271
2
272
2
273
2
274
3
275
0
276
0
277
2
278
46
279
2
280
0
281
0
282
0
283
0
284
8
285
0
286
0
288
1
289
3
290
0
340
4C
371
-2
372
-2
  0
DIMSTYLE
105
7D
330
4
100
AcDbSymbolTableRecord
100
AcDbDimStyleTableRecord
  2
EZ_M_50_H25_CM
 70
0
 40
1.0
 41
0.125
 42
0.0625
 43
3.75
 44
0.1875
 45
0.0
 46
0.0
 47
0.0
 48
0.0
 49
2.5
140
0.125
141
2.5
142
0.0625
143
0.03937007874
144
100.0
145
0.0
146
0.5
147
0.05
148
0.0
 69
0
 70
0
 71
0
 72
0
 73
0
 74
0
 75
0
 76
0
 77
1
 78
12
 79
3
170
0
171
3
172
1
173
0
174
0
175
0
176
0
177
0
178
0
179
2
271
2
272
2
273
2
274
3
275
0
276
0
277
2
278
46
279
2
280
0
281
0
282
0
283
0
284
8
285
0
286
0
288
1
289
3
290
0
340
4C
371
-2
372
-2
  0
DIMSTYLE
105
7E
330
4
100
AcDbSymbolTableRecord
100
AcDbDimStyleTableRecord
  2
EZ_M_25_H25_CM
 70
0
 40
1.0
 41
0.0625
 42
0.03125
 43
3.75
 44
0.09375
 45
0.0
 46
0.0
 47
0.0
 48
0.0
 49
2.5
140
0.0625
141
2.5
142
0.03125
143
0.03937007874
144
100.0
145
0.0
146
0.5
147
0.025
148
0.0
 69
0
 70
0
 71
0
 72
0
 73
0
 74
0
 75
0
 76
0
 77
1
 78
12
 79
3
170
0
171
3
172
1
173
0
174
0
175
0
176
0
177
0
178
0
179
2
271
2
272
2
273
2
274
3
275
0
276
0
277
2
278
46
279
2
280
0
281
0
282
0
283
0
284
8
285
0
286
0
288
1
289
3
290
0
340
4C
371
-2
372
-2
  0
DIMSTYLE
105
7F
330
4
100
AcDbSymbolTableRecord
100
AcDbDimStyleTableRecord
  2
EZ_M_20_H25_CM
 70
0
 40
1.0
 41
0.05
 42
0.025
 43
3.75
 44
0.07500000000000001
 45
0.0
 46
0.0
 47
0.0
 48
0.0
 49
2.5
140
0.05
141
2.5
142
0.025
143
0.03937007874
144
100.0
145
0.0
146
0.5
147
0.020000000000000004
148
0.0
 69
0
 70
0
 71
0
 72
0
 73
0
 74
0
 75
0
 76
0
 77
1
 78
12
 79
3
170
0
171
3
172
1
173
0
174
0
175
0
176
0
177
0
178
0
179
2
271
2
272
2
273
2
274
3
275
0
276
0
277
2
278
46
279
2
280
0
281
0
282
0
283
0
284
8
285
0
286
0
288
1
289
3
290
0
340
4C
371
-2
372
-2
  0
DIMSTYLE
105
80
330
4
100
AcDbSymbolTableRecord
100
AcDbDimStyleTableRecord
  2
EZ_M_10_H25_CM
 70
0
 40
1.0
 41
0.025
 42
0.0125
 43
3.75
 44
0.037500000000000006
 45
0.0
 46
0.0
 47
0.0
 48
0.0
 49
2.5
140
0.025
141
2.5
142
0.0125
143
0.03937007874
144
100.0
145
0.0
146
0.5
147
0.010000000000000002
148
0.0
 69
0
 70
0
 71
0
 72
0
 73
0
 74
0
 75
0
 76
0
 77
1
 78
12
 79
3
170
0
171
3
172
1
173
0
174
0
175
0
176
0
177
0
178
0
179
2
271
2
272
2
273
2
274
3
275
0
276
0
277
2
278
46
279
2
280
0
281
0
282
0
283
0
284
8
285
0
286
0
288
1
289
3
290
0
340
4C
371
-2
372
-2
  0
DIMSTYLE
105
81
330
4
100
AcDbSymbolTableRecord
100
AcDbDimStyleTableRecord
  2
EZ_M_5_H25_CM
 70
0
 40
1.0
 41
0.0125
 42
0.00625
 43
3.75
 44
0.018750000000000003
 45
0.0
 46
0.0
 47
0.0
 48
0.0
 49
2.5
140
0.0125
141
2.5
142
0.00625
143
0.03937007874
144
100.0
145
0.0
146
0.5
147
0.005000000000000001
148
0.0
 69
0
 70
0
 71
0
 72
0
 73
0
 74
0
 75
0
 76
0
 77
1
 78
12
 79
3
170
0
171
3
172
1
173
0
174
0
175
0
176
0
177
0
178
0
179
2
271
2
272
2
273
2
274
3
275
0
276
0
277
2
278
46
279
2
280
0
281
0
282
0
283
0
284
8
285
0
286
0
288
1
289
3
290
0
340
4C
371
-2
372
-2
  0
DIMSTYLE
105
82
330
4
100
AcDbSymbolTableRecord
100
AcDbDimStyleTableRecord
  2
EZ_M_1_H25_CM
 70
0
 40
1.0
 41
0.0025
 42
0.00125
 43
3.75
 44
0.00375
 45
0.0
 46
0.0
 47
0.0
 48
0.0
 49
2.5
140
0.0025
141
2.5
142
0.00125
143
0.03937007874
144
100.0
145
0.0
146
0.5
147
0.001
148
0.0
 69
0
 70
0
 71
0
 72
0
 73
0
 74
0
 75
0
 76
0
 77
1
 78
12
 79
3
170
0
171
3
172
1
173
0
174
0
175
0
176
0
177
0
178
0
179
2
271
2
272
2
273
2
274
3
275
0
276
0
277
2
278
46
279
2
280
0
281
0
282
0
283
0
284
8
285
0
286
0
288
1
289
3
290
0
340
4C
371
-2
372
-2
  0
DIMSTYLE
105
83
330
4
100
AcDbSymbolTableRecord
100
AcDbDimStyleTableRecord
  2
EZ_RADIUS
 70
0
 40
1.0
 41
0.25
 42
0.125
 43
3.75
 44
0.375
 45
0.0
 46
0.0
 47
0.0
 48
0.0
 49
2.5
140
0.25
141
0.0
142
0.0
143
0.03937007874
144
100.0
145
0.0
146
0.5
147
0.1
148
0.0
 69
0
 70
0
 71
0
 72
0
 73
0
 74
0
 75
0
 76
0
 77
1
 78
12
 79
3
170
0
171
3
172
0
173
0
174
0
175
0
176
0
177
0
178
0
179
2
271
2
272
2
273
2
274
3
275
0
276
0
277
2
278
46
279
1
280
0
281
0
282
0
283
0
284
8
285
0
286
0
288
1
289
3
290
0
340
4C
342
84
371
-2
372
-2
  0
DIMSTYLE
105
88
330
4
100
AcDbSymbolTableRecord
100
AcDbDimStyleTableRecord
  2
EZ_RADIUS_INSIDE
 70
0
 40
1.0
 41
0.25
 42
0.125
 43
3.75
 44
0.375
 45
0.0
 46
0.0
 47
0.0
 48
0.0
 49
2.5
140
0.25
141
0.0
142
0.0
143
0.03937007874
144
100.0
145
0.0
146
0.5
147
0.1
148
0.0
 69
0
 70
0
 71
0
 72
0
 73
0
 74
0
 75
0
 76
0
 77
0
 78
12
 79
3
170
0
171
3
172
0
173
0
174
1
175
0
176
0
177
0
178
0
179
2
271
2
272
2
273
2
274
3
275
0
276
0
277
2
278
46
279
0
280
0
281
0
282
0
283
0
284
8
285
0
286
0
288
1
289
0
290
0
340
4C
342
84
371
-2
372
-2
  0
DIMSTYLE
105
89
330
4
100
AcDbSymbolTableRecord
100
AcDbDimStyleTableRecord
  2
EZ_CURVED
 70
0
 40
1.0
 41
0.25
 42
0.125
 43
3.75
 44
0.375
 45
0.0
 46
0.0
 47
0.0
 48
0.0
 49
2.5
140
0.25
141
2.5
142
0.0
143
0.03937007874
144
100.0
145
0.0
146
0.5
147
0.1
148
0.0
 69
0
 70
0
 71
0
 72
0
 73
0
 74
0
 75
0
 76
0
 77
1
 78
12
 79
2
 90
2
170
0
171
3
172
1
173
0
174
0
175
0
176
0
177
0
178
0
179
2
271
2
272
2
273
2
274
3
275
0
276
0
277
2
278
46
279
2
280
0
281
0
282
0
283
0
284
8
285
0
286
0
288
1
289
3
290
0
340
4C
371
-2
372
-2
  0
ENDTAB
  0
TABLE
  2
BLOCK_RECORD
  5
9
330
0
100
AcDbSymbolTable
 70
18
  0
BLOCK_RECORD
  5
17
330
9
100
AcDbSymbolTableRecord
100
AcDbBlockTableRecord
  2
*Model_Space
340
1A
 70
0
280
1
281
0
  0
BLOCK_RECORD
  5
1B
330
9
100
AcDbSymbolTableRecord
100
AcDbBlockTableRecord
  2
*Paper_Space
340
1E
 70
0
280
1
281
0
  0
BLOCK_RECORD
  5
74
330
9
100
AcDbSymbolTableRecord
100
AcDbBlockTableRecord
  2
_ARCHTICK
340
0
 70
0
280
1
281
0
  0
BLOCK_RECORD
  5
78
330
9
100
AcDbSymbolTableRecord
100
AcDbBlockTableRecord
  2
_CLOSEDFILLED
340
0
 70
0
280
1
281
0
  0
BLOCK_RECORD
  5
84
330
9
100
AcDbSymbolTableRecord
100
AcDbBlockTableRecord
  2
_CLOSEDBLANK
340
0
 70
0
280
1
281
0
  0
BLOCK_RECORD
  5
E0
330
9
100
AcDbSymbolTableRecord
100
AcDbBlockTableRecord
  2
*D1
340
0
 70
0
280
1
281
0
  0
BLOCK_RECORD
  5
EF
330
9
100
AcDbSymbolTableRecord
100
AcDbBlockTableRecord
  2
*D2
340
0
 70
0
280
1
281
0
  0
BLOCK_RECORD
  5
FE
330
9
100
AcDbSymbolTableRecord
100
AcDbBlockTableRecord
  2
*D3
340
0
 70
0
280
1
281
0
  0
BLOCK_RECORD
  5
10D
330
9
100
AcDbSymbolTableRecord
100
AcDbBlockTableRecord
  2
*D4
340
0
 70
0
280
1
281
0
  0
BLOCK_RECORD
  5
11C
330
9
100
AcDbSymbolTableRecord
100
AcDbBlockTableRecord
  2
*D5
340
0
 70
0
280
1
281
0
  0
BLOCK_RECORD
  5
148
330
9
100
AcDbSymbolTableRecord
100
AcDbBlockTableRecord
  2
*D6
340
0
 70
0
280
1
281
0
  0
BLOCK_RECORD
  5
157
330
9
100
AcDbSymbolTableRecord
100
AcDbBlockTableRecord
  2
*D7
340
0
 70
0
280
1
281
0
  0
BLOCK_RECORD
  5
17B
330
9
100
AcDbSymbolTableRecord
100
AcDbBlockTableRecord
  2
*D8
340
0
 70
0
280
1
281
0
  0
BLOCK_RECORD
  5
18A
330
9
100
AcDbSymbolTableRecord
100
AcDbBlockTableRecord
  2
*D9
340
0
 70
0
280
1
281
0
  0
BLOCK_RECORD
  5
1AC
330
9
100
AcDbSymbolTableRecord
100
AcDbBlockTableRecord
  2
*D10
340
0
 70
0
280
1
281
0
  0
BLOCK_RECORD
  5
1BB
330
9
100
AcDbSymbolTableRecord
100
AcDbBlockTableRecord
  2
*D11
340
0
 70
0
280
1
281
0
  0
BLOCK_RECORD
  5
1EF
330
9
100
AcDbSymbolTableRecord
100
AcDbBlockTableRecord
  2
*D12
340
0
 70
0
280
1
281
0
  0
BLOCK_RECORD
  5
1FE
330
9
100
AcDbSymbolTableRecord
100
AcDbBlockTableRecord
  2
*D13
340
0
 70
0
280
1
281
0
  0
ENDTAB
  0
ENDSEC
  0
SECTION
  2
BLOCKS
  0
BLOCK
  5
18
330
17
100
AcDbEntity
  8
0
100
AcDbBlockBegin
  2
*Model_Space
 70
0
 10
0.0
 20
0.0
 30
0.0
  3
*Model_Space
  1

  0
ENDBLK
  5
19
330
17
100
AcDbEntity
  8
0
100
AcDbBlockEnd
  0
BLOCK
  5
1C
330
1B
100
AcDbEntity
  8
0
100
AcDbBlockBegin
  2
*Paper_Space
 70
0
 10
0.0
 20
0.0
 30
0.0
  3
*Paper_Space
  1

  0
ENDBLK
  5
1D
330
1B
100
AcDbEntity
  8
0
100
AcDbBlockEnd
  0
BLOCK
  5
75
330
74
100
AcDbEntity
  8
0
100
AcDbBlockBegin
  2
_ARCHTICK
 70
0
 10
0.0
 20
0.0
 30
0.0
  3
_ARCHTICK
  1

  0
LWPOLYLINE
  5
77
330
74
100
AcDbEntity
  8
0
  6
BYBLOCK
 62
0
100
AcDbPolyline
 90
2
 70
0
 43
0.15
 10
-0.5
 20
-0.5
 10
0.5
 20
0.5
  0
ENDBLK
  5
76
330
74
100
AcDbEntity
  8
0
100
AcDbBlockEnd
  0
BLOCK
  5
79
330
78
100
AcDbEntity
  8
0
100
AcDbBlockBegin
  2
_CLOSEDFILLED
 70
0
 10
0.0
 20
0.0
 30
0.0
  3
_CLOSEDFILLED
  1

  0
SOLID
  5
7B
330
78
100
AcDbEntity
  8
0
  6
BYBLOCK
 62
0
100
AcDbTrace
 10
-1.0
 20
0.16439898372402537
 30
0.0
 11
0.0
 21
0.0
 31
0.0
 12
-1.0
 22
-0.16439898372402537
 32
0.0
 13
-1.0
 23
-0.16439898372402537
 33
0.0
  0
ENDBLK
  5
7A
330
78
100
AcDbEntity
  8
0
100
AcDbBlockEnd
  0
BLOCK
  5
85
330
84
100
AcDbEntity
  8
0
100
AcDbBlockBegin
  2
_CLOSEDBLANK
 70
0
 10
0.0
 20
0.0
 30
0.0
  3
_CLOSEDBLANK
  1

  0
LWPOLYLINE
  5
87
330
84
100
AcDbEntity
  8
0
  6
BYBLOCK
 62
0
100
AcDbPolyline
 90
3
 70
1
 10
-1.0
 20
0.16439898372402537
 10
0.0
 20
0.0
 10
-1.0
 20
-0.16439898372402537
  0
ENDBLK
  5
86
330
84
100
AcDbEntity
  8
0
100
AcDbBlockEnd
  0
BLOCK
  5
E1
330
E0
100
AcDbEntity
  8
0
100
AcDbBlockBegin
  2
*D1
 70
1
 10
0.0
 20
0.0
 30
0.0
  3
*D1
  1

  0
LINE
  5
E3
330
E0
100
AcDbEntity
  8
0
100
AcDbLine
 10
0.0
 20
-100.8
 30
0.0
 11
0.0
 21
-111.0
 31
0.0
  0
LINE
  5
E4
330
E0
100
AcDbEntity
  8
0
100
AcDbLine
 10
120.0
 20
-100.8
 30
0.0
 11
120.0
 21
-111.0
 31
0.0
  0
INSERT
  5
E5
330
E0
100
AcDbEntity
  8
DIMS
100
AcDbBlockReference
  2
_ARCHTICK
 10
0.0
 20
-110.0
 30
0.0
 41
1.5
 42
1.5
 50
180.0
  0
INSERT
  5
E7
330
E0
100
AcDbEntity
  8
DIMS
100
AcDbBlockReference
  2
_ARCHTICK
 10
120.0
 20
-110.0
 30
0.0
 41
1.5
 42
1.5
  0
LINE
  5
E9
330
E0
100
AcDbEntity
  8
0
100
AcDbLine
 10
0.0
 20
-110.0
 30
0.0
 11
120.0
 21
-110.0
 31
0.0
  0
MTEXT
  5
EA
330
E0
100
AcDbEntity
  8
DIMS
100
AcDbMText
 10
60.0
 20
-108.15
 30
0.0
 40
2.5
 71
5
  1
12000
  7
OpenSansCondensed-Light
  0
POINT
  5
EB
330
E0
100
AcDbEntity
  8
Defpoints
100
AcDbPoint
 10
0.0
 20
-110.0
 30
0.0
  0
POINT
  5
EC
330
E0
100
AcDbEntity
  8
Defpoints
100
AcDbPoint
 10
0.0
 20
-100.0
 30
0.0
  0
POINT
  5
ED
330
E0
100
AcDbEntity
  8
Defpoints
100
AcDbPoint
 10
120.0
 20
-100.0
 30
0.0
  0
ENDBLK
  5
E2
330
E0
100
AcDbEntity
  8
0
100
AcDbBlockEnd
  0
BLOCK
  5
F0
330
EF
100
AcDbEntity
  8
0
100
AcDbBlockBegin
  2
*D2
 70
1
 10
0.0
 20
0.0
 30
0.0
  3
*D2
  1

  0
LINE
  5
F2
330
EF
100
AcDbEntity
  8
0
100
AcDbLine
 10
-0.8
 20
-100.0
 30
0.0
 11
-13.0
 21
-100.0
 31
0.0
  0
LINE
  5
F3
330
EF
100
AcDbEntity
  8
0
100
AcDbLine
 10
-0.8
 20
-20.0
 30
0.0
 11
-13.0
 21
-20.0
 31
0.0
  0
INSERT
  5
F4
330
EF
100
AcDbEntity
  8
DIMS
100
AcDbBlockReference
  2
_ARCHTICK
 10
-12.0
 20
-100.0
 30
0.0
 41
1.5
 42
1.5
 50
270.0
  0
INSERT
  5
F6
330
EF
100
AcDbEntity
  8
DIMS
100
AcDbBlockReference
  2
_ARCHTICK
 10
-12.0
 20
-20.0
 30
0.0
 41
1.5
 42
1.5
 50
90.0
  0
LINE
  5
F8
330
EF
100
AcDbEntity
  8
0
100
AcDbLine
 10
-12.0
 20
-100.0
 30
0.0
 11
-12.0
 21
-20.0
 31
0.0
  0
MTEXT
  5
F9
330
EF
100
AcDbEntity
  8
DIMS
100
AcDbMText
 10
-13.85
 20
-60.0
 30
0.0
 40
2.5
 71
5
  1
8000
  7
OpenSansCondensed-Light
 50
90.0
  0
POINT
  5
FA
330
EF
100
AcDbEntity
  8
Defpoints
100
AcDbPoint
 10
-12.0
 20
-100.0
 30
0.0
  0
POINT
  5
FB
330
EF
100
AcDbEntity
  8
Defpoints
100
AcDbPoint
 10
0.0
 20
-100.0
 30
0.0
  0
POINT
  5
FC
330
EF
100
AcDbEntity
  8
Defpoints
100
AcDbPoint
 10
0.0
 20
-20.0
 30
0.0
  0
ENDBLK
  5
F1
330
EF
100
AcDbEntity
  8
0
100
AcDbBlockEnd
  0
BLOCK
  5
FF
330
FE
100
AcDbEntity
  8
0
100
AcDbBlockBegin
  2
*D3
 70
1
 10
0.0
 20
0.0
 30
0.0
  3
*D3
  1

  0
LINE
  5
101
330
FE
100
AcDbEntity
  8
0
100
AcDbLine
 10
25.0
 20
-37.2
 30
0.0
 11
25.0
 21
-11.0
 31
0.0
  0
LINE
  5
102
330
FE
100
AcDbEntity
  8
0
100
AcDbLine
 10
95.0
 20
-37.2
 30
0.0
 11
95.0
 21
-11.0
 31
0.0
  0
INSERT
  5
103
330
FE
100
AcDbEntity
  8
DIMS
100
AcDbBlockReference
  2
_ARCHTICK
 10
25.0
 20
-12.0
 30
0.0
 41
1.5
 42
1.5
 50
180.0
  0
INSERT
  5
105
330
FE
100
AcDbEntity
  8
DIMS
100
AcDbBlockReference
  2
_ARCHTICK
 10
95.0
 20
-12.0
 30
0.0
 41
1.5
 42
1.5
  0
LINE
  5
107
330
FE
100
AcDbEntity
  8
0
100
AcDbLine
 10
25.0
 20
-12.0
 30
0.0
 11
95.0
 21
-12.0
 31
0.0
  0
MTEXT
  5
108
330
FE
100
AcDbEntity
  8
DIMS
100
AcDbMText
 10
60.0
 20
-10.15
 30
0.0
 40
2.5
 71
5
  1
keyhole pitch 7000
  7
OpenSansCondensed-Light
  0
POINT
  5
109
330
FE
100
AcDbEntity
  8
Defpoints
100
AcDbPoint
 10
25.0
 20
-12.0
 30
0.0
  0
POINT
  5
10A
330
FE
100
AcDbEntity
  8
Defpoints
100
AcDbPoint
 10
25.0
 20
-38.0
 30
0.0
  0
POINT
  5
10B
330
FE
100
AcDbEntity
  8
Defpoints
100
AcDbPoint
 10
95.0
 20
-38.0
 30
0.0
  0
ENDBLK
  5
100
330
FE
100
AcDbEntity
  8
0
100
AcDbBlockEnd
  0
BLOCK
  5
10E
330
10D
100
AcDbEntity
  8
0
100
AcDbBlockBegin
  2
*D4
 70
1
 10
0.0
 20
0.0
 30
0.0
  3
*D4
  1

  0
LINE
  5
110
330
10D
100
AcDbEntity
  8
0
100
AcDbLine
 10
120.8
 20
-100.0
 30
0.0
 11
131.0
 21
-100.0
 31
0.0
  0
LINE
  5
111
330
10D
100
AcDbEntity
  8
0
100
AcDbLine
 10
120.8
 20
-38.0
 30
0.0
 11
131.0
 21
-38.0
 31
0.0
  0
INSERT
  5
112
330
10D
100
AcDbEntity
  8
DIMS
100
AcDbBlockReference
  2
_ARCHTICK
 10
130.0
 20
-100.0
 30
0.0
 41
1.5
 42
1.5
 50
270.0
  0
INSERT
  5
114
330
10D
100
AcDbEntity
  8
DIMS
100
AcDbBlockReference
  2
_ARCHTICK
 10
130.0
 20
-38.0
 30
0.0
 41
1.5
 42
1.5
 50
90.0
  0
LINE
  5
116
330
10D
100
AcDbEntity
  8
0
100
AcDbLine
 10
130.0
 20
-100.0
 30
0.0
 11
130.0
 21
-38.0
 31
0.0
  0
MTEXT
  5
117
330
10D
100
AcDbEntity
  8
DIMS
100
AcDbMText
 10
128.15
 20
-69.0
 30
0.0
 40
2.5
 71
5
  1
keyhole 6200
  7
OpenSansCondensed-Light
 50
90.0
  0
POINT
  5
118
330
10D
100
AcDbEntity
  8
Defpoints
100
AcDbPoint
 10
130.0
 20
-100.0
 30
0.0
  0
POINT
  5
119
330
10D
100
AcDbEntity
  8
Defpoints
100
AcDbPoint
 10
120.0
 20
-100.0
 30
0.0
  0
POINT
  5
11A
330
10D
100
AcDbEntity
  8
Defpoints
100
AcDbPoint
 10
120.0
 20
-38.0
 30
0.0
  0
ENDBLK
  5
10F
330
10D
100
AcDbEntity
  8
0
100
AcDbBlockEnd
  0
BLOCK
  5
11D
330
11C
100
AcDbEntity
  8
0
100
AcDbBlockBegin
  2
*D5
 70
1
 10
0.0
 20
0.0
 30
0.0
  3
*D5
  1

  0
LINE
  5
11F
330
11C
100
AcDbEntity
  8
0
100
AcDbLine
 10
120.8
 20
-100.0
 30
0.0
 11
141.0
 21
-100.0
 31
0.0
  0
LINE
  5
120
330
11C
100
AcDbEntity
  8
0
100
AcDbLine
 10
120.8
 20
-58.0
 30
0.0
 11
141.0
 21
-58.0
 31
0.0
  0
INSERT
  5
121
330
11C
100
AcDbEntity
  8
DIMS
100
AcDbBlockReference
  2
_ARCHTICK
 10
140.0
 20
-100.0
 30
0.0
 41
1.5
 42
1.5
 50
270.0
  0
INSERT
  5
123
330
11C
100
AcDbEntity
  8
DIMS
100
AcDbBlockReference
  2
_ARCHTICK
 10
140.0
 20
-58.0
 30
0.0
 41
1.5
 42
1.5
 50
90.0
  0
LINE
  5
125
330
11C
100
AcDbEntity
  8
0
100
AcDbLine
 10
140.0
 20
-100.0
 30
0.0
 11
140.0
 21
-58.0
 31
0.0
  0
MTEXT
  5
126
330
11C
100
AcDbEntity
  8
DIMS
100
AcDbMText
 10
137.15
 20
-79.0
 30
0.0
 40
2.5
 71
5
  1
board centre 4200
  7
OpenSansCondensed-Light
 50
90.0
  0
POINT
  5
127
330
11C
100
AcDbEntity
  8
Defpoints
100
AcDbPoint
 10
140.0
 20
-100.0
 30
0.0
  0
POINT
  5
128
330
11C
100
AcDbEntity
  8
Defpoints
100
AcDbPoint
 10
120.0
 20
-100.0
 30
0.0
  0
POINT
  5
129
330
11C
100
AcDbEntity
  8
Defpoints
100
AcDbPoint
 10
120.0
 20
-58.0
 30
0.0
  0
ENDBLK
  5
11E
330
11C
100
AcDbEntity
  8
0
100
AcDbBlockEnd
  0
BLOCK
  5
149
330
148
100
AcDbEntity
  8
0
100
AcDbBlockBegin
  2
*D6
 70
1
 10
0.0
 20
0.0
 30
0.0
  3
*D6
  1

  0
LINE
  5
14B
330
148
100
AcDbEntity
  8
0
100
AcDbLine
 10
-0.8
 20
-181.5
 30
0.0
 11
-9.0
 21
-181.5
 31
0.0
  0
LINE
  5
14C
330
148
100
AcDbEntity
  8
0
100
AcDbLine
 10
-0.8
 20
-174.5
 30
0.0
 11
-9.0
 21
-174.5
 31
0.0
  0
INSERT
  5
14D
330
148
100
AcDbEntity
  8
DIMS
100
AcDbBlockReference
  2
_ARCHTICK
 10
-8.0
 20
-181.5
 30
0.0
 41
1.5
 42
1.5
 50
270.0
  0
INSERT
  5
14F
330
148
100
AcDbEntity
  8
DIMS
100
AcDbBlockReference
  2
_ARCHTICK
 10
-8.0
 20
-174.5
 30
0.0
 41
1.5
 42
1.5
 50
90.0
  0
LINE
  5
151
330
148
100
AcDbEntity
  8
0
100
AcDbLine
 10
-8.0
 20
-181.5
 30
0.0
 11
-8.0
 21
-174.5
 31
0.0
  0
MTEXT
  5
152
330
148
100
AcDbEntity
  8
DIMS
100
AcDbMText
 10
-10.85
 20
-178.0
 30
0.0
 40
2.5
 71
5
  1
cable notch 700
  7
OpenSansCondensed-Light
 50
90.0
  0
POINT
  5
153
330
148
100
AcDbEntity
  8
Defpoints
100
AcDbPoint
 10
-8.0
 20
-181.5
 30
0.0
  0
POINT
  5
154
330
148
100
AcDbEntity
  8
Defpoints
100
AcDbPoint
 10
0.0
 20
-181.5
 30
0.0
  0
POINT
  5
155
330
148
100
AcDbEntity
  8
Defpoints
100
AcDbPoint
 10
0.0
 20
-174.5
 30
0.0
  0
ENDBLK
  5
14A
330
148
100
AcDbEntity
  8
0
100
AcDbBlockEnd
  0
BLOCK
  5
158
330
157
100
AcDbEntity
  8
0
100
AcDbBlockBegin
  2
*D7
 70
1
 10
0.0
 20
0.0
 30
0.0
  3
*D7
  1

  0
LINE
  5
15A
330
157
100
AcDbEntity
  8
0
100
AcDbLine
 10
0.0
 20
-161.2
 30
0.0
 11
0.0
 21
-153.0
 31
0.0
  0
LINE
  5
15B
330
157
100
AcDbEntity
  8
0
100
AcDbLine
 10
45.0
 20
-161.2
 30
0.0
 11
45.0
 21
-153.0
 31
0.0
  0
INSERT
  5
15C
330
157
100
AcDbEntity
  8
DIMS
100
AcDbBlockReference
  2
_ARCHTICK
 10
0.0
 20
-154.0
 30
0.0
 41
1.5
 42
1.5
 50
180.0
  0
INSERT
  5
15E
330
157
100
AcDbEntity
  8
DIMS
100
AcDbBlockReference
  2
_ARCHTICK
 10
45.0
 20
-154.0
 30
0.0
 41
1.5
 42
1.5
  0
LINE
  5
160
330
157
100
AcDbEntity
  8
0
100
AcDbLine
 10
0.0
 20
-154.0
 30
0.0
 11
45.0
 21
-154.0
 31
0.0
  0
MTEXT
  5
161
330
157
100
AcDbEntity
  8
DIMS
100
AcDbMText
 10
22.5
 20
-152.15
 30
0.0
 40
2.5
 71
5
  1
plug space 4500
  7
OpenSansCondensed-Light
  0
POINT
  5
162
330
157
100
AcDbEntity
  8
Defpoints
100
AcDbPoint
 10
0.0
 20
-154.0
 30
0.0
  0
POINT
  5
163
330
157
100
AcDbEntity
  8
Defpoints
100
AcDbPoint
 10
0.0
 20
-162.0
 30
0.0
  0
POINT
  5
164
330
157
100
AcDbEntity
  8
Defpoints
100
AcDbPoint
 10
45.0
 20
-162.0
 30
0.0
  0
ENDBLK
  5
159
330
157
100
AcDbEntity
  8
0
100
AcDbBlockEnd
  0
BLOCK
  5
17C
330
17B
100
AcDbEntity
  8
0
100
AcDbBlockBegin
  2
*D8
 70
1
 10
0.0
 20
0.0
 30
0.0
  3
*D8
  1

  0
LINE
  5
17E
330
17B
100
AcDbEntity
  8
0
100
AcDbLine
 10
120.8
 20
-330.0
 30
0.0
 11
131.0
 21
-330.0
 31
0.0
  0
LINE
  5
17F
330
17B
100
AcDbEntity
  8
0
100
AcDbLine
 10
120.8
 20
-300.0
 30
0.0
 11
131.0
 21
-300.0
 31
0.0
  0
INSERT
  5
180
330
17B
100
AcDbEntity
  8
DIMS
100
AcDbBlockReference
  2
_ARCHTICK
 10
130.0
 20
-330.0
 30
0.0
 41
1.5
 42
1.5
 50
270.0
  0
INSERT
  5
182
330
17B
100
AcDbEntity
  8
DIMS
100
AcDbBlockReference
  2
_ARCHTICK
 10
130.0
 20
-300.0
 30
0.0
 41
1.5
 42
1.5
 50
90.0
  0
LINE
  5
184
330
17B
100
AcDbEntity
  8
0
100
AcDbLine
 10
130.0
 20
-330.0
 30
0.0
 11
130.0
 21
-300.0
 31
0.0
  0
MTEXT
  5
185
330
17B
100
AcDbEntity
  8
DIMS
100
AcDbMText
 10
128.15
 20
-315.0
 30
0.0
 40
2.5
 71
5
  1
depth 3000
  7
OpenSansCondensed-Light
 50
90.0
  0
POINT
  5
186
330
17B
100
AcDbEntity
  8
Defpoints
100
AcDbPoint
 10
130.0
 20
-330.0
 30
0.0
  0
POINT
  5
187
330
17B
100
AcDbEntity
  8
Defpoints
100
AcDbPoint
 10
120.0
 20
-330.0
 30
0.0
  0
POINT
  5
188
330
17B
100
AcDbEntity
  8
Defpoints
100
AcDbPoint
 10
120.0
 20
-300.0
 30
0.0
  0
ENDBLK
  5
17D
330
17B
100
AcDbEntity
  8
0
100
AcDbBlockEnd
  0
BLOCK
  5
18B
330
18A
100
AcDbEntity
  8
0
100
AcDbBlockBegin
  2
*D9
 70
1
 10
0.0
 20
0.0
 30
0.0
  3
*D9
  1

  0
LINE
  5
18D
330
18A
100
AcDbEntity
  8
0
100
AcDbLine
 10
-1.8
 20
-307.5
 30
0.0
 11
-13.0
 21
-307.5
 31
0.0
  0
LINE
  5
18E
330
18A
100
AcDbEntity
  8
0
100
AcDbLine
 10
-1.8
 20
-300.0
 30
0.0
 11
-13.0
 21
-300.0
 31
0.0
  0
INSERT
  5
18F
330
18A
100
AcDbEntity
  8
DIMS
100
AcDbBlockReference
  2
_ARCHTICK
 10
-12.0
 20
-307.5
 30
0.0
 41
1.5
 42
1.5
 50
270.0
  0
INSERT
  5
191
330
18A
100
AcDbEntity
  8
DIMS
100
AcDbBlockReference
  2
_ARCHTICK
 10
-12.0
 20
-300.0
 30
0.0
 41
1.5
 42
1.5
 50
90.0
  0
LINE
  5
193
330
18A
100
AcDbEntity
  8
0
100
AcDbLine
 10
-12.0
 20
-307.5
 30
0.0
 11
-12.0
 21
-300.0
 31
0.0
  0
MTEXT
  5
194
330
18A
100
AcDbEntity
  8
DIMS
100
AcDbMText
 10
-14.85
 20
-303.75
 30
0.0
 40
2.5
 71
5
  1
PCB top 750
  7
OpenSansCondensed-Light
 50
90.0
  0
POINT
  5
195
330
18A
100
AcDbEntity
  8
Defpoints
100
AcDbPoint
 10
-12.0
 20
-307.5
 30
0.0
  0
POINT
  5
196
330
18A
100
AcDbEntity
  8
Defpoints
100
AcDbPoint
 10
-1.0
 20
-307.5
 30
0.0
  0
POINT
  5
197
330
18A
100
AcDbEntity
  8
Defpoints
100
AcDbPoint
 10
-1.0
 20
-300.0
 30
0.0
  0
ENDBLK
  5
18C
330
18A
100
AcDbEntity
  8
0
100
AcDbBlockEnd
  0
BLOCK
  5
1AD
330
1AC
100
AcDbEntity
  8
0
100
AcDbBlockBegin
  2
*D10
 70
1
 10
0.0
 20
0.0
 30
0.0
  3
*D10
  1

  0
LINE
  5
1AF
330
1AC
100
AcDbEntity
  8
0
100
AcDbLine
 10
0.0
 20
-380.8
 30
0.0
 11
0.0
 21
-389.0
 31
0.0
  0
LINE
  5
1B0
330
1AC
100
AcDbEntity
  8
0
100
AcDbLine
 10
104.0
 20
-380.8
 30
0.0
 11
104.0
 21
-389.0
 31
0.0
  0
INSERT
  5
1B1
330
1AC
100
AcDbEntity
  8
DIMS
100
AcDbBlockReference
  2
_ARCHTICK
 10
0.0
 20
-388.0
 30
0.0
 41
1.5
 42
1.5
 50
180.0
  0
INSERT
  5
1B3
330
1AC
100
AcDbEntity
  8
DIMS
100
AcDbBlockReference
  2
_ARCHTICK
 10
104.0
 20
-388.0
 30
0.0
 41
1.5
 42
1.5
  0
LINE
  5
1B5
330
1AC
100
AcDbEntity
  8
0
100
AcDbLine
 10
0.0
 20
-388.0
 30
0.0
 11
104.0
 21
-388.0
 31
0.0
  0
MTEXT
  5
1B6
330
1AC
100
AcDbEntity
  8
DIMS
100
AcDbMText
 10
52.0
 20
-386.15
 30
0.0
 40
2.5
 71
5
  1
SMA 10400
  7
OpenSansCondensed-Light
  0
POINT
  5
1B7
330
1AC
100
AcDbEntity
  8
Defpoints
100
AcDbPoint
 10
0.0
 20
-388.0
 30
0.0
  0
POINT
  5
1B8
330
1AC
100
AcDbEntity
  8
Defpoints
100
AcDbPoint
 10
0.0
 20
-380.0
 30
0.0
  0
POINT
  5
1B9
330
1AC
100
AcDbEntity
  8
Defpoints
100
AcDbPoint
 10
104.0
 20
-380.0
 30
0.0
  0
ENDBLK
  5
1AE
330
1AC
100
AcDbEntity
  8
0
100
AcDbBlockEnd
  0
BLOCK
  5
1BC
330
1BB
100
AcDbEntity
  8
0
100
AcDbBlockBegin
  2
*D11
 70
1
 10
0.0
 20
0.0
 30
0.0
  3
*D11
  1

  0
LINE
  5
1BE
330
1BB
100
AcDbEntity
  8
0
100
AcDbLine
 10
120.8
 20
-380.0
 30
0.0
 11
131.0
 21
-380.0
 31
0.0
  0
LINE
  5
1BF
330
1BB
100
AcDbEntity
  8
0
100
AcDbLine
 10
120.8
 20
-365.0
 30
0.0
 11
131.0
 21
-365.0
 31
0.0
  0
INSERT
  5
1C0
330
1BB
100
AcDbEntity
  8
DIMS
100
AcDbBlockReference
  2
_ARCHTICK
 10
130.0
 20
-380.0
 30
0.0
 41
1.5
 42
1.5
 50
270.0
  0
INSERT
  5
1C2
330
1BB
100
AcDbEntity
  8
DIMS
100
AcDbBlockReference
  2
_ARCHTICK
 10
130.0
 20
-365.0
 30
0.0
 41
1.5
 42
1.5
 50
90.0
  0
LINE
  5
1C4
330
1BB
100
AcDbEntity
  8
0
100
AcDbLine
 10
130.0
 20
-380.0
 30
0.0
 11
130.0
 21
-365.0
 31
0.0
  0
MTEXT
  5
1C5
330
1BB
100
AcDbEntity
  8
DIMS
100
AcDbMText
 10
127.15
 20
-372.5
 30
0.0
 40
2.5
 71
5
  1
SMA 1500
  7
OpenSansCondensed-Light
 50
90.0
  0
POINT
  5
1C6
330
1BB
100
AcDbEntity
  8
Defpoints
100
AcDbPoint
 10
130.0
 20
-380.0
 30
0.0
  0
POINT
  5
1C7
330
1BB
100
AcDbEntity
  8
Defpoints
100
AcDbPoint
 10
120.0
 20
-380.0
 30
0.0
  0
POINT
  5
1C8
330
1BB
100
AcDbEntity
  8
Defpoints
100
AcDbPoint
 10
120.0
 20
-365.0
 30
0.0
  0
ENDBLK
  5
1BD
330
1BB
100
AcDbEntity
  8
0
100
AcDbBlockEnd
  0
BLOCK
  5
1F0
330
1EF
100
AcDbEntity
  8
0
100
AcDbBlockBegin
  2
*D12
 70
1
 10
0.0
 20
0.0
 30
0.0
  3
*D12
  1

  0
LINE
  5
1F2
330
1EF
100
AcDbEntity
  8
0
100
AcDbLine
 10
230.0
 20
-100.8
 30
0.0
 11
230.0
 21
-109.0
 31
0.0
  0
LINE
  5
1F3
330
1EF
100
AcDbEntity
  8
0
100
AcDbLine
 10
260.0
 20
-100.8
 30
0.0
 11
260.0
 21
-109.0
 31
0.0
  0
INSERT
  5
1F4
330
1EF
100
AcDbEntity
  8
DIMS
100
AcDbBlockReference
  2
_ARCHTICK
 10
230.0
 20
-108.0
 30
0.0
 41
1.5
 42
1.5
 50
180.0
  0
INSERT
  5
1F6
330
1EF
100
AcDbEntity
  8
DIMS
100
AcDbBlockReference
  2
_ARCHTICK
 10
260.0
 20
-108.0
 30
0.0
 41
1.5
 42
1.5
  0
LINE
  5
1F8
330
1EF
100
AcDbEntity
  8
0
100
AcDbLine
 10
230.0
 20
-108.0
 30
0.0
 11
260.0
 21
-108.0
 31
0.0
  0
MTEXT
  5
1F9
330
1EF
100
AcDbEntity
  8
DIMS
100
AcDbMText
 10
245.0
 20
-106.15
 30
0.0
 40
2.5
 71
5
  1
depth 3000
  7
OpenSansCondensed-Light
  0
POINT
  5
1FA
330
1EF
100
AcDbEntity
  8
Defpoints
100
AcDbPoint
 10
230.0
 20
-108.0
 30
0.0
  0
POINT
  5
1FB
330
1EF
100
AcDbEntity
  8
Defpoints
100
AcDbPoint
 10
230.0
 20
-100.0
 30
0.0
  0
POINT
  5
1FC
330
1EF
100
AcDbEntity
  8
Defpoints
100
AcDbPoint
 10
260.0
 20
-100.0
 30
0.0
  0
ENDBLK
  5
1F1
330
1EF
100
AcDbEntity
  8
0
100
AcDbBlockEnd
  0
BLOCK
  5
1FF
330
1FE
100
AcDbEntity
  8
0
100
AcDbBlockBegin
  2
*D13
 70
1
 10
0.0
 20
0.0
 30
0.0
  3
*D13
  1

  0
LINE
  5
201
330
1FE
100
AcDbEntity
  8
0
100
AcDbLine
 10
262.8
 20
-100.0
 30
0.0
 11
269.0
 21
-100.0
 31
0.0
  0
LINE
  5
202
330
1FE
100
AcDbEntity
  8
0
100
AcDbLine
 10
262.8
 20
-20.0
 30
0.0
 11
269.0
 21
-20.0
 31
0.0
  0
INSERT
  5
203
330
1FE
100
AcDbEntity
  8
DIMS
100
AcDbBlockReference
  2
_ARCHTICK
 10
268.0
 20
-100.0
 30
0.0
 41
1.5
 42
1.5
 50
270.0
  0
INSERT
  5
205
330
1FE
100
AcDbEntity
  8
DIMS
100
AcDbBlockReference
  2
_ARCHTICK
 10
268.0
 20
-20.0
 30
0.0
 41
1.5
 42
1.5
 50
90.0
  0
LINE
  5
207
330
1FE
100
AcDbEntity
  8
0
100
AcDbLine
 10
268.0
 20
-100.0
 30
0.0
 11
268.0
 21
-20.0
 31
0.0
  0
MTEXT
  5
208
330
1FE
100
AcDbEntity
  8
DIMS
100
AcDbMText
 10
266.15
 20
-60.0
 30
0.0
 40
2.5
 71
5
  1
8000
  7
OpenSansCondensed-Light
 50
90.0
  0
POINT
  5
209
330
1FE
100
AcDbEntity
  8
Defpoints
100
AcDbPoint
 10
268.0
 20
-100.0
 30
0.0
  0
POINT
  5
20A
330
1FE
100
AcDbEntity
  8
Defpoints
100
AcDbPoint
 10
262.0
 20
-100.0
 30
0.0
  0
POINT
  5
20B
330
1FE
100
AcDbEntity
  8
Defpoints
100
AcDbPoint
 10
262.0
 20
-20.0
 30
0.0
  0
ENDBLK
  5
200
330
1FE
100
AcDbEntity
  8
0
100
AcDbBlockEnd
  0
ENDSEC
  0
SECTION
  2
ENTITIES
  0
TEXT
  5
8F
330
17
100
AcDbEntity
  8
TEXT
100
AcDbText
 10
0.0
 20
0.0
 30
0.0
 40
5.0
  1
HazardLink gateway body v9 (mm)
 11
0.0
 21
0.0
 31
0.0
100
AcDbText
  0
LINE
  5
90
330
17
100
AcDbEntity
  8
OUTLINE
100
AcDbLine
 10
56.0
 20
-22.5
 30
0.0
 11
56.0
 21
-20.0
 31
0.0
  0
LINE
  5
91
330
17
100
AcDbEntity
  8
OUTLINE
100
AcDbLine
 10
16.0
 20
-22.5
 30
0.0
 11
56.0
 21
-22.5
 31
0.0
  0
LINE
  5
92
330
17
100
AcDbEntity
  8
OUTLINE
100
AcDbLine
 10
16.0
 20
-20.0
 30
0.0
 11
16.0
 21
-22.5
 31
0.0
  0
LINE
  5
93
330
17
100
AcDbEntity
  8
OUTLINE
100
AcDbLine
 10
56.0
 20
-20.0
 30
0.0
 11
16.0
 21
-20.0
 31
0.0
  0
LINE
  5
94
330
17
100
AcDbEntity
  8
OUTLINE
100
AcDbLine
 10
5.0
 20
-22.5
 30
0.0
 11
16.0
 21
-22.5
 31
0.0
  0
LWPOLYLINE
  5
95
330
17
100
AcDbEntity
  8
OUTLINE
100
AcDbPolyline
 90
37
 70
0
 10
2.5
 20
-25.0
 10
2.5023794460453557
 20
-24.890951531586666
 10
2.5095132547706362
 20
-24.78211064313085
 10
2.521387846565474
 20
-24.673684519449864
 10
2.53798061746948
 20
-24.56587955583268
 10
2.5592599822001665
 20
-24.45890096515474
 10
2.5851854342773293
 20
-24.352952387243704
 10
2.6157076231294325
 20
-24.24823550123932
 10
2.6507684480352287
 20
-24.144949641685827
 10
2.690301168721783
 20
-24.043291419087282
 10
2.7342305324083753
 20
-23.94345434564825
 10
2.7824729170544455
 20
-23.845628466912416
 10
2.834936490538903
 20
-23.75
 10
2.8915213854677857
 20
-23.656750979132937
 10
2.9521198892775207
 20
-23.56605890912239
 10
3.016616649271912
 20
-23.478096427478192
 10
3.084888892202555
 20
-23.393030975783645
 10
3.15680665797469
 20
-23.311024480960853
 10
3.232233047033631
 20
-23.23223304703363
 10
3.3110244809608496
 20
-23.156806657974684
 10
3.3930309757836516
 20
-23.084888892202557
 10
3.4780964274781985
 20
-23.01661664927191
 10
3.566058909122385
 20
-22.952119889277526
 10
3.6567509791329402
 20
-22.891521385467783
 10
3.75
 20
-22.834936490538908
 10
3.845628466912415
 20
-22.78247291705445
 10
3.9434543456482514
 20
-22.734230532408375
 10
4.043291419087275
 20
-22.69030116872179
 10
4.144949641685828
 20
-22.650768448035222
 10
4.248235501239317
 20
-22.61570762312944
 10
4.352952387243699
 20
-22.585185434277335
 10
4.458900965154743
 20
-22.55925998220016
 10
4.565879555832673
 20
-22.537980617469486
 10
4.67368451944987
 20
-22.521387846565474
 10
4.782110643130854
 20
-22.50951325477064
 10
4.89095153158666
 20
-22.502379446045353
 10
5.0
 20
-22.5
  0
LINE
  5
96
330
17
100
AcDbEntity
  8
OUTLINE
100
AcDbLine
 10
2.5
 20
-95.0
 30
0.0
 11
2.5
 21
-25.0
 31
0.0
  0
LWPOLYLINE
  5
97
330
17
100
AcDbEntity
  8
OUTLINE
100
AcDbPolyline
 90
37
 70
0
 10
5.000000000000001
 20
-97.5
 10
4.89095153158666
 20
-97.49762055395465
 10
4.7821106431308555
 20
-97.49048674522936
 10
4.673684519449872
 20
-97.47861215343453
 10
4.565879555832675
 20
-97.46201938253051
 10
4.4589009651547435
 20
-97.44074001779984
 10
4.3529523872436995
 20
-97.41481456572266
 10
4.248235501239319
 20
-97.38429237687056
 10
4.144949641685829
 20
-97.34923155196478
 10
4.043291419087275
 20
-97.30969883127821
 10
3.943454345648251
 20
-97.26576946759162
 10
3.845628466912415
 20
-97.21752708294555
 10
3.75
 20
-97.16506350946109
 10
3.6567509791329402
 20
-97.10847861453222
 10
3.566058909122385
 20
-97.04788011072247
 10
3.4780964274781985
 20
-96.98338335072809
 10
3.3930309757836516
 20
-96.91511110779744
 10
3.3110244809608496
 20
-96.84319334202532
 10
3.2322330470336316
 20
-96.76776695296637
 10
3.1568066579746903
 20
-96.68897551903915
 10
3.0848888922025557
 20
-96.60696902421635
 10
3.0166166492719126
 20
-96.52190357252181
 10
2.952119889277521
 20
-96.43394109087761
 10
2.891521385467786
 20
-96.34324902086706
 10
2.834936490538904
 20
-96.25
 10
2.7824729170544464
 20
-96.15437153308758
 10
2.734230532408375
 20
-96.05654565435175
 10
2.690301168721784
 20
-95.95670858091273
 10
2.6507684480352287
 20
-95.85505035831417
 10
2.6157076231294334
 20
-95.75176449876068
 10
2.5851854342773293
 20
-95.6470476127563
 10
2.5592599822001665
 20
-95.54109903484526
 10
2.53798061746948
 20
-95.43412044416732
 10
2.521387846565474
 20
-95.32631548055014
 10
2.5095132547706362
 20
-95.21788935686915
 10
2.5023794460453557
 20
-95.10904846841333
 10
2.5
 20
-95.0
  0
LINE
  5
98
330
17
100
AcDbEntity
  8
OUTLINE
100
AcDbLine
 10
115.0
 20
-97.5
 30
0.0
 11
5.0
 21
-97.5
 31
0.0
  0
LWPOLYLINE
  5
99
330
17
100
AcDbEntity
  8
OUTLINE
100
AcDbPolyline
 90
37
 70
0
 10
117.5
 20
-95.0
 10
117.49762055395465
 20
-95.10904846841333
 10
117.49048674522936
 20
-95.21788935686915
 10
117.47861215343453
 20
-95.32631548055014
 10
117.46201938253051
 20
-95.43412044416732
 10
117.44074001779984
 20
-95.54109903484526
 10
117.41481456572266
 20
-95.6470476127563
 10
117.38429237687056
 20
-95.75176449876068
 10
117.34923155196478
 20
-95.85505035831417
 10
117.30969883127821
 20
-95.95670858091273
 10
117.26576946759162
 20
-96.05654565435175
 10
117.21752708294555
 20
-96.15437153308758
 10
117.16506350946109
 20
-96.25
 10
117.10847861453222
 20
-96.34324902086706
 10
117.04788011072247
 20
-96.43394109087761
 10
116.98338335072809
 20
-96.52190357252181
 10
116.91511110779744
 20
-96.60696902421635
 10
116.84319334202532
 20
-96.68897551903915
 10
116.76776695296637
 20
-96.76776695296637
 10
116.68897551903915
 20
-96.84319334202532
 10
116.60696902421635
 20
-96.91511110779744
 10
116.52190357252181
 20
-96.98338335072809
 10
116.43394109087761
 20
-97.04788011072247
 10
116.34324902086706
 20
-97.10847861453222
 10
116.25
 20
-97.16506350946109
 10
116.15437153308758
 20
-97.21752708294555
 10
116.05654565435175
 20
-97.26576946759162
 10
115.95670858091272
 20
-97.30969883127821
 10
115.85505035831417
 20
-97.34923155196478
 10
115.75176449876068
 20
-97.38429237687056
 10
115.6470476127563
 20
-97.41481456572266
 10
115.54109903484526
 20
-97.44074001779984
 10
115.43412044416732
 20
-97.46201938253051
 10
115.32631548055014
 20
-97.47861215343453
 10
115.21788935686915
 20
-97.49048674522936
 10
115.10904846841333
 20
-97.49762055395465
 10
115.0
 20
-97.5
  0
LINE
  5
9A
330
17
100
AcDbEntity
  8
OUTLINE
100
AcDbLine
 10
117.5
 20
-25.0
 30
0.0
 11
117.5
 21
-95.0
 31
0.0
  0
LWPOLYLINE
  5
9B
330
17
100
AcDbEntity
  8
OUTLINE
100
AcDbPolyline
 90
37
 70
0
 10
115.0
 20
-22.5
 10
115.10904846841333
 20
-22.502379446045353
 10
115.21788935686915
 20
-22.50951325477064
 10
115.32631548055012
 20
-22.521387846565474
 10
115.43412044416732
 20
-22.537980617469486
 10
115.54109903484526
 20
-22.55925998220016
 10
115.6470476127563
 20
-22.585185434277335
 10
115.75176449876068
 20
-22.61570762312944
 10
115.85505035831417
 20
-22.650768448035222
 10
115.95670858091273
 20
-22.69030116872179
 10
116.05654565435175
 20
-22.734230532408375
 10
116.15437153308758
 20
-22.78247291705445
 10
116.25
 20
-22.834936490538908
 10
116.34324902086706
 20
-22.891521385467783
 10
116.43394109087761
 20
-22.952119889277526
 10
116.52190357252181
 20
-23.01661664927191
 10
116.60696902421635
 20
-23.084888892202557
 10
116.68897551903915
 20
-23.156806657974684
 10
116.76776695296637
 20
-23.23223304703363
 10
116.84319334202532
 20
-23.311024480960853
 10
116.91511110779744
 20
-23.393030975783645
 10
116.98338335072809
 20
-23.478096427478192
 10
117.04788011072247
 20
-23.56605890912239
 10
117.10847861453222
 20
-23.656750979132937
 10
117.16506350946109
 20
-23.75
 10
117.21752708294555
 20
-23.845628466912416
 10
117.26576946759162
 20
-23.94345434564825
 10
117.30969883127821
 20
-24.043291419087268
 10
117.34923155196478
 20
-24.144949641685827
 10
117.38429237687056
 20
-24.24823550123932
 10
117.41481456572266
 20
-24.352952387243704
 10
117.44074001779984
 20
-24.45890096515474
 10
117.46201938253051
 20
-24.56587955583268
 10
117.47861215343453
 20
-24.673684519449864
 10
117.49048674522936
 20
-24.78211064313085
 10
117.49762055395465
 20
-24.890951531586666
 10
117.5
 20
-25.0
  0
LINE
  5
9C
330
17
100
AcDbEntity
  8
OUTLINE
100
AcDbLine
 10
95.0
 20
-22.5
 30
0.0
 11
115.0
 21
-22.5
 31
0.0
  0
LINE
  5
9D
330
17
100
AcDbEntity
  8
OUTLINE
100
AcDbLine
 10
95.0
 20
-24.5
 30
0.0
 11
95.0
 21
-22.5
 31
0.0
  0
LINE
  5
9E
330
17
100
AcDbEntity
  8
OUTLINE
100
AcDbLine
 10
77.0
 20
-24.5
 30
0.0
 11
95.0
 21
-24.5
 31
0.0
  0
LINE
  5
9F
330
17
100
AcDbEntity
  8
OUTLINE
100
AcDbLine
 10
77.0
 20
-22.5
 30
0.0
 11
77.0
 21
-24.5
 31
0.0
  0
LINE
  5
A0
330
17
100
AcDbEntity
  8
OUTLINE
100
AcDbLine
 10
75.0
 20
-22.5
 30
0.0
 11
77.0
 21
-22.5
 31
0.0
  0
LINE
  5
A1
330
17
100
AcDbEntity
  8
OUTLINE
100
AcDbLine
 10
75.0
 20
-24.5
 30
0.0
 11
75.0
 21
-22.5
 31
0.0
  0
LINE
  5
A2
330
17
100
AcDbEntity
  8
OUTLINE
100
AcDbLine
 10
57.0
 20
-24.5
 30
0.0
 11
75.0
 21
-24.5
 31
0.0
  0
LINE
  5
A3
330
17
100
AcDbEntity
  8
OUTLINE
100
AcDbLine
 10
57.0
 20
-22.5
 30
0.0
 11
57.0
 21
-24.5
 31
0.0
  0
LINE
  5
A4
330
17
100
AcDbEntity
  8
OUTLINE
100
AcDbLine
 10
56.0
 20
-22.5
 30
0.0
 11
57.0
 21
-22.5
 31
0.0
  0
LINE
  5
A5
330
17
100
AcDbEntity
  8
OUTLINE
100
AcDbLine
 10
115.0
 20
-20.0
 30
0.0
 11
56.0
 21
-20.0
 31
0.0
  0
LWPOLYLINE
  5
A6
330
17
100
AcDbEntity
  8
OUTLINE
100
AcDbPolyline
 90
37
 70
0
 10
115.0
 20
-20.0
 10
115.21809693682668
 20
-20.004758892090706
 10
115.43577871373829
 20
-20.019026509541277
 10
115.65263096110026
 20
-20.04277569313095
 10
115.86824088833465
 20
-20.07596123493896
 10
116.0821980696905
 20
-20.118519964400335
 10
116.2940952255126
 20
-20.170370868554656
 10
116.50352899752136
 20
-20.231415246258862
 10
116.71010071662835
 20
-20.30153689607046
 10
116.91341716182545
 20
-20.380602337443563
 10
117.1130913087035
 20
-20.46846106481675
 10
117.30874306617517
 20
-20.564945834108897
 10
117.5
 20
-20.669872981077802
 10
117.68649804173413
 20
-20.783042770935566
 10
117.86788218175523
 20
-20.904239778555038
 10
118.0438071450436
 20
-21.03323329854382
 10
118.2139380484327
 20
-21.169777784405113
 10
118.3779510380783
 20
-21.313613315949382
 10
118.53553390593274
 20
-21.464466094067262
 10
118.68638668405062
 20
-21.622048961921692
 10
118.83022221559489
 20
-21.786061951567305
 10
118.96676670145618
 20
-21.9561928549564
 10
119.09576022144496
 20
-22.132117818244765
 10
119.21695722906443
 20
-22.313501958265874
 10
119.3301270189222
 20
-22.5
 10
119.4350541658911
 20
-22.69125693382483
 10
119.53153893518325
 20
-22.886908691296497
 10
119.61939766255644
 20
-23.08658283817455
 10
119.69846310392954
 20
-23.289899283371653
 10
119.76858475374114
 20
-23.49647100247863
 10
119.82962913144534
 20
-23.705904774487394
 10
119.88148003559967
 20
-23.91780193030948
 10
119.92403876506104
 20
-24.131759111665346
 10
119.95722430686905
 20
-24.347369038899743
 10
119.98097349045872
 20
-24.564221286261713
 10
119.9952411079093
 20
-24.781903063173317
 10
120.0
 20
-25.0
  0
LINE
  5
A7
330
17
100
AcDbEntity
  8
OUTLINE
100
AcDbLine
 10
120.0
 20
-95.0
 30
0.0
 11
120.0
 21
-25.0
 31
0.0
  0
LWPOLYLINE
  5
A8
330
17
100
AcDbEntity
  8
OUTLINE
100
AcDbPolyline
 90
37
 70
0
 10
120.0
 20
-95.0
 10
119.9952411079093
 20
-95.21809693682668
 10
119.98097349045872
 20
-95.43577871373829
 10
119.95722430686905
 20
-95.65263096110026
 10
119.92403876506104
 20
-95.86824088833465
 10
119.88148003559967
 20
-96.08219806969052
 10
119.82962913144534
 20
-96.2940952255126
 10
119.76858475374114
 20
-96.50352899752137
 10
119.69846310392954
 20
-96.71010071662835
 10
119.61939766255644
 20
-96.91341716182545
 10
119.53153893518325
 20
-97.1130913087035
 10
119.4350541658911
 20
-97.30874306617517
 10
119.3301270189222
 20
-97.5
 10
119.21695722906443
 20
-97.68649804173413
 10
119.09576022144496
 20
-97.86788218175523
 10
118.96676670145618
 20
-98.0438071450436
 10
118.83022221559489
 20
-98.2139380484327
 10
118.68638668405062
 20
-98.37795103807831
 10
118.53553390593274
 20
-98.53553390593274
 10
118.37795103807831
 20
-98.68638668405062
 10
118.2139380484327
 20
-98.83022221559489
 10
118.0438071450436
 20
-98.96676670145618
 10
117.86788218175523
 20
-99.09576022144496
 10
117.68649804173413
 20
-99.21695722906443
 10
117.5
 20
-99.3301270189222
 10
117.30874306617517
 20
-99.4350541658911
 10
117.1130913087035
 20
-99.53153893518325
 10
116.91341716182545
 20
-99.61939766255644
 10
116.71010071662835
 20
-99.69846310392954
 10
116.50352899752137
 20
-99.76858475374114
 10
116.2940952255126
 20
-99.82962913144534
 10
116.08219806969052
 20
-99.88148003559967
 10
115.86824088833465
 20
-99.92403876506104
 10
115.65263096110026
 20
-99.95722430686905
 10
115.43577871373829
 20
-99.98097349045872
 10
115.21809693682668
 20
-99.9952411079093
 10
115.0
 20
-100.0
  0
LINE
  5
A9
330
17
100
AcDbEntity
  8
OUTLINE
100
AcDbLine
 10
4.999999999999999
 20
-100.0
 30
0.0
 11
115.0
 21
-100.0
 31
0.0
  0
LWPOLYLINE
  5
AA
330
17
100
AcDbEntity
  8
OUTLINE
100
AcDbPolyline
 90
37
 70
0
 10
5.0
 20
-100.0
 10
4.781903063173321
 20
-99.9952411079093
 10
4.564221286261709
 20
-99.98097349045872
 10
4.347369038899743
 20
-99.95722430686905
 10
4.13175911166535
 20
-99.92403876506104
 10
3.917801930309487
 20
-99.88148003559967
 10
3.7059047744873976
 20
-99.82962913144534
 10
3.496471002478636
 20
-99.76858475374114
 10
3.2898992833716583
 20
-99.69846310392954
 10
3.0865828381745493
 20
-99.61939766255644
 10
2.886908691296501
 20
-99.53153893518325
 10
2.6912569338248287
 20
-99.4350541658911
 10
2.4999999999999987
 20
-99.3301270189222
 10
2.3135019582658796
 20
-99.21695722906443
 10
2.132117818244769
 20
-99.09576022144496
 10
1.956192854956396
 20
-98.96676670145618
 10
1.7860619515673029
 20
-98.83022221559489
 10
1.6220489619216982
 20
-98.68638668405062
 10
1.4644660940672622
 20
-98.53553390593274
 10
1.3136133159493797
 20
-98.37795103807831
 10
1.16977778440511
 20
-98.2139380484327
 10
1.0332332985438244
 20
-98.0438071450436
 10
0.9042397785550413
 20
-97.86788218175523
 10
0.7830427709355714
 20
-97.68649804173413
 10
0.6698729810778072
 20
-97.5
 10
0.564945834108892
 20
-97.30874306617517
 10
0.4684610648167489
 20
-97.1130913087035
 10
0.380602337443567
 20
-96.91341716182545
 10
0.30153689607045653
 20
-96.71010071662835
 10
0.2314152462588659
 20
-96.50352899752137
 10
0.17037086855465766
 20
-96.2940952255126
 10
0.11851996440033208
 20
-96.08219806969052
 10
0.07596123493895934
 20
-95.86824088833465
 10
0.04277569313094709
 20
-95.65263096110026
 10
0.019026509541271608
 20
-95.43577871373829
 10
0.004758892090710454
 20
-95.21809693682668
 10
-8.881784197001252e-16
 20
-95.0
  0
LINE
  5
AB
330
17
100
AcDbEntity
  8
OUTLINE
100
AcDbLine
 10
-8.881784197001252e-16
 20
-25.0
 30
0.0
 11
-8.881784197001252e-16
 21
-95.0
 31
0.0
  0
LWPOLYLINE
  5
AC
330
17
100
AcDbEntity
  8
OUTLINE
100
AcDbPolyline
 90
37
 70
0
 10
-8.881784197001252e-16
 20
-25.0
 10
0.004758892090710454
 20
-24.781903063173317
 10
0.019026509541271608
 20
-24.564221286261713
 10
0.04277569313094709
 20
-24.347369038899743
 10
0.07596123493895934
 20
-24.131759111665346
 10
0.11851996440033208
 20
-23.91780193030948
 10
0.17037086855465766
 20
-23.705904774487394
 10
0.23141524625886412
 20
-23.49647100247863
 10
0.30153689607045653
 20
-23.289899283371653
 10
0.3806023374435652
 20
-23.08658283817455
 10
0.46846106481674976
 20
-22.886908691296497
 10
0.5649458341088902
 20
-22.69125693382483
 10
0.6698729810778055
 20
-22.5
 10
0.7830427709355705
 20
-22.313501958265874
 10
0.9042397785550405
 20
-22.132117818244765
 10
1.0332332985438235
 20
-21.9561928549564
 10
1.1697777844051087
 20
-21.786061951567305
 10
1.3136133159493788
 20
-21.622048961921706
 10
1.4644660940672614
 20
-21.464466094067262
 10
1.6220489619216978
 20
-21.313613315949382
 10
1.7860619515673029
 20
-21.169777784405113
 10
1.956192854956396
 20
-21.03323329854382
 10
2.132117818244769
 20
-20.904239778555038
 10
2.3135019582658796
 20
-20.783042770935566
 10
2.4999999999999987
 20
-20.669872981077802
 10
2.6912569338248296
 20
-20.564945834108897
 10
2.886908691296502
 20
-20.46846106481675
 10
3.08658283817455
 20
-20.380602337443563
 10
3.289899283371655
 20
-20.30153689607046
 10
3.496471002478633
 20
-20.231415246258862
 10
3.7059047744873954
 20
-20.170370868554656
 10
3.9178019303094844
 20
-20.118519964400335
 10
4.131759111665346
 20
-20.07596123493896
 10
4.347369038899741
 20
-20.04277569313095
 10
4.5642212862617075
 20
-20.019026509541277
 10
4.781903063173319
 20
-20.004758892090706
 10
4.999999999999999
 20
-20.0
  0
LINE
  5
AD
330
17
100
AcDbEntity
  8
OUTLINE
100
AcDbLine
 10
16.0
 20
-20.0
 30
0.0
 11
4.999999999999999
 21
-20.0
 31
0.0
  0
LINE
  5
AE
330
17
100
AcDbEntity
  8
OUTLINE
100
AcDbLine
 10
100.0
 20
-43.0
 30
0.0
 11
45.0
 21
-43.0
 31
0.0
  0
LINE
  5
AF
330
17
100
AcDbEntity
  8
OUTLINE
100
AcDbLine
 10
100.0
 20
-45.0
 30
0.0
 11
100.0
 21
-43.0
 31
0.0
  0
LINE
  5
B0
330
17
100
AcDbEntity
  8
OUTLINE
100
AcDbLine
 10
94.7
 20
-45.0
 30
0.0
 11
100.0
 21
-45.0
 31
0.0
  0
LINE
  5
B1
330
17
100
AcDbEntity
  8
OUTLINE
100
AcDbLine
 10
94.7
 20
-46.1
 30
0.0
 11
94.7
 21
-45.0
 31
0.0
  0
LINE
  5
B2
330
17
100
AcDbEntity
  8
OUTLINE
100
AcDbLine
 10
92.27000000000001
 20
-46.1
 30
0.0
 11
94.7
 21
-46.1
 31
0.0
  0
LINE
  5
B3
330
17
100
AcDbEntity
  8
OUTLINE
100
AcDbLine
 10
92.27000000000001
 20
-45.0
 30
0.0
 11
92.27000000000001
 21
-46.1
 31
0.0
  0
LINE
  5
B4
330
17
100
AcDbEntity
  8
OUTLINE
100
AcDbLine
 10
87.87
 20
-45.0
 30
0.0
 11
92.27000000000001
 21
-45.0
 31
0.0
  0
LINE
  5
B5
330
17
100
AcDbEntity
  8
OUTLINE
100
AcDbLine
 10
87.87
 20
-46.1
 30
0.0
 11
87.87
 21
-45.0
 31
0.0
  0
LINE
  5
B6
330
17
100
AcDbEntity
  8
OUTLINE
100
AcDbLine
 10
84.65
 20
-46.1
 30
0.0
 11
87.87
 21
-46.1
 31
0.0
  0
LINE
  5
B7
330
17
100
AcDbEntity
  8
OUTLINE
100
AcDbLine
 10
84.65
 20
-45.0
 30
0.0
 11
84.65
 21
-46.1
 31
0.0
  0
LINE
  5
B8
330
17
100
AcDbEntity
  8
OUTLINE
100
AcDbLine
 10
80.25
 20
-45.0
 30
0.0
 11
84.65
 21
-45.0
 31
0.0
  0
LINE
  5
B9
330
17
100
AcDbEntity
  8
OUTLINE
100
AcDbLine
 10
80.25
 20
-46.1
 30
0.0
 11
80.25
 21
-45.0
 31
0.0
  0
LINE
  5
BA
330
17
100
AcDbEntity
  8
OUTLINE
100
AcDbLine
 10
56.71
 20
-46.1
 30
0.0
 11
80.25
 21
-46.1
 31
0.0
  0
LINE
  5
BB
330
17
100
AcDbEntity
  8
OUTLINE
100
AcDbLine
 10
56.71
 20
-45.0
 30
0.0
 11
56.71
 21
-46.1
 31
0.0
  0
LINE
  5
BC
330
17
100
AcDbEntity
  8
OUTLINE
100
AcDbLine
 10
45.7
 20
-45.0
 30
0.0
 11
56.71
 21
-45.0
 31
0.0
  0
LINE
  5
BD
330
17
100
AcDbEntity
  8
OUTLINE
100
AcDbLine
 10
45.7
 20
-48.0
 30
0.0
 11
45.7
 21
-45.0
 31
0.0
  0
LINE
  5
BE
330
17
100
AcDbEntity
  8
OUTLINE
100
AcDbLine
 10
43.0
 20
-48.0
 30
0.0
 11
45.7
 21
-48.0
 31
0.0
  0
LINE
  5
BF
330
17
100
AcDbEntity
  8
OUTLINE
100
AcDbLine
 10
43.0
 20
-45.0
 30
0.0
 11
43.0
 21
-48.0
 31
0.0
  0
LINE
  5
C0
330
17
100
AcDbEntity
  8
OUTLINE
100
AcDbLine
 10
45.0
 20
-45.0
 30
0.0
 11
43.0
 21
-45.0
 31
0.0
  0
LINE
  5
C1
330
17
100
AcDbEntity
  8
OUTLINE
100
AcDbLine
 10
45.0
 20
-43.0
 30
0.0
 11
45.0
 21
-45.0
 31
0.0
  0
LINE
  5
C2
330
17
100
AcDbEntity
  8
OUTLINE
100
AcDbLine
 10
43.0
 20
-68.0
 30
0.0
 11
43.0
 21
-71.0
 31
0.0
  0
LINE
  5
C3
330
17
100
AcDbEntity
  8
OUTLINE
100
AcDbLine
 10
45.7
 20
-68.0
 30
0.0
 11
43.0
 21
-68.0
 31
0.0
  0
LINE
  5
C4
330
17
100
AcDbEntity
  8
OUTLINE
100
AcDbLine
 10
45.7
 20
-71.0
 30
0.0
 11
45.7
 21
-68.0
 31
0.0
  0
LINE
  5
C5
330
17
100
AcDbEntity
  8
OUTLINE
100
AcDbLine
 10
47.5
 20
-71.0
 30
0.0
 11
45.7
 21
-71.0
 31
0.0
  0
LINE
  5
C6
330
17
100
AcDbEntity
  8
OUTLINE
100
AcDbLine
 10
47.5
 20
-69.9
 30
0.0
 11
47.5
 21
-71.0
 31
0.0
  0
LINE
  5
C7
330
17
100
AcDbEntity
  8
OUTLINE
100
AcDbLine
 10
66.5
 20
-69.9
 30
0.0
 11
47.5
 21
-69.9
 31
0.0
  0
LINE
  5
C8
330
17
100
AcDbEntity
  8
OUTLINE
100
AcDbLine
 10
66.5
 20
-73.0
 30
0.0
 11
66.5
 21
-69.9
 31
0.0
  0
LINE
  5
C9
330
17
100
AcDbEntity
  8
OUTLINE
100
AcDbLine
 10
45.0
 20
-73.0
 30
0.0
 11
66.5
 21
-73.0
 31
0.0
  0
LINE
  5
CA
330
17
100
AcDbEntity
  8
OUTLINE
100
AcDbLine
 10
45.0
 20
-71.0
 30
0.0
 11
45.0
 21
-73.0
 31
0.0
  0
LINE
  5
CB
330
17
100
AcDbEntity
  8
OUTLINE
100
AcDbLine
 10
43.0
 20
-71.0
 30
0.0
 11
45.0
 21
-71.0
 31
0.0
  0
LINE
  5
CC
330
17
100
AcDbEntity
  8
OUTLINE
100
AcDbLine
 10
74.5
 20
-69.9
 30
0.0
 11
74.5
 21
-73.0
 31
0.0
  0
LINE
  5
CD
330
17
100
AcDbEntity
  8
OUTLINE
100
AcDbLine
 10
94.7
 20
-69.9
 30
0.0
 11
74.5
 21
-69.9
 31
0.0
  0
LINE
  5
CE
330
17
100
AcDbEntity
  8
OUTLINE
100
AcDbLine
 10
94.7
 20
-71.0
 30
0.0
 11
94.7
 21
-69.9
 31
0.0
  0
LINE
  5
CF
330
17
100
AcDbEntity
  8
OUTLINE
100
AcDbLine
 10
100.0
 20
-71.0
 30
0.0
 11
94.7
 21
-71.0
 31
0.0
  0
LINE
  5
D0
330
17
100
AcDbEntity
  8
OUTLINE
100
AcDbLine
 10
100.0
 20
-73.0
 30
0.0
 11
100.0
 21
-71.0
 31
0.0
  0
LINE
  5
D1
330
17
100
AcDbEntity
  8
OUTLINE
100
AcDbLine
 10
74.5
 20
-73.0
 30
0.0
 11
100.0
 21
-73.0
 31
0.0
  0
LINE
  5
D2
330
17
100
AcDbEntity
  8
OUTLINE
100
AcDbLine
 10
14.0
 20
-51.0
 30
0.0
 11
4.5
 21
-51.0
 31
0.0
  0
LINE
  5
D3
330
17
100
AcDbEntity
  8
OUTLINE
100
AcDbLine
 10
14.0
 20
-65.0
 30
0.0
 11
14.0
 21
-51.0
 31
0.0
  0
LINE
  5
D4
330
17
100
AcDbEntity
  8
OUTLINE
100
AcDbLine
 10
4.5
 20
-65.0
 30
0.0
 11
14.0
 21
-65.0
 31
0.0
  0
LINE
  5
D5
330
17
100
AcDbEntity
  8
OUTLINE
100
AcDbLine
 10
4.5
 20
-51.0
 30
0.0
 11
4.5
 21
-65.0
 31
0.0
  0
LINE
  5
D6
330
17
100
AcDbEntity
  8
OUTLINE
100
AcDbLine
 10
100.0
 20
-53.0
 30
0.0
 11
98.0
 21
-53.0
 31
0.0
  0
LINE
  5
D7
330
17
100
AcDbEntity
  8
OUTLINE
100
AcDbLine
 10
100.0
 20
-63.0
 30
0.0
 11
100.0
 21
-53.0
 31
0.0
  0
LINE
  5
D8
330
17
100
AcDbEntity
  8
OUTLINE
100
AcDbLine
 10
98.0
 20
-63.0
 30
0.0
 11
100.0
 21
-63.0
 31
0.0
  0
LINE
  5
D9
330
17
100
AcDbEntity
  8
OUTLINE
100
AcDbLine
 10
98.0
 20
-53.0
 30
0.0
 11
98.0
 21
-63.0
 31
0.0
  0
LINE
  5
DA
330
17
100
AcDbEntity
  8
OUTLINE
100
AcDbLine
 10
109.0
 20
-35.0
 30
0.0
 11
101.0
 21
-35.0
 31
0.0
  0
LINE
  5
DB
330
17
100
AcDbEntity
  8
OUTLINE
100
AcDbLine
 10
109.0
 20
-41.0
 30
0.0
 11
109.0
 21
-35.0
 31
0.0
  0
LINE
  5
DC
330
17
100
AcDbEntity
  8
OUTLINE
100
AcDbLine
 10
101.0
 20
-41.0
 30
0.0
 11
109.0
 21
-41.0
 31
0.0
  0
LINE
  5
DD
330
17
100
AcDbEntity
  8
OUTLINE
100
AcDbLine
 10
101.0
 20
-35.0
 30
0.0
 11
101.0
 21
-41.0
 31
0.0
  0
TEXT
  5
DE
330
17
100
AcDbEntity
  8
TEXT
100
AcDbText
 10
0.0
 20
-108.0
 30
0.0
 40
2.8
  1
FRONT SECTION at Y=26 (back wall): keyholes, saddles, cradle
 11
0.0
 21
-108.0
 31
0.0
100
AcDbText
  0
DIMENSION
  5
DF
330
17
100
AcDbEntity
  8
DIMS
100
AcDbDimension
280
0
  2
*D1
  3
EZDXF
 10
0.0
 20
-110.0
 30
0.0
 11
60.0
 21
-108.15
 31
0.0
 70
32
 71
5
  1
<>
100
AcDbAlignedDimension
 13
0.0
 23
-100.0
 33
0.0
 14
120.0
 24
-100.0
 34
0.0
 50
0.0
100
AcDbRotatedDimension
1001
ACAD
1000
DSTYLE
1002
{
1070
140
1040
2.5
1070
41
1040
1.5
1070
42
1040
0.8
1070
44
1040
1.0
1070
147
1040
0.6
1070
271
1070
1
1002
}
  0
DIMENSION
  5
EE
330
17
100
AcDbEntity
  8
DIMS
100
AcDbDimension
280
0
  2
*D2
  3
EZDXF
 10
-12.0
 20
-100.0
 30
0.0
 11
-13.85
 21
-60.0
 31
0.0
 70
32
 71
5
  1
<>
100
AcDbAlignedDimension
 13
0.0
 23
-100.0
 33
0.0
 14
0.0
 24
-20.0
 34
0.0
 50
90.0
100
AcDbRotatedDimension
1001
ACAD
1000
DSTYLE
1002
{
1070
140
1040
2.5
1070
41
1040
1.5
1070
42
1040
0.8
1070
44
1040
1.0
1070
147
1040
0.6
1070
271
1070
1
1002
}
  0
DIMENSION
  5
FD
330
17
100
AcDbEntity
  8
DIMS
100
AcDbDimension
280
0
  2
*D3
  3
EZDXF
 10
25.0
 20
-12.0
 30
0.0
 11
60.0
 21
-10.15
 31
0.0
 70
32
 71
5
  1
keyhole pitch <>
100
AcDbAlignedDimension
 13
25.0
 23
-38.0
 33
0.0
 14
95.0
 24
-38.0
 34
0.0
 50
0.0
100
AcDbRotatedDimension
1001
ACAD
1000
DSTYLE
1002
{
1070
140
1040
2.5
1070
41
1040
1.5
1070
42
1040
0.8
1070
44
1040
1.0
1070
147
1040
0.6
1070
271
1070
1
1002
}
  0
DIMENSION
  5
10C
330
17
100
AcDbEntity
  8
DIMS
100
AcDbDimension
280
0
  2
*D4
  3
EZDXF
 10
130.0
 20
-100.0
 30
0.0
 11
128.15
 21
-69.0
 31
0.0
 70
32
 71
5
  1
keyhole <>
100
AcDbAlignedDimension
 13
120.0
 23
-100.0
 33
0.0
 14
120.0
 24
-38.0
 34
0.0
 50
90.0
100
AcDbRotatedDimension
1001
ACAD
1000
DSTYLE
1002
{
1070
140
1040
2.5
1070
41
1040
1.5
1070
42
1040
0.8
1070
44
1040
1.0
1070
147
1040
0.6
1070
271
1070
1
1002
}
  0
DIMENSION
  5
11B
330
17
100
AcDbEntity
  8
DIMS
100
AcDbDimension
280
0
  2
*D5
  3
EZDXF
 10
140.0
 20
-100.0
 30
0.0
 11
137.15
 21
-79.0
 31
0.0
 70
32
 71
5
  1
board centre <>
100
AcDbAlignedDimension
 13
120.0
 23
-100.0
 33
0.0
 14
120.0
 24
-58.0
 34
0.0
 50
90.0
100
AcDbRotatedDimension
1001
ACAD
1000
DSTYLE
1002
{
1070
140
1040
2.5
1070
41
1040
1.5
1070
42
1040
0.8
1070
44
1040
1.0
1070
147
1040
0.6
1070
271
1070
1
1002
}
  0
LWPOLYLINE
  5
12A
330
17
100
AcDbEntity
  8
OUTLINE
100
AcDbPolyline
 90
37
 70
0
 10
-8.881784197001252e-16
 20
-145.0
 10
0.004758892090710454
 20
-144.78190306317333
 10
0.019026509541271608
 20
-144.56422128626173
 10
0.04277569313094709
 20
-144.34736903889973
 10
0.07596123493895934
 20
-144.13175911166536
 10
0.11851996440033208
 20
-143.91780193030948
 10
0.17037086855465766
 20
-143.7059047744874
 10
0.23141524625886412
 20
-143.49647100247864
 10
0.30153689607045653
 20
-143.28989928337165
 10
0.3806023374435652
 20
-143.08658283817454
 10
0.46846106481674976
 20
-142.8869086912965
 10
0.5649458341088902
 20
-142.69125693382483
 10
0.6698729810778055
 20
-142.5
 10
0.7830427709355705
 20
-142.31350195826587
 10
0.9042397785550405
 20
-142.13211781824475
 10
1.0332332985438235
 20
-141.95619285495638
 10
1.1697777844051087
 20
-141.78606195156732
 10
1.3136133159493788
 20
-141.6220489619217
 10
1.4644660940672614
 20
-141.46446609406726
 10
1.6220489619216978
 20
-141.3136133159494
 10
1.7860619515673029
 20
-141.1697777844051
 10
1.956192854956396
 20
-141.03323329854382
 10
2.132117818244769
 20
-140.90423977855505
 10
2.3135019582658796
 20
-140.78304277093557
 10
2.4999999999999987
 20
-140.6698729810778
 10
2.6912569338248296
 20
-140.5649458341089
 10
2.886908691296502
 20
-140.46846106481675
 10
3.08658283817455
 20
-140.38060233744358
 10
3.289899283371655
 20
-140.30153689607044
 10
3.496471002478633
 20
-140.23141524625885
 10
3.7059047744873954
 20
-140.17037086855464
 10
3.9178019303094844
 20
-140.11851996440032
 10
4.131759111665346
 20
-140.07596123493897
 10
4.347369038899741
 20
-140.04277569313095
 10
4.5642212862617075
 20
-140.01902650954128
 10
4.781903063173319
 20
-140.0047588920907
 10
4.999999999999999
 20
-140.0
  0
LINE
  5
12B
330
17
100
AcDbEntity
  8
OUTLINE
100
AcDbLine
 10
115.0
 20
-140.0
 30
0.0
 11
4.999999999999999
 21
-140.0
 31
0.0
  0
LWPOLYLINE
  5
12C
330
17
100
AcDbEntity
  8
OUTLINE
100
AcDbPolyline
 90
37
 70
0
 10
115.0
 20
-140.0
 10
115.21809693682668
 20
-140.0047588920907
 10
115.43577871373829
 20
-140.01902650954128
 10
115.65263096110026
 20
-140.04277569313095
 10
115.86824088833465
 20
-140.07596123493897
 10
116.0821980696905
 20
-140.11851996440032
 10
116.2940952255126
 20
-140.17037086855464
 10
116.50352899752136
 20
-140.23141524625885
 10
116.71010071662835
 20
-140.30153689607044
 10
116.91341716182545
 20
-140.38060233744358
 10
117.1130913087035
 20
-140.46846106481675
 10
117.30874306617517
 20
-140.5649458341089
 10
117.5
 20
-140.6698729810778
 10
117.68649804173413
 20
-140.78304277093557
 10
117.86788218175523
 20
-140.90423977855505
 10
118.0438071450436
 20
-141.03323329854382
 10
118.2139380484327
 20
-141.1697777844051
 10
118.3779510380783
 20
-141.3136133159494
 10
118.53553390593274
 20
-141.46446609406726
 10
118.68638668405062
 20
-141.62204896192168
 10
118.83022221559489
 20
-141.78606195156732
 10
118.96676670145618
 20
-141.95619285495638
 10
119.09576022144496
 20
-142.13211781824475
 10
119.21695722906443
 20
-142.31350195826587
 10
119.3301270189222
 20
-142.5
 10
119.4350541658911
 20
-142.69125693382483
 10
119.53153893518325
 20
-142.8869086912965
 10
119.61939766255644
 20
-143.08658283817454
 10
119.69846310392954
 20
-143.28989928337165
 10
119.76858475374114
 20
-143.49647100247864
 10
119.82962913144534
 20
-143.7059047744874
 10
119.88148003559967
 20
-143.91780193030948
 10
119.92403876506104
 20
-144.13175911166536
 10
119.95722430686905
 20
-144.34736903889973
 10
119.98097349045872
 20
-144.56422128626173
 10
119.9952411079093
 20
-144.78190306317333
 10
120.0
 20
-145.0
  0
LINE
  5
12D
330
17
100
AcDbEntity
  8
OUTLINE
100
AcDbLine
 10
120.0
 20
-215.0
 30
0.0
 11
120.0
 21
-145.0
 31
0.0
  0
LWPOLYLINE
  5
12E
330
17
100
AcDbEntity
  8
OUTLINE
100
AcDbPolyline
 90
37
 70
0
 10
120.0
 20
-215.0
 10
119.9952411079093
 20
-215.21809693682667
 10
119.98097349045872
 20
-215.4357787137383
 10
119.95722430686905
 20
-215.65263096110027
 10
119.92403876506104
 20
-215.86824088833464
 10
119.88148003559967
 20
-216.08219806969052
 10
119.82962913144534
 20
-216.2940952255126
 10
119.76858475374114
 20
-216.50352899752136
 10
119.69846310392954
 20
-216.71010071662835
 10
119.61939766255644
 20
-216.91341716182546
 10
119.53153893518325
 20
-217.1130913087035
 10
119.4350541658911
 20
-217.30874306617517
 10
119.3301270189222
 20
-217.5
 10
119.21695722906443
 20
-217.68649804173413
 10
119.09576022144496
 20
-217.86788218175522
 10
118.96676670145618
 20
-218.04380714504362
 10
118.83022221559489
 20
-218.2139380484327
 10
118.68638668405062
 20
-218.3779510380783
 10
118.53553390593274
 20
-218.53553390593274
 10
118.37795103807831
 20
-218.68638668405063
 10
118.2139380484327
 20
-218.8302222155949
 10
118.0438071450436
 20
-218.96676670145618
 10
117.86788218175523
 20
-219.09576022144495
 10
117.68649804173413
 20
-219.21695722906443
 10
117.5
 20
-219.33012701892218
 10
117.30874306617517
 20
-219.4350541658911
 10
117.1130913087035
 20
-219.53153893518325
 10
116.91341716182545
 20
-219.61939766255642
 10
116.71010071662835
 20
-219.69846310392956
 10
116.50352899752137
 20
-219.76858475374112
 10
116.2940952255126
 20
-219.82962913144533
 10
116.08219806969052
 20
-219.88148003559968
 10
115.86824088833465
 20
-219.92403876506103
 10
115.65263096110026
 20
-219.95722430686905
 10
115.43577871373829
 20
-219.98097349045872
 10
115.21809693682668
 20
-219.9952411079093
 10
115.0
 20
-220.0
  0
LINE
  5
12F
330
17
100
AcDbEntity
  8
OUTLINE
100
AcDbLine
 10
4.999999999999999
 20
-220.0
 30
0.0
 11
115.0
 21
-220.0
 31
0.0
  0
LWPOLYLINE
  5
130
330
17
100
AcDbEntity
  8
OUTLINE
100
AcDbPolyline
 90
37
 70
0
 10
5.0
 20
-220.0
 10
4.781903063173321
 20
-219.9952411079093
 10
4.564221286261709
 20
-219.98097349045872
 10
4.347369038899743
 20
-219.95722430686905
 10
4.13175911166535
 20
-219.92403876506103
 10
3.917801930309487
 20
-219.88148003559968
 10
3.7059047744873976
 20
-219.82962913144533
 10
3.496471002478636
 20
-219.76858475374112
 10
3.2898992833716583
 20
-219.69846310392956
 10
3.0865828381745493
 20
-219.61939766255642
 10
2.886908691296501
 20
-219.53153893518325
 10
2.6912569338248287
 20
-219.4350541658911
 10
2.4999999999999987
 20
-219.33012701892218
 10
2.3135019582658796
 20
-219.21695722906443
 10
2.132117818244769
 20
-219.09576022144495
 10
1.956192854956396
 20
-218.96676670145618
 10
1.7860619515673029
 20
-218.8302222155949
 10
1.6220489619216982
 20
-218.68638668405063
 10
1.4644660940672622
 20
-218.53553390593274
 10
1.3136133159493797
 20
-218.3779510380783
 10
1.16977778440511
 20
-218.2139380484327
 10
1.0332332985438244
 20
-218.04380714504362
 10
0.9042397785550413
 20
-217.86788218175522
 10
0.7830427709355714
 20
-217.68649804173413
 10
0.6698729810778072
 20
-217.5
 10
0.564945834108892
 20
-217.30874306617517
 10
0.4684610648167489
 20
-217.1130913087035
 10
0.380602337443567
 20
-216.91341716182546
 10
0.30153689607045653
 20
-216.71010071662835
 10
0.2314152462588659
 20
-216.50352899752136
 10
0.17037086855465766
 20
-216.2940952255126
 10
0.11851996440033208
 20
-216.08219806969052
 10
0.07596123493895934
 20
-215.86824088833464
 10
0.04277569313094709
 20
-215.65263096110027
 10
0.019026509541271608
 20
-215.4357787137383
 10
0.004758892090710454
 20
-215.21809693682667
 10
-8.881784197001252e-16
 20
-215.0
  0
LINE
  5
131
330
17
100
AcDbEntity
  8
OUTLINE
100
AcDbLine
 10
0.0
 20
-181.5
 30
0.0
 11
-8.881784197001252e-16
 21
-215.0
 31
0.0
  0
LINE
  5
132
330
17
100
AcDbEntity
  8
OUTLINE
100
AcDbLine
 10
2.5
 20
-181.5
 30
0.0
 11
0.0
 21
-181.5
 31
0.0
  0
LINE
  5
133
330
17
100
AcDbEntity
  8
OUTLINE
100
AcDbLine
 10
2.5
 20
-215.0
 30
0.0
 11
2.5
 21
-181.5
 31
0.0
  0
LWPOLYLINE
  5
134
330
17
100
AcDbEntity
  8
OUTLINE
100
AcDbPolyline
 90
37
 70
0
 10
5.000000000000001
 20
-217.5
 10
4.89095153158666
 20
-217.49762055395465
 10
4.7821106431308555
 20
-217.49048674522936
 10
4.673684519449872
 20
-217.47861215343454
 10
4.565879555832675
 20
-217.4620193825305
 10
4.4589009651547435
 20
-217.44074001779984
 10
4.3529523872436995
 20
-217.41481456572268
 10
4.248235501239319
 20
-217.38429237687058
 10
4.144949641685829
 20
-217.34923155196478
 10
4.043291419087275
 20
-217.3096988312782
 10
3.943454345648251
 20
-217.2657694675916
 10
3.845628466912415
 20
-217.21752708294557
 10
3.75
 20
-217.1650635094611
 10
3.6567509791329402
 20
-217.1084786145322
 10
3.566058909122385
 20
-217.04788011072247
 10
3.4780964274781985
 20
-216.98338335072808
 10
3.3930309757836516
 20
-216.91511110779746
 10
3.3110244809608496
 20
-216.8431933420253
 10
3.2322330470336316
 20
-216.76776695296638
 10
3.1568066579746903
 20
-216.68897551903916
 10
3.0848888922025557
 20
-216.60696902421634
 10
3.0166166492719126
 20
-216.5219035725218
 10
2.952119889277521
 20
-216.43394109087762
 10
2.891521385467786
 20
-216.34324902086706
 10
2.834936490538904
 20
-216.25
 10
2.7824729170544464
 20
-216.15437153308758
 10
2.734230532408375
 20
-216.05654565435174
 10
2.690301168721784
 20
-215.95670858091273
 10
2.6507684480352287
 20
-215.85505035831417
 10
2.6157076231294334
 20
-215.75176449876068
 10
2.5851854342773293
 20
-215.6470476127563
 10
2.5592599822001665
 20
-215.54109903484525
 10
2.53798061746948
 20
-215.43412044416732
 10
2.521387846565474
 20
-215.32631548055014
 10
2.5095132547706362
 20
-215.21788935686914
 10
2.5023794460453557
 20
-215.10904846841333
 10
2.5
 20
-215.0
  0
LINE
  5
135
330
17
100
AcDbEntity
  8
OUTLINE
100
AcDbLine
 10
115.0
 20
-217.5
 30
0.0
 11
5.0
 21
-217.5
 31
0.0
  0
LWPOLYLINE
  5
136
330
17
100
AcDbEntity
  8
OUTLINE
100
AcDbPolyline
 90
37
 70
0
 10
117.5
 20
-215.0
 10
117.49762055395465
 20
-215.10904846841333
 10
117.49048674522936
 20
-215.21788935686914
 10
117.47861215343453
 20
-215.32631548055014
 10
117.46201938253051
 20
-215.43412044416732
 10
117.44074001779984
 20
-215.54109903484525
 10
117.41481456572266
 20
-215.6470476127563
 10
117.38429237687056
 20
-215.75176449876068
 10
117.34923155196478
 20
-215.85505035831417
 10
117.30969883127821
 20
-215.95670858091273
 10
117.26576946759162
 20
-216.05654565435174
 10
117.21752708294555
 20
-216.15437153308758
 10
117.16506350946109
 20
-216.25
 10
117.10847861453222
 20
-216.34324902086706
 10
117.04788011072247
 20
-216.43394109087762
 10
116.98338335072809
 20
-216.5219035725218
 10
116.91511110779744
 20
-216.60696902421634
 10
116.84319334202532
 20
-216.68897551903916
 10
116.76776695296637
 20
-216.76776695296638
 10
116.68897551903915
 20
-216.8431933420253
 10
116.60696902421635
 20
-216.91511110779746
 10
116.52190357252181
 20
-216.98338335072808
 10
116.43394109087761
 20
-217.04788011072247
 10
116.34324902086706
 20
-217.1084786145322
 10
116.25
 20
-217.1650635094611
 10
116.15437153308758
 20
-217.21752708294557
 10
116.05654565435175
 20
-217.2657694675916
 10
115.95670858091272
 20
-217.3096988312782
 10
115.85505035831417
 20
-217.34923155196478
 10
115.75176449876068
 20
-217.38429237687058
 10
115.6470476127563
 20
-217.41481456572268
 10
115.54109903484526
 20
-217.44074001779984
 10
115.43412044416732
 20
-217.4620193825305
 10
115.32631548055014
 20
-217.47861215343454
 10
115.21788935686915
 20
-217.49048674522936
 10
115.10904846841333
 20
-217.49762055395465
 10
115.0
 20
-217.5
  0
LINE
  5
137
330
17
100
AcDbEntity
  8
OUTLINE
100
AcDbLine
 10
117.5
 20
-145.0
 30
0.0
 11
117.5
 21
-215.0
 31
0.0
  0
LWPOLYLINE
  5
138
330
17
100
AcDbEntity
  8
OUTLINE
100
AcDbPolyline
 90
37
 70
0
 10
115.0
 20
-142.5
 10
115.10904846841333
 20
-142.50237944604535
 10
115.21788935686915
 20
-142.50951325477064
 10
115.32631548055012
 20
-142.52138784656546
 10
115.43412044416732
 20
-142.5379806174695
 10
115.54109903484526
 20
-142.55925998220016
 10
115.6470476127563
 20
-142.58518543427732
 10
115.75176449876068
 20
-142.61570762312942
 10
115.85505035831417
 20
-142.65076844803522
 10
115.95670858091273
 20
-142.6903011687218
 10
116.05654565435175
 20
-142.7342305324084
 10
116.15437153308758
 20
-142.78247291705446
 10
116.25
 20
-142.8349364905389
 10
116.34324902086706
 20
-142.8915213854678
 10
116.43394109087761
 20
-142.95211988927753
 10
116.52190357252181
 20
-143.0166166492719
 10
116.60696902421635
 20
-143.08488889220257
 10
116.68897551903915
 20
-143.1568066579747
 10
116.76776695296637
 20
-143.23223304703362
 10
116.84319334202532
 20
-143.31102448096084
 10
116.91511110779744
 20
-143.39303097578363
 10
116.98338335072809
 20
-143.4780964274782
 10
117.04788011072247
 20
-143.56605890912238
 10
117.10847861453222
 20
-143.65675097913294
 10
117.16506350946109
 20
-143.75
 10
117.21752708294555
 20
-143.84562846691242
 10
117.26576946759162
 20
-143.94345434564826
 10
117.30969883127821
 20
-144.04329141908727
 10
117.34923155196478
 20
-144.14494964168583
 10
117.38429237687056
 20
-144.24823550123932
 10
117.41481456572266
 20
-144.3529523872437
 10
117.44074001779984
 20
-144.45890096515473
 10
117.46201938253051
 20
-144.56587955583268
 10
117.47861215343453
 20
-144.67368451944986
 10
117.49048674522936
 20
-144.78211064313086
 10
117.49762055395465
 20
-144.89095153158667
 10
117.5
 20
-145.0
  0
LINE
  5
139
330
17
100
AcDbEntity
  8
OUTLINE
100
AcDbLine
 10
5.0
 20
-142.5
 30
0.0
 11
115.0
 21
-142.5
 31
0.0
  0
LWPOLYLINE
  5
13A
330
17
100
AcDbEntity
  8
OUTLINE
100
AcDbPolyline
 90
37
 70
0
 10
2.5
 20
-145.0
 10
2.5023794460453557
 20
-144.89095153158667
 10
2.5095132547706362
 20
-144.78211064313086
 10
2.521387846565474
 20
-144.67368451944986
 10
2.53798061746948
 20
-144.56587955583268
 10
2.5592599822001665
 20
-144.45890096515473
 10
2.5851854342773293
 20
-144.3529523872437
 10
2.6157076231294325
 20
-144.24823550123932
 10
2.6507684480352287
 20
-144.14494964168583
 10
2.690301168721783
 20
-144.04329141908727
 10
2.7342305324083753
 20
-143.94345434564826
 10
2.7824729170544455
 20
-143.84562846691242
 10
2.834936490538903
 20
-143.75
 10
2.8915213854677857
 20
-143.65675097913294
 10
2.9521198892775207
 20
-143.56605890912238
 10
3.016616649271912
 20
-143.4780964274782
 10
3.084888892202555
 20
-143.39303097578363
 10
3.15680665797469
 20
-143.31102448096084
 10
3.232233047033631
 20
-143.23223304703362
 10
3.3110244809608496
 20
-143.1568066579747
 10
3.3930309757836516
 20
-143.08488889220257
 10
3.4780964274781985
 20
-143.0166166492719
 10
3.566058909122385
 20
-142.95211988927753
 10
3.6567509791329402
 20
-142.8915213854678
 10
3.75
 20
-142.8349364905389
 10
3.845628466912415
 20
-142.78247291705446
 10
3.9434543456482514
 20
-142.7342305324084
 10
4.043291419087275
 20
-142.6903011687218
 10
4.144949641685828
 20
-142.65076844803522
 10
4.248235501239317
 20
-142.61570762312942
 10
4.352952387243699
 20
-142.58518543427732
 10
4.458900965154743
 20
-142.55925998220016
 10
4.565879555832673
 20
-142.5379806174695
 10
4.67368451944987
 20
-142.52138784656546
 10
4.782110643130854
 20
-142.50951325477064
 10
4.89095153158666
 20
-142.50237944604535
 10
5.0
 20
-142.5
  0
LINE
  5
13B
330
17
100
AcDbEntity
  8
OUTLINE
100
AcDbLine
 10
2.5
 20
-174.5
 30
0.0
 11
2.5
 21
-145.0
 31
0.0
  0
LINE
  5
13C
330
17
100
AcDbEntity
  8
OUTLINE
100
AcDbLine
 10
0.0
 20
-174.5
 30
0.0
 11
2.5
 21
-174.5
 31
0.0
  0
LINE
  5
13D
330
17
100
AcDbEntity
  8
OUTLINE
100
AcDbLine
 10
-8.881784197001252e-16
 20
-145.0
 30
0.0
 11
0.0
 21
-174.5
 31
0.0
  0
LINE
  5
13E
330
17
100
AcDbEntity
  8
OUTLINE
100
AcDbLine
 10
100.0
 20
-163.0
 30
0.0
 11
45.0
 21
-163.0
 31
0.0
  0
LINE
  5
13F
330
17
100
AcDbEntity
  8
OUTLINE
100
AcDbLine
 10
100.0
 20
-165.0
 30
0.0
 11
100.0
 21
-163.0
 31
0.0
  0
LINE
  5
140
330
17
100
AcDbEntity
  8
OUTLINE
100
AcDbLine
 10
45.0
 20
-165.0
 30
0.0
 11
100.0
 21
-165.0
 31
0.0
  0
LINE
  5
141
330
17
100
AcDbEntity
  8
OUTLINE
100
AcDbLine
 10
45.0
 20
-163.0
 30
0.0
 11
45.0
 21
-165.0
 31
0.0
  0
LINE
  5
142
330
17
100
AcDbEntity
  8
OUTLINE
100
AcDbLine
 10
100.0
 20
-191.0
 30
0.0
 11
45.0
 21
-191.0
 31
0.0
  0
LINE
  5
143
330
17
100
AcDbEntity
  8
OUTLINE
100
AcDbLine
 10
100.0
 20
-193.0
 30
0.0
 11
100.0
 21
-191.0
 31
0.0
  0
LINE
  5
144
330
17
100
AcDbEntity
  8
OUTLINE
100
AcDbLine
 10
45.0
 20
-193.0
 30
0.0
 11
100.0
 21
-193.0
 31
0.0
  0
LINE
  5
145
330
17
100
AcDbEntity
  8
OUTLINE
100
AcDbLine
 10
45.0
 20
-191.0
 30
0.0
 11
45.0
 21
-193.0
 31
0.0
  0
TEXT
  5
146
330
17
100
AcDbEntity
  8
TEXT
100
AcDbText
 10
0.0
 20
-228.0
 30
0.0
 40
2.8
  1
FRONT SECTION at Y=5: cable notch, plug space, board pocket walls
 11
0.0
 21
-228.0
 31
0.0
100
AcDbText
  0
DIMENSION
  5
147
330
17
100
AcDbEntity
  8
DIMS
100
AcDbDimension
280
0
  2
*D6
  3
EZDXF
 10
-8.0
 20
-181.5
 30
0.0
 11
-10.85
 21
-178.0
 31
0.0
 70
32
 71
5
  1
cable notch <>
100
AcDbAlignedDimension
 13
0.0
 23
-181.5
 33
0.0
 14
0.0
 24
-174.5
 34
0.0
 50
90.0
100
AcDbRotatedDimension
1001
ACAD
1000
DSTYLE
1002
{
1070
140
1040
2.5
1070
41
1040
1.5
1070
42
1040
0.8
1070
44
1040
1.0
1070
147
1040
0.6
1070
271
1070
1
1002
}
  0
DIMENSION
  5
156
330
17
100
AcDbEntity
  8
DIMS
100
AcDbDimension
280
0
  2
*D7
  3
EZDXF
 10
0.0
 20
-154.0
 30
0.0
 11
22.5
 21
-152.15
 31
0.0
 70
32
 71
5
  1
plug space <>
100
AcDbAlignedDimension
 13
0.0
 23
-162.0
 33
0.0
 14
45.0
 24
-162.0
 34
0.0
 50
0.0
100
AcDbRotatedDimension
1001
ACAD
1000
DSTYLE
1002
{
1070
140
1040
2.5
1070
41
1040
1.5
1070
42
1040
0.8
1070
44
1040
1.0
1070
147
1040
0.6
1070
271
1070
1
1002
}
  0
LINE
  5
165
330
17
100
AcDbEntity
  8
OUTLINE
100
AcDbLine
 10
120.0
 20
-330.0
 30
0.0
 11
0.0
 21
-330.0
 31
0.0
  0
LINE
  5
166
330
17
100
AcDbEntity
  8
OUTLINE
100
AcDbLine
 10
120.0
 20
-300.0
 30
0.0
 11
120.0
 21
-330.0
 31
0.0
  0
LINE
  5
167
330
17
100
AcDbEntity
  8
OUTLINE
100
AcDbLine
 10
117.5
 20
-300.0
 30
0.0
 11
120.0
 21
-300.0
 31
0.0
  0
LINE
  5
168
330
17
100
AcDbEntity
  8
OUTLINE
100
AcDbLine
 10
117.5
 20
-327.5
 30
0.0
 11
117.5
 21
-300.0
 31
0.0
  0
LINE
  5
169
330
17
100
AcDbEntity
  8
OUTLINE
100
AcDbLine
 10
100.0
 20
-327.5
 30
0.0
 11
117.5
 21
-327.5
 31
0.0
  0
LINE
  5
16A
330
17
100
AcDbEntity
  8
OUTLINE
100
AcDbLine
 10
100.0
 20
-307.5
 30
0.0
 11
100.0
 21
-327.5
 31
0.0
  0
LINE
  5
16B
330
17
100
AcDbEntity
  8
OUTLINE
100
AcDbLine
 10
98.0
 20
-307.5
 30
0.0
 11
100.0
 21
-307.5
 31
0.0
  0
LINE
  5
16C
330
17
100
AcDbEntity
  8
OUTLINE
100
AcDbLine
 10
98.0
 20
-327.5
 30
0.0
 11
98.0
 21
-307.5
 31
0.0
  0
LINE
  5
16D
330
17
100
AcDbEntity
  8
OUTLINE
100
AcDbLine
 10
14.0
 20
-327.5
 30
0.0
 11
98.0
 21
-327.5
 31
0.0
  0
LINE
  5
16E
330
17
100
AcDbEntity
  8
OUTLINE
100
AcDbLine
 10
14.0
 20
-309.5
 30
0.0
 11
14.0
 21
-327.5
 31
0.0
  0
LINE
  5
16F
330
17
100
AcDbEntity
  8
OUTLINE
100
AcDbLine
 10
4.5
 20
-309.5
 30
0.0
 11
14.0
 21
-309.5
 31
0.0
  0
LINE
  5
170
330
17
100
AcDbEntity
  8
OUTLINE
100
AcDbLine
 10
4.5
 20
-327.5
 30
0.0
 11
4.5
 21
-309.5
 31
0.0
  0
LINE
  5
171
330
17
100
AcDbEntity
  8
OUTLINE
100
AcDbLine
 10
2.5
 20
-327.5
 30
0.0
 11
4.5
 21
-327.5
 31
0.0
  0
LINE
  5
172
330
17
100
AcDbEntity
  8
OUTLINE
100
AcDbLine
 10
2.5
 20
-310.3
 30
0.0
 11
2.5
 21
-327.5
 31
0.0
  0
LINE
  5
173
330
17
100
AcDbEntity
  8
OUTLINE
100
AcDbLine
 10
0.0
 20
-310.3
 30
0.0
 11
2.5
 21
-310.3
 31
0.0
  0
LINE
  5
174
330
17
100
AcDbEntity
  8
OUTLINE
100
AcDbLine
 10
0.0
 20
-330.0
 30
0.0
 11
0.0
 21
-310.3
 31
0.0
  0
LINE
  5
175
330
17
100
AcDbEntity
  8
OUTLINE
100
AcDbLine
 10
12.0
 20
-310.5
 30
0.0
 11
6.5
 21
-310.5
 31
0.0
  0
LINE
  5
176
330
17
100
AcDbEntity
  8
OUTLINE
100
AcDbLine
 10
12.0
 20
-312.5
 30
0.0
 11
12.0
 21
-310.5
 31
0.0
  0
LINE
  5
177
330
17
100
AcDbEntity
  8
OUTLINE
100
AcDbLine
 10
6.5
 20
-312.5
 30
0.0
 11
12.0
 21
-312.5
 31
0.0
  0
LINE
  5
178
330
17
100
AcDbEntity
  8
OUTLINE
100
AcDbLine
 10
6.5
 20
-310.5
 30
0.0
 11
6.5
 21
-312.5
 31
0.0
  0
TEXT
  5
179
330
17
100
AcDbEntity
  8
TEXT
100
AcDbText
 10
0.0
 20
-308.0
 30
0.0
 40
2.8
  1
TOP SECTION at Z=42: cable notch, saddle, board pocket
 11
0.0
 21
-308.0
 31
0.0
100
AcDbText
  0
DIMENSION
  5
17A
330
17
100
AcDbEntity
  8
DIMS
100
AcDbDimension
280
0
  2
*D8
  3
EZDXF
 10
130.0
 20
-330.0
 30
0.0
 11
128.15
 21
-315.0
 31
0.0
 70
32
 71
5
  1
depth <>
100
AcDbAlignedDimension
 13
120.0
 23
-330.0
 33
0.0
 14
120.0
 24
-300.0
 34
0.0
 50
90.0
100
AcDbRotatedDimension
1001
ACAD
1000
DSTYLE
1002
{
1070
140
1040
2.5
1070
41
1040
1.5
1070
42
1040
0.8
1070
44
1040
1.0
1070
147
1040
0.6
1070
271
1070
1
1002
}
  0
DIMENSION
  5
189
330
17
100
AcDbEntity
  8
DIMS
100
AcDbDimension
280
0
  2
*D9
  3
EZDXF
 10
-12.0
 20
-307.5
 30
0.0
 11
-14.85
 21
-303.75
 31
0.0
 70
32
 71
5
  1
PCB top <>
100
AcDbAlignedDimension
 13
-1.0
 23
-307.5
 33
0.0
 14
-1.0
 24
-300.0
 34
0.0
 50
90.0
100
AcDbRotatedDimension
1001
ACAD
1000
DSTYLE
1002
{
1070
140
1040
2.5
1070
41
1040
1.5
1070
42
1040
0.8
1070
44
1040
1.0
1070
147
1040
0.6
1070
271
1070
1
1002
}
  0
LINE
  5
198
330
17
100
AcDbEntity
  8
OUTLINE
100
AcDbLine
 10
1.7503846381456096
 20
-380.0
 30
0.0
 11
1.7503846381456096
 21
-350.0
 31
0.0
  0
LINE
  5
199
330
17
100
AcDbEntity
  8
OUTLINE
100
AcDbLine
 10
118.2496153618544
 20
-380.0
 30
0.0
 11
1.7503846381456096
 21
-380.0
 31
0.0
  0
LINE
  5
19A
330
17
100
AcDbEntity
  8
OUTLINE
100
AcDbLine
 10
118.2496153618544
 20
-350.0
 30
0.0
 11
118.2496153618544
 21
-380.0
 31
0.0
  0
LINE
  5
19B
330
17
100
AcDbEntity
  8
OUTLINE
100
AcDbLine
 10
1.7503846381456096
 20
-350.0
 30
0.0
 11
118.2496153618544
 21
-350.0
 31
0.0
  0
LINE
  5
19C
330
17
100
AcDbEntity
  8
OUTLINE
100
AcDbLine
 10
56.0
 20
-364.0
 30
0.0
 11
16.0
 21
-364.0
 31
0.0
  0
LINE
  5
19D
330
17
100
AcDbEntity
  8
OUTLINE
100
AcDbLine
 10
56.0
 20
-366.0
 30
0.0
 11
56.0
 21
-364.0
 31
0.0
  0
LINE
  5
19E
330
17
100
AcDbEntity
  8
OUTLINE
100
AcDbLine
 10
16.0
 20
-366.0
 30
0.0
 11
56.0
 21
-366.0
 31
0.0
  0
LINE
  5
19F
330
17
100
AcDbEntity
  8
OUTLINE
100
AcDbLine
 10
16.0
 20
-364.0
 30
0.0
 11
16.0
 21
-366.0
 31
0.0
  0
LINE
  5
1A0
330
17
100
AcDbEntity
  8
OUTLINE
100
AcDbLine
 10
56.0
 20
-369.0
 30
0.0
 11
16.0
 21
-369.0
 31
0.0
  0
LINE
  5
1A1
330
17
100
AcDbEntity
  8
OUTLINE
100
AcDbLine
 10
56.0
 20
-371.0
 30
0.0
 11
56.0
 21
-369.0
 31
0.0
  0
LINE
  5
1A2
330
17
100
AcDbEntity
  8
OUTLINE
100
AcDbLine
 10
16.0
 20
-371.0
 30
0.0
 11
56.0
 21
-371.0
 31
0.0
  0
LINE
  5
1A3
330
17
100
AcDbEntity
  8
OUTLINE
100
AcDbLine
 10
16.0
 20
-369.0
 30
0.0
 11
16.0
 21
-371.0
 31
0.0
  0
LINE
  5
1A4
330
17
100
AcDbEntity
  8
OUTLINE
100
AcDbLine
 10
56.0
 20
-374.0
 30
0.0
 11
16.0
 21
-374.0
 31
0.0
  0
LINE
  5
1A5
330
17
100
AcDbEntity
  8
OUTLINE
100
AcDbLine
 10
56.0
 20
-376.0
 30
0.0
 11
56.0
 21
-374.0
 31
0.0
  0
LINE
  5
1A6
330
17
100
AcDbEntity
  8
OUTLINE
100
AcDbLine
 10
16.0
 20
-376.0
 30
0.0
 11
56.0
 21
-376.0
 31
0.0
  0
LINE
  5
1A7
330
17
100
AcDbEntity
  8
OUTLINE
100
AcDbLine
 10
16.0
 20
-374.0
 30
0.0
 11
16.0
 21
-376.0
 31
0.0
  0
LWPOLYLINE
  5
1A8
330
17
100
AcDbEntity
  8
OUTLINE
100
AcDbPolyline
 90
37
 70
0
 10
106.75
 20
-366.7320508075689
 10
106.47444414763393
 20
-367.1070420404539
 10
106.14815792599484
 20
-367.43883528041266
 10
105.77783076492025
 20
-367.7206281942417
 10
105.37105500940253
 20
-367.9466435415897
 10
104.93617026343249
 20
-368.1122476183403
 10
104.4820924137459
 20
-368.21404525553214
 10
104.01813083878048
 20
-368.24994942617343
 10
103.55379755037492
 20
-368.2192240328919
 10
103.098612181134
 20
-368.1224989991992
 10
102.66190681555491
 20
-367.9617573549738
 10
102.2526346662129
 20
-367.7402945809309
 10
101.87918651747427
 20
-367.4626510455883
 10
101.54921869995694
 20
-367.13451891988785
 10
101.26949612255846
 20
-366.76262547788144
 10
101.04575358016561
 20
-366.35459517601964
 10
100.88257818047629
 20
-365.9187933386554
 10
100.78331530038675
 20
-365.4641546544784
 10
100.75
 20
-365.0
 10
100.78331530038675
 20
-364.5358453455216
 10
100.8825781804763
 20
-364.0812066613446
 10
101.04575358016561
 20
-363.64540482398036
 10
101.26949612255846
 20
-363.23737452211856
 10
101.54921869995694
 20
-362.86548108011215
 10
101.87918651747428
 20
-362.5373489544117
 10
102.2526346662129
 20
-362.2597054190691
 10
102.66190681555491
 20
-362.0382426450262
 10
103.098612181134
 20
-361.8775010008008
 10
103.55379755037492
 20
-361.7807759671081
 10
104.0181308387805
 20
-361.75005057382657
 10
104.48209241374592
 20
-361.78595474446786
 10
104.93617026343249
 20
-361.8877523816597
 10
105.37105500940253
 20
-362.0533564584103
 10
105.77783076492025
 20
-362.2793718057583
 10
106.14815792599484
 20
-362.56116471958734
 10
106.47444414763393
 20
-362.8929579595461
 10
106.75
 20
-363.2679491924311
  0
LINE
  5
1A9
330
17
100
AcDbEntity
  8
OUTLINE
100
AcDbLine
 10
106.75
 20
-366.7320508075689
 30
0.0
 11
106.75
 21
-363.2679491924311
 31
0.0
  0
TEXT
  5
1AA
330
17
100
AcDbEntity
  8
TEXT
100
AcDbText
 10
0.0
 20
-358.0
 30
0.0
 40
2.8
  1
TOP SECTION through the top wall: SMA D-hole and exhaust vents
 11
0.0
 21
-358.0
 31
0.0
100
AcDbText
  0
DIMENSION
  5
1AB
330
17
100
AcDbEntity
  8
DIMS
100
AcDbDimension
280
0
  2
*D10
  3
EZDXF
 10
0.0
 20
-388.0
 30
0.0
 11
52.0
 21
-386.15
 31
0.0
 70
32
 71
5
  1
SMA <>
100
AcDbAlignedDimension
 13
0.0
 23
-380.0
 33
0.0
 14
104.0
 24
-380.0
 34
0.0
 50
0.0
100
AcDbRotatedDimension
1001
ACAD
1000
DSTYLE
1002
{
1070
140
1040
2.5
1070
41
1040
1.5
1070
42
1040
0.8
1070
44
1040
1.0
1070
147
1040
0.6
1070
271
1070
1
1002
}
  0
DIMENSION
  5
1BA
330
17
100
AcDbEntity
  8
DIMS
100
AcDbDimension
280
0
  2
*D11
  3
EZDXF
 10
130.0
 20
-380.0
 30
0.0
 11
127.15
 21
-372.5
 31
0.0
 70
32
 71
5
  1
SMA <>
100
AcDbAlignedDimension
 13
120.0
 23
-380.0
 33
0.0
 14
120.0
 24
-365.0
 34
0.0
 50
90.0
100
AcDbRotatedDimension
1001
ACAD
1000
DSTYLE
1002
{
1070
140
1040
2.5
1070
41
1040
1.5
1070
42
1040
0.8
1070
44
1040
1.0
1070
147
1040
0.6
1070
271
1070
1
1002
}
  0
LINE
  5
1C9
330
17
100
AcDbEntity
  8
OUTLINE
100
AcDbLine
 10
248.09232921921324
 20
-20.0
 30
0.0
 11
260.0
 21
-20.0
 31
0.0
  0
LINE
  5
1CA
330
17
100
AcDbEntity
  8
OUTLINE
100
AcDbLine
 10
248.09232921921324
 20
-23.0
 30
0.0
 11
248.09232921921324
 21
-20.0
 31
0.0
  0
LINE
  5
1CB
330
17
100
AcDbEntity
  8
OUTLINE
100
AcDbLine
 10
251.9282032302755
 20
-23.0
 30
0.0
 11
248.09232921921324
 21
-23.0
 31
0.0
  0
LINE
  5
1CC
330
17
100
AcDbEntity
  8
OUTLINE
100
AcDbLine
 10
251.9282032302755
 20
-22.5
 30
0.0
 11
251.9282032302755
 21
-23.0
 31
0.0
  0
LINE
  5
1CD
330
17
100
AcDbEntity
  8
OUTLINE
100
AcDbLine
 10
260.0
 20
-22.5
 30
0.0
 11
251.9282032302755
 21
-22.5
 31
0.0
  0
LINE
  5
1CE
330
17
100
AcDbEntity
  8
OUTLINE
100
AcDbLine
 10
260.0
 20
-20.0
 30
0.0
 11
260.0
 21
-22.5
 31
0.0
  0
LINE
  5
1CF
330
17
100
AcDbEntity
  8
OUTLINE
100
AcDbLine
 10
248.0
 20
-97.5
 30
0.0
 11
260.0
 21
-97.5
 31
0.0
  0
LINE
  5
1D0
330
17
100
AcDbEntity
  8
OUTLINE
100
AcDbLine
 10
248.0
 20
-100.0
 30
0.0
 11
248.0
 21
-97.5
 31
0.0
  0
LINE
  5
1D1
330
17
100
AcDbEntity
  8
OUTLINE
100
AcDbLine
 10
260.0
 20
-100.0
 30
0.0
 11
248.0
 21
-100.0
 31
0.0
  0
LINE
  5
1D2
330
17
100
AcDbEntity
  8
OUTLINE
100
AcDbLine
 10
260.0
 20
-97.5
 30
0.0
 11
260.0
 21
-100.0
 31
0.0
  0
LINE
  5
1D3
330
17
100
AcDbEntity
  8
OUTLINE
100
AcDbLine
 10
230.0
 20
-100.0
 30
0.0
 11
230.0
 21
-20.0
 31
0.0
  0
LINE
  5
1D4
330
17
100
AcDbEntity
  8
OUTLINE
100
AcDbLine
 10
236.0
 20
-100.0
 30
0.0
 11
230.0
 21
-100.0
 31
0.0
  0
LINE
  5
1D5
330
17
100
AcDbEntity
  8
OUTLINE
100
AcDbLine
 10
236.0
 20
-97.5
 30
0.0
 11
236.0
 21
-100.0
 31
0.0
  0
LINE
  5
1D6
330
17
100
AcDbEntity
  8
OUTLINE
100
AcDbLine
 10
232.5
 20
-97.5
 30
0.0
 11
236.0
 21
-97.5
 31
0.0
  0
LINE
  5
1D7
330
17
100
AcDbEntity
  8
OUTLINE
100
AcDbLine
 10
232.5
 20
-41.0
 30
0.0
 11
232.5
 21
-97.5
 31
0.0
  0
LINE
  5
1D8
330
17
100
AcDbEntity
  8
OUTLINE
100
AcDbLine
 10
239.5
 20
-41.0
 30
0.0
 11
232.5
 21
-41.0
 31
0.0
  0
LINE
  5
1D9
330
17
100
AcDbEntity
  8
OUTLINE
100
AcDbLine
 10
239.5
 20
-35.0
 30
0.0
 11
239.5
 21
-41.0
 31
0.0
  0
LINE
  5
1DA
330
17
100
AcDbEntity
  8
OUTLINE
100
AcDbLine
 10
232.5
 20
-35.0
 30
0.0
 11
239.5
 21
-35.0
 31
0.0
  0
LINE
  5
1DB
330
17
100
AcDbEntity
  8
OUTLINE
100
AcDbLine
 10
232.5
 20
-22.5
 30
0.0
 11
232.5
 21
-35.0
 31
0.0
  0
LINE
  5
1DC
330
17
100
AcDbEntity
  8
OUTLINE
100
AcDbLine
 10
238.0717967697245
 20
-22.5
 30
0.0
 11
232.5
 21
-22.5
 31
0.0
  0
LINE
  5
1DD
330
17
100
AcDbEntity
  8
OUTLINE
100
AcDbLine
 10
238.0717967697245
 20
-23.0
 30
0.0
 11
238.0717967697245
 21
-22.5
 31
0.0
  0
LINE
  5
1DE
330
17
100
AcDbEntity
  8
OUTLINE
100
AcDbLine
 10
241.90767078078676
 20
-23.0
 30
0.0
 11
238.0717967697245
 21
-23.0
 31
0.0
  0
LINE
  5
1DF
330
17
100
AcDbEntity
  8
OUTLINE
100
AcDbLine
 10
241.90767078078676
 20
-20.0
 30
0.0
 11
241.90767078078676
 21
-23.0
 31
0.0
  0
LINE
  5
1E0
330
17
100
AcDbEntity
  8
OUTLINE
100
AcDbLine
 10
230.0
 20
-20.0
 30
0.0
 11
241.90767078078676
 21
-20.0
 31
0.0
  0
LINE
  5
1E1
330
17
100
AcDbEntity
  8
OUTLINE
100
AcDbLine
 10
235.5
 20
-40.75
 30
0.0
 11
237.5
 21
-40.75
 31
0.0
  0
LINE
  5
1E2
330
17
100
AcDbEntity
  8
OUTLINE
100
AcDbLine
 10
235.5
 20
-35.25
 30
0.0
 11
235.5
 21
-40.75
 31
0.0
  0
LINE
  5
1E3
330
17
100
AcDbEntity
  8
OUTLINE
100
AcDbLine
 10
237.5
 20
-35.25
 30
0.0
 11
235.5
 21
-35.25
 31
0.0
  0
LINE
  5
1E4
330
17
100
AcDbEntity
  8
OUTLINE
100
AcDbLine
 10
237.5
 20
-40.75
 30
0.0
 11
237.5
 21
-35.25
 31
0.0
  0
LINE
  5
1E5
330
17
100
AcDbEntity
  8
OUTLINE
100
AcDbLine
 10
246.0
 20
-97.5
 30
0.0
 11
246.0
 21
-100.0
 31
0.0
  0
LINE
  5
1E6
330
17
100
AcDbEntity
  8
OUTLINE
100
AcDbLine
 10
243.0
 20
-97.5
 30
0.0
 11
246.0
 21
-97.5
 31
0.0
  0
LINE
  5
1E7
330
17
100
AcDbEntity
  8
OUTLINE
100
AcDbLine
 10
243.0
 20
-100.0
 30
0.0
 11
243.0
 21
-97.5
 31
0.0
  0
LINE
  5
1E8
330
17
100
AcDbEntity
  8
OUTLINE
100
AcDbLine
 10
246.0
 20
-100.0
 30
0.0
 11
243.0
 21
-100.0
 31
0.0
  0
LINE
  5
1E9
330
17
100
AcDbEntity
  8
OUTLINE
100
AcDbLine
 10
241.0
 20
-97.5
 30
0.0
 11
241.0
 21
-100.0
 31
0.0
  0
LINE
  5
1EA
330
17
100
AcDbEntity
  8
OUTLINE
100
AcDbLine
 10
238.0
 20
-97.5
 30
0.0
 11
241.0
 21
-97.5
 31
0.0
  0
LINE
  5
1EB
330
17
100
AcDbEntity
  8
OUTLINE
100
AcDbLine
 10
238.0
 20
-100.0
 30
0.0
 11
238.0
 21
-97.5
 31
0.0
  0
LINE
  5
1EC
330
17
100
AcDbEntity
  8
OUTLINE
100
AcDbLine
 10
241.0
 20
-100.0
 30
0.0
 11
238.0
 21
-100.0
 31
0.0
  0
TEXT
  5
1ED
330
17
100
AcDbEntity
  8
TEXT
100
AcDbText
 10
230.0
 20
-108.0
 30
0.0
 40
2.8
  1
SIDE SECTION at X=103 (through the SMA hole and a vent)
 11
230.0
 21
-108.0
 31
0.0
100
AcDbText
  0
DIMENSION
  5
1EE
330
17
100
AcDbEntity
  8
DIMS
100
AcDbDimension
280
0
  2
*D12
  3
EZDXF
 10
230.0
 20
-108.0
 30
0.0
 11
245.0
 21
-106.15
 31
0.0
 70
32
 71
5
  1
depth <>
100
AcDbAlignedDimension
 13
230.0
 23
-100.0
 33
0.0
 14
260.0
 24
-100.0
 34
0.0
 50
0.0
100
AcDbRotatedDimension
1001
ACAD
1000
DSTYLE
1002
{
1070
140
1040
2.5
1070
41
1040
1.5
1070
42
1040
0.8
1070
44
1040
1.0
1070
147
1040
0.6
1070
271
1070
1
1002
}
  0
DIMENSION
  5
1FD
330
17
100
AcDbEntity
  8
DIMS
100
AcDbDimension
280
0
  2
*D13
  3
EZDXF
 10
268.0
 20
-100.0
 30
0.0
 11
266.15
 21
-60.0
 31
0.0
 70
32
 71
5
  1
<>
100
AcDbAlignedDimension
 13
262.0
 23
-100.0
 33
0.0
 14
262.0
 24
-20.0
 34
0.0
 50
90.0
100
AcDbRotatedDimension
1001
ACAD
1000
DSTYLE
1002
{
1070
140
1040
2.5
1070
41
1040
1.5
1070
42
1040
0.8
1070
44
1040
1.0
1070
147
1040
0.6
1070
271
1070
1
1002
}
  0
TEXT
  5
20C
330
17
100
AcDbEntity
  8
NOTES
100
AcDbText
 10
0.0
 20
-10.0
 30
0.0
 40
2.5
  1
Print back face down. SMA: 6.5 D-hole with a 6.0 flat in a 3.0 mm pad; use the 11 mm extended-thread U.FL-to-SMA pigtail.
 11
0.0
 21
-10.0
 31
0.0
100
AcDbText
  0
TEXT
  5
20D
330
17
100
AcDbEntity
  8
NOTES
100
AcDbText
 10
0.0
 20
-14.0
 30
0.0
 40
2.5
  1
Cable: lay the USB-C cable in the left-wall notch, tie it to the saddle so no load reaches the board's receptacle.
 11
0.0
 21
-14.0
 31
0.0
100
AcDbText
  0
ENDSEC
  0
SECTION
  2
OBJECTS
  0
DICTIONARY
  5
A
330
0
100
AcDbDictionary
281
1
  3
ACAD_COLOR
350
B
  3
ACAD_GROUP
350
C
  3
ACAD_LAYOUT
350
D
  3
ACAD_MATERIAL
350
E
  3
ACAD_MLEADERSTYLE
350
F
  3
ACAD_MLINESTYLE
350
10
  3
ACAD_PLOTSETTINGS
350
11
  3
ACAD_PLOTSTYLENAME
350
12
  3
ACAD_SCALELIST
350
14
  3
ACAD_TABLESTYLE
350
15
  3
ACAD_VISUALSTYLE
350
16
  3
EZDXF_META
350
2D
  0
DICTIONARY
  5
B
330
A
100
AcDbDictionary
281
1
  0
DICTIONARY
  5
C
330
A
100
AcDbDictionary
281
1
  0
DICTIONARY
  5
D
330
A
100
AcDbDictionary
281
1
  3
Model
350
1A
  3
Layout1
350
1E
  0
DICTIONARY
  5
E
330
A
100
AcDbDictionary
281
1
  3
ByBlock
350
1F
  3
ByLayer
350
20
  3
Global
350
21
  0
DICTIONARY
  5
F
330
A
100
AcDbDictionary
281
1
  3
Standard
350
2C
  0
DICTIONARY
  5
10
330
A
100
AcDbDictionary
281
1
  3
Standard
350
22
  0
DICTIONARY
  5
11
330
A
100
AcDbDictionary
281
1
  0
ACDBDICTIONARYWDFLT
  5
12
330
A
100
AcDbDictionary
281
1
  3
Normal
350
13
100
AcDbDictionaryWithDefault
340
13
  0
ACDBPLACEHOLDER
  5
13
330
12
  0
DICTIONARY
  5
14
330
A
100
AcDbDictionary
281
1
  0
DICTIONARY
  5
15
330
A
100
AcDbDictionary
281
1
  0
DICTIONARY
  5
16
330
A
100
AcDbDictionary
281
1
  3
2dWireframe
350
5A
  3
Basic
350
5B
  3
Brighten
350
5C
  3
ColorChange
350
5D
  3
Conceptual
350
5E
  3
Dim
350
5F
  3
EdgeColorOff
350
60
  3
Facepattern
350
61
  3
Flat
350
62
  3
FlatWithEdges
350
63
  3
Gouraud
350
64
  3
GouraudWithEdges
350
65
  3
Hidden
350
66
  3
JitterOff
350
67
  3
Linepattern
350
68
  3
Modeling
350
69
  3
OverhangOff
350
6A
  3
Realistic
350
6B
  3
Shaded
350
6C
  3
Shaded with edges
350
6D
  3
Shades of Gray
350
6E
  3
Sketchy
350
6F
  3
Thicken
350
70
  3
Wireframe
350
71
  3
X-Ray
350
72
  0
LAYOUT
  5
1A
330
D
100
AcDbPlotSettings
  1

  4
A3
  6

 40
7.5
 41
20.0
 42
7.5
 43
20.0
 44
420.0
 45
297.0
 46
0.0
 47
0.0
 48
0.0
 49
0.0
140
0.0
141
0.0
142
1.0
143
1.0
 70
1024
 72
1
 73
0
 74
5
  7

 75
16
 76
0
 77
2
 78
300
147
1.0
148
0.0
149
0.0
100
AcDbLayout
  1
Model
 70
1
 71
0
 10
0.0
 20
0.0
 11
420.0
 21
297.0
 12
0.0
 22
0.0
 32
0.0
 14
1e+20
 24
1e+20
 34
1e+20
 15
-1e+20
 25
-1e+20
 35
-1e+20
146
0.0
 13
0.0
 23
0.0
 33
0.0
 16
1.0
 26
0.0
 36
0.0
 17
0.0
 27
1.0
 37
0.0
 76
1
330
17
  0
LAYOUT
  5
1E
330
D
100
AcDbPlotSettings
  1

  4
A3
  6

 40
7.5
 41
20.0
 42
7.5
 43
20.0
 44
420.0
 45
297.0
 46
0.0
 47
0.0
 48
0.0
 49
0.0
140
0.0
141
0.0
142
1.0
143
1.0
 70
0
 72
1
 73
0
 74
5
  7

 75
16
 76
0
 77
2
 78
300
147
1.0
148
0.0
149
0.0
100
AcDbLayout
  1
Layout1
 70
1
 71
1
 10
0.0
 20
0.0
 11
420.0
 21
297.0
 12
0.0
 22
0.0
 32
0.0
 14
1e+20
 24
1e+20
 34
1e+20
 15
-1e+20
 25
-1e+20
 35
-1e+20
146
0.0
 13
0.0
 23
0.0
 33
0.0
 16
1.0
 26
0.0
 36
0.0
 17
0.0
 27
1.0
 37
0.0
 76
1
330
1B
  0
MATERIAL
  5
1F
102
{ACAD_REACTORS
330
E
102
}
330
E
100
AcDbMaterial
  1
ByBlock
  2

 70
0
 40
1.0
 71
1
 41
1.0
 91
-1023410177
 42
1.0
 72
1
  3

 73
1
 74
1
 75
1
 44
0.5
 73
0
 45
1.0
 46
1.0
 77
1
  4

 78
1
 79
1
170
1
 48
1.0
171
1
  6

172
1
173
1
174
1
140
1.0
141
1.0
175
1
  7

176
1
177
1
178
1
143
1.0
179
1
  8

270
1
271
1
272
1
145
1.0
146
1.0
273
1
  9

274
1
275
1
276
1
 42
1.0
 72
1
  3

 73
1
 74
1
 75
1
 94
63
  0
MATERIAL
  5
20
102
{ACAD_REACTORS
330
E
102
}
330
E
100
AcDbMaterial
  1
ByLayer
  2

 70
0
 40
1.0
 71
1
 41
1.0
 91
-1023410177
 42
1.0
 72
1
  3

 73
1
 74
1
 75
1
 44
0.5
 73
0
 45
1.0
 46
1.0
 77
1
  4

 78
1
 79
1
170
1
 48
1.0
171
1
  6

172
1
173
1
174
1
140
1.0
141
1.0
175
1
  7

176
1
177
1
178
1
143
1.0
179
1
  8

270
1
271
1
272
1
145
1.0
146
1.0
273
1
  9

274
1
275
1
276
1
 42
1.0
 72
1
  3

 73
1
 74
1
 75
1
 94
63
  0
MATERIAL
  5
21
102
{ACAD_REACTORS
330
E
102
}
330
E
100
AcDbMaterial
  1
Global
  2

 70
0
 40
1.0
 71
1
 41
1.0
 91
-1023410177
 42
1.0
 72
1
  3

 73
1
 74
1
 75
1
 44
0.5
 73
0
 45
1.0
 46
1.0
 77
1
  4

 78
1
 79
1
170
1
 48
1.0
171
1
  6

172
1
173
1
174
1
140
1.0
141
1.0
175
1
  7

176
1
177
1
178
1
143
1.0
179
1
  8

270
1
271
1
272
1
145
1.0
146
1.0
273
1
  9

274
1
275
1
276
1
 42
1.0
 72
1
  3

 73
1
 74
1
 75
1
 94
63
  0
MLINESTYLE
  5
22
102
{ACAD_REACTORS
330
10
102
}
330
10
100
AcDbMlineStyle
  2
Standard
 70
0
  3

 62
256
 51
90.0
 52
90.0
 71
2
 49
0.5
 62
256
  6
BYLAYER
 49
-0.5
 62
256
  6
BYLAYER
  0
MLEADERSTYLE
  5
2C
102
{ACAD_REACTORS
330
F
102
}
330
F
100
AcDbMLeaderStyle
179
2
170
2
171
1
172
0
 90
2
 40
0.0
 41
0.0
173
1
 91
-1056964608
 92
-2
290
1
 42
2.0
291
1
 43
8.0
  3
Standard
 44
4.0
300

342
29
174
1
175
1
176
0
178
1
 93
-1056964608
 45
4.0
292
0
297
0
 46
4.0
 94
-1056964608
 47
1.0
 49
1.0
140
1.0
294
1
141
0.0
177
0
142
1.0
295
0
296
0
143
3.75
271
0
272
9
273
9
  0
DICTIONARY
  5
2D
330
A
100
AcDbDictionary
280
1
281
1
  3
CREATED_BY_EZDXF
350
2E
  3
WRITTEN_BY_EZDXF
350
210
  0
DICTIONARYVAR
  5
2E
330
2D
100
DictionaryVariables
280
0
  1
1.4.4 @ 2026-09-04T14:38:44.681710+00:00
  0
VISUALSTYLE
  5
5A
102
{ACAD_REACTORS
330
16
102
}
330
16
100
AcDbVisualStyle
  2
2dWireframe
 70
4
 90
0
 40
0.6
 62
7
290
0
291
0
  0
VISUALSTYLE
  5
5B
102
{ACAD_REACTORS
330
16
102
}
330
16
100
AcDbVisualStyle
  2
Basic
 70
7
 90
1
 40
0.6
 62
7
290
0
291
1
  0
VISUALSTYLE
  5
5C
102
{ACAD_REACTORS
330
16
102
}
330
16
100
AcDbVisualStyle
  2
Brighten
 70
12
 90
2
 40
0.6
 62
7
290
0
291
1
  0
VISUALSTYLE
  5
5D
102
{ACAD_REACTORS
330
16
102
}
330
16
100
AcDbVisualStyle
  2
ColorChange
 70
16
 90
2
 40
0.6
 62
8
290
0
291
1
  0
VISUALSTYLE
  5
5E
102
{ACAD_REACTORS
330
16
102
}
330
16
100
AcDbVisualStyle
  2
Conceptual
 70
9
 90
3
 40
0.6
 62
7
290
0
291
0
  0
VISUALSTYLE
  5
5F
102
{ACAD_REACTORS
330
16
102
}
330
16
100
AcDbVisualStyle
  2
Dim
 70
11
 90
2
 40
0.6
 62
7
290
0
291
1
  0
VISUALSTYLE
  5
60
102
{ACAD_REACTORS
330
16
102
}
330
16
100
AcDbVisualStyle
  2
EdgeColorOff
 70
22
 90
2
 40
0.6
 62
7
290
0
291
1
  0
VISUALSTYLE
  5
61
102
{ACAD_REACTORS
330
16
102
}
330
16
100
AcDbVisualStyle
  2
Facepattern
 70
15
 90
2
 40
0.6
 62
7
290
0
291
1
  0
VISUALSTYLE
  5
62
102
{ACAD_REACTORS
330
16
102
}
330
16
100
AcDbVisualStyle
  2
Flat
 70
0
 90
2
 40
0.6
 62
7
290
0
291
1
  0
VISUALSTYLE
  5
63
102
{ACAD_REACTORS
330
16
102
}
330
16
100
AcDbVisualStyle
  2
FlatWithEdges
 70
1
 90
2
 40
0.6
 62
7
290
0
291
1
  0
VISUALSTYLE
  5
64
102
{ACAD_REACTORS
330
16
102
}
330
16
100
AcDbVisualStyle
  2
Gouraud
 70
2
 90
2
 40
0.6
 62
7
290
0
291
1
  0
VISUALSTYLE
  5
65
102
{ACAD_REACTORS
330
16
102
}
330
16
100
AcDbVisualStyle
  2
GouraudWithEdges
 70
3
 90
2
 40
0.6
 62
7
290
0
291
1
  0
VISUALSTYLE
  5
66
102
{ACAD_REACTORS
330
16
102
}
330
16
100
AcDbVisualStyle
  2
Hidden
 70
6
 90
1
 40
0.6
 62
7
290
0
291
0
  0
VISUALSTYLE
  5
67
102
{ACAD_REACTORS
330
16
102
}
330
16
100
AcDbVisualStyle
  2
JitterOff
 70
20
 90
2
 40
0.6
 62
7
290
0
291
1
  0
VISUALSTYLE
  5
68
102
{ACAD_REACTORS
330
16
102
}
330
16
100
AcDbVisualStyle
  2
Linepattern
 70
14
 90
2
 40
0.6
 62
7
290
0
291
1
  0
VISUALSTYLE
  5
69
102
{ACAD_REACTORS
330
16
102
}
330
16
100
AcDbVisualStyle
  2
Modeling
 70
10
 90
2
 40
0.6
 62
7
290
0
291
0
  0
VISUALSTYLE
  5
6A
102
{ACAD_REACTORS
330
16
102
}
330
16
100
AcDbVisualStyle
  2
OverhangOff
 70
21
 90
2
 40
0.6
 62
7
290
0
291
1
  0
VISUALSTYLE
  5
6B
102
{ACAD_REACTORS
330
16
102
}
330
16
100
AcDbVisualStyle
  2
Realistic
 70
8
 90
2
 40
0.6
 62
7
290
0
291
0
  0
VISUALSTYLE
  5
6C
102
{ACAD_REACTORS
330
16
102
}
330
16
100
AcDbVisualStyle
  2
Shaded
 70
27
 90
2
 40
0.6
 62
7
290
0
291
0
  0
VISUALSTYLE
  5
6D
102
{ACAD_REACTORS
330
16
102
}
330
16
100
AcDbVisualStyle
  2
Shaded with edges
 70
26
 90
2
 40
0.6
 62
7
290
0
291
0
  0
VISUALSTYLE
  5
6E
102
{ACAD_REACTORS
330
16
102
}
330
16
100
AcDbVisualStyle
  2
Shades of Gray
 70
23
 90
2
 40
0.6
 62
7
290
0
291
0
  0
VISUALSTYLE
  5
6F
102
{ACAD_REACTORS
330
16
102
}
330
16
100
AcDbVisualStyle
  2
Sketchy
 70
24
 90
1
 40
0.6
 62
7
290
0
291
0
  0
VISUALSTYLE
  5
70
102
{ACAD_REACTORS
330
16
102
}
330
16
100
AcDbVisualStyle
  2
Thicken
 70
13
 90
2
 40
0.6
 62
7
290
0
291
1
  0
VISUALSTYLE
  5
71
102
{ACAD_REACTORS
330
16
102
}
330
16
100
AcDbVisualStyle
  2
Wireframe
 70
5
 90
0
 40
0.6
 62
7
290
0
291
0
  0
VISUALSTYLE
  5
72
102
{ACAD_REACTORS
330
16
102
}
330
16
100
AcDbVisualStyle
  2
X-Ray
 70
25
 90
2
 40
0.5
 62
7
290
0
291
0
  0
DICTIONARYVAR
  5
210
330
2D
100
DictionaryVariables
280
0
  1
1.4.4 @ 2026-09-04T14:38:44.775964+00:00
  0
ENDSEC
  0
EOF
