  0
SECTION
  2
HEADER
  9
$ACADVER
  1
AC1024
  9
$ACADMAINTVER
 70
6
  9
$DWGCODEPAGE
  3
ANSI_1252
  9
$LASTSAVEDBY
  1
ezdxf
  9
$INSBASE
 10
0.0
 20
0.0
 30
0.0
  9
$EXTMIN
 10
1e+20
 20
1e+20
 30
1e+20
  9
$EXTMAX
 10
-1e+20
 20
-1e+20
 30
-1e+20
  9
$LIMMIN
 10
0.0
 20
0.0
  9
$LIMMAX
 10
420.0
 20
297.0
  9
$ORTHOMODE
 70
0
  9
$REGENMODE
 70
1
  9
$FILLMODE
 70
1
  9
$QTEXTMODE
 70
0
  9
$MIRRTEXT
 70
1
  9
$LTSCALE
 40
1.0
  9
$ATTMODE
 70
1
  9
$TEXTSIZE
 40
2.5
  9
$TRACEWID
 40
1.0
  9
$TEXTSTYLE
  7
OpenSans
  9
$CLAYER
  8
0
  9
$CELTYPE
  6
ByLayer
  9
$CECOLOR
 62
256
  9
$CELTSCALE
 40
1.0
  9
$DISPSILH
 70
0
  9
$DIMSCALE
 40
1.0
  9
$DIMASZ
 40
0.175
  9
$DIMEXO
 40
0.125
  9
$DIMDLI
 40
3.75
  9
$DIMRND
 40
0.0
  9
$DIMDLE
 40
0.0
  9
$DIMEXE
 40
0.375
  9
$DIMTP
 40
0.0
  9
$DIMTM
 40
0.0
  9
$DIMTXT
 40
0.25
  9
$DIMCEN
 40
2.5
  9
$DIMTSZ
 40
0.0
  9
$DIMTOL
 70
0
  9
$DIMLIM
 70
0
  9
$DIMTIH
 70
0
  9
$DIMTOH
 70
0
  9
$DIMSE1
 70
0
  9
$DIMSE2
 70
0
  9
$DIMTAD
 70
1
  9
$DIMZIN
 70
12
  9
$DIMBLK
  1
ARCHTICK
  9
$DIMASO
 70
1
  9
$DIMSHO
 70
1
  9
$DIMPOST
  1

  9
$DIMAPOST
  1

  9
$DIMALT
 70
0
  9
$DIMALTD
 70
3
  9
$DIMALTF
 40
0.03937007874
  9
$DIMLFAC
 40
100.0
  9
$DIMTOFL
 70
1
  9
$DIMTVP
 40
0.0
  9
$DIMTIX
 70
0
  9
$DIMSOXD
 70
0
  9
$DIMSAH
 70
0
  9
$DIMBLK1
  1

  9
$DIMBLK2
  1

  9
$DIMSTYLE
  2
EZDXF
  9
$DIMCLRD
 70
0
  9
$DIMCLRE
 70
0
  9
$DIMCLRT
 70
0
  9
$DIMTFAC
 40
0.5
  9
$DIMGAP
 40
0.1
  9
$DIMJUST
 70
0
  9
$DIMSD1
 70
0
  9
$DIMSD2
 70
0
  9
$DIMTOLJ
 70
0
  9
$DIMTZIN
 70
8
  9
$DIMALTZ
 70
0
  9
$DIMALTTZ
 70
0
  9
$DIMUPT
 70
1
  9
$DIMDEC
 70
2
  9
$DIMTDEC
 70
2
  9
$DIMALTU
 70
2
  9
$DIMALTTD
 70
3
  9
$DIMTXSTY
  7
OpenSansCondensed-Light
  9
$DIMAUNIT
 70
0
  9
$DIMADEC
 70
2
  9
$DIMALTRND
 40
0.0
  9
$DIMAZIN
 70
3
  9
$DIMDSEP
 70
46
  9
$DIMATFIT
 70
3
  9
$DIMFRAC
 70
0
  9
$DIMLDRBLK
  1

  9
$DIMLUNIT
 70
2
  9
$DIMLWD
 70
-2
  9
$DIMLWE
 70
-2
  9
$DIMTMOVE
 70
2
  9
$DIMFXL
 40
1.0
  9
$DIMFXLON
 70
0
  9
$DIMJOGANG
 40
0.785398163397
  9
$DIMTFILL
 70
0
  9
$DIMTFILLCLR
 70
0
  9
$DIMARCSYM
 70
0
  9
$DIMLTYPE
  6

  9
$DIMLTEX1
  6

  9
$DIMLTEX2
  6

  9
$DIMTXTDIRECTION
 70
0
  9
$LUNITS
 70
2
  9
$LUPREC
 70
4
  9
$SKETCHINC
 40
1.0
  9
$FILLETRAD
 40
10.0
  9
$AUNITS
 70
0
  9
$AUPREC
 70
2
  9
$MENU
  1
.
  9
$ELEVATION
 40
0.0
  9
$PELEVATION
 40
0.0
  9
$THICKNESS
 40
0.0
  9
$LIMCHECK
 70
0
  9
$CHAMFERA
 40
0.0
  9
$CHAMFERB
 40
0.0
  9
$CHAMFERC
 40
0.0
  9
$CHAMFERD
 40
0.0
  9
$SKPOLY
 70
0
  9
$TDCREATE
 40
2461304.1540856482
  9
$TDUCREATE
 40
2458532.153996898
  9
$TDUPDATE
 40
2461304.1540856482
  9
$TDUUPDATE
 40
2458532.1544311
  9
$TDINDWG
 40
0.0
  9
$TDUSRTIMER
 40
0.0
  9
$USRTIMER
 70
1
  9
$ANGBASE
 50
0.0
  9
$ANGDIR
 70
0
  9
$PDMODE
 70
0
  9
$PDSIZE
 40
0.0
  9
$PLINEWID
 40
0.0
  9
$SPLFRAME
 70
0
  9
$SPLINETYPE
 70
6
  9
$SPLINESEGS
 70
8
  9
$HANDSEED
  5
212
  9
$SURFTAB1
 70
6
  9
$SURFTAB2
 70
6
  9
$SURFTYPE
 70
6
  9
$SURFU
 70
6
  9
$SURFV
 70
6
  9
$UCSBASE
  2

  9
$UCSNAME
  2

  9
$UCSORG
 10
0.0
 20
0.0
 30
0.0
  9
$UCSXDIR
 10
1.0
 20
0.0
 30
0.0
  9
$UCSYDIR
 10
0.0
 20
1.0
 30
0.0
  9
$UCSORTHOREF
  2

  9
$UCSORTHOVIEW
 70
0
  9
$UCSORGTOP
 10
0.0
 20
0.0
 30
0.0
  9
$UCSORGBOTTOM
 10
0.0
 20
0.0
 30
0.0
  9
$UCSORGLEFT
 10
0.0
 20
0.0
 30
0.0
  9
$UCSORGRIGHT
 10
0.0
 20
0.0
 30
0.0
  9
$UCSORGFRONT
 10
0.0
 20
0.0
 30
0.0
  9
$UCSORGBACK
 10
0.0
 20
0.0
 30
0.0
  9
$PUCSBASE
  2

  9
$PUCSNAME
  2

  9
$PUCSORG
 10
0.0
 20
0.0
 30
0.0
  9
$PUCSXDIR
 10
1.0
 20
0.0
 30
0.0
  9
$PUCSYDIR
 10
0.0
 20
1.0
 30
0.0
  9
$PUCSORTHOREF
  2

  9
$PUCSORTHOVIEW
 70
0
  9
$PUCSORGTOP
 10
0.0
 20
0.0
 30
0.0
  9
$PUCSORGBOTTOM
 10
0.0
 20
0.0
 30
0.0
  9
$PUCSORGLEFT
 10
0.0
 20
0.0
 30
0.0
  9
$PUCSORGRIGHT
 10
0.0
 20
0.0
 30
0.0
  9
$PUCSORGFRONT
 10
0.0
 20
0.0
 30
0.0
  9
$PUCSORGBACK
 10
0.0
 20
0.0
 30
0.0
  9
$USERI1
 70
0
  9
$USERI2
 70
0
  9
$USERI3
 70
0
  9
$USERI4
 70
0
  9
$USERI5
 70
0
  9
$USERR1
 40
0.0
  9
$USERR2
 40
0.0
  9
$USERR3
 40
0.0
  9
$USERR4
 40
0.0
  9
$USERR5
 40
0.0
  9
$WORLDVIEW
 70
1
  9
$SHADEDGE
 70
3
  9
$SHADEDIF
 70
70
  9
$TILEMODE
 70
1
  9
$MAXACTVP
 70
64
  9
$PINSBASE
 10
0.0
 20
0.0
 30
0.0
  9
$PLIMCHECK
 70
0
  9
$PEXTMIN
 10
1e+20
 20
1e+20
 30
1e+20
  9
$PEXTMAX
 10
-1e+20
 20
-1e+20
 30
-1e+20
  9
$PLIMMIN
 10
0.0
 20
0.0
  9
$PLIMMAX
 10
420.0
 20
297.0
  9
$UNITMODE
 70
0
  9
$VISRETAIN
 70
1
  9
$PLINEGEN
 70
0
  9
$PSLTSCALE
 70
1
  9
$TREEDEPTH
 70
3020
  9
$CMLSTYLE
  2
Standard
  9
$CMLJUST
 70
0
  9
$CMLSCALE
 40
20.0
  9
$PROXYGRAPHICS
 70
1
  9
$MEASUREMENT
 70
1
  9
$CELWEIGHT
370
-1
  9
$ENDCAPS
280
0
  9
$JOINSTYLE
280
0
  9
$LWDISPLAY
290
0
  9
$INSUNITS
 70
6
  9
$HYPERLINKBASE
  1

  9
$STYLESHEET
  1

  9
$XEDIT
290
1
  9
$CEPSNTYPE
380
0
  9
$PSTYLEMODE
290
1
  9
$FINGERPRINTGUID
  2
{B8BCF7DB-909B-44BC-8F8C-3FE68C9967F0}
  9
$VERSIONGUID
  2
{0E3FEB39-0707-4FC5-ACED-C7639819E6E1}
  9
$EXTNAMES
290
1
  9
$PSVPSCALE
 40
0.0
  9
$OLESTARTUP
290
0
  9
$SORTENTS
280
127
  9
$INDEXCTL
280
0
  9
$HIDETEXT
280
1
  9
$XCLIPFRAME
280
1
  9
$HALOGAP
280
0
  9
$OBSCOLOR
 70
257
  9
$OBSLTYPE
280
0
  9
$INTERSECTIONDISPLAY
280
0
  9
$INTERSECTIONCOLOR
 70
257
  9
$DIMASSOC
280
2
  9
$PROJECTNAME
  1

  9
$CAMERADISPLAY
290
0
  9
$LENSLENGTH
 40
50.0
  9
$CAMERAHEIGHT
 40
0.0
  9
$STEPSPERSEC
 40
24.0
  9
$STEPSIZE
 40
100.0
  9
$3DDWFPREC
 40
2.0
  9
$PSOLWIDTH
 40
0.005
  9
$PSOLHEIGHT
 40
0.08
  9
$LOFTANG1
 40
1.570796326795
  9
$LOFTANG2
 40
1.570796326795
  9
$LOFTMAG1
 40
0.0
  9
$LOFTMAG2
 40
0.0
  9
$LOFTPARAM
 70
7
  9
$LOFTNORMALS
280
1
  9
$LATITUDE
 40
37.795
  9
$LONGITUDE
 40
-122.394
  9
$NORTHDIRECTION
 40
0.0
  9
$TIMEZONE
 70
-8000
  9
$LIGHTGLYPHDISPLAY
280
1
  9
$TILEMODELIGHTSYNCH
280
1
  9
$CMATERIAL
347
20
  9
$SOLIDHIST
280
0
  9
$SHOWHIST
280
1
  9
$DWFFRAME
280
2
  9
$DGNFRAME
280
2
  9
$REALWORLDSCALE
290
1
  9
$INTERFERECOLOR
 62
256
  9
$CSHADOW
280
0
  9
$SHADOWPLANELOCATION
 40
0.0
  0
ENDSEC
  0
SECTION
  2
CLASSES
  0
CLASS
  1
ACDBDICTIONARYWDFLT
  2
AcDbDictionaryWithDefault
  3
ObjectDBX Classes
 90
0
 91
0
280
0
281
0
  0
CLASS
  1
SUN
  2
AcDbSun
  3
SCENEOE
 90
1153
 91
0
280
0
281
0
  0
CLASS
  1
VISUALSTYLE
  2
AcDbVisualStyle
  3
ObjectDBX Classes
 90
4095
 91
0
280
0
281
0
  0
CLASS
  1
MATERIAL
  2
AcDbMaterial
  3
ObjectDBX Classes
 90
1153
 91
0
280
0
281
0
  0
CLASS
  1
SCALE
  2
AcDbScale
  3
ObjectDBX Classes
 90
1153
 91
0
280
0
281
0
  0
CLASS
  1
TABLESTYLE
  2
AcDbTableStyle
  3
ObjectDBX Classes
 90
4095
 91
0
280
0
281
0
  0
CLASS
  1
MLEADERSTYLE
  2
AcDbMLeaderStyle
  3
ACDB_MLEADERSTYLE_CLASS
 90
4095
 91
0
280
0
281
0
  0
CLASS
  1
DICTIONARYVAR
  2
AcDbDictionaryVar
  3
ObjectDBX Classes
 90
0
 91
0
280
0
281
0
  0
CLASS
  1
CELLSTYLEMAP
  2
AcDbCellStyleMap
  3
ObjectDBX Classes
 90
1152
 91
0
280
0
281
0
  0
CLASS
  1
MENTALRAYRENDERSETTINGS
  2
AcDbMentalRayRenderSettings
  3
SCENEOE
 90
1024
 91
0
280
0
281
0
  0
CLASS
  1
ACDBDETAILVIEWSTYLE
  2
AcDbDetailViewStyle
  3
ObjectDBX Classes
 90
1025
 91
0
280
0
281
0
  0
CLASS
  1
ACDBSECTIONVIEWSTYLE
  2
AcDbSectionViewStyle
  3
ObjectDBX Classes
 90
1025
 91
0
280
0
281
0
  0
CLASS
  1
RASTERVARIABLES
  2
AcDbRasterVariables
  3
ISM
 90
0
 91
0
280
0
281
0
  0
CLASS
  1
LAYOUT
  2
AcDbLayout
  3
ObjectDBX Classes
 90
0
 91
0
280
0
281
0
  0
CLASS
  1
ACDBPLACEHOLDER
  2
AcDbPlaceHolder
  3
ObjectDBX Classes
 90
0
 91
0
280
0
281
0
  0
ENDSEC
  0
SECTION
  2
TABLES
  0
TABLE
  2
VPORT
  5
8
330
0
100
AcDbSymbolTable
 70
1
  0
VPORT
  5
23
330
8
100
AcDbSymbolTableRecord
100
AcDbViewportTableRecord
  2
*Active
 70
0
 10
0.0
 20
0.0
 11
1.0
 21
1.0
 12
0.0
 22
0.0
 13
0.0
 23
0.0
 14
0.5
 24
0.5
 15
0.5
 25
0.5
 16
0.0
 26
0.0
 36
1.0
 17
0.0
 27
0.0
 37
0.0
 40
1000.0
 41
1.34
 42
50.0
 43
0.0
 44
0.0
 50
0.0
 51
0.0
 71
0
 72
1000
 73
1
 74
3
 75
0
 76
0
 77
0
 78
0
281
0
 65
0
146
0.0
  0
ENDTAB
  0
TABLE
  2
LTYPE
  5
2
330
0
100
AcDbSymbolTable
 70
21
  0
LTYPE
  5
24
330
2
100
AcDbSymbolTableRecord
100
AcDbLinetypeTableRecord
  2
ByBlock
 70
0
  3

 72
65
 73
0
 40
0.0
  0
LTYPE
  5
25
330
2
100
AcDbSymbolTableRecord
100
AcDbLinetypeTableRecord
  2
ByLayer
 70
0
  3

 72
65
 73
0
 40
0.0
  0
LTYPE
  5
26
330
2
100
AcDbSymbolTableRecord
100
AcDbLinetypeTableRecord
  2
Continuous
 70
0
  3

 72
65
 73
0
 40
0.0
  0
LTYPE
  5
2F
330
2
100
AcDbSymbolTableRecord
100
AcDbLinetypeTableRecord
  2
CENTER
 70
0
  3
Center ____ _ ____ _ ____ _ ____ _ ____ _ ____
 72
65
 73
4
 40
5.08
 49
3.175
 74
0
 49
-0.635
 74
0
 49
0.635
 74
0
 49
-0.635
 74
0
  0
LTYPE
  5
30
330
2
100
AcDbSymbolTableRecord
100
AcDbLinetypeTableRecord
  2
CENTERX2
 70
0
  3
Center (2x) ________  __  ________  __  ________
 72
65
 73
4
 40
8.89
 49
6.35
 74
0
 49
-0.635
 74
0
 49
1.27
 74
0
 49
-0.635
 74
0
  0
LTYPE
  5
31
330
2
100
AcDbSymbolTableRecord
100
AcDbLinetypeTableRecord
  2
CENTER2
 70
0
  3
Center (.5x) ____ _ ____ _ ____ _ ____ _ ____
 72
65
 73
4
 40
2.54
 49
1.587
 74
0
 49
-0.318
 74
0
 49
0.318
 74
0
 49
-0.318
 74
0
  0
LTYPE
  5
32
330
2
100
AcDbSymbolTableRecord
100
AcDbLinetypeTableRecord
  2
DASHED
 70
0
  3
Dashed __ __ __ __ __ __ __ __ __ __ __ __ __ _
 72
65
 73
2
 40
1.524
 49
1.27
 74
0
 49
-0.254
 74
0
  0
LTYPE
  5
33
330
2
100
AcDbSymbolTableRecord
100
AcDbLinetypeTableRecord
  2
DASHEDX2
 70
0
  3
Dashed (2x) ____  ____  ____  ____  ____  ____
 72
65
 73
2
 40
3.048
 49
2.54
 74
0
 49
-0.508
 74
0
  0
LTYPE
  5
34
330
2
100
AcDbSymbolTableRecord
100
AcDbLinetypeTableRecord
  2
DASHED2
 70
0
  3
Dashed (.5x) _ _ _ _ _ _ _ _ _ _ _ _ _ _
 72
65
 73
2
 40
0.762
 49
0.635
 74
0
 49
-0.127
 74
0
  0
LTYPE
  5
35
330
2
100
AcDbSymbolTableRecord
100
AcDbLinetypeTableRecord
  2
PHANTOM
 70
0
  3
Phantom ______  __  __  ______  __  __  ______
 72
65
 73
6
 40
6.35
 49
3.175
 74
0
 49
-0.635
 74
0
 49
0.635
 74
0
 49
-0.635
 74
0
 49
0.635
 74
0
 49
-0.635
 74
0
  0
LTYPE
  5
36
330
2
100
AcDbSymbolTableRecord
100
AcDbLinetypeTableRecord
  2
PHANTOMX2
 70
0
  3
Phantom (2x)____________    ____    ____    ____________
 72
65
 73
6
 40
10.795
 49
6.35
 74
0
 49
-0.635
 74
0
 49
1.27
 74
0
 49
-0.635
 74
0
 49
1.27
 74
0
 49
-0.635
 74
0
  0
LTYPE
  5
37
330
2
100
AcDbSymbolTableRecord
100
AcDbLinetypeTableRecord
  2
PHANTOM2
 70
0
  3
Phantom (.5x) ___ _ _ ___ _ _ ___ _ _ ___ _ _ ___
 72
65
 73
6
 40
3.175
 49
1.587
 74
0
 49
-0.318
 74
0
 49
0.318
 74
0
 49
-0.318
 74
0
 49
0.318
 74
0
 49
-0.318
 74
0
  0
LTYPE
  5
38
330
2
100
AcDbSymbolTableRecord
100
AcDbLinetypeTableRecord
  2
DASHDOT
 70
0
  3
Dash dot __ . __ . __ . __ . __ . __ . __ . __
 72
65
 73
4
 40
3.556
 49
2.54
 74
0
 49
-0.508
 74
0
 49
0.0
 74
0
 49
-0.508
 74
0
  0
LTYPE
  5
39
330
2
100
AcDbSymbolTableRecord
100
AcDbLinetypeTableRecord
  2
DASHDOTX2
 70
0
  3
Dash dot (2x) ____  .  ____  .  ____  .  ____
 72
65
 73
4
 40
6.096
 49
5.08
 74
0
 49
-0.508
 74
0
 49
0.0
 74
0
 49
-0.508
 74
0
  0
LTYPE
  5
3A
330
2
100
AcDbSymbolTableRecord
100
AcDbLinetypeTableRecord
  2
DASHDOT2
 70
0
  3
Dash dot (.5x) _ . _ . _ . _ . _ . _ . _ . _
 72
65
 73
4
 40
1.778
 49
1.27
 74
0
 49
-0.254
 74
0
 49
0.0
 74
0
 49
-0.254
 74
0
  0
LTYPE
  5
3B
330
2
100
AcDbSymbolTableRecord
100
AcDbLinetypeTableRecord
  2
DOT
 70
0
  3
Dot .  .  .  .  .  .  .  .  .  .  .  .  .  .  .  .
 72
65
 73
2
 40
0.508
 49
0.0
 74
0
 49
-0.508
 74
0
  0
LTYPE
  5
3C
330
2
100
AcDbSymbolTableRecord
100
AcDbLinetypeTableRecord
  2
DOTX2
 70
0
  3
Dot (2x) .    .    .    .    .    .    .    . 
 72
65
 73
2
 40
1.016
 49
0.0
 74
0
 49
-1.016
 74
0
  0
LTYPE
  5
3D
330
2
100
AcDbSymbolTableRecord
100
AcDbLinetypeTableRecord
  2
DOT2
 70
0
  3
Dot (.5) . . . . . . . . . . . . . . . . . . . 
 72
65
 73
2
 40
0.254
 49
0.0
 74
0
 49
-0.254
 74
0
  0
LTYPE
  5
3E
330
2
100
AcDbSymbolTableRecord
100
AcDbLinetypeTableRecord
  2
DIVIDE
 70
0
  3
Divide __ . . __ . . __ . . __ . . __ . . __
 72
65
 73
6
 40
4.064
 49
2.54
 74
0
 49
-0.508
 74
0
 49
0.0
 74
0
 49
-0.508
 74
0
 49
0.0
 74
0
 49
-0.508
 74
0
  0
LTYPE
  5
3F
330
2
100
AcDbSymbolTableRecord
100
AcDbLinetypeTableRecord
  2
DIVIDEX2
 70
0
  3
Divide (2x) ____  . .  ____  . .  ____  . .  ____
 72
65
 73
6
 40
6.604
 49
5.08
 74
0
 49
-0.508
 74
0
 49
0.0
 74
0
 49
-0.508
 74
0
 49
0.0
 74
0
 49
-0.508
 74
0
  0
LTYPE
  5
40
330
2
100
AcDbSymbolTableRecord
100
AcDbLinetypeTableRecord
  2
DIVIDE2
 70
0
  3
Divide(.5x) _ . _ . _ . _ . _ . _ . _ . _
 72
65
 73
6
 40
2.032
 49
1.27
 74
0
 49
-0.254
 74
0
 49
0.0
 74
0
 49
-0.254
 74
0
 49
0.0
 74
0
 49
-0.254
 74
0
  0
ENDTAB
  0
TABLE
  2
LAYER
  5
1
330
0
100
AcDbSymbolTable
 70
7
  0
LAYER
  5
27
330
1
100
AcDbSymbolTableRecord
100
AcDbLayerTableRecord
  2
0
 70
0
 62
7
  6
Continuous
370
-3
390
13
347
21
  0
LAYER
  5
28
330
1
100
AcDbSymbolTableRecord
100
AcDbLayerTableRecord
  2
Defpoints
 70
0
 62
7
  6
Continuous
290
0
370
-3
390
13
347
21
  0
LAYER
  5
8A
330
1
100
AcDbSymbolTableRecord
100
AcDbLayerTableRecord
  2
OUTLINE
 70
0
 62
7
  6
Continuous
370
-3
390
13
347
21
  0
LAYER
  5
8B
330
1
100
AcDbSymbolTableRecord
100
AcDbLayerTableRecord
  2
REF
 70
0
 62
8
  6
Continuous
370
-3
390
13
347
21
  0
LAYER
  5
8C
330
1
100
AcDbSymbolTableRecord
100
AcDbLayerTableRecord
  2
DIMS
 70
0
 62
1
  6
Continuous
370
-3
390
13
347
21
  0
LAYER
  5
8D
330
1
100
AcDbSymbolTableRecord
100
AcDbLayerTableRecord
  2
TEXT
 70
0
 62
3
  6
Continuous
370
-3
390
13
347
21
  0
LAYER
  5
8E
330
1
100
AcDbSymbolTableRecord
100
AcDbLayerTableRecord
  2
NOTES
 70
0
 62
4
  6
Continuous
370
-3
390
13
347
21
  0
ENDTAB
  0
TABLE
  2
STYLE
  5
5
330
0
100
AcDbSymbolTable
 70
26
  0
STYLE
  5
29
330
5
100
AcDbSymbolTableRecord
100
AcDbTextStyleTableRecord
  2
Standard
 70
0
 40
0.0
 41
1.0
 50
0.0
 71
0
 42
2.5
  3
txt
  4

  0
STYLE
  5
41
330
5
100
AcDbSymbolTableRecord
100
AcDbTextStyleTableRecord
  2
OpenSans-Light
 70
0
 40
0.0
 41
1.0
 50
0.0
 71
0
 42
2.5
  3
OpenSans-Light.ttf
  4

  0
STYLE
  5
42
330
5
100
AcDbSymbolTableRecord
100
AcDbTextStyleTableRecord
  2
OpenSans-Light-Italic
 70
0
 40
0.0
 41
1.0
 50
0.0
 71
0
 42
2.5
  3
OpenSans-LightItalic.ttf
  4

  0
STYLE
  5
43
330
5
100
AcDbSymbolTableRecord
100
AcDbTextStyleTableRecord
  2
OpenSans
 70
0
 40
0.0
 41
1.0
 50
0.0
 71
0
 42
2.5
  3
OpenSans-Regular.ttf
  4

  0
STYLE
  5
44
330
5
100
AcDbSymbolTableRecord
100
AcDbTextStyleTableRecord
  2
OpenSans-Italic
 70
0
 40
0.0
 41
1.0
 50
0.0
 71
0
 42
2.5
  3
OpenSans-Italic.ttf
  4

  0
STYLE
  5
45
330
5
100
AcDbSymbolTableRecord
100
AcDbTextStyleTableRecord
  2
OpenSans-SemiBold
 70
0
 40
0.0
 41
1.0
 50
0.0
 71
0
 42
2.5
  3
OpenSans-SemiBold.ttf
  4

  0
STYLE
  5
46
330
5
100
AcDbSymbolTableRecord
100
AcDbTextStyleTableRecord
  2
OpenSans-SemiBoldItalic
 70
0
 40
0.0
 41
1.0
 50
0.0
 71
0
 42
2.5
  3
OpenSans-SemiBoldItalic.ttf
  4

  0
STYLE
  5
47
330
5
100
AcDbSymbolTableRecord
100
AcDbTextStyleTableRecord
  2
OpenSans-Bold
 70
0
 40
0.0
 41
1.0
 50
0.0
 71
0
 42
2.5
  3
OpenSans-Bold.ttf
  4

  0
STYLE
  5
48
330
5
100
AcDbSymbolTableRecord
100
AcDbTextStyleTableRecord
  2
OpenSans-BoldItalic
 70
0
 40
0.0
 41
1.0
 50
0.0
 71
0
 42
2.5
  3
OpenSans-BoldItalic.ttf
  4

  0
STYLE
  5
49
330
5
100
AcDbSymbolTableRecord
100
AcDbTextStyleTableRecord
  2
OpenSans-ExtraBold
 70
0
 40
0.0
 41
1.0
 50
0.0
 71
0
 42
2.5
  3
OpenSans-ExtraBold.ttf
  4

  0
STYLE
  5
4A
330
5
100
AcDbSymbolTableRecord
100
AcDbTextStyleTableRecord
  2
OpenSans-ExtraBoldItalic
 70
0
 40
0.0
 41
1.0
 50
0.0
 71
0
 42
2.5
  3
OpenSans-ExtraBoldItalic.ttf
  4

  0
STYLE
  5
4B
330
5
100
AcDbSymbolTableRecord
100
AcDbTextStyleTableRecord
  2
OpenSansCondensed-Bold
 70
0
 40
0.0
 41
1.0
 50
0.0
 71
0
 42
2.5
  3
OpenSansCondensed-Bold.ttf
  4

  0
STYLE
  5
4C
330
5
100
AcDbSymbolTableRecord
100
AcDbTextStyleTableRecord
  2
OpenSansCondensed-Light
 70
0
 40
0.0
 41
1.0
 50
0.0
 71
0
 42
2.5
  3
OpenSansCondensed-Light.ttf
  4

  0
STYLE
  5
4D
330
5
100
AcDbSymbolTableRecord
100
AcDbTextStyleTableRecord
  2
OpenSansCondensed-Italic
 70
0
 40
0.0
 41
1.0
 50
0.0
 71
0
 42
2.5
  3
OpenSansCondensed-LightItalic.ttf
  4

  0
STYLE
  5
4E
330
5
100
AcDbSymbolTableRecord
100
AcDbTextStyleTableRecord
  2
LiberationSans
 70
0
 40
0.0
 41
1.0
 50
0.0
 71
0
 42
2.5
  3
LiberationSans-Regular.ttf
  4

  0
STYLE
  5
4F
330
5
100
AcDbSymbolTableRecord
100
AcDbTextStyleTableRecord
  2
LiberationSans-Bold
 70
0
 40
0.0
 41
1.0
 50
0.0
 71
0
 42
2.5
  3
LiberationSans-Bold.ttf
  4

  0
STYLE
  5
50
330
5
100
AcDbSymbolTableRecord
100
AcDbTextStyleTableRecord
  2
LiberationSans-BoldItalic
 70
0
 40
0.0
 41
1.0
 50
0.0
 71
0
 42
2.5
  3
LiberationSans-BoldItalic.ttf
  4

  0
STYLE
  5
51
330
5
100
AcDbSymbolTableRecord
100
AcDbTextStyleTableRecord
  2
LiberationSans-Italic
 70
0
 40
0.0
 41
1.0
 50
0.0
 71
0
 42
2.5
  3
LiberationSans-Italic.ttf
  4

  0
STYLE
  5
52
330
5
100
AcDbSymbolTableRecord
100
AcDbTextStyleTableRecord
  2
LiberationSerif
 70
0
 40
0.0
 41
1.0
 50
0.0
 71
0
 42
2.5
  3
LiberationSerif-Regular.ttf
  4

  0
STYLE
  5
53
330
5
100
AcDbSymbolTableRecord
100
AcDbTextStyleTableRecord
  2
LiberationSerif-Bold
 70
0
 40
0.0
 41
1.0
 50
0.0
 71
0
 42
2.5
  3
LiberationSerif-Bold.ttf
  4

  0
STYLE
  5
54
330
5
100
AcDbSymbolTableRecord
100
AcDbTextStyleTableRecord
  2
LiberationSerif-BoldItalic
 70
0
 40
0.0
 41
1.0
 50
0.0
 71
0
 42
2.5
  3
LiberationSerif-BoldItalic.ttf
  4

  0
STYLE
  5
55
330
5
100
AcDbSymbolTableRecord
100
AcDbTextStyleTableRecord
  2
LiberationSerif-Italic
 70
0
 40
0.0
 41
1.0
 50
0.0
 71
0
 42
2.5
  3
LiberationSerif-Italic.ttf
  4

  0
STYLE
  5
56
330
5
100
AcDbSymbolTableRecord
100
AcDbTextStyleTableRecord
  2
LiberationMono
 70
0
 40
0.0
 41
1.0
 50
0.0
 71
0
 42
2.5
  3
LiberationMono-Regular.ttf
  4

  0
STYLE
  5
57
330
5
100
AcDbSymbolTableRecord
100
AcDbTextStyleTableRecord
  2
LiberationMono-Bold
 70
0
 40
0.0
 41
1.0
 50
0.0
 71
0
 42
2.5
  3
LiberationMono-Bold.ttf
  4

  0
STYLE
  5
58
330
5
100
AcDbSymbolTableRecord
100
AcDbTextStyleTableRecord
  2
LiberationMono-BoldItalic
 70
0
 40
0.0
 41
1.0
 50
0.0
 71
0
 42
2.5
  3
LiberationMono-BoldItalic.ttf
  4

  0
STYLE
  5
59
330
5
100
AcDbSymbolTableRecord
100
AcDbTextStyleTableRecord
  2
LiberationMono-Italic
 70
0
 40
0.0
 41
1.0
 50
0.0
 71
0
 42
2.5
  3
LiberationMono-Italic.ttf
  4

  0
ENDTAB
  0
TABLE
  2
VIEW
  5
7
330
0
100
AcDbSymbolTable
 70
0
  0
ENDTAB
  0
TABLE
  2
UCS
  5
6
330
0
100
AcDbSymbolTable
 70
0
  0
ENDTAB
  0
TABLE
  2
APPID
  5
3
330
0
100
AcDbSymbolTable
 70
3
  0
APPID
  5
2A
330
3
100
AcDbSymbolTableRecord
100
AcDbRegAppTableRecord
  2
ACAD
 70
0
  0
APPID
  5
20F
330
3
100
AcDbSymbolTableRecord
100
AcDbRegAppTableRecord
  2
HATCHBACKGROUNDCOLOR
 70
0
  0
APPID
  5
210
330
3
100
AcDbSymbolTableRecord
100
AcDbRegAppTableRecord
  2
EZDXF
 70
0
  0
ENDTAB
  0
TABLE
  2
DIMSTYLE
  5
4
330
0
100
AcDbSymbolTable
 70
12
100
AcDbDimStyleTable
  0
DIMSTYLE
105
2B
330
4
100
AcDbSymbolTableRecord
100
AcDbDimStyleTableRecord
  2
Standard
 70
0
 40
1.0
 41
2.5
 42
0.625
 43
3.75
 44
1.25
 45
0.0
 46
0.0
 47
0.0
 48
0.0
 49
2.5
140
2.5
141
2.5
142
0.0
143
0.03937007874
144
1.0
145
0.0
146
1.0
147
0.625
148
0.0
 69
0
 70
0
 71
0
 72
0
 73
0
 74
0
 75
0
 76
0
 77
1
 78
8
 79
3
170
0
171
3
172
1
173
0
174
0
175
0
176
0
177
0
178
0
179
2
271
2
272
2
273
2
274
3
275
0
276
0
277
2
278
44
279
0
280
0
281
0
282
0
283
0
284
8
285
0
286
0
288
0
289
3
290
0
371
-2
372
-2
  0
DIMSTYLE
105
73
330
4
100
AcDbSymbolTableRecord
100
AcDbDimStyleTableRecord
  2
EZDXF
 70
0
 40
1.0
 41
0.175
 42
0.125
 43
3.75
 44
0.375
 45
0.0
 46
0.0
 47
0.0
 48
0.0
 49
2.5
140
0.25
141
2.5
142
0.0
143
0.03937007874
144
100.0
145
0.0
146
0.5
147
0.1
148
0.0
 69
0
 70
0
 71
0
 72
0
 73
0
 74
0
 75
0
 76
0
 77
1
 78
12
 79
3
170
0
171
3
172
1
173
0
174
0
175
0
176
0
177
0
178
0
179
2
271
2
272
2
273
2
274
3
275
0
276
0
277
2
278
46
279
2
280
0
281
0
282
0
283
0
284
8
285
0
286
0
288
1
289
3
290
0
340
4C
342
74
371
-2
372
-2
  0
DIMSTYLE
105
7C
330
4
100
AcDbSymbolTableRecord
100
AcDbDimStyleTableRecord
  2
EZ_M_100_H25_CM
 70
0
 40
1.0
 41
0.25
 42
0.125
 43
3.75
 44
0.375
 45
0.0
 46
0.0
 47
0.0
 48
0.0
 49
2.5
140
0.25
141
2.5
142
0.125
143
0.03937007874
144
100.0
145
0.0
146
0.5
147
0.1
148
0.0
 69
0
 70
0
 71
0
 72
0
 73
0
 74
0
 75
0
 76
0
 77
1
 78
12
 79
3
170
0
171
3
172
1
173
0
174
0
175
0
176
0
177
0
178
0
179
2
271
2
272
2
273
2
274
3
275
0
276
0
277
2
278
46
279
2
280
0
281
0
282
0
283
0
284
8
285
0
286
0
288
1
289
3
290
0
340
4C
371
-2
372
-2
  0
DIMSTYLE
105
7D
330
4
100
AcDbSymbolTableRecord
100
AcDbDimStyleTableRecord
  2
EZ_M_50_H25_CM
 70
0
 40
1.0
 41
0.125
 42
0.0625
 43
3.75
 44
0.1875
 45
0.0
 46
0.0
 47
0.0
 48
0.0
 49
2.5
140
0.125
141
2.5
142
0.0625
143
0.03937007874
144
100.0
145
0.0
146
0.5
147
0.05
148
0.0
 69
0
 70
0
 71
0
 72
0
 73
0
 74
0
 75
0
 76
0
 77
1
 78
12
 79
3
170
0
171
3
172
1
173
0
174
0
175
0
176
0
177
0
178
0
179
2
271
2
272
2
273
2
274
3
275
0
276
0
277
2
278
46
279
2
280
0
281
0
282
0
283
0
284
8
285
0
286
0
288
1
289
3
290
0
340
4C
371
-2
372
-2
  0
DIMSTYLE
105
7E
330
4
100
AcDbSymbolTableRecord
100
AcDbDimStyleTableRecord
  2
EZ_M_25_H25_CM
 70
0
 40
1.0
 41
0.0625
 42
0.03125
 43
3.75
 44
0.09375
 45
0.0
 46
0.0
 47
0.0
 48
0.0
 49
2.5
140
0.0625
141
2.5
142
0.03125
143
0.03937007874
144
100.0
145
0.0
146
0.5
147
0.025
148
0.0
 69
0
 70
0
 71
0
 72
0
 73
0
 74
0
 75
0
 76
0
 77
1
 78
12
 79
3
170
0
171
3
172
1
173
0
174
0
175
0
176
0
177
0
178
0
179
2
271
2
272
2
273
2
274
3
275
0
276
0
277
2
278
46
279
2
280
0
281
0
282
0
283
0
284
8
285
0
286
0
288
1
289
3
290
0
340
4C
371
-2
372
-2
  0
DIMSTYLE
105
7F
330
4
100
AcDbSymbolTableRecord
100
AcDbDimStyleTableRecord
  2
EZ_M_20_H25_CM
 70
0
 40
1.0
 41
0.05
 42
0.025
 43
3.75
 44
0.07500000000000001
 45
0.0
 46
0.0
 47
0.0
 48
0.0
 49
2.5
140
0.05
141
2.5
142
0.025
143
0.03937007874
144
100.0
145
0.0
146
0.5
147
0.020000000000000004
148
0.0
 69
0
 70
0
 71
0
 72
0
 73
0
 74
0
 75
0
 76
0
 77
1
 78
12
 79
3
170
0
171
3
172
1
173
0
174
0
175
0
176
0
177
0
178
0
179
2
271
2
272
2
273
2
274
3
275
0
276
0
277
2
278
46
279
2
280
0
281
0
282
0
283
0
284
8
285
0
286
0
288
1
289
3
290
0
340
4C
371
-2
372
-2
  0
DIMSTYLE
105
80
330
4
100
AcDbSymbolTableRecord
100
AcDbDimStyleTableRecord
  2
EZ_M_10_H25_CM
 70
0
 40
1.0
 41
0.025
 42
0.0125
 43
3.75
 44
0.037500000000000006
 45
0.0
 46
0.0
 47
0.0
 48
0.0
 49
2.5
140
0.025
141
2.5
142
0.0125
143
0.03937007874
144
100.0
145
0.0
146
0.5
147
0.010000000000000002
148
0.0
 69
0
 70
0
 71
0
 72
0
 73
0
 74
0
 75
0
 76
0
 77
1
 78
12
 79
3
170
0
171
3
172
1
173
0
174
0
175
0
176
0
177
0
178
0
179
2
271
2
272
2
273
2
274
3
275
0
276
0
277
2
278
46
279
2
280
0
281
0
282
0
283
0
284
8
285
0
286
0
288
1
289
3
290
0
340
4C
371
-2
372
-2
  0
DIMSTYLE
105
81
330
4
100
AcDbSymbolTableRecord
100
AcDbDimStyleTableRecord
  2
EZ_M_5_H25_CM
 70
0
 40
1.0
 41
0.0125
 42
0.00625
 43
3.75
 44
0.018750000000000003
 45
0.0
 46
0.0
 47
0.0
 48
0.0
 49
2.5
140
0.0125
141
2.5
142
0.00625
143
0.03937007874
144
100.0
145
0.0
146
0.5
147
0.005000000000000001
148
0.0
 69
0
 70
0
 71
0
 72
0
 73
0
 74
0
 75
0
 76
0
 77
1
 78
12
 79
3
170
0
171
3
172
1
173
0
174
0
175
0
176
0
177
0
178
0
179
2
271
2
272
2
273
2
274
3
275
0
276
0
277
2
278
46
279
2
280
0
281
0
282
0
283
0
284
8
285
0
286
0
288
1
289
3
290
0
340
4C
371
-2
372
-2
  0
DIMSTYLE
105
82
330
4
100
AcDbSymbolTableRecord
100
AcDbDimStyleTableRecord
  2
EZ_M_1_H25_CM
 70
0
 40
1.0
 41
0.0025
 42
0.00125
 43
3.75
 44
0.00375
 45
0.0
 46
0.0
 47
0.0
 48
0.0
 49
2.5
140
0.0025
141
2.5
142
0.00125
143
0.03937007874
144
100.0
145
0.0
146
0.5
147
0.001
148
0.0
 69
0
 70
0
 71
0
 72
0
 73
0
 74
0
 75
0
 76
0
 77
1
 78
12
 79
3
170
0
171
3
172
1
173
0
174
0
175
0
176
0
177
0
178
0
179
2
271
2
272
2
273
2
274
3
275
0
276
0
277
2
278
46
279
2
280
0
281
0
282
0
283
0
284
8
285
0
286
0
288
1
289
3
290
0
340
4C
371
-2
372
-2
  0
DIMSTYLE
105
83
330
4
100
AcDbSymbolTableRecord
100
AcDbDimStyleTableRecord
  2
EZ_RADIUS
 70
0
 40
1.0
 41
0.25
 42
0.125
 43
3.75
 44
0.375
 45
0.0
 46
0.0
 47
0.0
 48
0.0
 49
2.5
140
0.25
141
0.0
142
0.0
143
0.03937007874
144
100.0
145
0.0
146
0.5
147
0.1
148
0.0
 69
0
 70
0
 71
0
 72
0
 73
0
 74
0
 75
0
 76
0
 77
1
 78
12
 79
3
170
0
171
3
172
0
173
0
174
0
175
0
176
0
177
0
178
0
179
2
271
2
272
2
273
2
274
3
275
0
276
0
277
2
278
46
279
1
280
0
281
0
282
0
283
0
284
8
285
0
286
0
288
1
289
3
290
0
340
4C
342
84
371
-2
372
-2
  0
DIMSTYLE
105
88
330
4
100
AcDbSymbolTableRecord
100
AcDbDimStyleTableRecord
  2
EZ_RADIUS_INSIDE
 70
0
 40
1.0
 41
0.25
 42
0.125
 43
3.75
 44
0.375
 45
0.0
 46
0.0
 47
0.0
 48
0.0
 49
2.5
140
0.25
141
0.0
142
0.0
143
0.03937007874
144
100.0
145
0.0
146
0.5
147
0.1
148
0.0
 69
0
 70
0
 71
0
 72
0
 73
0
 74
0
 75
0
 76
0
 77
0
 78
12
 79
3
170
0
171
3
172
0
173
0
174
1
175
0
176
0
177
0
178
0
179
2
271
2
272
2
273
2
274
3
275
0
276
0
277
2
278
46
279
0
280
0
281
0
282
0
283
0
284
8
285
0
286
0
288
1
289
0
290
0
340
4C
342
84
371
-2
372
-2
  0
DIMSTYLE
105
89
330
4
100
AcDbSymbolTableRecord
100
AcDbDimStyleTableRecord
  2
EZ_CURVED
 70
0
 40
1.0
 41
0.25
 42
0.125
 43
3.75
 44
0.375
 45
0.0
 46
0.0
 47
0.0
 48
0.0
 49
2.5
140
0.25
141
2.5
142
0.0
143
0.03937007874
144
100.0
145
0.0
146
0.5
147
0.1
148
0.0
 69
0
 70
0
 71
0
 72
0
 73
0
 74
0
 75
0
 76
0
 77
1
 78
12
 79
2
 90
2
170
0
171
3
172
1
173
0
174
0
175
0
176
0
177
0
178
0
179
2
271
2
272
2
273
2
274
3
275
0
276
0
277
2
278
46
279
2
280
0
281
0
282
0
283
0
284
8
285
0
286
0
288
1
289
3
290
0
340
4C
371
-2
372
-2
  0
ENDTAB
  0
TABLE
  2
BLOCK_RECORD
  5
9
330
0
100
AcDbSymbolTable
 70
9
  0
BLOCK_RECORD
  5
17
330
9
100
AcDbSymbolTableRecord
100
AcDbBlockTableRecord
  2
*Model_Space
340
1A
 70
0
280
1
281
0
  0
BLOCK_RECORD
  5
1B
330
9
100
AcDbSymbolTableRecord
100
AcDbBlockTableRecord
  2
*Paper_Space
340
1E
 70
0
280
1
281
0
  0
BLOCK_RECORD
  5
74
330
9
100
AcDbSymbolTableRecord
100
AcDbBlockTableRecord
  2
_ARCHTICK
340
0
 70
0
280
1
281
0
  0
BLOCK_RECORD
  5
78
330
9
100
AcDbSymbolTableRecord
100
AcDbBlockTableRecord
  2
_CLOSEDFILLED
340
0
 70
0
280
1
281
0
  0
BLOCK_RECORD
  5
84
330
9
100
AcDbSymbolTableRecord
100
AcDbBlockTableRecord
  2
_CLOSEDBLANK
340
0
 70
0
280
1
281
0
  0
BLOCK_RECORD
  5
1D4
330
9
100
AcDbSymbolTableRecord
100
AcDbBlockTableRecord
  2
*D1
340
0
 70
0
280
1
281
0
  0
BLOCK_RECORD
  5
1E3
330
9
100
AcDbSymbolTableRecord
100
AcDbBlockTableRecord
  2
*D2
340
0
 70
0
280
1
281
0
  0
BLOCK_RECORD
  5
1F2
330
9
100
AcDbSymbolTableRecord
100
AcDbBlockTableRecord
  2
*D3
340
0
 70
0
280
1
281
0
  0
BLOCK_RECORD
  5
201
330
9
100
AcDbSymbolTableRecord
100
AcDbBlockTableRecord
  2
*D4
340
0
 70
0
280
1
281
0
  0
ENDTAB
  0
ENDSEC
  0
SECTION
  2
BLOCKS
  0
BLOCK
  5
18
330
17
100
AcDbEntity
  8
0
100
AcDbBlockBegin
  2
*Model_Space
 70
0
 10
0.0
 20
0.0
 30
0.0
  3
*Model_Space
  1

  0
ENDBLK
  5
19
330
17
100
AcDbEntity
  8
0
100
AcDbBlockEnd
  0
BLOCK
  5
1C
330
1B
100
AcDbEntity
  8
0
100
AcDbBlockBegin
  2
*Paper_Space
 70
0
 10
0.0
 20
0.0
 30
0.0
  3
*Paper_Space
  1

  0
ENDBLK
  5
1D
330
1B
100
AcDbEntity
  8
0
100
AcDbBlockEnd
  0
BLOCK
  5
75
330
74
100
AcDbEntity
  8
0
100
AcDbBlockBegin
  2
_ARCHTICK
 70
0
 10
0.0
 20
0.0
 30
0.0
  3
_ARCHTICK
  1

  0
LWPOLYLINE
  5
77
330
74
100
AcDbEntity
  8
0
  6
BYBLOCK
 62
0
100
AcDbPolyline
 90
2
 70
0
 43
0.15
 10
-0.5
 20
-0.5
 10
0.5
 20
0.5
  0
ENDBLK
  5
76
330
74
100
AcDbEntity
  8
0
100
AcDbBlockEnd
  0
BLOCK
  5
79
330
78
100
AcDbEntity
  8
0
100
AcDbBlockBegin
  2
_CLOSEDFILLED
 70
0
 10
0.0
 20
0.0
 30
0.0
  3
_CLOSEDFILLED
  1

  0
SOLID
  5
7B
330
78
100
AcDbEntity
  8
0
  6
BYBLOCK
 62
0
100
AcDbTrace
 10
-1.0
 20
0.16439898372402537
 30
0.0
 11
0.0
 21
0.0
 31
0.0
 12
-1.0
 22
-0.16439898372402537
 32
0.0
 13
-1.0
 23
-0.16439898372402537
 33
0.0
  0
ENDBLK
  5
7A
330
78
100
AcDbEntity
  8
0
100
AcDbBlockEnd
  0
BLOCK
  5
85
330
84
100
AcDbEntity
  8
0
100
AcDbBlockBegin
  2
_CLOSEDBLANK
 70
0
 10
0.0
 20
0.0
 30
0.0
  3
_CLOSEDBLANK
  1

  0
LWPOLYLINE
  5
87
330
84
100
AcDbEntity
  8
0
  6
BYBLOCK
 62
0
100
AcDbPolyline
 90
3
 70
1
 10
-1.0
 20
0.16439898372402537
 10
0.0
 20
0.0
 10
-1.0
 20
-0.16439898372402537
  0
ENDBLK
  5
86
330
84
100
AcDbEntity
  8
0
100
AcDbBlockEnd
  0
BLOCK
  5
1D5
330
1D4
100
AcDbEntity
  8
0
100
AcDbBlockBegin
  2
*D1
 70
1
 10
0.0
 20
0.0
 30
0.0
  3
*D1
  1

  0
LINE
  5
1D7
330
1D4
100
AcDbEntity
  8
0
100
AcDbLine
 10
61.8
 20
-209.95
 30
0.0
 11
92.0
 21
-209.95
 31
0.0
  0
LINE
  5
1D8
330
1D4
100
AcDbEntity
  8
0
100
AcDbLine
 10
61.8
 20
-205.8
 30
0.0
 11
92.0
 21
-205.8
 31
0.0
  0
INSERT
  5
1D9
330
1D4
100
AcDbEntity
  8
DIMS
100
AcDbBlockReference
  2
_ARCHTICK
 10
91.0
 20
-209.95
 30
0.0
 41
1.5
 42
1.5
 50
270.0
  0
INSERT
  5
1DB
330
1D4
100
AcDbEntity
  8
DIMS
100
AcDbBlockReference
  2
_ARCHTICK
 10
91.0
 20
-205.8
 30
0.0
 41
1.5
 42
1.5
 50
90.0
  0
LINE
  5
1DD
330
1D4
100
AcDbEntity
  8
0
100
AcDbLine
 10
91.0
 20
-209.95
 30
0.0
 11
91.0
 21
-205.8
 31
0.0
  0
MTEXT
  5
1DE
330
1D4
100
AcDbEntity
  8
DIMS
100
AcDbMText
 10
88.15
 20
-207.875
 30
0.0
 40
2.5
 71
5
  1
air gap 415
  7
OpenSansCondensed-Light
 50
90.0
  0
POINT
  5
1DF
330
1D4
100
AcDbEntity
  8
Defpoints
100
AcDbPoint
 10
91.0
 20
-209.95
 30
0.0
  0
POINT
  5
1E0
330
1D4
100
AcDbEntity
  8
Defpoints
100
AcDbPoint
 10
61.0
 20
-209.95
 30
0.0
  0
POINT
  5
1E1
330
1D4
100
AcDbEntity
  8
Defpoints
100
AcDbPoint
 10
61.0
 20
-205.8
 30
0.0
  0
ENDBLK
  5
1D6
330
1D4
100
AcDbEntity
  8
0
100
AcDbBlockEnd
  0
BLOCK
  5
1E4
330
1E3
100
AcDbEntity
  8
0
100
AcDbBlockBegin
  2
*D2
 70
1
 10
0.0
 20
0.0
 30
0.0
  3
*D2
  1

  0
LINE
  5
1E6
330
1E3
100
AcDbEntity
  8
0
100
AcDbLine
 10
5.0
 20
-220.8
 30
0.0
 11
5.0
 21
-227.0
 31
0.0
  0
LINE
  5
1E7
330
1E3
100
AcDbEntity
  8
0
100
AcDbLine
 10
91.0
 20
-220.8
 30
0.0
 11
91.0
 21
-227.0
 31
0.0
  0
INSERT
  5
1E8
330
1E3
100
AcDbEntity
  8
DIMS
100
AcDbBlockReference
  2
_ARCHTICK
 10
5.0
 20
-226.0
 30
0.0
 41
1.5
 42
1.5
 50
180.0
  0
INSERT
  5
1EA
330
1E3
100
AcDbEntity
  8
DIMS
100
AcDbBlockReference
  2
_ARCHTICK
 10
91.0
 20
-226.0
 30
0.0
 41
1.5
 42
1.5
  0
LINE
  5
1EC
330
1E3
100
AcDbEntity
  8
0
100
AcDbLine
 10
5.0
 20
-226.0
 30
0.0
 11
91.0
 21
-226.0
 31
0.0
  0
MTEXT
  5
1ED
330
1E3
100
AcDbEntity
  8
DIMS
100
AcDbMText
 10
48.0
 20
-224.15
 30
0.0
 40
2.5
 71
5
  1
reach from wall 8600
  7
OpenSansCondensed-Light
  0
POINT
  5
1EE
330
1E3
100
AcDbEntity
  8
Defpoints
100
AcDbPoint
 10
5.0
 20
-226.0
 30
0.0
  0
POINT
  5
1EF
330
1E3
100
AcDbEntity
  8
Defpoints
100
AcDbPoint
 10
5.0
 20
-220.0
 30
0.0
  0
POINT
  5
1F0
330
1E3
100
AcDbEntity
  8
Defpoints
100
AcDbPoint
 10
91.0
 20
-220.0
 30
0.0
  0
ENDBLK
  5
1E5
330
1E3
100
AcDbEntity
  8
0
100
AcDbBlockEnd
  0
BLOCK
  5
1F3
330
1F2
100
AcDbEntity
  8
0
100
AcDbBlockBegin
  2
*D3
 70
1
 10
0.0
 20
0.0
 30
0.0
  3
*D3
  1

  0
LINE
  5
1F5
330
1F2
100
AcDbEntity
  8
0
100
AcDbLine
 10
310.8
 20
-16.75
 30
0.0
 11
321.0
 21
-16.75
 31
0.0
  0
LINE
  5
1F6
330
1F2
100
AcDbEntity
  8
0
100
AcDbLine
 10
310.8
 20
-3.6499999999999773
 30
0.0
 11
321.0
 21
-3.6499999999999773
 31
0.0
  0
INSERT
  5
1F7
330
1F2
100
AcDbEntity
  8
DIMS
100
AcDbBlockReference
  2
_ARCHTICK
 10
320.0
 20
-16.75
 30
0.0
 41
1.5
 42
1.5
 50
270.0
  0
INSERT
  5
1F9
330
1F2
100
AcDbEntity
  8
DIMS
100
AcDbBlockReference
  2
_ARCHTICK
 10
320.0
 20
-3.6499999999999773
 30
0.0
 41
1.5
 42
1.5
 50
90.0
  0
LINE
  5
1FB
330
1F2
100
AcDbEntity
  8
0
100
AcDbLine
 10
320.0
 20
-16.75
 30
0.0
 11
320.0
 21
-3.6499999999999773
 31
0.0
  0
MTEXT
  5
1FC
330
1F2
100
AcDbEntity
  8
DIMS
100
AcDbMText
 10
317.15
 20
-10.199999999999989
 30
0.0
 40
2.5
 71
5
  1
window 1310
  7
OpenSansCondensed-Light
 50
90.0
  0
POINT
  5
1FD
330
1F2
100
AcDbEntity
  8
Defpoints
100
AcDbPoint
 10
320.0
 20
-16.75
 30
0.0
  0
POINT
  5
1FE
330
1F2
100
AcDbEntity
  8
Defpoints
100
AcDbPoint
 10
310.0
 20
-16.75
 30
0.0
  0
POINT
  5
1FF
330
1F2
100
AcDbEntity
  8
Defpoints
100
AcDbPoint
 10
310.0
 20
-3.6499999999999773
 30
0.0
  0
ENDBLK
  5
1F4
330
1F2
100
AcDbEntity
  8
0
100
AcDbBlockEnd
  0
BLOCK
  5
202
330
201
100
AcDbEntity
  8
0
100
AcDbBlockBegin
  2
*D4
 70
1
 10
0.0
 20
0.0
 30
0.0
  3
*D4
  1

  0
LINE
  5
204
330
201
100
AcDbEntity
  8
0
100
AcDbLine
 10
300.0
 20
8.8
 30
0.0
 11
300.0
 21
15.0
 31
0.0
  0
LINE
  5
205
330
201
100
AcDbEntity
  8
0
100
AcDbLine
 10
295.6
 20
8.8
 30
0.0
 11
295.6
 21
15.0
 31
0.0
  0
INSERT
  5
206
330
201
100
AcDbEntity
  8
DIMS
100
AcDbBlockReference
  2
_ARCHTICK
 10
300.0
 20
14.0
 30
0.0
 41
1.5
 42
1.5
 50
180.0
  0
INSERT
  5
208
330
201
100
AcDbEntity
  8
DIMS
100
AcDbBlockReference
  2
_ARCHTICK
 10
295.6
 20
14.0
 30
0.0
 41
1.5
 42
1.5
  0
LINE
  5
20A
330
201
100
AcDbEntity
  8
0
100
AcDbLine
 10
300.0
 20
14.0
 30
0.0
 11
295.6
 21
14.0
 31
0.0
  0
MTEXT
  5
20B
330
201
100
AcDbEntity
  8
DIMS
100
AcDbMText
 10
297.8
 20
11.15
 30
0.0
 40
2.5
 71
5
  1
PCB top from lid inner face 440
  7
OpenSansCondensed-Light
  0
POINT
  5
20C
330
201
100
AcDbEntity
  8
Defpoints
100
AcDbPoint
 10
300.0
 20
14.0
 30
0.0
  0
POINT
  5
20D
330
201
100
AcDbEntity
  8
Defpoints
100
AcDbPoint
 10
300.0
 20
8.0
 30
0.0
  0
POINT
  5
20E
330
201
100
AcDbEntity
  8
Defpoints
100
AcDbPoint
 10
295.6
 20
8.0
 30
0.0
  0
ENDBLK
  5
203
330
201
100
AcDbEntity
  8
0
100
AcDbBlockEnd
  0
ENDSEC
  0
SECTION
  2
ENTITIES
  0
TEXT
  5
8F
330
17
100
AcDbEntity
  8
TEXT
100
AcDbText
 10
0.0
 20
0.0
 30
0.0
 40
5.0
  1
HazardLink hanger v9.10 assembly sections (mm)
 11
0.0
 21
0.0
 31
0.0
100
AcDbText
  0
LINE
  5
90
330
17
100
AcDbEntity
  8
OUTLINE
100
AcDbLine
 10
50.0
 20
-157.5
 30
0.0
 11
50.0
 21
-160.0
 31
0.0
  0
LINE
  5
91
330
17
100
AcDbEntity
  8
OUTLINE
100
AcDbLine
 10
45.25
 20
-157.5
 30
0.0
 11
50.0
 21
-157.5
 31
0.0
  0
LINE
  5
92
330
17
100
AcDbEntity
  8
OUTLINE
100
AcDbLine
 10
45.25
 20
-154.6
 30
0.0
 11
45.25
 21
-157.5
 31
0.0
  0
LINE
  5
93
330
17
100
AcDbEntity
  8
OUTLINE
100
AcDbLine
 10
43.5
 20
-154.6
 30
0.0
 11
45.25
 21
-154.6
 31
0.0
  0
LINE
  5
94
330
17
100
AcDbEntity
  8
OUTLINE
100
AcDbLine
 10
43.5
 20
-156.5
 30
0.0
 11
43.5
 21
-154.6
 31
0.0
  0
LINE
  5
95
330
17
100
AcDbEntity
  8
OUTLINE
100
AcDbLine
 10
44.0
 20
-156.5
 30
0.0
 11
43.5
 21
-156.5
 31
0.0
  0
LINE
  5
96
330
17
100
AcDbEntity
  8
OUTLINE
100
AcDbLine
 10
44.0
 20
-160.0
 30
0.0
 11
44.0
 21
-156.5
 31
0.0
  0
LINE
  5
97
330
17
100
AcDbEntity
  8
OUTLINE
100
AcDbLine
 10
50.0
 20
-160.0
 30
0.0
 11
44.0
 21
-160.0
 31
0.0
  0
LINE
  5
98
330
17
100
AcDbEntity
  8
OUTLINE
100
AcDbLine
 10
50.0
 20
-70.0
 30
0.0
 11
50.0
 21
-82.0
 31
0.0
  0
LINE
  5
99
330
17
100
AcDbEntity
  8
OUTLINE
100
AcDbLine
 10
48.0
 20
-70.0
 30
0.0
 11
50.0
 21
-70.0
 31
0.0
  0
LINE
  5
9A
330
17
100
AcDbEntity
  8
OUTLINE
100
AcDbLine
 10
48.0
 20
-82.0
 30
0.0
 11
48.0
 21
-70.0
 31
0.0
  0
LINE
  5
9B
330
17
100
AcDbEntity
  8
OUTLINE
100
AcDbLine
 10
50.0
 20
-82.0
 30
0.0
 11
48.0
 21
-82.0
 31
0.0
  0
LINE
  5
9C
330
17
100
AcDbEntity
  8
OUTLINE
100
AcDbLine
 10
43.6
 20
-70.0
 30
0.0
 11
43.6
 21
-82.0
 31
0.0
  0
LINE
  5
9D
330
17
100
AcDbEntity
  8
OUTLINE
100
AcDbLine
 10
17.5
 20
-70.0
 30
0.0
 11
43.6
 21
-70.0
 31
0.0
  0
LINE
  5
9E
330
17
100
AcDbEntity
  8
OUTLINE
100
AcDbLine
 10
17.5
 20
-56.5
 30
0.0
 11
17.5
 21
-70.0
 31
0.0
  0
LINE
  5
9F
330
17
100
AcDbEntity
  8
OUTLINE
100
AcDbLine
 10
15.0
 20
-56.5
 30
0.0
 11
17.5
 21
-56.5
 31
0.0
  0
LINE
  5
A0
330
17
100
AcDbEntity
  8
OUTLINE
100
AcDbLine
 10
15.0
 20
-155.9
 30
0.0
 11
15.0
 21
-56.5
 31
0.0
  0
LINE
  5
A1
330
17
100
AcDbEntity
  8
OUTLINE
100
AcDbLine
 10
15.600000000000001
 20
-155.9
 30
0.0
 11
15.0
 21
-155.9
 31
0.0
  0
LINE
  5
A2
330
17
100
AcDbEntity
  8
OUTLINE
100
AcDbLine
 10
15.600000000000001
 20
-156.5
 30
0.0
 11
15.600000000000001
 21
-155.9
 31
0.0
  0
LINE
  5
A3
330
17
100
AcDbEntity
  8
OUTLINE
100
AcDbLine
 10
39.5
 20
-156.5
 30
0.0
 11
15.600000000000001
 21
-156.5
 31
0.0
  0
LINE
  5
A4
330
17
100
AcDbEntity
  8
OUTLINE
100
AcDbLine
 10
39.5
 20
-154.6
 30
0.0
 11
39.5
 21
-156.5
 31
0.0
  0
LINE
  5
A5
330
17
100
AcDbEntity
  8
OUTLINE
100
AcDbLine
 10
17.5
 20
-154.6
 30
0.0
 11
39.5
 21
-154.6
 31
0.0
  0
LINE
  5
A6
330
17
100
AcDbEntity
  8
OUTLINE
100
AcDbLine
 10
17.5
 20
-109.5
 30
0.0
 11
17.5
 21
-154.6
 31
0.0
  0
LINE
  5
A7
330
17
100
AcDbEntity
  8
OUTLINE
100
AcDbLine
 10
29.5
 20
-109.5
 30
0.0
 11
17.5
 21
-109.5
 31
0.0
  0
LINE
  5
A8
330
17
100
AcDbEntity
  8
OUTLINE
100
AcDbLine
 10
29.5
 20
-106.5
 30
0.0
 11
29.5
 21
-109.5
 31
0.0
  0
LINE
  5
A9
330
17
100
AcDbEntity
  8
OUTLINE
100
AcDbLine
 10
22.5
 20
-106.5
 30
0.0
 11
29.5
 21
-106.5
 31
0.0
  0
LINE
  5
AA
330
17
100
AcDbEntity
  8
OUTLINE
100
AcDbLine
 10
22.5
 20
-84.6
 30
0.0
 11
22.5
 21
-106.5
 31
0.0
  0
LINE
  5
AB
330
17
100
AcDbEntity
  8
OUTLINE
100
AcDbLine
 10
29.5
 20
-84.6
 30
0.0
 11
22.5
 21
-84.6
 31
0.0
  0
LINE
  5
AC
330
17
100
AcDbEntity
  8
OUTLINE
100
AcDbLine
 10
29.5
 20
-82.0
 30
0.0
 11
29.5
 21
-84.6
 31
0.0
  0
LINE
  5
AD
330
17
100
AcDbEntity
  8
OUTLINE
100
AcDbLine
 10
43.6
 20
-82.0
 30
0.0
 11
29.5
 21
-82.0
 31
0.0
  0
LINE
  5
AE
330
17
100
AcDbEntity
  8
OUTLINE
100
AcDbLine
 10
50.0
 20
14.0
 30
0.0
 11
50.0
 21
11.5
 31
0.0
  0
LINE
  5
AF
330
17
100
AcDbEntity
  8
OUTLINE
100
AcDbLine
 10
15.0
 20
14.0
 30
0.0
 11
50.0
 21
14.0
 31
0.0
  0
LINE
  5
B0
330
17
100
AcDbEntity
  8
OUTLINE
100
AcDbLine
 10
15.0
 20
-46.0
 30
0.0
 11
15.0
 21
14.0
 31
0.0
  0
LINE
  5
B1
330
17
100
AcDbEntity
  8
OUTLINE
100
AcDbLine
 10
17.5
 20
-46.0
 30
0.0
 11
15.0
 21
-46.0
 31
0.0
  0
LINE
  5
B2
330
17
100
AcDbEntity
  8
OUTLINE
100
AcDbLine
 10
17.5
 20
-27.0
 30
0.0
 11
17.5
 21
-46.0
 31
0.0
  0
LINE
  5
B3
330
17
100
AcDbEntity
  8
OUTLINE
100
AcDbLine
 10
49.5
 20
-27.0
 30
0.0
 11
17.5
 21
-27.0
 31
0.0
  0
LINE
  5
B4
330
17
100
AcDbEntity
  8
OUTLINE
100
AcDbLine
 10
49.5
 20
-25.0
 30
0.0
 11
49.5
 21
-27.0
 31
0.0
  0
LINE
  5
B5
330
17
100
AcDbEntity
  8
OUTLINE
100
AcDbLine
 10
47.53765432098766
 20
-25.0
 30
0.0
 11
49.5
 21
-25.0
 31
0.0
  0
LINE
  5
B6
330
17
100
AcDbEntity
  8
OUTLINE
100
AcDbLine
 10
46.55
 20
-24.19999999999999
 30
0.0
 11
47.53765432098766
 21
-25.0
 31
0.0
  0
LINE
  5
B7
330
17
100
AcDbEntity
  8
OUTLINE
100
AcDbLine
 10
46.15
 20
-24.19999999999999
 30
0.0
 11
46.55
 21
-24.19999999999999
 31
0.0
  0
LINE
  5
B8
330
17
100
AcDbEntity
  8
OUTLINE
100
AcDbLine
 10
45.359876543209865
 20
-25.0
 30
0.0
 11
46.15
 21
-24.19999999999999
 31
0.0
  0
LINE
  5
B9
330
17
100
AcDbEntity
  8
OUTLINE
100
AcDbLine
 10
43.8
 20
-25.0
 30
0.0
 11
45.359876543209865
 21
-25.0
 31
0.0
  0
LINE
  5
BA
330
17
100
AcDbEntity
  8
OUTLINE
100
AcDbLine
 10
43.8
 20
-23.900000000000006
 30
0.0
 11
43.8
 21
-25.0
 31
0.0
  0
LINE
  5
BB
330
17
100
AcDbEntity
  8
OUTLINE
100
AcDbLine
 10
17.5
 20
-23.900000000000006
 30
0.0
 11
43.8
 21
-23.900000000000006
 31
0.0
  0
LINE
  5
BC
330
17
100
AcDbEntity
  8
OUTLINE
100
AcDbLine
 10
17.5
 20
-0.09999999999999432
 30
0.0
 11
17.5
 21
-23.900000000000006
 31
0.0
  0
LINE
  5
BD
330
17
100
AcDbEntity
  8
OUTLINE
100
AcDbLine
 10
43.8
 20
-0.09999999999999432
 30
0.0
 11
17.5
 21
-0.09999999999999432
 31
0.0
  0
LINE
  5
BE
330
17
100
AcDbEntity
  8
OUTLINE
100
AcDbLine
 10
43.8
 20
1.0
 30
0.0
 11
43.8
 21
-0.09999999999999432
 31
0.0
  0
LINE
  5
BF
330
17
100
AcDbEntity
  8
OUTLINE
100
AcDbLine
 10
49.5
 20
1.0
 30
0.0
 11
43.8
 21
1.0
 31
0.0
  0
LINE
  5
C0
330
17
100
AcDbEntity
  8
OUTLINE
100
AcDbLine
 10
49.5
 20
3.0
 30
0.0
 11
49.5
 21
1.0
 31
0.0
  0
LINE
  5
C1
330
17
100
AcDbEntity
  8
OUTLINE
100
AcDbLine
 10
17.5
 20
3.0
 30
0.0
 11
49.5
 21
3.0
 31
0.0
  0
LINE
  5
C2
330
17
100
AcDbEntity
  8
OUTLINE
100
AcDbLine
 10
17.5
 20
11.5
 30
0.0
 11
17.5
 21
3.0
 31
0.0
  0
LINE
  5
C3
330
17
100
AcDbEntity
  8
OUTLINE
100
AcDbLine
 10
50.0
 20
11.5
 30
0.0
 11
17.5
 21
11.5
 31
0.0
  0
LINE
  5
C4
330
17
100
AcDbEntity
  8
OUTLINE
100
AcDbLine
 10
50.0
 20
14.0
 30
0.0
 11
53.0
 21
14.0
 31
0.0
  0
LINE
  5
C5
330
17
100
AcDbEntity
  8
OUTLINE
100
AcDbLine
 10
50.0
 20
-1.8000000000000114
 30
0.0
 11
50.0
 21
14.0
 31
0.0
  0
LINE
  5
C6
330
17
100
AcDbEntity
  8
OUTLINE
100
AcDbLine
 10
52.0
 20
-1.8000000000000114
 30
0.0
 11
50.0
 21
-1.8000000000000114
 31
0.0
  0
LINE
  5
C7
330
17
100
AcDbEntity
  8
OUTLINE
100
AcDbLine
 10
52.0
 20
-22.400000000000006
 30
0.0
 11
52.0
 21
-1.8000000000000114
 31
0.0
  0
LINE
  5
C8
330
17
100
AcDbEntity
  8
OUTLINE
100
AcDbLine
 10
50.0
 20
-22.400000000000006
 30
0.0
 11
52.0
 21
-22.400000000000006
 31
0.0
  0
LINE
  5
C9
330
17
100
AcDbEntity
  8
OUTLINE
100
AcDbLine
 10
50.0
 20
-155.25
 30
0.0
 11
50.0
 21
-22.400000000000006
 31
0.0
  0
LINE
  5
CA
330
17
100
AcDbEntity
  8
OUTLINE
100
AcDbLine
 10
46.0
 20
-155.25
 30
0.0
 11
50.0
 21
-155.25
 31
0.0
  0
LINE
  5
CB
330
17
100
AcDbEntity
  8
OUTLINE
100
AcDbLine
 10
46.0
 20
-157.25
 30
0.0
 11
46.0
 21
-155.25
 31
0.0
  0
LINE
  5
CC
330
17
100
AcDbEntity
  8
OUTLINE
100
AcDbLine
 10
50.0
 20
-157.25
 30
0.0
 11
46.0
 21
-157.25
 31
0.0
  0
LINE
  5
CD
330
17
100
AcDbEntity
  8
OUTLINE
100
AcDbLine
 10
50.0
 20
-160.0
 30
0.0
 11
50.0
 21
-157.25
 31
0.0
  0
LINE
  5
CE
330
17
100
AcDbEntity
  8
OUTLINE
100
AcDbLine
 10
53.0
 20
-160.0
 30
0.0
 11
50.0
 21
-160.0
 31
0.0
  0
LINE
  5
CF
330
17
100
AcDbEntity
  8
OUTLINE
100
AcDbLine
 10
53.0
 20
-51.5369522270115
 30
0.0
 11
53.0
 21
-160.0
 31
0.0
  0
LINE
  5
D0
330
17
100
AcDbEntity
  8
OUTLINE
100
AcDbLine
 10
52.4
 20
-51.5369522270115
 30
0.0
 11
53.0
 21
-51.5369522270115
 31
0.0
  0
LINE
  5
D1
330
17
100
AcDbEntity
  8
OUTLINE
100
AcDbLine
 10
52.4
 20
-50.459388600201436
 30
0.0
 11
52.4
 21
-51.5369522270115
 31
0.0
  0
LWPOLYLINE
  5
D2
330
17
100
AcDbEntity
  8
OUTLINE
100
AcDbPolyline
 90
37
 70
0
 10
53.0000006
 20
-50.459388600201436
 10
52.983333916666666
 20
-50.459388600201436
 10
52.96666723333333
 20
-50.459388600201436
 10
52.95000055
 20
-50.459388600201436
 10
52.933333866666665
 20
-50.459388600201436
 10
52.91666718333333
 20
-50.459388600201436
 10
52.9000005
 20
-50.459388600201436
 10
52.88333381666666
 20
-50.459388600201436
 10
52.86666713333333
 20
-50.459388600201436
 10
52.85000045
 20
-50.459388600201436
 10
52.83333376666667
 20
-50.459388600201436
 10
52.816667083333336
 20
-50.459388600201436
 10
52.8000004
 20
-50.459388600201436
 10
52.78333371666667
 20
-50.459388600201436
 10
52.766667033333334
 20
-50.459388600201436
 10
52.75000035
 20
-50.459388600201436
 10
52.73333366666667
 20
-50.459388600201436
 10
52.71666698333333
 20
-50.459388600201436
 10
52.7000003
 20
-50.459388600201436
 10
52.683333616666665
 20
-50.459388600201436
 10
52.66666693333333
 20
-50.459388600201436
 10
52.65000025
 20
-50.459388600201436
 10
52.633333566666664
 20
-50.459388600201436
 10
52.61666688333333
 20
-50.459388600201436
 10
52.6000002
 20
-50.459388600201436
 10
52.58333351666667
 20
-50.459388600201436
 10
52.566666833333336
 20
-50.459388600201436
 10
52.55000015
 20
-50.459388600201436
 10
52.53333346666667
 20
-50.459388600201436
 10
52.516666783333335
 20
-50.459388600201436
 10
52.5000001
 20
-50.459388600201436
 10
52.48333341666667
 20
-50.459388600201436
 10
52.466666733333334
 20
-50.459388600201436
 10
52.45000005
 20
-50.459388600201436
 10
52.433333366666666
 20
-50.459388600201436
 10
52.41666668333333
 20
-50.459388600201436
 10
52.4
 20
-50.459388600201436
  0
LINE
  5
D3
330
17
100
AcDbEntity
  8
OUTLINE
100
AcDbLine
 10
53.0
 20
14.0
 30
0.0
 11
53.0
 21
-50.45938860017762
 31
0.0
  0
LINE
  5
D4
330
17
100
AcDbEntity
  8
OUTLINE
100
AcDbLine
 10
43.4
 20
-159.54
 30
0.0
 11
43.4
 21
-159.55
 31
0.0
  0
LINE
  5
D5
330
17
100
AcDbEntity
  8
OUTLINE
100
AcDbLine
 10
43.4
 20
-156.95
 30
0.0
 11
43.4
 21
-159.54
 31
0.0
  0
LINE
  5
D6
330
17
100
AcDbEntity
  8
OUTLINE
100
AcDbLine
 10
43.0
 20
-156.95
 30
0.0
 11
43.4
 21
-156.95
 31
0.0
  0
LINE
  5
D7
330
17
100
AcDbEntity
  8
OUTLINE
100
AcDbLine
 10
43.0
 20
-158.45
 30
0.0
 11
43.0
 21
-156.95
 31
0.0
  0
LINE
  5
D8
330
17
100
AcDbEntity
  8
OUTLINE
100
AcDbLine
 10
23.5
 20
-158.45
 30
0.0
 11
43.0
 21
-158.45
 31
0.0
  0
LINE
  5
D9
330
17
100
AcDbEntity
  8
OUTLINE
100
AcDbLine
 10
23.5
 20
-209.6
 30
0.0
 11
23.5
 21
-158.45
 31
0.0
  0
LINE
  5
DA
330
17
100
AcDbEntity
  8
OUTLINE
100
AcDbLine
 10
56.90849836601466
 20
-209.6
 30
0.0
 11
23.5
 21
-209.6
 31
0.0
  0
LINE
  5
DB
330
17
100
AcDbEntity
  8
OUTLINE
100
AcDbLine
 10
56.90849836601466
 20
-209.4
 30
0.0
 11
56.90849836601466
 21
-209.6
 31
0.0
  0
LINE
  5
DC
330
17
100
AcDbEntity
  8
OUTLINE
100
AcDbLine
 10
60.00849836601466
 20
-209.4
 30
0.0
 11
56.90849836601466
 21
-209.4
 31
0.0
  0
LINE
  5
DD
330
17
100
AcDbEntity
  8
OUTLINE
100
AcDbLine
 10
60.00849836601466
 20
-209.6
 30
0.0
 11
60.00849836601466
 21
-209.4
 31
0.0
  0
LINE
  5
DE
330
17
100
AcDbEntity
  8
OUTLINE
100
AcDbLine
 10
62.8
 20
-209.6
 30
0.0
 11
60.00849836601466
 21
-209.6
 31
0.0
  0
LINE
  5
DF
330
17
100
AcDbEntity
  8
OUTLINE
100
AcDbLine
 10
62.8
 20
-211.8
 30
0.0
 11
62.8
 21
-209.6
 31
0.0
  0
LINE
  5
E0
330
17
100
AcDbEntity
  8
OUTLINE
100
AcDbLine
 10
59.51
 20
-211.8
 30
0.0
 11
62.8
 21
-211.8
 31
0.0
  0
LINE
  5
E1
330
17
100
AcDbEntity
  8
OUTLINE
100
AcDbLine
 10
58.7
 20
-212.59024390243903
 30
0.0
 11
59.51
 21
-211.8
 31
0.0
  0
LINE
  5
E2
330
17
100
AcDbEntity
  8
OUTLINE
100
AcDbLine
 10
58.7
 20
-212.6
 30
0.0
 11
58.7
 21
-212.59024390243903
 31
0.0
  0
LINE
  5
E3
330
17
100
AcDbEntity
  8
OUTLINE
100
AcDbLine
 10
40.01
 20
-212.6
 30
0.0
 11
58.7
 21
-212.6
 31
0.0
  0
LINE
  5
E4
330
17
100
AcDbEntity
  8
OUTLINE
100
AcDbLine
 10
38.6
 20
-213.9901408450704
 30
0.0
 11
40.01
 21
-212.6
 31
0.0
  0
LINE
  5
E5
330
17
100
AcDbEntity
  8
OUTLINE
100
AcDbLine
 10
38.6
 20
-214.0
 30
0.0
 11
38.6
 21
-213.9901408450704
 31
0.0
  0
LINE
  5
E6
330
17
100
AcDbEntity
  8
OUTLINE
100
AcDbLine
 10
16.0
 20
-214.0
 30
0.0
 11
38.6
 21
-214.0
 31
0.0
  0
LINE
  5
E7
330
17
100
AcDbEntity
  8
OUTLINE
100
AcDbLine
 10
16.0
 20
-216.0
 30
0.0
 11
16.0
 21
-214.0
 31
0.0
  0
LINE
  5
E8
330
17
100
AcDbEntity
  8
OUTLINE
100
AcDbLine
 10
91.0
 20
-216.0
 30
0.0
 11
16.0
 21
-216.0
 31
0.0
  0
LINE
  5
E9
330
17
100
AcDbEntity
  8
OUTLINE
100
AcDbLine
 10
91.0
 20
-186.0
 30
0.0
 11
91.0
 21
-216.0
 31
0.0
  0
LINE
  5
EA
330
17
100
AcDbEntity
  8
OUTLINE
100
AcDbLine
 10
82.0
 20
-186.0
 30
0.0
 11
91.0
 21
-186.0
 31
0.0
  0
LINE
  5
EB
330
17
100
AcDbEntity
  8
OUTLINE
100
AcDbLine
 10
82.0
 20
-208.0
 30
0.0
 11
82.0
 21
-186.0
 31
0.0
  0
LINE
  5
EC
330
17
100
AcDbEntity
  8
OUTLINE
100
AcDbLine
 10
40.0
 20
-208.0
 30
0.0
 11
82.0
 21
-208.0
 31
0.0
  0
LINE
  5
ED
330
17
100
AcDbEntity
  8
OUTLINE
100
AcDbLine
 10
40.0
 20
-206.0
 30
0.0
 11
40.0
 21
-208.0
 31
0.0
  0
LINE
  5
EE
330
17
100
AcDbEntity
  8
OUTLINE
100
AcDbLine
 10
26.0
 20
-206.0
 30
0.0
 11
40.0
 21
-206.0
 31
0.0
  0
LINE
  5
EF
330
17
100
AcDbEntity
  8
OUTLINE
100
AcDbLine
 10
26.0
 20
-176.94
 30
0.0
 11
26.0
 21
-206.0
 31
0.0
  0
LINE
  5
F0
330
17
100
AcDbEntity
  8
OUTLINE
100
AcDbLine
 10
43.39
 20
-159.55
 30
0.0
 11
26.0
 21
-176.94
 31
0.0
  0
LINE
  5
F1
330
17
100
AcDbEntity
  8
OUTLINE
100
AcDbLine
 10
43.4
 20
-159.55
 30
0.0
 11
43.39
 21
-159.55
 31
0.0
  0
LINE
  5
F2
330
17
100
AcDbEntity
  8
OUTLINE
100
AcDbLine
 10
16.0
 20
-179.0
 30
0.0
 11
16.0
 21
-175.0
 31
0.0
  0
LINE
  5
F3
330
17
100
AcDbEntity
  8
OUTLINE
100
AcDbLine
 10
18.5
 20
-179.0
 30
0.0
 11
16.0
 21
-179.0
 31
0.0
  0
LINE
  5
F4
330
17
100
AcDbEntity
  8
OUTLINE
100
AcDbLine
 10
18.5
 20
-175.0
 30
0.0
 11
18.5
 21
-179.0
 31
0.0
  0
LINE
  5
F5
330
17
100
AcDbEntity
  8
OUTLINE
100
AcDbLine
 10
16.0
 20
-175.0
 30
0.0
 11
18.5
 21
-175.0
 31
0.0
  0
LINE
  5
F6
330
17
100
AcDbEntity
  8
OUTLINE
100
AcDbLine
 10
5.0
 20
-47.2
 30
0.0
 11
5.0
 21
11.0
 31
0.0
  0
LINE
  5
F7
330
17
100
AcDbEntity
  8
OUTLINE
100
AcDbLine
 10
15.0
 20
-47.2
 30
0.0
 11
5.0
 21
-47.2
 31
0.0
  0
LINE
  5
F8
330
17
100
AcDbEntity
  8
OUTLINE
100
AcDbLine
 10
15.0
 20
11.0
 30
0.0
 11
15.0
 21
-47.2
 31
0.0
  0
LINE
  5
F9
330
17
100
AcDbEntity
  8
OUTLINE
100
AcDbLine
 10
5.0
 20
11.0
 30
0.0
 11
15.0
 21
11.0
 31
0.0
  0
LINE
  5
FA
330
17
100
AcDbEntity
  8
OUTLINE
100
AcDbLine
 10
5.0
 20
-157.0
 30
0.0
 11
5.0
 21
-72.0
 31
0.0
  0
LINE
  5
FB
330
17
100
AcDbEntity
  8
OUTLINE
100
AcDbLine
 10
15.0
 20
-157.0
 30
0.0
 11
5.0
 21
-157.0
 31
0.0
  0
LINE
  5
FC
330
17
100
AcDbEntity
  8
OUTLINE
100
AcDbLine
 10
15.0
 20
-56.0
 30
0.0
 11
15.0
 21
-157.0
 31
0.0
  0
LINE
  5
FD
330
17
100
AcDbEntity
  8
OUTLINE
100
AcDbLine
 10
17.299999999999997
 20
-56.0
 30
0.0
 11
15.0
 21
-56.0
 31
0.0
  0
LINE
  5
FE
330
17
100
AcDbEntity
  8
OUTLINE
100
AcDbLine
 10
17.299999999999997
 20
-53.2
 30
0.0
 11
17.299999999999997
 21
-56.0
 31
0.0
  0
LINE
  5
FF
330
17
100
AcDbEntity
  8
OUTLINE
100
AcDbLine
 10
16.1
 20
-52.0
 30
0.0
 11
17.299999999999997
 21
-53.2
 31
0.0
  0
LINE
  5
100
330
17
100
AcDbEntity
  8
OUTLINE
100
AcDbLine
 10
15.0
 20
-52.0
 30
0.0
 11
16.1
 21
-52.0
 31
0.0
  0
LINE
  5
101
330
17
100
AcDbEntity
  8
OUTLINE
100
AcDbLine
 10
15.0
 20
-51.0
 30
0.0
 11
15.0
 21
-52.0
 31
0.0
  0
LINE
  5
102
330
17
100
AcDbEntity
  8
OUTLINE
100
AcDbLine
 10
16.5
 20
-51.0
 30
0.0
 11
15.0
 21
-51.0
 31
0.0
  0
LINE
  5
103
330
17
100
AcDbEntity
  8
OUTLINE
100
AcDbLine
 10
16.5
 20
-48.5
 30
0.0
 11
16.5
 21
-51.0
 31
0.0
  0
LINE
  5
104
330
17
100
AcDbEntity
  8
OUTLINE
100
AcDbLine
 10
15.0
 20
-48.5
 30
0.0
 11
16.5
 21
-48.5
 31
0.0
  0
LINE
  5
105
330
17
100
AcDbEntity
  8
OUTLINE
100
AcDbLine
 10
15.0
 20
-48.0
 30
0.0
 11
15.0
 21
-48.5
 31
0.0
  0
LINE
  5
106
330
17
100
AcDbEntity
  8
OUTLINE
100
AcDbLine
 10
13.200000000000003
 20
-48.0
 30
0.0
 11
15.0
 21
-48.0
 31
0.0
  0
LINE
  5
107
330
17
100
AcDbEntity
  8
OUTLINE
100
AcDbLine
 10
13.200000000000003
 20
-72.0
 30
0.0
 11
13.200000000000003
 21
-48.0
 31
0.0
  0
LINE
  5
108
330
17
100
AcDbEntity
  8
OUTLINE
100
AcDbLine
 10
5.0
 20
-72.0
 30
0.0
 11
13.200000000000003
 21
-72.0
 31
0.0
  0
LINE
  5
109
330
17
100
AcDbEntity
  8
REF
100
AcDbLine
 10
45.6
 20
-21.30000000000001
 30
0.0
 11
45.6
 21
-24.69999999999999
 31
0.0
  0
LINE
  5
10A
330
17
100
AcDbEntity
  8
REF
100
AcDbLine
 10
50.7
 20
-21.30000000000001
 30
0.0
 11
45.6
 21
-21.30000000000001
 31
0.0
  0
LINE
  5
10B
330
17
100
AcDbEntity
  8
REF
100
AcDbLine
 10
50.699999999999996
 20
-2.6999999999999886
 30
0.0
 11
50.7
 21
-21.30000000000001
 31
0.0
  0
LINE
  5
10C
330
17
100
AcDbEntity
  8
REF
100
AcDbLine
 10
47.199999999999996
 20
-2.6999999999999886
 30
0.0
 11
50.699999999999996
 21
-2.6999999999999886
 31
0.0
  0
LINE
  5
10D
330
17
100
AcDbEntity
  8
REF
100
AcDbLine
 10
47.199999999999996
 20
0.6999999999999886
 30
0.0
 11
47.199999999999996
 21
-2.6999999999999886
 31
0.0
  0
LINE
  5
10E
330
17
100
AcDbEntity
  8
REF
100
AcDbLine
 10
43.8
 20
0.6999999999999886
 30
0.0
 11
47.199999999999996
 21
0.6999999999999886
 31
0.0
  0
LINE
  5
10F
330
17
100
AcDbEntity
  8
REF
100
AcDbLine
 10
43.8
 20
-3.486857574449772
 30
0.0
 11
43.8
 21
0.6999999999999886
 31
0.0
  0
LINE
  5
110
330
17
100
AcDbEntity
  8
REF
100
AcDbLine
 10
42.6
 20
-3.486857574449772
 30
0.0
 11
43.8
 21
-3.486857574449772
 31
0.0
  0
LINE
  5
111
330
17
100
AcDbEntity
  8
REF
100
AcDbLine
 10
42.6
 20
-6.513142425550228
 30
0.0
 11
42.6
 21
-3.486857574449772
 31
0.0
  0
LINE
  5
112
330
17
100
AcDbEntity
  8
REF
100
AcDbLine
 10
43.8
 20
-6.513142425550228
 30
0.0
 11
42.6
 21
-6.513142425550228
 31
0.0
  0
LINE
  5
113
330
17
100
AcDbEntity
  8
REF
100
AcDbLine
 10
43.8
 20
-17.486857574449772
 30
0.0
 11
43.8
 21
-6.513142425550228
 31
0.0
  0
LINE
  5
114
330
17
100
AcDbEntity
  8
REF
100
AcDbLine
 10
42.6
 20
-17.486857574449772
 30
0.0
 11
43.8
 21
-17.486857574449772
 31
0.0
  0
LINE
  5
115
330
17
100
AcDbEntity
  8
REF
100
AcDbLine
 10
42.6
 20
-20.513142425550228
 30
0.0
 11
42.6
 21
-17.486857574449772
 31
0.0
  0
LINE
  5
116
330
17
100
AcDbEntity
  8
REF
100
AcDbLine
 10
43.8
 20
-20.513142425550228
 30
0.0
 11
42.6
 21
-20.513142425550228
 31
0.0
  0
LINE
  5
117
330
17
100
AcDbEntity
  8
REF
100
AcDbLine
 10
43.8
 20
-24.69999999999999
 30
0.0
 11
43.8
 21
-20.513142425550228
 31
0.0
  0
LINE
  5
118
330
17
100
AcDbEntity
  8
REF
100
AcDbLine
 10
45.6
 20
-24.69999999999999
 30
0.0
 11
43.8
 21
-24.69999999999999
 31
0.0
  0
LINE
  5
119
330
17
100
AcDbEntity
  8
REF
100
AcDbLine
 10
22.5
 20
-85.1
 30
0.0
 11
43.81
 21
-85.1
 31
0.0
  0
LINE
  5
11A
330
17
100
AcDbEntity
  8
REF
100
AcDbLine
 10
22.5
 20
-106.0
 30
0.0
 11
22.5
 21
-85.1
 31
0.0
  0
LINE
  5
11B
330
17
100
AcDbEntity
  8
REF
100
AcDbLine
 10
43.81
 20
-106.0
 30
0.0
 11
22.5
 21
-106.0
 31
0.0
  0
LINE
  5
11C
330
17
100
AcDbEntity
  8
REF
100
AcDbLine
 10
43.81
 20
-105.05
 30
0.0
 11
43.81
 21
-106.0
 31
0.0
  0
LINE
  5
11D
330
17
100
AcDbEntity
  8
REF
100
AcDbLine
 10
33.655
 20
-105.05
 30
0.0
 11
43.81
 21
-105.05
 31
0.0
  0
LWPOLYLINE
  5
11E
330
17
100
AcDbEntity
  8
REF
100
AcDbPolyline
 90
37
 70
0
 10
33.655
 20
-105.05
 10
32.827020443897254
 20
-105.01384963187158
 10
32.00534231216417
 20
-104.90567365361598
 10
31.196219071526052
 20
-104.72629534974615
 10
30.40580863840615
 20
-104.47707989746613
 10
29.640126513463358
 20
-104.15992397684818
 10
28.905
 20
-103.77724133595217
 10
28.206023854665062
 20
-103.33194442074542
 10
27.54851770797788
 20
-102.82742220963029
 10
26.937485578727802
 20
-102.26751442127221
 10
26.377577790369713
 20
-101.65648229202212
 10
25.873055579254583
 20
-100.99897614533494
 10
25.427758664047836
 20
-100.30000000000001
 10
25.04507602315183
 20
-99.56487348653664
 10
24.727920102533872
 20
-98.79919136159384
 10
24.478704650253853
 20
-98.00878092847395
 10
24.299326346384024
 20
-97.19965768783584
 10
24.19115036812842
 20
-96.37797955610276
 10
24.155
 20
-95.55
 10
24.19115036812842
 20
-94.72202044389725
 10
24.299326346384024
 20
-93.90034231216416
 10
24.478704650253853
 20
-93.09121907152606
 10
24.727920102533872
 20
-92.30080863840615
 10
25.04507602315182
 20
-91.53512651346335
 10
25.42775866404783
 20
-90.8
 10
25.873055579254576
 20
-90.10102385466507
 10
26.377577790369703
 20
-89.44351770797788
 10
26.9374855787278
 20
-88.8324855787278
 10
27.548517707977876
 20
-88.27257779036971
 10
28.20602385466506
 20
-87.76805557925458
 10
28.904999999999998
 20
-87.32275866404783
 10
29.640126513463358
 20
-86.94007602315182
 10
30.40580863840615
 20
-86.62292010253387
 10
31.196219071526055
 20
-86.37370465025384
 10
32.00534231216416
 20
-86.19432634638402
 10
32.82702044389725
 20
-86.08615036812841
 10
33.655
 20
-86.05
  0
LINE
  5
11F
330
17
100
AcDbEntity
  8
REF
100
AcDbLine
 10
43.81
 20
-86.05
 30
0.0
 11
33.655
 21
-86.05
 31
0.0
  0
LINE
  5
120
330
17
100
AcDbEntity
  8
REF
100
AcDbLine
 10
43.81
 20
-85.1
 30
0.0
 11
43.81
 21
-86.05
 31
0.0
  0
LWPOLYLINE
  5
121
330
17
100
AcDbEntity
  8
REF
100
AcDbPolyline
 90
37
 70
0
 10
33.655
 20
-86.3
 10
35.26124564341911
 20
-86.44052828463707
 10
36.818686325762435
 20
-86.85784325773034
 10
38.28
 20
-87.53926501499394
 10
39.60078538960049
 20
-88.46408890114945
 10
40.740911098850546
 20
-89.60421461039951
 10
41.665734985006054
 20
-90.925
 10
42.347156742269654
 20
-92.38631367423756
 10
42.76447171536292
 20
-93.9437543565809
 10
42.905
 20
-95.55
 10
42.76447171536292
 20
-97.15624564341911
 10
42.347156742269654
 20
-98.71368632576244
 10
41.66573498500606
 20
-100.175
 10
40.740911098850546
 20
-101.49578538960048
 10
39.60078538960049
 20
-102.63591109885054
 10
38.28
 20
-103.56073498500606
 10
36.81868632576244
 20
-104.24215674226966
 10
35.2612456434191
 20
-104.65947171536291
 10
33.655
 20
-104.8
 10
32.04875435658089
 20
-104.65947171536291
 10
30.491313674237563
 20
-104.24215674226966
 10
29.03
 20
-103.56073498500605
 10
27.70921461039951
 20
-102.63591109885054
 10
26.569088901149456
 20
-101.49578538960048
 10
25.644265014993948
 20
-100.17500000000001
 10
24.96284325773035
 20
-98.71368632576244
 10
24.54552828463708
 20
-97.15624564341911
 10
24.405
 20
-95.55
 10
24.545528284637076
 20
-93.9437543565809
 10
24.96284325773035
 20
-92.38631367423756
 10
25.644265014993945
 20
-90.925
 10
26.569088901149453
 20
-89.60421461039951
 10
27.70921461039951
 20
-88.46408890114945
 10
29.029999999999998
 20
-87.53926501499394
 10
30.491313674237567
 20
-86.85784325773034
 10
32.04875435658089
 20
-86.44052828463707
 10
33.655
 20
-86.3
  0
LINE
  5
122
330
17
100
AcDbEntity
  8
REF
100
AcDbLine
 10
59.5
 20
-209.95
 30
0.0
 11
62.5
 21
-209.95
 31
0.0
  0
LINE
  5
123
330
17
100
AcDbEntity
  8
REF
100
AcDbLine
 10
59.5
 20
-210.475
 30
0.0
 11
59.5
 21
-209.95
 31
0.0
  0
LINE
  5
124
330
17
100
AcDbEntity
  8
REF
100
AcDbLine
 10
45.5
 20
-210.475
 30
0.0
 11
59.5
 21
-210.475
 31
0.0
  0
LINE
  5
125
330
17
100
AcDbEntity
  8
REF
100
AcDbLine
 10
45.5
 20
-210.925
 30
0.0
 11
45.5
 21
-210.475
 31
0.0
  0
LINE
  5
126
330
17
100
AcDbEntity
  8
REF
100
AcDbLine
 10
59.5
 20
-210.925
 30
0.0
 11
45.5
 21
-210.925
 31
0.0
  0
LINE
  5
127
330
17
100
AcDbEntity
  8
REF
100
AcDbLine
 10
59.5
 20
-211.45
 30
0.0
 11
59.5
 21
-210.925
 31
0.0
  0
LINE
  5
128
330
17
100
AcDbEntity
  8
REF
100
AcDbLine
 10
62.5
 20
-211.45
 30
0.0
 11
59.5
 21
-211.45
 31
0.0
  0
LINE
  5
129
330
17
100
AcDbEntity
  8
REF
100
AcDbLine
 10
62.5
 20
-209.95
 30
0.0
 11
62.5
 21
-211.45
 31
0.0
  0
LINE
  5
12A
330
17
100
AcDbEntity
  8
REF
100
AcDbLine
 10
42.0
 20
-165.0
 30
0.0
 11
80.0
 21
-165.0
 31
0.0
  0
LINE
  5
12B
330
17
100
AcDbEntity
  8
REF
100
AcDbLine
 10
42.0
 20
-207.0
 30
0.0
 11
42.0
 21
-165.0
 31
0.0
  0
LINE
  5
12C
330
17
100
AcDbEntity
  8
REF
100
AcDbLine
 10
57.9
 20
-207.0
 30
0.0
 11
42.0
 21
-207.0
 31
0.0
  0
LINE
  5
12D
330
17
100
AcDbEntity
  8
REF
100
AcDbLine
 10
57.9
 20
-203.8
 30
0.0
 11
57.9
 21
-207.0
 31
0.0
  0
LINE
  5
12E
330
17
100
AcDbEntity
  8
REF
100
AcDbLine
 10
64.1
 20
-203.8
 30
0.0
 11
57.9
 21
-203.8
 31
0.0
  0
LINE
  5
12F
330
17
100
AcDbEntity
  8
REF
100
AcDbLine
 10
64.1
 20
-207.0
 30
0.0
 11
64.1
 21
-203.8
 31
0.0
  0
LINE
  5
130
330
17
100
AcDbEntity
  8
REF
100
AcDbLine
 10
80.0
 20
-207.0
 30
0.0
 11
64.1
 21
-207.0
 31
0.0
  0
LINE
  5
131
330
17
100
AcDbEntity
  8
REF
100
AcDbLine
 10
80.0
 20
-165.0
 30
0.0
 11
80.0
 21
-207.0
 31
0.0
  0
LINE
  5
132
330
17
100
AcDbEntity
  8
REF
100
AcDbLine
 10
42.0
 20
-254.0
 30
0.0
 11
80.0
 21
-254.0
 31
0.0
  0
LINE
  5
133
330
17
100
AcDbEntity
  8
REF
100
AcDbLine
 10
42.0
 20
-268.0
 30
0.0
 11
42.0
 21
-254.0
 31
0.0
  0
LINE
  5
134
330
17
100
AcDbEntity
  8
REF
100
AcDbLine
 10
80.0
 20
-268.0
 30
0.0
 11
42.0
 21
-268.0
 31
0.0
  0
LINE
  5
135
330
17
100
AcDbEntity
  8
REF
100
AcDbLine
 10
80.0
 20
-254.0
 30
0.0
 11
80.0
 21
-268.0
 31
0.0
  0
LINE
  5
136
330
17
100
AcDbEntity
  8
REF
100
AcDbLine
 10
64.0
 20
-203.8
 30
0.0
 11
64.0
 21
-205.8
 31
0.0
  0
LINE
  5
137
330
17
100
AcDbEntity
  8
REF
100
AcDbLine
 10
58.0
 20
-203.8
 30
0.0
 11
64.0
 21
-203.8
 31
0.0
  0
LINE
  5
138
330
17
100
AcDbEntity
  8
REF
100
AcDbLine
 10
58.0
 20
-205.8
 30
0.0
 11
58.0
 21
-203.8
 31
0.0
  0
LINE
  5
139
330
17
100
AcDbEntity
  8
REF
100
AcDbLine
 10
64.0
 20
-205.8
 30
0.0
 11
58.0
 21
-205.8
 31
0.0
  0
TEXT
  5
13A
330
17
100
AcDbEntity
  8
TEXT
100
AcDbText
 10
5.0
 20
-170.0
 30
0.0
 40
2.8
  1
SIDE SECTION at X=50: hanging bar, saddle, Hall sensor in its nest, magnet over it, sign handle, lid, backplate, battery holder on its shelf above the bay
 11
5.0
 21
-170.0
 31
0.0
100
AcDbText
  0
LINE
  5
13B
330
17
100
AcDbEntity
  8
OUTLINE
100
AcDbLine
 10
300.0
 20
-157.5
 30
0.0
 11
300.0
 21
-160.0
 31
0.0
  0
LINE
  5
13C
330
17
100
AcDbEntity
  8
OUTLINE
100
AcDbLine
 10
295.25
 20
-157.5
 30
0.0
 11
300.0
 21
-157.5
 31
0.0
  0
LINE
  5
13D
330
17
100
AcDbEntity
  8
OUTLINE
100
AcDbLine
 10
295.25
 20
-154.6
 30
0.0
 11
295.25
 21
-157.5
 31
0.0
  0
LINE
  5
13E
330
17
100
AcDbEntity
  8
OUTLINE
100
AcDbLine
 10
267.5
 20
-154.6
 30
0.0
 11
295.25
 21
-154.6
 31
0.0
  0
LINE
  5
13F
330
17
100
AcDbEntity
  8
OUTLINE
100
AcDbLine
 10
267.5
 20
-109.5
 30
0.0
 11
267.5
 21
-154.6
 31
0.0
  0
LINE
  5
140
330
17
100
AcDbEntity
  8
OUTLINE
100
AcDbLine
 10
279.5
 20
-109.5
 30
0.0
 11
267.5
 21
-109.5
 31
0.0
  0
LINE
  5
141
330
17
100
AcDbEntity
  8
OUTLINE
100
AcDbLine
 10
279.5
 20
-106.5
 30
0.0
 11
279.5
 21
-109.5
 31
0.0
  0
LINE
  5
142
330
17
100
AcDbEntity
  8
OUTLINE
100
AcDbLine
 10
267.5
 20
-106.5
 30
0.0
 11
279.5
 21
-106.5
 31
0.0
  0
LINE
  5
143
330
17
100
AcDbEntity
  8
OUTLINE
100
AcDbLine
 10
267.5
 20
-84.6
 30
0.0
 11
267.5
 21
-106.5
 31
0.0
  0
LINE
  5
144
330
17
100
AcDbEntity
  8
OUTLINE
100
AcDbLine
 10
279.5
 20
-84.6
 30
0.0
 11
267.5
 21
-84.6
 31
0.0
  0
LINE
  5
145
330
17
100
AcDbEntity
  8
OUTLINE
100
AcDbLine
 10
279.5
 20
-82.0
 30
0.0
 11
279.5
 21
-84.6
 31
0.0
  0
LINE
  5
146
330
17
100
AcDbEntity
  8
OUTLINE
100
AcDbLine
 10
300.0
 20
-82.0
 30
0.0
 11
279.5
 21
-82.0
 31
0.0
  0
LINE
  5
147
330
17
100
AcDbEntity
  8
OUTLINE
100
AcDbLine
 10
300.0
 20
-70.0
 30
0.0
 11
300.0
 21
-82.0
 31
0.0
  0
LINE
  5
148
330
17
100
AcDbEntity
  8
OUTLINE
100
AcDbLine
 10
275.0
 20
-70.0
 30
0.0
 11
300.0
 21
-70.0
 31
0.0
  0
LINE
  5
149
330
17
100
AcDbEntity
  8
OUTLINE
100
AcDbLine
 10
275.0
 20
-53.0
 30
0.0
 11
275.0
 21
-70.0
 31
0.0
  0
LINE
  5
14A
330
17
100
AcDbEntity
  8
OUTLINE
100
AcDbLine
 10
267.5
 20
-53.0
 30
0.0
 11
275.0
 21
-53.0
 31
0.0
  0
LINE
  5
14B
330
17
100
AcDbEntity
  8
OUTLINE
100
AcDbLine
 10
267.5
 20
-32.75
 30
0.0
 11
267.5
 21
-53.0
 31
0.0
  0
LINE
  5
14C
330
17
100
AcDbEntity
  8
OUTLINE
100
AcDbLine
 10
275.0
 20
-32.75
 30
0.0
 11
267.5
 21
-32.75
 31
0.0
  0
LINE
  5
14D
330
17
100
AcDbEntity
  8
OUTLINE
100
AcDbLine
 10
275.0
 20
-27.0
 30
0.0
 11
275.0
 21
-32.75
 31
0.0
  0
LINE
  5
14E
330
17
100
AcDbEntity
  8
OUTLINE
100
AcDbLine
 10
299.5
 20
-27.0
 30
0.0
 11
275.0
 21
-27.0
 31
0.0
  0
LINE
  5
14F
330
17
100
AcDbEntity
  8
OUTLINE
100
AcDbLine
 10
299.5
 20
-25.599999999999994
 30
0.0
 11
299.5
 21
-27.0
 31
0.0
  0
LINE
  5
150
330
17
100
AcDbEntity
  8
OUTLINE
100
AcDbLine
 10
275.0
 20
-25.599999999999994
 30
0.0
 11
299.5
 21
-25.599999999999994
 31
0.0
  0
LINE
  5
151
330
17
100
AcDbEntity
  8
OUTLINE
100
AcDbLine
 10
275.0
 20
-3.0
 30
0.0
 11
275.0
 21
-25.599999999999994
 31
0.0
  0
LINE
  5
152
330
17
100
AcDbEntity
  8
OUTLINE
100
AcDbLine
 10
267.5
 20
-3.0
 30
0.0
 11
275.0
 21
-3.0
 31
0.0
  0
LINE
  5
153
330
17
100
AcDbEntity
  8
OUTLINE
100
AcDbLine
 10
267.5
 20
-0.09999999999999432
 30
0.0
 11
267.5
 21
-3.0
 31
0.0
  0
LINE
  5
154
330
17
100
AcDbEntity
  8
OUTLINE
100
AcDbLine
 10
293.8
 20
-0.09999999999999432
 30
0.0
 11
267.5
 21
-0.09999999999999432
 31
0.0
  0
LINE
  5
155
330
17
100
AcDbEntity
  8
OUTLINE
100
AcDbLine
 10
293.8
 20
1.0
 30
0.0
 11
293.8
 21
-0.09999999999999432
 31
0.0
  0
LINE
  5
156
330
17
100
AcDbEntity
  8
OUTLINE
100
AcDbLine
 10
299.5
 20
1.0
 30
0.0
 11
293.8
 21
1.0
 31
0.0
  0
LINE
  5
157
330
17
100
AcDbEntity
  8
OUTLINE
100
AcDbLine
 10
299.5
 20
3.0
 30
0.0
 11
299.5
 21
1.0
 31
0.0
  0
LINE
  5
158
330
17
100
AcDbEntity
  8
OUTLINE
100
AcDbLine
 10
267.5
 20
3.0
 30
0.0
 11
299.5
 21
3.0
 31
0.0
  0
LINE
  5
159
330
17
100
AcDbEntity
  8
OUTLINE
100
AcDbLine
 10
267.5
 20
11.5
 30
0.0
 11
267.5
 21
3.0
 31
0.0
  0
LINE
  5
15A
330
17
100
AcDbEntity
  8
OUTLINE
100
AcDbLine
 10
300.0
 20
11.5
 30
0.0
 11
267.5
 21
11.5
 31
0.0
  0
LINE
  5
15B
330
17
100
AcDbEntity
  8
OUTLINE
100
AcDbLine
 10
300.0
 20
14.0
 30
0.0
 11
300.0
 21
11.5
 31
0.0
  0
LINE
  5
15C
330
17
100
AcDbEntity
  8
OUTLINE
100
AcDbLine
 10
265.0
 20
14.0
 30
0.0
 11
300.0
 21
14.0
 31
0.0
  0
LINE
  5
15D
330
17
100
AcDbEntity
  8
OUTLINE
100
AcDbLine
 10
265.0
 20
-21.991262723333932
 30
0.0
 11
265.0
 21
14.0
 31
0.0
  0
LINE
  5
15E
330
17
100
AcDbEntity
  8
OUTLINE
100
AcDbLine
 10
268.29
 20
-21.991262723333932
 30
0.0
 11
265.0
 21
-21.991262723333932
 31
0.0
  0
LINE
  5
15F
330
17
100
AcDbEntity
  8
OUTLINE
100
AcDbLine
 10
268.29
 20
-7.991262723333932
 30
0.0
 11
268.29
 21
-21.991262723333932
 31
0.0
  0
LINE
  5
160
330
17
100
AcDbEntity
  8
OUTLINE
100
AcDbLine
 10
272.5
 20
-7.991262723333932
 30
0.0
 11
268.29
 21
-7.991262723333932
 31
0.0
  0
LINE
  5
161
330
17
100
AcDbEntity
  8
OUTLINE
100
AcDbLine
 10
272.5
 20
-28.008737276666068
 30
0.0
 11
272.5
 21
-7.991262723333932
 31
0.0
  0
LINE
  5
162
330
17
100
AcDbEntity
  8
OUTLINE
100
AcDbLine
 10
265.0
 20
-28.008737276666068
 30
0.0
 11
272.5
 21
-28.008737276666068
 31
0.0
  0
LINE
  5
163
330
17
100
AcDbEntity
  8
OUTLINE
100
AcDbLine
 10
265.0
 20
-71.99126272333392
 30
0.0
 11
265.0
 21
-28.008737276666068
 31
0.0
  0
LINE
  5
164
330
17
100
AcDbEntity
  8
OUTLINE
100
AcDbLine
 10
268.29
 20
-71.99126272333392
 30
0.0
 11
265.0
 21
-71.99126272333392
 31
0.0
  0
LINE
  5
165
330
17
100
AcDbEntity
  8
OUTLINE
100
AcDbLine
 10
268.29
 20
-57.99126272333392
 30
0.0
 11
268.29
 21
-71.99126272333392
 31
0.0
  0
LINE
  5
166
330
17
100
AcDbEntity
  8
OUTLINE
100
AcDbLine
 10
272.5
 20
-57.99126272333392
 30
0.0
 11
268.29
 21
-57.99126272333392
 31
0.0
  0
LINE
  5
167
330
17
100
AcDbEntity
  8
OUTLINE
100
AcDbLine
 10
272.5
 20
-78.00873727666608
 30
0.0
 11
272.5
 21
-57.99126272333392
 31
0.0
  0
LINE
  5
168
330
17
100
AcDbEntity
  8
OUTLINE
100
AcDbLine
 10
265.0
 20
-78.00873727666608
 30
0.0
 11
272.5
 21
-78.00873727666608
 31
0.0
  0
LINE
  5
169
330
17
100
AcDbEntity
  8
OUTLINE
100
AcDbLine
 10
265.0
 20
-155.9
 30
0.0
 11
265.0
 21
-78.00873727666608
 31
0.0
  0
LINE
  5
16A
330
17
100
AcDbEntity
  8
OUTLINE
100
AcDbLine
 10
265.6
 20
-155.9
 30
0.0
 11
265.0
 21
-155.9
 31
0.0
  0
LINE
  5
16B
330
17
100
AcDbEntity
  8
OUTLINE
100
AcDbLine
 10
265.6
 20
-156.5
 30
0.0
 11
265.6
 21
-155.9
 31
0.0
  0
LINE
  5
16C
330
17
100
AcDbEntity
  8
OUTLINE
100
AcDbLine
 10
294.0
 20
-156.5
 30
0.0
 11
265.6
 21
-156.5
 31
0.0
  0
LINE
  5
16D
330
17
100
AcDbEntity
  8
OUTLINE
100
AcDbLine
 10
294.0
 20
-158.4
 30
0.0
 11
294.0
 21
-156.5
 31
0.0
  0
LINE
  5
16E
330
17
100
AcDbEntity
  8
OUTLINE
100
AcDbLine
 10
265.6
 20
-158.4
 30
0.0
 11
294.0
 21
-158.4
 31
0.0
  0
LINE
  5
16F
330
17
100
AcDbEntity
  8
OUTLINE
100
AcDbLine
 10
265.6
 20
-158.82857142857142
 30
0.0
 11
265.6
 21
-158.4
 31
0.0
  0
LINE
  5
170
330
17
100
AcDbEntity
  8
OUTLINE
100
AcDbLine
 10
265.0
 20
-158.82857142857142
 30
0.0
 11
265.6
 21
-158.82857142857142
 31
0.0
  0
LINE
  5
171
330
17
100
AcDbEntity
  8
OUTLINE
100
AcDbLine
 10
265.0
 20
-160.0
 30
0.0
 11
265.0
 21
-158.82857142857142
 31
0.0
  0
LINE
  5
172
330
17
100
AcDbEntity
  8
OUTLINE
100
AcDbLine
 10
300.0
 20
-160.0
 30
0.0
 11
265.0
 21
-160.0
 31
0.0
  0
LINE
  5
173
330
17
100
AcDbEntity
  8
OUTLINE
100
AcDbLine
 10
300.0
 20
14.0
 30
0.0
 11
303.0
 21
14.0
 31
0.0
  0
LINE
  5
174
330
17
100
AcDbEntity
  8
OUTLINE
100
AcDbLine
 10
300.0
 20
0.6999999999999886
 30
0.0
 11
300.0
 21
14.0
 31
0.0
  0
LINE
  5
175
330
17
100
AcDbEntity
  8
OUTLINE
100
AcDbLine
 10
295.9
 20
0.6999999999999886
 30
0.0
 11
300.0
 21
0.6999999999999886
 31
0.0
  0
LINE
  5
176
330
17
100
AcDbEntity
  8
OUTLINE
100
AcDbLine
 10
295.9
 20
-1.200000000000017
 30
0.0
 11
295.9
 21
0.6999999999999886
 31
0.0
  0
LINE
  5
177
330
17
100
AcDbEntity
  8
OUTLINE
100
AcDbLine
 10
300.0
 20
-1.200000000000017
 30
0.0
 11
295.9
 21
-1.200000000000017
 31
0.0
  0
LINE
  5
178
330
17
100
AcDbEntity
  8
OUTLINE
100
AcDbLine
 10
300.0
 20
-1.8000000000000114
 30
0.0
 11
300.0
 21
-1.200000000000017
 31
0.0
  0
LINE
  5
179
330
17
100
AcDbEntity
  8
OUTLINE
100
AcDbLine
 10
302.0
 20
-1.8000000000000114
 30
0.0
 11
300.0
 21
-1.8000000000000114
 31
0.0
  0
LINE
  5
17A
330
17
100
AcDbEntity
  8
OUTLINE
100
AcDbLine
 10
302.0
 20
-3.6499999999999773
 30
0.0
 11
302.0
 21
-1.8000000000000114
 31
0.0
  0
LINE
  5
17B
330
17
100
AcDbEntity
  8
OUTLINE
100
AcDbLine
 10
302.2
 20
-3.6499999999999773
 30
0.0
 11
302.0
 21
-3.6499999999999773
 31
0.0
  0
LINE
  5
17C
330
17
100
AcDbEntity
  8
OUTLINE
100
AcDbLine
 10
303.0
 20
-2.849999999999966
 30
0.0
 11
302.2
 21
-3.6499999999999773
 31
0.0
  0
LINE
  5
17D
330
17
100
AcDbEntity
  8
OUTLINE
100
AcDbLine
 10
303.0
 20
14.0
 30
0.0
 11
303.0
 21
-2.849999999999966
 31
0.0
  0
LINE
  5
17E
330
17
100
AcDbEntity
  8
OUTLINE
100
AcDbLine
 10
302.2
 20
-16.75
 30
0.0
 11
303.0
 21
-17.55000000000001
 31
0.0
  0
LINE
  5
17F
330
17
100
AcDbEntity
  8
OUTLINE
100
AcDbLine
 10
302.0
 20
-16.75
 30
0.0
 11
302.2
 21
-16.75
 31
0.0
  0
LINE
  5
180
330
17
100
AcDbEntity
  8
OUTLINE
100
AcDbLine
 10
302.0
 20
-22.400000000000006
 30
0.0
 11
302.0
 21
-16.75
 31
0.0
  0
LINE
  5
181
330
17
100
AcDbEntity
  8
OUTLINE
100
AcDbLine
 10
301.0
 20
-22.400000000000006
 30
0.0
 11
302.0
 21
-22.400000000000006
 31
0.0
  0
LINE
  5
182
330
17
100
AcDbEntity
  8
OUTLINE
100
AcDbLine
 10
301.0
 20
-25.5
 30
0.0
 11
301.0
 21
-22.400000000000006
 31
0.0
  0
LINE
  5
183
330
17
100
AcDbEntity
  8
OUTLINE
100
AcDbLine
 10
300.0
 20
-25.5
 30
0.0
 11
301.0
 21
-25.5
 31
0.0
  0
LINE
  5
184
330
17
100
AcDbEntity
  8
OUTLINE
100
AcDbLine
 10
300.0
 20
-94.05
 30
0.0
 11
300.0
 21
-25.5
 31
0.0
  0
LINE
  5
185
330
17
100
AcDbEntity
  8
OUTLINE
100
AcDbLine
 10
293.405
 20
-94.05
 30
0.0
 11
300.0
 21
-94.05
 31
0.0
  0
LINE
  5
186
330
17
100
AcDbEntity
  8
OUTLINE
100
AcDbLine
 10
293.405
 20
-97.05
 30
0.0
 11
293.405
 21
-94.05
 31
0.0
  0
LINE
  5
187
330
17
100
AcDbEntity
  8
OUTLINE
100
AcDbLine
 10
300.0
 20
-97.05
 30
0.0
 11
293.405
 21
-97.05
 31
0.0
  0
LINE
  5
188
330
17
100
AcDbEntity
  8
OUTLINE
100
AcDbLine
 10
300.0
 20
-155.25
 30
0.0
 11
300.0
 21
-97.05
 31
0.0
  0
LINE
  5
189
330
17
100
AcDbEntity
  8
OUTLINE
100
AcDbLine
 10
296.0
 20
-155.25
 30
0.0
 11
300.0
 21
-155.25
 31
0.0
  0
LINE
  5
18A
330
17
100
AcDbEntity
  8
OUTLINE
100
AcDbLine
 10
296.0
 20
-157.25
 30
0.0
 11
296.0
 21
-155.25
 31
0.0
  0
LINE
  5
18B
330
17
100
AcDbEntity
  8
OUTLINE
100
AcDbLine
 10
300.0
 20
-157.25
 30
0.0
 11
296.0
 21
-157.25
 31
0.0
  0
LINE
  5
18C
330
17
100
AcDbEntity
  8
OUTLINE
100
AcDbLine
 10
300.0
 20
-160.0
 30
0.0
 11
300.0
 21
-157.25
 31
0.0
  0
LINE
  5
18D
330
17
100
AcDbEntity
  8
OUTLINE
100
AcDbLine
 10
303.0
 20
-160.0
 30
0.0
 11
300.0
 21
-160.0
 31
0.0
  0
LINE
  5
18E
330
17
100
AcDbEntity
  8
OUTLINE
100
AcDbLine
 10
303.0
 20
-54.41499654772217
 30
0.0
 11
303.0
 21
-160.0
 31
0.0
  0
LWPOLYLINE
  5
18F
330
17
100
AcDbEntity
  8
OUTLINE
100
AcDbPolyline
 90
37
 70
0
 10
303.0000006
 20
-54.41499654716611
 10
302.98333391666665
 20
-54.41499654716611
 10
302.96666723333334
 20
-54.41499654716611
 10
302.95000055
 20
-54.41499654716611
 10
302.93333386666666
 20
-54.41499654716611
 10
302.91666718333335
 20
-54.41499654716611
 10
302.9000005
 20
-54.41499654716611
 10
302.88333381666666
 20
-54.41499654716611
 10
302.86666713333335
 20
-54.41499654716611
 10
302.85000045
 20
-54.41499654716611
 10
302.83333376666667
 20
-54.41499654716611
 10
302.81666708333336
 20
-54.41499654716611
 10
302.8000004
 20
-54.41499654716611
 10
302.7833337166667
 20
-54.41499654716611
 10
302.7666670333333
 20
-54.41499654716611
 10
302.75000035
 20
-54.41499654716611
 10
302.7333336666667
 20
-54.41499654716611
 10
302.7166669833333
 20
-54.41499654716611
 10
302.7000003
 20
-54.41499654716611
 10
302.6833336166667
 20
-54.41499654716611
 10
302.6666669333333
 20
-54.41499654716611
 10
302.65000025
 20
-54.41499654716611
 10
302.6333335666667
 20
-54.41499654716611
 10
302.6166668833333
 20
-54.41499654716611
 10
302.6000002
 20
-54.41499654716611
 10
302.58333351666664
 20
-54.41499654716611
 10
302.56666683333333
 20
-54.41499654716611
 10
302.55000015
 20
-54.41499654716611
 10
302.53333346666665
 20
-54.41499654716611
 10
302.51666678333333
 20
-54.41499654716611
 10
302.5000001
 20
-54.41499654716611
 10
302.48333341666665
 20
-54.41499654716611
 10
302.46666673333334
 20
-54.41499654716611
 10
302.45000004999997
 20
-54.41499654716611
 10
302.43333336666666
 20
-54.41499654716611
 10
302.41666668333335
 20
-54.41499654716611
 10
302.4
 20
-54.41499654716611
  0
LINE
  5
190
330
17
100
AcDbEntity
  8
OUTLINE
100
AcDbLine
 10
302.4
 20
-52.61505834024314
 30
0.0
 11
302.4
 21
-54.41499654716611
 31
0.0
  0
LWPOLYLINE
  5
191
330
17
100
AcDbEntity
  8
OUTLINE
100
AcDbPolyline
 90
37
 70
0
 10
303.0000006
 20
-52.615058340243124
 10
302.98333391666665
 20
-52.615058340243124
 10
302.96666723333334
 20
-52.615058340243124
 10
302.95000055
 20
-52.615058340243124
 10
302.93333386666666
 20
-52.615058340243124
 10
302.91666718333335
 20
-52.615058340243124
 10
302.9000005
 20
-52.615058340243124
 10
302.88333381666666
 20
-52.615058340243124
 10
302.86666713333335
 20
-52.615058340243124
 10
302.85000045
 20
-52.615058340243124
 10
302.83333376666667
 20
-52.615058340243124
 10
302.81666708333336
 20
-52.615058340243124
 10
302.8000004
 20
-52.615058340243124
 10
302.7833337166667
 20
-52.615058340243124
 10
302.7666670333333
 20
-52.615058340243124
 10
302.75000035
 20
-52.615058340243124
 10
302.7333336666667
 20
-52.615058340243124
 10
302.7166669833333
 20
-52.615058340243124
 10
302.7000003
 20
-52.615058340243124
 10
302.6833336166667
 20
-52.615058340243124
 10
302.6666669333333
 20
-52.615058340243124
 10
302.65000025
 20
-52.615058340243124
 10
302.6333335666667
 20
-52.615058340243124
 10
302.6166668833333
 20
-52.615058340243124
 10
302.6000002
 20
-52.615058340243124
 10
302.58333351666664
 20
-52.615058340243124
 10
302.56666683333333
 20
-52.615058340243124
 10
302.55000015
 20
-52.615058340243124
 10
302.53333346666665
 20
-52.615058340243124
 10
302.51666678333333
 20
-52.615058340243124
 10
302.5000001
 20
-52.615058340243124
 10
302.48333341666665
 20
-52.615058340243124
 10
302.46666673333334
 20
-52.615058340243124
 10
302.45000004999997
 20
-52.615058340243124
 10
302.43333336666666
 20
-52.615058340243124
 10
302.41666668333335
 20
-52.615058340243124
 10
302.4
 20
-52.615058340243124
  0
LINE
  5
192
330
17
100
AcDbEntity
  8
OUTLINE
100
AcDbLine
 10
303.0
 20
-51.63144761029412
 30
0.0
 11
303.0
 21
-52.615058339347755
 31
0.0
  0
LINE
  5
193
330
17
100
AcDbEntity
  8
OUTLINE
100
AcDbLine
 10
302.4
 20
-51.63144761029412
 30
0.0
 11
303.0
 21
-51.63144761029412
 31
0.0
  0
LINE
  5
194
330
17
100
AcDbEntity
  8
OUTLINE
100
AcDbLine
 10
302.4
 20
-50.97599496420183
 30
0.0
 11
302.4
 21
-51.63144761029412
 31
0.0
  0
LWPOLYLINE
  5
195
330
17
100
AcDbEntity
  8
OUTLINE
100
AcDbPolyline
 90
37
 70
0
 10
303.0000006
 20
-50.97599496420183
 10
302.98333391666665
 20
-50.97599496420183
 10
302.96666723333334
 20
-50.97599496420183
 10
302.95000055
 20
-50.97599496420183
 10
302.93333386666666
 20
-50.97599496420183
 10
302.91666718333335
 20
-50.97599496420183
 10
302.9000005
 20
-50.97599496420183
 10
302.88333381666666
 20
-50.97599496420183
 10
302.86666713333335
 20
-50.97599496420183
 10
302.85000045
 20
-50.97599496420183
 10
302.83333376666667
 20
-50.97599496420183
 10
302.81666708333336
 20
-50.97599496420183
 10
302.8000004
 20
-50.97599496420183
 10
302.7833337166667
 20
-50.97599496420183
 10
302.7666670333333
 20
-50.97599496420183
 10
302.75000035
 20
-50.97599496420183
 10
302.7333336666667
 20
-50.97599496420183
 10
302.7166669833333
 20
-50.97599496420183
 10
302.7000003
 20
-50.97599496420183
 10
302.6833336166667
 20
-50.97599496420183
 10
302.6666669333333
 20
-50.97599496420183
 10
302.65000025
 20
-50.97599496420183
 10
302.6333335666667
 20
-50.97599496420183
 10
302.6166668833333
 20
-50.97599496420183
 10
302.6000002
 20
-50.97599496420183
 10
302.58333351666664
 20
-50.97599496420183
 10
302.56666683333333
 20
-50.97599496420183
 10
302.55000015
 20
-50.97599496420183
 10
302.53333346666665
 20
-50.97599496420183
 10
302.51666678333333
 20
-50.97599496420183
 10
302.5000001
 20
-50.97599496420183
 10
302.48333341666665
 20
-50.97599496420183
 10
302.46666673333334
 20
-50.97599496420183
 10
302.45000004999997
 20
-50.97599496420183
 10
302.43333336666666
 20
-50.97599496420183
 10
302.41666668333335
 20
-50.97599496420183
 10
302.4
 20
-50.97599496420183
  0
LINE
  5
196
330
17
100
AcDbEntity
  8
OUTLINE
100
AcDbLine
 10
303.0
 20
-17.55000000000001
 30
0.0
 11
303.0
 21
-50.97599496739099
 31
0.0
  0
LINE
  5
197
330
17
100
AcDbEntity
  8
OUTLINE
100
AcDbLine
 10
293.4
 20
-157.95
 30
0.0
 11
265.5
 21
-157.95
 31
0.0
  0
LINE
  5
198
330
17
100
AcDbEntity
  8
OUTLINE
100
AcDbLine
 10
293.4
 20
-156.95
 30
0.0
 11
293.4
 21
-157.95
 31
0.0
  0
LINE
  5
199
330
17
100
AcDbEntity
  8
OUTLINE
100
AcDbLine
 10
265.5
 20
-156.95
 30
0.0
 11
293.4
 21
-156.95
 31
0.0
  0
LINE
  5
19A
330
17
100
AcDbEntity
  8
OUTLINE
100
AcDbLine
 10
265.5
 20
-157.95
 30
0.0
 11
265.5
 21
-156.95
 31
0.0
  0
LINE
  5
19B
330
17
100
AcDbEntity
  8
OUTLINE
100
AcDbLine
 10
266.0
 20
-216.0
 30
0.0
 11
266.0
 21
-190.11
 31
0.0
  0
LINE
  5
19C
330
17
100
AcDbEntity
  8
OUTLINE
100
AcDbLine
 10
341.0
 20
-216.0
 30
0.0
 11
266.0
 21
-216.0
 31
0.0
  0
LINE
  5
19D
330
17
100
AcDbEntity
  8
OUTLINE
100
AcDbLine
 10
341.0
 20
-186.0
 30
0.0
 11
341.0
 21
-216.0
 31
0.0
  0
LINE
  5
19E
330
17
100
AcDbEntity
  8
OUTLINE
100
AcDbLine
 10
332.0
 20
-186.0
 30
0.0
 11
341.0
 21
-186.0
 31
0.0
  0
LINE
  5
19F
330
17
100
AcDbEntity
  8
OUTLINE
100
AcDbLine
 10
332.0
 20
-208.0
 30
0.0
 11
332.0
 21
-186.0
 31
0.0
  0
LINE
  5
1A0
330
17
100
AcDbEntity
  8
OUTLINE
100
AcDbLine
 10
290.0
 20
-208.0
 30
0.0
 11
332.0
 21
-208.0
 31
0.0
  0
LINE
  5
1A1
330
17
100
AcDbEntity
  8
OUTLINE
100
AcDbLine
 10
290.0
 20
-206.0
 30
0.0
 11
290.0
 21
-208.0
 31
0.0
  0
LINE
  5
1A2
330
17
100
AcDbEntity
  8
OUTLINE
100
AcDbLine
 10
276.0
 20
-206.0
 30
0.0
 11
290.0
 21
-206.0
 31
0.0
  0
LINE
  5
1A3
330
17
100
AcDbEntity
  8
OUTLINE
100
AcDbLine
 10
276.0
 20
-190.11
 30
0.0
 11
276.0
 21
-206.0
 31
0.0
  0
LINE
  5
1A4
330
17
100
AcDbEntity
  8
OUTLINE
100
AcDbLine
 10
266.0
 20
-190.11
 30
0.0
 11
276.0
 21
-190.11
 31
0.0
  0
LINE
  5
1A5
330
17
100
AcDbEntity
  8
OUTLINE
100
AcDbLine
 10
255.0
 20
-157.0
 30
0.0
 11
255.0
 21
11.0
 31
0.0
  0
LINE
  5
1A6
330
17
100
AcDbEntity
  8
OUTLINE
100
AcDbLine
 10
265.0
 20
-157.0
 30
0.0
 11
255.0
 21
-157.0
 31
0.0
  0
LINE
  5
1A7
330
17
100
AcDbEntity
  8
OUTLINE
100
AcDbLine
 10
265.0
 20
11.0
 30
0.0
 11
265.0
 21
-157.0
 31
0.0
  0
LINE
  5
1A8
330
17
100
AcDbEntity
  8
OUTLINE
100
AcDbLine
 10
255.0
 20
11.0
 30
0.0
 11
265.0
 21
11.0
 31
0.0
  0
LWPOLYLINE
  5
1A9
330
17
100
AcDbEntity
  8
OUTLINE
100
AcDbPolyline
 90
37
 70
0
 10
270.74
 20
-10.056314885738772
 10
270.73040946932144
 20
-10.108180550279542
 10
270.7213284985428
 20
-10.160137849285576
 10
270.71276341816156
 20
-10.212182674927021
 10
270.7047203053545
 20
-10.264310713049781
 10
270.69720496307855
 20
-10.316517448394507
 10
270.69022289949174
 20
-10.368798171001572
 10
270.6837793078504
 20
-10.421147983809988
 10
270.6778790470437
 20
-10.47356181144633
 10
270.67252662292674
 20
-10.526034410186469
 10
270.6677261706146
 20
-10.578560379058274
 10
270.6634814378955
 20
-10.631134172040191
 10
270.65979576991657
 20
-10.683750111295552
 10
270.65667209528795
 20
-10.736402401369332
 10
270.65411291374016
 20
-10.789085144260241
 10
270.6521202854582
 20
-10.841792355268808
 10
270.65069582219945
 20
-10.894517979510795
 10
270.64984068028775
 20
-10.947255908975507
 10
270.64955555555554
 20
-11.0
 10
270.64984068028775
 20
-11.052744091024493
 10
270.65069582219945
 20
-11.105482020489205
 10
270.6521202854582
 20
-11.158207644731192
 10
270.65411291374016
 20
-11.210914855739759
 10
270.65667209528795
 20
-11.263597598630668
 10
270.65979576991657
 20
-11.316249888704448
 10
270.6634814378955
 20
-11.368865827959809
 10
270.6677261706146
 20
-11.421439620941726
 10
270.67252662292674
 20
-11.473965589813531
 10
270.6778790470437
 20
-11.52643818855367
 10
270.6837793078504
 20
-11.578852016190012
 10
270.69022289949174
 20
-11.631201828998428
 10
270.69720496307855
 20
-11.683482551605493
 10
270.7047203053545
 20
-11.735689286950219
 10
270.71276341816156
 20
-11.787817325072979
 10
270.7213284985428
 20
-11.839862150714424
 10
270.73040946932144
 20
-11.891819449720458
 10
270.74
 20
-11.943685114261228
  0
LINE
  5
1AA
330
17
100
AcDbEntity
  8
OUTLINE
100
AcDbLine
 10
270.74
 20
-11.99498743710663
 30
0.0
 11
270.74
 21
-11.943685114261228
 31
0.0
  0
LINE
  5
1AB
330
17
100
AcDbEntity
  8
OUTLINE
100
AcDbLine
 10
272.0
 20
-11.99498743710663
 30
0.0
 11
270.74
 21
-11.99498743710663
 31
0.0
  0
LINE
  5
1AC
330
17
100
AcDbEntity
  8
OUTLINE
100
AcDbLine
 10
272.0
 20
-10.00501256289337
 30
0.0
 11
272.0
 21
-11.99498743710663
 31
0.0
  0
LINE
  5
1AD
330
17
100
AcDbEntity
  8
OUTLINE
100
AcDbLine
 10
270.74
 20
-10.00501256289337
 30
0.0
 11
272.0
 21
-10.00501256289337
 31
0.0
  0
LINE
  5
1AE
330
17
100
AcDbEntity
  8
OUTLINE
100
AcDbLine
 10
270.74
 20
-10.056314885738772
 30
0.0
 11
270.74
 21
-10.00501256289337
 31
0.0
  0
LWPOLYLINE
  5
1AF
330
17
100
AcDbEntity
  8
OUTLINE
100
AcDbPolyline
 90
37
 70
0
 10
270.74
 20
-60.05631488573877
 10
270.73040946932144
 20
-60.108180550279556
 10
270.7213284985428
 20
-60.160137849285576
 10
270.71276341816156
 20
-60.21218267492702
 10
270.7047203053545
 20
-60.26431071304977
 10
270.69720496307855
 20
-60.31651744839449
 10
270.69022289949174
 20
-60.36879817100157
 10
270.6837793078504
 20
-60.42114798380999
 10
270.6778790470437
 20
-60.47356181144633
 10
270.67252662292674
 20
-60.526034410186455
 10
270.6677261706146
 20
-60.57856037905826
 10
270.6634814378955
 20
-60.63113417204018
 10
270.65979576991657
 20
-60.68375011129555
 10
270.65667209528795
 20
-60.73640240136935
 10
270.65411291374016
 20
-60.789085144260255
 10
270.6521202854582
 20
-60.84179235526882
 10
270.65069582219945
 20
-60.89451797951081
 10
270.64984068028775
 20
-60.94725590897551
 10
270.64955555555554
 20
-61.0
 10
270.64984068028775
 20
-61.05274409102449
 10
270.65069582219945
 20
-61.10548202048919
 10
270.6521202854582
 20
-61.15820764473118
 10
270.65411291374016
 20
-61.210914855739745
 10
270.65667209528795
 20
-61.26359759863065
 10
270.65979576991657
 20
-61.31624988870445
 10
270.6634814378955
 20
-61.36886582795981
 10
270.6677261706146
 20
-61.421439620941726
 10
270.67252662292674
 20
-61.473965589813545
 10
270.6778790470437
 20
-61.52643818855367
 10
270.6837793078504
 20
-61.57885201619001
 10
270.69022289949174
 20
-61.63120182899843
 10
270.69720496307855
 20
-61.68348255160551
 10
270.7047203053545
 20
-61.73568928695023
 10
270.71276341816156
 20
-61.78781732507298
 10
270.7213284985428
 20
-61.839862150714424
 10
270.73040946932144
 20
-61.891819449720444
 10
270.74
 20
-61.94368511426123
  0
LINE
  5
1B0
330
17
100
AcDbEntity
  8
OUTLINE
100
AcDbLine
 10
270.74
 20
-61.99498743710663
 30
0.0
 11
270.74
 21
-61.943685114261214
 31
0.0
  0
LINE
  5
1B1
330
17
100
AcDbEntity
  8
OUTLINE
100
AcDbLine
 10
272.0
 20
-61.99498743710663
 30
0.0
 11
270.74
 21
-61.99498743710663
 31
0.0
  0
LINE
  5
1B2
330
17
100
AcDbEntity
  8
OUTLINE
100
AcDbLine
 10
272.0
 20
-60.00501256289337
 30
0.0
 11
272.0
 21
-61.99498743710663
 31
0.0
  0
LINE
  5
1B3
330
17
100
AcDbEntity
  8
OUTLINE
100
AcDbLine
 10
270.74
 20
-60.00501256289337
 30
0.0
 11
272.0
 21
-60.00501256289337
 31
0.0
  0
LINE
  5
1B4
330
17
100
AcDbEntity
  8
OUTLINE
100
AcDbLine
 10
270.74
 20
-60.056314885738786
 30
0.0
 11
270.74
 21
-60.00501256289337
 31
0.0
  0
LINE
  5
1B5
330
17
100
AcDbEntity
  8
REF
100
AcDbLine
 10
295.6
 20
-21.30000000000001
 30
0.0
 11
295.6
 21
-22.0
 31
0.0
  0
LINE
  5
1B6
330
17
100
AcDbEntity
  8
REF
100
AcDbLine
 10
300.7
 20
-21.30000000000001
 30
0.0
 11
295.6
 21
-21.30000000000001
 31
0.0
  0
LINE
  5
1B7
330
17
100
AcDbEntity
  8
REF
100
AcDbLine
 10
300.7
 20
-2.6999999999999886
 30
0.0
 11
300.7
 21
-21.30000000000001
 31
0.0
  0
LINE
  5
1B8
330
17
100
AcDbEntity
  8
REF
100
AcDbLine
 10
295.6
 20
-2.6999999999999886
 30
0.0
 11
300.7
 21
-2.6999999999999886
 31
0.0
  0
LINE
  5
1B9
330
17
100
AcDbEntity
  8
REF
100
AcDbLine
 10
295.6
 20
0.6999999999999886
 30
0.0
 11
295.6
 21
-2.6999999999999886
 31
0.0
  0
LINE
  5
1BA
330
17
100
AcDbEntity
  8
REF
100
AcDbLine
 10
293.8
 20
0.6999999999999886
 30
0.0
 11
295.6
 21
0.6999999999999886
 31
0.0
  0
LINE
  5
1BB
330
17
100
AcDbEntity
  8
REF
100
AcDbLine
 10
293.8
 20
-22.0
 30
0.0
 11
293.8
 21
0.6999999999999886
 31
0.0
  0
LINE
  5
1BC
330
17
100
AcDbEntity
  8
REF
100
AcDbLine
 10
293.5
 20
-22.0
 30
0.0
 11
293.8
 21
-22.0
 31
0.0
  0
LINE
  5
1BD
330
17
100
AcDbEntity
  8
REF
100
AcDbLine
 10
293.5
 20
-25.0
 30
0.0
 11
293.5
 21
-22.0
 31
0.0
  0
LINE
  5
1BE
330
17
100
AcDbEntity
  8
REF
100
AcDbLine
 10
300.6
 20
-25.0
 30
0.0
 11
293.5
 21
-25.0
 31
0.0
  0
LINE
  5
1BF
330
17
100
AcDbEntity
  8
REF
100
AcDbLine
 10
300.6
 20
-22.0
 30
0.0
 11
300.6
 21
-25.0
 31
0.0
  0
LINE
  5
1C0
330
17
100
AcDbEntity
  8
REF
100
AcDbLine
 10
295.6
 20
-22.0
 30
0.0
 11
300.6
 21
-22.0
 31
0.0
  0
LINE
  5
1C1
330
17
100
AcDbEntity
  8
REF
100
AcDbLine
 10
272.5
 20
-85.1
 30
0.0
 11
293.81
 21
-85.1
 31
0.0
  0
LINE
  5
1C2
330
17
100
AcDbEntity
  8
REF
100
AcDbLine
 10
272.5
 20
-106.0
 30
0.0
 11
272.5
 21
-85.1
 31
0.0
  0
LINE
  5
1C3
330
17
100
AcDbEntity
  8
REF
100
AcDbLine
 10
293.81
 20
-106.0
 30
0.0
 11
272.5
 21
-106.0
 31
0.0
  0
LINE
  5
1C4
330
17
100
AcDbEntity
  8
REF
100
AcDbLine
 10
293.81
 20
-105.05
 30
0.0
 11
293.81
 21
-106.0
 31
0.0
  0
LINE
  5
1C5
330
17
100
AcDbEntity
  8
REF
100
AcDbLine
 10
283.655
 20
-105.05
 30
0.0
 11
293.81
 21
-105.05
 31
0.0
  0
LWPOLYLINE
  5
1C6
330
17
100
AcDbEntity
  8
REF
100
AcDbPolyline
 90
37
 70
0
 10
283.655
 20
-105.05
 10
282.82702044389725
 20
-105.01384963187158
 10
282.00534231216415
 20
-104.90567365361598
 10
281.19621907152606
 20
-104.72629534974615
 10
280.40580863840614
 20
-104.47707989746613
 10
279.6401265134634
 20
-104.15992397684818
 10
278.905
 20
-103.77724133595217
 10
278.2060238546651
 20
-103.33194442074542
 10
277.5485177079779
 20
-102.82742220963029
 10
276.9374855787278
 20
-102.26751442127221
 10
276.37757779036974
 20
-101.65648229202212
 10
275.8730555792546
 20
-100.99897614533494
 10
275.4277586640478
 20
-100.30000000000001
 10
275.0450760231518
 20
-99.56487348653664
 10
274.72792010253386
 20
-98.79919136159384
 10
274.47870465025386
 20
-98.00878092847395
 10
274.299326346384
 20
-97.19965768783584
 10
274.19115036812843
 20
-96.37797955610276
 10
274.155
 20
-95.55
 10
274.19115036812843
 20
-94.72202044389725
 10
274.299326346384
 20
-93.90034231216416
 10
274.47870465025386
 20
-93.09121907152606
 10
274.72792010253386
 20
-92.30080863840615
 10
275.0450760231518
 20
-91.53512651346335
 10
275.4277586640478
 20
-90.8
 10
275.8730555792546
 20
-90.10102385466507
 10
276.3775777903697
 20
-89.44351770797788
 10
276.9374855787278
 20
-88.8324855787278
 10
277.54851770797785
 20
-88.27257779036971
 10
278.20602385466503
 20
-87.76805557925458
 10
278.905
 20
-87.32275866404783
 10
279.6401265134634
 20
-86.94007602315182
 10
280.40580863840614
 20
-86.62292010253387
 10
281.19621907152606
 20
-86.37370465025384
 10
282.00534231216415
 20
-86.19432634638402
 10
282.82702044389725
 20
-86.08615036812841
 10
283.655
 20
-86.05
  0
LINE
  5
1C7
330
17
100
AcDbEntity
  8
REF
100
AcDbLine
 10
293.81
 20
-86.05
 30
0.0
 11
283.655
 21
-86.05
 31
0.0
  0
LINE
  5
1C8
330
17
100
AcDbEntity
  8
REF
100
AcDbLine
 10
293.81
 20
-85.1
 30
0.0
 11
293.81
 21
-86.05
 31
0.0
  0
LWPOLYLINE
  5
1C9
330
17
100
AcDbEntity
  8
REF
100
AcDbPolyline
 90
37
 70
0
 10
283.655
 20
-86.3
 10
285.2612456434191
 20
-86.44052828463707
 10
286.8186863257624
 20
-86.85784325773034
 10
288.28
 20
-87.53926501499394
 10
289.6007853896005
 20
-88.46408890114945
 10
290.7409110988506
 20
-89.60421461039951
 10
291.66573498500605
 20
-90.925
 10
292.34715674226965
 20
-92.38631367423756
 10
292.7644717153629
 20
-93.9437543565809
 10
292.905
 20
-95.55
 10
292.7644717153629
 20
-97.15624564341911
 10
292.34715674226965
 20
-98.71368632576244
 10
291.66573498500605
 20
-100.175
 10
290.7409110988506
 20
-101.49578538960048
 10
289.6007853896005
 20
-102.63591109885054
 10
288.28
 20
-103.56073498500606
 10
286.8186863257624
 20
-104.24215674226966
 10
285.2612456434191
 20
-104.65947171536291
 10
283.655
 20
-104.8
 10
282.0487543565809
 20
-104.65947171536291
 10
280.4913136742376
 20
-104.24215674226966
 10
279.03
 20
-103.56073498500605
 10
277.7092146103995
 20
-102.63591109885054
 10
276.5690889011495
 20
-101.49578538960048
 10
275.64426501499395
 20
-100.17500000000001
 10
274.96284325773036
 20
-98.71368632576244
 10
274.5455282846371
 20
-97.15624564341911
 10
274.405
 20
-95.55
 10
274.5455282846371
 20
-93.9437543565809
 10
274.96284325773036
 20
-92.38631367423756
 10
275.64426501499395
 20
-90.925
 10
276.5690889011494
 20
-89.60421461039951
 10
277.7092146103995
 20
-88.46408890114945
 10
279.03
 20
-87.53926501499394
 10
280.4913136742376
 20
-86.85784325773034
 10
282.0487543565809
 20
-86.44052828463707
 10
283.655
 20
-86.3
  0
LINE
  5
1CA
330
17
100
AcDbEntity
  8
REF
100
AcDbLine
 10
292.0
 20
-165.0
 30
0.0
 11
330.0
 21
-165.0
 31
0.0
  0
LINE
  5
1CB
330
17
100
AcDbEntity
  8
REF
100
AcDbLine
 10
292.0
 20
-207.0
 30
0.0
 11
292.0
 21
-165.0
 31
0.0
  0
LINE
  5
1CC
330
17
100
AcDbEntity
  8
REF
100
AcDbLine
 10
330.0
 20
-207.0
 30
0.0
 11
292.0
 21
-207.0
 31
0.0
  0
LINE
  5
1CD
330
17
100
AcDbEntity
  8
REF
100
AcDbLine
 10
330.0
 20
-165.0
 30
0.0
 11
330.0
 21
-207.0
 31
0.0
  0
LINE
  5
1CE
330
17
100
AcDbEntity
  8
REF
100
AcDbLine
 10
292.0
 20
-254.0
 30
0.0
 11
330.0
 21
-254.0
 31
0.0
  0
LINE
  5
1CF
330
17
100
AcDbEntity
  8
REF
100
AcDbLine
 10
292.0
 20
-268.0
 30
0.0
 11
292.0
 21
-254.0
 31
0.0
  0
LINE
  5
1D0
330
17
100
AcDbEntity
  8
REF
100
AcDbLine
 10
330.0
 20
-268.0
 30
0.0
 11
292.0
 21
-268.0
 31
0.0
  0
LINE
  5
1D1
330
17
100
AcDbEntity
  8
REF
100
AcDbLine
 10
330.0
 20
-254.0
 30
0.0
 11
330.0
 21
-268.0
 31
0.0
  0
TEXT
  5
1D2
330
17
100
AcDbEntity
  8
TEXT
100
AcDbText
 10
255.0
 20
-170.0
 30
0.0
 40
2.8
  1
SIDE SECTION at X=34.9: display window, display behind the bezel (no insert), board on rails, backplate
 11
255.0
 21
-170.0
 31
0.0
100
AcDbText
  0
DIMENSION
  5
1D3
330
17
100
AcDbEntity
  8
DIMS
100
AcDbDimension
280
0
  2
*D1
  3
EZDXF
 10
91.0
 20
-209.95
 30
0.0
 11
88.15
 21
-207.875
 31
0.0
 70
32
 71
5
  1
air gap <>
100
AcDbAlignedDimension
 13
61.0
 23
-209.95
 33
0.0
 14
61.0
 24
-205.8
 34
0.0
 50
90.0
100
AcDbRotatedDimension
1001
ACAD
1000
DSTYLE
1002
{
1070
140
1040
2.5
1070
41
1040
1.5
1070
42
1040
0.8
1070
44
1040
1.0
1070
147
1040
0.6
1070
271
1070
1
1002
}
  0
DIMENSION
  5
1E2
330
17
100
AcDbEntity
  8
DIMS
100
AcDbDimension
280
0
  2
*D2
  3
EZDXF
 10
5.0
 20
-226.0
 30
0.0
 11
48.0
 21
-224.15
 31
0.0
 70
32
 71
5
  1
reach from wall <>
100
AcDbAlignedDimension
 13
5.0
 23
-220.0
 33
0.0
 14
91.0
 24
-220.0
 34
0.0
 50
0.0
100
AcDbRotatedDimension
1001
ACAD
1000
DSTYLE
1002
{
1070
140
1040
2.5
1070
41
1040
1.5
1070
42
1040
0.8
1070
44
1040
1.0
1070
147
1040
0.6
1070
271
1070
1
1002
}
  0
DIMENSION
  5
1F1
330
17
100
AcDbEntity
  8
DIMS
100
AcDbDimension
280
0
  2
*D3
  3
EZDXF
 10
320.0
 20
-16.75
 30
0.0
 11
317.15
 21
-10.199999999999989
 31
0.0
 70
32
 71
5
  1
window <>
100
AcDbAlignedDimension
 13
310.0
 23
-16.75
 33
0.0
 14
310.0
 24
-3.6499999999999773
 34
0.0
 50
90.0
100
AcDbRotatedDimension
1001
ACAD
1000
DSTYLE
1002
{
1070
140
1040
2.5
1070
41
1040
1.5
1070
42
1040
0.8
1070
44
1040
1.0
1070
147
1040
0.6
1070
271
1070
1
1002
}
  0
DIMENSION
  5
200
330
17
100
AcDbEntity
  8
DIMS
100
AcDbDimension
280
0
  2
*D4
  3
EZDXF
 10
300.0
 20
14.0
 30
0.0
 11
297.8
 21
11.15
 31
0.0
 70
32
 71
5
  1
PCB top from lid inner face <>
100
AcDbAlignedDimension
 13
300.0
 23
8.0
 33
0.0
 14
295.6
 24
8.0
 34
0.0
 50
0.0
100
AcDbRotatedDimension
1001
ACAD
1000
DSTYLE
1002
{
1070
140
1040
2.5
1070
41
1040
1.5
1070
42
1040
0.8
1070
44
1040
1.0
1070
147
1040
0.6
1070
271
1070
1
1002
}
  0
ENDSEC
  0
SECTION
  2
OBJECTS
  0
DICTIONARY
  5
A
330
0
100
AcDbDictionary
281
1
  3
ACAD_COLOR
350
B
  3
ACAD_GROUP
350
C
  3
ACAD_LAYOUT
350
D
  3
ACAD_MATERIAL
350
E
  3
ACAD_MLEADERSTYLE
350
F
  3
ACAD_MLINESTYLE
350
10
  3
ACAD_PLOTSETTINGS
350
11
  3
ACAD_PLOTSTYLENAME
350
12
  3
ACAD_SCALELIST
350
14
  3
ACAD_TABLESTYLE
350
15
  3
ACAD_VISUALSTYLE
350
16
  3
EZDXF_META
350
2D
  0
DICTIONARY
  5
B
330
A
100
AcDbDictionary
281
1
  0
DICTIONARY
  5
C
330
A
100
AcDbDictionary
281
1
  0
DICTIONARY
  5
D
330
A
100
AcDbDictionary
281
1
  3
Model
350
1A
  3
Layout1
350
1E
  0
DICTIONARY
  5
E
330
A
100
AcDbDictionary
281
1
  3
ByBlock
350
1F
  3
ByLayer
350
20
  3
Global
350
21
  0
DICTIONARY
  5
F
330
A
100
AcDbDictionary
281
1
  3
Standard
350
2C
  0
DICTIONARY
  5
10
330
A
100
AcDbDictionary
281
1
  3
Standard
350
22
  0
DICTIONARY
  5
11
330
A
100
AcDbDictionary
281
1
  0
ACDBDICTIONARYWDFLT
  5
12
330
A
100
AcDbDictionary
281
1
  3
Normal
350
13
100
AcDbDictionaryWithDefault
340
13
  0
ACDBPLACEHOLDER
  5
13
330
12
  0
DICTIONARY
  5
14
330
A
100
AcDbDictionary
281
1
  0
DICTIONARY
  5
15
330
A
100
AcDbDictionary
281
1
  0
DICTIONARY
  5
16
330
A
100
AcDbDictionary
281
1
  3
2dWireframe
350
5A
  3
Basic
350
5B
  3
Brighten
350
5C
  3
ColorChange
350
5D
  3
Conceptual
350
5E
  3
Dim
350
5F
  3
EdgeColorOff
350
60
  3
Facepattern
350
61
  3
Flat
350
62
  3
FlatWithEdges
350
63
  3
Gouraud
350
64
  3
GouraudWithEdges
350
65
  3
Hidden
350
66
  3
JitterOff
350
67
  3
Linepattern
350
68
  3
Modeling
350
69
  3
OverhangOff
350
6A
  3
Realistic
350
6B
  3
Shaded
350
6C
  3
Shaded with edges
350
6D
  3
Shades of Gray
350
6E
  3
Sketchy
350
6F
  3
Thicken
350
70
  3
Wireframe
350
71
  3
X-Ray
350
72
  0
LAYOUT
  5
1A
330
D
100
AcDbPlotSettings
  1

  4
A3
  6

 40
7.5
 41
20.0
 42
7.5
 43
20.0
 44
420.0
 45
297.0
 46
0.0
 47
0.0
 48
0.0
 49
0.0
140
0.0
141
0.0
142
1.0
143
1.0
 70
1024
 72
1
 73
0
 74
5
  7

 75
16
 76
0
 77
2
 78
300
147
1.0
148
0.0
149
0.0
100
AcDbLayout
  1
Model
 70
1
 71
0
 10
0.0
 20
0.0
 11
420.0
 21
297.0
 12
0.0
 22
0.0
 32
0.0
 14
1e+20
 24
1e+20
 34
1e+20
 15
-1e+20
 25
-1e+20
 35
-1e+20
146
0.0
 13
0.0
 23
0.0
 33
0.0
 16
1.0
 26
0.0
 36
0.0
 17
0.0
 27
1.0
 37
0.0
 76
1
330
17
  0
LAYOUT
  5
1E
330
D
100
AcDbPlotSettings
  1

  4
A3
  6

 40
7.5
 41
20.0
 42
7.5
 43
20.0
 44
420.0
 45
297.0
 46
0.0
 47
0.0
 48
0.0
 49
0.0
140
0.0
141
0.0
142
1.0
143
1.0
 70
0
 72
1
 73
0
 74
5
  7

 75
16
 76
0
 77
2
 78
300
147
1.0
148
0.0
149
0.0
100
AcDbLayout
  1
Layout1
 70
1
 71
1
 10
0.0
 20
0.0
 11
420.0
 21
297.0
 12
0.0
 22
0.0
 32
0.0
 14
1e+20
 24
1e+20
 34
1e+20
 15
-1e+20
 25
-1e+20
 35
-1e+20
146
0.0
 13
0.0
 23
0.0
 33
0.0
 16
1.0
 26
0.0
 36
0.0
 17
0.0
 27
1.0
 37
0.0
 76
1
330
1B
  0
MATERIAL
  5
1F
102
{ACAD_REACTORS
330
E
102
}
330
E
100
AcDbMaterial
  1
ByBlock
  2

 70
0
 40
1.0
 71
1
 41
1.0
 91
-1023410177
 42
1.0
 72
1
  3

 73
1
 74
1
 75
1
 44
0.5
 73
0
 45
1.0
 46
1.0
 77
1
  4

 78
1
 79
1
170
1
 48
1.0
171
1
  6

172
1
173
1
174
1
140
1.0
141
1.0
175
1
  7

176
1
177
1
178
1
143
1.0
179
1
  8

270
1
271
1
272
1
145
1.0
146
1.0
273
1
  9

274
1
275
1
276
1
 42
1.0
 72
1
  3

 73
1
 74
1
 75
1
 94
63
  0
MATERIAL
  5
20
102
{ACAD_REACTORS
330
E
102
}
330
E
100
AcDbMaterial
  1
ByLayer
  2

 70
0
 40
1.0
 71
1
 41
1.0
 91
-1023410177
 42
1.0
 72
1
  3

 73
1
 74
1
 75
1
 44
0.5
 73
0
 45
1.0
 46
1.0
 77
1
  4

 78
1
 79
1
170
1
 48
1.0
171
1
  6

172
1
173
1
174
1
140
1.0
141
1.0
175
1
  7

176
1
177
1
178
1
143
1.0
179
1
  8

270
1
271
1
272
1
145
1.0
146
1.0
273
1
  9

274
1
275
1
276
1
 42
1.0
 72
1
  3

 73
1
 74
1
 75
1
 94
63
  0
MATERIAL
  5
21
102
{ACAD_REACTORS
330
E
102
}
330
E
100
AcDbMaterial
  1
Global
  2

 70
0
 40
1.0
 71
1
 41
1.0
 91
-1023410177
 42
1.0
 72
1
  3

 73
1
 74
1
 75
1
 44
0.5
 73
0
 45
1.0
 46
1.0
 77
1
  4

 78
1
 79
1
170
1
 48
1.0
171
1
  6

172
1
173
1
174
1
140
1.0
141
1.0
175
1
  7

176
1
177
1
178
1
143
1.0
179
1
  8

270
1
271
1
272
1
145
1.0
146
1.0
273
1
  9

274
1
275
1
276
1
 42
1.0
 72
1
  3

 73
1
 74
1
 75
1
 94
63
  0
MLINESTYLE
  5
22
102
{ACAD_REACTORS
330
10
102
}
330
10
100
AcDbMlineStyle
  2
Standard
 70
0
  3

 62
256
 51
90.0
 52
90.0
 71
2
 49
0.5
 62
256
  6
BYLAYER
 49
-0.5
 62
256
  6
BYLAYER
  0
MLEADERSTYLE
  5
2C
102
{ACAD_REACTORS
330
F
102
}
330
F
100
AcDbMLeaderStyle
179
2
170
2
171
1
172
0
 90
2
 40
0.0
 41
0.0
173
1
 91
-1056964608
 92
-2
290
1
 42
2.0
291
1
 43
8.0
  3
Standard
 44
4.0
300

342
29
174
1
175
1
176
0
178
1
 93
-1056964608
 45
4.0
292
0
297
0
 46
4.0
 94
-1056964608
 47
1.0
 49
1.0
140
1.0
294
1
141
0.0
177
0
142
1.0
295
0
296
0
143
3.75
271
0
272
9
273
9
  0
DICTIONARY
  5
2D
330
A
100
AcDbDictionary
280
1
281
1
  3
CREATED_BY_EZDXF
350
2E
  3
WRITTEN_BY_EZDXF
350
211
  0
DICTIONARYVAR
  5
2E
330
2D
100
DictionaryVariables
280
0
  1
1.4.4 @ 2026-09-20T02:41:53.237738+00:00
  0
VISUALSTYLE
  5
5A
102
{ACAD_REACTORS
330
16
102
}
330
16
100
AcDbVisualStyle
  2
2dWireframe
 70
4
 90
0
 40
0.6
 62
7
290
0
291
0
  0
VISUALSTYLE
  5
5B
102
{ACAD_REACTORS
330
16
102
}
330
16
100
AcDbVisualStyle
  2
Basic
 70
7
 90
1
 40
0.6
 62
7
290
0
291
1
  0
VISUALSTYLE
  5
5C
102
{ACAD_REACTORS
330
16
102
}
330
16
100
AcDbVisualStyle
  2
Brighten
 70
12
 90
2
 40
0.6
 62
7
290
0
291
1
  0
VISUALSTYLE
  5
5D
102
{ACAD_REACTORS
330
16
102
}
330
16
100
AcDbVisualStyle
  2
ColorChange
 70
16
 90
2
 40
0.6
 62
8
290
0
291
1
  0
VISUALSTYLE
  5
5E
102
{ACAD_REACTORS
330
16
102
}
330
16
100
AcDbVisualStyle
  2
Conceptual
 70
9
 90
3
 40
0.6
 62
7
290
0
291
0
  0
VISUALSTYLE
  5
5F
102
{ACAD_REACTORS
330
16
102
}
330
16
100
AcDbVisualStyle
  2
Dim
 70
11
 90
2
 40
0.6
 62
7
290
0
291
1
  0
VISUALSTYLE
  5
60
102
{ACAD_REACTORS
330
16
102
}
330
16
100
AcDbVisualStyle
  2
EdgeColorOff
 70
22
 90
2
 40
0.6
 62
7
290
0
291
1
  0
VISUALSTYLE
  5
61
102
{ACAD_REACTORS
330
16
102
}
330
16
100
AcDbVisualStyle
  2
Facepattern
 70
15
 90
2
 40
0.6
 62
7
290
0
291
1
  0
VISUALSTYLE
  5
62
102
{ACAD_REACTORS
330
16
102
}
330
16
100
AcDbVisualStyle
  2
Flat
 70
0
 90
2
 40
0.6
 62
7
290
0
291
1
  0
VISUALSTYLE
  5
63
102
{ACAD_REACTORS
330
16
102
}
330
16
100
AcDbVisualStyle
  2
FlatWithEdges
 70
1
 90
2
 40
0.6
 62
7
290
0
291
1
  0
VISUALSTYLE
  5
64
102
{ACAD_REACTORS
330
16
102
}
330
16
100
AcDbVisualStyle
  2
Gouraud
 70
2
 90
2
 40
0.6
 62
7
290
0
291
1
  0
VISUALSTYLE
  5
65
102
{ACAD_REACTORS
330
16
102
}
330
16
100
AcDbVisualStyle
  2
GouraudWithEdges
 70
3
 90
2
 40
0.6
 62
7
290
0
291
1
  0
VISUALSTYLE
  5
66
102
{ACAD_REACTORS
330
16
102
}
330
16
100
AcDbVisualStyle
  2
Hidden
 70
6
 90
1
 40
0.6
 62
7
290
0
291
0
  0
VISUALSTYLE
  5
67
102
{ACAD_REACTORS
330
16
102
}
330
16
100
AcDbVisualStyle
  2
JitterOff
 70
20
 90
2
 40
0.6
 62
7
290
0
291
1
  0
VISUALSTYLE
  5
68
102
{ACAD_REACTORS
330
16
102
}
330
16
100
AcDbVisualStyle
  2
Linepattern
 70
14
 90
2
 40
0.6
 62
7
290
0
291
1
  0
VISUALSTYLE
  5
69
102
{ACAD_REACTORS
330
16
102
}
330
16
100
AcDbVisualStyle
  2
Modeling
 70
10
 90
2
 40
0.6
 62
7
290
0
291
0
  0
VISUALSTYLE
  5
6A
102
{ACAD_REACTORS
330
16
102
}
330
16
100
AcDbVisualStyle
  2
OverhangOff
 70
21
 90
2
 40
0.6
 62
7
290
0
291
1
  0
VISUALSTYLE
  5
6B
102
{ACAD_REACTORS
330
16
102
}
330
16
100
AcDbVisualStyle
  2
Realistic
 70
8
 90
2
 40
0.6
 62
7
290
0
291
0
  0
VISUALSTYLE
  5
6C
102
{ACAD_REACTORS
330
16
102
}
330
16
100
AcDbVisualStyle
  2
Shaded
 70
27
 90
2
 40
0.6
 62
7
290
0
291
0
  0
VISUALSTYLE
  5
6D
102
{ACAD_REACTORS
330
16
102
}
330
16
100
AcDbVisualStyle
  2
Shaded with edges
 70
26
 90
2
 40
0.6
 62
7
290
0
291
0
  0
VISUALSTYLE
  5
6E
102
{ACAD_REACTORS
330
16
102
}
330
16
100
AcDbVisualStyle
  2
Shades of Gray
 70
23
 90
2
 40
0.6
 62
7
290
0
291
0
  0
VISUALSTYLE
  5
6F
102
{ACAD_REACTORS
330
16
102
}
330
16
100
AcDbVisualStyle
  2
Sketchy
 70
24
 90
1
 40
0.6
 62
7
290
0
291
0
  0
VISUALSTYLE
  5
70
102
{ACAD_REACTORS
330
16
102
}
330
16
100
AcDbVisualStyle
  2
Thicken
 70
13
 90
2
 40
0.6
 62
7
290
0
291
1
  0
VISUALSTYLE
  5
71
102
{ACAD_REACTORS
330
16
102
}
330
16
100
AcDbVisualStyle
  2
Wireframe
 70
5
 90
0
 40
0.6
 62
7
290
0
291
0
  0
VISUALSTYLE
  5
72
102
{ACAD_REACTORS
330
16
102
}
330
16
100
AcDbVisualStyle
  2
X-Ray
 70
25
 90
2
 40
0.5
 62
7
290
0
291
0
  0
DICTIONARYVAR
  5
211
330
2D
100
DictionaryVariables
280
0
  1
1.4.4 @ 2026-09-20T02:41:53.544614+00:00
  0
ENDSEC
  0
EOF
