700 0 1 0           
30 Autodesk Translation Framework 21 ASM 232.4.0.65535 OSX 24 Fri Sep  4 00:39:00 2026 
1 9.999999999999999547e-07 1.000000000000000036e-10 
body $1 -1 $-1 $2 $-1 $-1 #
rgb_color-st-attrib $-1 -1 $3 $-1 $0 0.627450980392156854 0.627450980392156854 0.627450980392156854 #
lump $-1 -1 $-1 $-1 $4 $0 #
ATTRIB_CUSTOM-attrib $-1 -1 $-1 $1 $0 @20 Timestamp_attrib_def 1 1788478740112740 #
shell $-1 -1 $-1 $-1 $-1 $5 $-1 $2 #
face $6 -1 $-1 $7 $8 $4 $-1 $9 reversed single #
DXID-attrib $-1 -1 $-1 $-1 $5 @10 ASM ENTITY @1 0 #
face $10 -1 $-1 $11 $12 $4 $-1 $13 forward single #
loop $-1 -1 $-1 $-1 $14 $5 #
plane-surface $-1 -1 $-1 5 35 10 1 0 0 0 0 1 forward_v I I I I #
DXID-attrib $-1 -1 $-1 $-1 $7 @10 ASM ENTITY @1 1 #
face $15 -1 $-1 $16 $17 $4 $-1 $18 reversed single #
loop $-1 -1 $-1 $19 $20 $7 #
plane-surface $-1 -1 $-1 5 45 10 0 1 0 0 0 1 forward_v I I I I #
coedge $-1 -1 $-1 $21 $22 $23 $24 forward $8 $-1 #
DXID-attrib $-1 -1 $-1 $-1 $11 @10 ASM ENTITY @1 2 #
face $25 -1 $-1 $26 $27 $4 $-1 $28 reversed single #
loop $-1 -1 $-1 $29 $30 $11 #
cone-surface $-1 -1 $-1 85 34 110 0 1 0 0 0 2.25 1 I I 0 1 2.25 forward I I I I #
loop $-1 -1 $-1 $31 $32 $7 #
coedge $-1 -1 $-1 $33 $34 $35 $36 reversed $12 $-1 #
coedge $-1 -1 $-1 $37 $14 $38 $39 forward $8 $-1 #
coedge $-1 -1 $-1 $14 $37 $40 $41 reversed $8 $-1 #
coedge $-1 -1 $-1 $42 $43 $14 $24 reversed $44 $-1 #
edge $-1 -1 $-1 $45 5 $46 105 $14 $47 forward @7 unknown #
DXID-attrib $-1 -1 $-1 $-1 $16 @10 ASM ENTITY @1 3 #
face $48 -1 $-1 $49 $50 $4 $-1 $51 reversed single #
loop $-1 -1 $-1 $52 $53 $16 #
cone-surface $-1 -1 $-1 85 35 110 -0 -1 -0 0 0 4.5 1 I I 0.707106781186230493 0.7071067811868645414 4.5 forward I I I I #
loop $-1 -1 $-1 $-1 $54 $11 #
coedge $-1 -1 $-1 $30 $30 $55 $56 forward $17 $-1 #
loop $-1 -1 $-1 $57 $58 $7 #
coedge $-1 -1 $-1 $32 $32 $59 $60 reversed $19 $-1 #
coedge $-1 -1 $-1 $61 $20 $62 $63 reversed $12 $-1 #
coedge $-1 -1 $-1 $20 $64 $65 $66 forward $12 $-1 #
coedge $-1 -1 $-1 $67 $68 $20 $36 forward $69 $-1 #
edge $-1 -1 $-1 $70 5 $71 85 $20 $72 forward @7 unknown #
coedge $-1 -1 $-1 $22 $21 $61 $73 reversed $8 $-1 #
coedge $-1 -1 $-1 $74 $75 $21 $39 reversed $76 $-1 #
edge $-1 -1 $-1 $46 0 $77 10 $21 $78 forward @14 tangent_not_g2 #
coedge $-1 -1 $-1 $62 $79 $22 $41 forward $80 $-1 #
edge $-1 -1 $-1 $45 0 $81 10 $22 $82 forward @14 tangent_not_g2 #
coedge $-1 -1 $-1 $83 $23 $79 $84 forward $44 $-1 #
coedge $-1 -1 $-1 $23 $85 $74 $86 reversed $44 $-1 #
loop $-1 -1 $-1 $87 $83 $88 #
vertex $-1 -1 $-1 $24 $89 #
vertex $-1 -1 $-1 $24 $90 #
straight-curve $-1 -1 $-1 5 35 10 0 0 1 F 5 F 105 #
DXID-attrib $-1 -1 $-1 $-1 $26 @10 ASM ENTITY @1 4 #
face $91 -1 $-1 $92 $93 $4 $-1 $94 reversed single #
loop $-1 -1 $-1 $95 $96 $26 #
plane-surface $-1 -1 $-1 85 35.00999999999999801 110 0 1 0 0 0 1 forward_v I I I I #
loop $-1 -1 $-1 $-1 $97 $16 #
coedge $-1 -1 $-1 $53 $53 $98 $99 reversed $27 $-1 #
coedge $-1 -1 $-1 $54 $54 $97 $100 reversed $29 $-1 #
coedge $-1 -1 $-1 $55 $55 $30 $56 reversed $101 $-1 #
edge $-1 -1 $-1 $102 0 $102 6.283185307179586232 $55 $103 forward @7 unknown #
loop $-1 -1 $-1 $101 $104 $7 #
coedge $-1 -1 $-1 $58 $58 $105 $106 reversed $31 $-1 #
coedge $-1 -1 $-1 $59 $59 $32 $60 forward $107 $-1 #
edge $-1 -1 $-1 $108 0 $108 6.283185307179586232 $32 $109 forward @7 unknown #
coedge $-1 -1 $-1 $110 $33 $37 $73 forward $12 $-1 #
coedge $-1 -1 $-1 $111 $40 $33 $63 forward $80 $-1 #
edge $-1 -1 $-1 $81 1.570796326794896558 $70 3.141592653589793116 $33 $112 forward @7 unknown #
coedge $-1 -1 $-1 $34 $113 $114 $115 reversed $12 $-1 #
coedge $-1 -1 $-1 $116 $117 $34 $66 reversed $118 $-1 #
edge $-1 -1 $-1 $119 1.570796326794896558 $71 3.141592653589793116 $34 $120 forward @7 unknown #
coedge $-1 -1 $-1 $121 $35 $117 $122 reversed $69 $-1 #
coedge $-1 -1 $-1 $35 $121 $111 $123 forward $69 $-1 #
loop $-1 -1 $-1 $-1 $35 $124 #
vertex $-1 -1 $-1 $36 $125 #
vertex $-1 -1 $-1 $36 $126 #
straight-curve $-1 -1 $-1 5 45 10 1 0 0 F 5 F 85 #
edge $-1 -1 $-1 $81 5 $77 105 $37 $127 forward @7 unknown #
coedge $-1 -1 $-1 $128 $38 $43 $86 forward $76 $-1 #
coedge $-1 -1 $-1 $38 $128 $110 $129 reversed $76 $-1 #
loop $-1 -1 $-1 $-1 $74 $130 #
vertex $-1 -1 $-1 $39 $131 #
straight-curve $-1 -1 $-1 5 35 115 0 1 0 F 0 F 10 #
coedge $-1 -1 $-1 $40 $111 $42 $84 reversed $80 $-1 #
loop $-1 -1 $-1 $-1 $79 $132 #
vertex $-1 -1 $-1 $73 $133 #
straight-curve $-1 -1 $-1 5 35 15 0 1 0 F 0 F 10 #
coedge $-1 -1 $-1 $134 $42 $121 $135 forward $44 $-1 #
edge $-1 -1 $-1 $45 1.570796326794896558 $136 3.141592653589793116 $79 $137 forward @7 unknown #
coedge $-1 -1 $-1 $43 $138 $139 $140 reversed $44 $-1 #
edge $-1 -1 $-1 $46 -1.570796326794896558 $141 0 $74 $142 forward @7 unknown #
loop $-1 -1 $-1 $143 $144 $88 #
face $145 -1 $-1 $146 $44 $4 $-1 $147 reversed single #
point $-1 -1 $-1 5 35 15 #
point $-1 -1 $-1 5 35 115 #
DXID-attrib $-1 -1 $-1 $-1 $49 @10 ASM ENTITY @1 5 #
face $148 -1 $-1 $149 $150 $4 $-1 $151 reversed single #
loop $-1 -1 $-1 $152 $153 $49 #
cone-surface $-1 -1 $-1 85 34 110 0 1 0 0 0 4.5 1 I I 0 1 4.5 forward I I I I #
loop $-1 -1 $-1 $-1 $98 $26 #
coedge $-1 -1 $-1 $96 $96 $154 $155 reversed $50 $-1 #
coedge $-1 -1 $-1 $97 $97 $54 $100 forward $52 $-1 #
coedge $-1 -1 $-1 $98 $98 $53 $99 forward $95 $-1 #
edge $-1 -1 $-1 $156 0 $156 6.283185307179586232 $53 $157 forward @7 unknown #
edge $-1 -1 $-1 $158 0 $158 6.283185307179586232 $54 $159 forward @7 unknown #
loop $-1 -1 $-1 $-1 $55 $7 #
vertex $-1 -1 $-1 $56 $160 #
ellipse-curve $-1 -1 $-1 85 45 110 0 1 0 0 0 2.25 1 I I #
coedge $-1 -1 $-1 $104 $104 $161 $162 reversed $57 $-1 #
coedge $-1 -1 $-1 $105 $105 $58 $106 forward $163 $-1 #
edge $-1 -1 $-1 $164 0 $164 6.283185307179586232 $58 $165 forward @7 unknown #
loop $-1 -1 $-1 $166 $59 $167 #
vertex $-1 -1 $-1 $60 $168 #
ellipse-curve $-1 -1 $-1 15 45 20 0 1 0 0 0 2.25 1 I I #
coedge $-1 -1 $-1 $169 $61 $75 $129 forward $12 $-1 #
coedge $-1 -1 $-1 $79 $62 $68 $123 reversed $80 $-1 #
ellipse-curve $-1 -1 $-1 10 45 15 0 -1 0 0 0 5 1 F 1.570796326794896558 F 3.141592653589793116 #
coedge $-1 -1 $-1 $64 $169 $170 $171 reversed $12 $-1 #
coedge $-1 -1 $-1 $172 $173 $64 $115 forward $174 $-1 #
edge $-1 -1 $-1 $119 5 $175 105 $64 $176 forward @7 unknown #
coedge $-1 -1 $-1 $177 $65 $173 $178 reversed $118 $-1 #
coedge $-1 -1 $-1 $65 $177 $67 $122 forward $118 $-1 #
loop $-1 -1 $-1 $-1 $177 $179 #
vertex $-1 -1 $-1 $115 $180 #
ellipse-curve $-1 -1 $-1 90 45 15 0 1 0 0 0 5 1 F 1.570796326794896558 F 3.141592653589793116 #
coedge $-1 -1 $-1 $68 $67 $83 $135 reversed $69 $-1 #
edge $-1 -1 $-1 $181 0 $71 10 $117 $182 forward @14 tangent_not_g2 #
edge $-1 -1 $-1 $136 0 $70 10 $68 $183 forward @14 tangent_not_g2 #
face $184 -1 $-1 $130 $69 $4 $-1 $185 reversed single #
point $-1 -1 $-1 10 45 10 #
point $-1 -1 $-1 90 45 10 #
straight-curve $-1 -1 $-1 5 45 10 0 0 1 F 5 F 105 #
coedge $-1 -1 $-1 $75 $74 $186 $187 forward $76 $-1 #
edge $-1 -1 $-1 $77 -1.570796326794896558 $188 0 $110 $189 forward @7 unknown #
face $190 -1 $-1 $132 $76 $4 $-1 $191 forward single #
point $-1 -1 $-1 5 45 115 #
face $192 -1 $-1 $88 $80 $4 $-1 $193 forward single #
point $-1 -1 $-1 5 45 15 #
coedge $-1 -1 $-1 $194 $83 $177 $195 reversed $44 $-1 #
edge $-1 -1 $-1 $136 5 $181 85 $121 $196 forward @7 unknown #
vertex $-1 -1 $-1 $135 $197 #
ellipse-curve $-1 -1 $-1 10 35 15 0 -1 0 0 0 5 1 F 1.570796326794896558 F 3.141592653589793116 #
coedge $-1 -1 $-1 $85 $194 $198 $199 forward $44 $-1 #
coedge $-1 -1 $-1 $200 $186 $85 $140 forward $201 $-1 #
edge $-1 -1 $-1 $141 5 $202 85 $139 $203 forward @7 unknown #
vertex $-1 -1 $-1 $187 $204 #
ellipse-curve $-1 -1 $-1 10 35 115 0 1 0 0 0 5 1 F -1.570796326794896558 F 0 #
loop $-1 -1 $-1 $205 $206 $88 #
coedge $-1 -1 $-1 $144 $144 $207 $208 forward $87 $-1 #
DXID-attrib $-1 -1 $-1 $-1 $88 @10 ASM ENTITY @2 25 #
face $209 -1 $-1 $210 $211 $4 $-1 $212 forward single #
plane-surface $-1 -1 $-1 5 35 10 0 1 0 0 0 1 forward_v I I I I #
DXID-attrib $-1 -1 $-1 $-1 $92 @10 ASM ENTITY @1 6 #
face $213 -1 $-1 $214 $215 $4 $-1 $216 reversed single #
loop $-1 -1 $-1 $217 $161 $92 #
cone-surface $-1 -1 $-1 85 34 20 0 1 0 0 0 2.25 1 I I 0 1 2.25 forward I I I I #
loop $-1 -1 $-1 $-1 $154 $49 #
coedge $-1 -1 $-1 $153 $153 $218 $219 reversed $93 $-1 #
coedge $-1 -1 $-1 $154 $154 $96 $155 forward $152 $-1 #
edge $-1 -1 $-1 $220 0 $220 6.283185307179586232 $96 $221 forward @7 unknown #
vertex $-1 -1 $-1 $99 $222 #
ellipse-curve $-1 -1 $-1 85 35.00999999999999801 110 0 1 0 0 0 4.490000000000000213 1 I I #
vertex $-1 -1 $-1 $100 $223 #
ellipse-curve $-1 -1 $-1 85 37.25 110 0 1 0 0 0 2.25 1 I I #
point $-1 -1 $-1 85 45 112.2500000000000142 #
coedge $-1 -1 $-1 $161 $161 $104 $162 forward $150 $-1 #
edge $-1 -1 $-1 $224 0 $224 6.283185307179586232 $104 $225 forward @7 unknown #
loop $-1 -1 $-1 $226 $105 $227 #
vertex $-1 -1 $-1 $106 $228 #
ellipse-curve $-1 -1 $-1 15 45 110 0 1 0 0 0 2.25 1 I I #
loop $-1 -1 $-1 $-1 $229 $167 #
face $230 -1 $-1 $231 $107 $4 $-1 $232 reversed single #
point $-1 -1 $-1 15 45 22.25 #
coedge $-1 -1 $-1 $113 $110 $233 $234 forward $12 $-1 #
coedge $-1 -1 $-1 $235 $236 $113 $171 forward $237 $-1 #
edge $-1 -1 $-1 $175 -1.570796326794896558 $238 0 $113 $239 forward @7 unknown #
coedge $-1 -1 $-1 $240 $114 $236 $241 reversed $174 $-1 #
coedge $-1 -1 $-1 $114 $240 $116 $178 forward $174 $-1 #
loop $-1 -1 $-1 $-1 $240 $242 #
vertex $-1 -1 $-1 $171 $243 #
straight-curve $-1 -1 $-1 95 45 10 0 0 1 F 5 F 105 #
coedge $-1 -1 $-1 $117 $116 $134 $195 forward $118 $-1 #
edge $-1 -1 $-1 $244 0 $119 10 $173 $245 forward @14 tangent_not_g2 #
face $246 -1 $-1 $124 $118 $4 $-1 $247 forward single #
point $-1 -1 $-1 95 45 15 #
vertex $-1 -1 $-1 $195 $248 #
straight-curve $-1 -1 $-1 90 35 10 0 1 0 F 0 F 10 #
straight-curve $-1 -1 $-1 10 35 10 0 1 0 F 0 F 10 #
DXID-attrib $-1 -1 $-1 $-1 $124 @10 ASM ENTITY @2 22 #
plane-surface $-1 -1 $-1 5 35 10 0 0 1 1 0 0 forward_v I I I I #
coedge $-1 -1 $-1 $139 $233 $128 $187 reversed $201 $-1 #
edge $-1 -1 $-1 $141 0 $188 10 $186 $249 forward @14 tangent_not_g2 #
vertex $-1 -1 $-1 $129 $250 #
ellipse-curve $-1 -1 $-1 10 45 115 0 1 0 0 0 5 1 F -1.570796326794896558 F 0 #
DXID-attrib $-1 -1 $-1 $-1 $130 @10 ASM ENTITY @2 23 #
cone-surface $-1 -1 $-1 10 35 115 0 1 0 -5 0 0 1 I I 0 1 5 forward I I I I #
DXID-attrib $-1 -1 $-1 $-1 $132 @10 ASM ENTITY @2 24 #
cone-surface $-1 -1 $-1 10 35 15 0 1 0 -5 0 0 1 I I 0 1 5 forward I I I I #
coedge $-1 -1 $-1 $138 $134 $240 $251 forward $44 $-1 #
edge $-1 -1 $-1 $244 1.570796326794896558 $181 3.141592653589793116 $177 $252 forward @7 unknown #
straight-curve $-1 -1 $-1 5 35 10 1 0 0 F 5 F 85 #
point $-1 -1 $-1 10 35 10 #
coedge $-1 -1 $-1 $236 $235 $138 $199 reversed $237 $-1 #
edge $-1 -1 $-1 $253 -1.570796326794896558 $202 0 $198 $254 forward @7 unknown #
coedge $-1 -1 $-1 $233 $139 $235 $255 forward $201 $-1 #
loop $-1 -1 $-1 $-1 $233 $256 #
vertex $-1 -1 $-1 $140 $257 #
straight-curve $-1 -1 $-1 5 35 120 1 0 0 F 5 F 85 #
point $-1 -1 $-1 10 35 120 #
loop $-1 -1 $-1 $258 $259 $88 #
coedge $-1 -1 $-1 $206 $206 $260 $261 forward $143 $-1 #
coedge $-1 -1 $-1 $207 $207 $144 $208 reversed $262 $-1 #
edge $-1 -1 $-1 $263 0 $263 6.283185307179586232 $207 $264 forward @7 unknown #
DXID-attrib $-1 -1 $-1 $-1 $146 @10 ASM ENTITY @2 26 #
face $265 -1 $-1 $266 $267 $4 $-1 $268 forward single #
loop $-1 -1 $-1 $269 $270 $146 #
cone-surface $-1 -1 $-1 70 31.49000000000000199 95 0 1 0 0 0 2.75 1 I I 0 1 2.75 forward I I I I #
DXID-attrib $-1 -1 $-1 $-1 $149 @10 ASM ENTITY @1 7 #
face $271 -1 $-1 $272 $273 $4 $-1 $274 reversed single #
loop $-1 -1 $-1 $275 $276 $149 #
cone-surface $-1 -1 $-1 85 35 20 -0 -1 -0 0 0 4.5 1 I I 0.707106781186230493 0.7071067811868645414 4.5 forward I I I I #
loop $-1 -1 $-1 $-1 $277 $92 #
coedge $-1 -1 $-1 $218 $218 $153 $219 forward $278 $-1 #
edge $-1 -1 $-1 $279 0 $279 6.283185307179586232 $153 $280 forward @7 unknown #
vertex $-1 -1 $-1 $155 $281 #
ellipse-curve $-1 -1 $-1 85 35.00999999999999801 110 0 1 0 0 0 4.5 1 I I #
point $-1 -1 $-1 85 35.00999999999999801 114.4899999999999949 #
point $-1 -1 $-1 85 37.25 112.2500000000000142 #
vertex $-1 -1 $-1 $162 $282 #
ellipse-curve $-1 -1 $-1 85 45 20 0 1 0 0 0 2.25 1 I I #
loop $-1 -1 $-1 $-1 $283 $227 #
face $284 -1 $-1 $285 $163 $4 $-1 $286 reversed single #
point $-1 -1 $-1 15 45 112.2500000000000142 #
coedge $-1 -1 $-1 $229 $229 $287 $288 reversed $166 $-1 #
DXID-attrib $-1 -1 $-1 $-1 $167 @10 ASM ENTITY @2 14 #
face $289 -1 $-1 $290 $291 $4 $-1 $292 reversed single #
cone-surface $-1 -1 $-1 15 34 20 0 1 0 0 0 2.25 1 I I 0 1 2.25 forward I I I I #
coedge $-1 -1 $-1 $186 $200 $169 $234 reversed $201 $-1 #
edge $-1 -1 $-1 $188 5 $238 85 $169 $293 forward @7 unknown #
coedge $-1 -1 $-1 $198 $170 $200 $255 reversed $237 $-1 #
coedge $-1 -1 $-1 $170 $198 $172 $241 forward $237 $-1 #
loop $-1 -1 $-1 $-1 $198 $294 #
vertex $-1 -1 $-1 $234 $295 #
ellipse-curve $-1 -1 $-1 90 45 115 0 -1 0 0 0 5 1 F -1.570796326794896558 F 0 #
coedge $-1 -1 $-1 $173 $172 $194 $251 reversed $174 $-1 #
edge $-1 -1 $-1 $253 0 $175 10 $236 $296 forward @14 tangent_not_g2 #
face $297 -1 $-1 $179 $174 $4 $-1 $298 forward single #
point $-1 -1 $-1 95 45 115 #
vertex $-1 -1 $-1 $251 $299 #
straight-curve $-1 -1 $-1 95 35 15 0 1 0 F 0 F 10 #
DXID-attrib $-1 -1 $-1 $-1 $179 @10 ASM ENTITY @2 21 #
cone-surface $-1 -1 $-1 90 35 15 0 1 0 5 0 0 1 I I 0 1 5 forward I I I I #
point $-1 -1 $-1 90 35 10 #
straight-curve $-1 -1 $-1 10 35 120 0 1 0 F 0 F 10 #
point $-1 -1 $-1 10 45 120 #
edge $-1 -1 $-1 $244 5 $253 105 $240 $300 forward @7 unknown #
ellipse-curve $-1 -1 $-1 90 35 15 0 1 0 0 0 5 1 F 1.570796326794896558 F 3.141592653589793116 #
vertex $-1 -1 $-1 $199 $301 #
ellipse-curve $-1 -1 $-1 90 35 115 0 -1 0 0 0 5 1 F -1.570796326794896558 F 0 #
edge $-1 -1 $-1 $202 0 $238 10 $200 $302 forward @14 tangent_not_g2 #
face $303 -1 $-1 $294 $201 $4 $-1 $304 forward single #
point $-1 -1 $-1 90 35 120 #
loop $-1 -1 $-1 $305 $306 $88 #
coedge $-1 -1 $-1 $259 $259 $307 $308 forward $205 $-1 #
coedge $-1 -1 $-1 $260 $260 $206 $261 reversed $309 $-1 #
edge $-1 -1 $-1 $310 0 $310 6.283185307179586232 $206 $311 forward @7 unknown #
loop $-1 -1 $-1 $312 $207 $313 #
vertex $-1 -1 $-1 $208 $314 #
ellipse-curve $-1 -1 $-1 15 35 20 0 1 0 0 0 4.5 1 I I #
DXID-attrib $-1 -1 $-1 $-1 $210 @10 ASM ENTITY @2 27 #
face $315 -1 $-1 $316 $317 $4 $-1 $318 forward single #
loop $-1 -1 $-1 $319 $320 $210 #
plane-surface $-1 -1 $-1 70 31.51000000000000156 95 0 1 0 0 0 1 forward_v I I I I #
loop $-1 -1 $-1 $-1 $321 $146 #
coedge $-1 -1 $-1 $270 $270 $322 $323 reversed $211 $-1 #
DXID-attrib $-1 -1 $-1 $-1 $214 @10 ASM ENTITY @1 8 #
face $324 -1 $-1 $227 $325 $4 $-1 $326 reversed single #
loop $-1 -1 $-1 $327 $328 $214 #
plane-surface $-1 -1 $-1 85 35.00999999999999801 20 0 1 0 0 0 1 forward_v I I I I #
loop $-1 -1 $-1 $-1 $329 $149 #
coedge $-1 -1 $-1 $276 $276 $330 $331 reversed $215 $-1 #
coedge $-1 -1 $-1 $277 $277 $329 $332 reversed $217 $-1 #
loop $-1 -1 $-1 $-1 $218 $88 #
vertex $-1 -1 $-1 $219 $333 #
ellipse-curve $-1 -1 $-1 85 35 110 0 1 0 0 0 4.5 1 I I #
point $-1 -1 $-1 85 35.00999999999999801 114.5000000000000142 #
point $-1 -1 $-1 85 45 22.25 #
coedge $-1 -1 $-1 $283 $283 $334 $335 reversed $226 $-1 #
DXID-attrib $-1 -1 $-1 $-1 $227 @10 ASM ENTITY @2 10 #
face $336 -1 $-1 $337 $338 $4 $-1 $339 reversed single #
cone-surface $-1 -1 $-1 15 34 110 0 1 0 0 0 2.25 1 I I 0 1 2.25 forward I I I I #
coedge $-1 -1 $-1 $287 $287 $229 $288 forward $340 $-1 #
edge $-1 -1 $-1 $341 0 $341 6.283185307179586232 $229 $342 forward @7 unknown #
DXID-attrib $-1 -1 $-1 $-1 $231 @10 ASM ENTITY @2 15 #
face $343 -1 $-1 $313 $344 $4 $-1 $345 reversed single #
loop $-1 -1 $-1 $340 $346 $231 #
cone-surface $-1 -1 $-1 15 35 20 -0 -1 -0 0 0 4.5 1 I I 0.707106781186230493 0.7071067811868645414 4.5 forward I I I I #
straight-curve $-1 -1 $-1 5 45 120 1 0 0 F 5 F 85 #
face $347 -1 $-1 $242 $237 $4 $-1 $348 forward single #
point $-1 -1 $-1 90 45 120 #
straight-curve $-1 -1 $-1 95 35 115 0 1 0 F 0 F 10 #
DXID-attrib $-1 -1 $-1 $-1 $242 @10 ASM ENTITY @2 20 #
plane-surface $-1 -1 $-1 95 35 10 1 0 0 0 0 1 forward_v I I I I #
point $-1 -1 $-1 95 35 15 #
straight-curve $-1 -1 $-1 95 35 10 0 0 1 F 5 F 105 #
point $-1 -1 $-1 95 35 115 #
straight-curve $-1 -1 $-1 90 35 120 0 1 0 F 0 F 10 #
DXID-attrib $-1 -1 $-1 $-1 $256 @10 ASM ENTITY @2 18 #
plane-surface $-1 -1 $-1 5 35 120 0 0 1 1 0 0 forward_v I I I I #
loop $-1 -1 $-1 $349 $350 $88 #
coedge $-1 -1 $-1 $306 $306 $351 $352 forward $258 $-1 #
coedge $-1 -1 $-1 $307 $307 $259 $308 reversed $353 $-1 #
edge $-1 -1 $-1 $354 0 $354 6.283185307179586232 $307 $355 forward @7 unknown #
loop $-1 -1 $-1 $356 $260 $357 #
vertex $-1 -1 $-1 $261 $358 #
ellipse-curve $-1 -1 $-1 30 35 45 0 1 0 0 0 2.75 1 I I #
loop $-1 -1 $-1 $-1 $359 $313 #
face $360 -1 $-1 $256 $262 $4 $-1 $361 reversed single #
point $-1 -1 $-1 15 35 24.5 #
DXID-attrib $-1 -1 $-1 $-1 $266 @10 ASM ENTITY @2 28 #
face $362 -1 $-1 $363 $364 $4 $-1 $365 forward single #
loop $-1 -1 $-1 $366 $367 $266 #
cone-surface $-1 -1 $-1 70 30.50000000000000355 95 -0 -1 -0 0 0 5 1 I I 0.7035801295963689528 0.7106159308917558981 5 forward I I I I #
loop $-1 -1 $-1 $-1 $368 $210 #
coedge $-1 -1 $-1 $320 $320 $367 $369 forward $267 $-1 #
coedge $-1 -1 $-1 $321 $321 $368 $370 forward $269 $-1 #
coedge $-1 -1 $-1 $322 $322 $270 $323 forward $371 $-1 #
edge $-1 -1 $-1 $372 0 $372 6.283185307179586232 $322 $373 forward @7 unknown #
DXID-attrib $-1 -1 $-1 $-1 $272 @10 ASM ENTITY @1 9 #
loop $-1 -1 $-1 $374 $375 $272 #
cone-surface $-1 -1 $-1 85 34 20 0 1 0 0 0 4.5 1 I I 0 1 4.5 forward I I I I #
loop $-1 -1 $-1 $-1 $330 $214 #
coedge $-1 -1 $-1 $328 $328 $376 $377 reversed $273 $-1 #
coedge $-1 -1 $-1 $329 $329 $277 $332 forward $275 $-1 #
coedge $-1 -1 $-1 $330 $330 $276 $331 forward $327 $-1 #
edge $-1 -1 $-1 $378 0 $378 6.283185307179586232 $276 $379 forward @7 unknown #
edge $-1 -1 $-1 $380 0 $380 6.283185307179586232 $277 $381 forward @7 unknown #
point $-1 -1 $-1 85 35 114.5000000000000142 #
coedge $-1 -1 $-1 $334 $334 $283 $335 forward $382 $-1 #
edge $-1 -1 $-1 $383 0 $383 6.283185307179586232 $283 $384 forward @7 unknown #
DXID-attrib $-1 -1 $-1 $-1 $285 @10 ASM ENTITY @2 11 #
face $385 -1 $-1 $386 $387 $4 $-1 $388 reversed single #
loop $-1 -1 $-1 $382 $389 $285 #
cone-surface $-1 -1 $-1 15 35 110 -0 -1 -0 0 0 4.5 1 I I 0.707106781186230493 0.7071067811868645414 4.5 forward I I I I #
loop $-1 -1 $-1 $-1 $287 $231 #
vertex $-1 -1 $-1 $288 $390 #
ellipse-curve $-1 -1 $-1 15 37.25 20 0 1 0 0 0 2.25 1 I I #
DXID-attrib $-1 -1 $-1 $-1 $290 @10 ASM ENTITY @2 16 #
loop $-1 -1 $-1 $391 $392 $290 #
plane-surface $-1 -1 $-1 15 35.00999999999999801 20 0 1 0 0 0 1 forward_v I I I I #
coedge $-1 -1 $-1 $346 $346 $393 $394 reversed $291 $-1 #
DXID-attrib $-1 -1 $-1 $-1 $294 @10 ASM ENTITY @2 19 #
cone-surface $-1 -1 $-1 90 35 115 0 1 0 5 0 0 1 I I 0 1 5 forward I I I I #
loop $-1 -1 $-1 $395 $396 $88 #
coedge $-1 -1 $-1 $350 $350 $397 $398 forward $305 $-1 #
coedge $-1 -1 $-1 $351 $351 $306 $352 reversed $399 $-1 #
edge $-1 -1 $-1 $400 0 $400 6.283185307179586232 $306 $401 forward @7 unknown #
loop $-1 -1 $-1 $402 $307 $386 #
vertex $-1 -1 $-1 $308 $403 #
ellipse-curve $-1 -1 $-1 15 35 110 0 1 0 0 0 4.5 1 I I #
loop $-1 -1 $-1 $-1 $404 $357 #
face $405 -1 $-1 $406 $309 $4 $-1 $407 forward single #
point $-1 -1 $-1 30 35 47.75 #
coedge $-1 -1 $-1 $359 $359 $392 $408 forward $312 $-1 #
DXID-attrib $-1 -1 $-1 $-1 $313 @10 ASM ENTITY @2 17 #
cone-surface $-1 -1 $-1 15 34 20 0 1 0 0 0 4.5 1 I I 0 1 4.5 forward I I I I #
DXID-attrib $-1 -1 $-1 $-1 $316 @10 ASM ENTITY @2 29 #
face $409 -1 $-1 $410 $411 $4 $-1 $412 forward single #
loop $-1 -1 $-1 $413 $414 $316 #
plane-surface $-1 -1 $-1 70 30.51000000000000156 95 0 1 0 0 0 1 forward_v I I I I #
loop $-1 -1 $-1 $-1 $415 $266 #
coedge $-1 -1 $-1 $367 $367 $320 $369 reversed $317 $-1 #
coedge $-1 -1 $-1 $368 $368 $321 $370 reversed $319 $-1 #
edge $-1 -1 $-1 $416 0 $416 6.283185307179586232 $320 $417 forward @7 unknown #
edge $-1 -1 $-1 $418 0 $418 6.283185307179586232 $321 $419 forward @7 unknown #
loop $-1 -1 $-1 $278 $322 $88 #
vertex $-1 -1 $-1 $323 $420 #
ellipse-curve $-1 -1 $-1 70 35 95 0 1 0 0 0 2.75 1 I I #
loop $-1 -1 $-1 $-1 $376 $272 #
coedge $-1 -1 $-1 $375 $375 $396 $421 reversed $325 $-1 #
coedge $-1 -1 $-1 $376 $376 $328 $377 forward $374 $-1 #
edge $-1 -1 $-1 $422 0 $422 6.283185307179586232 $328 $423 forward @7 unknown #
vertex $-1 -1 $-1 $331 $424 #
ellipse-curve $-1 -1 $-1 85 35.00999999999999801 20 0 1 0 0 0 4.490000000000000213 1 I I #
vertex $-1 -1 $-1 $332 $425 #
ellipse-curve $-1 -1 $-1 85 37.25 20 0 1 0 0 0 2.25 1 I I #
loop $-1 -1 $-1 $-1 $334 $285 #
vertex $-1 -1 $-1 $335 $426 #
ellipse-curve $-1 -1 $-1 15 37.25 110 0 1 0 0 0 2.25 1 I I #
DXID-attrib $-1 -1 $-1 $-1 $337 @10 ASM ENTITY @2 12 #
face $427 -1 $-1 $167 $353 $4 $-1 $428 reversed single #
loop $-1 -1 $-1 $429 $430 $337 #
plane-surface $-1 -1 $-1 15 35.00999999999999801 110 0 1 0 0 0 1 forward_v I I I I #
coedge $-1 -1 $-1 $389 $389 $431 $432 reversed $338 $-1 #
point $-1 -1 $-1 15 37.25 22.25 #
loop $-1 -1 $-1 $-1 $393 $290 #
coedge $-1 -1 $-1 $392 $392 $359 $408 reversed $344 $-1 #
coedge $-1 -1 $-1 $393 $393 $346 $394 forward $391 $-1 #
edge $-1 -1 $-1 $433 0 $433 6.283185307179586232 $346 $434 forward @7 unknown #
loop $-1 -1 $-1 $371 $435 $88 #
coedge $-1 -1 $-1 $396 $396 $375 $421 forward $349 $-1 #
coedge $-1 -1 $-1 $397 $397 $350 $398 reversed $436 $-1 #
edge $-1 -1 $-1 $437 0 $437 6.283185307179586232 $350 $438 forward @7 unknown #
loop $-1 -1 $-1 $439 $351 $440 #
vertex $-1 -1 $-1 $352 $441 #
ellipse-curve $-1 -1 $-1 30 35 95 0 1 0 0 0 2.75 1 I I #
loop $-1 -1 $-1 $-1 $442 $386 #
point $-1 -1 $-1 15 35 114.5000000000000142 #
coedge $-1 -1 $-1 $404 $404 $443 $444 forward $356 $-1 #
DXID-attrib $-1 -1 $-1 $-1 $357 @10 ASM ENTITY @2 46 #
face $445 -1 $-1 $446 $447 $4 $-1 $448 forward single #
cone-surface $-1 -1 $-1 30 31.49000000000000199 45 0 1 0 0 0 2.75 1 I I 0 1 2.75 forward I I I I #
edge $-1 -1 $-1 $449 0 $449 6.283185307179586232 $392 $450 forward @7 unknown #
DXID-attrib $-1 -1 $-1 $-1 $363 @10 ASM ENTITY @2 30 #
face $451 -1 $-1 $452 $453 $4 $-1 $454 reversed single #
loop $-1 -1 $-1 $455 $456 $363 #
cone-surface $-1 -1 $-1 70 28.00000000000000355 95 0 1 0 0 0 5 1 I I 0 1 5 forward I I I I #
loop $-1 -1 $-1 $-1 $457 $316 #
coedge $-1 -1 $-1 $414 $414 $458 $459 forward $364 $-1 #
coedge $-1 -1 $-1 $415 $415 $457 $460 forward $366 $-1 #
vertex $-1 -1 $-1 $369 $461 #
ellipse-curve $-1 -1 $-1 70 31.51000000000000156 95 0 1 0 0 0 4 1 I I #
vertex $-1 -1 $-1 $370 $462 #
ellipse-curve $-1 -1 $-1 70 31.51000000000000156 95 0 1 0 0 0 2.75 1 I I #
point $-1 -1 $-1 70 35 97.75 #
edge $-1 -1 $-1 $463 0 $463 6.283185307179586232 $375 $464 forward @7 unknown #
vertex $-1 -1 $-1 $377 $465 #
ellipse-curve $-1 -1 $-1 85 35.00999999999999801 20 0 1 0 0 0 4.5 1 I I #
point $-1 -1 $-1 85 35.00999999999999801 24.48999999999999844 #
point $-1 -1 $-1 85 37.25 22.25 #
point $-1 -1 $-1 15 37.25 112.2500000000000142 #
DXID-attrib $-1 -1 $-1 $-1 $386 @10 ASM ENTITY @2 13 #
cone-surface $-1 -1 $-1 15 34 110 0 1 0 0 0 4.5 1 I I 0 1 4.5 forward I I I I #
loop $-1 -1 $-1 $-1 $431 $337 #
coedge $-1 -1 $-1 $430 $430 $442 $466 reversed $387 $-1 #
coedge $-1 -1 $-1 $431 $431 $389 $432 forward $429 $-1 #
edge $-1 -1 $-1 $467 0 $467 6.283185307179586232 $389 $468 forward @7 unknown #
vertex $-1 -1 $-1 $394 $469 #
ellipse-curve $-1 -1 $-1 15 35.00999999999999801 20 0 1 0 0 0 4.490000000000000213 1 I I #
coedge $-1 -1 $-1 $435 $435 $470 $471 forward $395 $-1 #
loop $-1 -1 $-1 $472 $397 $473 #
vertex $-1 -1 $-1 $398 $474 #
ellipse-curve $-1 -1 $-1 50 35 62 0 1 0 0 0 2 1 I I #
loop $-1 -1 $-1 $-1 $475 $440 #
face $476 -1 $-1 $477 $399 $4 $-1 $478 forward single #
point $-1 -1 $-1 30 35 97.75 #
coedge $-1 -1 $-1 $442 $442 $430 $466 forward $402 $-1 #
coedge $-1 -1 $-1 $443 $443 $404 $444 reversed $479 $-1 #
edge $-1 -1 $-1 $480 0 $480 6.283185307179586232 $404 $481 forward @7 unknown #
DXID-attrib $-1 -1 $-1 $-1 $406 @10 ASM ENTITY @2 47 #
face $482 -1 $-1 $483 $484 $4 $-1 $485 forward single #
loop $-1 -1 $-1 $479 $486 $406 #
plane-surface $-1 -1 $-1 30 31.51000000000000156 45 0 1 0 0 0 1 forward_v I I I I #
vertex $-1 -1 $-1 $408 $487 #
ellipse-curve $-1 -1 $-1 15 35.00999999999999801 20 0 1 0 0 0 4.5 1 I I #
DXID-attrib $-1 -1 $-1 $-1 $410 @10 ASM ENTITY @2 31 #
face $488 -1 $-1 $489 $490 $4 $-1 $491 forward single #
loop $-1 -1 $-1 $-1 $492 $410 #
plane-surface $-1 -1 $-1 70 28.00000000000000355 95 0 1 0 0 0 1 forward_v I I I I #
loop $-1 -1 $-1 $-1 $458 $363 #
coedge $-1 -1 $-1 $456 $456 $492 $493 forward $411 $-1 #
coedge $-1 -1 $-1 $457 $457 $415 $460 reversed $413 $-1 #
coedge $-1 -1 $-1 $458 $458 $414 $459 reversed $455 $-1 #
edge $-1 -1 $-1 $494 0 $494 6.283185307179586232 $414 $495 forward @7 unknown #
edge $-1 -1 $-1 $496 0 $496 6.283185307179586232 $415 $497 forward @7 unknown #
point $-1 -1 $-1 70 31.51000000000000156 99 #
point $-1 -1 $-1 70 31.51000000000000156 97.75 #
vertex $-1 -1 $-1 $421 $498 #
ellipse-curve $-1 -1 $-1 85 35 20 0 1 0 0 0 4.5 1 I I #
point $-1 -1 $-1 85 35.00999999999999801 24.5 #
edge $-1 -1 $-1 $499 0 $499 6.283185307179586232 $430 $500 forward @7 unknown #
vertex $-1 -1 $-1 $432 $501 #
ellipse-curve $-1 -1 $-1 15 35.00999999999999801 110 0 1 0 0 0 4.490000000000000213 1 I I #
point $-1 -1 $-1 15 35.00999999999999801 24.48999999999999844 #
coedge $-1 -1 $-1 $470 $470 $435 $471 reversed $490 $-1 #
edge $-1 -1 $-1 $502 0 $502 6.283185307179586232 $435 $503 forward @7 unknown #
loop $-1 -1 $-1 $-1 $504 $473 #
face $505 -1 $-1 $506 $436 $4 $-1 $507 reversed single #
point $-1 -1 $-1 50 35 64 #
coedge $-1 -1 $-1 $475 $475 $508 $509 forward $439 $-1 #
DXID-attrib $-1 -1 $-1 $-1 $440 @10 ASM ENTITY @2 40 #
face $510 -1 $-1 $511 $512 $4 $-1 $513 forward single #
cone-surface $-1 -1 $-1 30 31.49000000000000199 95 0 1 0 0 0 2.75 1 I I 0 1 2.75 forward I I I I #
loop $-1 -1 $-1 $-1 $443 $406 #
vertex $-1 -1 $-1 $444 $514 #
ellipse-curve $-1 -1 $-1 30 31.51000000000000156 45 0 1 0 0 0 2.75 1 I I #
DXID-attrib $-1 -1 $-1 $-1 $446 @10 ASM ENTITY @2 48 #
face $515 -1 $-1 $516 $517 $4 $-1 $518 forward single #
loop $-1 -1 $-1 $519 $520 $446 #
cone-surface $-1 -1 $-1 30 30.50000000000000355 45 -0 -1 -0 0 0 5 1 I I 0.7035801295963689528 0.7106159308917558981 5 forward I I I I #
coedge $-1 -1 $-1 $486 $486 $520 $521 forward $447 $-1 #
point $-1 -1 $-1 15 35.00999999999999801 24.5 #
DXID-attrib $-1 -1 $-1 $-1 $452 @10 ASM ENTITY @2 32 #
face $522 -1 $-1 $523 $524 $4 $-1 $525 forward single #
loop $-1 -1 $-1 $526 $470 $452 #
cone-surface $-1 -1 $-1 70 31.49000000000000199 45 0 1 0 0 0 2.75 1 I I 0 1 2.75 forward I I I I #
coedge $-1 -1 $-1 $492 $492 $456 $493 reversed $453 $-1 #
edge $-1 -1 $-1 $527 0 $527 6.283185307179586232 $456 $528 forward @7 unknown #
vertex $-1 -1 $-1 $459 $529 #
ellipse-curve $-1 -1 $-1 70 30.51000000000000156 95 0 1 0 0 0 5 1 I I #
vertex $-1 -1 $-1 $460 $530 #
ellipse-curve $-1 -1 $-1 70 30.51000000000000156 95 0 1 0 0 0 4.99009900990099986 1 I I #
point $-1 -1 $-1 85 35 24.5 #
vertex $-1 -1 $-1 $466 $531 #
ellipse-curve $-1 -1 $-1 15 35.00999999999999801 110 0 1 0 0 0 4.5 1 I I #
point $-1 -1 $-1 15 35.00999999999999801 114.4899999999999949 #
vertex $-1 -1 $-1 $471 $532 #
ellipse-curve $-1 -1 $-1 70 35 45 0 1 0 0 0 2.75 1 I I #
coedge $-1 -1 $-1 $504 $504 $533 $534 forward $472 $-1 #
DXID-attrib $-1 -1 $-1 $-1 $473 @10 ASM ENTITY @2 38 #
face $535 -1 $-1 $440 $536 $4 $-1 $537 reversed single #
cone-surface $-1 -1 $-1 50 34 62 0 1 0 0 0 2 1 I I 0 1 2 forward I I I I #
coedge $-1 -1 $-1 $508 $508 $475 $509 reversed $538 $-1 #
edge $-1 -1 $-1 $539 0 $539 6.283185307179586232 $475 $540 forward @7 unknown #
DXID-attrib $-1 -1 $-1 $-1 $477 @10 ASM ENTITY @2 41 #
face $541 -1 $-1 $542 $543 $4 $-1 $544 forward single #
loop $-1 -1 $-1 $538 $545 $477 #
plane-surface $-1 -1 $-1 30 31.51000000000000156 95 0 1 0 0 0 1 forward_v I I I I #
point $-1 -1 $-1 30 31.51000000000000156 47.75 #
DXID-attrib $-1 -1 $-1 $-1 $483 @10 ASM ENTITY @2 49 #
face $546 -1 $-1 $547 $548 $4 $-1 $549 forward single #
loop $-1 -1 $-1 $550 $551 $483 #
plane-surface $-1 -1 $-1 30 30.51000000000000156 45 0 1 0 0 0 1 forward_v I I I I #
loop $-1 -1 $-1 $-1 $552 $446 #
coedge $-1 -1 $-1 $520 $520 $486 $521 reversed $484 $-1 #
edge $-1 -1 $-1 $553 0 $553 6.283185307179586232 $486 $554 forward @7 unknown #
DXID-attrib $-1 -1 $-1 $-1 $489 @10 ASM ENTITY @2 33 #
face $555 -1 $-1 $556 $557 $4 $-1 $558 forward single #
loop $-1 -1 $-1 $559 $560 $489 #
plane-surface $-1 -1 $-1 70 31.51000000000000156 45 0 1 0 0 0 1 forward_v I I I I #
loop $-1 -1 $-1 $-1 $561 $452 #
vertex $-1 -1 $-1 $493 $562 #
ellipse-curve $-1 -1 $-1 70 28.00000000000000355 95 0 1 0 0 0 5 1 I I #
point $-1 -1 $-1 70 30.51000000000000156 100 #
point $-1 -1 $-1 70 30.51000000000000156 99.99009900990101585 #
point $-1 -1 $-1 15 35.00999999999999801 114.5000000000000142 #
point $-1 -1 $-1 70 35 47.75 #
coedge $-1 -1 $-1 $533 $533 $504 $534 reversed $536 $-1 #
edge $-1 -1 $-1 $563 0 $563 6.283185307179586232 $504 $564 forward @7 unknown #
DXID-attrib $-1 -1 $-1 $-1 $506 @10 ASM ENTITY @2 39 #
loop $-1 -1 $-1 $-1 $533 $506 #
plane-surface $-1 -1 $-1 50 41.70000000000000995 62 0 1 0 0 0 1 forward_v I I I I #
loop $-1 -1 $-1 $-1 $508 $477 #
vertex $-1 -1 $-1 $509 $565 #
ellipse-curve $-1 -1 $-1 30 31.51000000000000156 95 0 1 0 0 0 2.75 1 I I #
DXID-attrib $-1 -1 $-1 $-1 $511 @10 ASM ENTITY @2 42 #
face $566 -1 $-1 $567 $568 $4 $-1 $569 forward single #
loop $-1 -1 $-1 $570 $571 $511 #
cone-surface $-1 -1 $-1 30 30.50000000000000355 95 -0 -1 -0 0 0 5 1 I I 0.7035801295963689528 0.7106159308917558981 5 forward I I I I #
coedge $-1 -1 $-1 $545 $545 $571 $572 forward $512 $-1 #
DXID-attrib $-1 -1 $-1 $-1 $516 @10 ASM ENTITY @2 50 #
face $573 -1 $-1 $-1 $574 $4 $-1 $575 reversed single #
loop $-1 -1 $-1 $576 $577 $516 #
cone-surface $-1 -1 $-1 30 28.00000000000000355 45 0 1 0 0 0 5 1 I I 0 1 5 forward I I I I #
loop $-1 -1 $-1 $-1 $578 $483 #
coedge $-1 -1 $-1 $551 $551 $579 $580 forward $517 $-1 #
coedge $-1 -1 $-1 $552 $552 $578 $581 forward $519 $-1 #
vertex $-1 -1 $-1 $521 $582 #
ellipse-curve $-1 -1 $-1 30 31.51000000000000156 45 0 1 0 0 0 4 1 I I #
DXID-attrib $-1 -1 $-1 $-1 $523 @10 ASM ENTITY @2 34 #
face $583 -1 $-1 $584 $585 $4 $-1 $586 forward single #
loop $-1 -1 $-1 $587 $588 $523 #
cone-surface $-1 -1 $-1 70 30.50000000000000355 45 -0 -1 -0 0 0 5 1 I I 0.7035801295963689528 0.7106159308917558981 5 forward I I I I #
loop $-1 -1 $-1 $-1 $589 $489 #
coedge $-1 -1 $-1 $560 $560 $588 $590 forward $524 $-1 #
coedge $-1 -1 $-1 $561 $561 $589 $591 forward $526 $-1 #
point $-1 -1 $-1 70 28.00000000000000355 100 #
vertex $-1 -1 $-1 $534 $592 #
ellipse-curve $-1 -1 $-1 50 41.70000000000000995 62 0 1 0 0 0 2 1 I I #
point $-1 -1 $-1 30 31.51000000000000156 97.75 #
DXID-attrib $-1 -1 $-1 $-1 $542 @10 ASM ENTITY @2 43 #
face $593 -1 $-1 $594 $595 $4 $-1 $596 forward single #
loop $-1 -1 $-1 $597 $598 $542 #
plane-surface $-1 -1 $-1 30 30.51000000000000156 95 0 1 0 0 0 1 forward_v I I I I #
loop $-1 -1 $-1 $-1 $599 $511 #
coedge $-1 -1 $-1 $571 $571 $545 $572 reversed $543 $-1 #
edge $-1 -1 $-1 $600 0 $600 6.283185307179586232 $545 $601 forward @7 unknown #
DXID-attrib $-1 -1 $-1 $-1 $547 @10 ASM ENTITY @2 51 #
loop $-1 -1 $-1 $-1 $602 $547 #
plane-surface $-1 -1 $-1 30 28.00000000000000355 45 0 1 0 0 0 1 forward_v I I I I #
loop $-1 -1 $-1 $-1 $579 $516 #
coedge $-1 -1 $-1 $577 $577 $602 $603 forward $548 $-1 #
coedge $-1 -1 $-1 $578 $578 $552 $581 reversed $550 $-1 #
coedge $-1 -1 $-1 $579 $579 $551 $580 reversed $576 $-1 #
edge $-1 -1 $-1 $604 0 $604 6.283185307179586232 $551 $605 forward @7 unknown #
edge $-1 -1 $-1 $606 0 $606 6.283185307179586232 $552 $607 forward @7 unknown #
point $-1 -1 $-1 30 31.51000000000000156 49 #
DXID-attrib $-1 -1 $-1 $-1 $556 @10 ASM ENTITY @2 35 #
face $608 -1 $-1 $609 $610 $4 $-1 $611 forward single #
loop $-1 -1 $-1 $612 $613 $556 #
plane-surface $-1 -1 $-1 70 30.51000000000000156 45 0 1 0 0 0 1 forward_v I I I I #
loop $-1 -1 $-1 $-1 $614 $523 #
coedge $-1 -1 $-1 $588 $588 $560 $590 reversed $557 $-1 #
coedge $-1 -1 $-1 $589 $589 $561 $591 reversed $559 $-1 #
edge $-1 -1 $-1 $615 0 $615 6.283185307179586232 $560 $616 forward @7 unknown #
edge $-1 -1 $-1 $617 0 $617 6.283185307179586232 $561 $618 forward @7 unknown #
point $-1 -1 $-1 50 41.70000000000000995 64 #
DXID-attrib $-1 -1 $-1 $-1 $567 @10 ASM ENTITY @2 44 #
face $619 -1 $-1 $357 $620 $4 $-1 $621 reversed single #
loop $-1 -1 $-1 $622 $623 $567 #
cone-surface $-1 -1 $-1 30 28.00000000000000355 95 0 1 0 0 0 5 1 I I 0 1 5 forward I I I I #
loop $-1 -1 $-1 $-1 $624 $542 #
coedge $-1 -1 $-1 $598 $598 $625 $626 forward $568 $-1 #
coedge $-1 -1 $-1 $599 $599 $624 $627 forward $570 $-1 #
vertex $-1 -1 $-1 $572 $628 #
ellipse-curve $-1 -1 $-1 30 31.51000000000000156 95 0 1 0 0 0 4 1 I I #
coedge $-1 -1 $-1 $602 $602 $577 $603 reversed $574 $-1 #
edge $-1 -1 $-1 $629 0 $629 6.283185307179586232 $577 $630 forward @7 unknown #
vertex $-1 -1 $-1 $580 $631 #
ellipse-curve $-1 -1 $-1 30 30.51000000000000156 45 0 1 0 0 0 5 1 I I #
vertex $-1 -1 $-1 $581 $632 #
ellipse-curve $-1 -1 $-1 30 30.51000000000000156 45 0 1 0 0 0 4.99009900990099986 1 I I #
DXID-attrib $-1 -1 $-1 $-1 $584 @10 ASM ENTITY @2 36 #
face $633 -1 $-1 $473 $634 $4 $-1 $635 reversed single #
loop $-1 -1 $-1 $636 $637 $584 #
cone-surface $-1 -1 $-1 70 28.00000000000000355 45 0 1 0 0 0 5 1 I I 0 1 5 forward I I I I #
loop $-1 -1 $-1 $-1 $638 $556 #
coedge $-1 -1 $-1 $613 $613 $639 $640 forward $585 $-1 #
coedge $-1 -1 $-1 $614 $614 $638 $641 forward $587 $-1 #
vertex $-1 -1 $-1 $590 $642 #
ellipse-curve $-1 -1 $-1 70 31.51000000000000156 45 0 1 0 0 0 4 1 I I #
vertex $-1 -1 $-1 $591 $643 #
ellipse-curve $-1 -1 $-1 70 31.51000000000000156 45 0 1 0 0 0 2.75 1 I I #
DXID-attrib $-1 -1 $-1 $-1 $594 @10 ASM ENTITY @2 45 #
loop $-1 -1 $-1 $-1 $644 $594 #
plane-surface $-1 -1 $-1 30 28.00000000000000355 95 0 1 0 0 0 1 forward_v I I I I #
loop $-1 -1 $-1 $-1 $625 $567 #
coedge $-1 -1 $-1 $623 $623 $644 $645 forward $595 $-1 #
coedge $-1 -1 $-1 $624 $624 $599 $627 reversed $597 $-1 #
coedge $-1 -1 $-1 $625 $625 $598 $626 reversed $622 $-1 #
edge $-1 -1 $-1 $646 0 $646 6.283185307179586232 $598 $647 forward @7 unknown #
edge $-1 -1 $-1 $648 0 $648 6.283185307179586232 $599 $649 forward @7 unknown #
point $-1 -1 $-1 30 31.51000000000000156 99 #
vertex $-1 -1 $-1 $603 $650 #
ellipse-curve $-1 -1 $-1 30 28.00000000000000355 45 0 1 0 0 0 5 1 I I #
point $-1 -1 $-1 30 30.51000000000000156 50 #
point $-1 -1 $-1 30 30.51000000000000156 49.99009900990100164 #
DXID-attrib $-1 -1 $-1 $-1 $609 @10 ASM ENTITY @2 37 #
loop $-1 -1 $-1 $-1 $651 $609 #
plane-surface $-1 -1 $-1 70 28.00000000000000355 45 0 1 0 0 0 1 forward_v I I I I #
loop $-1 -1 $-1 $-1 $639 $584 #
coedge $-1 -1 $-1 $637 $637 $651 $652 forward $610 $-1 #
coedge $-1 -1 $-1 $638 $638 $614 $641 reversed $612 $-1 #
coedge $-1 -1 $-1 $639 $639 $613 $640 reversed $636 $-1 #
edge $-1 -1 $-1 $653 0 $653 6.283185307179586232 $613 $654 forward @7 unknown #
edge $-1 -1 $-1 $655 0 $655 6.283185307179586232 $614 $656 forward @7 unknown #
point $-1 -1 $-1 70 31.51000000000000156 49 #
point $-1 -1 $-1 70 31.51000000000000156 47.75 #
coedge $-1 -1 $-1 $644 $644 $623 $645 reversed $620 $-1 #
edge $-1 -1 $-1 $657 0 $657 6.283185307179586232 $623 $658 forward @7 unknown #
vertex $-1 -1 $-1 $626 $659 #
ellipse-curve $-1 -1 $-1 30 30.51000000000000156 95 0 1 0 0 0 5 1 I I #
vertex $-1 -1 $-1 $627 $660 #
ellipse-curve $-1 -1 $-1 30 30.51000000000000156 95 0 1 0 0 0 4.99009900990099986 1 I I #
point $-1 -1 $-1 30 28.00000000000000355 50 #
coedge $-1 -1 $-1 $651 $651 $637 $652 reversed $634 $-1 #
edge $-1 -1 $-1 $661 0 $661 6.283185307179586232 $637 $662 forward @7 unknown #
vertex $-1 -1 $-1 $640 $663 #
ellipse-curve $-1 -1 $-1 70 30.51000000000000156 45 0 1 0 0 0 5 1 I I #
vertex $-1 -1 $-1 $641 $664 #
ellipse-curve $-1 -1 $-1 70 30.51000000000000156 45 0 1 0 0 0 4.99009900990099986 1 I I #
vertex $-1 -1 $-1 $645 $665 #
ellipse-curve $-1 -1 $-1 30 28.00000000000000355 95 0 1 0 0 0 5 1 I I #
point $-1 -1 $-1 30 30.51000000000000156 100 #
point $-1 -1 $-1 30 30.51000000000000156 99.99009900990101585 #
vertex $-1 -1 $-1 $652 $666 #
ellipse-curve $-1 -1 $-1 70 28.00000000000000355 45 0 1 0 0 0 5 1 I I #
point $-1 -1 $-1 70 30.51000000000000156 50 #
point $-1 -1 $-1 70 30.51000000000000156 49.99009900990100164 #
point $-1 -1 $-1 30 28.00000000000000355 100 #
point $-1 -1 $-1 70 28.00000000000000355 50 #
End-of-ACIS-data 