700 0 1 0           
30 Autodesk Translation Framework 21 ASM 232.4.0.65535 OSX 24 Fri Sep  4 00:39:00 2026 
1 9.999999999999999547e-07 1.000000000000000036e-10 
body $1 -1 $-1 $2 $-1 $-1 #
rgb_color-st-attrib $-1 -1 $3 $-1 $0 0.627450980392156854 0.627450980392156854 0.627450980392156854 #
lump $-1 -1 $-1 $-1 $4 $0 #
ATTRIB_CUSTOM-attrib $-1 -1 $-1 $1 $0 @20 Timestamp_attrib_def 1 1788478740253460 #
shell $-1 -1 $-1 $-1 $-1 $5 $-1 $2 #
face $6 -1 $-1 $7 $8 $4 $-1 $9 reversed single #
DXID-attrib $-1 -1 $-1 $-1 $5 @10 ASM ENTITY @1 0 #
face $10 -1 $-1 $11 $12 $4 $-1 $13 forward single #
loop $-1 -1 $-1 $-1 $14 $5 #
plane-surface $-1 -1 $-1 37 3.000000000000000444 -2.5 1 0 0 0 0 1 forward_v I I I I #
DXID-attrib $-1 -1 $-1 $-1 $7 @10 ASM ENTITY @1 1 #
face $15 -1 $-1 $16 $17 $4 $-1 $18 reversed single #
loop $-1 -1 $-1 $19 $20 $7 #
plane-surface $-1 -1 $-1 37 32 -2.5 0 1 0 0 0 1 forward_v I I I I #
coedge $-1 -1 $-1 $21 $22 $23 $24 forward $8 $-1 #
DXID-attrib $-1 -1 $-1 $-1 $11 @10 ASM ENTITY @1 2 #
face $25 -1 $-1 $26 $27 $4 $-1 $28 reversed single #
loop $-1 -1 $-1 $-1 $29 $11 #
plane-surface $-1 -1 $-1 37 -25 -40 0 0 1 1 0 0 forward_v I I I I #
loop $-1 -1 $-1 $-1 $30 $7 #
coedge $-1 -1 $-1 $31 $23 $32 $33 forward $12 $-1 #
coedge $-1 -1 $-1 $34 $14 $29 $35 forward $8 $-1 #
coedge $-1 -1 $-1 $14 $36 $37 $38 forward $8 $-1 #
coedge $-1 -1 $-1 $20 $39 $14 $24 reversed $12 $-1 #
edge $-1 -1 $-1 $40 0 $41 41.5 $14 $42 forward @7 unknown #
DXID-attrib $-1 -1 $-1 $-1 $16 @10 ASM ENTITY @1 3 #
face $43 -1 $-1 $44 $45 $4 $-1 $46 forward single #
loop $-1 -1 $-1 $-1 $47 $16 #
plane-surface $-1 -1 $-1 37 -25 -40 0 1 0 0 0 1 forward_v I I I I #
coedge $-1 -1 $-1 $48 $49 $21 $35 reversed $17 $-1 #
coedge $-1 -1 $-1 $50 $51 $52 $53 forward $19 $-1 #
coedge $-1 -1 $-1 $39 $20 $54 $55 forward $12 $-1 #
coedge $-1 -1 $-1 $37 $56 $20 $33 reversed $57 $-1 #
edge $-1 -1 $-1 $40 0 $58 26.00000000000000355 $20 $59 forward @7 unknown #
coedge $-1 -1 $-1 $60 $21 $61 $62 forward $8 $-1 #
edge $-1 -1 $-1 $41 0 $63 57 $21 $64 forward @7 unknown #
coedge $-1 -1 $-1 $22 $65 $66 $67 forward $8 $-1 #
coedge $-1 -1 $-1 $68 $32 $22 $38 reversed $57 $-1 #
edge $-1 -1 $-1 $69 0 $40 29.00000000000000355 $22 $70 forward @7 unknown #
coedge $-1 -1 $-1 $23 $31 $48 $71 reversed $12 $-1 #
vertex $-1 -1 $-1 $24 $72 #
vertex $-1 -1 $-1 $24 $73 #
straight-curve $-1 -1 $-1 37 32 1.500000000000000222 0 0 -1 F 0 F 41.5 #
DXID-attrib $-1 -1 $-1 $-1 $26 @10 ASM ENTITY @1 4 #
face $74 -1 $-1 $75 $76 $4 $-1 $77 forward single #
loop $-1 -1 $-1 $-1 $78 $26 #
plane-surface $-1 -1 $-1 37 -25 -10 0 0 1 1 0 0 forward_v I I I I #
coedge $-1 -1 $-1 $79 $61 $49 $80 forward $27 $-1 #
coedge $-1 -1 $-1 $81 $29 $39 $71 forward $17 $-1 #
coedge $-1 -1 $-1 $29 $81 $47 $80 reversed $17 $-1 #
coedge $-1 -1 $-1 $82 $30 $83 $84 forward $19 $-1 #
coedge $-1 -1 $-1 $30 $85 $86 $87 reversed $19 $-1 #
coedge $-1 -1 $-1 $88 $89 $30 $53 reversed $90 $-1 #
edge $-1 -1 $-1 $91 0 $92 8.599999999999994316 $30 $93 forward @7 unknown #
coedge $-1 -1 $-1 $94 $95 $31 $55 reversed $96 $-1 #
edge $-1 -1 $-1 $58 0 $97 41.5 $31 $98 forward @7 unknown #
coedge $-1 -1 $-1 $32 $68 $94 $99 forward $57 $-1 #
loop $-1 -1 $-1 $100 $37 $101 #
vertex $-1 -1 $-1 $33 $102 #
straight-curve $-1 -1 $-1 37 32 1.500000000000000222 1 0 0 F 0 F 26.00000000000000355 #
coedge $-1 -1 $-1 $103 $34 $78 $104 forward $8 $-1 #
coedge $-1 -1 $-1 $47 $105 $34 $62 reversed $27 $-1 #
edge $-1 -1 $-1 $63 0 $106 30 $34 $107 forward @7 unknown #
vertex $-1 -1 $-1 $35 $108 #
straight-curve $-1 -1 $-1 37 32 -40 0 -1 0 F 0 F 57 #
coedge $-1 -1 $-1 $36 $109 $110 $111 reversed $8 $-1 #
coedge $-1 -1 $-1 $112 $113 $36 $67 reversed $114 $-1 #
edge $-1 -1 $-1 $115 0 $69 4 $36 $116 forward @7 unknown #
coedge $-1 -1 $-1 $56 $37 $113 $117 forward $57 $-1 #
vertex $-1 -1 $-1 $67 $118 #
straight-curve $-1 -1 $-1 37 3.000000000000000444 1.500000000000000222 0 1 0 F 0 F 29.00000000000000355 #
edge $-1 -1 $-1 $41 0 $97 26.00000000000000355 $39 $119 forward @7 unknown #
point $-1 -1 $-1 37 32 1.500000000000000222 #
point $-1 -1 $-1 37 32 -40 #
DXID-attrib $-1 -1 $-1 $-1 $44 @10 ASM ENTITY @1 5 #
face $120 -1 $-1 $121 $122 $4 $-1 $123 reversed single #
loop $-1 -1 $-1 $-1 $124 $44 #
plane-surface $-1 -1 $-1 37 -16 -40 0 1 0 0 0 1 forward_v I I I I #
coedge $-1 -1 $-1 $125 $126 $60 $104 reversed $45 $-1 #
coedge $-1 -1 $-1 $105 $47 $127 $128 reversed $27 $-1 #
edge $-1 -1 $-1 $63 0 $129 26.00000000000000355 $49 $130 forward @7 unknown #
coedge $-1 -1 $-1 $49 $48 $95 $131 forward $17 $-1 #
coedge $-1 -1 $-1 $132 $50 $133 $134 forward $19 $-1 #
coedge $-1 -1 $-1 $135 $136 $50 $84 reversed $137 $-1 #
edge $-1 -1 $-1 $92 13.99999999999999822 $138 17 $50 $139 forward @7 unknown #
coedge $-1 -1 $-1 $51 $140 $141 $142 forward $19 $-1 #
coedge $-1 -1 $-1 $143 $144 $51 $87 forward $145 $-1 #
edge $-1 -1 $-1 $91 13.99999999999999822 $146 17 $51 $147 forward @7 unknown #
coedge $-1 -1 $-1 $148 $52 $144 $149 reversed $90 $-1 #
coedge $-1 -1 $-1 $52 $148 $135 $150 forward $90 $-1 #
loop $-1 -1 $-1 $151 $89 $152 #
vertex $-1 -1 $-1 $53 $153 #
vertex $-1 -1 $-1 $53 $154 #
straight-curve $-1 -1 $-1 54.29999999999999716 32 -33.5 -1 0 0 F 0 F 8.599999999999994316 #
coedge $-1 -1 $-1 $155 $54 $56 $99 reversed $96 $-1 #
coedge $-1 -1 $-1 $54 $127 $81 $131 reversed $96 $-1 #
loop $-1 -1 $-1 $-1 $54 $156 #
vertex $-1 -1 $-1 $55 $157 #
straight-curve $-1 -1 $-1 63.00000000000000711 32 1.500000000000000222 0 0 -1 F 0 F 41.5 #
edge $-1 -1 $-1 $158 0 $58 29.00000000000000355 $56 $159 forward @7 unknown #
loop $-1 -1 $-1 $160 $161 $101 #
face $162 -1 $-1 $156 $57 $4 $-1 $163 forward single #
point $-1 -1 $-1 63.00000000000000711 32 1.500000000000000222 #
coedge $-1 -1 $-1 $164 $60 $165 $166 reversed $8 $-1 #
edge $-1 -1 $-1 $106 0 $167 8.999999999999998224 $60 $168 forward @7 unknown #
coedge $-1 -1 $-1 $61 $79 $125 $169 reversed $27 $-1 #
vertex $-1 -1 $-1 $62 $170 #
straight-curve $-1 -1 $-1 37 -25 -40 0 0 1 F 0 F 30 #
point $-1 -1 $-1 37 -25 -40 #
coedge $-1 -1 $-1 $65 $171 $172 $173 forward $8 $-1 #
coedge $-1 -1 $-1 $174 $175 $65 $111 forward $176 $-1 #
edge $-1 -1 $-1 $115 0 $177 19 $65 $178 forward @7 unknown #
coedge $-1 -1 $-1 $179 $66 $175 $180 forward $114 $-1 #
coedge $-1 -1 $-1 $66 $179 $68 $117 reversed $114 $-1 #
loop $-1 -1 $-1 $-1 $112 $181 #
vertex $-1 -1 $-1 $111 $182 #
straight-curve $-1 -1 $-1 37 3.000000000000000444 -2.5 0 0 1 F 0 F 4 #
edge $-1 -1 $-1 $69 0 $158 26.00000000000000355 $113 $183 forward @7 unknown #
point $-1 -1 $-1 37 3.000000000000000444 1.500000000000000222 #
straight-curve $-1 -1 $-1 37 32 -40 1 0 0 F 0 F 26.00000000000000355 #
DXID-attrib $-1 -1 $-1 $-1 $75 @10 ASM ENTITY @1 6 #
face $184 -1 $-1 $185 $186 $4 $-1 $187 forward single #
loop $-1 -1 $-1 $-1 $188 $75 #
plane-surface $-1 -1 $-1 37 -8 -30.01000000000000512 0 -0.7071067811865475727 -0.7071067811865475727 0 -0.7071067811865476838 0.7071067811865476838 forward_v I I I I #
coedge $-1 -1 $-1 $189 $190 $191 $192 reversed $76 $-1 #
coedge $-1 -1 $-1 $193 $78 $105 $169 forward $45 $-1 #
coedge $-1 -1 $-1 $78 $193 $190 $194 reversed $45 $-1 #
coedge $-1 -1 $-1 $95 $195 $79 $128 forward $96 $-1 #
edge $-1 -1 $-1 $196 0 $129 30 $79 $197 forward @7 unknown #
vertex $-1 -1 $-1 $131 $198 #
straight-curve $-1 -1 $-1 37 -25 -40 1 0 0 F 0 F 26.00000000000000355 #
edge $-1 -1 $-1 $97 0 $129 57 $81 $199 forward @7 unknown #
coedge $-1 -1 $-1 $200 $82 $201 $202 forward $19 $-1 #
coedge $-1 -1 $-1 $203 $204 $82 $134 reversed $205 $-1 #
edge $-1 -1 $-1 $138 4.349999999999996092 $206 5.649999999999995026 $82 $207 forward @7 unknown #
coedge $-1 -1 $-1 $208 $83 $89 $150 reversed $137 $-1 #
coedge $-1 -1 $-1 $83 $208 $203 $209 forward $137 $-1 #
loop $-1 -1 $-1 $-1 $135 $210 #
vertex $-1 -1 $-1 $84 $211 #
straight-curve $-1 -1 $-1 45.70000000000000284 32 -19.5 0 0 -1 F 13.99999999999999822 F 17 #
coedge $-1 -1 $-1 $85 $200 $212 $213 reversed $19 $-1 #
coedge $-1 -1 $-1 $214 $215 $85 $142 reversed $205 $-1 #
edge $-1 -1 $-1 $216 11.65000000000000036 $146 12.94999999999999041 $85 $217 forward @7 unknown #
coedge $-1 -1 $-1 $218 $86 $215 $219 reversed $145 $-1 #
coedge $-1 -1 $-1 $86 $218 $88 $149 forward $145 $-1 #
loop $-1 -1 $-1 $-1 $144 $220 #
vertex $-1 -1 $-1 $142 $221 #
straight-curve $-1 -1 $-1 54.29999999999999716 32 -19.5 0 0 -1 F 13.99999999999999822 F 17 #
coedge $-1 -1 $-1 $89 $88 $222 $223 reversed $90 $-1 #
edge $-1 -1 $-1 $224 0 $91 38.29999999999999716 $88 $225 forward @7 unknown #
edge $-1 -1 $-1 $226 0 $92 38.29999999999999716 $89 $227 forward @7 unknown #
loop $-1 -1 $-1 $-1 $228 $152 #
face $229 -1 $-1 $210 $90 $4 $-1 $230 reversed single #
point $-1 -1 $-1 54.29999999999999716 32 -33.5 #
point $-1 -1 $-1 45.70000000000000284 32 -33.5 #
coedge $-1 -1 $-1 $231 $94 $179 $232 reversed $96 $-1 #
face $233 -1 $-1 $152 $96 $4 $-1 $234 forward single #
point $-1 -1 $-1 63.00000000000000711 32 -40 #
vertex $-1 -1 $-1 $232 $235 #
straight-curve $-1 -1 $-1 63.00000000000000711 3.000000000000000444 1.500000000000000222 0 1 0 F 0 F 29.00000000000000355 #
loop $-1 -1 $-1 $236 $237 $101 #
coedge $-1 -1 $-1 $161 $161 $238 $239 reversed $100 $-1 #
DXID-attrib $-1 -1 $-1 $-1 $101 @10 ASM ENTITY @2 15 #
plane-surface $-1 -1 $-1 37 3.000000000000000444 1.500000000000000222 0 0 1 1 0 0 forward_v I I I I #
coedge $-1 -1 $-1 $240 $103 $188 $241 reversed $8 $-1 #
coedge $-1 -1 $-1 $190 $242 $103 $166 forward $76 $-1 #
edge $-1 -1 $-1 $243 17.98999999999999844 $167 30 $103 $244 forward @7 unknown #
vertex $-1 -1 $-1 $104 $245 #
straight-curve $-1 -1 $-1 37 -25 -10 0 1 0 F 0 F 8.999999999999998224 #
edge $-1 -1 $-1 $106 0 $196 26.00000000000000355 $105 $246 forward @7 unknown #
point $-1 -1 $-1 37 -25 -10 #
coedge $-1 -1 $-1 $109 $247 $248 $249 forward $8 $-1 #
coedge $-1 -1 $-1 $250 $251 $109 $173 reversed $252 $-1 #
edge $-1 -1 $-1 $253 8.000000000000001776 $177 27.51000000000000156 $109 $254 forward @7 unknown #
coedge $-1 -1 $-1 $255 $110 $251 $256 reversed $176 $-1 #
coedge $-1 -1 $-1 $110 $255 $112 $180 reversed $176 $-1 #
loop $-1 -1 $-1 $257 $110 $258 #
vertex $-1 -1 $-1 $173 $259 #
straight-curve $-1 -1 $-1 37 3.000000000000000444 -2.5 0 1 0 F 0 F 19 #
coedge $-1 -1 $-1 $113 $112 $155 $232 forward $114 $-1 #
edge $-1 -1 $-1 $115 0 $260 26.00000000000000355 $175 $261 forward @7 unknown #
face $262 -1 $-1 $101 $114 $4 $-1 $263 reversed single #
point $-1 -1 $-1 37 3.000000000000000444 -2.5 #
straight-curve $-1 -1 $-1 37 3.000000000000000444 1.500000000000000222 1 0 0 F 0 F 26.00000000000000355 #
DXID-attrib $-1 -1 $-1 $-1 $121 @10 ASM ENTITY @1 7 #
face $264 -1 $-1 $265 $266 $4 $-1 $267 forward single #
loop $-1 -1 $-1 $-1 $268 $121 #
plane-surface $-1 -1 $-1 36 -9 -32 0 1 0 0 0 1 forward_v I I I I #
coedge $-1 -1 $-1 $269 $270 $164 $241 forward $122 $-1 #
coedge $-1 -1 $-1 $271 $124 $272 $273 forward $76 $-1 #
coedge $-1 -1 $-1 $124 $165 $126 $194 forward $76 $-1 #
coedge $-1 -1 $-1 $195 $274 $124 $192 forward $96 $-1 #
edge $-1 -1 $-1 $275 17.98999999999999844 $276 30 $124 $277 forward @7 unknown #
coedge $-1 -1 $-1 $126 $125 $195 $278 forward $45 $-1 #
edge $-1 -1 $-1 $167 0 $276 26.00000000000000355 $126 $279 forward @7 unknown #
coedge $-1 -1 $-1 $127 $191 $193 $278 reversed $96 $-1 #
vertex $-1 -1 $-1 $128 $280 #
straight-curve $-1 -1 $-1 63.00000000000000711 -25 -10 0 0 -1 F 0 F 30 #
point $-1 -1 $-1 63.00000000000000711 -25 -40 #
straight-curve $-1 -1 $-1 63.00000000000000711 32 -40 0 -1 0 F 0 F 57 #
coedge $-1 -1 $-1 $140 $132 $281 $282 forward $19 $-1 #
coedge $-1 -1 $-1 $283 $284 $132 $202 reversed $285 $-1 #
edge $-1 -1 $-1 $206 16.25000000000000355 $286 17.75000000000000355 $132 $287 forward @7 unknown #
coedge $-1 -1 $-1 $288 $133 $136 $209 reversed $205 $-1 #
coedge $-1 -1 $-1 $133 $289 $283 $290 forward $205 $-1 #
loop $-1 -1 $-1 $-1 $203 $291 #
vertex $-1 -1 $-1 $134 $292 #
straight-curve $-1 -1 $-1 41.35000000000000853 32 -36.5 1 0 0 F 4.349999999999996092 F 5.649999999999995026 #
coedge $-1 -1 $-1 $136 $135 $293 $294 reversed $137 $-1 #
edge $-1 -1 $-1 $295 0 $138 38.29999999999999716 $136 $296 forward @7 unknown #
face $297 -1 $-1 $291 $137 $4 $-1 $298 forward single #
point $-1 -1 $-1 45.70000000000000284 32 -36.5 #
coedge $-1 -1 $-1 $299 $300 $140 $213 forward $301 $-1 #
edge $-1 -1 $-1 $216 16.25000000000000355 $302 17.75000000000000355 $140 $303 forward @7 unknown #
coedge $-1 -1 $-1 $289 $141 $300 $304 forward $205 $-1 #
coedge $-1 -1 $-1 $141 $288 $143 $219 forward $205 $-1 #
vertex $-1 -1 $-1 $213 $305 #
straight-curve $-1 -1 $-1 41.35000000000000853 32 -36.5 1 0 0 F 11.65000000000000036 F 12.94999999999999041 #
coedge $-1 -1 $-1 $144 $143 $306 $307 forward $145 $-1 #
edge $-1 -1 $-1 $308 0 $146 38.29999999999999716 $215 $309 forward @7 unknown #
face $310 -1 $-1 $311 $145 $4 $-1 $312 reversed single #
point $-1 -1 $-1 54.29999999999999716 32 -36.5 #
coedge $-1 -1 $-1 $306 $293 $148 $223 forward $313 $-1 #
edge $-1 -1 $-1 $226 0 $224 8.599999999999994316 $148 $314 forward @7 unknown #
vertex $-1 -1 $-1 $149 $315 #
straight-curve $-1 -1 $-1 54.29999999999999716 -6.299999999999999822 -33.5 0 1 0 F 0 F 38.29999999999999716 #
vertex $-1 -1 $-1 $150 $316 #
straight-curve $-1 -1 $-1 45.70000000000000284 -6.299999999999999822 -33.5 0 1 0 F 0 F 38.29999999999999716 #
coedge $-1 -1 $-1 $317 $318 $319 $320 reversed $151 $-1 #
DXID-attrib $-1 -1 $-1 $-1 $152 @10 ASM ENTITY @2 17 #
plane-surface $-1 -1 $-1 45.70000000000000284 -6.299999999999999822 -33.5 0 0 1 1 0 0 forward_v I I I I #
coedge $-1 -1 $-1 $321 $155 $255 $322 forward $96 $-1 #
edge $-1 -1 $-1 $260 0 $158 4 $179 $323 forward @7 unknown #
DXID-attrib $-1 -1 $-1 $-1 $156 @10 ASM ENTITY @2 16 #
plane-surface $-1 -1 $-1 63.00000000000000711 3.000000000000000444 -2.5 1 0 0 0 0 1 forward_v I I I I #
point $-1 -1 $-1 63.00000000000000711 3.000000000000000444 1.500000000000000222 #
loop $-1 -1 $-1 $-1 $324 $101 #
coedge $-1 -1 $-1 $237 $237 $325 $326 reversed $160 $-1 #
coedge $-1 -1 $-1 $238 $238 $161 $239 forward $327 $-1 #
edge $-1 -1 $-1 $328 0 $328 6.283185307179586232 $161 $329 forward @7 unknown #
coedge $-1 -1 $-1 $330 $164 $331 $332 reversed $8 $-1 #
edge $-1 -1 $-1 $333 1.414213562372190092 $243 11.31370849897751896 $164 $334 forward @7 unknown #
coedge $-1 -1 $-1 $165 $335 $269 $336 forward $76 $-1 #
vertex $-1 -1 $-1 $166 $337 #
straight-curve $-1 -1 $-1 37 -16 -40 0 0 1 F 17.98999999999999844 F 30 #
point $-1 -1 $-1 37 -16 -10 #
straight-curve $-1 -1 $-1 37 -25 -10 1 0 0 F 0 F 26.00000000000000355 #
coedge $-1 -1 $-1 $171 $338 $339 $340 forward $8 $-1 #
coedge $-1 -1 $-1 $341 $342 $171 $249 reversed $343 $-1 #
edge $-1 -1 $-1 $344 0.01414213562372347924 $253 11.31370849897751896 $171 $345 forward @7 unknown #
coedge $-1 -1 $-1 $346 $172 $342 $347 forward $252 $-1 #
coedge $-1 -1 $-1 $172 $348 $174 $256 forward $252 $-1 #
loop $-1 -1 $-1 $-1 $348 $349 #
vertex $-1 -1 $-1 $249 $350 #
straight-curve $-1 -1 $-1 37 22 -30.01000000000000512 0 0 1 F 8.000000000000001776 F 27.51000000000000156 #
coedge $-1 -1 $-1 $175 $174 $231 $322 reversed $176 $-1 #
edge $-1 -1 $-1 $351 -26.00000000000000355 $177 0 $251 $352 forward @7 unknown #
loop $-1 -1 $-1 $353 $354 $258 #
face $355 -1 $-1 $181 $176 $4 $-1 $356 reversed single #
point $-1 -1 $-1 37 22 -2.5 #
vertex $-1 -1 $-1 $322 $357 #
straight-curve $-1 -1 $-1 37 3.000000000000000444 -2.5 1 0 0 F 0 F 26.00000000000000355 #
DXID-attrib $-1 -1 $-1 $-1 $181 @10 ASM ENTITY @2 14 #
plane-surface $-1 -1 $-1 37 3.000000000000000444 -2.5 0 1 0 0 0 1 forward_v I I I I #
DXID-attrib $-1 -1 $-1 $-1 $185 @10 ASM ENTITY @1 8 #
face $358 -1 $-1 $359 $360 $4 $-1 $361 reversed single #
loop $-1 -1 $-1 $-1 $362 $185 #
plane-surface $-1 -1 $-1 36 -9 -32 0 0 1 1 0 0 forward_v I I I I #
coedge $-1 -1 $-1 $331 $363 $364 $365 reversed $186 $-1 #
coedge $-1 -1 $-1 $366 $188 $242 $336 reversed $122 $-1 #
coedge $-1 -1 $-1 $188 $366 $367 $368 reversed $122 $-1 #
coedge $-1 -1 $-1 $369 $189 $370 $371 forward $76 $-1 #
coedge $-1 -1 $-1 $372 $373 $189 $273 reversed $374 $-1 #
edge $-1 -1 $-1 $275 -14.00000000000000355 $375 -12.00000000000000178 $189 $376 forward @7 unknown #
coedge $-1 -1 $-1 $191 $377 $372 $378 forward $96 $-1 #
vertex $-1 -1 $-1 $192 $379 #
vertex $-1 -1 $-1 $278 $380 #
straight-curve $-1 -1 $-1 63.00000000000000711 -16 -40 0 0 1 F 17.98999999999999844 F 30 #
edge $-1 -1 $-1 $196 0 $276 8.999999999999998224 $193 $381 forward @7 unknown #
straight-curve $-1 -1 $-1 37 -16 -10 1 0 0 F 0 F 26.00000000000000355 #
point $-1 -1 $-1 63.00000000000000711 -25 -10 #
coedge $-1 -1 $-1 $382 $383 $200 $282 reversed $384 $-1 #
edge $-1 -1 $-1 $286 5 $302 11.00000000000000533 $200 $385 forward @7 unknown #
coedge $-1 -1 $-1 $386 $201 $204 $290 reversed $285 $-1 #
coedge $-1 -1 $-1 $201 $386 $382 $387 forward $285 $-1 #
loop $-1 -1 $-1 $-1 $283 $388 #
vertex $-1 -1 $-1 $202 $389 #
straight-curve $-1 -1 $-1 47 32 -20.25 0 0 -1 F 16.25000000000000355 F 17.75000000000000355 #
coedge $-1 -1 $-1 $215 $203 $390 $391 forward $205 $-1 #
coedge $-1 -1 $-1 $204 $214 $392 $393 forward $205 $-1 #
edge $-1 -1 $-1 $394 0 $206 27 $204 $395 forward @7 unknown #
face $396 -1 $-1 $388 $205 $4 $-1 $397 forward single #
point $-1 -1 $-1 47 32 -36.5 #
coedge $-1 -1 $-1 $222 $390 $208 $294 forward $313 $-1 #
edge $-1 -1 $-1 $295 0 $226 3.000000000000002665 $208 $398 forward @7 unknown #
vertex $-1 -1 $-1 $294 $399 #
straight-curve $-1 -1 $-1 45.70000000000000284 -6.299999999999999822 -36.5 0 1 0 F 0 F 38.29999999999999716 #
DXID-attrib $-1 -1 $-1 $-1 $210 @10 ASM ENTITY @2 18 #
plane-surface $-1 -1 $-1 45.70000000000000284 -6.299999999999999822 -36.5 1 0 0 0 0 1 forward_v I I I I #
coedge $-1 -1 $-1 $400 $212 $383 $401 reversed $301 $-1 #
coedge $-1 -1 $-1 $212 $400 $214 $304 reversed $301 $-1 #
loop $-1 -1 $-1 $-1 $300 $402 #
vertex $-1 -1 $-1 $282 $403 #
straight-curve $-1 -1 $-1 53.00000000000000711 32 -20.25 0 0 -1 F 16.25000000000000355 F 17.75000000000000355 #
edge $-1 -1 $-1 $216 0 $404 27 $214 $405 forward @7 unknown #
point $-1 -1 $-1 53.00000000000000711 32 -36.5 #
coedge $-1 -1 $-1 $390 $222 $218 $307 reversed $313 $-1 #
edge $-1 -1 $-1 $308 0 $224 3.000000000000002665 $218 $406 forward @7 unknown #
vertex $-1 -1 $-1 $391 $407 #
straight-curve $-1 -1 $-1 54.29999999999999716 -6.299999999999999822 -36.5 0 1 0 F 0 F 38.29999999999999716 #
DXID-attrib $-1 -1 $-1 $-1 $220 @10 ASM ENTITY @2 23 #
face $408 -1 $-1 $409 $410 $4 $-1 $411 forward single #
plane-surface $-1 -1 $-1 54.29999999999999716 -6.299999999999999822 -36.5 1 0 0 0 0 1 forward_v I I I I #
loop $-1 -1 $-1 $-1 $390 $412 #
straight-curve $-1 -1 $-1 45.70000000000000284 -6.299999999999999822 -33.5 1 0 0 F 0 F 8.599999999999994316 #
point $-1 -1 $-1 54.29999999999999716 -6.299999999999999822 -33.5 #
point $-1 -1 $-1 45.70000000000000284 -6.299999999999999822 -33.5 #
coedge $-1 -1 $-1 $413 $228 $414 $415 forward $151 $-1 #
coedge $-1 -1 $-1 $228 $413 $416 $417 reversed $151 $-1 #
coedge $-1 -1 $-1 $418 $419 $228 $320 forward $420 $-1 #
edge $-1 -1 $-1 $421 -6.650000000000000355 $422 -0.6499999999999950262 $228 $423 forward @7 unknown #
coedge $-1 -1 $-1 $424 $231 $348 $425 reversed $96 $-1 #
edge $-1 -1 $-1 $260 0 $351 19 $255 $426 forward @7 unknown #
straight-curve $-1 -1 $-1 63.00000000000000711 3.000000000000000444 -2.5 0 0 1 F 0 F 4 #
coedge $-1 -1 $-1 $427 $428 $429 $430 forward $236 $-1 #
coedge $-1 -1 $-1 $325 $325 $237 $326 forward $431 $-1 #
edge $-1 -1 $-1 $432 0 $432 6.283185307179586232 $237 $433 forward @7 unknown #
loop $-1 -1 $-1 $-1 $238 $434 #
vertex $-1 -1 $-1 $239 $435 #
ellipse-curve $-1 -1 $-1 43 8 1.500000000000000222 0 0 1 1.750000000000000222 0 0 1 I I #
coedge $-1 -1 $-1 $338 $240 $436 $437 reversed $8 $-1 #
coedge $-1 -1 $-1 $367 $268 $240 $332 forward $186 $-1 #
edge $-1 -1 $-1 $438 -14.75 $333 -11.76000000000000156 $240 $439 forward @7 unknown #
vertex $-1 -1 $-1 $241 $440 #
straight-curve $-1 -1 $-1 37 -8 -30.01000000000000512 0 -0.7071067811870000996 0.7071067811870000996 F 1.414213562372190092 F 11.31370849897751896 #
coedge $-1 -1 $-1 $242 $369 $441 $442 reversed $76 $-1 #
edge $-1 -1 $-1 $443 -2.000000000000001776 $243 0 $242 $444 forward @7 unknown #
point $-1 -1 $-1 37 -16 -22.01000000000000156 #
coedge $-1 -1 $-1 $247 $330 $445 $446 forward $8 $-1 #
coedge $-1 -1 $-1 $447 $448 $247 $340 reversed $449 $-1 #
edge $-1 -1 $-1 $450 30 $344 39.00999999999999801 $247 $451 forward @7 unknown #
coedge $-1 -1 $-1 $452 $248 $448 $453 forward $343 $-1 #
coedge $-1 -1 $-1 $248 $452 $250 $347 reversed $343 $-1 #
loop $-1 -1 $-1 $-1 $248 $454 #
vertex $-1 -1 $-1 $340 $455 #
straight-curve $-1 -1 $-1 37 14.00000000000000178 -30.01000000000000512 0 0.7071067811870000996 0.7071067811870000996 F 0.01414213562372347924 F 11.31370849897751896 #
coedge $-1 -1 $-1 $456 $250 $457 $458 reversed $252 $-1 #
edge $-1 -1 $-1 $253 0 $459 2.000000000000001776 $342 $460 forward @7 unknown #
coedge $-1 -1 $-1 $251 $461 $321 $425 forward $252 $-1 #
face $462 -1 $-1 $258 $252 $4 $-1 $463 reversed single #
point $-1 -1 $-1 37 22 -22.01000000000000156 #
vertex $-1 -1 $-1 $425 $464 #
straight-curve $-1 -1 $-1 37 22 -2.5 -1 0 0 F -26.00000000000000355 F 0 #
loop $-1 -1 $-1 $-1 $465 $258 #
coedge $-1 -1 $-1 $354 $354 $466 $467 forward $257 $-1 #
DXID-attrib $-1 -1 $-1 $-1 $258 @10 ASM ENTITY @2 13 #
plane-surface $-1 -1 $-1 37 3.000000000000000444 -2.5 0 0 1 1 0 0 forward_v I I I I #
point $-1 -1 $-1 63.00000000000000711 3.000000000000000444 -2.5 #
DXID-attrib $-1 -1 $-1 $-1 $265 @10 ASM ENTITY @1 9 #
face $468 -1 $-1 $454 $449 $4 $-1 $469 forward single #
loop $-1 -1 $-1 $-1 $470 $265 #
plane-surface $-1 -1 $-1 36 5 -32 0 1 0 0 0 1 forward_v I I I I #
coedge $-1 -1 $-1 $436 $471 $470 $472 reversed $266 $-1 #
coedge $-1 -1 $-1 $268 $473 $377 $474 reversed $186 $-1 #
coedge $-1 -1 $-1 $471 $436 $268 $365 forward $266 $-1 #
edge $-1 -1 $-1 $438 1.000000000000000888 $475 27.00000000000000355 $268 $476 forward @7 unknown #
coedge $-1 -1 $-1 $270 $269 $477 $478 reversed $122 $-1 #
coedge $-1 -1 $-1 $479 $331 $270 $368 forward $186 $-1 #
edge $-1 -1 $-1 $333 0.4999999999999982236 $480 2.5 $270 $481 forward @7 unknown #
coedge $-1 -1 $-1 $335 $271 $482 $483 forward $76 $-1 #
coedge $-1 -1 $-1 $484 $485 $271 $371 reversed $486 $-1 #
edge $-1 -1 $-1 $375 -11.57901867067000268 $487 -3.589018670670003353 $271 $488 forward @7 unknown #
coedge $-1 -1 $-1 $489 $272 $274 $378 reversed $374 $-1 #
coedge $-1 -1 $-1 $272 $489 $484 $490 forward $374 $-1 #
loop $-1 -1 $-1 $-1 $373 $491 #
vertex $-1 -1 $-1 $273 $492 #
straight-curve $-1 -1 $-1 49 -16 -22.01000000000000156 -1 0 0 F -14.00000000000000355 F -12.00000000000000178 #
coedge $-1 -1 $-1 $274 $493 $363 $474 forward $96 $-1 #
edge $-1 -1 $-1 $494 1.414213562372190092 $275 11.31370849897751896 $274 $495 forward @7 unknown #
point $-1 -1 $-1 63.00000000000000711 -16 -22.01000000000000156 #
point $-1 -1 $-1 63.00000000000000711 -16 -10 #
straight-curve $-1 -1 $-1 63.00000000000000711 -25 -10 0 1 0 F 0 F 8.999999999999998224 #
coedge $-1 -1 $-1 $496 $281 $284 $387 reversed $384 $-1 #
coedge $-1 -1 $-1 $281 $496 $299 $401 forward $384 $-1 #
loop $-1 -1 $-1 $-1 $382 $497 #
straight-curve $-1 -1 $-1 42 32 -38 1 0 0 F 5 F 11.00000000000000533 #
coedge $-1 -1 $-1 $284 $283 $498 $499 reversed $285 $-1 #
edge $-1 -1 $-1 $500 0 $286 27 $284 $501 forward @7 unknown #
face $502 -1 $-1 $497 $285 $4 $-1 $503 forward single #
point $-1 -1 $-1 47 32 -38 #
coedge $-1 -1 $-1 $293 $306 $288 $391 reversed $313 $-1 #
edge $-1 -1 $-1 $295 0 $308 8.599999999999994316 $288 $504 forward @7 unknown #
coedge $-1 -1 $-1 $505 $498 $289 $393 reversed $506 $-1 #
edge $-1 -1 $-1 $404 -6.650000000000000355 $394 -0.6499999999999950262 $289 $507 forward @7 unknown #
vertex $-1 -1 $-1 $393 $508 #
straight-curve $-1 -1 $-1 47 5 -36.5 0 1 0 F 0 F 27 #
DXID-attrib $-1 -1 $-1 $-1 $291 @10 ASM ENTITY @2 19 #
plane-surface $-1 -1 $-1 45.70000000000000284 -6.299999999999999822 -36.5 0 0 1 1 0 0 forward_v I I I I #
straight-curve $-1 -1 $-1 45.70000000000000284 -6.299999999999999822 -36.5 0 0 1 F 0 F 3.000000000000002665 #
point $-1 -1 $-1 45.70000000000000284 -6.299999999999999822 -36.5 #
coedge $-1 -1 $-1 $300 $299 $505 $509 forward $301 $-1 #
edge $-1 -1 $-1 $510 0 $302 27 $383 $511 forward @7 unknown #
face $512 -1 $-1 $220 $301 $4 $-1 $513 reversed single #
point $-1 -1 $-1 53.00000000000000711 32 -38 #
vertex $-1 -1 $-1 $304 $514 #
straight-curve $-1 -1 $-1 53.00000000000000711 32 -36.5 0 -1 0 F 0 F 27 #
straight-curve $-1 -1 $-1 54.29999999999999716 -6.299999999999999822 -36.5 0 0 1 F 0 F 3.000000000000002665 #
point $-1 -1 $-1 54.29999999999999716 -6.299999999999999822 -36.5 #
DXID-attrib $-1 -1 $-1 $-1 $311 @10 ASM ENTITY @2 24 #
face $515 -1 $-1 $516 $517 $4 $-1 $518 forward single #
loop $-1 -1 $-1 $-1 $441 $311 #
plane-surface $-1 -1 $-1 39 -13.17803734134000138 -27.17803734134000138 1 0 0 0 0 1 forward_v I I I I #
face $519 -1 $-1 $520 $313 $4 $-1 $521 forward single #
coedge $-1 -1 $-1 $318 $317 $522 $523 forward $151 $-1 #
coedge $-1 -1 $-1 $524 $525 $317 $415 reversed $526 $-1 #
edge $-1 -1 $-1 $421 15.40000000000000036 $527 20.39999999999999858 $317 $528 forward @7 unknown #
coedge $-1 -1 $-1 $529 $530 $318 $417 forward $531 $-1 #
edge $-1 -1 $-1 $422 15.40000000000000036 $532 20.39999999999999858 $318 $533 forward @7 unknown #
coedge $-1 -1 $-1 $429 $319 $530 $534 forward $420 $-1 #
coedge $-1 -1 $-1 $319 $429 $524 $535 reversed $420 $-1 #
loop $-1 -1 $-1 $-1 $419 $536 #
vertex $-1 -1 $-1 $320 $537 #
vertex $-1 -1 $-1 $320 $538 #
straight-curve $-1 -1 $-1 46.35000000000000853 24.5 -33.5 -1 0 0 F -6.650000000000000355 F -0.6499999999999950262 #
coedge $-1 -1 $-1 $539 $321 $540 $541 reversed $96 $-1 #
edge $-1 -1 $-1 $542 8.000000000000001776 $351 27.51000000000000156 $348 $543 forward @7 unknown #
straight-curve $-1 -1 $-1 63.00000000000000711 3.000000000000000444 -2.5 0 1 0 F 0 F 19 #
coedge $-1 -1 $-1 $544 $324 $545 $546 forward $236 $-1 #
coedge $-1 -1 $-1 $324 $544 $547 $548 reversed $236 $-1 #
coedge $-1 -1 $-1 $419 $418 $324 $430 reversed $420 $-1 #
edge $-1 -1 $-1 $549 -11.00000000000000533 $550 -5 $324 $551 forward @7 unknown #
loop $-1 -1 $-1 $-1 $325 $552 #
vertex $-1 -1 $-1 $326 $553 #
ellipse-curve $-1 -1 $-1 57 8 1.500000000000000222 0 0 1 1.750000000000000222 0 0 1 I I #
face $554 -1 $-1 $552 $555 $4 $-1 $556 reversed single #
point $-1 -1 $-1 44.75000000000000711 8 1.500000000000000222 #
coedge $-1 -1 $-1 $364 $362 $330 $437 forward $266 $-1 #
edge $-1 -1 $-1 $557 -8 $438 5.999999999999999112 $330 $558 forward @7 unknown #
vertex $-1 -1 $-1 $332 $559 #
straight-curve $-1 -1 $-1 37 -9 -17.25 0 0 1 F -14.75 F -11.76000000000000156 #
point $-1 -1 $-1 37 -9 -29.01000000000000156 #
coedge $-1 -1 $-1 $560 $477 $335 $442 forward $410 $-1 #
edge $-1 -1 $-1 $443 -11.57901867067000268 $561 -3.589018670670003353 $335 $562 forward @7 unknown #
vertex $-1 -1 $-1 $442 $563 #
straight-curve $-1 -1 $-1 37 -16 -22.01000000000000156 -1 0 0 F -2.000000000000001776 F 0 #
coedge $-1 -1 $-1 $470 $564 $338 $446 reversed $360 $-1 #
edge $-1 -1 $-1 $557 -14.75 $450 -12.74999999999999822 $338 $565 forward @7 unknown #
coedge $-1 -1 $-1 $566 $339 $564 $567 reversed $449 $-1 #
coedge $-1 -1 $-1 $339 $568 $341 $453 reversed $449 $-1 #
loop $-1 -1 $-1 $-1 $339 $359 #
vertex $-1 -1 $-1 $446 $569 #
straight-curve $-1 -1 $-1 37 -25 -30 0 1 0 F 30 F 39.00999999999999801 #
coedge $-1 -1 $-1 $342 $341 $570 $571 forward $343 $-1 #
edge $-1 -1 $-1 $344 0 $572 2.000000000000001776 $448 $573 forward @7 unknown #
face $574 -1 $-1 $349 $343 $4 $-1 $575 forward single #
point $-1 -1 $-1 37 14.00999999999999979 -30 #
coedge $-1 -1 $-1 $576 $346 $577 $578 forward $252 $-1 #
coedge $-1 -1 $-1 $570 $579 $346 $458 forward $580 $-1 #
edge $-1 -1 $-1 $581 -1.405981329329999419 $459 6.584018670669999906 $346 $582 forward @7 unknown #
vertex $-1 -1 $-1 $571 $583 #
straight-curve $-1 -1 $-1 37 22 -22.01000000000000156 1 0 0 F 0 F 2.000000000000001776 #
coedge $-1 -1 $-1 $348 $576 $584 $585 forward $252 $-1 #
DXID-attrib $-1 -1 $-1 $-1 $349 @10 ASM ENTITY @2 12 #
plane-surface $-1 -1 $-1 37 22 -30.01000000000000512 0 1 0 0 0 1 forward_v I I I I #
point $-1 -1 $-1 63.00000000000000711 22 -2.5 #
coedge $-1 -1 $-1 $465 $465 $586 $587 forward $353 $-1 #
coedge $-1 -1 $-1 $466 $466 $354 $467 reversed $588 $-1 #
edge $-1 -1 $-1 $589 0 $589 6.283185307179586232 $354 $590 forward @7 unknown #
DXID-attrib $-1 -1 $-1 $-1 $359 @10 ASM ENTITY @2 10 #
plane-surface $-1 -1 $-1 37 -25 -30 0 0 1 1 0 0 forward_v I I I I #
coedge $-1 -1 $-1 $591 $445 $362 $472 forward $360 $-1 #
coedge $-1 -1 $-1 $362 $364 $493 $592 reversed $266 $-1 #
edge $-1 -1 $-1 $557 1.000000000000000888 $593 27.00000000000000355 $362 $594 forward @7 unknown #
coedge $-1 -1 $-1 $363 $595 $489 $596 forward $186 $-1 #
edge $-1 -1 $-1 $475 -14.75 $494 -11.76000000000000156 $363 $597 forward @7 unknown #
vertex $-1 -1 $-1 $365 $598 #
straight-curve $-1 -1 $-1 36 -9 -32 1 0 0 F 1.000000000000000888 F 27.00000000000000355 #
coedge $-1 -1 $-1 $441 $599 $366 $478 forward $410 $-1 #
edge $-1 -1 $-1 $480 1.414213562372190092 $443 11.31370849897751896 $366 $600 forward @7 unknown #
coedge $-1 -1 $-1 $601 $367 $599 $602 reversed $186 $-1 #
vertex $-1 -1 $-1 $478 $603 #
straight-curve $-1 -1 $-1 36.5 -9 -29.01000000000000156 1 0 0 F 0.4999999999999982236 F 2.5 #
coedge $-1 -1 $-1 $604 $605 $369 $483 reversed $517 $-1 #
edge $-1 -1 $-1 $487 -24.00000000000000355 $561 -2.000000000000001776 $369 $606 forward @7 unknown #
coedge $-1 -1 $-1 $607 $370 $373 $490 reversed $486 $-1 #
coedge $-1 -1 $-1 $370 $607 $604 $608 reversed $486 $-1 #
loop $-1 -1 $-1 $-1 $370 $516 #
vertex $-1 -1 $-1 $371 $609 #
straight-curve $-1 -1 $-1 61.00000000000000711 -16 -33.58901867067000069 0 0 -1 F -11.57901867067000268 F -3.589018670670003353 #
coedge $-1 -1 $-1 $373 $372 $473 $596 reversed $374 $-1 #
edge $-1 -1 $-1 $610 1.414213562372190092 $375 11.31370849897751896 $484 $611 forward @7 unknown #
face $612 -1 $-1 $613 $374 $4 $-1 $614 reversed single #
point $-1 -1 $-1 61.00000000000000711 -16 -22.01000000000000156 #
coedge $-1 -1 $-1 $377 $615 $471 $592 forward $96 $-1 #
vertex $-1 -1 $-1 $596 $616 #
straight-curve $-1 -1 $-1 63.00000000000000711 -8 -30.01000000000000512 0 -0.7071067811870000996 0.7071067811870000996 F 1.414213562372190092 F 11.31370849897751896 #
coedge $-1 -1 $-1 $383 $382 $617 $618 forward $384 $-1 #
face $619 -1 $-1 $402 $384 $4 $-1 $620 forward single #
coedge $-1 -1 $-1 $392 $617 $386 $499 forward $506 $-1 #
edge $-1 -1 $-1 $500 0 $394 1.499999999999999112 $386 $621 forward @7 unknown #
vertex $-1 -1 $-1 $499 $622 #
straight-curve $-1 -1 $-1 47 5 -38 0 1 0 F 0 F 27 #
DXID-attrib $-1 -1 $-1 $-1 $388 @10 ASM ENTITY @2 20 #
plane-surface $-1 -1 $-1 47 5 -38 1 0 0 0 0 1 forward_v I I I I #
straight-curve $-1 -1 $-1 45.70000000000000284 -6.299999999999999822 -36.5 1 0 0 F 0 F 8.599999999999994316 #
coedge $-1 -1 $-1 $617 $392 $400 $509 reversed $506 $-1 #
loop $-1 -1 $-1 $-1 $505 $520 #
straight-curve $-1 -1 $-1 46.35000000000000853 5 -36.5 -1 0 0 F -6.650000000000000355 F -0.6499999999999950262 #
point $-1 -1 $-1 47 5 -36.5 #
edge $-1 -1 $-1 $510 0 $404 1.499999999999999112 $400 $623 forward @7 unknown #
vertex $-1 -1 $-1 $618 $624 #
straight-curve $-1 -1 $-1 53.00000000000000711 5 -38 0 1 0 F 0 F 27 #
DXID-attrib $-1 -1 $-1 $-1 $402 @10 ASM ENTITY @2 22 #
plane-surface $-1 -1 $-1 53.00000000000000711 5 -38 1 0 0 0 0 1 forward_v I I I I #
point $-1 -1 $-1 53.00000000000000711 5 -36.5 #
DXID-attrib $-1 -1 $-1 $-1 $409 @10 ASM ENTITY @2 25 #
face $625 -1 $-1 $491 $486 $4 $-1 $626 reversed single #
loop $-1 -1 $-1 $-1 $627 $409 #
plane-surface $-1 -1 $-1 37 -25 -30 0 0 1 1 0 0 forward_v I I I I #
DXID-attrib $-1 -1 $-1 $-1 $412 @10 ASM ENTITY @2 39 #
face $628 -1 $-1 $629 $506 $4 $-1 $630 forward single #
plane-surface $-1 -1 $-1 45.70000000000000284 -6.299999999999999822 -36.5 0 1 0 0 0 1 forward_v I I I I #
coedge $-1 -1 $-1 $631 $632 $413 $523 reversed $633 $-1 #
edge $-1 -1 $-1 $527 -6.650000000000000355 $532 -0.6499999999999950262 $413 $634 forward @7 unknown #
coedge $-1 -1 $-1 $547 $414 $419 $535 forward $526 $-1 #
coedge $-1 -1 $-1 $414 $547 $631 $635 reversed $526 $-1 #
loop $-1 -1 $-1 $-1 $524 $636 #
vertex $-1 -1 $-1 $415 $637 #
straight-curve $-1 -1 $-1 53.00000000000000711 9.099999999999999645 -33.5 0 1 0 F 15.40000000000000036 F 20.39999999999999858 #
coedge $-1 -1 $-1 $545 $416 $632 $638 forward $531 $-1 #
coedge $-1 -1 $-1 $416 $545 $418 $534 reversed $531 $-1 #
loop $-1 -1 $-1 $-1 $530 $639 #
vertex $-1 -1 $-1 $523 $640 #
straight-curve $-1 -1 $-1 47 9.099999999999999645 -33.5 0 1 0 F 15.40000000000000036 F 20.39999999999999858 #
edge $-1 -1 $-1 $422 4.500000000000001776 $550 39.5 $418 $641 forward @7 unknown #
edge $-1 -1 $-1 $421 4.500000000000001776 $549 39.5 $419 $642 forward @7 unknown #
face $643 -1 $-1 $636 $420 $4 $-1 $644 forward single #
point $-1 -1 $-1 53.00000000000000711 24.5 -33.5 #
point $-1 -1 $-1 47 24.5 -33.5 #
coedge $-1 -1 $-1 $615 $424 $566 $645 reversed $96 $-1 #
coedge $-1 -1 $-1 $584 $646 $424 $541 forward $647 $-1 #
edge $-1 -1 $-1 $648 0.01414213562372347924 $542 11.31370849897751896 $424 $649 forward @7 unknown #
vertex $-1 -1 $-1 $425 $650 #
straight-curve $-1 -1 $-1 63.00000000000000711 22 -30.01000000000000512 0 0 1 F 8.000000000000001776 F 27.51000000000000156 #
coedge $-1 -1 $-1 $428 $427 $651 $652 reversed $236 $-1 #
coedge $-1 -1 $-1 $530 $529 $427 $546 reversed $531 $-1 #
edge $-1 -1 $-1 $550 10.75000000000000178 $653 15.75000000000000178 $427 $654 forward @7 unknown #
coedge $-1 -1 $-1 $525 $524 $428 $548 forward $526 $-1 #
edge $-1 -1 $-1 $549 10.75000000000000178 $655 15.75000000000000178 $428 $656 forward @7 unknown #
vertex $-1 -1 $-1 $430 $657 #
vertex $-1 -1 $-1 $430 $658 #
straight-curve $-1 -1 $-1 42 24.5 1.500000000000000222 -1 0 0 F -11.00000000000000533 F -5 #
face $659 -1 $-1 $536 $660 $4 $-1 $661 reversed single #
point $-1 -1 $-1 58.75 8 1.500000000000000222 #
DXID-attrib $-1 -1 $-1 $-1 $434 @10 ASM ENTITY @2 33 #
loop $-1 -1 $-1 $327 $662 $434 #
cone-surface $-1 -1 $-1 43 8 -3.500000000000000444 0 0 1 1.750000000000000222 0 0 1 I I 0 1 1.750000000000000222 forward I I I I #
vertex $-1 -1 $-1 $437 $663 #
straight-curve $-1 -1 $-1 37 -3.000000000000000444 -32 0 -1 0 F -8 F 5.999999999999999112 #
point $-1 -1 $-1 37 -9 -32 #
coedge $-1 -1 $-1 $599 $441 $605 $664 forward $410 $-1 #
vertex $-1 -1 $-1 $483 $665 #
straight-curve $-1 -1 $-1 39 -16 -33.58901867067000069 0 0 -1 F -11.57901867067000268 F -3.589018670670003353 #
point $-1 -1 $-1 39 -16 -22.01000000000000156 #
coedge $-1 -1 $-1 $445 $591 $447 $567 forward $360 $-1 #
straight-curve $-1 -1 $-1 37 5 -17.25 0 0 1 F -14.75 F -12.74999999999999822 #
coedge $-1 -1 $-1 $666 $447 $539 $645 forward $449 $-1 #
edge $-1 -1 $-1 $667 -26.50000000000000355 $450 -0.4999999999999982236 $564 $668 forward @7 unknown #
coedge $-1 -1 $-1 $448 $577 $579 $669 forward $449 $-1 #
point $-1 -1 $-1 37 5 -30 #
coedge $-1 -1 $-1 $579 $457 $452 $571 reversed $580 $-1 #
edge $-1 -1 $-1 $572 0.01414213562372347924 $459 11.31370849897751896 $452 $670 forward @7 unknown #
vertex $-1 -1 $-1 $669 $671 #
straight-curve $-1 -1 $-1 37 14.00999999999999979 -30 1 0 0 F 0 F 2.000000000000001776 #
DXID-attrib $-1 -1 $-1 $-1 $454 @10 ASM ENTITY @2 11 #
plane-surface $-1 -1 $-1 37 14.00000000000000178 -30.01000000000000512 0 -0.7071067811865475727 0.7071067811865475727 0 0.7071067811865476838 0.7071067811865476838 forward_v I I I I #
coedge $-1 -1 $-1 $461 $456 $672 $673 forward $252 $-1 #
coedge $-1 -1 $-1 $568 $674 $456 $578 reversed $449 $-1 #
edge $-1 -1 $-1 $581 2.000000000000001776 $675 24.00000000000000355 $577 $676 forward @7 unknown #
coedge $-1 -1 $-1 $457 $570 $568 $669 reversed $580 $-1 #
loop $-1 -1 $-1 $-1 $579 $613 #
vertex $-1 -1 $-1 $578 $677 #
straight-curve $-1 -1 $-1 39 22 -28.59401867066999969 0 0 1 F -1.405981329329999419 F 6.584018670669999906 #
point $-1 -1 $-1 39 22 -22.01000000000000156 #
coedge $-1 -1 $-1 $678 $540 $461 $585 reversed $647 $-1 #
edge $-1 -1 $-1 $679 12.00000000000000178 $542 14.00000000000000355 $461 $680 forward @7 unknown #
coedge $-1 -1 $-1 $586 $586 $465 $587 reversed $681 $-1 #
edge $-1 -1 $-1 $682 0 $682 6.283185307179586232 $465 $683 forward @7 unknown #
loop $-1 -1 $-1 $684 $466 $685 #
vertex $-1 -1 $-1 $467 $686 #
ellipse-curve $-1 -1 $-1 43 8 -2.5 0 0 1 3.200000000000000622 0 0 1 I I #
coedge $-1 -1 $-1 $564 $470 $615 $687 forward $360 $-1 #
edge $-1 -1 $-1 $593 -8 $475 5.999999999999999112 $471 $688 forward @7 unknown #
vertex $-1 -1 $-1 $472 $689 #
straight-curve $-1 -1 $-1 36 5 -32 1 0 0 F 1.000000000000000888 F 27.00000000000000355 #
coedge $-1 -1 $-1 $473 $601 $607 $690 forward $186 $-1 #
edge $-1 -1 $-1 $610 12.5 $494 14.50000000000000178 $473 $691 forward @7 unknown #
straight-curve $-1 -1 $-1 63.00000000000000711 -9 -17.25 0 0 1 F -14.75 F -11.76000000000000156 #
point $-1 -1 $-1 63.00000000000000711 -9 -32 #
coedge $-1 -1 $-1 $477 $560 $479 $602 forward $410 $-1 #
straight-curve $-1 -1 $-1 39 -8 -30.01000000000000512 0 -0.7071067811870000996 0.7071067811870000996 F 1.414213562372190092 F 11.31370849897751896 #
coedge $-1 -1 $-1 $595 $479 $627 $692 reversed $186 $-1 #
edge $-1 -1 $-1 $693 -0.4109813293299957593 $480 0.5790186706700017893 $479 $694 forward @7 unknown #
point $-1 -1 $-1 39 -9 -29.01000000000000156 #
coedge $-1 -1 $-1 $627 $482 $485 $608 forward $517 $-1 #
coedge $-1 -1 $-1 $482 $627 $560 $664 reversed $517 $-1 #
straight-curve $-1 -1 $-1 37 -16 -30 -1 0 0 F -24.00000000000000355 F -2.000000000000001776 #
coedge $-1 -1 $-1 $485 $484 $595 $690 reversed $486 $-1 #
edge $-1 -1 $-1 $487 3.089018670670000688 $695 10.08901867067000246 $604 $696 forward @7 unknown #
point $-1 -1 $-1 61.00000000000000711 -16 -30 #
vertex $-1 -1 $-1 $690 $697 #
straight-curve $-1 -1 $-1 61.00000000000000711 -8 -30.01000000000000512 0 -0.7071067811870000996 0.7071067811870000996 F 1.414213562372190092 F 11.31370849897751896 #
DXID-attrib $-1 -1 $-1 $-1 $491 @10 ASM ENTITY @2 27 #
face $698 -1 $-1 $699 $580 $4 $-1 $700 reversed single #
plane-surface $-1 -1 $-1 61.00000000000000711 -8 -30.01000000000000512 0 -0.7071067811865475727 -0.7071067811865475727 0 -0.7071067811865476838 0.7071067811865476838 forward_v I I I I #
coedge $-1 -1 $-1 $493 $539 $591 $687 reversed $96 $-1 #
point $-1 -1 $-1 63.00000000000000711 -9 -29.01000000000000156 #
coedge $-1 -1 $-1 $498 $505 $496 $618 reversed $506 $-1 #
edge $-1 -1 $-1 $500 0 $510 6.000000000000005329 $496 $701 forward @7 unknown #
DXID-attrib $-1 -1 $-1 $-1 $497 @10 ASM ENTITY @2 21 #
plane-surface $-1 -1 $-1 47 5 -38 0 0 1 1 0 0 forward_v I I I I #
straight-curve $-1 -1 $-1 47 5 -38 0 0 1 F 0 F 1.499999999999999112 #
point $-1 -1 $-1 47 5 -38 #
straight-curve $-1 -1 $-1 53.00000000000000711 5 -38 0 0 1 F 0 F 1.499999999999999112 #
point $-1 -1 $-1 53.00000000000000711 5 -38 #
DXID-attrib $-1 -1 $-1 $-1 $516 @10 ASM ENTITY @2 26 #
plane-surface $-1 -1 $-1 61.00000000000000711 -13.17803734134000138 -27.17803734134000138 1 0 0 0 0 1 forward_v I I I I #
coedge $-1 -1 $-1 $605 $604 $601 $692 forward $517 $-1 #
DXID-attrib $-1 -1 $-1 $-1 $520 @10 ASM ENTITY @2 40 #
face $702 -1 $-1 $703 $704 $4 $-1 $705 reversed single #
plane-surface $-1 -1 $-1 47 5 -38 0 1 0 0 0 1 forward_v I I I I #
coedge $-1 -1 $-1 $651 $522 $525 $635 forward $633 $-1 #
coedge $-1 -1 $-1 $522 $651 $529 $638 reversed $633 $-1 #
loop $-1 -1 $-1 $-1 $631 $706 #
straight-curve $-1 -1 $-1 46.35000000000000853 29.5 -33.5 -1 0 0 F -6.650000000000000355 F -0.6499999999999950262 #
edge $-1 -1 $-1 $527 4.500000000000001776 $655 39.5 $525 $707 forward @7 unknown #
face $708 -1 $-1 $639 $526 $4 $-1 $709 reversed single #
point $-1 -1 $-1 53.00000000000000711 29.5 -33.5 #
edge $-1 -1 $-1 $532 4.500000000000001776 $653 39.5 $529 $710 forward @7 unknown #
face $711 -1 $-1 $706 $531 $4 $-1 $712 forward single #
point $-1 -1 $-1 47 29.5 -33.5 #
straight-curve $-1 -1 $-1 47 24.5 -38 0 0 1 F 4.500000000000001776 F 39.5 #
straight-curve $-1 -1 $-1 53.00000000000000711 24.5 -38 0 0 1 F 4.500000000000001776 F 39.5 #
DXID-attrib $-1 -1 $-1 $-1 $536 @10 ASM ENTITY @2 35 #
plane-surface $-1 -1 $-1 47 24.5 -38 0 1 0 0 0 1 forward_v I I I I #
edge $-1 -1 $-1 $667 30 $648 39.00999999999999801 $566 $713 forward @7 unknown #
coedge $-1 -1 $-1 $540 $678 $666 $714 forward $647 $-1 #
loop $-1 -1 $-1 $-1 $678 $715 #
vertex $-1 -1 $-1 $645 $716 #
straight-curve $-1 -1 $-1 63.00000000000000711 14.00000000000000178 -30.01000000000000512 0 0.7071067811870000996 0.7071067811870000996 F 0.01414213562372347924 F 11.31370849897751896 #
point $-1 -1 $-1 63.00000000000000711 22 -22.01000000000000156 #
coedge $-1 -1 $-1 $632 $631 $544 $652 forward $633 $-1 #
edge $-1 -1 $-1 $655 -11.00000000000000533 $653 -5 $544 $717 forward @7 unknown #
vertex $-1 -1 $-1 $546 $718 #
straight-curve $-1 -1 $-1 47 13.75 1.500000000000000222 0 1 0 F 10.75000000000000178 F 15.75000000000000178 #
vertex $-1 -1 $-1 $652 $719 #
straight-curve $-1 -1 $-1 53.00000000000000711 13.75 1.500000000000000222 0 1 0 F 10.75000000000000178 F 15.75000000000000178 #
point $-1 -1 $-1 53.00000000000000711 24.5 1.500000000000000222 #
point $-1 -1 $-1 47 24.5 1.500000000000000222 #
DXID-attrib $-1 -1 $-1 $-1 $552 @10 ASM ENTITY @2 34 #
loop $-1 -1 $-1 $431 $720 $552 #
cone-surface $-1 -1 $-1 57 8 -3.500000000000000444 0 0 1 1.750000000000000222 0 0 1 I I 0 1 1.750000000000000222 forward I I I I #
coedge $-1 -1 $-1 $662 $662 $721 $722 reversed $555 $-1 #
point $-1 -1 $-1 37 5 -32 #
edge $-1 -1 $-1 $561 3.089018670670000688 $693 10.08901867067000246 $560 $723 forward @7 unknown #
point $-1 -1 $-1 39 -16 -30 #
coedge $-1 -1 $-1 $674 $566 $646 $714 reversed $449 $-1 #
vertex $-1 -1 $-1 $687 $724 #
straight-curve $-1 -1 $-1 36.5 5 -30 -1 0 0 F -26.50000000000000355 F -0.4999999999999982236 #
edge $-1 -1 $-1 $581 -24.91098132932599896 $572 -16.92098132932600052 $568 $725 forward @7 unknown #
straight-curve $-1 -1 $-1 39 14.00000000000000178 -30.01000000000000512 0 0.7071067811870000996 0.7071067811870000996 F 0.01414213562372347924 F 11.31370849897751896 #
point $-1 -1 $-1 39 14.00999999999999979 -30 #
coedge $-1 -1 $-1 $726 $727 $576 $673 reversed $728 $-1 #
edge $-1 -1 $-1 $675 -1.405981329329999419 $679 6.584018670669999906 $576 $729 forward @7 unknown #
coedge $-1 -1 $-1 $577 $666 $726 $730 reversed $449 $-1 #
vertex $-1 -1 $-1 $730 $731 #
straight-curve $-1 -1 $-1 37 22 -30 1 0 0 F 2.000000000000001776 F 24.00000000000000355 #
point $-1 -1 $-1 39 22 -30 #
coedge $-1 -1 $-1 $646 $584 $727 $732 reversed $647 $-1 #
vertex $-1 -1 $-1 $673 $733 #
straight-curve $-1 -1 $-1 49 22 -22.01000000000000156 1 0 0 F 12.00000000000000178 F 14.00000000000000355 #
loop $-1 -1 $-1 $734 $586 $735 #
vertex $-1 -1 $-1 $587 $736 #
ellipse-curve $-1 -1 $-1 57 8 -2.5 0 0 1 3.200000000000000622 0 0 1 I I #
loop $-1 -1 $-1 $-1 $737 $685 #
face $738 -1 $-1 $735 $588 $4 $-1 $739 reversed single #
point $-1 -1 $-1 46.20000000000000284 8 -2.5 #
edge $-1 -1 $-1 $593 -14.75 $667 -12.74999999999999822 $591 $740 forward @7 unknown #
straight-curve $-1 -1 $-1 63.00000000000000711 -3.000000000000000444 -32 0 -1 0 F -8 F 5.999999999999999112 #
point $-1 -1 $-1 63.00000000000000711 5 -32 #
edge $-1 -1 $-1 $695 -0.4109813293299957593 $610 0.5790186706700017893 $595 $741 forward @7 unknown #
straight-curve $-1 -1 $-1 48.50000000000000711 -9 -29.01000000000000156 1 0 0 F 12.5 F 14.50000000000000178 #
edge $-1 -1 $-1 $695 -24.5 $693 -2.5 $601 $742 forward @7 unknown #
vertex $-1 -1 $-1 $602 $743 #
straight-curve $-1 -1 $-1 39 -9 -29.58901867067000424 0 0 1 F -0.4109813293299957593 F 0.5790186706700017893 #
vertex $-1 -1 $-1 $692 $744 #
straight-curve $-1 -1 $-1 61.00000000000000711 -19.08901867067000069 -30 0 1 0 F 3.089018670670000688 F 10.08901867067000246 #
point $-1 -1 $-1 61.00000000000000711 -9 -29.01000000000000156 #
DXID-attrib $-1 -1 $-1 $-1 $613 @10 ASM ENTITY @2 28 #
face $745 -1 $-1 $715 $728 $4 $-1 $746 forward single #
plane-surface $-1 -1 $-1 39 19.17803734134799853 -27.17803734134000138 -1 -0 -0 0 0 -1 forward_v I I I I #
straight-curve $-1 -1 $-1 47 5 -38 1 0 0 F 0 F 6.000000000000005329 #
DXID-attrib $-1 -1 $-1 $-1 $629 @10 ASM ENTITY @2 41 #
face $747 -1 $-1 $-1 $748 $4 $-1 $749 reversed single #
loop $-1 -1 $-1 $750 $751 $629 #
plane-surface $-1 -1 $-1 43 8 -1.500000000000000222 0 0 1 1 0 0 forward_v I I I I #
face $752 -1 $-1 $412 $633 $4 $-1 $753 reversed single #
straight-curve $-1 -1 $-1 53.00000000000000711 29.5 -38 0 0 1 F 4.500000000000001776 F 39.5 #
DXID-attrib $-1 -1 $-1 $-1 $636 @10 ASM ENTITY @2 36 #
plane-surface $-1 -1 $-1 53.00000000000000711 24.5 -38 1 0 0 0 0 1 forward_v I I I I #
straight-curve $-1 -1 $-1 47 29.5 -38 0 0 1 F 4.500000000000001776 F 39.5 #
DXID-attrib $-1 -1 $-1 $-1 $639 @10 ASM ENTITY @2 37 #
plane-surface $-1 -1 $-1 47 24.5 -38 1 0 0 0 0 1 forward_v I I I I #
straight-curve $-1 -1 $-1 63.00000000000000711 -25 -30 0 1 0 F 30 F 39.00999999999999801 #
edge $-1 -1 $-1 $754 12.00000000000000178 $648 14.00000000000000355 $666 $755 forward @7 unknown #
face $756 -1 $-1 $685 $647 $4 $-1 $757 forward single #
point $-1 -1 $-1 63.00000000000000711 14.00999999999999979 -30 #
straight-curve $-1 -1 $-1 42 29.5 1.500000000000000222 -1 0 0 F -11.00000000000000533 F -5 #
point $-1 -1 $-1 47 29.5 1.500000000000000222 #
point $-1 -1 $-1 53.00000000000000711 29.5 1.500000000000000222 #
coedge $-1 -1 $-1 $720 $720 $758 $759 reversed $660 $-1 #
coedge $-1 -1 $-1 $721 $721 $662 $722 forward $750 $-1 #
edge $-1 -1 $-1 $760 0 $760 6.283185307179586232 $662 $761 forward @7 unknown #
straight-curve $-1 -1 $-1 39 -19.08901867067000069 -30 0 1 0 F 3.089018670670000688 F 10.08901867067000246 #
point $-1 -1 $-1 63.00000000000000711 5 -30 #
straight-curve $-1 -1 $-1 39 -2.910981329325999845 -30 0 -1 0 F -24.91098132932599896 F -16.92098132932600052 #
coedge $-1 -1 $-1 $727 $672 $674 $730 forward $728 $-1 #
coedge $-1 -1 $-1 $672 $726 $678 $732 forward $728 $-1 #
loop $-1 -1 $-1 $-1 $726 $699 #
straight-curve $-1 -1 $-1 61.00000000000000711 22 -28.59401867066999969 0 0 1 F -1.405981329329999419 F 6.584018670669999906 #
edge $-1 -1 $-1 $675 -24.91098132932599896 $754 -16.92098132932600052 $674 $762 forward @7 unknown #
point $-1 -1 $-1 61.00000000000000711 22 -30 #
edge $-1 -1 $-1 $754 0.01414213562372347924 $679 11.31370849897751896 $727 $763 forward @7 unknown #
point $-1 -1 $-1 61.00000000000000711 22 -22.01000000000000156 #
loop $-1 -1 $-1 $-1 $764 $735 #
face $765 -1 $-1 $434 $681 $4 $-1 $766 reversed single #
point $-1 -1 $-1 60.20000000000000284 8 -2.5 #
coedge $-1 -1 $-1 $737 $737 $751 $767 forward $684 $-1 #
DXID-attrib $-1 -1 $-1 $-1 $685 @10 ASM ENTITY @2 31 #
cone-surface $-1 -1 $-1 43 8 -3.500000000000000444 0 0 1 3.200000000000000622 0 0 1 I I 0 1 3.200000000000000622 forward I I I I #
straight-curve $-1 -1 $-1 63.00000000000000711 5 -17.25 0 0 1 F -14.75 F -12.74999999999999822 #
straight-curve $-1 -1 $-1 61.00000000000000711 -9 -29.58901867067000424 0 0 1 F -0.4109813293299957593 F 0.5790186706700017893 #
straight-curve $-1 -1 $-1 36.5 -9 -30 -1 0 0 F -24.5 F -2.5 #
point $-1 -1 $-1 39 -9 -30 #
point $-1 -1 $-1 61.00000000000000711 -9 -30 #
DXID-attrib $-1 -1 $-1 $-1 $699 @10 ASM ENTITY @2 29 #
plane-surface $-1 -1 $-1 61.00000000000000711 19.17803734134799853 -27.17803734134000138 -1 -0 -0 0 0 -1 forward_v I I I I #
DXID-attrib $-1 -1 $-1 $-1 $703 @10 ASM ENTITY @2 42 #
loop $-1 -1 $-1 $768 $769 $703 #
plane-surface $-1 -1 $-1 57 8 -1.500000000000000222 0 0 1 1 0 0 forward_v I I I I #
loop $-1 -1 $-1 $-1 $721 $629 #
coedge $-1 -1 $-1 $751 $751 $737 $767 reversed $704 $-1 #
DXID-attrib $-1 -1 $-1 $-1 $706 @10 ASM ENTITY @2 38 #
plane-surface $-1 -1 $-1 47 29.5 -38 0 1 0 0 0 1 forward_v I I I I #
vertex $-1 -1 $-1 $714 $770 #
straight-curve $-1 -1 $-1 49 14.00999999999999979 -30 1 0 0 F 12.00000000000000178 F 14.00000000000000355 #
DXID-attrib $-1 -1 $-1 $-1 $715 @10 ASM ENTITY @2 30 #
plane-surface $-1 -1 $-1 61.00000000000000711 14.00000000000000178 -30.01000000000000512 0 -0.7071067811865475727 0.7071067811865475727 0 0.7071067811865476838 0.7071067811865476838 forward_v I I I I #
coedge $-1 -1 $-1 $758 $758 $720 $759 forward $768 $-1 #
edge $-1 -1 $-1 $771 0 $771 6.283185307179586232 $720 $772 forward @7 unknown #
vertex $-1 -1 $-1 $722 $773 #
ellipse-curve $-1 -1 $-1 43 8 -1.500000000000000222 0 0 1 1.750000000000000222 0 0 1 I I #
straight-curve $-1 -1 $-1 61.00000000000000711 -2.910981329325999845 -30 0 -1 0 F -24.91098132932599896 F -16.92098132932600052 #
straight-curve $-1 -1 $-1 61.00000000000000711 14.00000000000000178 -30.01000000000000512 0 0.7071067811870000996 0.7071067811870000996 F 0.01414213562372347924 F 11.31370849897751896 #
coedge $-1 -1 $-1 $764 $764 $769 $774 forward $734 $-1 #
DXID-attrib $-1 -1 $-1 $-1 $735 @10 ASM ENTITY @2 32 #
cone-surface $-1 -1 $-1 57 8 -3.500000000000000444 0 0 1 3.200000000000000622 0 0 1 I I 0 1 3.200000000000000622 forward I I I I #
edge $-1 -1 $-1 $775 0 $775 6.283185307179586232 $737 $776 forward @7 unknown #
loop $-1 -1 $-1 $-1 $758 $703 #
coedge $-1 -1 $-1 $769 $769 $764 $774 reversed $748 $-1 #
point $-1 -1 $-1 61.00000000000000711 14.00999999999999979 -30 #
vertex $-1 -1 $-1 $759 $777 #
ellipse-curve $-1 -1 $-1 57 8 -1.500000000000000222 0 0 1 1.750000000000000222 0 0 1 I I #
point $-1 -1 $-1 44.75000000000000711 8 -1.500000000000000222 #
edge $-1 -1 $-1 $778 0 $778 6.283185307179586232 $764 $779 forward @7 unknown #
vertex $-1 -1 $-1 $767 $780 #
ellipse-curve $-1 -1 $-1 43 8 -1.500000000000000222 0 0 1 3.200000000000000622 0 0 1 I I #
point $-1 -1 $-1 58.75 8 -1.500000000000000222 #
vertex $-1 -1 $-1 $774 $781 #
ellipse-curve $-1 -1 $-1 57 8 -1.500000000000000222 0 0 1 3.200000000000000622 0 0 1 I I #
point $-1 -1 $-1 46.20000000000000284 8 -1.500000000000000222 #
point $-1 -1 $-1 60.20000000000000284 8 -1.500000000000000222 #
End-of-ACIS-data 