700 0 1 0           
30 Autodesk Translation Framework 21 ASM 232.4.0.65535 OSX 24 Fri Sep  4 15:40:02 2026 
1 9.999999999999999547e-07 1.000000000000000036e-10 
body $1 -1 $-1 $2 $-1 $-1 #
rgb_color-st-attrib $-1 -1 $3 $-1 $0 0.627450980392156854 0.627450980392156854 0.627450980392156854 #
lump $-1 -1 $-1 $-1 $4 $0 #
ATTRIB_CUSTOM-attrib $-1 -1 $-1 $1 $0 @20 Timestamp_attrib_def 1 1788532802849058 #
shell $-1 -1 $-1 $-1 $-1 $5 $-1 $2 #
face $6 -1 $-1 $7 $8 $4 $-1 $9 reversed single #
DXID-attrib $-1 -1 $-1 $-1 $5 @10 ASM ENTITY @1 0 #
face $10 -1 $-1 $11 $12 $4 $-1 $13 forward single #
loop $-1 -1 $-1 $-1 $14 $5 #
plane-surface $-1 -1 $-1 5 35 3.000000000000000444 1 0 0 0 0 1 forward_v I I I I #
DXID-attrib $-1 -1 $-1 $-1 $7 @10 ASM ENTITY @1 1 #
face $15 -1 $-1 $16 $17 $4 $-1 $18 reversed single #
loop $-1 -1 $-1 $19 $20 $7 #
plane-surface $-1 -1 $-1 5 45 3.000000000000000444 0 1 0 0 0 1 forward_v I I I I #
coedge $-1 -1 $-1 $21 $22 $23 $24 forward $8 $-1 #
DXID-attrib $-1 -1 $-1 $-1 $11 @10 ASM ENTITY @1 2 #
face $25 -1 $-1 $26 $27 $4 $-1 $28 reversed single #
loop $-1 -1 $-1 $29 $30 $11 #
cone-surface $-1 -1 $-1 85 34 117.0000000000000142 0 1 0 0 0 2.25 1 I I 0 1 2.25 forward I I I I #
loop $-1 -1 $-1 $31 $32 $7 #
coedge $-1 -1 $-1 $33 $34 $35 $36 reversed $12 $-1 #
coedge $-1 -1 $-1 $37 $14 $38 $39 forward $8 $-1 #
coedge $-1 -1 $-1 $14 $37 $40 $41 reversed $8 $-1 #
coedge $-1 -1 $-1 $42 $43 $14 $24 reversed $44 $-1 #
edge $-1 -1 $-1 $45 5 $46 119 $14 $47 forward @7 unknown #
DXID-attrib $-1 -1 $-1 $-1 $16 @10 ASM ENTITY @1 3 #
face $48 -1 $-1 $49 $50 $4 $-1 $51 reversed single #
loop $-1 -1 $-1 $52 $53 $16 #
cone-surface $-1 -1 $-1 85 35 117.0000000000000142 -0 -1 -0 0 0 4.5 1 I I 0.707106781186230493 0.7071067811868645414 4.5 forward I I I I #
loop $-1 -1 $-1 $-1 $54 $11 #
coedge $-1 -1 $-1 $30 $30 $55 $56 forward $17 $-1 #
loop $-1 -1 $-1 $57 $58 $7 #
coedge $-1 -1 $-1 $32 $32 $59 $60 reversed $19 $-1 #
coedge $-1 -1 $-1 $61 $20 $62 $63 reversed $12 $-1 #
coedge $-1 -1 $-1 $20 $64 $65 $66 forward $12 $-1 #
coedge $-1 -1 $-1 $67 $68 $20 $36 forward $69 $-1 #
edge $-1 -1 $-1 $70 5 $71 85 $20 $72 forward @7 unknown #
coedge $-1 -1 $-1 $22 $21 $61 $73 reversed $8 $-1 #
coedge $-1 -1 $-1 $74 $75 $21 $39 reversed $76 $-1 #
edge $-1 -1 $-1 $46 0 $77 10 $21 $78 forward @14 tangent_not_g2 #
coedge $-1 -1 $-1 $62 $79 $22 $41 forward $80 $-1 #
edge $-1 -1 $-1 $45 0 $81 10 $22 $82 forward @14 tangent_not_g2 #
coedge $-1 -1 $-1 $83 $23 $79 $84 forward $44 $-1 #
coedge $-1 -1 $-1 $23 $85 $74 $86 reversed $44 $-1 #
loop $-1 -1 $-1 $87 $83 $88 #
vertex $-1 -1 $-1 $24 $89 #
vertex $-1 -1 $-1 $24 $90 #
straight-curve $-1 -1 $-1 5 35 3.000000000000000444 0 0 1 F 5 F 119 #
DXID-attrib $-1 -1 $-1 $-1 $26 @10 ASM ENTITY @1 4 #
face $91 -1 $-1 $92 $93 $4 $-1 $94 reversed single #
loop $-1 -1 $-1 $95 $96 $26 #
plane-surface $-1 -1 $-1 85 35.00999999999999801 117.0000000000000142 0 1 0 0 0 1 forward_v I I I I #
loop $-1 -1 $-1 $-1 $97 $16 #
coedge $-1 -1 $-1 $53 $53 $98 $99 reversed $27 $-1 #
coedge $-1 -1 $-1 $54 $54 $97 $100 reversed $29 $-1 #
coedge $-1 -1 $-1 $55 $55 $30 $56 reversed $101 $-1 #
edge $-1 -1 $-1 $102 0 $102 6.283185307179586232 $55 $103 forward @7 unknown #
loop $-1 -1 $-1 $104 $105 $7 #
coedge $-1 -1 $-1 $58 $58 $106 $107 reversed $31 $-1 #
coedge $-1 -1 $-1 $59 $59 $32 $60 forward $108 $-1 #
edge $-1 -1 $-1 $109 0 $109 6.283185307179586232 $32 $110 forward @7 unknown #
coedge $-1 -1 $-1 $111 $33 $37 $73 forward $12 $-1 #
coedge $-1 -1 $-1 $112 $40 $33 $63 forward $80 $-1 #
edge $-1 -1 $-1 $81 1.570796326794896558 $70 3.141592653589793116 $33 $113 forward @7 unknown #
coedge $-1 -1 $-1 $34 $114 $115 $116 reversed $12 $-1 #
coedge $-1 -1 $-1 $117 $118 $34 $66 reversed $119 $-1 #
edge $-1 -1 $-1 $120 1.570796326794896558 $71 3.141592653589793116 $34 $121 forward @7 unknown #
coedge $-1 -1 $-1 $122 $35 $118 $123 reversed $69 $-1 #
coedge $-1 -1 $-1 $35 $122 $112 $124 forward $69 $-1 #
loop $-1 -1 $-1 $-1 $35 $125 #
vertex $-1 -1 $-1 $36 $126 #
vertex $-1 -1 $-1 $36 $127 #
straight-curve $-1 -1 $-1 5 45 3.000000000000000444 1 0 0 F 5 F 85 #
edge $-1 -1 $-1 $81 5 $77 119 $37 $128 forward @7 unknown #
coedge $-1 -1 $-1 $129 $38 $43 $86 forward $76 $-1 #
coedge $-1 -1 $-1 $38 $129 $111 $130 reversed $76 $-1 #
loop $-1 -1 $-1 $-1 $74 $131 #
vertex $-1 -1 $-1 $39 $132 #
straight-curve $-1 -1 $-1 5 35 122.0000000000000142 0 1 0 F 0 F 10 #
coedge $-1 -1 $-1 $40 $112 $42 $84 reversed $80 $-1 #
loop $-1 -1 $-1 $-1 $79 $133 #
vertex $-1 -1 $-1 $73 $134 #
straight-curve $-1 -1 $-1 5 35 8 0 1 0 F 0 F 10 #
coedge $-1 -1 $-1 $135 $42 $122 $136 forward $44 $-1 #
edge $-1 -1 $-1 $45 1.570796326794896558 $137 3.141592653589793116 $79 $138 forward @7 unknown #
coedge $-1 -1 $-1 $43 $139 $140 $141 reversed $44 $-1 #
edge $-1 -1 $-1 $46 -1.570796326794896558 $142 0 $74 $143 forward @7 unknown #
loop $-1 -1 $-1 $144 $145 $88 #
face $146 -1 $-1 $147 $44 $4 $-1 $148 reversed single #
point $-1 -1 $-1 5 35 8 #
point $-1 -1 $-1 5 35 122.0000000000000142 #
DXID-attrib $-1 -1 $-1 $-1 $49 @10 ASM ENTITY @1 5 #
face $149 -1 $-1 $150 $151 $4 $-1 $152 reversed single #
loop $-1 -1 $-1 $153 $154 $49 #
cone-surface $-1 -1 $-1 85 34 117.0000000000000142 0 1 0 0 0 4.5 1 I I 0 1 4.5 forward I I I I #
loop $-1 -1 $-1 $-1 $98 $26 #
coedge $-1 -1 $-1 $96 $96 $155 $156 reversed $50 $-1 #
coedge $-1 -1 $-1 $97 $97 $54 $100 forward $52 $-1 #
coedge $-1 -1 $-1 $98 $98 $53 $99 forward $95 $-1 #
edge $-1 -1 $-1 $157 0 $157 6.283185307179586232 $53 $158 forward @7 unknown #
edge $-1 -1 $-1 $159 0 $159 6.283185307179586232 $54 $160 forward @7 unknown #
loop $-1 -1 $-1 $-1 $55 $7 #
vertex $-1 -1 $-1 $56 $161 #
ellipse-curve $-1 -1 $-1 85 45 117.0000000000000142 0 1 0 0 0 2.25 1 I I #
loop $-1 -1 $-1 $101 $162 $7 #
coedge $-1 -1 $-1 $163 $164 $165 $166 reversed $57 $-1 #
coedge $-1 -1 $-1 $106 $106 $58 $107 forward $167 $-1 #
edge $-1 -1 $-1 $168 0 $168 6.283185307179586232 $58 $169 forward @7 unknown #
loop $-1 -1 $-1 $170 $59 $171 #
vertex $-1 -1 $-1 $60 $172 #
ellipse-curve $-1 -1 $-1 15 45 13 0 1 0 0 0 2.25 1 I I #
coedge $-1 -1 $-1 $173 $61 $75 $130 forward $12 $-1 #
coedge $-1 -1 $-1 $79 $62 $68 $124 reversed $80 $-1 #
ellipse-curve $-1 -1 $-1 10 45 8 0 -1 0 0 0 5 1 F 1.570796326794896558 F 3.141592653589793116 #
coedge $-1 -1 $-1 $64 $173 $174 $175 reversed $12 $-1 #
coedge $-1 -1 $-1 $176 $177 $64 $116 forward $178 $-1 #
edge $-1 -1 $-1 $120 5 $179 119 $64 $180 forward @7 unknown #
coedge $-1 -1 $-1 $181 $65 $177 $182 reversed $119 $-1 #
coedge $-1 -1 $-1 $65 $181 $67 $123 forward $119 $-1 #
loop $-1 -1 $-1 $-1 $181 $183 #
vertex $-1 -1 $-1 $116 $184 #
ellipse-curve $-1 -1 $-1 90 45 8 0 1 0 0 0 5 1 F 1.570796326794896558 F 3.141592653589793116 #
coedge $-1 -1 $-1 $68 $67 $83 $136 reversed $69 $-1 #
edge $-1 -1 $-1 $185 0 $71 10 $118 $186 forward @14 tangent_not_g2 #
edge $-1 -1 $-1 $137 0 $70 10 $68 $187 forward @14 tangent_not_g2 #
face $188 -1 $-1 $131 $69 $4 $-1 $189 reversed single #
point $-1 -1 $-1 10 45 3.000000000000000444 #
point $-1 -1 $-1 90 45 3.000000000000000444 #
straight-curve $-1 -1 $-1 5 45 3.000000000000000444 0 0 1 F 5 F 119 #
coedge $-1 -1 $-1 $75 $74 $190 $191 forward $76 $-1 #
edge $-1 -1 $-1 $77 -1.570796326794896558 $192 0 $111 $193 forward @7 unknown #
face $194 -1 $-1 $133 $76 $4 $-1 $195 forward single #
point $-1 -1 $-1 5 45 122.0000000000000142 #
face $196 -1 $-1 $88 $80 $4 $-1 $197 forward single #
point $-1 -1 $-1 5 45 8 #
coedge $-1 -1 $-1 $198 $83 $181 $199 reversed $44 $-1 #
edge $-1 -1 $-1 $137 5 $185 85 $122 $200 forward @7 unknown #
vertex $-1 -1 $-1 $136 $201 #
ellipse-curve $-1 -1 $-1 10 35 8 0 -1 0 0 0 5 1 F 1.570796326794896558 F 3.141592653589793116 #
coedge $-1 -1 $-1 $85 $198 $202 $203 forward $44 $-1 #
coedge $-1 -1 $-1 $204 $190 $85 $141 forward $205 $-1 #
edge $-1 -1 $-1 $142 5 $206 85 $140 $207 forward @7 unknown #
vertex $-1 -1 $-1 $191 $208 #
ellipse-curve $-1 -1 $-1 10 35 122.0000000000000142 0 1 0 0 0 5 1 F -1.570796326794896558 F 0 #
loop $-1 -1 $-1 $209 $210 $88 #
coedge $-1 -1 $-1 $145 $145 $211 $212 forward $87 $-1 #
DXID-attrib $-1 -1 $-1 $-1 $88 @10 ASM ENTITY @2 43 #
face $213 -1 $-1 $214 $215 $4 $-1 $216 forward single #
plane-surface $-1 -1 $-1 5 35 3.000000000000000444 0 1 0 0 0 1 forward_v I I I I #
DXID-attrib $-1 -1 $-1 $-1 $92 @10 ASM ENTITY @1 6 #
face $217 -1 $-1 $218 $219 $4 $-1 $220 reversed single #
loop $-1 -1 $-1 $221 $222 $92 #
cone-surface $-1 -1 $-1 85 34 13 0 1 0 0 0 2.25 1 I I 0 1 2.25 forward I I I I #
loop $-1 -1 $-1 $-1 $155 $49 #
coedge $-1 -1 $-1 $154 $154 $223 $224 reversed $93 $-1 #
coedge $-1 -1 $-1 $155 $155 $96 $156 forward $153 $-1 #
edge $-1 -1 $-1 $225 0 $225 6.283185307179586232 $96 $226 forward @7 unknown #
vertex $-1 -1 $-1 $99 $227 #
ellipse-curve $-1 -1 $-1 85 35.00999999999999801 117.0000000000000142 0 1 0 0 0 4.490000000000000213 1 I I #
vertex $-1 -1 $-1 $100 $228 #
ellipse-curve $-1 -1 $-1 85 37.25 117.0000000000000142 0 1 0 0 0 2.25 1 I I #
point $-1 -1 $-1 85 45 119.25 #
coedge $-1 -1 $-1 $162 $162 $222 $229 reversed $104 $-1 #
coedge $-1 -1 $-1 $230 $105 $231 $232 forward $57 $-1 #
coedge $-1 -1 $-1 $105 $230 $233 $234 reversed $57 $-1 #
coedge $-1 -1 $-1 $235 $236 $105 $166 forward $237 $-1 #
edge $-1 -1 $-1 $238 20.10000000000000142 $239 29.69999999999999929 $105 $240 forward @7 unknown #
loop $-1 -1 $-1 $241 $106 $242 #
vertex $-1 -1 $-1 $107 $243 #
ellipse-curve $-1 -1 $-1 15 45 117.0000000000000142 0 1 0 0 0 2.25 1 I I #
loop $-1 -1 $-1 $-1 $244 $171 #
face $245 -1 $-1 $246 $108 $4 $-1 $247 reversed single #
point $-1 -1 $-1 15 45 15.25000000000000178 #
coedge $-1 -1 $-1 $114 $111 $248 $249 forward $12 $-1 #
coedge $-1 -1 $-1 $250 $251 $114 $175 forward $252 $-1 #
edge $-1 -1 $-1 $179 -1.570796326794896558 $253 0 $114 $254 forward @7 unknown #
coedge $-1 -1 $-1 $255 $115 $251 $256 reversed $178 $-1 #
coedge $-1 -1 $-1 $115 $255 $117 $182 forward $178 $-1 #
loop $-1 -1 $-1 $-1 $255 $257 #
vertex $-1 -1 $-1 $175 $258 #
straight-curve $-1 -1 $-1 95 45 3.000000000000000444 0 0 1 F 5 F 119 #
coedge $-1 -1 $-1 $118 $117 $135 $199 forward $119 $-1 #
edge $-1 -1 $-1 $259 0 $120 10 $177 $260 forward @14 tangent_not_g2 #
face $261 -1 $-1 $125 $119 $4 $-1 $262 forward single #
point $-1 -1 $-1 95 45 8 #
vertex $-1 -1 $-1 $199 $263 #
straight-curve $-1 -1 $-1 90 35 3.000000000000000444 0 1 0 F 0 F 10 #
straight-curve $-1 -1 $-1 10 35 3.000000000000000444 0 1 0 F 0 F 10 #
DXID-attrib $-1 -1 $-1 $-1 $125 @10 ASM ENTITY @2 40 #
plane-surface $-1 -1 $-1 5 35 3.000000000000000444 0 0 1 1 0 0 forward_v I I I I #
coedge $-1 -1 $-1 $140 $248 $129 $191 reversed $205 $-1 #
edge $-1 -1 $-1 $142 0 $192 10 $190 $264 forward @14 tangent_not_g2 #
vertex $-1 -1 $-1 $130 $265 #
ellipse-curve $-1 -1 $-1 10 45 122.0000000000000142 0 1 0 0 0 5 1 F -1.570796326794896558 F 0 #
DXID-attrib $-1 -1 $-1 $-1 $131 @10 ASM ENTITY @2 41 #
cone-surface $-1 -1 $-1 10 35 122.0000000000000142 0 1 0 -5 0 0 1 I I 0 1 5 forward I I I I #
DXID-attrib $-1 -1 $-1 $-1 $133 @10 ASM ENTITY @2 42 #
cone-surface $-1 -1 $-1 10 35 8 0 1 0 -5 0 0 1 I I 0 1 5 forward I I I I #
coedge $-1 -1 $-1 $139 $135 $255 $266 forward $44 $-1 #
edge $-1 -1 $-1 $259 1.570796326794896558 $185 3.141592653589793116 $181 $267 forward @7 unknown #
straight-curve $-1 -1 $-1 5 35 3.000000000000000444 1 0 0 F 5 F 85 #
point $-1 -1 $-1 10 35 3.000000000000000444 #
coedge $-1 -1 $-1 $251 $250 $139 $203 reversed $252 $-1 #
edge $-1 -1 $-1 $268 -1.570796326794896558 $206 0 $202 $269 forward @7 unknown #
coedge $-1 -1 $-1 $248 $140 $250 $270 forward $205 $-1 #
loop $-1 -1 $-1 $-1 $248 $271 #
vertex $-1 -1 $-1 $141 $272 #
straight-curve $-1 -1 $-1 5 35 127.0000000000000142 1 0 0 F 5 F 85 #
point $-1 -1 $-1 10 35 127.0000000000000142 #
loop $-1 -1 $-1 $273 $274 $88 #
coedge $-1 -1 $-1 $210 $210 $275 $276 forward $144 $-1 #
coedge $-1 -1 $-1 $211 $211 $145 $212 reversed $277 $-1 #
edge $-1 -1 $-1 $278 0 $278 6.283185307179586232 $211 $279 forward @7 unknown #
DXID-attrib $-1 -1 $-1 $-1 $147 @10 ASM ENTITY @2 44 #
face $280 -1 $-1 $281 $282 $4 $-1 $283 forward single #
loop $-1 -1 $-1 $284 $285 $147 #
cone-surface $-1 -1 $-1 70 31.49000000000000199 105 0 1 0 0 0 2.75 1 I I 0 1 2.75 forward I I I I #
DXID-attrib $-1 -1 $-1 $-1 $150 @10 ASM ENTITY @1 7 #
face $286 -1 $-1 $287 $288 $4 $-1 $289 reversed single #
loop $-1 -1 $-1 $290 $291 $150 #
cone-surface $-1 -1 $-1 85 35 13 -0 -1 -0 0 0 4.5 1 I I 0.707106781186230493 0.7071067811868645414 4.5 forward I I I I #
loop $-1 -1 $-1 $-1 $292 $92 #
coedge $-1 -1 $-1 $222 $222 $162 $229 forward $151 $-1 #
coedge $-1 -1 $-1 $223 $223 $154 $224 forward $293 $-1 #
edge $-1 -1 $-1 $294 0 $294 6.283185307179586232 $154 $295 forward @7 unknown #
vertex $-1 -1 $-1 $156 $296 #
ellipse-curve $-1 -1 $-1 85 35.00999999999999801 117.0000000000000142 0 1 0 0 0 4.5 1 I I #
point $-1 -1 $-1 85 35.00999999999999801 121.4900000000000091 #
point $-1 -1 $-1 85 37.25 119.25 #
edge $-1 -1 $-1 $297 0 $297 6.283185307179586232 $162 $298 forward @7 unknown #
coedge $-1 -1 $-1 $164 $163 $299 $300 forward $57 $-1 #
coedge $-1 -1 $-1 $301 $302 $163 $232 reversed $303 $-1 #
edge $-1 -1 $-1 $238 -45.29999999999999005 $304 -20.5 $163 $305 forward @7 unknown #
coedge $-1 -1 $-1 $306 $307 $164 $234 forward $308 $-1 #
edge $-1 -1 $-1 $239 -45.29999999999999005 $309 -20.5 $164 $310 forward @7 unknown #
coedge $-1 -1 $-1 $311 $165 $307 $312 forward $237 $-1 #
coedge $-1 -1 $-1 $165 $311 $301 $313 forward $237 $-1 #
loop $-1 -1 $-1 $-1 $236 $314 #
vertex $-1 -1 $-1 $166 $315 #
vertex $-1 -1 $-1 $166 $316 #
straight-curve $-1 -1 $-1 25.10000000000000142 45 68.79999999999999716 1 0 0 F 20.10000000000000142 F 29.69999999999999929 #
loop $-1 -1 $-1 $-1 $317 $242 #
face $318 -1 $-1 $319 $167 $4 $-1 $320 reversed single #
point $-1 -1 $-1 15 45 119.25 #
coedge $-1 -1 $-1 $244 $244 $321 $322 reversed $170 $-1 #
DXID-attrib $-1 -1 $-1 $-1 $171 @10 ASM ENTITY @2 32 #
face $323 -1 $-1 $324 $325 $4 $-1 $326 reversed single #
cone-surface $-1 -1 $-1 15 34 13 0 1 0 0 0 2.25 1 I I 0 1 2.25 forward I I I I #
coedge $-1 -1 $-1 $190 $204 $173 $249 reversed $205 $-1 #
edge $-1 -1 $-1 $192 5 $253 85 $173 $327 forward @7 unknown #
coedge $-1 -1 $-1 $202 $174 $204 $270 reversed $252 $-1 #
coedge $-1 -1 $-1 $174 $202 $176 $256 forward $252 $-1 #
loop $-1 -1 $-1 $-1 $202 $328 #
vertex $-1 -1 $-1 $249 $329 #
ellipse-curve $-1 -1 $-1 90 45 122.0000000000000142 0 -1 0 0 0 5 1 F -1.570796326794896558 F 0 #
coedge $-1 -1 $-1 $177 $176 $198 $266 reversed $178 $-1 #
edge $-1 -1 $-1 $268 0 $179 10 $251 $330 forward @14 tangent_not_g2 #
face $331 -1 $-1 $183 $178 $4 $-1 $332 forward single #
point $-1 -1 $-1 95 45 122.0000000000000142 #
vertex $-1 -1 $-1 $266 $333 #
straight-curve $-1 -1 $-1 95 35 8 0 1 0 F 0 F 10 #
DXID-attrib $-1 -1 $-1 $-1 $183 @10 ASM ENTITY @2 39 #
cone-surface $-1 -1 $-1 90 35 8 0 1 0 5 0 0 1 I I 0 1 5 forward I I I I #
point $-1 -1 $-1 90 35 3.000000000000000444 #
straight-curve $-1 -1 $-1 10 35 127.0000000000000142 0 1 0 F 0 F 10 #
point $-1 -1 $-1 10 45 127.0000000000000142 #
edge $-1 -1 $-1 $259 5 $268 119 $255 $334 forward @7 unknown #
ellipse-curve $-1 -1 $-1 90 35 8 0 1 0 0 0 5 1 F 1.570796326794896558 F 3.141592653589793116 #
vertex $-1 -1 $-1 $203 $335 #
ellipse-curve $-1 -1 $-1 90 35 122.0000000000000142 0 -1 0 0 0 5 1 F -1.570796326794896558 F 0 #
edge $-1 -1 $-1 $206 0 $253 10 $204 $336 forward @14 tangent_not_g2 #
face $337 -1 $-1 $328 $205 $4 $-1 $338 forward single #
point $-1 -1 $-1 90 35 127.0000000000000142 #
loop $-1 -1 $-1 $339 $340 $88 #
coedge $-1 -1 $-1 $274 $274 $341 $342 forward $209 $-1 #
coedge $-1 -1 $-1 $275 $275 $210 $276 reversed $343 $-1 #
edge $-1 -1 $-1 $344 0 $344 6.283185307179586232 $210 $345 forward @7 unknown #
loop $-1 -1 $-1 $346 $211 $347 #
vertex $-1 -1 $-1 $212 $348 #
ellipse-curve $-1 -1 $-1 15 35 13 0 1 0 0 0 4.5 1 I I #
DXID-attrib $-1 -1 $-1 $-1 $214 @10 ASM ENTITY @2 45 #
face $349 -1 $-1 $350 $351 $4 $-1 $352 forward single #
loop $-1 -1 $-1 $353 $354 $214 #
cone-surface $-1 -1 $-1 70 29.25000000000000355 105 -0 -1 -0 0 0 5 1 I I 0.7055371825785723416 0.7086729033899140662 5 forward I I I I #
loop $-1 -1 $-1 $-1 $355 $147 #
coedge $-1 -1 $-1 $285 $285 $356 $357 reversed $215 $-1 #
DXID-attrib $-1 -1 $-1 $-1 $218 @10 ASM ENTITY @1 8 #
face $358 -1 $-1 $359 $360 $4 $-1 $361 reversed single #
loop $-1 -1 $-1 $362 $363 $218 #
plane-surface $-1 -1 $-1 85 35.00999999999999801 13 0 1 0 0 0 1 forward_v I I I I #
loop $-1 -1 $-1 $-1 $364 $150 #
coedge $-1 -1 $-1 $291 $291 $365 $366 reversed $219 $-1 #
coedge $-1 -1 $-1 $292 $292 $364 $367 reversed $221 $-1 #
loop $-1 -1 $-1 $-1 $223 $88 #
vertex $-1 -1 $-1 $224 $368 #
ellipse-curve $-1 -1 $-1 85 35 117.0000000000000142 0 1 0 0 0 4.5 1 I I #
point $-1 -1 $-1 85 35.00999999999999801 121.5 #
vertex $-1 -1 $-1 $229 $369 #
ellipse-curve $-1 -1 $-1 85 45 13 0 1 0 0 0 2.25 1 I I #
coedge $-1 -1 $-1 $370 $371 $230 $300 reversed $372 $-1 #
edge $-1 -1 $-1 $304 20.10000000000000142 $309 29.69999999999999929 $230 $373 forward @7 unknown #
coedge $-1 -1 $-1 $374 $231 $236 $313 reversed $303 $-1 #
coedge $-1 -1 $-1 $231 $374 $370 $375 reversed $303 $-1 #
loop $-1 -1 $-1 $-1 $301 $359 #
vertex $-1 -1 $-1 $232 $376 #
straight-curve $-1 -1 $-1 45.20000000000000284 45 23.5 0 0 -1 F -45.29999999999999005 F -20.5 #
coedge $-1 -1 $-1 $377 $233 $371 $378 reversed $308 $-1 #
coedge $-1 -1 $-1 $233 $377 $235 $312 reversed $308 $-1 #
loop $-1 -1 $-1 $-1 $377 $379 #
vertex $-1 -1 $-1 $300 $380 #
straight-curve $-1 -1 $-1 54.80000000000000426 45 23.5 0 0 -1 F -45.29999999999999005 F -20.5 #
coedge $-1 -1 $-1 $236 $235 $381 $382 reversed $237 $-1 #
edge $-1 -1 $-1 $239 0 $383 10 $307 $384 forward @7 unknown #
edge $-1 -1 $-1 $385 0 $238 10 $301 $386 forward @7 unknown #
face $387 -1 $-1 $242 $237 $4 $-1 $388 reversed single #
point $-1 -1 $-1 45.20000000000000284 45 68.79999999999999716 #
point $-1 -1 $-1 54.80000000000000426 45 68.79999999999999716 #
coedge $-1 -1 $-1 $317 $317 $389 $390 reversed $241 $-1 #
DXID-attrib $-1 -1 $-1 $-1 $242 @10 ASM ENTITY @2 28 #
face $391 -1 $-1 $392 $393 $4 $-1 $394 reversed single #
cone-surface $-1 -1 $-1 15 34 117.0000000000000142 0 1 0 0 0 2.25 1 I I 0 1 2.25 forward I I I I #
coedge $-1 -1 $-1 $321 $321 $244 $322 forward $395 $-1 #
edge $-1 -1 $-1 $396 0 $396 6.283185307179586232 $244 $397 forward @7 unknown #
DXID-attrib $-1 -1 $-1 $-1 $246 @10 ASM ENTITY @2 33 #
face $398 -1 $-1 $347 $399 $4 $-1 $400 reversed single #
loop $-1 -1 $-1 $395 $401 $246 #
cone-surface $-1 -1 $-1 15 35 13 -0 -1 -0 0 0 4.5 1 I I 0.707106781186230493 0.7071067811868645414 4.5 forward I I I I #
straight-curve $-1 -1 $-1 5 45 127.0000000000000142 1 0 0 F 5 F 85 #
face $402 -1 $-1 $257 $252 $4 $-1 $403 forward single #
point $-1 -1 $-1 90 45 127.0000000000000142 #
straight-curve $-1 -1 $-1 95 35 122.0000000000000142 0 1 0 F 0 F 10 #
DXID-attrib $-1 -1 $-1 $-1 $257 @10 ASM ENTITY @2 38 #
plane-surface $-1 -1 $-1 95 35 3.000000000000000444 1 0 0 0 0 1 forward_v I I I I #
point $-1 -1 $-1 95 35 8 #
straight-curve $-1 -1 $-1 95 35 3.000000000000000444 0 0 1 F 5 F 119 #
point $-1 -1 $-1 95 35 122.0000000000000142 #
straight-curve $-1 -1 $-1 90 35 127.0000000000000142 0 1 0 F 0 F 10 #
DXID-attrib $-1 -1 $-1 $-1 $271 @10 ASM ENTITY @2 36 #
plane-surface $-1 -1 $-1 5 35 127.0000000000000142 0 0 1 1 0 0 forward_v I I I I #
loop $-1 -1 $-1 $404 $381 $88 #
coedge $-1 -1 $-1 $340 $340 $405 $406 forward $273 $-1 #
coedge $-1 -1 $-1 $341 $341 $274 $342 reversed $407 $-1 #
edge $-1 -1 $-1 $408 0 $408 6.283185307179586232 $341 $409 forward @7 unknown #
loop $-1 -1 $-1 $410 $275 $411 #
vertex $-1 -1 $-1 $276 $412 #
ellipse-curve $-1 -1 $-1 30 35 55 0 1 0 0 0 2.75 1 I I #
loop $-1 -1 $-1 $-1 $413 $347 #
face $414 -1 $-1 $271 $277 $4 $-1 $415 reversed single #
point $-1 -1 $-1 15 35 17.5 #
DXID-attrib $-1 -1 $-1 $-1 $281 @10 ASM ENTITY @2 46 #
face $416 -1 $-1 $417 $418 $4 $-1 $419 forward single #
loop $-1 -1 $-1 $420 $421 $281 #
plane-surface $-1 -1 $-1 70 29.26000000000000156 105 0 1 0 0 0 1 forward_v I I I I #
loop $-1 -1 $-1 $-1 $422 $214 #
coedge $-1 -1 $-1 $354 $354 $355 $423 reversed $282 $-1 #
coedge $-1 -1 $-1 $355 $355 $354 $423 forward $284 $-1 #
coedge $-1 -1 $-1 $356 $356 $285 $357 forward $424 $-1 #
edge $-1 -1 $-1 $425 0 $425 6.283185307179586232 $356 $426 forward @7 unknown #
DXID-attrib $-1 -1 $-1 $-1 $287 @10 ASM ENTITY @1 9 #
face $427 -1 $-1 $428 $303 $4 $-1 $429 forward single #
loop $-1 -1 $-1 $430 $431 $287 #
cone-surface $-1 -1 $-1 85 34 13 0 1 0 0 0 4.5 1 I I 0 1 4.5 forward I I I I #
loop $-1 -1 $-1 $-1 $365 $218 #
coedge $-1 -1 $-1 $363 $363 $432 $433 reversed $288 $-1 #
coedge $-1 -1 $-1 $364 $364 $292 $367 forward $290 $-1 #
coedge $-1 -1 $-1 $365 $365 $291 $366 forward $362 $-1 #
edge $-1 -1 $-1 $434 0 $434 6.283185307179586232 $291 $435 forward @7 unknown #
edge $-1 -1 $-1 $436 0 $436 6.283185307179586232 $292 $437 forward @7 unknown #
point $-1 -1 $-1 85 35 121.5 #
point $-1 -1 $-1 85 45 15.25000000000000178 #
coedge $-1 -1 $-1 $438 $299 $302 $375 forward $372 $-1 #
coedge $-1 -1 $-1 $299 $439 $306 $378 forward $372 $-1 #
loop $-1 -1 $-1 $-1 $438 $428 #
straight-curve $-1 -1 $-1 25.10000000000000142 45 44 1 0 0 F 20.10000000000000142 F 29.69999999999999929 #
coedge $-1 -1 $-1 $302 $301 $440 $441 reversed $303 $-1 #
edge $-1 -1 $-1 $304 0 $442 10 $302 $443 forward @7 unknown #
point $-1 -1 $-1 45.20000000000000284 45 44 #
coedge $-1 -1 $-1 $307 $306 $444 $445 reversed $308 $-1 #
edge $-1 -1 $-1 $446 0 $309 10 $371 $447 forward @7 unknown #
face $448 -1 $-1 $314 $308 $4 $-1 $449 reversed single #
point $-1 -1 $-1 54.80000000000000426 45 44 #
coedge $-1 -1 $-1 $444 $440 $311 $382 forward $339 $-1 #
edge $-1 -1 $-1 $385 0 $383 9.599999999999999645 $311 $450 forward @7 unknown #
vertex $-1 -1 $-1 $445 $451 #
straight-curve $-1 -1 $-1 54.80000000000000426 45 68.79999999999999716 0 -1 0 F 0 F 10 #
vertex $-1 -1 $-1 $313 $452 #
straight-curve $-1 -1 $-1 45.20000000000000284 35 68.79999999999999716 0 1 0 F 0 F 10 #
DXID-attrib $-1 -1 $-1 $-1 $314 @10 ASM ENTITY @2 27 #
plane-surface $-1 -1 $-1 45.20000000000000284 34 68.79999999999999716 0 0 1 1 0 0 forward_v I I I I #
coedge $-1 -1 $-1 $389 $389 $317 $390 forward $453 $-1 #
edge $-1 -1 $-1 $454 0 $454 6.283185307179586232 $317 $455 forward @7 unknown #
DXID-attrib $-1 -1 $-1 $-1 $319 @10 ASM ENTITY @2 29 #
face $456 -1 $-1 $457 $458 $4 $-1 $459 reversed single #
loop $-1 -1 $-1 $453 $460 $319 #
cone-surface $-1 -1 $-1 15 35 117.0000000000000142 -0 -1 -0 0 0 4.5 1 I I 0.707106781186230493 0.7071067811868645414 4.5 forward I I I I #
loop $-1 -1 $-1 $-1 $321 $246 #
vertex $-1 -1 $-1 $322 $461 #
ellipse-curve $-1 -1 $-1 15 37.25 13 0 1 0 0 0 2.25 1 I I #
DXID-attrib $-1 -1 $-1 $-1 $324 @10 ASM ENTITY @2 34 #
loop $-1 -1 $-1 $462 $463 $324 #
plane-surface $-1 -1 $-1 15 35.00999999999999801 13 0 1 0 0 0 1 forward_v I I I I #
coedge $-1 -1 $-1 $401 $401 $464 $465 reversed $325 $-1 #
DXID-attrib $-1 -1 $-1 $-1 $328 @10 ASM ENTITY @2 37 #
cone-surface $-1 -1 $-1 90 35 122.0000000000000142 0 1 0 5 0 0 1 I I 0 1 5 forward I I I I #
loop $-1 -1 $-1 $466 $467 $88 #
coedge $-1 -1 $-1 $405 $405 $340 $406 reversed $468 $-1 #
edge $-1 -1 $-1 $469 0 $469 6.283185307179586232 $340 $470 forward @7 unknown #
loop $-1 -1 $-1 $471 $341 $457 #
vertex $-1 -1 $-1 $342 $472 #
ellipse-curve $-1 -1 $-1 15 35 117.0000000000000142 0 1 0 0 0 4.5 1 I I #
loop $-1 -1 $-1 $-1 $473 $411 #
face $474 -1 $-1 $475 $343 $4 $-1 $476 forward single #
point $-1 -1 $-1 30 35 57.75 #
coedge $-1 -1 $-1 $413 $413 $463 $477 forward $346 $-1 #
DXID-attrib $-1 -1 $-1 $-1 $347 @10 ASM ENTITY @2 35 #
cone-surface $-1 -1 $-1 15 34 13 0 1 0 0 0 4.5 1 I I 0 1 4.5 forward I I I I #
DXID-attrib $-1 -1 $-1 $-1 $350 @10 ASM ENTITY @2 47 #
face $478 -1 $-1 $479 $480 $4 $-1 $481 reversed single #
loop $-1 -1 $-1 $482 $483 $350 #
cone-surface $-1 -1 $-1 70 28.00000000000000355 105 0 1 0 0 0 5 1 I I 0 1 5 forward I I I I #
loop $-1 -1 $-1 $-1 $484 $281 #
coedge $-1 -1 $-1 $421 $421 $485 $486 forward $351 $-1 #
coedge $-1 -1 $-1 $422 $422 $484 $487 forward $353 $-1 #
edge $-1 -1 $-1 $488 0 $488 6.283185307179586232 $355 $489 forward @7 unknown #
loop $-1 -1 $-1 $293 $356 $88 #
vertex $-1 -1 $-1 $357 $490 #
ellipse-curve $-1 -1 $-1 70 35 105 0 1 0 0 0 2.75 1 I I #
DXID-attrib $-1 -1 $-1 $-1 $359 @10 ASM ENTITY @2 10 #
face $491 -1 $-1 $492 $372 $4 $-1 $493 forward single #
plane-surface $-1 -1 $-1 45.20000000000000284 34 44 1 0 0 0 0 1 forward_v I I I I #
loop $-1 -1 $-1 $-1 $432 $287 #
coedge $-1 -1 $-1 $431 $431 $467 $494 reversed $360 $-1 #
coedge $-1 -1 $-1 $432 $432 $363 $433 forward $430 $-1 #
edge $-1 -1 $-1 $495 0 $495 6.283185307179586232 $363 $496 forward @7 unknown #
vertex $-1 -1 $-1 $366 $497 #
ellipse-curve $-1 -1 $-1 85 35.00999999999999801 13 0 1 0 0 0 4.490000000000000213 1 I I #
vertex $-1 -1 $-1 $367 $498 #
ellipse-curve $-1 -1 $-1 85 37.25 13 0 1 0 0 0 2.25 1 I I #
coedge $-1 -1 $-1 $499 $370 $500 $501 forward $372 $-1 #
coedge $-1 -1 $-1 $371 $502 $503 $504 forward $372 $-1 #
coedge $-1 -1 $-1 $381 $500 $374 $441 forward $339 $-1 #
edge $-1 -1 $-1 $442 0 $385 24.79999999999999361 $374 $505 forward @7 unknown #
vertex $-1 -1 $-1 $441 $506 #
straight-curve $-1 -1 $-1 45.20000000000000284 45 44 0 -1 0 F 0 F 10 #
coedge $-1 -1 $-1 $503 $381 $377 $445 forward $339 $-1 #
edge $-1 -1 $-1 $383 0 $446 24.79999999999999361 $377 $507 forward @7 unknown #
vertex $-1 -1 $-1 $504 $508 #
straight-curve $-1 -1 $-1 54.80000000000000426 35 44 0 1 0 F 0 F 10 #
DXID-attrib $-1 -1 $-1 $-1 $379 @10 ASM ENTITY @2 26 #
plane-surface $-1 -1 $-1 54.80000000000000426 34 44 1 0 0 0 0 1 forward_v I I I I #
straight-curve $-1 -1 $-1 45.20000000000000284 35 68.79999999999999716 1 0 0 F 0 F 9.599999999999999645 #
point $-1 -1 $-1 54.80000000000000426 35 68.79999999999999716 #
point $-1 -1 $-1 45.20000000000000284 35 68.79999999999999716 #
loop $-1 -1 $-1 $-1 $389 $319 #
vertex $-1 -1 $-1 $390 $509 #
ellipse-curve $-1 -1 $-1 15 37.25 117.0000000000000142 0 1 0 0 0 2.25 1 I I #
DXID-attrib $-1 -1 $-1 $-1 $392 @10 ASM ENTITY @2 30 #
face $510 -1 $-1 $171 $407 $4 $-1 $511 reversed single #
loop $-1 -1 $-1 $512 $513 $392 #
plane-surface $-1 -1 $-1 15 35.00999999999999801 117.0000000000000142 0 1 0 0 0 1 forward_v I I I I #
coedge $-1 -1 $-1 $460 $460 $514 $515 reversed $393 $-1 #
point $-1 -1 $-1 15 37.25 15.25000000000000178 #
loop $-1 -1 $-1 $-1 $464 $324 #
coedge $-1 -1 $-1 $463 $463 $413 $477 reversed $399 $-1 #
coedge $-1 -1 $-1 $464 $464 $401 $465 forward $462 $-1 #
edge $-1 -1 $-1 $516 0 $516 6.283185307179586232 $401 $517 forward @7 unknown #
loop $-1 -1 $-1 $424 $518 $88 #
coedge $-1 -1 $-1 $467 $467 $431 $494 forward $404 $-1 #
loop $-1 -1 $-1 $519 $405 $520 #
vertex $-1 -1 $-1 $406 $521 #
ellipse-curve $-1 -1 $-1 30 35 105 0 1 0 0 0 2.75 1 I I #
loop $-1 -1 $-1 $-1 $522 $457 #
point $-1 -1 $-1 15 35 121.5 #
coedge $-1 -1 $-1 $473 $473 $523 $524 forward $410 $-1 #
DXID-attrib $-1 -1 $-1 $-1 $411 @10 ASM ENTITY @2 59 #
face $525 -1 $-1 $526 $527 $4 $-1 $528 forward single #
cone-surface $-1 -1 $-1 30 31.49000000000000199 55 0 1 0 0 0 2.75 1 I I 0 1 2.75 forward I I I I #
edge $-1 -1 $-1 $529 0 $529 6.283185307179586232 $463 $530 forward @7 unknown #
DXID-attrib $-1 -1 $-1 $-1 $417 @10 ASM ENTITY @2 48 #
face $531 -1 $-1 $532 $533 $4 $-1 $534 forward single #
loop $-1 -1 $-1 $-1 $535 $417 #
plane-surface $-1 -1 $-1 70 28.00000000000000355 105 0 1 0 0 0 1 forward_v I I I I #
loop $-1 -1 $-1 $-1 $485 $350 #
coedge $-1 -1 $-1 $483 $483 $535 $536 forward $418 $-1 #
coedge $-1 -1 $-1 $484 $484 $422 $487 reversed $420 $-1 #
coedge $-1 -1 $-1 $485 $485 $421 $486 reversed $482 $-1 #
edge $-1 -1 $-1 $537 0 $537 6.283185307179586232 $421 $538 forward @7 unknown #
edge $-1 -1 $-1 $539 0 $539 6.283185307179586232 $422 $540 forward @7 unknown #
vertex $-1 -1 $-1 $423 $541 #
ellipse-curve $-1 -1 $-1 70 31.51000000000000156 105 0 1 0 0 0 2.75 1 I I #
point $-1 -1 $-1 70 35 107.75 #
DXID-attrib $-1 -1 $-1 $-1 $428 @10 ASM ENTITY @2 11 #
face $542 -1 $-1 $543 $544 $4 $-1 $545 forward single #
plane-surface $-1 -1 $-1 45.20000000000000284 34 44 0 0 1 1 0 0 forward_v I I I I #
edge $-1 -1 $-1 $546 0 $546 6.283185307179586232 $431 $547 forward @7 unknown #
vertex $-1 -1 $-1 $433 $548 #
ellipse-curve $-1 -1 $-1 85 35.00999999999999801 13 0 1 0 0 0 4.5 1 I I #
point $-1 -1 $-1 85 35.00999999999999801 17.48999999999999844 #
point $-1 -1 $-1 85 37.25 15.25000000000000178 #
coedge $-1 -1 $-1 $549 $438 $550 $551 forward $372 $-1 #
coedge $-1 -1 $-1 $440 $552 $438 $501 reversed $339 $-1 #
edge $-1 -1 $-1 $442 20.10000000000000142 $553 20.90000000000000213 $438 $554 forward @7 unknown #
coedge $-1 -1 $-1 $439 $549 $555 $556 reversed $372 $-1 #
coedge $-1 -1 $-1 $557 $444 $439 $504 reversed $339 $-1 #
edge $-1 -1 $-1 $558 24.5 $446 25.30000000000000071 $439 $559 forward @7 unknown #
straight-curve $-1 -1 $-1 45.20000000000000284 35 44 0 0 1 F 0 F 24.79999999999999361 #
point $-1 -1 $-1 45.20000000000000284 35 44 #
straight-curve $-1 -1 $-1 54.80000000000000426 35 68.79999999999999716 0 0 -1 F 0 F 24.79999999999999361 #
point $-1 -1 $-1 54.80000000000000426 35 44 #
point $-1 -1 $-1 15 37.25 119.25 #
DXID-attrib $-1 -1 $-1 $-1 $457 @10 ASM ENTITY @2 31 #
cone-surface $-1 -1 $-1 15 34 117.0000000000000142 0 1 0 0 0 4.5 1 I I 0 1 4.5 forward I I I I #
loop $-1 -1 $-1 $-1 $514 $392 #
coedge $-1 -1 $-1 $513 $513 $522 $560 reversed $458 $-1 #
coedge $-1 -1 $-1 $514 $514 $460 $515 forward $512 $-1 #
edge $-1 -1 $-1 $561 0 $561 6.283185307179586232 $460 $562 forward @7 unknown #
vertex $-1 -1 $-1 $465 $563 #
ellipse-curve $-1 -1 $-1 15 35.00999999999999801 13 0 1 0 0 0 4.490000000000000213 1 I I #
coedge $-1 -1 $-1 $518 $518 $564 $565 forward $466 $-1 #
loop $-1 -1 $-1 $-1 $566 $520 #
face $567 -1 $-1 $568 $468 $4 $-1 $569 forward single #
point $-1 -1 $-1 30 35 107.75 #
coedge $-1 -1 $-1 $522 $522 $513 $560 forward $471 $-1 #
coedge $-1 -1 $-1 $523 $523 $473 $524 reversed $527 $-1 #
edge $-1 -1 $-1 $570 0 $570 6.283185307179586232 $473 $571 forward @7 unknown #
DXID-attrib $-1 -1 $-1 $-1 $475 @10 ASM ENTITY @2 60 #
face $572 -1 $-1 $573 $574 $4 $-1 $575 forward single #
loop $-1 -1 $-1 $576 $523 $475 #
cone-surface $-1 -1 $-1 30 29.25000000000000355 55 -0 -1 -0 0 0 5 1 I I 0.7055371825785723416 0.7086729033899140662 5 forward I I I I #
vertex $-1 -1 $-1 $477 $577 #
ellipse-curve $-1 -1 $-1 15 35.00999999999999801 13 0 1 0 0 0 4.5 1 I I #
DXID-attrib $-1 -1 $-1 $-1 $479 @10 ASM ENTITY @2 49 #
face $578 -1 $-1 $579 $580 $4 $-1 $581 forward single #
loop $-1 -1 $-1 $582 $564 $479 #
cone-surface $-1 -1 $-1 70 31.49000000000000199 55 0 1 0 0 0 2.75 1 I I 0 1 2.75 forward I I I I #
coedge $-1 -1 $-1 $535 $535 $483 $536 reversed $480 $-1 #
edge $-1 -1 $-1 $583 0 $583 6.283185307179586232 $483 $584 forward @7 unknown #
vertex $-1 -1 $-1 $486 $585 #
ellipse-curve $-1 -1 $-1 70 29.26000000000000156 105 0 1 0 0 0 5 1 I I #
vertex $-1 -1 $-1 $487 $586 #
ellipse-curve $-1 -1 $-1 70 29.26000000000000156 105 0 1 0 0 0 4.990044247788000042 1 I I #
point $-1 -1 $-1 70 31.51000000000000156 107.75 #
DXID-attrib $-1 -1 $-1 $-1 $492 @10 ASM ENTITY @2 12 #
face $587 -1 $-1 $588 $589 $4 $-1 $590 forward single #
loop $-1 -1 $-1 $-1 $591 $492 #
plane-surface $-1 -1 $-1 54 34 44 1 0 0 0 0 1 forward_v I I I I #
vertex $-1 -1 $-1 $494 $592 #
ellipse-curve $-1 -1 $-1 85 35 13 0 1 0 0 0 4.5 1 I I #
point $-1 -1 $-1 85 35.00999999999999801 17.5 #
coedge $-1 -1 $-1 $502 $499 $593 $594 forward $372 $-1 #
coedge $-1 -1 $-1 $595 $596 $499 $551 reversed $597 $-1 #
edge $-1 -1 $-1 $553 0.9999999999999964473 $598 2.799999999999993605 $499 $599 forward @7 unknown #
coedge $-1 -1 $-1 $500 $600 $595 $601 forward $339 $-1 #
vertex $-1 -1 $-1 $501 $602 #
straight-curve $-1 -1 $-1 25.10000000000000142 35 44 1 0 0 F 20.10000000000000142 F 20.90000000000000213 #
coedge $-1 -1 $-1 $591 $603 $502 $556 forward $544 $-1 #
edge $-1 -1 $-1 $558 0.9999999999999964473 $604 2.799999999999993605 $502 $605 forward @7 unknown #
coedge $-1 -1 $-1 $600 $503 $603 $606 reversed $339 $-1 #
vertex $-1 -1 $-1 $556 $607 #
straight-curve $-1 -1 $-1 29.5 35 44 1 0 0 F 24.5 F 25.30000000000000071 #
edge $-1 -1 $-1 $608 0 $608 6.283185307179586232 $513 $609 forward @7 unknown #
vertex $-1 -1 $-1 $515 $610 #
ellipse-curve $-1 -1 $-1 15 35.00999999999999801 117.0000000000000142 0 1 0 0 0 4.490000000000000213 1 I I #
point $-1 -1 $-1 15 35.00999999999999801 17.48999999999999844 #
coedge $-1 -1 $-1 $564 $564 $518 $565 reversed $533 $-1 #
edge $-1 -1 $-1 $611 0 $611 6.283185307179586232 $518 $612 forward @7 unknown #
coedge $-1 -1 $-1 $566 $566 $613 $614 forward $519 $-1 #
DXID-attrib $-1 -1 $-1 $-1 $520 @10 ASM ENTITY @2 54 #
face $615 -1 $-1 $616 $617 $4 $-1 $618 forward single #
cone-surface $-1 -1 $-1 30 31.49000000000000199 105 0 1 0 0 0 2.75 1 I I 0 1 2.75 forward I I I I #
vertex $-1 -1 $-1 $524 $619 #
ellipse-curve $-1 -1 $-1 30 31.51000000000000156 55 0 1 0 0 0 2.75 1 I I #
DXID-attrib $-1 -1 $-1 $-1 $526 @10 ASM ENTITY @2 61 #
face $620 -1 $-1 $621 $622 $4 $-1 $623 forward single #
loop $-1 -1 $-1 $624 $625 $526 #
plane-surface $-1 -1 $-1 30 29.26000000000000156 55 0 1 0 0 0 1 forward_v I I I I #
loop $-1 -1 $-1 $-1 $626 $475 #
point $-1 -1 $-1 15 35.00999999999999801 17.5 #
DXID-attrib $-1 -1 $-1 $-1 $532 @10 ASM ENTITY @2 50 #
face $627 -1 $-1 $628 $629 $4 $-1 $630 forward single #
loop $-1 -1 $-1 $631 $632 $532 #
cone-surface $-1 -1 $-1 70 29.25000000000000355 55 -0 -1 -0 0 0 5 1 I I 0.7055371825785723416 0.7086729033899140662 5 forward I I I I #
loop $-1 -1 $-1 $-1 $633 $479 #
vertex $-1 -1 $-1 $536 $634 #
ellipse-curve $-1 -1 $-1 70 28.00000000000000355 105 0 1 0 0 0 5 1 I I #
point $-1 -1 $-1 70 29.26000000000000156 110 #
point $-1 -1 $-1 70 29.26000000000000156 109.9900442477800055 #
DXID-attrib $-1 -1 $-1 $-1 $543 @10 ASM ENTITY @2 13 #
face $635 -1 $-1 $636 $637 $4 $-1 $638 forward single #
loop $-1 -1 $-1 $-1 $639 $543 #
plane-surface $-1 -1 $-1 46.00000000000000711 35.00999999999999801 60 0 0 -1 0 -1 0 forward_v I I I I #
coedge $-1 -1 $-1 $640 $555 $641 $642 reversed $544 $-1 #
point $-1 -1 $-1 85 35 17.5 #
coedge $-1 -1 $-1 $643 $641 $549 $594 reversed $644 $-1 #
edge $-1 -1 $-1 $598 0.8000000000000007105 $604 8.799999999999998934 $549 $645 forward @7 unknown #
coedge $-1 -1 $-1 $646 $550 $552 $601 reversed $597 $-1 #
coedge $-1 -1 $-1 $550 $647 $643 $648 forward $597 $-1 #
loop $-1 -1 $-1 $-1 $596 $649 #
vertex $-1 -1 $-1 $551 $650 #
straight-curve $-1 -1 $-1 46.00000000000000711 34 44 0 1 0 F 0.9999999999999964473 F 2.799999999999993605 #
coedge $-1 -1 $-1 $552 $557 $651 $652 forward $339 $-1 #
edge $-1 -1 $-1 $653 -36.5 $553 -20.5 $595 $654 forward @7 unknown #
point $-1 -1 $-1 46.00000000000000711 35 44 #
coedge $-1 -1 $-1 $555 $655 $557 $606 forward $544 $-1 #
vertex $-1 -1 $-1 $594 $656 #
straight-curve $-1 -1 $-1 54 34 44 0 1 0 F 0.9999999999999964473 F 2.799999999999993605 #
edge $-1 -1 $-1 $657 -36.5 $558 -20.5 $603 $658 forward @7 unknown #
point $-1 -1 $-1 54 35 44 #
vertex $-1 -1 $-1 $560 $659 #
ellipse-curve $-1 -1 $-1 15 35.00999999999999801 117.0000000000000142 0 1 0 0 0 4.5 1 I I #
point $-1 -1 $-1 15 35.00999999999999801 121.4900000000000091 #
vertex $-1 -1 $-1 $565 $660 #
ellipse-curve $-1 -1 $-1 70 35 55 0 1 0 0 0 2.75 1 I I #
coedge $-1 -1 $-1 $613 $613 $566 $614 reversed $617 $-1 #
edge $-1 -1 $-1 $661 0 $661 6.283185307179586232 $566 $662 forward @7 unknown #
DXID-attrib $-1 -1 $-1 $-1 $568 @10 ASM ENTITY @2 55 #
face $663 -1 $-1 $664 $665 $4 $-1 $666 forward single #
loop $-1 -1 $-1 $667 $613 $568 #
cone-surface $-1 -1 $-1 30 29.25000000000000355 105 -0 -1 -0 0 0 5 1 I I 0.7055371825785723416 0.7086729033899140662 5 forward I I I I #
point $-1 -1 $-1 30 31.51000000000000156 57.75 #
DXID-attrib $-1 -1 $-1 $-1 $573 @10 ASM ENTITY @2 62 #
face $668 -1 $-1 $-1 $669 $4 $-1 $670 reversed single #
loop $-1 -1 $-1 $671 $672 $573 #
cone-surface $-1 -1 $-1 30 28.00000000000000355 55 0 1 0 0 0 5 1 I I 0 1 5 forward I I I I #
loop $-1 -1 $-1 $-1 $673 $526 #
coedge $-1 -1 $-1 $625 $625 $674 $675 forward $574 $-1 #
coedge $-1 -1 $-1 $626 $626 $673 $676 forward $576 $-1 #
DXID-attrib $-1 -1 $-1 $-1 $579 @10 ASM ENTITY @2 51 #
face $677 -1 $-1 $678 $679 $4 $-1 $680 forward single #
loop $-1 -1 $-1 $681 $682 $579 #
plane-surface $-1 -1 $-1 70 29.26000000000000156 55 0 1 0 0 0 1 forward_v I I I I #
loop $-1 -1 $-1 $-1 $683 $532 #
coedge $-1 -1 $-1 $632 $632 $633 $684 reversed $580 $-1 #
coedge $-1 -1 $-1 $633 $633 $632 $684 forward $582 $-1 #
point $-1 -1 $-1 70 28.00000000000000355 110 #
DXID-attrib $-1 -1 $-1 $-1 $588 @10 ASM ENTITY @2 14 #
face $685 -1 $-1 $686 $687 $4 $-1 $688 forward single #
loop $-1 -1 $-1 $-1 $689 $588 #
plane-surface $-1 -1 $-1 46.00000000000000711 32.70000000000000284 60 0 -1 0 0 0 1 forward_v I I I I #
coedge $-1 -1 $-1 $651 $690 $646 $691 reversed $589 $-1 #
coedge $-1 -1 $-1 $692 $591 $693 $694 forward $544 $-1 #
coedge $-1 -1 $-1 $593 $695 $591 $642 forward $644 $-1 #
edge $-1 -1 $-1 $696 -24.00000000000000355 $604 0 $591 $697 forward @7 unknown #
coedge $-1 -1 $-1 $695 $593 $596 $648 reversed $644 $-1 #
loop $-1 -1 $-1 $-1 $593 $698 #
straight-curve $-1 -1 $-1 45.20000000000000284 36.79999999999999716 44 1 0 0 F 0.8000000000000007105 F 8.799999999999998934 #
coedge $-1 -1 $-1 $699 $595 $639 $691 forward $597 $-1 #
coedge $-1 -1 $-1 $596 $700 $701 $702 reversed $597 $-1 #
edge $-1 -1 $-1 $703 -24.00000000000000355 $598 0 $643 $704 forward @7 unknown #
face $705 -1 $-1 $379 $597 $4 $-1 $706 reversed single #
point $-1 -1 $-1 46.00000000000000711 36.79999999999999716 44 #
coedge $-1 -1 $-1 $707 $639 $600 $652 reversed $589 $-1 #
edge $-1 -1 $-1 $657 -28.5 $653 -20.5 $651 $708 forward @7 unknown #
vertex $-1 -1 $-1 $691 $709 #
straight-curve $-1 -1 $-1 46.00000000000000711 35 23.5 0 0 -1 F -36.5 F -20.5 #
coedge $-1 -1 $-1 $603 $710 $707 $711 reversed $544 $-1 #
point $-1 -1 $-1 54 36.79999999999999716 44 #
vertex $-1 -1 $-1 $711 $712 #
straight-curve $-1 -1 $-1 54 35 23.5 0 0 -1 F -36.5 F -20.5 #
point $-1 -1 $-1 15 35.00999999999999801 121.5 #
point $-1 -1 $-1 70 35 57.75 #
vertex $-1 -1 $-1 $614 $713 #
ellipse-curve $-1 -1 $-1 30 31.51000000000000156 105 0 1 0 0 0 2.75 1 I I #
DXID-attrib $-1 -1 $-1 $-1 $616 @10 ASM ENTITY @2 56 #
face $714 -1 $-1 $715 $716 $4 $-1 $717 forward single #
loop $-1 -1 $-1 $718 $719 $616 #
plane-surface $-1 -1 $-1 30 29.26000000000000156 105 0 1 0 0 0 1 forward_v I I I I #
loop $-1 -1 $-1 $-1 $720 $568 #
DXID-attrib $-1 -1 $-1 $-1 $621 @10 ASM ENTITY @2 63 #
loop $-1 -1 $-1 $-1 $721 $621 #
plane-surface $-1 -1 $-1 30 28.00000000000000355 55 0 1 0 0 0 1 forward_v I I I I #
loop $-1 -1 $-1 $-1 $674 $573 #
coedge $-1 -1 $-1 $672 $672 $721 $722 forward $622 $-1 #
coedge $-1 -1 $-1 $673 $673 $626 $676 reversed $624 $-1 #
coedge $-1 -1 $-1 $674 $674 $625 $675 reversed $671 $-1 #
edge $-1 -1 $-1 $723 0 $723 6.283185307179586232 $625 $724 forward @7 unknown #
edge $-1 -1 $-1 $725 0 $725 6.283185307179586232 $626 $726 forward @7 unknown #
DXID-attrib $-1 -1 $-1 $-1 $628 @10 ASM ENTITY @2 52 #
face $727 -1 $-1 $520 $728 $4 $-1 $729 reversed single #
loop $-1 -1 $-1 $730 $731 $628 #
cone-surface $-1 -1 $-1 70 28.00000000000000355 55 0 1 0 0 0 5 1 I I 0 1 5 forward I I I I #
loop $-1 -1 $-1 $-1 $732 $579 #
coedge $-1 -1 $-1 $682 $682 $733 $734 forward $629 $-1 #
coedge $-1 -1 $-1 $683 $683 $732 $735 forward $631 $-1 #
edge $-1 -1 $-1 $736 0 $736 6.283185307179586232 $633 $737 forward @7 unknown #
DXID-attrib $-1 -1 $-1 $-1 $636 @10 ASM ENTITY @2 15 #
face $738 -1 $-1 $739 $740 $4 $-1 $741 forward single #
loop $-1 -1 $-1 $-1 $742 $636 #
plane-surface $-1 -1 $-1 46.00000000000000711 32.70000000000000284 62.80000000000000426 0 -0.7071067811865475727 0.7071067811865475727 0 0.7071067811865476838 0.7071067811865476838 forward_v I I I I #
coedge $-1 -1 $-1 $743 $744 $690 $745 forward $637 $-1 #
coedge $-1 -1 $-1 $639 $707 $689 $745 reversed $589 $-1 #
edge $-1 -1 $-1 $653 0.009999999999998898659 $746 2.30999999999999428 $639 $747 forward @7 unknown #
coedge $-1 -1 $-1 $748 $640 $749 $750 forward $544 $-1 #
coedge $-1 -1 $-1 $751 $752 $640 $694 reversed $753 $-1 #
edge $-1 -1 $-1 $696 -2.799999999999993605 $754 -0.9999999999999964473 $640 $755 forward @7 unknown #
coedge $-1 -1 $-1 $641 $643 $751 $756 forward $644 $-1 #
vertex $-1 -1 $-1 $642 $757 #
straight-curve $-1 -1 $-1 54 36.79999999999999716 44 0 0 -1 F -24.00000000000000355 F 0 #
face $758 -1 $-1 $649 $644 $4 $-1 $759 forward single #
coedge $-1 -1 $-1 $760 $646 $744 $761 forward $597 $-1 #
coedge $-1 -1 $-1 $647 $762 $763 $764 reversed $597 $-1 #
coedge $-1 -1 $-1 $752 $751 $647 $702 forward $753 $-1 #
edge $-1 -1 $-1 $703 -2.799999999999993605 $765 -0.9999999999999964473 $701 $766 forward @7 unknown #
vertex $-1 -1 $-1 $756 $767 #
straight-curve $-1 -1 $-1 46.00000000000000711 36.79999999999999716 44 0 0 -1 F -24.00000000000000355 F 0 #
DXID-attrib $-1 -1 $-1 $-1 $649 @10 ASM ENTITY @2 25 #
plane-surface $-1 -1 $-1 46.00000000000000711 34 44 1 0 0 0 0 1 forward_v I I I I #
coedge $-1 -1 $-1 $690 $651 $655 $711 forward $589 $-1 #
straight-curve $-1 -1 $-1 25.50000000000000355 35 60 -1 0 0 F -28.5 F -20.5 #
point $-1 -1 $-1 46.00000000000000711 35 60 #
coedge $-1 -1 $-1 $655 $768 $743 $769 reversed $544 $-1 #
edge $-1 -1 $-1 $657 0.009999999999998898659 $770 2.30999999999999428 $655 $771 forward @7 unknown #
point $-1 -1 $-1 54 35 60 #
point $-1 -1 $-1 30 31.51000000000000156 107.75 #
DXID-attrib $-1 -1 $-1 $-1 $664 @10 ASM ENTITY @2 57 #
face $772 -1 $-1 $411 $773 $4 $-1 $774 reversed single #
loop $-1 -1 $-1 $775 $776 $664 #
cone-surface $-1 -1 $-1 30 28.00000000000000355 105 0 1 0 0 0 5 1 I I 0 1 5 forward I I I I #
loop $-1 -1 $-1 $-1 $777 $616 #
coedge $-1 -1 $-1 $719 $719 $778 $779 forward $665 $-1 #
coedge $-1 -1 $-1 $720 $720 $777 $780 forward $667 $-1 #
coedge $-1 -1 $-1 $721 $721 $672 $722 reversed $669 $-1 #
edge $-1 -1 $-1 $781 0 $781 6.283185307179586232 $672 $782 forward @7 unknown #
vertex $-1 -1 $-1 $675 $783 #
ellipse-curve $-1 -1 $-1 30 29.26000000000000156 55 0 1 0 0 0 5 1 I I #
vertex $-1 -1 $-1 $676 $784 #
ellipse-curve $-1 -1 $-1 30 29.26000000000000156 55 0 1 0 0 0 4.990044247788000042 1 I I #
DXID-attrib $-1 -1 $-1 $-1 $678 @10 ASM ENTITY @2 53 #
loop $-1 -1 $-1 $-1 $785 $678 #
plane-surface $-1 -1 $-1 70 28.00000000000000355 55 0 1 0 0 0 1 forward_v I I I I #
loop $-1 -1 $-1 $-1 $733 $628 #
coedge $-1 -1 $-1 $731 $731 $785 $786 forward $679 $-1 #
coedge $-1 -1 $-1 $732 $732 $683 $735 reversed $681 $-1 #
coedge $-1 -1 $-1 $733 $733 $682 $734 reversed $730 $-1 #
edge $-1 -1 $-1 $787 0 $787 6.283185307179586232 $682 $788 forward @7 unknown #
edge $-1 -1 $-1 $789 0 $789 6.283185307179586232 $683 $790 forward @7 unknown #
vertex $-1 -1 $-1 $684 $791 #
ellipse-curve $-1 -1 $-1 70 31.51000000000000156 55 0 1 0 0 0 2.75 1 I I #
DXID-attrib $-1 -1 $-1 $-1 $686 @10 ASM ENTITY @2 16 #
face $792 -1 $-1 $793 $794 $4 $-1 $795 reversed single #
loop $-1 -1 $-1 $-1 $796 $686 #
plane-surface $-1 -1 $-1 46.00000000000000711 33.89999999999999858 64 0 0 1 0 1 0 forward_v I I I I #
coedge $-1 -1 $-1 $797 $798 $799 $800 forward $687 $-1 #
coedge $-1 -1 $-1 $799 $689 $710 $769 forward $637 $-1 #
coedge $-1 -1 $-1 $689 $799 $699 $761 reversed $637 $-1 #
edge $-1 -1 $-1 $746 0 $770 7.999999999999998224 $690 $801 forward @7 unknown #
vertex $-1 -1 $-1 $691 $802 #
straight-curve $-1 -1 $-1 46.00000000000000711 35.00999999999999801 60 0 -1 0 F 0.009999999999998898659 F 2.30999999999999428 #
coedge $-1 -1 $-1 $768 $692 $803 $804 reversed $544 $-1 #
coedge $-1 -1 $-1 $805 $806 $692 $750 reversed $794 $-1 #
edge $-1 -1 $-1 $754 -44.50000000000000711 $807 -40.50000000000000711 $692 $808 forward @7 unknown #
coedge $-1 -1 $-1 $701 $693 $695 $756 reversed $753 $-1 #
coedge $-1 -1 $-1 $693 $701 $805 $809 forward $753 $-1 #
loop $-1 -1 $-1 $-1 $693 $810 #
vertex $-1 -1 $-1 $694 $811 #
straight-curve $-1 -1 $-1 54 34 68 0 -1 0 F -2.799999999999993605 F -0.9999999999999964473 #
edge $-1 -1 $-1 $703 0.8000000000000007105 $696 8.799999999999998934 $751 $812 forward @7 unknown #
point $-1 -1 $-1 54 36.79999999999999716 68 #
DXID-attrib $-1 -1 $-1 $-1 $698 @10 ASM ENTITY @2 24 #
plane-surface $-1 -1 $-1 45.20000000000000284 36.79999999999999716 44 0 1 0 0 0 1 forward_v I I I I #
coedge $-1 -1 $-1 $762 $699 $798 $813 forward $597 $-1 #
edge $-1 -1 $-1 $746 0 $814 2.800000000000002487 $744 $815 forward @7 unknown #
coedge $-1 -1 $-1 $700 $760 $796 $816 forward $597 $-1 #
coedge $-1 -1 $-1 $806 $805 $700 $764 forward $794 $-1 #
edge $-1 -1 $-1 $765 -44.50000000000000711 $817 -40.50000000000000711 $763 $818 forward @7 unknown #
vertex $-1 -1 $-1 $809 $819 #
straight-curve $-1 -1 $-1 46.00000000000000711 34 68 0 -1 0 F -2.799999999999993605 F -0.9999999999999964473 #
point $-1 -1 $-1 46.00000000000000711 36.79999999999999716 68 #
coedge $-1 -1 $-1 $710 $748 $797 $820 reversed $544 $-1 #
edge $-1 -1 $-1 $770 0 $821 2.800000000000002487 $710 $822 forward @7 unknown #
vertex $-1 -1 $-1 $769 $823 #
straight-curve $-1 -1 $-1 54 35.00999999999999801 60 0 -1 0 F 0.009999999999998898659 F 2.30999999999999428 #
DXID-attrib $-1 -1 $-1 $-1 $715 @10 ASM ENTITY @2 58 #
loop $-1 -1 $-1 $-1 $824 $715 #
plane-surface $-1 -1 $-1 30 28.00000000000000355 105 0 1 0 0 0 1 forward_v I I I I #
loop $-1 -1 $-1 $-1 $778 $664 #
coedge $-1 -1 $-1 $776 $776 $824 $825 forward $716 $-1 #
coedge $-1 -1 $-1 $777 $777 $720 $780 reversed $718 $-1 #
coedge $-1 -1 $-1 $778 $778 $719 $779 reversed $775 $-1 #
edge $-1 -1 $-1 $826 0 $826 6.283185307179586232 $719 $827 forward @7 unknown #
edge $-1 -1 $-1 $828 0 $828 6.283185307179586232 $720 $829 forward @7 unknown #
vertex $-1 -1 $-1 $722 $830 #
ellipse-curve $-1 -1 $-1 30 28.00000000000000355 55 0 1 0 0 0 5 1 I I #
point $-1 -1 $-1 30 29.26000000000000156 60 #
point $-1 -1 $-1 30 29.26000000000000156 59.99004424778799915 #
coedge $-1 -1 $-1 $785 $785 $731 $786 reversed $728 $-1 #
edge $-1 -1 $-1 $831 0 $831 6.283185307179586232 $731 $832 forward @7 unknown #
vertex $-1 -1 $-1 $734 $833 #
ellipse-curve $-1 -1 $-1 70 29.26000000000000156 55 0 1 0 0 0 5 1 I I #
vertex $-1 -1 $-1 $735 $834 #
ellipse-curve $-1 -1 $-1 70 29.26000000000000156 55 0 1 0 0 0 4.990044247788000042 1 I I #
point $-1 -1 $-1 70 31.51000000000000156 57.75 #
DXID-attrib $-1 -1 $-1 $-1 $739 @10 ASM ENTITY @2 17 #
face $835 -1 $-1 $836 $837 $4 $-1 $838 reversed single #
loop $-1 -1 $-1 $839 $806 $739 #
plane-surface $-1 -1 $-1 5 35 3.000000000000000444 0 1 0 0 0 1 forward_v I I I I #
coedge $-1 -1 $-1 $840 $841 $762 $816 reversed $740 $-1 #
coedge $-1 -1 $-1 $842 $742 $768 $820 forward $687 $-1 #
coedge $-1 -1 $-1 $742 $842 $760 $813 reversed $687 $-1 #
coedge $-1 -1 $-1 $744 $743 $742 $800 reversed $637 $-1 #
edge $-1 -1 $-1 $814 0 $821 7.999999999999998224 $799 $843 forward @7 unknown #
straight-curve $-1 -1 $-1 46.00000000000000711 32.70000000000000284 60 1 0 0 F 0 F 7.999999999999998224 #
point $-1 -1 $-1 46.00000000000000711 32.70000000000000284 60 #
coedge $-1 -1 $-1 $841 $840 $748 $804 forward $740 $-1 #
edge $-1 -1 $-1 $844 0 $807 1.099999999999998757 $748 $845 forward @7 unknown #
coedge $-1 -1 $-1 $763 $749 $752 $809 reversed $794 $-1 #
coedge $-1 -1 $-1 $749 $763 $841 $846 forward $794 $-1 #
vertex $-1 -1 $-1 $750 $847 #
straight-curve $-1 -1 $-1 54 35 23.5 0 0 -1 F -44.50000000000000711 F -40.50000000000000711 #
edge $-1 -1 $-1 $765 20.90000000000000213 $754 28.89999999999999858 $805 $848 forward @7 unknown #
face $849 -1 $-1 $698 $753 $4 $-1 $850 forward single #
point $-1 -1 $-1 54 35 68 #
straight-curve $-1 -1 $-1 45.20000000000000284 36.79999999999999716 68 1 0 0 F 0.8000000000000007105 F 8.799999999999998934 #
edge $-1 -1 $-1 $814 0 $851 1.697056274846626245 $798 $852 forward @7 unknown #
vertex $-1 -1 $-1 $800 $853 #
straight-curve $-1 -1 $-1 46.00000000000000711 32.70000000000000284 60 0 0 1 F 0 F 2.800000000000002487 #
edge $-1 -1 $-1 $851 0 $817 1.099999999999998757 $796 $854 forward @7 unknown #
vertex $-1 -1 $-1 $816 $855 #
straight-curve $-1 -1 $-1 46.00000000000000711 35 23.5 0 0 -1 F -44.50000000000000711 F -40.50000000000000711 #
point $-1 -1 $-1 46.00000000000000711 35 68 #
edge $-1 -1 $-1 $821 0 $844 1.697056274846626245 $768 $856 forward @7 unknown #
vertex $-1 -1 $-1 $820 $857 #
straight-curve $-1 -1 $-1 54 32.70000000000000284 60 0 0 1 F 0 F 2.800000000000002487 #
point $-1 -1 $-1 54 32.70000000000000284 60 #
coedge $-1 -1 $-1 $824 $824 $776 $825 reversed $773 $-1 #
edge $-1 -1 $-1 $858 0 $858 6.283185307179586232 $776 $859 forward @7 unknown #
vertex $-1 -1 $-1 $779 $860 #
ellipse-curve $-1 -1 $-1 30 29.26000000000000156 105 0 1 0 0 0 5 1 I I #
vertex $-1 -1 $-1 $780 $861 #
ellipse-curve $-1 -1 $-1 30 29.26000000000000156 105 0 1 0 0 0 4.990044247788000042 1 I I #
point $-1 -1 $-1 30 28.00000000000000355 60 #
vertex $-1 -1 $-1 $786 $862 #
ellipse-curve $-1 -1 $-1 70 28.00000000000000355 55 0 1 0 0 0 5 1 I I #
point $-1 -1 $-1 70 29.26000000000000156 60 #
point $-1 -1 $-1 70 29.26000000000000156 59.99004424778799915 #
DXID-attrib $-1 -1 $-1 $-1 $793 @10 ASM ENTITY @2 18 #
face $863 -1 $-1 $864 $865 $4 $-1 $866 reversed single #
loop $-1 -1 $-1 $-1 $867 $793 #
plane-surface $-1 -1 $-1 47 33.5 65 1 0 0 0 0 1 forward_v I I I I #
loop $-1 -1 $-1 $-1 $868 $739 #
coedge $-1 -1 $-1 $803 $796 $842 $869 forward $740 $-1 #
coedge $-1 -1 $-1 $796 $803 $806 $846 reversed $740 $-1 #
coedge $-1 -1 $-1 $798 $797 $840 $869 reversed $687 $-1 #
straight-curve $-1 -1 $-1 46.00000000000000711 32.70000000000000284 62.80000000000000426 1 0 0 F 0 F 7.999999999999998224 #
vertex $-1 -1 $-1 $804 $870 #
straight-curve $-1 -1 $-1 54 33.89999999999999858 64 0 1 0 F 0 F 1.099999999999998757 #
edge $-1 -1 $-1 $817 20.5 $807 28.5 $841 $871 forward @7 unknown #
point $-1 -1 $-1 54 35 64 #
straight-curve $-1 -1 $-1 25.10000000000000142 35 68 1 0 0 F 20.90000000000000213 F 28.89999999999999858 #
DXID-attrib $-1 -1 $-1 $-1 $810 @10 ASM ENTITY @2 23 #
plane-surface $-1 -1 $-1 45.20000000000000284 34 68 0 0 1 1 0 0 forward_v I I I I #
vertex $-1 -1 $-1 $869 $872 #
straight-curve $-1 -1 $-1 46.00000000000000711 32.70000000000000284 62.80000000000000426 0 0.7071067811870000996 0.7071067811870000996 F 0 F 1.697056274846626245 #
point $-1 -1 $-1 46.00000000000000711 32.70000000000000284 62.80000000000000426 #
straight-curve $-1 -1 $-1 46.00000000000000711 33.89999999999999858 64 0 1 0 F 0 F 1.099999999999998757 #
point $-1 -1 $-1 46.00000000000000711 35 64 #
straight-curve $-1 -1 $-1 54 32.70000000000000284 62.80000000000000426 0 0.7071067811870000996 0.7071067811870000996 F 0 F 1.697056274846626245 #
point $-1 -1 $-1 54 32.70000000000000284 62.80000000000000426 #
vertex $-1 -1 $-1 $825 $873 #
ellipse-curve $-1 -1 $-1 30 28.00000000000000355 105 0 1 0 0 0 5 1 I I #
point $-1 -1 $-1 30 29.26000000000000156 110 #
point $-1 -1 $-1 30 29.26000000000000156 109.9900442477800055 #
point $-1 -1 $-1 70 28.00000000000000355 60 #
DXID-attrib $-1 -1 $-1 $-1 $836 @10 ASM ENTITY @2 19 #
face $874 -1 $-1 $875 $876 $4 $-1 $877 reversed single #
loop $-1 -1 $-1 $-1 $878 $836 #
plane-surface $-1 -1 $-1 47 33.5 65 0 1 0 0 0 1 forward_v I I I I #
coedge $-1 -1 $-1 $879 $880 $881 $882 forward $837 $-1 #
coedge $-1 -1 $-1 $883 $884 $885 $886 forward $839 $-1 #
edge $-1 -1 $-1 $851 0 $844 7.999999999999998224 $842 $887 forward @7 unknown #
point $-1 -1 $-1 54 33.89999999999999858 64 #
straight-curve $-1 -1 $-1 25.50000000000000355 35 64 1 0 0 F 20.5 F 28.5 #
point $-1 -1 $-1 46.00000000000000711 33.89999999999999858 64 #
point $-1 -1 $-1 30 28.00000000000000355 110 #
DXID-attrib $-1 -1 $-1 $-1 $864 @10 ASM ENTITY @2 20 #
face $888 -1 $-1 $889 $890 $4 $-1 $891 forward single #
loop $-1 -1 $-1 $-1 $892 $864 #
plane-surface $-1 -1 $-1 47 33.5 65 0 0 1 1 0 0 forward_v I I I I #
coedge $-1 -1 $-1 $893 $894 $895 $896 forward $865 $-1 #
coedge $-1 -1 $-1 $897 $867 $884 $898 forward $837 $-1 #
coedge $-1 -1 $-1 $867 $897 $894 $899 forward $837 $-1 #
coedge $-1 -1 $-1 $900 $885 $867 $882 reversed $901 $-1 #
edge $-1 -1 $-1 $902 0 $903 1.499999999999999112 $867 $904 forward @7 unknown #
coedge $-1 -1 $-1 $905 $868 $906 $907 forward $839 $-1 #
coedge $-1 -1 $-1 $868 $905 $879 $898 reversed $839 $-1 #
coedge $-1 -1 $-1 $881 $908 $868 $886 reversed $901 $-1 #
edge $-1 -1 $-1 $903 21 $909 27.00000000000000355 $868 $910 forward @7 unknown #
straight-curve $-1 -1 $-1 46.00000000000000711 33.89999999999999858 64 1 0 0 F 0 F 7.999999999999998224 #
DXID-attrib $-1 -1 $-1 $-1 $875 @10 ASM ENTITY @2 21 #
face $911 -1 $-1 $810 $901 $4 $-1 $912 forward single #
loop $-1 -1 $-1 $-1 $913 $875 #
plane-surface $-1 -1 $-1 53.00000000000000711 33.5 65 1 0 0 0 0 1 forward_v I I I I #
coedge $-1 -1 $-1 $914 $895 $897 $915 forward $876 $-1 #
coedge $-1 -1 $-1 $916 $878 $917 $918 forward $865 $-1 #
coedge $-1 -1 $-1 $878 $916 $880 $899 reversed $865 $-1 #
coedge $-1 -1 $-1 $892 $919 $878 $896 reversed $876 $-1 #
edge $-1 -1 $-1 $920 0 $921 6.000000000000005329 $878 $922 forward @7 unknown #
coedge $-1 -1 $-1 $880 $879 $892 $915 reversed $837 $-1 #
edge $-1 -1 $-1 $903 -33.49999999999999289 $923 -30.99999999999999645 $884 $924 forward @7 unknown #
edge $-1 -1 $-1 $920 0 $902 2.5 $880 $925 forward @7 unknown #
coedge $-1 -1 $-1 $908 $881 $916 $926 forward $901 $-1 #
loop $-1 -1 $-1 $-1 $881 $889 #
vertex $-1 -1 $-1 $882 $927 #
vertex $-1 -1 $-1 $886 $928 #
straight-curve $-1 -1 $-1 47 33.5 67.5 0 1 0 F 0 F 1.499999999999999112 #
coedge $-1 -1 $-1 $884 $883 $914 $929 reversed $839 $-1 #
coedge $-1 -1 $-1 $913 $930 $883 $907 reversed $890 $-1 #
edge $-1 -1 $-1 $909 -33.49999999999999289 $931 -30.99999999999999645 $883 $932 forward @7 unknown #
coedge $-1 -1 $-1 $885 $900 $913 $933 forward $901 $-1 #
vertex $-1 -1 $-1 $886 $934 #
straight-curve $-1 -1 $-1 26 35 67.5 1 0 0 F 21 F 27.00000000000000355 #
DXID-attrib $-1 -1 $-1 $-1 $889 @10 ASM ENTITY @2 22 #
plane-surface $-1 -1 $-1 47 33.5 67.5 0 0 1 1 0 0 forward_v I I I I #
coedge $-1 -1 $-1 $917 $906 $908 $933 reversed $890 $-1 #
coedge $-1 -1 $-1 $919 $892 $905 $929 forward $876 $-1 #
edge $-1 -1 $-1 $920 0 $923 1.499999999999999112 $897 $935 forward @7 unknown #
coedge $-1 -1 $-1 $894 $893 $900 $926 reversed $865 $-1 #
coedge $-1 -1 $-1 $930 $913 $893 $918 reversed $890 $-1 #
edge $-1 -1 $-1 $921 0 $936 2.5 $893 $937 forward @7 unknown #
coedge $-1 -1 $-1 $895 $914 $930 $938 reversed $876 $-1 #
vertex $-1 -1 $-1 $915 $939 #
vertex $-1 -1 $-1 $896 $940 #
straight-curve $-1 -1 $-1 47 33.5 65 1 0 0 F 0 F 6.000000000000005329 #
vertex $-1 -1 $-1 $929 $941 #
straight-curve $-1 -1 $-1 47 35 34 0 0 -1 F -33.49999999999999289 F -30.99999999999999645 #
straight-curve $-1 -1 $-1 47 33.5 65 0 0 1 F 0 F 2.5 #
edge $-1 -1 $-1 $902 0 $936 6.000000000000005329 $916 $942 forward @7 unknown #
point $-1 -1 $-1 47 33.5 67.5 #
point $-1 -1 $-1 47 35 67.5 #
edge $-1 -1 $-1 $923 21 $931 27.00000000000000355 $905 $943 forward @7 unknown #
coedge $-1 -1 $-1 $906 $917 $919 $938 forward $890 $-1 #
vertex $-1 -1 $-1 $907 $944 #
straight-curve $-1 -1 $-1 53.00000000000000711 35 34 0 0 -1 F -33.49999999999999289 F -30.99999999999999645 #
edge $-1 -1 $-1 $936 0 $909 1.499999999999999112 $913 $945 forward @7 unknown #
point $-1 -1 $-1 53.00000000000000711 35 67.5 #
straight-curve $-1 -1 $-1 47 33.5 65 0 1 0 F 0 F 1.499999999999999112 #
vertex $-1 -1 $-1 $918 $946 #
straight-curve $-1 -1 $-1 53.00000000000000711 33.5 65 0 0 1 F 0 F 2.5 #
edge $-1 -1 $-1 $921 0 $931 1.499999999999999112 $919 $947 forward @7 unknown #
point $-1 -1 $-1 47 33.5 65 #
point $-1 -1 $-1 53.00000000000000711 33.5 65 #
point $-1 -1 $-1 47 35 65 #
straight-curve $-1 -1 $-1 47 33.5 67.5 1 0 0 F 0 F 6.000000000000005329 #
straight-curve $-1 -1 $-1 26 35 65 1 0 0 F 21 F 27.00000000000000355 #
point $-1 -1 $-1 53.00000000000000711 35 65 #
straight-curve $-1 -1 $-1 53.00000000000000711 33.5 67.5 0 1 0 F 0 F 1.499999999999999112 #
point $-1 -1 $-1 53.00000000000000711 33.5 67.5 #
straight-curve $-1 -1 $-1 53.00000000000000711 33.5 65 0 1 0 F 0 F 1.499999999999999112 #
End-of-ACIS-data 