700 0 1 0           
30 Autodesk Translation Framework 21 ASM 232.4.0.65535 OSX 24 Fri Sep  4 15:40:03 2026 
1 9.999999999999999547e-07 1.000000000000000036e-10 
body $1 -1 $-1 $2 $-1 $-1 #
rgb_color-st-attrib $-1 -1 $3 $-1 $0 0.627450980392156854 0.627450980392156854 0.627450980392156854 #
lump $-1 -1 $-1 $-1 $4 $0 #
ATTRIB_CUSTOM-attrib $-1 -1 $-1 $1 $0 @20 Timestamp_attrib_def 1 1788532802998497 #
shell $-1 -1 $-1 $-1 $-1 $5 $-1 $2 #
face $6 -1 $-1 $7 $8 $4 $-1 $9 reversed single #
DXID-attrib $-1 -1 $-1 $-1 $5 @10 ASM ENTITY @1 0 #
face $10 -1 $-1 $11 $12 $4 $-1 $13 reversed single #
loop $-1 -1 $-1 $-1 $14 $5 #
plane-surface $-1 -1 $-1 36.5 34 0.4500000000000000666 0 0 1 1 0 0 forward_v I I I I #
DXID-attrib $-1 -1 $-1 $-1 $7 @10 ASM ENTITY @1 1 #
face $15 -1 $-1 $16 $17 $4 $-1 $18 reversed single #
loop $-1 -1 $-1 $-1 $19 $7 #
plane-surface $-1 -1 $-1 33.89999999999999858 34 3.049999999999999822 0.7071067811865475727 0 0.7071067811865475727 0.7071067811865476838 0 -0.7071067811865476838 forward_v I I I I #
coedge $-1 -1 $-1 $20 $21 $22 $23 forward $8 $-1 #
DXID-attrib $-1 -1 $-1 $-1 $11 @10 ASM ENTITY @1 2 #
face $24 -1 $-1 $25 $26 $4 $-1 $27 forward single #
loop $-1 -1 $-1 $-1 $28 $11 #
plane-surface $-1 -1 $-1 66.09999999999999432 34 3.049999999999999822 -0 -0 -1 -1 0 0 forward_v I I I I #
coedge $-1 -1 $-1 $29 $30 $31 $32 reversed $12 $-1 #
coedge $-1 -1 $-1 $33 $14 $34 $35 reversed $8 $-1 #
coedge $-1 -1 $-1 $14 $36 $37 $38 reversed $8 $-1 #
coedge $-1 -1 $-1 $39 $40 $14 $23 reversed $41 $-1 #
edge $-1 -1 $-1 $42 0 $43 0.4999999999999982236 $14 $44 forward @7 unknown #
DXID-attrib $-1 -1 $-1 $-1 $16 @10 ASM ENTITY @1 3 #
face $45 -1 $-1 $46 $47 $4 $-1 $48 reversed single #
loop $-1 -1 $-1 $-1 $49 $16 #
plane-surface $-1 -1 $-1 47 7.000000000000000888 1.550000000000000266 1 0 0 0 0 1 forward_v I I I I #
coedge $-1 -1 $-1 $31 $50 $51 $52 forward $17 $-1 #
coedge $-1 -1 $-1 $37 $19 $39 $53 forward $12 $-1 #
coedge $-1 -1 $-1 $19 $37 $54 $55 reversed $12 $-1 #
coedge $-1 -1 $-1 $56 $28 $19 $32 forward $17 $-1 #
edge $-1 -1 $-1 $57 0 $58 26.50000000000000355 $19 $59 forward @7 unknown #
coedge $-1 -1 $-1 $60 $20 $61 $62 reversed $8 $-1 #
coedge $-1 -1 $-1 $63 $64 $20 $35 forward $65 $-1 #
edge $-1 -1 $-1 $66 -5 $43 5 $20 $67 forward @7 unknown #
coedge $-1 -1 $-1 $21 $68 $69 $70 reversed $8 $-1 #
coedge $-1 -1 $-1 $30 $29 $21 $38 forward $12 $-1 #
edge $-1 -1 $-1 $42 0 $71 26.50000000000000355 $21 $72 forward @7 unknown #
coedge $-1 -1 $-1 $51 $22 $29 $53 reversed $41 $-1 #
coedge $-1 -1 $-1 $22 $73 $63 $74 forward $41 $-1 #
loop $-1 -1 $-1 $75 $76 $77 #
vertex $-1 -1 $-1 $23 $78 #
vertex $-1 -1 $-1 $23 $79 #
straight-curve $-1 -1 $-1 36.5 34 0.4500000000000000666 1 0 0 F 0 F 0.4999999999999982236 #
DXID-attrib $-1 -1 $-1 $-1 $25 @10 ASM ENTITY @1 4 #
face $80 -1 $-1 $81 $82 $4 $-1 $83 reversed single #
loop $-1 -1 $-1 $-1 $84 $25 #
plane-surface $-1 -1 $-1 47 31.50000000000000355 -38 0 1 0 0 0 1 forward_v I I I I #
coedge $-1 -1 $-1 $85 $86 $87 $88 forward $26 $-1 #
coedge $-1 -1 $-1 $28 $56 $89 $90 forward $17 $-1 #
coedge $-1 -1 $-1 $91 $39 $28 $52 reversed $41 $-1 #
edge $-1 -1 $-1 $92 19.09999999999999076 $57 32.19999999999998863 $28 $93 forward @7 unknown #
edge $-1 -1 $-1 $57 0 $42 3.676955262167695082 $29 $94 forward @7 unknown #
coedge $-1 -1 $-1 $69 $95 $30 $55 forward $96 $-1 #
edge $-1 -1 $-1 $58 0 $71 3.676955262167695082 $30 $97 forward @7 unknown #
coedge $-1 -1 $-1 $50 $31 $95 $98 reversed $17 $-1 #
vertex $-1 -1 $-1 $32 $99 #
vertex $-1 -1 $-1 $32 $100 #
straight-curve $-1 -1 $-1 33.89999999999999858 34 3.049999999999999822 0 -1 0 F 0 F 26.50000000000000355 #
coedge $-1 -1 $-1 $101 $33 $102 $103 forward $8 $-1 #
coedge $-1 -1 $-1 $104 $105 $33 $62 forward $106 $-1 #
edge $-1 -1 $-1 $107 -26.25000000000000355 $66 -0.2499999999999991118 $33 $108 forward @7 unknown #
coedge $-1 -1 $-1 $109 $34 $40 $74 reversed $65 $-1 #
coedge $-1 -1 $-1 $34 $110 $104 $111 forward $65 $-1 #
loop $-1 -1 $-1 $-1 $64 $112 #
vertex $-1 -1 $-1 $35 $113 #
straight-curve $-1 -1 $-1 37 29.00000000000000355 0.4500000000000000666 0 1 0 F -5 F 5 #
coedge $-1 -1 $-1 $36 $101 $114 $115 forward $8 $-1 #
coedge $-1 -1 $-1 $116 $54 $36 $70 forward $96 $-1 #
edge $-1 -1 $-1 $71 0 $117 27 $36 $118 forward @7 unknown #
vertex $-1 -1 $-1 $70 $119 #
straight-curve $-1 -1 $-1 36.5 34 0.4500000000000000666 0 -1 0 F 0 F 26.50000000000000355 #
coedge $-1 -1 $-1 $40 $120 $121 $122 reversed $41 $-1 #
edge $-1 -1 $-1 $123 0 $43 40.44999999999999574 $63 $124 forward @7 unknown #
loop $-1 -1 $-1 $-1 $125 $77 #
coedge $-1 -1 $-1 $126 $127 $128 $129 reversed $41 $-1 #
face $130 -1 $-1 $-1 $41 $4 $-1 $131 reversed single #
point $-1 -1 $-1 36.5 34 0.4500000000000000666 #
point $-1 -1 $-1 37 34 0.4500000000000000666 #
DXID-attrib $-1 -1 $-1 $-1 $46 @10 ASM ENTITY @1 5 #
face $132 -1 $-1 $133 $134 $4 $-1 $135 reversed single #
loop $-1 -1 $-1 $-1 $136 $46 #
plane-surface $-1 -1 $-1 53.00000000000000711 7.000000000000000888 1.550000000000000266 1 0 0 0 0 1 forward_v I I I I #
coedge $-1 -1 $-1 $137 $138 $139 $140 forward $47 $-1 #
coedge $-1 -1 $-1 $89 $49 $91 $141 forward $26 $-1 #
coedge $-1 -1 $-1 $49 $142 $143 $144 forward $26 $-1 #
coedge $-1 -1 $-1 $145 $146 $49 $88 reversed $147 $-1 #
edge $-1 -1 $-1 $148 24.5 $149 27 $49 $150 forward @7 unknown #
coedge $-1 -1 $-1 $151 $85 $50 $90 reversed $26 $-1 #
edge $-1 -1 $-1 $152 0 $92 26.50000000000000355 $50 $153 forward @7 unknown #
coedge $-1 -1 $-1 $154 $51 $85 $141 reversed $41 $-1 #
vertex $-1 -1 $-1 $52 $155 #
straight-curve $-1 -1 $-1 66.09999999999999432 34 3.049999999999999822 -1 0 0 F 19.09999999999999076 F 32.19999999999998863 #
straight-curve $-1 -1 $-1 33.89999999999999858 34 3.049999999999999822 0.7071067811870000996 0 -0.7071067811870000996 F 0 F 3.676955262167695082 #
coedge $-1 -1 $-1 $54 $156 $56 $98 forward $96 $-1 #
loop $-1 -1 $-1 $-1 $54 $157 #
straight-curve $-1 -1 $-1 33.89999999999999858 7.5 3.049999999999999822 0.7071067811870000996 0 -0.7071067811870000996 F 0 F 3.676955262167695082 #
edge $-1 -1 $-1 $152 19.09999999999999076 $58 32.19999999999998863 $56 $158 forward @7 unknown #
point $-1 -1 $-1 33.89999999999999858 34 3.049999999999999822 #
point $-1 -1 $-1 33.89999999999999858 7.5 3.049999999999999822 #
coedge $-1 -1 $-1 $68 $60 $126 $159 forward $8 $-1 #
coedge $-1 -1 $-1 $160 $161 $60 $103 reversed $162 $-1 #
edge $-1 -1 $-1 $107 -5 $163 5 $60 $164 forward @7 unknown #
coedge $-1 -1 $-1 $165 $61 $64 $111 reversed $106 $-1 #
coedge $-1 -1 $-1 $61 $166 $160 $167 forward $106 $-1 #
loop $-1 -1 $-1 $-1 $105 $168 #
vertex $-1 -1 $-1 $62 $169 #
straight-curve $-1 -1 $-1 36.75 24.00000000000000355 0.4500000000000000666 -1 0 0 F -26.25000000000000355 F -0.2499999999999991118 #
coedge $-1 -1 $-1 $170 $63 $171 $172 forward $65 $-1 #
coedge $-1 -1 $-1 $64 $173 $174 $175 forward $65 $-1 #
edge $-1 -1 $-1 $176 8.000000000000001776 $66 30.46000000000000085 $104 $177 forward @7 unknown #
face $178 -1 $-1 $77 $65 $4 $-1 $179 reversed single #
point $-1 -1 $-1 37 24.00000000000000355 0.4500000000000000666 #
coedge $-1 -1 $-1 $128 $180 $68 $115 reversed $181 $-1 #
edge $-1 -1 $-1 $182 0 $117 26.50000000000000355 $68 $183 forward @7 unknown #
coedge $-1 -1 $-1 $184 $69 $180 $185 forward $96 $-1 #
vertex $-1 -1 $-1 $115 $186 #
straight-curve $-1 -1 $-1 36.5 7.5 0.4500000000000000666 1 0 0 F 0 F 27 #
point $-1 -1 $-1 36.5 7.5 0.4500000000000000666 #
coedge $-1 -1 $-1 $73 $126 $161 $187 forward $41 $-1 #
coedge $-1 -1 $-1 $188 $171 $73 $122 forward $189 $-1 #
edge $-1 -1 $-1 $123 0 $190 26.00000000000000355 $121 $191 forward @7 unknown #
vertex $-1 -1 $-1 $172 $192 #
straight-curve $-1 -1 $-1 37 34 -40 0 0 1 F 0 F 40.44999999999999574 #
coedge $-1 -1 $-1 $193 $194 $195 $196 forward $75 $-1 #
coedge $-1 -1 $-1 $120 $76 $101 $159 reversed $41 $-1 #
coedge $-1 -1 $-1 $76 $197 $198 $199 reversed $41 $-1 #
coedge $-1 -1 $-1 $200 $114 $76 $129 forward $181 $-1 #
edge $-1 -1 $-1 $182 0 $201 3.676955262167685312 $128 $202 forward @7 unknown #
DXID-attrib $-1 -1 $-1 $-1 $77 @10 ASM ENTITY @2 41 #
plane-surface $-1 -1 $-1 50 34 1.851571792652999981 -0 -1 -0 0 0 -1 forward_v I I I I #
DXID-attrib $-1 -1 $-1 $-1 $81 @10 ASM ENTITY @1 6 #
face $203 -1 $-1 $204 $205 $4 $-1 $206 reversed single #
loop $-1 -1 $-1 $-1 $198 $81 #
plane-surface $-1 -1 $-1 66.09999999999999432 34 3.049999999999999822 -0 -0 -1 -1 0 0 forward_v I I I I #
coedge $-1 -1 $-1 $139 $207 $208 $209 reversed $82 $-1 #
coedge $-1 -1 $-1 $143 $84 $145 $210 reversed $47 $-1 #
coedge $-1 -1 $-1 $84 $143 $211 $212 reversed $47 $-1 #
coedge $-1 -1 $-1 $213 $136 $84 $140 reversed $82 $-1 #
edge $-1 -1 $-1 $214 4.500000000000001776 $215 39.54999999999999716 $84 $216 forward @7 unknown #
edge $-1 -1 $-1 $149 -0.1507858963260000351 $92 1.349214103673999521 $85 $217 forward @7 unknown #
coedge $-1 -1 $-1 $86 $218 $219 $220 forward $26 $-1 #
coedge $-1 -1 $-1 $138 $137 $86 $144 reversed $47 $-1 #
edge $-1 -1 $-1 $221 4.500000000000001776 $148 39.54999999999999716 $86 $222 forward @7 unknown #
coedge $-1 -1 $-1 $208 $87 $137 $210 forward $147 $-1 #
coedge $-1 -1 $-1 $87 $208 $154 $223 forward $147 $-1 #
loop $-1 -1 $-1 $-1 $87 $224 #
vertex $-1 -1 $-1 $88 $225 #
vertex $-1 -1 $-1 $88 $226 #
straight-curve $-1 -1 $-1 47 7.000000000000000888 1.550000000000000266 0 1 0 F 24.5 F 27 #
coedge $-1 -1 $-1 $227 $89 $156 $228 reversed $26 $-1 #
vertex $-1 -1 $-1 $98 $229 #
straight-curve $-1 -1 $-1 47 7.5 3.049999999999999822 0 1 0 F 0 F 26.50000000000000355 #
coedge $-1 -1 $-1 $197 $91 $146 $223 reversed $41 $-1 #
point $-1 -1 $-1 47 34 3.049999999999999822 #
coedge $-1 -1 $-1 $95 $230 $151 $228 forward $96 $-1 #
face $231 -1 $-1 $232 $96 $4 $-1 $233 forward single #
straight-curve $-1 -1 $-1 66.09999999999999432 7.5 3.049999999999999822 -1 0 0 F 19.09999999999999076 F 32.19999999999998863 #
edge $-1 -1 $-1 $163 26.50000000000000355 $182 27 $101 $234 forward @7 unknown #
coedge $-1 -1 $-1 $235 $102 $105 $167 reversed $162 $-1 #
coedge $-1 -1 $-1 $102 $236 $120 $187 reversed $162 $-1 #
loop $-1 -1 $-1 $-1 $160 $237 #
vertex $-1 -1 $-1 $103 $238 #
straight-curve $-1 -1 $-1 63.00000000000000711 29.00000000000000355 0.4500000000000000666 0 1 0 F -5 F 5 #
coedge $-1 -1 $-1 $239 $104 $240 $241 forward $106 $-1 #
coedge $-1 -1 $-1 $105 $242 $243 $244 forward $106 $-1 #
edge $-1 -1 $-1 $245 8.000000000000001776 $107 30.46000000000000085 $160 $246 forward @7 unknown #
face $247 -1 $-1 $112 $106 $4 $-1 $248 reversed single #
point $-1 -1 $-1 63.00000000000000711 24.00000000000000355 0.4500000000000000666 #
coedge $-1 -1 $-1 $249 $109 $250 $251 forward $65 $-1 #
coedge $-1 -1 $-1 $121 $252 $109 $172 reversed $189 $-1 #
edge $-1 -1 $-1 $123 0 $253 59 $171 $254 forward @7 unknown #
coedge $-1 -1 $-1 $110 $255 $256 $257 forward $65 $-1 #
coedge $-1 -1 $-1 $258 $240 $110 $175 reversed $259 $-1 #
edge $-1 -1 $-1 $260 0.01414213562372504916 $176 11.31370849897752073 $174 $261 forward @7 unknown #
vertex $-1 -1 $-1 $175 $262 #
straight-curve $-1 -1 $-1 37 24.00000000000000355 -30.01000000000000512 0 0 1 F 8.000000000000001776 F 30.46000000000000085 #
DXID-attrib $-1 -1 $-1 $-1 $112 @10 ASM ENTITY @2 40 #
plane-surface $-1 -1 $-1 37 24.00000000000000355 -30.01000000000000512 1 0 0 0 0 1 forward_v I I I I #
coedge $-1 -1 $-1 $114 $200 $116 $185 reversed $181 $-1 #
loop $-1 -1 $-1 $-1 $114 $232 #
vertex $-1 -1 $-1 $159 $263 #
straight-curve $-1 -1 $-1 63.50000000000000711 34 0.4500000000000000666 0 -1 0 F 0 F 26.50000000000000355 #
coedge $-1 -1 $-1 $264 $116 $265 $266 forward $96 $-1 #
edge $-1 -1 $-1 $117 0 $267 3.676955262167685312 $116 $268 forward @7 unknown #
point $-1 -1 $-1 63.50000000000000711 7.5 0.4500000000000000666 #
edge $-1 -1 $-1 $163 0 $190 40.44999999999999574 $161 $269 forward @7 unknown #
coedge $-1 -1 $-1 $252 $121 $236 $270 reversed $189 $-1 #
loop $-1 -1 $-1 $-1 $171 $271 #
vertex $-1 -1 $-1 $270 $272 #
straight-curve $-1 -1 $-1 37 34 -40 1 0 0 F 0 F 26.00000000000000355 #
point $-1 -1 $-1 37 34 -40 #
coedge $-1 -1 $-1 $273 $125 $274 $275 forward $75 $-1 #
coedge $-1 -1 $-1 $125 $276 $277 $278 reversed $75 $-1 #
coedge $-1 -1 $-1 $279 $280 $125 $196 reversed $281 $-1 #
edge $-1 -1 $-1 $282 -19.17578589633000163 $283 -16.17578589633000163 $195 $284 forward @7 unknown #
coedge $-1 -1 $-1 $127 $154 $207 $285 forward $41 $-1 #
coedge $-1 -1 $-1 $286 $287 $127 $199 forward $134 $-1 #
edge $-1 -1 $-1 $201 0 $288 13.09999999999998721 $198 $289 forward @7 unknown #
coedge $-1 -1 $-1 $180 $128 $287 $290 forward $181 $-1 #
vertex $-1 -1 $-1 $199 $291 #
straight-curve $-1 -1 $-1 63.50000000000000711 34 0.4500000000000000666 0.7071067811870000996 0 0.7071067811870000996 F 0 F 3.676955262167685312 #
DXID-attrib $-1 -1 $-1 $-1 $133 @10 ASM ENTITY @1 7 #
face $292 -1 $-1 $293 $281 $4 $-1 $294 reversed single #
loop $-1 -1 $-1 $295 $296 $133 #
plane-surface $-1 -1 $-1 45.70000000000000284 -6.299999999999999822 -33.5 0 0 1 1 0 0 forward_v I I I I #
coedge $-1 -1 $-1 $136 $297 $197 $285 reversed $82 $-1 #
coedge $-1 -1 $-1 $146 $145 $136 $209 forward $147 $-1 #
edge $-1 -1 $-1 $215 24.5 $298 27 $136 $299 forward @7 unknown #
edge $-1 -1 $-1 $148 0 $215 6.000000000000005329 $137 $300 forward @7 unknown #
coedge $-1 -1 $-1 $219 $301 $138 $212 forward $295 $-1 #
edge $-1 -1 $-1 $214 -6.650000000000000355 $221 -0.6499999999999950262 $138 $302 forward @7 unknown #
coedge $-1 -1 $-1 $303 $139 $301 $304 reversed $82 $-1 #
vertex $-1 -1 $-1 $140 $305 #
vertex $-1 -1 $-1 $140 $306 #
straight-curve $-1 -1 $-1 53.00000000000000711 31.50000000000000355 -38 0 0 1 F 4.500000000000001776 F 39.54999999999999716 #
straight-curve $-1 -1 $-1 47 34 1.700785896326000302 0 0 1 F -0.1507858963260000351 F 1.349214103673999521 #
coedge $-1 -1 $-1 $142 $227 $307 $308 reversed $26 $-1 #
coedge $-1 -1 $-1 $309 $211 $142 $220 reversed $295 $-1 #
edge $-1 -1 $-1 $310 16.40000000000000213 $221 21.40000000000000568 $142 $311 forward @7 unknown #
vertex $-1 -1 $-1 $220 $312 #
straight-curve $-1 -1 $-1 47 31.50000000000000355 -38 0 0 1 F 4.500000000000001776 F 39.54999999999999716 #
edge $-1 -1 $-1 $298 -4.500000000000001776 $149 1.500000000000003553 $146 $313 forward @7 unknown #
face $314 -1 $-1 $157 $147 $4 $-1 $315 forward single #
point $-1 -1 $-1 47 31.50000000000000355 1.550000000000000266 #
point $-1 -1 $-1 47 34 1.550000000000000266 #
coedge $-1 -1 $-1 $218 $151 $316 $317 forward $26 $-1 #
edge $-1 -1 $-1 $318 -0.1507858963260000351 $152 1.349214103673999521 $151 $319 forward @7 unknown #
point $-1 -1 $-1 47 7.5 3.049999999999999822 #
coedge $-1 -1 $-1 $156 $264 $320 $321 forward $96 $-1 #
DXID-attrib $-1 -1 $-1 $-1 $157 @10 ASM ENTITY @2 19 #
face $322 -1 $-1 $237 $181 $4 $-1 $323 reversed single #
plane-surface $-1 -1 $-1 50 7.5 1.851571792652999981 -0 -1 -0 0 0 -1 forward_v I I I I #
straight-curve $-1 -1 $-1 36.5 34 0.4500000000000000666 1 0 0 F 26.50000000000000355 F 27 #
coedge $-1 -1 $-1 $324 $160 $325 $326 reversed $162 $-1 #
coedge $-1 -1 $-1 $161 $327 $188 $270 forward $162 $-1 #
face $328 -1 $-1 $329 $162 $4 $-1 $330 forward single #
point $-1 -1 $-1 63.00000000000000711 34 0.4500000000000000666 #
coedge $-1 -1 $-1 $331 $165 $332 $333 reversed $106 $-1 #
coedge $-1 -1 $-1 $174 $334 $165 $241 reversed $259 $-1 #
edge $-1 -1 $-1 $176 0 $335 2.000000000000001776 $240 $336 forward @7 unknown #
coedge $-1 -1 $-1 $166 $331 $337 $338 forward $106 $-1 #
coedge $-1 -1 $-1 $339 $325 $166 $244 reversed $340 $-1 #
edge $-1 -1 $-1 $341 12.00000000000000178 $245 14.00000000000000355 $243 $342 forward @7 unknown #
vertex $-1 -1 $-1 $167 $343 #
straight-curve $-1 -1 $-1 63.00000000000000711 24.00000000000000355 -30.01000000000000512 0 0 1 F 8.000000000000001776 F 30.46000000000000085 #
DXID-attrib $-1 -1 $-1 $-1 $168 @10 ASM ENTITY @2 39 #
plane-surface $-1 -1 $-1 37 24.00000000000000355 -30.01000000000000512 0 1 0 0 0 1 forward_v I I I I #
coedge $-1 -1 $-1 $344 $170 $345 $346 forward $65 $-1 #
coedge $-1 -1 $-1 $347 $348 $170 $251 reversed $349 $-1 #
edge $-1 -1 $-1 $253 0 $350 30 $250 $351 forward @7 unknown #
coedge $-1 -1 $-1 $171 $188 $347 $352 reversed $189 $-1 #
vertex $-1 -1 $-1 $352 $353 #
straight-curve $-1 -1 $-1 37 34 -40 0 -1 0 F 0 F 59 #
coedge $-1 -1 $-1 $173 $354 $355 $356 forward $65 $-1 #
coedge $-1 -1 $-1 $357 $358 $173 $257 reversed $359 $-1 #
edge $-1 -1 $-1 $360 30 $260 41.00999999999999801 $256 $361 forward @7 unknown #
coedge $-1 -1 $-1 $334 $174 $358 $362 forward $259 $-1 #
loop $-1 -1 $-1 $-1 $174 $363 #
vertex $-1 -1 $-1 $257 $364 #
straight-curve $-1 -1 $-1 37 16 -30.01000000000000512 0 0.7071067811870000996 0.7071067811870000996 F 0.01414213562372504916 F 11.31370849897752073 #
point $-1 -1 $-1 37 24.00000000000000355 -22.01000000000000156 #
point $-1 -1 $-1 63.50000000000000711 34 0.4500000000000000666 #
coedge $-1 -1 $-1 $230 $184 $365 $366 reversed $96 $-1 #
coedge $-1 -1 $-1 $287 $286 $184 $266 reversed $134 $-1 #
edge $-1 -1 $-1 $267 0 $367 13.09999999999998721 $265 $368 forward @7 unknown #
vertex $-1 -1 $-1 $266 $369 #
straight-curve $-1 -1 $-1 63.50000000000000711 7.5 0.4500000000000000666 0.7071067811870000996 0 0.7071067811870000996 F 0 F 3.676955262167685312 #
straight-curve $-1 -1 $-1 63.00000000000000711 34 0.4500000000000000666 0 0 -1 F 0 F 40.44999999999999574 #
edge $-1 -1 $-1 $370 0 $190 59 $236 $371 forward @7 unknown #
face $372 -1 $-1 $168 $189 $4 $-1 $373 reversed single #
point $-1 -1 $-1 63.00000000000000711 34 -40 #
coedge $-1 -1 $-1 $374 $193 $375 $376 reversed $75 $-1 #
coedge $-1 -1 $-1 $377 $296 $193 $275 reversed $205 $-1 #
edge $-1 -1 $-1 $283 0 $378 8.599999999999994316 $274 $379 forward @7 unknown #
coedge $-1 -1 $-1 $194 $380 $381 $382 forward $75 $-1 #
coedge $-1 -1 $-1 $383 $384 $194 $278 forward $385 $-1 #
edge $-1 -1 $-1 $282 -6.449999999999995737 $386 -5.150000000000005684 $277 $387 forward @7 unknown #
coedge $-1 -1 $-1 $388 $195 $384 $389 reversed $281 $-1 #
coedge $-1 -1 $-1 $195 $388 $377 $390 forward $281 $-1 #
loop $-1 -1 $-1 $-1 $280 $204 #
vertex $-1 -1 $-1 $196 $391 #
vertex $-1 -1 $-1 $275 $392 #
straight-curve $-1 -1 $-1 54.29999999999999716 34 -17.32421410366999837 0 0 1 F -19.17578589633000163 F -16.17578589633000163 #
edge $-1 -1 $-1 $298 -0.1507858963260000351 $288 1.349214103673999521 $207 $393 forward @7 unknown #
coedge $-1 -1 $-1 $265 $198 $297 $394 reversed $134 $-1 #
coedge $-1 -1 $-1 $198 $265 $200 $290 reversed $134 $-1 #
vertex $-1 -1 $-1 $394 $395 #
straight-curve $-1 -1 $-1 66.09999999999999432 34 3.049999999999999822 -1 0 0 F 0 F 13.09999999999998721 #
edge $-1 -1 $-1 $201 0 $267 26.50000000000000355 $287 $396 forward @7 unknown #
point $-1 -1 $-1 66.09999999999999432 34 3.049999999999999822 #
DXID-attrib $-1 -1 $-1 $-1 $204 @10 ASM ENTITY @1 8 #
face $397 -1 $-1 $398 $385 $4 $-1 $399 forward single #
plane-surface $-1 -1 $-1 54.29999999999999716 -6.299999999999999822 -36.5 1 0 0 0 0 1 forward_v I I I I #
loop $-1 -1 $-1 $-1 $309 $133 #
coedge $-1 -1 $-1 $274 $400 $401 $402 forward $205 $-1 #
coedge $-1 -1 $-1 $207 $365 $286 $394 forward $82 $-1 #
vertex $-1 -1 $-1 $209 $403 #
straight-curve $-1 -1 $-1 53.00000000000000711 7.000000000000000888 1.550000000000000266 0 1 0 F 24.5 F 27 #
straight-curve $-1 -1 $-1 47 31.50000000000000355 1.550000000000000266 1 0 0 F 0 F 6.000000000000005329 #
coedge $-1 -1 $-1 $211 $309 $213 $304 forward $295 $-1 #
straight-curve $-1 -1 $-1 46.35000000000000853 31.50000000000000355 -33.5 -1 0 0 F -6.650000000000000355 F -0.6499999999999950262 #
coedge $-1 -1 $-1 $404 $213 $405 $406 forward $82 $-1 #
edge $-1 -1 $-1 $407 16.40000000000000213 $214 21.40000000000000568 $213 $408 forward @7 unknown #
point $-1 -1 $-1 53.00000000000000711 31.50000000000000355 -33.5 #
point $-1 -1 $-1 53.00000000000000711 31.50000000000000355 1.550000000000000266 #
coedge $-1 -1 $-1 $409 $410 $218 $308 forward $411 $-1 #
edge $-1 -1 $-1 $310 4.500000000000001776 $412 39.54999999999999716 $218 $413 forward @7 unknown #
coedge $-1 -1 $-1 $301 $219 $410 $414 reversed $295 $-1 #
vertex $-1 -1 $-1 $308 $415 #
straight-curve $-1 -1 $-1 47 10.09999999999999964 -33.5 0 1 0 F 16.40000000000000213 F 21.40000000000000568 #
point $-1 -1 $-1 47 31.50000000000000355 -33.5 #
straight-curve $-1 -1 $-1 48.50000000000000711 34 1.550000000000000266 -1 0 0 F -4.500000000000001776 F 1.500000000000003553 #
DXID-attrib $-1 -1 $-1 $-1 $224 @10 ASM ENTITY @2 18 #
plane-surface $-1 -1 $-1 47 7.000000000000000888 1.550000000000000266 0 0 1 1 0 0 forward_v I I I I #
coedge $-1 -1 $-1 $320 $416 $227 $317 reversed $417 $-1 #
edge $-1 -1 $-1 $318 0.4999999999999993339 $412 19.5 $227 $418 forward @7 unknown #
vertex $-1 -1 $-1 $228 $419 #
straight-curve $-1 -1 $-1 47 7.5 1.700785896326000302 0 0 1 F -0.1507858963260000351 F 1.349214103673999521 #
coedge $-1 -1 $-1 $420 $316 $230 $321 reversed $417 $-1 #
edge $-1 -1 $-1 $421 -4.500000000000001776 $318 1.500000000000003553 $320 $422 forward @7 unknown #
DXID-attrib $-1 -1 $-1 $-1 $232 @10 ASM ENTITY @2 20 #
plane-surface $-1 -1 $-1 63.50000000000000711 34 0.4500000000000000666 -0.7071067811865475727 0 0.7071067811865475727 0.7071067811865476838 0 0.7071067811865476838 forward_v I I I I #
coedge $-1 -1 $-1 $423 $235 $424 $425 reversed $162 $-1 #
coedge $-1 -1 $-1 $243 $426 $235 $326 forward $340 $-1 #
edge $-1 -1 $-1 $427 0.01414213562372504916 $245 11.31370849897752073 $235 $428 forward @7 unknown #
coedge $-1 -1 $-1 $236 $429 $430 $431 forward $162 $-1 #
DXID-attrib $-1 -1 $-1 $-1 $237 @10 ASM ENTITY @2 21 #
face $432 -1 $-1 $433 $340 $4 $-1 $434 forward single #
plane-surface $-1 -1 $-1 63.00000000000000711 24.00000000000000355 -30.01000000000000512 1 0 0 0 0 1 forward_v I I I I #
coedge $-1 -1 $-1 $242 $239 $435 $436 forward $106 $-1 #
coedge $-1 -1 $-1 $437 $438 $239 $333 forward $439 $-1 #
edge $-1 -1 $-1 $440 -1.405981329329999419 $335 6.584018670669999906 $332 $441 forward @7 unknown #
coedge $-1 -1 $-1 $240 $258 $437 $442 forward $259 $-1 #
vertex $-1 -1 $-1 $333 $443 #
straight-curve $-1 -1 $-1 37 24.00000000000000355 -22.01000000000000156 1 0 0 F 0 F 2.000000000000001776 #
coedge $-1 -1 $-1 $444 $445 $242 $338 reversed $446 $-1 #
edge $-1 -1 $-1 $447 -1.405981329329999419 $341 6.584018670669999906 $337 $448 forward @7 unknown #
coedge $-1 -1 $-1 $426 $243 $445 $449 reversed $340 $-1 #
loop $-1 -1 $-1 $-1 $339 $329 #
vertex $-1 -1 $-1 $449 $450 #
straight-curve $-1 -1 $-1 49 24.00000000000000355 -22.01000000000000156 1 0 0 F 12.00000000000000178 F 14.00000000000000355 #
point $-1 -1 $-1 63.00000000000000711 24.00000000000000355 -22.01000000000000156 #
coedge $-1 -1 $-1 $451 $249 $452 $453 reversed $65 $-1 #
coedge $-1 -1 $-1 $454 $455 $249 $346 reversed $456 $-1 #
edge $-1 -1 $-1 $350 0 $457 8.999999999999998224 $345 $458 forward @7 unknown #
coedge $-1 -1 $-1 $430 $250 $252 $352 forward $349 $-1 #
coedge $-1 -1 $-1 $250 $430 $454 $459 reversed $349 $-1 #
loop $-1 -1 $-1 $-1 $347 $460 #
vertex $-1 -1 $-1 $346 $461 #
straight-curve $-1 -1 $-1 37 -25 -40 0 0 1 F 0 F 30 #
edge $-1 -1 $-1 $253 0 $370 26.00000000000000355 $347 $462 forward @7 unknown #
point $-1 -1 $-1 37 -25 -40 #
coedge $-1 -1 $-1 $255 $463 $464 $465 reversed $65 $-1 #
coedge $-1 -1 $-1 $466 $467 $255 $356 reversed $468 $-1 #
edge $-1 -1 $-1 $469 -0.9949999999999992184 $360 1.005000000000002558 $355 $470 forward @7 unknown #
coedge $-1 -1 $-1 $424 $256 $467 $471 reversed $359 $-1 #
coedge $-1 -1 $-1 $256 $472 $258 $362 reversed $359 $-1 #
loop $-1 -1 $-1 $-1 $256 $473 #
vertex $-1 -1 $-1 $257 $474 #
straight-curve $-1 -1 $-1 37 -25 -30 0 1 0 F 30 F 41.00999999999999801 #
edge $-1 -1 $-1 $260 0 $475 2.000000000000001776 $358 $476 forward @7 unknown #
face $477 -1 $-1 $478 $259 $4 $-1 $479 forward single #
point $-1 -1 $-1 37 16.01000000000000156 -30 #
coedge $-1 -1 $-1 $297 $404 $264 $366 forward $82 $-1 #
edge $-1 -1 $-1 $421 -0.1507858963260000351 $367 1.349214103673999521 $365 $480 forward @7 unknown #
vertex $-1 -1 $-1 $366 $481 #
straight-curve $-1 -1 $-1 66.09999999999999432 7.5 3.049999999999999822 -1 0 0 F 0 F 13.09999999999998721 #
point $-1 -1 $-1 66.09999999999999432 7.5 3.049999999999999822 #
vertex $-1 -1 $-1 $431 $482 #
straight-curve $-1 -1 $-1 63.00000000000000711 -25 -40 0 1 0 F 0 F 59 #
DXID-attrib $-1 -1 $-1 $-1 $271 @10 ASM ENTITY @2 38 #
plane-surface $-1 -1 $-1 37 -25 -40 0 0 1 1 0 0 forward_v I I I I #
coedge $-1 -1 $-1 $483 $273 $484 $485 reversed $75 $-1 #
coedge $-1 -1 $-1 $401 $486 $273 $376 forward $487 $-1 #
edge $-1 -1 $-1 $488 -19.17578589633000163 $378 -16.17578589633000163 $375 $489 forward @7 unknown #
coedge $-1 -1 $-1 $400 $274 $280 $390 reversed $205 $-1 #
vertex $-1 -1 $-1 $402 $490 #
straight-curve $-1 -1 $-1 54.29999999999999716 34 -33.5 -1 0 0 F 0 F 8.599999999999994316 #
coedge $-1 -1 $-1 $276 $483 $491 $492 reversed $75 $-1 #
coedge $-1 -1 $-1 $493 $494 $276 $382 reversed $495 $-1 #
edge $-1 -1 $-1 $496 -19.92578589633000163 $386 -18.42578589633000519 $381 $497 forward @7 unknown #
coedge $-1 -1 $-1 $498 $277 $494 $499 forward $385 $-1 #
coedge $-1 -1 $-1 $277 $500 $279 $389 forward $385 $-1 #
loop $-1 -1 $-1 $-1 $501 $293 #
vertex $-1 -1 $-1 $278 $502 #
straight-curve $-1 -1 $-1 47.85000000000000142 34 -36.5 -1 0 0 F -6.449999999999995737 F -5.150000000000005684 #
coedge $-1 -1 $-1 $280 $279 $503 $504 forward $281 $-1 #
edge $-1 -1 $-1 $505 0 $282 40.29999999999999716 $279 $506 forward @7 unknown #
edge $-1 -1 $-1 $507 0 $283 40.29999999999999716 $377 $508 forward @7 unknown #
point $-1 -1 $-1 54.29999999999999716 34 -36.5 #
point $-1 -1 $-1 54.29999999999999716 34 -33.5 #
straight-curve $-1 -1 $-1 53.00000000000000711 34 1.700785896326000302 0 0 1 F -0.1507858963260000351 F 1.349214103673999521 #
edge $-1 -1 $-1 $367 0 $288 26.50000000000000355 $297 $509 forward @7 unknown #
point $-1 -1 $-1 53.00000000000000711 34 3.049999999999999822 #
straight-curve $-1 -1 $-1 66.09999999999999432 34 3.049999999999999822 0 -1 0 F 0 F 26.50000000000000355 #
DXID-attrib $-1 -1 $-1 $-1 $293 @10 ASM ENTITY @1 9 #
face $510 -1 $-1 $511 $512 $4 $-1 $513 forward single #
plane-surface $-1 -1 $-1 45.70000000000000284 -6.299999999999999822 -36.5 0 0 1 1 0 0 forward_v I I I I #
coedge $-1 -1 $-1 $296 $377 $514 $515 reversed $205 $-1 #
coedge $-1 -1 $-1 $516 $375 $296 $402 reversed $487 $-1 #
edge $-1 -1 $-1 $517 0 $378 40.29999999999999716 $296 $518 forward @7 unknown #
point $-1 -1 $-1 53.00000000000000711 34 1.550000000000000266 #
coedge $-1 -1 $-1 $365 $303 $420 $519 reversed $82 $-1 #
coedge $-1 -1 $-1 $410 $409 $303 $406 reversed $411 $-1 #
edge $-1 -1 $-1 $407 4.500000000000001776 $520 39.54999999999999716 $303 $521 forward @7 unknown #
vertex $-1 -1 $-1 $304 $522 #
straight-curve $-1 -1 $-1 53.00000000000000711 10.09999999999999964 -33.5 0 1 0 F 16.40000000000000213 F 21.40000000000000568 #
coedge $-1 -1 $-1 $405 $307 $416 $523 forward $411 $-1 #
coedge $-1 -1 $-1 $307 $405 $309 $414 forward $411 $-1 #
loop $-1 -1 $-1 $-1 $405 $524 #
vertex $-1 -1 $-1 $317 $525 #
straight-curve $-1 -1 $-1 47 26.50000000000000355 -38 0 0 1 F 4.500000000000001776 F 39.54999999999999716 #
edge $-1 -1 $-1 $407 -6.650000000000000355 $310 -0.6499999999999950262 $309 $526 forward @7 unknown #
point $-1 -1 $-1 47 26.50000000000000355 -33.5 #
coedge $-1 -1 $-1 $316 $420 $409 $523 reversed $417 $-1 #
loop $-1 -1 $-1 $-1 $416 $527 #
straight-curve $-1 -1 $-1 47 7.000000000000000888 1.550000000000000266 0 1 0 F 0.4999999999999993339 F 19.5 #
point $-1 -1 $-1 47 7.5 1.550000000000000266 #
coedge $-1 -1 $-1 $416 $320 $404 $519 forward $417 $-1 #
vertex $-1 -1 $-1 $519 $528 #
straight-curve $-1 -1 $-1 48.50000000000000711 7.5 1.550000000000000266 -1 0 0 F -4.500000000000001776 F 1.500000000000003553 #
coedge $-1 -1 $-1 $529 $324 $530 $531 reversed $162 $-1 #
coedge $-1 -1 $-1 $532 $357 $324 $425 forward $359 $-1 #
edge $-1 -1 $-1 $533 30 $427 41.00999999999999801 $324 $534 forward @7 unknown #
coedge $-1 -1 $-1 $325 $339 $532 $535 forward $340 $-1 #
vertex $-1 -1 $-1 $326 $536 #
straight-curve $-1 -1 $-1 63.00000000000000711 16 -30.01000000000000512 0 0.7071067811870000996 0.7071067811870000996 F 0.01414213562372504916 F 11.31370849897752073 #
coedge $-1 -1 $-1 $327 $537 $538 $539 reversed $162 $-1 #
coedge $-1 -1 $-1 $348 $347 $327 $431 reversed $349 $-1 #
edge $-1 -1 $-1 $540 0 $370 30 $327 $541 forward @7 unknown #
DXID-attrib $-1 -1 $-1 $-1 $329 @10 ASM ENTITY @2 22 #
face $542 -1 $-1 $473 $446 $4 $-1 $543 forward single #
plane-surface $-1 -1 $-1 61.00000000000000711 16 -30.01000000000000512 0 -0.7071067811865475727 0.7071067811865475727 0 0.7071067811865476838 0.7071067811865476838 forward_v I I I I #
coedge $-1 -1 $-1 $472 $544 $331 $436 reversed $359 $-1 #
edge $-1 -1 $-1 $440 2.000000000000001776 $447 24.00000000000000355 $435 $545 forward @7 unknown #
coedge $-1 -1 $-1 $438 $332 $334 $442 reversed $439 $-1 #
coedge $-1 -1 $-1 $332 $437 $472 $546 reversed $439 $-1 #
loop $-1 -1 $-1 $-1 $438 $547 #
vertex $-1 -1 $-1 $436 $548 #
straight-curve $-1 -1 $-1 39 24.00000000000000355 -28.59401867066999969 0 0 1 F -1.405981329329999419 F 6.584018670669999906 #
edge $-1 -1 $-1 $475 0.01414213562372504916 $335 11.31370849897752073 $437 $549 forward @7 unknown #
point $-1 -1 $-1 39 24.00000000000000355 -22.01000000000000156 #
coedge $-1 -1 $-1 $445 $337 $544 $550 forward $446 $-1 #
coedge $-1 -1 $-1 $337 $444 $339 $449 forward $446 $-1 #
loop $-1 -1 $-1 $-1 $444 $433 #
vertex $-1 -1 $-1 $550 $551 #
straight-curve $-1 -1 $-1 61.00000000000000711 24.00000000000000355 -28.59401867066999969 0 0 1 F -1.405981329329999419 F 6.584018670669999906 #
edge $-1 -1 $-1 $552 0.01414213562372504916 $341 11.31370849897752073 $339 $553 forward @7 unknown #
point $-1 -1 $-1 61.00000000000000711 24.00000000000000355 -22.01000000000000156 #
coedge $-1 -1 $-1 $463 $344 $554 $555 reversed $65 $-1 #
coedge $-1 -1 $-1 $556 $557 $344 $453 forward $558 $-1 #
edge $-1 -1 $-1 $559 17.98999999999999844 $457 30 $452 $560 forward @7 unknown #
coedge $-1 -1 $-1 $538 $345 $348 $459 forward $456 $-1 #
coedge $-1 -1 $-1 $345 $538 $556 $561 reversed $456 $-1 #
loop $-1 -1 $-1 $-1 $345 $562 #
vertex $-1 -1 $-1 $453 $563 #
straight-curve $-1 -1 $-1 37 -25 -10 0 1 0 F 0 F 8.999999999999998224 #
edge $-1 -1 $-1 $350 0 $540 26.00000000000000355 $454 $564 forward @7 unknown #
face $565 -1 $-1 $271 $349 $4 $-1 $566 reversed single #
point $-1 -1 $-1 37 -25 -10 #
straight-curve $-1 -1 $-1 37 -25 -40 1 0 0 F 0 F 26.00000000000000355 #
coedge $-1 -1 $-1 $354 $451 $567 $568 reversed $65 $-1 #
coedge $-1 -1 $-1 $569 $570 $354 $465 forward $571 $-1 #
edge $-1 -1 $-1 $469 2.5 $572 16.49999999999999645 $464 $573 forward @7 unknown #
coedge $-1 -1 $-1 $530 $355 $570 $574 forward $468 $-1 #
coedge $-1 -1 $-1 $355 $530 $357 $471 forward $468 $-1 #
loop $-1 -1 $-1 $-1 $466 $478 #
vertex $-1 -1 $-1 $574 $575 #
straight-curve $-1 -1 $-1 37 5 -31.00500000000000256 0 0 1 F -0.9949999999999992184 F 1.005000000000002558 #
edge $-1 -1 $-1 $533 -26.50000000000000355 $360 -0.4999999999999982236 $357 $576 forward @7 unknown #
coedge $-1 -1 $-1 $358 $435 $438 $546 forward $359 $-1 #
face $577 -1 $-1 $547 $359 $4 $-1 $578 forward single #
point $-1 -1 $-1 37 5 -30 #
vertex $-1 -1 $-1 $546 $579 #
straight-curve $-1 -1 $-1 37 16.01000000000000156 -30 1 0 0 F 0 F 2.000000000000001776 #
DXID-attrib $-1 -1 $-1 $-1 $363 @10 ASM ENTITY @2 26 #
face $580 -1 $-1 $581 $468 $4 $-1 $582 reversed single #
plane-surface $-1 -1 $-1 37 16 -30.01000000000000512 0 -0.7071067811865475727 0.7071067811865475727 0 0.7071067811865476838 0.7071067811865476838 forward_v I I I I #
straight-curve $-1 -1 $-1 53.00000000000000711 7.5 1.700785896326000302 0 0 1 F -0.1507858963260000351 F 1.349214103673999521 #
point $-1 -1 $-1 53.00000000000000711 7.5 3.049999999999999822 #
point $-1 -1 $-1 63.00000000000000711 -25 -40 #
coedge $-1 -1 $-1 $380 $374 $583 $584 reversed $75 $-1 #
coedge $-1 -1 $-1 $501 $585 $374 $485 forward $385 $-1 #
edge $-1 -1 $-1 $586 0.8499999999999996447 $488 2.149999999999998579 $484 $587 forward @7 unknown #
coedge $-1 -1 $-1 $375 $516 $501 $588 forward $487 $-1 #
loop $-1 -1 $-1 $-1 $401 $589 #
vertex $-1 -1 $-1 $588 $590 #
straight-curve $-1 -1 $-1 45.70000000000000284 34 -17.32421410366999837 0 0 1 F -19.17578589633000163 F -16.17578589633000163 #
point $-1 -1 $-1 45.70000000000000284 34 -33.5 #
coedge $-1 -1 $-1 $591 $592 $380 $492 forward $593 $-1 #
edge $-1 -1 $-1 $496 -4.500000000000001776 $594 1.500000000000003553 $491 $595 forward @7 unknown #
coedge $-1 -1 $-1 $596 $381 $592 $597 forward $495 $-1 #
coedge $-1 -1 $-1 $381 $596 $383 $499 reversed $495 $-1 #
loop $-1 -1 $-1 $-1 $494 $598 #
vertex $-1 -1 $-1 $597 $599 #
straight-curve $-1 -1 $-1 53.00000000000000711 34 -18.07421410366999837 0 0 1 F -19.92578589633000163 F -18.42578589633000519 #
coedge $-1 -1 $-1 $585 $383 $600 $601 forward $385 $-1 #
edge $-1 -1 $-1 $386 0 $602 29.00000000000000355 $383 $603 forward @7 unknown #
coedge $-1 -1 $-1 $384 $501 $604 $605 forward $385 $-1 #
coedge $-1 -1 $-1 $500 $484 $486 $588 reversed $385 $-1 #
point $-1 -1 $-1 53.00000000000000711 34 -36.5 #
coedge $-1 -1 $-1 $604 $514 $388 $504 reversed $606 $-1 #
edge $-1 -1 $-1 $505 0 $507 3.000000000000002665 $388 $607 forward @7 unknown #
vertex $-1 -1 $-1 $389 $608 #
straight-curve $-1 -1 $-1 54.29999999999999716 -6.299999999999999822 -36.5 0 1 0 F 0 F 40.29999999999999716 #
vertex $-1 -1 $-1 $390 $609 #
straight-curve $-1 -1 $-1 54.29999999999999716 -6.299999999999999822 -33.5 0 1 0 F 0 F 40.29999999999999716 #
straight-curve $-1 -1 $-1 53.00000000000000711 7.5 3.049999999999999822 0 1 0 F 0 F 26.50000000000000355 #
DXID-attrib $-1 -1 $-1 $-1 $398 @10 ASM ENTITY @2 10 #
face $610 -1 $-1 $611 $593 $4 $-1 $612 forward single #
loop $-1 -1 $-1 $-1 $613 $398 #
plane-surface $-1 -1 $-1 47 5 -38 1 0 0 0 0 1 forward_v I I I I #
coedge $-1 -1 $-1 $503 $614 $400 $515 forward $606 $-1 #
edge $-1 -1 $-1 $517 0 $507 8.599999999999994316 $400 $615 forward @7 unknown #
coedge $-1 -1 $-1 $486 $401 $614 $616 reversed $487 $-1 #
vertex $-1 -1 $-1 $402 $617 #
straight-curve $-1 -1 $-1 45.70000000000000284 -6.299999999999999822 -33.5 0 1 0 F 0 F 40.29999999999999716 #
edge $-1 -1 $-1 $421 0.4999999999999993339 $520 19.5 $404 $618 forward @7 unknown #
vertex $-1 -1 $-1 $406 $619 #
straight-curve $-1 -1 $-1 53.00000000000000711 26.50000000000000355 -38 0 0 1 F 4.500000000000001776 F 39.54999999999999716 #
point $-1 -1 $-1 53.00000000000000711 26.50000000000000355 -33.5 #
edge $-1 -1 $-1 $412 0 $520 6.000000000000005329 $409 $620 forward @7 unknown #
face $621 -1 $-1 $527 $411 $4 $-1 $622 forward single #
point $-1 -1 $-1 47 26.50000000000000355 1.550000000000000266 #
straight-curve $-1 -1 $-1 46.35000000000000853 26.50000000000000355 -33.5 -1 0 0 F -6.650000000000000355 F -0.6499999999999950262 #
face $623 -1 $-1 $224 $417 $4 $-1 $624 forward single #
point $-1 -1 $-1 53.00000000000000711 7.5 1.550000000000000266 #
coedge $-1 -1 $-1 $625 $423 $626 $627 forward $162 $-1 #
coedge $-1 -1 $-1 $467 $466 $423 $531 forward $468 $-1 #
edge $-1 -1 $-1 $628 -0.9949999999999992184 $533 1.005000000000002558 $423 $629 forward @7 unknown #
coedge $-1 -1 $-1 $544 $424 $426 $535 reversed $359 $-1 #
vertex $-1 -1 $-1 $425 $630 #
straight-curve $-1 -1 $-1 63.00000000000000711 -25 -30 0 1 0 F 30 F 41.00999999999999801 #
edge $-1 -1 $-1 $552 12.00000000000000178 $427 14.00000000000000355 $426 $631 forward @7 unknown #
point $-1 -1 $-1 63.00000000000000711 16.01000000000000156 -30 #
coedge $-1 -1 $-1 $429 $632 $633 $634 forward $162 $-1 #
coedge $-1 -1 $-1 $455 $454 $429 $539 forward $456 $-1 #
edge $-1 -1 $-1 $540 0 $635 8.999999999999998224 $429 $636 forward @7 unknown #
vertex $-1 -1 $-1 $539 $637 #
straight-curve $-1 -1 $-1 63.00000000000000711 -25 -10 0 0 -1 F 0 F 30 #
DXID-attrib $-1 -1 $-1 $-1 $433 @10 ASM ENTITY @2 23 #
plane-surface $-1 -1 $-1 61.00000000000000711 21.17803734134799853 -27.17803734134000138 -1 -0 -0 0 0 -1 forward_v I I I I #
coedge $-1 -1 $-1 $435 $532 $444 $550 reversed $359 $-1 #
straight-curve $-1 -1 $-1 37 24.00000000000000355 -30 1 0 0 F 2.000000000000001776 F 24.00000000000000355 #
edge $-1 -1 $-1 $440 -25.91098132932600606 $475 -17.92098132932600052 $472 $638 forward @7 unknown #
face $639 -1 $-1 $363 $439 $4 $-1 $640 reversed single #
point $-1 -1 $-1 39 24.00000000000000355 -30 #
straight-curve $-1 -1 $-1 39 16 -30.01000000000000512 0 0.7071067811870000996 0.7071067811870000996 F 0.01414213562372504916 F 11.31370849897752073 #
edge $-1 -1 $-1 $447 -25.91098132932600606 $552 -17.92098132932600052 $444 $641 forward @7 unknown #
point $-1 -1 $-1 61.00000000000000711 24.00000000000000355 -30 #
vertex $-1 -1 $-1 $449 $642 #
straight-curve $-1 -1 $-1 61.00000000000000711 16 -30.01000000000000512 0 0.7071067811870000996 0.7071067811870000996 F 0.01414213562372504916 F 11.31370849897752073 #
coedge $-1 -1 $-1 $643 $644 $451 $555 forward $645 $-1 #
edge $-1 -1 $-1 $646 1.414213562372190092 $559 11.31370849897751896 $554 $647 forward @7 unknown #
coedge $-1 -1 $-1 $633 $452 $455 $561 forward $558 $-1 #
coedge $-1 -1 $-1 $452 $648 $643 $649 forward $558 $-1 #
loop $-1 -1 $-1 $-1 $633 $650 #
vertex $-1 -1 $-1 $555 $651 #
straight-curve $-1 -1 $-1 37 -16 -40 0 0 1 F 17.98999999999999844 F 30 #
edge $-1 -1 $-1 $457 0 $635 26.00000000000000355 $556 $652 forward @7 unknown #
face $653 -1 $-1 $460 $456 $4 $-1 $654 forward single #
point $-1 -1 $-1 37 -16 -10 #
straight-curve $-1 -1 $-1 37 -25 -10 1 0 0 F 0 F 26.00000000000000355 #
DXID-attrib $-1 -1 $-1 $-1 $460 @10 ASM ENTITY @2 37 #
plane-surface $-1 -1 $-1 37 -25 -40 0 1 0 0 0 1 forward_v I I I I #
coedge $-1 -1 $-1 $655 $656 $463 $568 forward $657 $-1 #
edge $-1 -1 $-1 $572 -0.9949999999999992184 $646 1.995000000000000107 $567 $658 forward @7 unknown #
coedge $-1 -1 $-1 $626 $464 $656 $659 forward $571 $-1 #
coedge $-1 -1 $-1 $464 $626 $466 $574 reversed $571 $-1 #
loop $-1 -1 $-1 $-1 $570 $581 #
vertex $-1 -1 $-1 $465 $660 #
straight-curve $-1 -1 $-1 37 7.5 -32 0 -1 0 F 2.5 F 16.49999999999999645 #
edge $-1 -1 $-1 $469 1.000000000000000888 $628 27.00000000000000355 $466 $661 forward @7 unknown #
point $-1 -1 $-1 37 5 -32 #
straight-curve $-1 -1 $-1 36.5 5 -30 -1 0 0 F -26.50000000000000355 F -0.4999999999999982236 #
DXID-attrib $-1 -1 $-1 $-1 $473 @10 ASM ENTITY @2 24 #
plane-surface $-1 -1 $-1 37 -25 -30 0 0 1 1 0 0 forward_v I I I I #
point $-1 -1 $-1 39 16.01000000000000156 -30 #
DXID-attrib $-1 -1 $-1 $-1 $478 @10 ASM ENTITY @2 27 #
face $662 -1 $-1 $663 $571 $4 $-1 $664 forward single #
plane-surface $-1 -1 $-1 36 5 -32 0 1 0 0 0 1 forward_v I I I I #
coedge $-1 -1 $-1 $613 $665 $483 $584 forward $512 $-1 #
edge $-1 -1 $-1 $594 -19.92578589633000163 $586 -18.42578589633000519 $583 $666 forward @7 unknown #
coedge $-1 -1 $-1 $484 $498 $613 $667 forward $385 $-1 #
vertex $-1 -1 $-1 $667 $668 #
straight-curve $-1 -1 $-1 47.85000000000000142 34 -36.5 -1 0 0 F 0.8499999999999996447 F 2.149999999999998579 #
edge $-1 -1 $-1 $669 0 $488 40.29999999999999716 $501 $670 forward @7 unknown #
face $671 -1 $-1 $524 $487 $4 $-1 $672 forward single #
point $-1 -1 $-1 45.70000000000000284 34 -36.5 #
coedge $-1 -1 $-1 $673 $491 $665 $674 forward $593 $-1 #
coedge $-1 -1 $-1 $491 $673 $493 $597 reversed $593 $-1 #
loop $-1 -1 $-1 $-1 $591 $511 #
vertex $-1 -1 $-1 $674 $675 #
straight-curve $-1 -1 $-1 48.50000000000000711 34 -38 -1 0 0 F -4.500000000000001776 F 1.500000000000003553 #
coedge $-1 -1 $-1 $494 $493 $676 $677 forward $495 $-1 #
edge $-1 -1 $-1 $496 0 $678 29.00000000000000355 $592 $679 forward @7 unknown #
face $680 -1 $-1 $681 $495 $4 $-1 $682 reversed single #
point $-1 -1 $-1 53.00000000000000711 34 -38 #
coedge $-1 -1 $-1 $676 $683 $498 $601 reversed $684 $-1 #
edge $-1 -1 $-1 $602 -6.650000000000000355 $685 -0.6499999999999950262 $498 $686 forward @7 unknown #
vertex $-1 -1 $-1 $499 $687 #
straight-curve $-1 -1 $-1 53.00000000000000711 34 -36.5 0 -1 0 F 0 F 29.00000000000000355 #
coedge $-1 -1 $-1 $614 $503 $500 $605 reversed $606 $-1 #
edge $-1 -1 $-1 $669 0 $505 8.599999999999994316 $500 $688 forward @7 unknown #
loop $-1 -1 $-1 $-1 $604 $681 #
straight-curve $-1 -1 $-1 54.29999999999999716 -6.299999999999999822 -36.5 0 0 1 F 0 F 3.000000000000002665 #
point $-1 -1 $-1 54.29999999999999716 -6.299999999999999822 -36.5 #
point $-1 -1 $-1 54.29999999999999716 -6.299999999999999822 -33.5 #
DXID-attrib $-1 -1 $-1 $-1 $511 @10 ASM ENTITY @2 11 #
face $689 -1 $-1 $598 $684 $4 $-1 $690 forward single #
plane-surface $-1 -1 $-1 47 5 -38 0 0 1 1 0 0 forward_v I I I I #
coedge $-1 -1 $-1 $691 $583 $585 $667 reversed $512 $-1 #
coedge $-1 -1 $-1 $514 $604 $516 $616 forward $606 $-1 #
straight-curve $-1 -1 $-1 45.70000000000000284 -6.299999999999999822 -33.5 1 0 0 F 0 F 8.599999999999994316 #
edge $-1 -1 $-1 $669 0 $517 3.000000000000002665 $614 $692 forward @7 unknown #
point $-1 -1 $-1 45.70000000000000284 -6.299999999999999822 -33.5 #
straight-curve $-1 -1 $-1 53.00000000000000711 7.000000000000000888 1.550000000000000266 0 1 0 F 0.4999999999999993339 F 19.5 #
point $-1 -1 $-1 53.00000000000000711 26.50000000000000355 1.550000000000000266 #
straight-curve $-1 -1 $-1 47 26.50000000000000355 1.550000000000000266 1 0 0 F 0 F 6.000000000000005329 #
DXID-attrib $-1 -1 $-1 $-1 $524 @10 ASM ENTITY @2 16 #
plane-surface $-1 -1 $-1 47 26.50000000000000355 -38 0 1 0 0 0 1 forward_v I I I I #
DXID-attrib $-1 -1 $-1 $-1 $527 @10 ASM ENTITY @2 17 #
plane-surface $-1 -1 $-1 47 7.000000000000000888 1.550000000000000266 0 0 1 1 0 0 forward_v I I I I #
coedge $-1 -1 $-1 $632 $529 $693 $694 forward $162 $-1 #
coedge $-1 -1 $-1 $570 $569 $529 $627 reversed $571 $-1 #
edge $-1 -1 $-1 $628 2.5 $695 16.49999999999999645 $529 $696 forward @7 unknown #
vertex $-1 -1 $-1 $531 $697 #
straight-curve $-1 -1 $-1 63.00000000000000711 5 -31.00500000000000256 0 0 1 F -0.9949999999999992184 F 1.005000000000002558 #
point $-1 -1 $-1 63.00000000000000711 5 -30 #
straight-curve $-1 -1 $-1 49 16.01000000000000156 -30 1 0 0 F 12.00000000000000178 F 14.00000000000000355 #
coedge $-1 -1 $-1 $537 $625 $698 $699 forward $162 $-1 #
coedge $-1 -1 $-1 $700 $556 $537 $634 reversed $558 $-1 #
edge $-1 -1 $-1 $701 17.98999999999999844 $635 30 $537 $702 forward @7 unknown #
vertex $-1 -1 $-1 $634 $703 #
straight-curve $-1 -1 $-1 63.00000000000000711 -25 -10 0 1 0 F 0 F 8.999999999999998224 #
point $-1 -1 $-1 63.00000000000000711 -25 -10 #
straight-curve $-1 -1 $-1 39 -1.910981329326000289 -30 0 -1 0 F -25.91098132932600606 F -17.92098132932600052 #
DXID-attrib $-1 -1 $-1 $-1 $547 @10 ASM ENTITY @2 25 #
plane-surface $-1 -1 $-1 39 21.17803734134799853 -27.17803734134000138 -1 -0 -0 0 0 -1 forward_v I I I I #
straight-curve $-1 -1 $-1 61.00000000000000711 -1.910981329326000289 -30 0 -1 0 F -25.91098132932600606 F -17.92098132932600052 #
point $-1 -1 $-1 61.00000000000000711 16.01000000000000156 -30 #
coedge $-1 -1 $-1 $704 $554 $557 $649 reversed $645 $-1 #
coedge $-1 -1 $-1 $554 $704 $655 $705 reversed $645 $-1 #
loop $-1 -1 $-1 $-1 $554 $706 #
vertex $-1 -1 $-1 $568 $707 #
straight-curve $-1 -1 $-1 37 -8 -30.01000000000000512 0 -0.7071067811870000996 0.7071067811870000996 F 1.414213562372190092 F 11.31370849897751896 #
coedge $-1 -1 $-1 $557 $708 $709 $710 reversed $558 $-1 #
edge $-1 -1 $-1 $711 -2.000000000000001776 $559 0 $643 $712 forward @7 unknown #
face $713 -1 $-1 $562 $558 $4 $-1 $714 forward single #
point $-1 -1 $-1 37 -16 -22.01000000000000156 #
straight-curve $-1 -1 $-1 37 -16 -10 1 0 0 F 0 F 26.00000000000000355 #
DXID-attrib $-1 -1 $-1 $-1 $562 @10 ASM ENTITY @2 36 #
plane-surface $-1 -1 $-1 37 -25 -10 0 0 1 1 0 0 forward_v I I I I #
coedge $-1 -1 $-1 $715 $567 $644 $705 forward $657 $-1 #
coedge $-1 -1 $-1 $567 $693 $569 $659 reversed $657 $-1 #
loop $-1 -1 $-1 $-1 $656 $663 #
straight-curve $-1 -1 $-1 37 -9 -31.00500000000000256 0 0 1 F -0.9949999999999992184 F 1.995000000000000107 #
edge $-1 -1 $-1 $572 1.000000000000000888 $695 27.00000000000000355 $569 $716 forward @7 unknown #
point $-1 -1 $-1 37 -9 -32 #
straight-curve $-1 -1 $-1 36 5 -32 1 0 0 F 1.000000000000000888 F 27.00000000000000355 #
DXID-attrib $-1 -1 $-1 $-1 $581 @10 ASM ENTITY @2 28 #
face $717 -1 $-1 $706 $657 $4 $-1 $718 forward single #
plane-surface $-1 -1 $-1 36 -9 -32 0 0 1 1 0 0 forward_v I I I I #
coedge $-1 -1 $-1 $583 $691 $591 $674 reversed $512 $-1 #
straight-curve $-1 -1 $-1 47 34 -18.07421410366999837 0 0 1 F -19.92578589633000163 F -18.42578589633000519 #
edge $-1 -1 $-1 $685 0 $586 29.00000000000000355 $585 $719 forward @7 unknown #
point $-1 -1 $-1 47 34 -36.5 #
vertex $-1 -1 $-1 $588 $720 #
straight-curve $-1 -1 $-1 45.70000000000000284 -6.299999999999999822 -36.5 0 1 0 F 0 F 40.29999999999999716 #
DXID-attrib $-1 -1 $-1 $-1 $589 @10 ASM ENTITY @2 15 #
plane-surface $-1 -1 $-1 45.70000000000000284 -6.299999999999999822 -36.5 1 0 0 0 0 1 forward_v I I I I #
coedge $-1 -1 $-1 $592 $591 $721 $722 forward $593 $-1 #
edge $-1 -1 $-1 $594 0 $723 29.00000000000000355 $665 $724 forward @7 unknown #
point $-1 -1 $-1 47 34 -38 #
coedge $-1 -1 $-1 $721 $600 $596 $677 reversed $684 $-1 #
edge $-1 -1 $-1 $678 0 $602 1.499999999999999112 $676 $725 forward @7 unknown #
vertex $-1 -1 $-1 $722 $726 #
straight-curve $-1 -1 $-1 53.00000000000000711 34 -38 0 -1 0 F 0 F 29.00000000000000355 #
DXID-attrib $-1 -1 $-1 $-1 $598 @10 ASM ENTITY @2 13 #
face $727 -1 $-1 $589 $606 $4 $-1 $728 forward single #
plane-surface $-1 -1 $-1 53.00000000000000711 5 -38 1 0 0 0 0 1 forward_v I I I I #
coedge $-1 -1 $-1 $600 $721 $691 $729 forward $684 $-1 #
loop $-1 -1 $-1 $-1 $676 $611 #
vertex $-1 -1 $-1 $601 $730 #
straight-curve $-1 -1 $-1 46.35000000000000853 5 -36.5 -1 0 0 F -6.650000000000000355 F -0.6499999999999950262 #
point $-1 -1 $-1 53.00000000000000711 5 -36.5 #
straight-curve $-1 -1 $-1 45.70000000000000284 -6.299999999999999822 -36.5 1 0 0 F 0 F 8.599999999999994316 #
DXID-attrib $-1 -1 $-1 $-1 $611 @10 ASM ENTITY @2 12 #
plane-surface $-1 -1 $-1 47 5 -38 0 1 0 0 0 1 forward_v I I I I #
coedge $-1 -1 $-1 $665 $613 $683 $729 reversed $512 $-1 #
straight-curve $-1 -1 $-1 45.70000000000000284 -6.299999999999999822 -36.5 0 0 1 F 0 F 3.000000000000002665 #
coedge $-1 -1 $-1 $656 $731 $625 $694 reversed $657 $-1 #
edge $-1 -1 $-1 $695 -0.9949999999999992184 $732 1.995000000000000107 $625 $733 forward @7 unknown #
vertex $-1 -1 $-1 $627 $734 #
straight-curve $-1 -1 $-1 63.00000000000000711 7.5 -32 0 -1 0 F 2.5 F 16.49999999999999645 #
point $-1 -1 $-1 63.00000000000000711 5 -32 #
coedge $-1 -1 $-1 $735 $736 $632 $699 reversed $737 $-1 #
edge $-1 -1 $-1 $732 1.414213562372190092 $701 11.31370849897751896 $632 $738 forward @7 unknown #
coedge $-1 -1 $-1 $739 $633 $736 $740 forward $558 $-1 #
vertex $-1 -1 $-1 $699 $741 #
straight-curve $-1 -1 $-1 63.00000000000000711 -16 -40 0 0 1 F 17.98999999999999844 F 30 #
point $-1 -1 $-1 63.00000000000000711 -16 -10 #
coedge $-1 -1 $-1 $644 $643 $742 $743 reversed $645 $-1 #
edge $-1 -1 $-1 $646 0.4999999999999982236 $744 2.5 $655 $745 forward @7 unknown #
face $746 -1 $-1 $747 $645 $4 $-1 $748 reversed single #
point $-1 -1 $-1 37 -9 -29.01000000000000156 #
coedge $-1 -1 $-1 $648 $739 $749 $750 forward $558 $-1 #
coedge $-1 -1 $-1 $751 $742 $648 $710 forward $752 $-1 #
edge $-1 -1 $-1 $711 -11.57901867067000268 $753 -3.589018670670003353 $709 $754 forward @7 unknown #
vertex $-1 -1 $-1 $649 $755 #
straight-curve $-1 -1 $-1 37 -16 -22.01000000000000156 -1 0 0 F -2.000000000000001776 F 0 #
DXID-attrib $-1 -1 $-1 $-1 $650 @10 ASM ENTITY @2 35 #
plane-surface $-1 -1 $-1 37 -16 -40 0 1 0 0 0 1 forward_v I I I I #
coedge $-1 -1 $-1 $756 $655 $757 $758 reversed $657 $-1 #
straight-curve $-1 -1 $-1 36 -9 -32 1 0 0 F 1.000000000000000888 F 27.00000000000000355 #
DXID-attrib $-1 -1 $-1 $-1 $663 @10 ASM ENTITY @2 29 #
plane-surface $-1 -1 $-1 36 -9 -32 0 1 0 0 0 1 forward_v I I I I #
straight-curve $-1 -1 $-1 47 5 -36.5 0 1 0 F 0 F 29.00000000000000355 #
point $-1 -1 $-1 45.70000000000000284 -6.299999999999999822 -36.5 #
coedge $-1 -1 $-1 $683 $676 $673 $722 reversed $684 $-1 #
edge $-1 -1 $-1 $723 0 $678 6.000000000000005329 $673 $759 forward @7 unknown #
vertex $-1 -1 $-1 $729 $760 #
straight-curve $-1 -1 $-1 47 34 -38 0 -1 0 F 0 F 29.00000000000000355 #
straight-curve $-1 -1 $-1 53.00000000000000711 5 -38 0 0 1 F 0 F 1.499999999999999112 #
point $-1 -1 $-1 53.00000000000000711 5 -38 #
DXID-attrib $-1 -1 $-1 $-1 $681 @10 ASM ENTITY @2 14 #
plane-surface $-1 -1 $-1 45.70000000000000284 -6.299999999999999822 -36.5 0 1 0 0 0 1 forward_v I I I I #
edge $-1 -1 $-1 $723 0 $685 1.499999999999999112 $691 $761 forward @7 unknown #
point $-1 -1 $-1 47 5 -36.5 #
coedge $-1 -1 $-1 $693 $762 $735 $763 forward $657 $-1 #
vertex $-1 -1 $-1 $694 $764 #
straight-curve $-1 -1 $-1 63.00000000000000711 -9 -31.00500000000000256 0 0 1 F -0.9949999999999992184 F 1.995000000000000107 #
point $-1 -1 $-1 63.00000000000000711 -9 -32 #
coedge $-1 -1 $-1 $765 $698 $731 $763 reversed $737 $-1 #
coedge $-1 -1 $-1 $698 $765 $700 $740 reversed $737 $-1 #
loop $-1 -1 $-1 $-1 $765 $766 #
straight-curve $-1 -1 $-1 63.00000000000000711 -8 -30.01000000000000512 0 -0.7071067811870000996 0.7071067811870000996 F 1.414213562372190092 F 11.31370849897751896 #
coedge $-1 -1 $-1 $708 $700 $767 $768 forward $558 $-1 #
edge $-1 -1 $-1 $701 -14.00000000000000355 $769 -12.00000000000000178 $736 $770 forward @7 unknown #
point $-1 -1 $-1 63.00000000000000711 -16 -22.01000000000000156 #
coedge $-1 -1 $-1 $709 $757 $704 $743 forward $752 $-1 #
edge $-1 -1 $-1 $744 1.414213562372190092 $711 11.31370849897751896 $704 $771 forward @7 unknown #
vertex $-1 -1 $-1 $705 $772 #
straight-curve $-1 -1 $-1 36.5 -9 -29.01000000000000156 1 0 0 F 0.4999999999999982236 F 2.5 #
DXID-attrib $-1 -1 $-1 $-1 $706 @10 ASM ENTITY @2 30 #
face $773 -1 $-1 $774 $752 $4 $-1 $775 forward single #
plane-surface $-1 -1 $-1 37 -8 -30.01000000000000512 0 -0.7071067811865475727 -0.7071067811865475727 0 -0.7071067811865476838 0.7071067811865476838 forward_v I I I I #
coedge $-1 -1 $-1 $776 $777 $708 $750 reversed $778 $-1 #
edge $-1 -1 $-1 $779 -24.00000000000000355 $753 -2.000000000000001776 $749 $780 forward @7 unknown #
coedge $-1 -1 $-1 $757 $709 $777 $781 forward $752 $-1 #
loop $-1 -1 $-1 $-1 $709 $747 #
vertex $-1 -1 $-1 $710 $782 #
straight-curve $-1 -1 $-1 39 -16 -33.58901867067000069 0 0 -1 F -11.57901867067000268 F -3.589018670670003353 #
point $-1 -1 $-1 39 -16 -22.01000000000000156 #
coedge $-1 -1 $-1 $762 $715 $783 $784 reversed $657 $-1 #
coedge $-1 -1 $-1 $742 $751 $715 $758 forward $752 $-1 #
edge $-1 -1 $-1 $785 -0.4109813293299957593 $744 0.5790186706700017893 $715 $786 forward @7 unknown #
straight-curve $-1 -1 $-1 47 5 -38 1 0 0 F 0 F 6.000000000000005329 #
point $-1 -1 $-1 47 5 -38 #
straight-curve $-1 -1 $-1 47 5 -38 0 0 1 F 0 F 1.499999999999999112 #
coedge $-1 -1 $-1 $731 $756 $787 $788 forward $657 $-1 #
edge $-1 -1 $-1 $789 12.5 $732 14.50000000000000178 $731 $790 forward @7 unknown #
point $-1 -1 $-1 63.00000000000000711 -9 -29.01000000000000156 #
coedge $-1 -1 $-1 $736 $735 $791 $792 forward $737 $-1 #
face $793 -1 $-1 $650 $737 $4 $-1 $794 reversed single #
coedge $-1 -1 $-1 $791 $795 $739 $768 reversed $796 $-1 #
edge $-1 -1 $-1 $769 -11.57901867067000268 $779 -3.589018670670003353 $767 $797 forward @7 unknown #
vertex $-1 -1 $-1 $768 $798 #
straight-curve $-1 -1 $-1 49 -16 -22.01000000000000156 -1 0 0 F -14.00000000000000355 F -12.00000000000000178 #
straight-curve $-1 -1 $-1 39 -8 -30.01000000000000512 0 -0.7071067811870000996 0.7071067811870000996 F 1.414213562372190092 F 11.31370849897751896 #
point $-1 -1 $-1 39 -9 -29.01000000000000156 #
DXID-attrib $-1 -1 $-1 $-1 $747 @10 ASM ENTITY @2 31 #
face $799 -1 $-1 $800 $778 $4 $-1 $801 forward single #
plane-surface $-1 -1 $-1 39 -13.17803734134000138 -27.17803734134000138 1 0 0 0 0 1 forward_v I I I I #
coedge $-1 -1 $-1 $783 $749 $795 $802 forward $778 $-1 #
coedge $-1 -1 $-1 $749 $783 $751 $781 reversed $778 $-1 #
loop $-1 -1 $-1 $-1 $783 $774 #
vertex $-1 -1 $-1 $750 $803 #
straight-curve $-1 -1 $-1 37 -16 -30 -1 0 0 F -24.00000000000000355 F -2.000000000000001776 #
edge $-1 -1 $-1 $753 3.089018670670000688 $785 10.08901867067000246 $751 $804 forward @7 unknown #
point $-1 -1 $-1 39 -16 -30 #
coedge $-1 -1 $-1 $777 $776 $756 $784 forward $778 $-1 #
edge $-1 -1 $-1 $805 -24.5 $785 -2.5 $756 $806 forward @7 unknown #
vertex $-1 -1 $-1 $758 $807 #
straight-curve $-1 -1 $-1 39 -9 -29.58901867067000424 0 0 1 F -0.4109813293299957593 F 0.5790186706700017893 #
coedge $-1 -1 $-1 $795 $791 $762 $788 reversed $796 $-1 #
edge $-1 -1 $-1 $805 -0.4109813293299957593 $789 0.5790186706700017893 $762 $808 forward @7 unknown #
vertex $-1 -1 $-1 $788 $809 #
straight-curve $-1 -1 $-1 48.50000000000000711 -9 -29.01000000000000156 1 0 0 F 12.5 F 14.50000000000000178 #
coedge $-1 -1 $-1 $787 $767 $765 $792 reversed $796 $-1 #
edge $-1 -1 $-1 $789 1.414213562372190092 $769 11.31370849897751896 $791 $810 forward @7 unknown #
DXID-attrib $-1 -1 $-1 $-1 $766 @10 ASM ENTITY @2 34 #
plane-surface $-1 -1 $-1 61.00000000000000711 -8 -30.01000000000000512 0 -0.7071067811865475727 -0.7071067811865475727 0 -0.7071067811865476838 0.7071067811865476838 forward_v I I I I #
coedge $-1 -1 $-1 $767 $787 $776 $802 reversed $796 $-1 #
loop $-1 -1 $-1 $-1 $767 $800 #
straight-curve $-1 -1 $-1 61.00000000000000711 -16 -33.58901867067000069 0 0 -1 F -11.57901867067000268 F -3.589018670670003353 #
point $-1 -1 $-1 61.00000000000000711 -16 -22.01000000000000156 #
DXID-attrib $-1 -1 $-1 $-1 $774 @10 ASM ENTITY @2 32 #
face $811 -1 $-1 $766 $796 $4 $-1 $812 reversed single #
plane-surface $-1 -1 $-1 37 -25 -30 0 0 1 1 0 0 forward_v I I I I #
edge $-1 -1 $-1 $779 3.089018670670000688 $805 10.08901867067000246 $776 $813 forward @7 unknown #
point $-1 -1 $-1 61.00000000000000711 -16 -30 #
straight-curve $-1 -1 $-1 39 -19.08901867067000069 -30 0 1 0 F 3.089018670670000688 F 10.08901867067000246 #
vertex $-1 -1 $-1 $784 $814 #
straight-curve $-1 -1 $-1 36.5 -9 -30 -1 0 0 F -24.5 F -2.5 #
point $-1 -1 $-1 39 -9 -30 #
straight-curve $-1 -1 $-1 61.00000000000000711 -9 -29.58901867067000424 0 0 1 F -0.4109813293299957593 F 0.5790186706700017893 #
point $-1 -1 $-1 61.00000000000000711 -9 -29.01000000000000156 #
straight-curve $-1 -1 $-1 61.00000000000000711 -8 -30.01000000000000512 0 -0.7071067811870000996 0.7071067811870000996 F 1.414213562372190092 F 11.31370849897751896 #
DXID-attrib $-1 -1 $-1 $-1 $800 @10 ASM ENTITY @2 33 #
plane-surface $-1 -1 $-1 61.00000000000000711 -13.17803734134000138 -27.17803734134000138 1 0 0 0 0 1 forward_v I I I I #
straight-curve $-1 -1 $-1 61.00000000000000711 -19.08901867067000069 -30 0 1 0 F 3.089018670670000688 F 10.08901867067000246 #
point $-1 -1 $-1 61.00000000000000711 -9 -30 #
End-of-ACIS-data 